# Wavefront OBJ file automatically generated by Tiled2Unity

# Vertices (Count = 252)
v -1216 -4992 0
v -1280 -4992 0
v -1280 -4928 0
v -1216 -4928 0
v -1344 -4992 0
v -1344 -4928 0
v -1408 -4992 0
v -1408 -4928 0
v -1472 -4992 0
v -1472 -4928 0
v -1536 -4992 0
v -1536 -4928 0
v -1600 -4992 0
v -1600 -4928 0
v -1664 -4992 0
v -1664 -4928 0
v -1728 -4992 0
v -1728 -4928 0
v -1792 -4992 0
v -1792 -4928 0
v -1856 -4992 0
v -1856 -4928 0
v -1920 -4992 0
v -1920 -4928 0
v -1984 -4992 0
v -1984 -4928 0
v -2048 -4992 0
v -2048 -4928 0
v -2112 -4992 0
v -2112 -4928 0
v -2176 -4992 0
v -2176 -4928 0
v -2240 -4992 0
v -2240 -4928 0
v -2304 -4992 0
v -2304 -4928 0
v -2368 -4992 0
v -2368 -4928 0
v -2432 -4992 0
v -2432 -4928 0
v -1216 -5056 0
v -1280 -5056 0
v -1344 -5056 0
v -1408 -5056 0
v -1472 -5056 0
v -1536 -5056 0
v -1600 -5056 0
v -1664 -5056 0
v -1728 -5056 0
v -1792 -5056 0
v -1856 -5056 0
v -1920 -5056 0
v -1984 -5056 0
v -2048 -5056 0
v -2112 -5056 0
v -2176 -5056 0
v -2240 -5056 0
v -2304 -5056 0
v -2368 -5056 0
v -2432 -5056 0
v -1216 -5120 0
v -1280 -5120 0
v -1344 -5120 0
v -1408 -5120 0
v -1472 -5120 0
v -1536 -5120 0
v -1600 -5120 0
v -1664 -5120 0
v -1728 -5120 0
v -1792 -5120 0
v -1856 -5120 0
v -1920 -5120 0
v -1984 -5120 0
v -2048 -5120 0
v -2112 -5120 0
v -2176 -5120 0
v -2240 -5120 0
v -2304 -5120 0
v -2368 -5120 0
v -2432 -5120 0
v -1216 -5184 0
v -1280 -5184 0
v -1344 -5184 0
v -1408 -5184 0
v -1472 -5184 0
v -1536 -5184 0
v -1600 -5184 0
v -1664 -5184 0
v -1728 -5184 0
v -1792 -5184 0
v -1856 -5184 0
v -1920 -5184 0
v -1984 -5184 0
v -2048 -5184 0
v -2112 -5184 0
v -2176 -5184 0
v -2240 -5184 0
v -2304 -5184 0
v -2368 -5184 0
v -2432 -5184 0
v -1216 -5248 0
v -1280 -5248 0
v -1344 -5248 0
v -1408 -5248 0
v -1472 -5248 0
v -1536 -5248 0
v -1600 -5248 0
v -1664 -5248 0
v -1728 -5248 0
v -1792 -5248 0
v -1856 -5248 0
v -1920 -5248 0
v -1984 -5248 0
v -2048 -5248 0
v -2112 -5248 0
v -2176 -5248 0
v -2240 -5248 0
v -2304 -5248 0
v -2368 -5248 0
v -2432 -5248 0
v -1216 -5312 0
v -1280 -5312 0
v -1344 -5312 0
v -1216 -5376 0
v -1280 -5376 0
v -1344 -5376 0
v -1216 -5440 0
v -1280 -5440 0
v -1344 -5440 0
v -1216 -5504 0
v -1280 -5504 0
v -1344 -5504 0
v -1216 -5824 0
v -1280 -5824 0
v -1280 -5760 0
v -1216 -5760 0
v -1344 -5824 0
v -1344 -5760 0
v -1408 -5824 0
v -1408 -5760 0
v -1472 -5824 0
v -1472 -5760 0
v -1536 -5824 0
v -1536 -5760 0
v -1600 -5824 0
v -1600 -5760 0
v -1664 -5824 0
v -1664 -5760 0
v -1728 -5824 0
v -1728 -5760 0
v -1792 -5824 0
v -1792 -5760 0
v -1856 -5824 0
v -1856 -5760 0
v -1920 -5824 0
v -1920 -5760 0
v -1984 -5824 0
v -1984 -5760 0
v -2048 -5824 0
v -2048 -5760 0
v -2112 -5824 0
v -2112 -5760 0
v -2176 -5824 0
v -2176 -5760 0
v -2240 -5824 0
v -2240 -5760 0
v -2304 -5824 0
v -2304 -5760 0
v -2368 -5824 0
v -2368 -5760 0
v -2432 -5824 0
v -2432 -5760 0
v -1216 -5888 0
v -1280 -5888 0
v -1344 -5888 0
v -1408 -5888 0
v -1472 -5888 0
v -1536 -5888 0
v -1600 -5888 0
v -1664 -5888 0
v -1728 -5888 0
v -1792 -5888 0
v -1856 -5888 0
v -1920 -5888 0
v -1984 -5888 0
v -2048 -5888 0
v -2112 -5888 0
v -2176 -5888 0
v -2240 -5888 0
v -2304 -5888 0
v -2368 -5888 0
v -2432 -5888 0
v -1216 -5952 0
v -1280 -5952 0
v -1344 -5952 0
v -1408 -5952 0
v -1472 -5952 0
v -1536 -5952 0
v -1600 -5952 0
v -1664 -5952 0
v -1728 -5952 0
v -1792 -5952 0
v -1856 -5952 0
v -1920 -5952 0
v -1984 -5952 0
v -2048 -5952 0
v -2112 -5952 0
v -2176 -5952 0
v -2240 -5952 0
v -2304 -5952 0
v -2368 -5952 0
v -2432 -5952 0
v -1216 -6016 0
v -1280 -6016 0
v -1344 -6016 0
v -1408 -6016 0
v -1472 -6016 0
v -1536 -6016 0
v -1600 -6016 0
v -1664 -6016 0
v -1728 -6016 0
v -1792 -6016 0
v -1856 -6016 0
v -1920 -6016 0
v -1984 -6016 0
v -2048 -6016 0
v -2112 -6016 0
v -2176 -6016 0
v -2240 -6016 0
v -2304 -6016 0
v -2368 -6016 0
v -2432 -6016 0
v -1216 -6080 0
v -1280 -6080 0
v -1344 -6080 0
v -1408 -6080 0
v -1472 -6080 0
v -1536 -6080 0
v -1600 -6080 0
v -1664 -6080 0
v -1728 -6080 0
v -1792 -6080 0
v -1856 -6080 0
v -1920 -6080 0
v -1984 -6080 0
v -2048 -6080 0
v -2112 -6080 0
v -2176 -6080 0
v -2240 -6080 0
v -2304 -6080 0
v -2368 -6080 0
v -2432 -6080 0

# Texture Coorindates (Count = 28)
vt 0.7501221 0.8126221
vt 0.8123779 0.8126221
vt 0.8123779 0.8748779
vt 0.7501221 0.8748779
vt 0.06262207 0.8751221
vt 0.1248779 0.8751221
vt 0.1248779 0.9373779
vt 0.06262207 0.9373779
vt 0.2501221 0.6876221
vt 0.3123779 0.6876221
vt 0.3123779 0.7498779
vt 0.2501221 0.7498779
vt 0.2501221 0.8751221
vt 0.3123779 0.8751221
vt 0.3123779 0.9373779
vt 0.2501221 0.9373779
vt 0.1251221 0.8751221
vt 0.1873779 0.8751221
vt 0.1873779 0.9373779
vt 0.1251221 0.9373779
vt 0.8126221 0.8751221
vt 0.8748779 0.8751221
vt 0.8748779 0.9373779
vt 0.8126221 0.9373779
vt 0.0001220703 0.8751221
vt 0.06237793 0.8751221
vt 0.06237793 0.9373779
vt 0.0001220703 0.9373779

# Normal
vn 0 0 -1

# Groups (Count = 2)
g mesh_[00]_[00]
f  1/1/1  2/2/1  3/3/1  4/4/1 
f  2/1/1  5/2/1  6/3/1  3/4/1 
f  5/1/1  7/2/1  8/3/1  6/4/1 
f  7/1/1  9/2/1  10/3/1  8/4/1 
f  9/1/1  11/2/1  12/3/1  10/4/1 
f  11/1/1  13/2/1  14/3/1  12/4/1 
f  13/1/1  15/2/1  16/3/1  14/4/1 
f  15/1/1  17/2/1  18/3/1  16/4/1 
f  17/1/1  19/2/1  20/3/1  18/4/1 
f  19/1/1  21/2/1  22/3/1  20/4/1 
f  21/1/1  23/2/1  24/3/1  22/4/1 
f  23/1/1  25/2/1  26/3/1  24/4/1 
f  25/1/1  27/2/1  28/3/1  26/4/1 
f  27/1/1  29/2/1  30/3/1  28/4/1 
f  29/1/1  31/2/1  32/3/1  30/4/1 
f  31/1/1  33/2/1  34/3/1  32/4/1 
f  33/1/1  35/2/1  36/3/1  34/4/1 
f  35/1/1  37/2/1  38/3/1  36/4/1 
f  37/1/1  39/2/1  40/3/1  38/4/1 
f  41/1/1  42/2/1  2/3/1  1/4/1 
f  42/1/1  43/2/1  5/3/1  2/4/1 
f  43/1/1  44/2/1  7/3/1  5/4/1 
f  44/1/1  45/2/1  9/3/1  7/4/1 
f  45/1/1  46/2/1  11/3/1  9/4/1 
f  46/1/1  47/2/1  13/3/1  11/4/1 
f  47/1/1  48/2/1  15/3/1  13/4/1 
f  48/1/1  49/2/1  17/3/1  15/4/1 
f  49/1/1  50/2/1  19/3/1  17/4/1 
f  50/1/1  51/2/1  21/3/1  19/4/1 
f  51/1/1  52/2/1  23/3/1  21/4/1 
f  52/1/1  53/2/1  25/3/1  23/4/1 
f  53/1/1  54/2/1  27/3/1  25/4/1 
f  54/1/1  55/2/1  29/3/1  27/4/1 
f  55/1/1  56/2/1  31/3/1  29/4/1 
f  56/1/1  57/2/1  33/3/1  31/4/1 
f  57/1/1  58/2/1  35/3/1  33/4/1 
f  58/1/1  59/2/1  37/3/1  35/4/1 
f  59/1/1  60/2/1  39/3/1  37/4/1 
f  61/1/1  62/2/1  42/3/1  41/4/1 
f  62/1/1  63/2/1  43/3/1  42/4/1 
f  63/1/1  64/2/1  44/3/1  43/4/1 
f  64/1/1  65/2/1  45/3/1  44/4/1 
f  65/1/1  66/2/1  46/3/1  45/4/1 
f  66/1/1  67/2/1  47/3/1  46/4/1 
f  67/1/1  68/2/1  48/3/1  47/4/1 
f  68/1/1  69/2/1  49/3/1  48/4/1 
f  69/1/1  70/2/1  50/3/1  49/4/1 
f  70/1/1  71/2/1  51/3/1  50/4/1 
f  71/1/1  72/2/1  52/3/1  51/4/1 
f  72/1/1  73/2/1  53/3/1  52/4/1 
f  73/1/1  74/2/1  54/3/1  53/4/1 
f  74/1/1  75/2/1  55/3/1  54/4/1 
f  75/1/1  76/2/1  56/3/1  55/4/1 
f  76/1/1  77/2/1  57/3/1  56/4/1 
f  77/1/1  78/2/1  58/3/1  57/4/1 
f  78/1/1  79/2/1  59/3/1  58/4/1 
f  79/1/1  80/2/1  60/3/1  59/4/1 
f  81/1/1  82/2/1  62/3/1  61/4/1 
f  82/1/1  83/2/1  63/3/1  62/4/1 
f  83/1/1  84/2/1  64/3/1  63/4/1 
f  84/1/1  85/2/1  65/3/1  64/4/1 
f  85/1/1  86/2/1  66/3/1  65/4/1 
f  86/1/1  87/2/1  67/3/1  66/4/1 
f  87/1/1  88/2/1  68/3/1  67/4/1 
f  88/1/1  89/2/1  69/3/1  68/4/1 
f  89/1/1  90/2/1  70/3/1  69/4/1 
f  90/1/1  91/2/1  71/3/1  70/4/1 
f  91/1/1  92/2/1  72/3/1  71/4/1 
f  92/1/1  93/2/1  73/3/1  72/4/1 
f  93/1/1  94/2/1  74/3/1  73/4/1 
f  94/1/1  95/2/1  75/3/1  74/4/1 
f  95/1/1  96/2/1  76/3/1  75/4/1 
f  96/1/1  97/2/1  77/3/1  76/4/1 
f  97/1/1  98/2/1  78/3/1  77/4/1 
f  98/1/1  99/2/1  79/3/1  78/4/1 
f  99/1/1  100/2/1  80/3/1  79/4/1 
f  101/1/1  102/2/1  82/3/1  81/4/1 
f  102/1/1  103/2/1  83/3/1  82/4/1 
f  103/1/1  104/2/1  84/3/1  83/4/1 
f  104/1/1  105/2/1  85/3/1  84/4/1 
f  105/1/1  106/2/1  86/3/1  85/4/1 
f  106/1/1  107/2/1  87/3/1  86/4/1 
f  107/1/1  108/2/1  88/3/1  87/4/1 
f  108/1/1  109/2/1  89/3/1  88/4/1 
f  109/1/1  110/2/1  90/3/1  89/4/1 
f  110/1/1  111/2/1  91/3/1  90/4/1 
f  111/1/1  112/2/1  92/3/1  91/4/1 
f  112/1/1  113/2/1  93/3/1  92/4/1 
f  113/1/1  114/2/1  94/3/1  93/4/1 
f  114/1/1  115/2/1  95/3/1  94/4/1 
f  115/1/1  116/2/1  96/3/1  95/4/1 
f  116/1/1  117/2/1  97/3/1  96/4/1 
f  117/1/1  118/2/1  98/3/1  97/4/1 
f  118/1/1  119/2/1  99/3/1  98/4/1 
f  119/1/1  120/2/1  100/3/1  99/4/1 
f  121/1/1  122/2/1  102/3/1  101/4/1 
f  122/1/1  123/2/1  103/3/1  102/4/1 
f  124/1/1  125/2/1  122/3/1  121/4/1 
f  125/1/1  126/2/1  123/3/1  122/4/1 
f  127/1/1  128/2/1  125/3/1  124/4/1 
f  128/1/1  129/2/1  126/3/1  125/4/1 
f  130/1/1  131/2/1  128/3/1  127/4/1 
f  131/1/1  132/2/1  129/3/1  128/4/1 
f  133/1/1  134/2/1  135/3/1  136/4/1 
f  134/1/1  137/2/1  138/3/1  135/4/1 
f  137/1/1  139/2/1  140/3/1  138/4/1 
f  139/1/1  141/2/1  142/3/1  140/4/1 
f  141/1/1  143/2/1  144/3/1  142/4/1 
f  143/1/1  145/2/1  146/3/1  144/4/1 
f  145/1/1  147/2/1  148/3/1  146/4/1 
f  147/1/1  149/2/1  150/3/1  148/4/1 
f  149/1/1  151/2/1  152/3/1  150/4/1 
f  151/1/1  153/2/1  154/3/1  152/4/1 
f  153/1/1  155/2/1  156/3/1  154/4/1 
f  155/1/1  157/2/1  158/3/1  156/4/1 
f  157/1/1  159/2/1  160/3/1  158/4/1 
f  159/1/1  161/2/1  162/3/1  160/4/1 
f  161/1/1  163/2/1  164/3/1  162/4/1 
f  163/1/1  165/2/1  166/3/1  164/4/1 
f  165/1/1  167/2/1  168/3/1  166/4/1 
f  167/1/1  169/2/1  170/3/1  168/4/1 
f  169/1/1  171/2/1  172/3/1  170/4/1 
f  173/1/1  174/2/1  134/3/1  133/4/1 
f  174/1/1  175/2/1  137/3/1  134/4/1 
f  175/1/1  176/2/1  139/3/1  137/4/1 
f  176/1/1  177/2/1  141/3/1  139/4/1 
f  177/1/1  178/2/1  143/3/1  141/4/1 
f  178/1/1  179/2/1  145/3/1  143/4/1 
f  179/1/1  180/2/1  147/3/1  145/4/1 
f  180/1/1  181/2/1  149/3/1  147/4/1 
f  181/1/1  182/2/1  151/3/1  149/4/1 
f  182/1/1  183/2/1  153/3/1  151/4/1 
f  183/1/1  184/2/1  155/3/1  153/4/1 
f  184/1/1  185/2/1  157/3/1  155/4/1 
f  185/1/1  186/2/1  159/3/1  157/4/1 
f  186/1/1  187/2/1  161/3/1  159/4/1 
f  187/1/1  188/2/1  163/3/1  161/4/1 
f  188/1/1  189/2/1  165/3/1  163/4/1 
f  189/1/1  190/2/1  167/3/1  165/4/1 
f  190/1/1  191/2/1  169/3/1  167/4/1 
f  191/1/1  192/2/1  171/3/1  169/4/1 
f  193/1/1  194/2/1  174/3/1  173/4/1 
f  194/1/1  195/2/1  175/3/1  174/4/1 
f  195/1/1  196/2/1  176/3/1  175/4/1 
f  196/1/1  197/2/1  177/3/1  176/4/1 
f  197/1/1  198/2/1  178/3/1  177/4/1 
f  198/1/1  199/2/1  179/3/1  178/4/1 
f  199/1/1  200/2/1  180/3/1  179/4/1 
f  200/1/1  201/2/1  181/3/1  180/4/1 
f  201/1/1  202/2/1  182/3/1  181/4/1 
f  202/1/1  203/2/1  183/3/1  182/4/1 
f  203/1/1  204/2/1  184/3/1  183/4/1 
f  204/1/1  205/2/1  185/3/1  184/4/1 
f  205/1/1  206/2/1  186/3/1  185/4/1 
f  206/1/1  207/2/1  187/3/1  186/4/1 
f  207/1/1  208/2/1  188/3/1  187/4/1 
f  208/1/1  209/2/1  189/3/1  188/4/1 
f  209/1/1  210/2/1  190/3/1  189/4/1 
f  210/1/1  211/2/1  191/3/1  190/4/1 
f  211/1/1  212/2/1  192/3/1  191/4/1 
f  213/1/1  214/2/1  194/3/1  193/4/1 
f  214/1/1  215/2/1  195/3/1  194/4/1 
f  215/1/1  216/2/1  196/3/1  195/4/1 
f  216/1/1  217/2/1  197/3/1  196/4/1 
f  217/1/1  218/2/1  198/3/1  197/4/1 
f  218/1/1  219/2/1  199/3/1  198/4/1 
f  219/1/1  220/2/1  200/3/1  199/4/1 
f  220/1/1  221/2/1  201/3/1  200/4/1 
f  221/1/1  222/2/1  202/3/1  201/4/1 
f  222/1/1  223/2/1  203/3/1  202/4/1 
f  223/1/1  224/2/1  204/3/1  203/4/1 
f  224/1/1  225/2/1  205/3/1  204/4/1 
f  225/1/1  226/2/1  206/3/1  205/4/1 
f  226/1/1  227/2/1  207/3/1  206/4/1 
f  227/1/1  228/2/1  208/3/1  207/4/1 
f  228/1/1  229/2/1  209/3/1  208/4/1 
f  229/1/1  230/2/1  210/3/1  209/4/1 
f  230/1/1  231/2/1  211/3/1  210/4/1 
f  231/1/1  232/2/1  212/3/1  211/4/1 
f  233/1/1  234/2/1  214/3/1  213/4/1 
f  234/1/1  235/2/1  215/3/1  214/4/1 
f  235/1/1  236/2/1  216/3/1  215/4/1 
f  236/1/1  237/2/1  217/3/1  216/4/1 
f  237/1/1  238/2/1  218/3/1  217/4/1 
f  238/1/1  239/2/1  219/3/1  218/4/1 
f  239/1/1  240/2/1  220/3/1  219/4/1 
f  240/1/1  241/2/1  221/3/1  220/4/1 
f  241/1/1  242/2/1  222/3/1  221/4/1 
f  242/1/1  243/2/1  223/3/1  222/4/1 
f  243/1/1  244/2/1  224/3/1  223/4/1 
f  244/1/1  245/2/1  225/3/1  224/4/1 
f  245/1/1  246/2/1  226/3/1  225/4/1 
f  246/1/1  247/2/1  227/3/1  226/4/1 
f  247/1/1  248/2/1  228/3/1  227/4/1 
f  248/1/1  249/2/1  229/3/1  228/4/1 
f  249/1/1  250/2/1  230/3/1  229/4/1 
f  250/1/1  251/2/1  231/3/1  230/4/1 
f  251/1/1  252/2/1  232/3/1  231/4/1 
g mesh_[02]_[00]
f  1/5/1  2/6/1  3/7/1  4/8/1 
f  2/5/1  5/6/1  6/7/1  3/8/1 
f  5/5/1  7/6/1  8/7/1  6/8/1 
f  7/5/1  9/6/1  10/7/1  8/8/1 
f  9/5/1  11/6/1  12/7/1  10/8/1 
f  11/5/1  13/6/1  14/7/1  12/8/1 
f  13/5/1  15/6/1  16/7/1  14/8/1 
f  15/5/1  17/6/1  18/7/1  16/8/1 
f  17/5/1  19/6/1  20/7/1  18/8/1 
f  19/5/1  21/6/1  22/7/1  20/8/1 
f  21/5/1  23/6/1  24/7/1  22/8/1 
f  23/5/1  25/6/1  26/7/1  24/8/1 
f  25/5/1  27/6/1  28/7/1  26/8/1 
f  27/5/1  29/6/1  30/7/1  28/8/1 
f  29/5/1  31/6/1  32/7/1  30/8/1 
f  31/5/1  33/6/1  34/7/1  32/8/1 
f  33/5/1  35/6/1  36/7/1  34/8/1 
f  35/5/1  37/6/1  38/7/1  36/8/1 
f  37/5/1  39/6/1  40/7/1  38/8/1 
f  41/5/1  42/6/1  2/7/1  1/8/1 
f  42/5/1  43/6/1  5/7/1  2/8/1 
f  43/5/1  44/6/1  7/7/1  5/8/1 
f  44/5/1  45/6/1  9/7/1  7/8/1 
f  45/5/1  46/6/1  11/7/1  9/8/1 
f  46/5/1  47/6/1  13/7/1  11/8/1 
f  47/5/1  48/6/1  15/7/1  13/8/1 
f  48/5/1  49/6/1  17/7/1  15/8/1 
f  49/5/1  50/6/1  19/7/1  17/8/1 
f  50/5/1  51/6/1  21/7/1  19/8/1 
f  51/5/1  52/6/1  23/7/1  21/8/1 
f  52/5/1  53/6/1  25/7/1  23/8/1 
f  53/5/1  54/6/1  27/7/1  25/8/1 
f  54/5/1  55/6/1  29/7/1  27/8/1 
f  55/5/1  56/6/1  31/7/1  29/8/1 
f  56/5/1  57/6/1  33/7/1  31/8/1 
f  57/5/1  58/6/1  35/7/1  33/8/1 
f  58/5/1  59/6/1  37/7/1  35/8/1 
f  59/5/1  60/6/1  39/7/1  37/8/1 
f  61/5/1  62/6/1  42/7/1  41/8/1 
f  62/5/1  63/6/1  43/7/1  42/8/1 
f  63/5/1  64/6/1  44/7/1  43/8/1 
f  64/5/1  65/6/1  45/7/1  44/8/1 
f  65/5/1  66/6/1  46/7/1  45/8/1 
f  66/5/1  67/6/1  47/7/1  46/8/1 
f  67/5/1  68/6/1  48/7/1  47/8/1 
f  68/5/1  69/6/1  49/7/1  48/8/1 
f  69/5/1  70/6/1  50/7/1  49/8/1 
f  70/5/1  71/6/1  51/7/1  50/8/1 
f  71/5/1  72/6/1  52/7/1  51/8/1 
f  72/5/1  73/6/1  53/7/1  52/8/1 
f  73/5/1  74/6/1  54/7/1  53/8/1 
f  74/5/1  75/6/1  55/7/1  54/8/1 
f  75/5/1  76/6/1  56/7/1  55/8/1 
f  76/5/1  77/6/1  57/7/1  56/8/1 
f  77/5/1  78/6/1  58/7/1  57/8/1 
f  78/5/1  79/6/1  59/7/1  58/8/1 
f  79/5/1  80/6/1  60/7/1  59/8/1 
f  81/5/1  82/6/1  62/7/1  61/8/1 
f  82/5/1  83/6/1  63/7/1  62/8/1 
f  83/5/1  84/6/1  64/7/1  63/8/1 
f  84/5/1  85/6/1  65/7/1  64/8/1 
f  85/5/1  86/6/1  66/7/1  65/8/1 
f  86/5/1  87/6/1  67/7/1  66/8/1 
f  87/5/1  88/6/1  68/7/1  67/8/1 
f  88/5/1  89/6/1  69/7/1  68/8/1 
f  89/5/1  90/6/1  70/7/1  69/8/1 
f  90/5/1  91/6/1  71/7/1  70/8/1 
f  91/5/1  92/6/1  72/7/1  71/8/1 
f  92/5/1  93/6/1  73/7/1  72/8/1 
f  93/5/1  94/6/1  74/7/1  73/8/1 
f  94/5/1  95/6/1  75/7/1  74/8/1 
f  95/5/1  96/6/1  76/7/1  75/8/1 
f  96/5/1  97/6/1  77/7/1  76/8/1 
f  97/5/1  98/6/1  78/7/1  77/8/1 
f  98/5/1  99/6/1  79/7/1  78/8/1 
f  99/5/1  100/6/1  80/7/1  79/8/1 
f  101/5/1  102/6/1  82/7/1  81/8/1 
f  102/9/1  103/10/1  83/11/1  82/12/1 
f  103/13/1  104/14/1  84/15/1  83/16/1 
f  104/13/1  105/14/1  85/15/1  84/16/1 
f  105/13/1  106/14/1  86/15/1  85/16/1 
f  106/13/1  107/14/1  87/15/1  86/16/1 
f  107/13/1  108/14/1  88/15/1  87/16/1 
f  108/13/1  109/14/1  89/15/1  88/16/1 
f  109/13/1  110/14/1  90/15/1  89/16/1 
f  110/13/1  111/14/1  91/15/1  90/16/1 
f  111/13/1  112/14/1  92/15/1  91/16/1 
f  112/13/1  113/14/1  93/15/1  92/16/1 
f  113/13/1  114/14/1  94/15/1  93/16/1 
f  114/13/1  115/14/1  95/15/1  94/16/1 
f  115/13/1  116/14/1  96/15/1  95/16/1 
f  116/13/1  117/14/1  97/15/1  96/16/1 
f  117/13/1  118/14/1  98/15/1  97/16/1 
f  118/13/1  119/14/1  99/15/1  98/16/1 
f  119/13/1  120/14/1  100/15/1  99/16/1 
f  121/5/1  122/6/1  102/7/1  101/8/1 
f  122/17/1  123/18/1  103/19/1  102/20/1 
f  124/5/1  125/6/1  122/7/1  121/8/1 
f  125/17/1  126/18/1  123/19/1  122/20/1 
f  127/5/1  128/6/1  125/7/1  124/8/1 
f  128/17/1  129/18/1  126/19/1  125/20/1 
f  130/13/1  131/14/1  128/15/1  127/16/1 
f  131/21/1  132/22/1  129/23/1  128/24/1 
f  133/25/1  134/26/1  135/27/1  136/28/1 
f  134/25/1  137/26/1  138/27/1  135/28/1 
f  137/25/1  139/26/1  140/27/1  138/28/1 
f  139/25/1  141/26/1  142/27/1  140/28/1 
f  141/25/1  143/26/1  144/27/1  142/28/1 
f  143/25/1  145/26/1  146/27/1  144/28/1 
f  145/25/1  147/26/1  148/27/1  146/28/1 
f  147/25/1  149/26/1  150/27/1  148/28/1 
f  149/25/1  151/26/1  152/27/1  150/28/1 
f  151/25/1  153/26/1  154/27/1  152/28/1 
f  153/25/1  155/26/1  156/27/1  154/28/1 
f  155/25/1  157/26/1  158/27/1  156/28/1 
f  157/25/1  159/26/1  160/27/1  158/28/1 
f  159/25/1  161/26/1  162/27/1  160/28/1 
f  161/25/1  163/26/1  164/27/1  162/28/1 
f  163/25/1  165/26/1  166/27/1  164/28/1 
f  165/25/1  167/26/1  168/27/1  166/28/1 
f  167/25/1  169/26/1  170/27/1  168/28/1 
f  169/25/1  171/26/1  172/27/1  170/28/1 
f  173/5/1  174/6/1  134/7/1  133/8/1 
f  174/5/1  175/6/1  137/7/1  134/8/1 
f  175/5/1  176/6/1  139/7/1  137/8/1 
f  176/5/1  177/6/1  141/7/1  139/8/1 
f  177/5/1  178/6/1  143/7/1  141/8/1 
f  178/5/1  179/6/1  145/7/1  143/8/1 
f  179/5/1  180/6/1  147/7/1  145/8/1 
f  180/5/1  181/6/1  149/7/1  147/8/1 
f  181/5/1  182/6/1  151/7/1  149/8/1 
f  182/5/1  183/6/1  153/7/1  151/8/1 
f  183/5/1  184/6/1  155/7/1  153/8/1 
f  184/5/1  185/6/1  157/7/1  155/8/1 
f  185/5/1  186/6/1  159/7/1  157/8/1 
f  186/5/1  187/6/1  161/7/1  159/8/1 
f  187/5/1  188/6/1  163/7/1  161/8/1 
f  188/5/1  189/6/1  165/7/1  163/8/1 
f  189/5/1  190/6/1  167/7/1  165/8/1 
f  190/5/1  191/6/1  169/7/1  167/8/1 
f  191/5/1  192/6/1  171/7/1  169/8/1 
f  193/5/1  194/6/1  174/7/1  173/8/1 
f  194/5/1  195/6/1  175/7/1  174/8/1 
f  195/5/1  196/6/1  176/7/1  175/8/1 
f  196/5/1  197/6/1  177/7/1  176/8/1 
f  197/5/1  198/6/1  178/7/1  177/8/1 
f  198/5/1  199/6/1  179/7/1  178/8/1 
f  199/5/1  200/6/1  180/7/1  179/8/1 
f  200/5/1  201/6/1  181/7/1  180/8/1 
f  201/5/1  202/6/1  182/7/1  181/8/1 
f  202/5/1  203/6/1  183/7/1  182/8/1 
f  203/5/1  204/6/1  184/7/1  183/8/1 
f  204/5/1  205/6/1  185/7/1  184/8/1 
f  205/5/1  206/6/1  186/7/1  185/8/1 
f  206/5/1  207/6/1  187/7/1  186/8/1 
f  207/5/1  208/6/1  188/7/1  187/8/1 
f  208/5/1  209/6/1  189/7/1  188/8/1 
f  209/5/1  210/6/1  190/7/1  189/8/1 
f  210/5/1  211/6/1  191/7/1  190/8/1 
f  211/5/1  212/6/1  192/7/1  191/8/1 
f  213/5/1  214/6/1  194/7/1  193/8/1 
f  214/5/1  215/6/1  195/7/1  194/8/1 
f  215/5/1  216/6/1  196/7/1  195/8/1 
f  216/5/1  217/6/1  197/7/1  196/8/1 
f  217/5/1  218/6/1  198/7/1  197/8/1 
f  218/5/1  219/6/1  199/7/1  198/8/1 
f  219/5/1  220/6/1  200/7/1  199/8/1 
f  220/5/1  221/6/1  201/7/1  200/8/1 
f  221/5/1  222/6/1  202/7/1  201/8/1 
f  222/5/1  223/6/1  203/7/1  202/8/1 
f  223/5/1  224/6/1  204/7/1  203/8/1 
f  224/5/1  225/6/1  205/7/1  204/8/1 
f  225/5/1  226/6/1  206/7/1  205/8/1 
f  226/5/1  227/6/1  207/7/1  206/8/1 
f  227/5/1  228/6/1  208/7/1  207/8/1 
f  228/5/1  229/6/1  209/7/1  208/8/1 
f  229/5/1  230/6/1  210/7/1  209/8/1 
f  230/5/1  231/6/1  211/7/1  210/8/1 
f  231/5/1  232/6/1  212/7/1  211/8/1 
f  233/5/1  234/6/1  214/7/1  213/8/1 
f  234/5/1  235/6/1  215/7/1  214/8/1 
f  235/5/1  236/6/1  216/7/1  215/8/1 
f  236/5/1  237/6/1  217/7/1  216/8/1 
f  237/5/1  238/6/1  218/7/1  217/8/1 
f  238/5/1  239/6/1  219/7/1  218/8/1 
f  239/5/1  240/6/1  220/7/1  219/8/1 
f  240/5/1  241/6/1  221/7/1  220/8/1 
f  241/5/1  242/6/1  222/7/1  221/8/1 
f  242/5/1  243/6/1  223/7/1  222/8/1 
f  243/5/1  244/6/1  224/7/1  223/8/1 
f  244/5/1  245/6/1  225/7/1  224/8/1 
f  245/5/1  246/6/1  226/7/1  225/8/1 
f  246/5/1  247/6/1  227/7/1  226/8/1 
f  247/5/1  248/6/1  228/7/1  227/8/1 
f  248/5/1  249/6/1  229/7/1  228/8/1 
f  249/5/1  250/6/1  230/7/1  229/8/1 
f  250/5/1  251/6/1  231/7/1  230/8/1 
f  251/5/1  252/6/1  232/7/1  231/8/1 
