# Wavefront OBJ file automatically generated by Tiled2Unity

# Vertices (Count = 8)
v -2240 -1216 0
v -2304 -1216 0
v -2304 -1152 0
v -2240 -1152 0
v -2368 -1216 0
v -2368 -1152 0
v -2432 -1216 0
v -2432 -1152 0

# Texture Coorindates (Count = 12)
vt 0.5001221 0.8751221
vt 0.5623779 0.8751221
vt 0.5623779 0.9373779
vt 0.5001221 0.9373779
vt 0.4376221 0.8751221
vt 0.4998779 0.8751221
vt 0.4998779 0.9373779
vt 0.4376221 0.9373779
vt 0.5626221 0.8751221
vt 0.6248779 0.8751221
vt 0.6248779 0.9373779
vt 0.5626221 0.9373779

# Normal
vn 0 0 -1

# Groups (Count = 1)
g mesh_[00]_[00]
f  1/1/1  2/2/1  3/3/1  4/4/1 
f  2/5/1  5/6/1  6/7/1  3/8/1 
f  5/9/1  7/10/1  8/11/1  6/12/1 
