# Wavefront OBJ file automatically generated by Tiled2Unity

# Vertices (Count = 361)
v -1152 -768 0
v -1216 -768 0
v -1216 -704 0
v -1152 -704 0
v -1280 -768 0
v -1280 -704 0
v -1344 -768 0
v -1344 -704 0
v -1408 -768 0
v -1408 -704 0
v -1472 -768 0
v -1472 -704 0
v -1536 -768 0
v -1536 -704 0
v -1600 -768 0
v -1600 -704 0
v -1664 -768 0
v -1664 -704 0
v -1728 -768 0
v -1728 -704 0
v -1152 -832 0
v -1216 -832 0
v -1280 -832 0
v -1344 -832 0
v -1408 -832 0
v -1472 -832 0
v -1536 -832 0
v -1600 -832 0
v -1664 -832 0
v -1728 -832 0
v -1152 -896 0
v -1216 -896 0
v -1280 -896 0
v -1344 -896 0
v -1408 -896 0
v -1472 -896 0
v -1536 -896 0
v -1600 -896 0
v -1664 -896 0
v -1728 -896 0
v -1152 -960 0
v -1216 -960 0
v -1280 -960 0
v -1344 -960 0
v -1408 -960 0
v -1472 -960 0
v -1536 -960 0
v -1600 -960 0
v -1664 -960 0
v -1728 -960 0
v -1152 -1024 0
v -1216 -1024 0
v -1280 -1024 0
v -1344 -1024 0
v -1408 -1024 0
v -1472 -1024 0
v -1536 -1024 0
v -1600 -1024 0
v -1664 -1024 0
v -1728 -1024 0
v -1152 -1088 0
v -1216 -1088 0
v -1280 -1088 0
v -1344 -1088 0
v -1408 -1088 0
v -1472 -1088 0
v -1536 -1088 0
v -1600 -1088 0
v -1664 -1088 0
v -1728 -1088 0
v -1152 -1152 0
v -1216 -1152 0
v -1280 -1152 0
v -1344 -1152 0
v -1408 -1152 0
v -1472 -1152 0
v -1536 -1152 0
v -1600 -1152 0
v -1664 -1152 0
v -1728 -1152 0
v -1152 -1216 0
v -1216 -1216 0
v -1280 -1216 0
v -1344 -1216 0
v -1408 -1216 0
v -1472 -1216 0
v -1536 -1216 0
v -1600 -1216 0
v -1664 -1216 0
v -1728 -1216 0
v -1152 -1280 0
v -1216 -1280 0
v -1280 -1280 0
v -1344 -1280 0
v -1408 -1280 0
v -1472 -1280 0
v -1536 -1280 0
v -1600 -1280 0
v -1664 -1280 0
v -1728 -1280 0
v -1152 -1344 0
v -1216 -1344 0
v -1280 -1344 0
v -1344 -1344 0
v -1408 -1344 0
v -1472 -1344 0
v -1536 -1344 0
v -1600 -1344 0
v -1664 -1344 0
v -1728 -1344 0
v -1152 -1408 0
v -1216 -1408 0
v -1280 -1408 0
v -1344 -1408 0
v -1408 -1408 0
v -1472 -1408 0
v -1536 -1408 0
v -1600 -1408 0
v -1664 -1408 0
v -1728 -1408 0
v -1152 -1472 0
v -1216 -1472 0
v -1280 -1472 0
v -1344 -1472 0
v -1408 -1472 0
v -1472 -1472 0
v -1536 -1472 0
v -1600 -1472 0
v -1664 -1472 0
v -1728 -1472 0
v -1152 -1536 0
v -1216 -1536 0
v -1280 -1536 0
v -1344 -1536 0
v -1408 -1536 0
v -1472 -1536 0
v -1536 -1536 0
v -1600 -1536 0
v -1664 -1536 0
v -1728 -1536 0
v -1088 -1600 0
v -1152 -1600 0
v -1088 -1536 0
v -1216 -1600 0
v -1280 -1600 0
v -1344 -1600 0
v -1408 -1600 0
v -1472 -1600 0
v -1536 -1600 0
v -1600 -1600 0
v -1664 -1600 0
v -1728 -1600 0
v -576 -512 0
v -640 -512 0
v -640 -448 0
v -576 -448 0
v -704 -512 0
v -704 -448 0
v -768 -512 0
v -768 -448 0
v -832 -512 0
v -832 -448 0
v -896 -512 0
v -896 -448 0
v -960 -512 0
v -960 -448 0
v -1024 -512 0
v -1024 -448 0
v -1088 -512 0
v -1088 -448 0
v -1152 -512 0
v -1152 -448 0
v -1216 -512 0
v -1216 -448 0
v -1280 -512 0
v -1280 -448 0
v -1344 -512 0
v -1344 -448 0
v -1408 -512 0
v -1408 -448 0
v -1472 -512 0
v -1472 -448 0
v -1536 -512 0
v -1536 -448 0
v -1600 -512 0
v -1600 -448 0
v -1664 -512 0
v -1664 -448 0
v -1728 -512 0
v -1728 -448 0
v -576 -576 0
v -640 -576 0
v -704 -576 0
v -768 -576 0
v -832 -576 0
v -896 -576 0
v -960 -576 0
v -1024 -576 0
v -1088 -576 0
v -1152 -576 0
v -1216 -576 0
v -1280 -576 0
v -1344 -576 0
v -1408 -576 0
v -1472 -576 0
v -1536 -576 0
v -1600 -576 0
v -1664 -576 0
v -1728 -576 0
v -576 -640 0
v -640 -640 0
v -704 -640 0
v -768 -640 0
v -832 -640 0
v -896 -640 0
v -960 -640 0
v -1024 -640 0
v -1088 -640 0
v -1152 -640 0
v -1216 -640 0
v -1280 -640 0
v -1344 -640 0
v -1408 -640 0
v -1472 -640 0
v -1536 -640 0
v -1600 -640 0
v -1664 -640 0
v -1728 -640 0
v -576 -704 0
v -640 -704 0
v -704 -704 0
v -768 -704 0
v -832 -704 0
v -896 -704 0
v -960 -704 0
v -1024 -704 0
v -1088 -704 0
v -576 -768 0
v -640 -768 0
v -704 -768 0
v -768 -768 0
v -832 -768 0
v -896 -768 0
v -960 -768 0
v -1024 -768 0
v -1088 -768 0
v -576 -832 0
v -640 -832 0
v -704 -832 0
v -768 -832 0
v -832 -832 0
v -896 -832 0
v -960 -832 0
v -1024 -832 0
v -1088 -832 0
v -576 -896 0
v -640 -896 0
v -704 -896 0
v -768 -896 0
v -832 -896 0
v -896 -896 0
v -960 -896 0
v -1024 -896 0
v -1088 -896 0
v -576 -960 0
v -640 -960 0
v -704 -960 0
v -768 -960 0
v -832 -960 0
v -896 -960 0
v -960 -960 0
v -1024 -960 0
v -1088 -960 0
v -576 -1024 0
v -640 -1024 0
v -704 -1024 0
v -768 -1024 0
v -832 -1024 0
v -896 -1024 0
v -960 -1024 0
v -1024 -1024 0
v -1088 -1024 0
v -576 -1088 0
v -640 -1088 0
v -704 -1088 0
v -768 -1088 0
v -832 -1088 0
v -896 -1088 0
v -960 -1088 0
v -1024 -1088 0
v -1088 -1088 0
v -576 -1152 0
v -640 -1152 0
v -704 -1152 0
v -768 -1152 0
v -832 -1152 0
v -896 -1152 0
v -960 -1152 0
v -1024 -1152 0
v -1088 -1152 0
v -576 -1216 0
v -640 -1216 0
v -704 -1216 0
v -768 -1216 0
v -832 -1216 0
v -896 -1216 0
v -960 -1216 0
v -1024 -1216 0
v -1088 -1216 0
v -576 -1280 0
v -640 -1280 0
v -704 -1280 0
v -768 -1280 0
v -832 -1280 0
v -896 -1280 0
v -960 -1280 0
v -1024 -1280 0
v -1088 -1280 0
v -576 -1344 0
v -640 -1344 0
v -704 -1344 0
v -768 -1344 0
v -832 -1344 0
v -896 -1344 0
v -960 -1344 0
v -1024 -1344 0
v -1088 -1344 0
v -576 -1408 0
v -640 -1408 0
v -704 -1408 0
v -768 -1408 0
v -832 -1408 0
v -896 -1408 0
v -960 -1408 0
v -1024 -1408 0
v -1088 -1408 0
v -576 -1472 0
v -640 -1472 0
v -704 -1472 0
v -768 -1472 0
v -832 -1472 0
v -896 -1472 0
v -960 -1472 0
v -1024 -1472 0
v -1088 -1472 0
v -576 -1536 0
v -640 -1536 0
v -704 -1536 0
v -768 -1536 0
v -832 -1536 0
v -896 -1536 0
v -960 -1536 0
v -1024 -1536 0
v -576 -1600 0
v -640 -1600 0
v -704 -1600 0
v -768 -1600 0
v -832 -1600 0
v -896 -1600 0
v -960 -1600 0
v -1024 -1600 0

# Texture Coorindates (Count = 68)
vt 0.4376221 0.8126221
vt 0.4998779 0.8126221
vt 0.4998779 0.8748779
vt 0.4376221 0.8748779
vt 0.1251221 0.6876221
vt 0.1873779 0.6876221
vt 0.1873779 0.7498779
vt 0.1251221 0.7498779
vt 0.1876221 0.6876221
vt 0.2498779 0.6876221
vt 0.2498779 0.7498779
vt 0.1876221 0.7498779
vt 0.0001220703 0.6876221
vt 0.06237793 0.6876221
vt 0.06237793 0.7498779
vt 0.0001220703 0.7498779
vt 0.3126221 0.6876221
vt 0.3748779 0.6876221
vt 0.3748779 0.7498779
vt 0.3126221 0.7498779
vt 0.3751221 0.6876221
vt 0.4373779 0.6876221
vt 0.4373779 0.7498779
vt 0.3751221 0.7498779
vt 0.4376221 0.6876221
vt 0.4998779 0.6876221
vt 0.4998779 0.7498779
vt 0.4376221 0.7498779
vt 0.0001220703 0.7501221
vt 0.06237793 0.7501221
vt 0.06237793 0.8123779
vt 0.0001220703 0.8123779
vt 0.8751221 0.7501221
vt 0.9373779 0.7501221
vt 0.9373779 0.8123779
vt 0.8751221 0.8123779
vt 0.1251221 0.7501221
vt 0.1873779 0.7501221
vt 0.1873779 0.8123779
vt 0.1251221 0.8123779
vt 0.6876221 0.7501221
vt 0.7498779 0.7501221
vt 0.7498779 0.8123779
vt 0.6876221 0.8123779
vt 0.2501221 0.7501221
vt 0.3123779 0.7501221
vt 0.3123779 0.8123779
vt 0.2501221 0.8123779
vt 0.3751221 0.7501221
vt 0.4373779 0.7501221
vt 0.4373779 0.8123779
vt 0.3751221 0.8123779
vt 0.06262207 0.7501221
vt 0.1248779 0.7501221
vt 0.1248779 0.8123779
vt 0.06262207 0.8123779
vt 0.7501221 0.7501221
vt 0.8123779 0.7501221
vt 0.8123779 0.8123779
vt 0.7501221 0.8123779
vt 0.8126221 0.7501221
vt 0.8748779 0.7501221
vt 0.8748779 0.8123779
vt 0.8126221 0.8123779
vt 0.3126221 0.7501221
vt 0.3748779 0.7501221
vt 0.3748779 0.8123779
vt 0.3126221 0.8123779

# Normal
vn 0 0 -1

# Groups (Count = 3)
g mesh_[00]_[00]
f  1/1/1  2/2/1  3/3/1  4/4/1 
f  2/1/1  5/2/1  6/3/1  3/4/1 
f  5/1/1  7/2/1  8/3/1  6/4/1 
f  7/1/1  9/2/1  10/3/1  8/4/1 
f  9/1/1  11/2/1  12/3/1  10/4/1 
f  11/1/1  13/2/1  14/3/1  12/4/1 
f  13/1/1  15/2/1  16/3/1  14/4/1 
f  15/1/1  17/2/1  18/3/1  16/4/1 
f  17/1/1  19/2/1  20/3/1  18/4/1 
f  21/1/1  22/2/1  2/3/1  1/4/1 
f  22/1/1  23/2/1  5/3/1  2/4/1 
f  23/1/1  24/2/1  7/3/1  5/4/1 
f  24/1/1  25/2/1  9/3/1  7/4/1 
f  25/1/1  26/2/1  11/3/1  9/4/1 
f  26/1/1  27/2/1  13/3/1  11/4/1 
f  27/1/1  28/2/1  15/3/1  13/4/1 
f  28/1/1  29/2/1  17/3/1  15/4/1 
f  29/1/1  30/2/1  19/3/1  17/4/1 
f  31/1/1  32/2/1  22/3/1  21/4/1 
f  32/1/1  33/2/1  23/3/1  22/4/1 
f  33/1/1  34/2/1  24/3/1  23/4/1 
f  34/1/1  35/2/1  25/3/1  24/4/1 
f  35/1/1  36/2/1  26/3/1  25/4/1 
f  36/1/1  37/2/1  27/3/1  26/4/1 
f  37/1/1  38/2/1  28/3/1  27/4/1 
f  38/1/1  39/2/1  29/3/1  28/4/1 
f  39/1/1  40/2/1  30/3/1  29/4/1 
f  41/1/1  42/2/1  32/3/1  31/4/1 
f  42/1/1  43/2/1  33/3/1  32/4/1 
f  43/1/1  44/2/1  34/3/1  33/4/1 
f  44/1/1  45/2/1  35/3/1  34/4/1 
f  45/1/1  46/2/1  36/3/1  35/4/1 
f  46/1/1  47/2/1  37/3/1  36/4/1 
f  47/1/1  48/2/1  38/3/1  37/4/1 
f  48/1/1  49/2/1  39/3/1  38/4/1 
f  49/1/1  50/2/1  40/3/1  39/4/1 
f  51/1/1  52/2/1  42/3/1  41/4/1 
f  52/1/1  53/2/1  43/3/1  42/4/1 
f  53/1/1  54/2/1  44/3/1  43/4/1 
f  54/1/1  55/2/1  45/3/1  44/4/1 
f  55/1/1  56/2/1  46/3/1  45/4/1 
f  56/1/1  57/2/1  47/3/1  46/4/1 
f  57/1/1  58/2/1  48/3/1  47/4/1 
f  58/1/1  59/2/1  49/3/1  48/4/1 
f  59/1/1  60/2/1  50/3/1  49/4/1 
f  61/1/1  62/2/1  52/3/1  51/4/1 
f  62/1/1  63/2/1  53/3/1  52/4/1 
f  63/1/1  64/2/1  54/3/1  53/4/1 
f  64/1/1  65/2/1  55/3/1  54/4/1 
f  65/1/1  66/2/1  56/3/1  55/4/1 
f  66/1/1  67/2/1  57/3/1  56/4/1 
f  67/1/1  68/2/1  58/3/1  57/4/1 
f  68/1/1  69/2/1  59/3/1  58/4/1 
f  69/1/1  70/2/1  60/3/1  59/4/1 
f  71/1/1  72/2/1  62/3/1  61/4/1 
f  72/1/1  73/2/1  63/3/1  62/4/1 
f  73/1/1  74/2/1  64/3/1  63/4/1 
f  74/1/1  75/2/1  65/3/1  64/4/1 
f  75/1/1  76/2/1  66/3/1  65/4/1 
f  76/1/1  77/2/1  67/3/1  66/4/1 
f  77/1/1  78/2/1  68/3/1  67/4/1 
f  78/1/1  79/2/1  69/3/1  68/4/1 
f  79/1/1  80/2/1  70/3/1  69/4/1 
f  81/1/1  82/2/1  72/3/1  71/4/1 
f  82/1/1  83/2/1  73/3/1  72/4/1 
f  83/1/1  84/2/1  74/3/1  73/4/1 
f  84/1/1  85/2/1  75/3/1  74/4/1 
f  85/1/1  86/2/1  76/3/1  75/4/1 
f  86/1/1  87/2/1  77/3/1  76/4/1 
f  87/1/1  88/2/1  78/3/1  77/4/1 
f  88/1/1  89/2/1  79/3/1  78/4/1 
f  89/1/1  90/2/1  80/3/1  79/4/1 
f  91/1/1  92/2/1  82/3/1  81/4/1 
f  92/1/1  93/2/1  83/3/1  82/4/1 
f  93/1/1  94/2/1  84/3/1  83/4/1 
f  94/1/1  95/2/1  85/3/1  84/4/1 
f  95/1/1  96/2/1  86/3/1  85/4/1 
f  96/1/1  97/2/1  87/3/1  86/4/1 
f  97/1/1  98/2/1  88/3/1  87/4/1 
f  98/1/1  99/2/1  89/3/1  88/4/1 
f  99/1/1  100/2/1  90/3/1  89/4/1 
f  101/1/1  102/2/1  92/3/1  91/4/1 
f  102/1/1  103/2/1  93/3/1  92/4/1 
f  103/1/1  104/2/1  94/3/1  93/4/1 
f  104/1/1  105/2/1  95/3/1  94/4/1 
f  105/1/1  106/2/1  96/3/1  95/4/1 
f  106/1/1  107/2/1  97/3/1  96/4/1 
f  107/1/1  108/2/1  98/3/1  97/4/1 
f  108/1/1  109/2/1  99/3/1  98/4/1 
f  109/1/1  110/2/1  100/3/1  99/4/1 
f  111/1/1  112/2/1  102/3/1  101/4/1 
f  112/1/1  113/2/1  103/3/1  102/4/1 
f  113/1/1  114/2/1  104/3/1  103/4/1 
f  114/1/1  115/2/1  105/3/1  104/4/1 
f  115/1/1  116/2/1  106/3/1  105/4/1 
f  116/1/1  117/2/1  107/3/1  106/4/1 
f  117/1/1  118/2/1  108/3/1  107/4/1 
f  118/1/1  119/2/1  109/3/1  108/4/1 
f  119/1/1  120/2/1  110/3/1  109/4/1 
f  121/1/1  122/2/1  112/3/1  111/4/1 
f  122/1/1  123/2/1  113/3/1  112/4/1 
f  123/1/1  124/2/1  114/3/1  113/4/1 
f  124/1/1  125/2/1  115/3/1  114/4/1 
f  125/1/1  126/2/1  116/3/1  115/4/1 
f  126/1/1  127/2/1  117/3/1  116/4/1 
f  127/1/1  128/2/1  118/3/1  117/4/1 
f  128/1/1  129/2/1  119/3/1  118/4/1 
f  129/1/1  130/2/1  120/3/1  119/4/1 
f  131/1/1  132/2/1  122/3/1  121/4/1 
f  132/1/1  133/2/1  123/3/1  122/4/1 
f  133/1/1  134/2/1  124/3/1  123/4/1 
f  134/1/1  135/2/1  125/3/1  124/4/1 
f  135/1/1  136/2/1  126/3/1  125/4/1 
f  136/1/1  137/2/1  127/3/1  126/4/1 
f  137/1/1  138/2/1  128/3/1  127/4/1 
f  138/1/1  139/2/1  129/3/1  128/4/1 
f  139/1/1  140/2/1  130/3/1  129/4/1 
f  141/1/1  142/2/1  131/3/1  143/4/1 
f  142/1/1  144/2/1  132/3/1  131/4/1 
f  144/1/1  145/2/1  133/3/1  132/4/1 
f  145/1/1  146/2/1  134/3/1  133/4/1 
f  146/1/1  147/2/1  135/3/1  134/4/1 
f  147/1/1  148/2/1  136/3/1  135/4/1 
f  148/1/1  149/2/1  137/3/1  136/4/1 
f  149/1/1  150/2/1  138/3/1  137/4/1 
f  150/1/1  151/2/1  139/3/1  138/4/1 
f  151/1/1  152/2/1  140/3/1  139/4/1 
g mesh_[01]_[01]
f  21/5/1  23/6/1  6/7/1  4/8/1 
f  23/9/1  25/10/1  10/11/1  6/12/1 
f  27/13/1  29/14/1  18/15/1  14/16/1 
f  31/17/1  33/18/1  5/19/1  1/20/1 
f  33/21/1  35/22/1  9/23/1  5/24/1 
f  62/13/1  64/14/1  44/15/1  42/16/1 
f  81/21/1  83/22/1  63/23/1  61/24/1 
f  83/25/1  85/26/1  65/27/1  63/28/1 
f  105/21/1  107/22/1  87/23/1  85/24/1 
f  118/25/1  120/26/1  100/27/1  98/28/1 
g mesh_[02]_[00]
f  153/29/1  154/30/1  155/31/1  156/32/1 
f  154/29/1  157/30/1  158/31/1  155/32/1 
f  157/29/1  159/30/1  160/31/1  158/32/1 
f  159/29/1  161/30/1  162/31/1  160/32/1 
f  161/29/1  163/30/1  164/31/1  162/32/1 
f  163/29/1  165/30/1  166/31/1  164/32/1 
f  165/29/1  167/30/1  168/31/1  166/32/1 
f  167/29/1  169/30/1  170/31/1  168/32/1 
f  169/29/1  171/30/1  172/31/1  170/32/1 
f  171/29/1  173/30/1  174/31/1  172/32/1 
f  173/29/1  175/30/1  176/31/1  174/32/1 
f  175/29/1  177/30/1  178/31/1  176/32/1 
f  177/29/1  179/30/1  180/31/1  178/32/1 
f  179/29/1  181/30/1  182/31/1  180/32/1 
f  181/29/1  183/30/1  184/31/1  182/32/1 
f  183/29/1  185/30/1  186/31/1  184/32/1 
f  185/29/1  187/30/1  188/31/1  186/32/1 
f  187/29/1  189/30/1  190/31/1  188/32/1 
f  191/29/1  192/30/1  154/31/1  153/32/1 
f  192/29/1  193/30/1  157/31/1  154/32/1 
f  193/29/1  194/30/1  159/31/1  157/32/1 
f  194/29/1  195/30/1  161/31/1  159/32/1 
f  195/29/1  196/30/1  163/31/1  161/32/1 
f  196/29/1  197/30/1  165/31/1  163/32/1 
f  197/29/1  198/30/1  167/31/1  165/32/1 
f  198/29/1  199/30/1  169/31/1  167/32/1 
f  199/29/1  200/30/1  171/31/1  169/32/1 
f  200/29/1  201/30/1  173/31/1  171/32/1 
f  201/29/1  202/30/1  175/31/1  173/32/1 
f  202/29/1  203/30/1  177/31/1  175/32/1 
f  203/29/1  204/30/1  179/31/1  177/32/1 
f  204/29/1  205/30/1  181/31/1  179/32/1 
f  205/29/1  206/30/1  183/31/1  181/32/1 
f  206/29/1  207/30/1  185/31/1  183/32/1 
f  207/29/1  208/30/1  187/31/1  185/32/1 
f  208/29/1  209/30/1  189/31/1  187/32/1 
f  210/29/1  211/30/1  192/31/1  191/32/1 
f  211/29/1  212/30/1  193/31/1  192/32/1 
f  212/29/1  213/30/1  194/31/1  193/32/1 
f  213/29/1  214/30/1  195/31/1  194/32/1 
f  214/29/1  215/30/1  196/31/1  195/32/1 
f  215/29/1  216/30/1  197/31/1  196/32/1 
f  216/29/1  217/30/1  198/31/1  197/32/1 
f  217/29/1  218/30/1  199/31/1  198/32/1 
f  218/29/1  219/30/1  200/31/1  199/32/1 
f  219/29/1  220/30/1  201/31/1  200/32/1 
f  220/29/1  221/30/1  202/31/1  201/32/1 
f  221/29/1  222/30/1  203/31/1  202/32/1 
f  222/29/1  223/30/1  204/31/1  203/32/1 
f  223/29/1  224/30/1  205/31/1  204/32/1 
f  224/29/1  225/30/1  206/31/1  205/32/1 
f  225/29/1  226/30/1  207/31/1  206/32/1 
f  226/29/1  227/30/1  208/31/1  207/32/1 
f  227/29/1  228/30/1  209/31/1  208/32/1 
f  229/29/1  230/30/1  211/31/1  210/32/1 
f  230/29/1  231/30/1  212/31/1  211/32/1 
f  231/29/1  232/30/1  213/31/1  212/32/1 
f  232/29/1  233/30/1  214/31/1  213/32/1 
f  233/29/1  234/30/1  215/31/1  214/32/1 
f  234/29/1  235/30/1  216/31/1  215/32/1 
f  235/29/1  236/30/1  217/31/1  216/32/1 
f  236/29/1  237/30/1  218/31/1  217/32/1 
f  237/29/1  4/30/1  219/31/1  218/32/1 
f  4/33/1  3/34/1  220/35/1  219/36/1 
f  3/37/1  6/38/1  221/39/1  220/40/1 
f  6/37/1  8/38/1  222/39/1  221/40/1 
f  8/37/1  10/38/1  223/39/1  222/40/1 
f  10/37/1  12/38/1  224/39/1  223/40/1 
f  12/37/1  14/38/1  225/39/1  224/40/1 
f  14/37/1  16/38/1  226/39/1  225/40/1 
f  16/37/1  18/38/1  227/39/1  226/40/1 
f  18/37/1  20/38/1  228/39/1  227/40/1 
f  238/29/1  239/30/1  230/31/1  229/32/1 
f  239/29/1  240/30/1  231/31/1  230/32/1 
f  240/29/1  241/30/1  232/31/1  231/32/1 
f  241/29/1  242/30/1  233/31/1  232/32/1 
f  242/29/1  243/30/1  234/31/1  233/32/1 
f  243/29/1  244/30/1  235/31/1  234/32/1 
f  244/29/1  245/30/1  236/31/1  235/32/1 
f  245/29/1  246/30/1  237/31/1  236/32/1 
f  246/29/1  1/30/1  4/31/1  237/32/1 
f  1/41/1  2/42/1  3/43/1  4/44/1 
f  247/29/1  248/30/1  239/31/1  238/32/1 
f  248/29/1  249/30/1  240/31/1  239/32/1 
f  249/29/1  250/30/1  241/31/1  240/32/1 
f  250/29/1  251/30/1  242/31/1  241/32/1 
f  251/29/1  252/30/1  243/31/1  242/32/1 
f  252/29/1  253/30/1  244/31/1  243/32/1 
f  253/29/1  254/30/1  245/31/1  244/32/1 
f  254/29/1  255/30/1  246/31/1  245/32/1 
f  255/45/1  21/46/1  1/47/1  246/48/1 
f  256/29/1  257/30/1  248/31/1  247/32/1 
f  257/29/1  258/30/1  249/31/1  248/32/1 
f  258/29/1  259/30/1  250/31/1  249/32/1 
f  259/29/1  260/30/1  251/31/1  250/32/1 
f  260/29/1  261/30/1  252/31/1  251/32/1 
f  261/29/1  262/30/1  253/31/1  252/32/1 
f  262/29/1  263/30/1  254/31/1  253/32/1 
f  263/29/1  264/30/1  255/31/1  254/32/1 
f  264/45/1  31/46/1  21/47/1  255/48/1 
f  33/49/1  34/50/1  24/51/1  23/52/1 
f  34/53/1  35/54/1  25/55/1  24/56/1 
f  35/13/1  36/14/1  26/15/1  25/16/1 
f  265/29/1  266/30/1  257/31/1  256/32/1 
f  266/29/1  267/30/1  258/31/1  257/32/1 
f  267/29/1  268/30/1  259/31/1  258/32/1 
f  268/29/1  269/30/1  260/31/1  259/32/1 
f  269/29/1  270/30/1  261/31/1  260/32/1 
f  270/29/1  271/30/1  262/31/1  261/32/1 
f  271/29/1  272/30/1  263/31/1  262/32/1 
f  272/29/1  273/30/1  264/31/1  263/32/1 
f  273/57/1  41/58/1  31/59/1  264/60/1 
f  41/53/1  42/54/1  32/55/1  31/56/1 
f  42/53/1  43/54/1  33/55/1  32/56/1 
f  43/61/1  44/62/1  34/63/1  33/64/1 
f  44/37/1  45/38/1  35/39/1  34/40/1 
f  45/41/1  46/42/1  36/43/1  35/44/1 
f  274/29/1  275/30/1  266/31/1  265/32/1 
f  275/29/1  276/30/1  267/31/1  266/32/1 
f  276/29/1  277/30/1  268/31/1  267/32/1 
f  277/29/1  278/30/1  269/31/1  268/32/1 
f  278/29/1  279/30/1  270/31/1  269/32/1 
f  279/29/1  280/30/1  271/31/1  270/32/1 
f  280/29/1  281/30/1  272/31/1  271/32/1 
f  281/29/1  282/30/1  273/31/1  272/32/1 
f  282/29/1  51/30/1  41/31/1  273/32/1 
f  51/33/1  52/34/1  42/35/1  41/36/1 
f  52/37/1  53/38/1  43/39/1  42/40/1 
f  53/41/1  54/42/1  44/43/1  43/44/1 
f  283/29/1  284/30/1  275/31/1  274/32/1 
f  284/29/1  285/30/1  276/31/1  275/32/1 
f  285/29/1  286/30/1  277/31/1  276/32/1 
f  286/29/1  287/30/1  278/31/1  277/32/1 
f  287/29/1  288/30/1  279/31/1  278/32/1 
f  288/29/1  289/30/1  280/31/1  279/32/1 
f  289/29/1  290/30/1  281/31/1  280/32/1 
f  290/29/1  291/30/1  282/31/1  281/32/1 
f  291/33/1  61/34/1  51/35/1  282/36/1 
f  61/41/1  62/42/1  52/43/1  51/44/1 
f  292/29/1  293/30/1  284/31/1  283/32/1 
f  293/29/1  294/30/1  285/31/1  284/32/1 
f  294/29/1  295/30/1  286/31/1  285/32/1 
f  295/29/1  296/30/1  287/31/1  286/32/1 
f  296/29/1  297/30/1  288/31/1  287/32/1 
f  297/29/1  298/30/1  289/31/1  288/32/1 
f  298/29/1  299/30/1  290/31/1  289/32/1 
f  299/29/1  300/30/1  291/31/1  290/32/1 
f  300/45/1  71/46/1  61/47/1  291/48/1 
f  301/29/1  302/30/1  293/31/1  292/32/1 
f  302/29/1  303/30/1  294/31/1  293/32/1 
f  303/29/1  304/30/1  295/31/1  294/32/1 
f  304/29/1  305/30/1  296/31/1  295/32/1 
f  305/29/1  306/30/1  297/31/1  296/32/1 
f  306/29/1  307/30/1  298/31/1  297/32/1 
f  307/29/1  308/30/1  299/31/1  298/32/1 
f  308/29/1  309/30/1  300/31/1  299/32/1 
f  309/29/1  81/30/1  71/31/1  300/32/1 
f  81/65/1  82/66/1  72/67/1  71/68/1 
f  310/29/1  311/30/1  302/31/1  301/32/1 
f  311/29/1  312/30/1  303/31/1  302/32/1 
f  312/29/1  313/30/1  304/31/1  303/32/1 
f  313/29/1  314/30/1  305/31/1  304/32/1 
f  314/29/1  315/30/1  306/31/1  305/32/1 
f  315/29/1  316/30/1  307/31/1  306/32/1 
f  316/29/1  317/30/1  308/31/1  307/32/1 
f  317/29/1  318/30/1  309/31/1  308/32/1 
f  318/29/1  91/30/1  81/31/1  309/32/1 
f  91/57/1  92/58/1  82/59/1  81/60/1 
f  92/53/1  93/54/1  83/55/1  82/56/1 
f  93/53/1  94/54/1  84/55/1  83/56/1 
f  94/53/1  95/54/1  85/55/1  84/56/1 
f  95/65/1  96/66/1  86/67/1  85/68/1 
f  319/29/1  320/30/1  311/31/1  310/32/1 
f  320/29/1  321/30/1  312/31/1  311/32/1 
f  321/29/1  322/30/1  313/31/1  312/32/1 
f  322/29/1  323/30/1  314/31/1  313/32/1 
f  323/29/1  324/30/1  315/31/1  314/32/1 
f  324/29/1  325/30/1  316/31/1  315/32/1 
f  325/29/1  326/30/1  317/31/1  316/32/1 
f  326/29/1  327/30/1  318/31/1  317/32/1 
f  327/29/1  101/30/1  91/31/1  318/32/1 
f  101/29/1  102/30/1  92/31/1  91/32/1 
f  102/29/1  103/30/1  93/31/1  92/32/1 
f  103/29/1  104/30/1  94/31/1  93/32/1 
f  104/29/1  105/30/1  95/31/1  94/32/1 
f  105/57/1  106/58/1  96/59/1  95/60/1 
f  106/53/1  107/54/1  97/55/1  96/56/1 
f  107/65/1  108/66/1  98/67/1  97/68/1 
f  328/29/1  329/30/1  320/31/1  319/32/1 
f  329/29/1  330/30/1  321/31/1  320/32/1 
f  330/29/1  331/30/1  322/31/1  321/32/1 
f  331/29/1  332/30/1  323/31/1  322/32/1 
f  332/29/1  333/30/1  324/31/1  323/32/1 
f  333/29/1  334/30/1  325/31/1  324/32/1 
f  334/29/1  335/30/1  326/31/1  325/32/1 
f  335/29/1  336/30/1  327/31/1  326/32/1 
f  336/29/1  111/30/1  101/31/1  327/32/1 
f  111/29/1  112/30/1  102/31/1  101/32/1 
f  112/29/1  113/30/1  103/31/1  102/32/1 
f  113/29/1  114/30/1  104/31/1  103/32/1 
f  114/29/1  115/30/1  105/31/1  104/32/1 
f  115/29/1  116/30/1  106/31/1  105/32/1 
f  116/29/1  117/30/1  107/31/1  106/32/1 
f  117/57/1  118/58/1  108/59/1  107/60/1 
f  118/53/1  119/54/1  109/55/1  108/56/1 
f  119/53/1  120/54/1  110/55/1  109/56/1 
f  337/29/1  338/30/1  329/31/1  328/32/1 
f  338/29/1  339/30/1  330/31/1  329/32/1 
f  339/29/1  340/30/1  331/31/1  330/32/1 
f  340/29/1  341/30/1  332/31/1  331/32/1 
f  341/29/1  342/30/1  333/31/1  332/32/1 
f  342/29/1  343/30/1  334/31/1  333/32/1 
f  343/29/1  344/30/1  335/31/1  334/32/1 
f  344/29/1  345/30/1  336/31/1  335/32/1 
f  345/29/1  121/30/1  111/31/1  336/32/1 
f  121/29/1  122/30/1  112/31/1  111/32/1 
f  122/29/1  123/30/1  113/31/1  112/32/1 
f  123/29/1  124/30/1  114/31/1  113/32/1 
f  124/29/1  125/30/1  115/31/1  114/32/1 
f  125/29/1  126/30/1  116/31/1  115/32/1 
f  126/29/1  127/30/1  117/31/1  116/32/1 
f  127/29/1  128/30/1  118/31/1  117/32/1 
f  128/29/1  129/30/1  119/31/1  118/32/1 
f  129/29/1  130/30/1  120/31/1  119/32/1 
f  346/29/1  347/30/1  338/31/1  337/32/1 
f  347/29/1  348/30/1  339/31/1  338/32/1 
f  348/29/1  349/30/1  340/31/1  339/32/1 
f  349/29/1  350/30/1  341/31/1  340/32/1 
f  350/29/1  351/30/1  342/31/1  341/32/1 
f  351/29/1  352/30/1  343/31/1  342/32/1 
f  352/29/1  353/30/1  344/31/1  343/32/1 
f  353/29/1  143/30/1  345/31/1  344/32/1 
f  143/29/1  131/30/1  121/31/1  345/32/1 
f  131/29/1  132/30/1  122/31/1  121/32/1 
f  132/29/1  133/30/1  123/31/1  122/32/1 
f  133/29/1  134/30/1  124/31/1  123/32/1 
f  134/29/1  135/30/1  125/31/1  124/32/1 
f  135/29/1  136/30/1  126/31/1  125/32/1 
f  136/29/1  137/30/1  127/31/1  126/32/1 
f  137/29/1  138/30/1  128/31/1  127/32/1 
f  138/29/1  139/30/1  129/31/1  128/32/1 
f  139/29/1  140/30/1  130/31/1  129/32/1 
f  354/29/1  355/30/1  347/31/1  346/32/1 
f  355/29/1  356/30/1  348/31/1  347/32/1 
f  356/29/1  357/30/1  349/31/1  348/32/1 
f  357/29/1  358/30/1  350/31/1  349/32/1 
f  358/29/1  359/30/1  351/31/1  350/32/1 
f  359/29/1  360/30/1  352/31/1  351/32/1 
f  360/29/1  361/30/1  353/31/1  352/32/1 
f  361/29/1  141/30/1  143/31/1  353/32/1 
f  141/29/1  142/30/1  131/31/1  143/32/1 
f  142/29/1  144/30/1  132/31/1  131/32/1 
f  144/29/1  145/30/1  133/31/1  132/32/1 
f  145/29/1  146/30/1  134/31/1  133/32/1 
f  146/29/1  147/30/1  135/31/1  134/32/1 
f  147/29/1  148/30/1  136/31/1  135/32/1 
f  148/29/1  149/30/1  137/31/1  136/32/1 
f  149/29/1  150/30/1  138/31/1  137/32/1 
f  150/29/1  151/30/1  139/31/1  138/32/1 
f  151/29/1  152/30/1  140/31/1  139/32/1 
