# Wavefront OBJ file automatically generated by Tiled2Unity

# Vertices (Count = 247)
v -2240 -768 0
v -2304 -768 0
v -2304 -704 0
v -2240 -704 0
v -2368 -768 0
v -2368 -704 0
v -2432 -768 0
v -2432 -704 0
v -2496 -768 0
v -2496 -704 0
v -2560 -768 0
v -2560 -704 0
v -2624 -768 0
v -2624 -704 0
v -2688 -768 0
v -2688 -704 0
v -2752 -768 0
v -2752 -704 0
v -2816 -768 0
v -2816 -704 0
v -2880 -768 0
v -2880 -704 0
v -2944 -768 0
v -2944 -704 0
v -3008 -768 0
v -3008 -704 0
v -2240 -832 0
v -2304 -832 0
v -2368 -832 0
v -2432 -832 0
v -2496 -832 0
v -2560 -832 0
v -2624 -832 0
v -2688 -832 0
v -2752 -832 0
v -2816 -832 0
v -2880 -832 0
v -2944 -832 0
v -3008 -832 0
v -2240 -896 0
v -2304 -896 0
v -2368 -896 0
v -2432 -896 0
v -2496 -896 0
v -2560 -896 0
v -2624 -896 0
v -2688 -896 0
v -2752 -896 0
v -2816 -896 0
v -2880 -896 0
v -2944 -896 0
v -3008 -896 0
v -2240 -960 0
v -2304 -960 0
v -2368 -960 0
v -2432 -960 0
v -2496 -960 0
v -2560 -960 0
v -2624 -960 0
v -2688 -960 0
v -2752 -960 0
v -2816 -960 0
v -2880 -960 0
v -2944 -960 0
v -3008 -960 0
v -2240 -1024 0
v -2304 -1024 0
v -2368 -1024 0
v -2432 -1024 0
v -2496 -1024 0
v -2560 -1024 0
v -2624 -1024 0
v -2688 -1024 0
v -2752 -1024 0
v -2816 -1024 0
v -2880 -1024 0
v -2944 -1024 0
v -3008 -1024 0
v -2240 -1088 0
v -2304 -1088 0
v -2368 -1088 0
v -2432 -1088 0
v -2496 -1088 0
v -2560 -1088 0
v -2624 -1088 0
v -2688 -1088 0
v -2752 -1088 0
v -2816 -1088 0
v -2880 -1088 0
v -2944 -1088 0
v -3008 -1088 0
v -2240 -1152 0
v -2304 -1152 0
v -2368 -1152 0
v -2432 -1152 0
v -2496 -1152 0
v -2560 -1152 0
v -2624 -1152 0
v -2688 -1152 0
v -2752 -1152 0
v -2816 -1152 0
v -2880 -1152 0
v -2944 -1152 0
v -3008 -1152 0
v -2240 -1216 0
v -2304 -1216 0
v -2368 -1216 0
v -2432 -1216 0
v -2496 -1216 0
v -2560 -1216 0
v -2624 -1216 0
v -2688 -1216 0
v -2752 -1216 0
v -2816 -1216 0
v -2880 -1216 0
v -2944 -1216 0
v -3008 -1216 0
v -2240 -1280 0
v -2304 -1280 0
v -2368 -1280 0
v -2432 -1280 0
v -2496 -1280 0
v -2560 -1280 0
v -2624 -1280 0
v -2688 -1280 0
v -2752 -1280 0
v -2816 -1280 0
v -2880 -1280 0
v -2944 -1280 0
v -3008 -1280 0
v -2240 -1344 0
v -2304 -1344 0
v -2368 -1344 0
v -2432 -1344 0
v -2496 -1344 0
v -2560 -1344 0
v -2624 -1344 0
v -2688 -1344 0
v -2752 -1344 0
v -2816 -1344 0
v -2880 -1344 0
v -2944 -1344 0
v -3008 -1344 0
v -2240 -1408 0
v -2304 -1408 0
v -2368 -1408 0
v -2432 -1408 0
v -2496 -1408 0
v -2560 -1408 0
v -2624 -1408 0
v -2688 -1408 0
v -2752 -1408 0
v -2816 -1408 0
v -2880 -1408 0
v -2944 -1408 0
v -3008 -1408 0
v -2240 -1472 0
v -2304 -1472 0
v -2368 -1472 0
v -2432 -1472 0
v -2496 -1472 0
v -2560 -1472 0
v -2624 -1472 0
v -2688 -1472 0
v -2752 -1472 0
v -2816 -1472 0
v -2880 -1472 0
v -2944 -1472 0
v -3008 -1472 0
v -2240 -1536 0
v -2304 -1536 0
v -2368 -1536 0
v -2432 -1536 0
v -2496 -1536 0
v -2560 -1536 0
v -2624 -1536 0
v -2688 -1536 0
v -2752 -1536 0
v -2816 -1536 0
v -2880 -1536 0
v -2944 -1536 0
v -3008 -1536 0
v -2240 -1600 0
v -2304 -1600 0
v -2368 -1600 0
v -2432 -1600 0
v -2496 -1600 0
v -2560 -1600 0
v -2624 -1600 0
v -2688 -1600 0
v -2752 -1600 0
v -2816 -1600 0
v -2880 -1600 0
v -2944 -1600 0
v -3008 -1600 0
v -2240 -512 0
v -2304 -512 0
v -2304 -448 0
v -2240 -448 0
v -2368 -512 0
v -2368 -448 0
v -2432 -512 0
v -2432 -448 0
v -2496 -512 0
v -2496 -448 0
v -2560 -512 0
v -2560 -448 0
v -2624 -512 0
v -2624 -448 0
v -2688 -512 0
v -2688 -448 0
v -2752 -512 0
v -2752 -448 0
v -2816 -512 0
v -2816 -448 0
v -2880 -512 0
v -2880 -448 0
v -2944 -512 0
v -2944 -448 0
v -3008 -512 0
v -3008 -448 0
v -2240 -576 0
v -2304 -576 0
v -2368 -576 0
v -2432 -576 0
v -2496 -576 0
v -2560 -576 0
v -2624 -576 0
v -2688 -576 0
v -2752 -576 0
v -2816 -576 0
v -2880 -576 0
v -2944 -576 0
v -3008 -576 0
v -2240 -640 0
v -2304 -640 0
v -2368 -640 0
v -2432 -640 0
v -2496 -640 0
v -2560 -640 0
v -2624 -640 0
v -2688 -640 0
v -2752 -640 0
v -2816 -640 0
v -2880 -640 0
v -2944 -640 0
v -3008 -640 0

# Texture Coorindates (Count = 84)
vt 0.4376221 0.8126221
vt 0.4998779 0.8126221
vt 0.4998779 0.8748779
vt 0.4376221 0.8748779
vt 0.0001220703 0.6876221
vt 0.06237793 0.6876221
vt 0.06237793 0.7498779
vt 0.0001220703 0.7498779
vt 0.6251221 0.6876221
vt 0.6873779 0.6876221
vt 0.6873779 0.7498779
vt 0.6251221 0.7498779
vt 0.6251221 0.6251221
vt 0.6873779 0.6251221
vt 0.6873779 0.6873779
vt 0.6251221 0.6873779
vt 0.3751221 0.6876221
vt 0.4373779 0.6876221
vt 0.4373779 0.7498779
vt 0.3751221 0.7498779
vt 0.2501221 0.6876221
vt 0.3123779 0.6876221
vt 0.3123779 0.7498779
vt 0.2501221 0.7498779
vt 0.3126221 0.6876221
vt 0.3748779 0.6876221
vt 0.3748779 0.7498779
vt 0.3126221 0.7498779
vt 0.6251221 0.5626221
vt 0.6873779 0.5626221
vt 0.6873779 0.6248779
vt 0.6251221 0.6248779
vt 0.4376221 0.6876221
vt 0.4998779 0.6876221
vt 0.4998779 0.7498779
vt 0.4376221 0.7498779
vt 0.0001220703 0.7501221
vt 0.06237793 0.7501221
vt 0.06237793 0.8123779
vt 0.0001220703 0.8123779
vt 0.1251221 0.7501221
vt 0.1873779 0.7501221
vt 0.1873779 0.8123779
vt 0.1251221 0.8123779
vt 0.9376221 0.7501221
vt 0.9998779 0.7501221
vt 0.9998779 0.8123779
vt 0.9376221 0.8123779
vt 0.8751221 0.7501221
vt 0.9373779 0.7501221
vt 0.9373779 0.8123779
vt 0.8751221 0.8123779
vt 0.6251221 0.7501221
vt 0.6873779 0.7501221
vt 0.6873779 0.8123779
vt 0.6251221 0.8123779
vt 0.6876221 0.7501221
vt 0.7498779 0.7501221
vt 0.7498779 0.8123779
vt 0.6876221 0.8123779
vt 0.1876221 0.7501221
vt 0.2498779 0.7501221
vt 0.2498779 0.8123779
vt 0.1876221 0.8123779
vt 0.3751221 0.7501221
vt 0.4373779 0.7501221
vt 0.4373779 0.8123779
vt 0.3751221 0.8123779
vt 0.06262207 0.7501221
vt 0.1248779 0.7501221
vt 0.1248779 0.8123779
vt 0.06262207 0.8123779
vt 0.3126221 0.7501221
vt 0.3748779 0.7501221
vt 0.3748779 0.8123779
vt 0.3126221 0.8123779
vt 0.8126221 0.7501221
vt 0.8748779 0.7501221
vt 0.8748779 0.8123779
vt 0.8126221 0.8123779
vt 0.7501221 0.7501221
vt 0.8123779 0.7501221
vt 0.8123779 0.8123779
vt 0.7501221 0.8123779

# Normal
vn 0 0 -1

# Groups (Count = 3)
g mesh_[00]_[00]
f  1/1/1  2/2/1  3/3/1  4/4/1 
f  2/1/1  5/2/1  6/3/1  3/4/1 
f  5/1/1  7/2/1  8/3/1  6/4/1 
f  7/1/1  9/2/1  10/3/1  8/4/1 
f  9/1/1  11/2/1  12/3/1  10/4/1 
f  11/1/1  13/2/1  14/3/1  12/4/1 
f  13/1/1  15/2/1  16/3/1  14/4/1 
f  15/1/1  17/2/1  18/3/1  16/4/1 
f  17/1/1  19/2/1  20/3/1  18/4/1 
f  19/1/1  21/2/1  22/3/1  20/4/1 
f  21/1/1  23/2/1  24/3/1  22/4/1 
f  23/1/1  25/2/1  26/3/1  24/4/1 
f  27/1/1  28/2/1  2/3/1  1/4/1 
f  28/1/1  29/2/1  5/3/1  2/4/1 
f  29/1/1  30/2/1  7/3/1  5/4/1 
f  30/1/1  31/2/1  9/3/1  7/4/1 
f  31/1/1  32/2/1  11/3/1  9/4/1 
f  32/1/1  33/2/1  13/3/1  11/4/1 
f  33/1/1  34/2/1  15/3/1  13/4/1 
f  34/1/1  35/2/1  17/3/1  15/4/1 
f  35/1/1  36/2/1  19/3/1  17/4/1 
f  36/1/1  37/2/1  21/3/1  19/4/1 
f  37/1/1  38/2/1  23/3/1  21/4/1 
f  38/1/1  39/2/1  25/3/1  23/4/1 
f  40/1/1  41/2/1  28/3/1  27/4/1 
f  41/1/1  42/2/1  29/3/1  28/4/1 
f  42/1/1  43/2/1  30/3/1  29/4/1 
f  43/1/1  44/2/1  31/3/1  30/4/1 
f  44/1/1  45/2/1  32/3/1  31/4/1 
f  45/1/1  46/2/1  33/3/1  32/4/1 
f  46/1/1  47/2/1  34/3/1  33/4/1 
f  47/1/1  48/2/1  35/3/1  34/4/1 
f  48/1/1  49/2/1  36/3/1  35/4/1 
f  49/1/1  50/2/1  37/3/1  36/4/1 
f  50/1/1  51/2/1  38/3/1  37/4/1 
f  51/1/1  52/2/1  39/3/1  38/4/1 
f  53/1/1  54/2/1  41/3/1  40/4/1 
f  54/1/1  55/2/1  42/3/1  41/4/1 
f  55/1/1  56/2/1  43/3/1  42/4/1 
f  56/1/1  57/2/1  44/3/1  43/4/1 
f  57/1/1  58/2/1  45/3/1  44/4/1 
f  58/1/1  59/2/1  46/3/1  45/4/1 
f  59/1/1  60/2/1  47/3/1  46/4/1 
f  60/1/1  61/2/1  48/3/1  47/4/1 
f  61/1/1  62/2/1  49/3/1  48/4/1 
f  62/1/1  63/2/1  50/3/1  49/4/1 
f  63/1/1  64/2/1  51/3/1  50/4/1 
f  64/1/1  65/2/1  52/3/1  51/4/1 
f  66/1/1  67/2/1  54/3/1  53/4/1 
f  67/1/1  68/2/1  55/3/1  54/4/1 
f  68/1/1  69/2/1  56/3/1  55/4/1 
f  69/1/1  70/2/1  57/3/1  56/4/1 
f  70/1/1  71/2/1  58/3/1  57/4/1 
f  71/1/1  72/2/1  59/3/1  58/4/1 
f  72/1/1  73/2/1  60/3/1  59/4/1 
f  73/1/1  74/2/1  61/3/1  60/4/1 
f  74/1/1  75/2/1  62/3/1  61/4/1 
f  75/1/1  76/2/1  63/3/1  62/4/1 
f  76/1/1  77/2/1  64/3/1  63/4/1 
f  77/1/1  78/2/1  65/3/1  64/4/1 
f  79/1/1  80/2/1  67/3/1  66/4/1 
f  80/1/1  81/2/1  68/3/1  67/4/1 
f  81/1/1  82/2/1  69/3/1  68/4/1 
f  82/1/1  83/2/1  70/3/1  69/4/1 
f  83/1/1  84/2/1  71/3/1  70/4/1 
f  84/1/1  85/2/1  72/3/1  71/4/1 
f  85/1/1  86/2/1  73/3/1  72/4/1 
f  86/1/1  87/2/1  74/3/1  73/4/1 
f  87/1/1  88/2/1  75/3/1  74/4/1 
f  88/1/1  89/2/1  76/3/1  75/4/1 
f  89/1/1  90/2/1  77/3/1  76/4/1 
f  90/1/1  91/2/1  78/3/1  77/4/1 
f  92/1/1  93/2/1  80/3/1  79/4/1 
f  93/1/1  94/2/1  81/3/1  80/4/1 
f  94/1/1  95/2/1  82/3/1  81/4/1 
f  95/1/1  96/2/1  83/3/1  82/4/1 
f  96/1/1  97/2/1  84/3/1  83/4/1 
f  97/1/1  98/2/1  85/3/1  84/4/1 
f  98/1/1  99/2/1  86/3/1  85/4/1 
f  99/1/1  100/2/1  87/3/1  86/4/1 
f  100/1/1  101/2/1  88/3/1  87/4/1 
f  101/1/1  102/2/1  89/3/1  88/4/1 
f  102/1/1  103/2/1  90/3/1  89/4/1 
f  103/1/1  104/2/1  91/3/1  90/4/1 
f  105/1/1  106/2/1  93/3/1  92/4/1 
f  106/1/1  107/2/1  94/3/1  93/4/1 
f  107/1/1  108/2/1  95/3/1  94/4/1 
f  108/1/1  109/2/1  96/3/1  95/4/1 
f  109/1/1  110/2/1  97/3/1  96/4/1 
f  110/1/1  111/2/1  98/3/1  97/4/1 
f  111/1/1  112/2/1  99/3/1  98/4/1 
f  112/1/1  113/2/1  100/3/1  99/4/1 
f  113/1/1  114/2/1  101/3/1  100/4/1 
f  114/1/1  115/2/1  102/3/1  101/4/1 
f  115/1/1  116/2/1  103/3/1  102/4/1 
f  116/1/1  117/2/1  104/3/1  103/4/1 
f  118/1/1  119/2/1  106/3/1  105/4/1 
f  119/1/1  120/2/1  107/3/1  106/4/1 
f  120/1/1  121/2/1  108/3/1  107/4/1 
f  121/1/1  122/2/1  109/3/1  108/4/1 
f  122/1/1  123/2/1  110/3/1  109/4/1 
f  123/1/1  124/2/1  111/3/1  110/4/1 
f  124/1/1  125/2/1  112/3/1  111/4/1 
f  125/1/1  126/2/1  113/3/1  112/4/1 
f  126/1/1  127/2/1  114/3/1  113/4/1 
f  127/1/1  128/2/1  115/3/1  114/4/1 
f  128/1/1  129/2/1  116/3/1  115/4/1 
f  129/1/1  130/2/1  117/3/1  116/4/1 
f  131/1/1  132/2/1  119/3/1  118/4/1 
f  132/1/1  133/2/1  120/3/1  119/4/1 
f  133/1/1  134/2/1  121/3/1  120/4/1 
f  134/1/1  135/2/1  122/3/1  121/4/1 
f  135/1/1  136/2/1  123/3/1  122/4/1 
f  136/1/1  137/2/1  124/3/1  123/4/1 
f  137/1/1  138/2/1  125/3/1  124/4/1 
f  138/1/1  139/2/1  126/3/1  125/4/1 
f  139/1/1  140/2/1  127/3/1  126/4/1 
f  140/1/1  141/2/1  128/3/1  127/4/1 
f  141/1/1  142/2/1  129/3/1  128/4/1 
f  142/1/1  143/2/1  130/3/1  129/4/1 
f  144/1/1  145/2/1  132/3/1  131/4/1 
f  145/1/1  146/2/1  133/3/1  132/4/1 
f  146/1/1  147/2/1  134/3/1  133/4/1 
f  147/1/1  148/2/1  135/3/1  134/4/1 
f  148/1/1  149/2/1  136/3/1  135/4/1 
f  149/1/1  150/2/1  137/3/1  136/4/1 
f  150/1/1  151/2/1  138/3/1  137/4/1 
f  151/1/1  152/2/1  139/3/1  138/4/1 
f  152/1/1  153/2/1  140/3/1  139/4/1 
f  153/1/1  154/2/1  141/3/1  140/4/1 
f  154/1/1  155/2/1  142/3/1  141/4/1 
f  155/1/1  156/2/1  143/3/1  142/4/1 
f  157/1/1  158/2/1  145/3/1  144/4/1 
f  158/1/1  159/2/1  146/3/1  145/4/1 
f  159/1/1  160/2/1  147/3/1  146/4/1 
f  160/1/1  161/2/1  148/3/1  147/4/1 
f  161/1/1  162/2/1  149/3/1  148/4/1 
f  162/1/1  163/2/1  150/3/1  149/4/1 
f  163/1/1  164/2/1  151/3/1  150/4/1 
f  164/1/1  165/2/1  152/3/1  151/4/1 
f  165/1/1  166/2/1  153/3/1  152/4/1 
f  166/1/1  167/2/1  154/3/1  153/4/1 
f  167/1/1  168/2/1  155/3/1  154/4/1 
f  168/1/1  169/2/1  156/3/1  155/4/1 
f  170/1/1  171/2/1  158/3/1  157/4/1 
f  171/1/1  172/2/1  159/3/1  158/4/1 
f  172/1/1  173/2/1  160/3/1  159/4/1 
f  173/1/1  174/2/1  161/3/1  160/4/1 
f  174/1/1  175/2/1  162/3/1  161/4/1 
f  175/1/1  176/2/1  163/3/1  162/4/1 
f  176/1/1  177/2/1  164/3/1  163/4/1 
f  177/1/1  178/2/1  165/3/1  164/4/1 
f  178/1/1  179/2/1  166/3/1  165/4/1 
f  179/1/1  180/2/1  167/3/1  166/4/1 
f  180/1/1  181/2/1  168/3/1  167/4/1 
f  181/1/1  182/2/1  169/3/1  168/4/1 
f  183/1/1  184/2/1  171/3/1  170/4/1 
f  184/1/1  185/2/1  172/3/1  171/4/1 
f  185/1/1  186/2/1  173/3/1  172/4/1 
f  186/1/1  187/2/1  174/3/1  173/4/1 
f  187/1/1  188/2/1  175/3/1  174/4/1 
f  188/1/1  189/2/1  176/3/1  175/4/1 
f  189/1/1  190/2/1  177/3/1  176/4/1 
f  190/1/1  191/2/1  178/3/1  177/4/1 
f  191/1/1  192/2/1  179/3/1  178/4/1 
f  192/1/1  193/2/1  180/3/1  179/4/1 
f  193/1/1  194/2/1  181/3/1  180/4/1 
f  194/1/1  195/2/1  182/3/1  181/4/1 
g mesh_[01]_[01]
f  28/5/1  30/6/1  8/7/1  3/8/1 
f  31/5/1  33/6/1  14/7/1  10/8/1 
f  32/9/1  34/10/1  16/11/1  12/12/1 
f  33/5/1  35/6/1  18/7/1  14/8/1 
f  35/5/1  37/6/1  22/7/1  18/8/1 
f  36/9/1  38/10/1  24/11/1  20/12/1 
f  58/13/1  60/14/1  34/15/1  32/16/1 
f  59/17/1  61/18/1  35/19/1  33/20/1 
f  62/13/1  64/14/1  38/15/1  36/16/1 
f  74/21/1  76/22/1  50/23/1  48/24/1 
f  76/25/1  78/26/1  52/27/1  50/28/1 
f  88/29/1  90/30/1  64/31/1  62/32/1 
f  120/33/1  122/34/1  96/35/1  94/36/1 
f  131/33/1  133/34/1  107/35/1  105/36/1 
f  132/17/1  134/18/1  108/19/1  106/20/1 
g mesh_[02]_[00]
f  196/37/1  197/38/1  198/39/1  199/40/1 
f  197/37/1  200/38/1  201/39/1  198/40/1 
f  200/37/1  202/38/1  203/39/1  201/40/1 
f  202/37/1  204/38/1  205/39/1  203/40/1 
f  204/37/1  206/38/1  207/39/1  205/40/1 
f  206/37/1  208/38/1  209/39/1  207/40/1 
f  208/37/1  210/38/1  211/39/1  209/40/1 
f  210/37/1  212/38/1  213/39/1  211/40/1 
f  212/37/1  214/38/1  215/39/1  213/40/1 
f  214/37/1  216/38/1  217/39/1  215/40/1 
f  216/37/1  218/38/1  219/39/1  217/40/1 
f  218/37/1  220/38/1  221/39/1  219/40/1 
f  222/37/1  223/38/1  197/39/1  196/40/1 
f  223/37/1  224/38/1  200/39/1  197/40/1 
f  224/37/1  225/38/1  202/39/1  200/40/1 
f  225/37/1  226/38/1  204/39/1  202/40/1 
f  226/37/1  227/38/1  206/39/1  204/40/1 
f  227/37/1  228/38/1  208/39/1  206/40/1 
f  228/37/1  229/38/1  210/39/1  208/40/1 
f  229/37/1  230/38/1  212/39/1  210/40/1 
f  230/37/1  231/38/1  214/39/1  212/40/1 
f  231/37/1  232/38/1  216/39/1  214/40/1 
f  232/37/1  233/38/1  218/39/1  216/40/1 
f  233/37/1  234/38/1  220/39/1  218/40/1 
f  235/37/1  236/38/1  223/39/1  222/40/1 
f  236/37/1  237/38/1  224/39/1  223/40/1 
f  237/37/1  238/38/1  225/39/1  224/40/1 
f  238/37/1  239/38/1  226/39/1  225/40/1 
f  239/37/1  240/38/1  227/39/1  226/40/1 
f  240/37/1  241/38/1  228/39/1  227/40/1 
f  241/37/1  242/38/1  229/39/1  228/40/1 
f  242/37/1  243/38/1  230/39/1  229/40/1 
f  243/37/1  244/38/1  231/39/1  230/40/1 
f  244/37/1  245/38/1  232/39/1  231/40/1 
f  245/37/1  246/38/1  233/39/1  232/40/1 
f  246/37/1  247/38/1  234/39/1  233/40/1 
f  4/41/1  3/42/1  236/43/1  235/44/1 
f  3/41/1  6/42/1  237/43/1  236/44/1 
f  6/41/1  8/42/1  238/43/1  237/44/1 
f  8/41/1  10/42/1  239/43/1  238/44/1 
f  10/41/1  12/42/1  240/43/1  239/44/1 
f  12/41/1  14/42/1  241/43/1  240/44/1 
f  14/41/1  16/42/1  242/43/1  241/44/1 
f  16/45/1  18/46/1  243/47/1  242/48/1 
f  18/49/1  20/50/1  244/51/1  243/52/1 
f  20/41/1  22/42/1  245/43/1  244/44/1 
f  22/45/1  24/46/1  246/47/1  245/48/1 
f  24/37/1  26/38/1  247/39/1  246/40/1 
f  15/53/1  17/54/1  18/55/1  16/56/1 
f  17/57/1  19/58/1  20/59/1  18/60/1 
f  21/53/1  23/54/1  24/55/1  22/56/1 
f  23/45/1  25/46/1  26/47/1  24/48/1 
f  38/61/1  39/62/1  25/63/1  23/64/1 
f  51/61/1  52/62/1  39/63/1  38/64/1 
f  56/65/1  57/66/1  44/67/1  43/68/1 
f  57/69/1  58/70/1  45/71/1  44/72/1 
f  58/69/1  59/70/1  46/71/1  45/72/1 
f  59/69/1  60/70/1  47/71/1  46/72/1 
f  60/73/1  61/74/1  48/75/1  47/76/1 
f  64/61/1  65/62/1  52/63/1  51/64/1 
f  69/61/1  70/62/1  57/63/1  56/64/1 
f  70/37/1  71/38/1  58/39/1  57/40/1 
f  71/37/1  72/38/1  59/39/1  58/40/1 
f  72/37/1  73/38/1  60/39/1  59/40/1 
f  73/37/1  74/38/1  61/39/1  60/40/1 
f  74/73/1  75/74/1  62/75/1  61/76/1 
f  76/65/1  77/66/1  64/67/1  63/68/1 
f  77/77/1  78/78/1  65/79/1  64/80/1 
f  82/61/1  83/62/1  70/63/1  69/64/1 
f  83/37/1  84/38/1  71/39/1  70/40/1 
f  84/37/1  85/38/1  72/39/1  71/40/1 
f  85/37/1  86/38/1  73/39/1  72/40/1 
f  86/37/1  87/38/1  74/39/1  73/40/1 
f  87/81/1  88/82/1  75/83/1  74/84/1 
f  88/69/1  89/70/1  76/71/1  75/72/1 
f  89/77/1  90/78/1  77/79/1  76/80/1 
f  90/37/1  91/38/1  78/39/1  77/40/1 
f  95/61/1  96/62/1  83/63/1  82/64/1 
f  96/37/1  97/38/1  84/39/1  83/40/1 
f  97/37/1  98/38/1  85/39/1  84/40/1 
f  98/37/1  99/38/1  86/39/1  85/40/1 
f  99/37/1  100/38/1  87/39/1  86/40/1 
f  100/37/1  101/38/1  88/39/1  87/40/1 
f  101/37/1  102/38/1  89/39/1  88/40/1 
f  102/37/1  103/38/1  90/39/1  89/40/1 
f  103/37/1  104/38/1  91/39/1  90/40/1 
f  108/61/1  109/62/1  96/63/1  95/64/1 
f  109/37/1  110/38/1  97/39/1  96/40/1 
f  110/37/1  111/38/1  98/39/1  97/40/1 
f  111/37/1  112/38/1  99/39/1  98/40/1 
f  112/37/1  113/38/1  100/39/1  99/40/1 
f  113/37/1  114/38/1  101/39/1  100/40/1 
f  114/37/1  115/38/1  102/39/1  101/40/1 
f  115/37/1  116/38/1  103/39/1  102/40/1 
f  116/37/1  117/38/1  104/39/1  103/40/1 
f  120/65/1  121/66/1  108/67/1  107/68/1 
f  121/37/1  122/38/1  109/39/1  108/40/1 
f  122/37/1  123/38/1  110/39/1  109/40/1 
f  123/37/1  124/38/1  111/39/1  110/40/1 
f  124/37/1  125/38/1  112/39/1  111/40/1 
f  125/37/1  126/38/1  113/39/1  112/40/1 
f  126/37/1  127/38/1  114/39/1  113/40/1 
f  127/37/1  128/38/1  115/39/1  114/40/1 
f  128/37/1  129/38/1  116/39/1  115/40/1 
f  129/37/1  130/38/1  117/39/1  116/40/1 
f  132/65/1  133/66/1  120/67/1  119/68/1 
f  133/37/1  134/38/1  121/39/1  120/40/1 
f  134/37/1  135/38/1  122/39/1  121/40/1 
f  135/37/1  136/38/1  123/39/1  122/40/1 
f  136/37/1  137/38/1  124/39/1  123/40/1 
f  137/37/1  138/38/1  125/39/1  124/40/1 
f  138/37/1  139/38/1  126/39/1  125/40/1 
f  139/37/1  140/38/1  127/39/1  126/40/1 
f  140/37/1  141/38/1  128/39/1  127/40/1 
f  141/37/1  142/38/1  129/39/1  128/40/1 
f  142/37/1  143/38/1  130/39/1  129/40/1 
f  144/69/1  145/70/1  132/71/1  131/72/1 
f  145/37/1  146/38/1  133/39/1  132/40/1 
f  146/37/1  147/38/1  134/39/1  133/40/1 
f  147/37/1  148/38/1  135/39/1  134/40/1 
f  148/37/1  149/38/1  136/39/1  135/40/1 
f  149/37/1  150/38/1  137/39/1  136/40/1 
f  150/37/1  151/38/1  138/39/1  137/40/1 
f  151/37/1  152/38/1  139/39/1  138/40/1 
f  152/37/1  153/38/1  140/39/1  139/40/1 
f  153/37/1  154/38/1  141/39/1  140/40/1 
f  154/37/1  155/38/1  142/39/1  141/40/1 
f  155/37/1  156/38/1  143/39/1  142/40/1 
f  157/37/1  158/38/1  145/39/1  144/40/1 
f  158/37/1  159/38/1  146/39/1  145/40/1 
f  159/37/1  160/38/1  147/39/1  146/40/1 
f  160/37/1  161/38/1  148/39/1  147/40/1 
f  161/37/1  162/38/1  149/39/1  148/40/1 
f  162/37/1  163/38/1  150/39/1  149/40/1 
f  163/37/1  164/38/1  151/39/1  150/40/1 
f  164/37/1  165/38/1  152/39/1  151/40/1 
f  165/37/1  166/38/1  153/39/1  152/40/1 
f  166/37/1  167/38/1  154/39/1  153/40/1 
f  167/37/1  168/38/1  155/39/1  154/40/1 
f  168/37/1  169/38/1  156/39/1  155/40/1 
f  170/37/1  171/38/1  158/39/1  157/40/1 
f  171/37/1  172/38/1  159/39/1  158/40/1 
f  172/37/1  173/38/1  160/39/1  159/40/1 
f  173/37/1  174/38/1  161/39/1  160/40/1 
f  174/37/1  175/38/1  162/39/1  161/40/1 
f  175/37/1  176/38/1  163/39/1  162/40/1 
f  176/37/1  177/38/1  164/39/1  163/40/1 
f  177/37/1  178/38/1  165/39/1  164/40/1 
f  178/37/1  179/38/1  166/39/1  165/40/1 
f  179/37/1  180/38/1  167/39/1  166/40/1 
f  180/37/1  181/38/1  168/39/1  167/40/1 
f  181/37/1  182/38/1  169/39/1  168/40/1 
f  183/37/1  184/38/1  171/39/1  170/40/1 
f  184/37/1  185/38/1  172/39/1  171/40/1 
f  185/37/1  186/38/1  173/39/1  172/40/1 
f  186/37/1  187/38/1  174/39/1  173/40/1 
f  187/37/1  188/38/1  175/39/1  174/40/1 
f  188/37/1  189/38/1  176/39/1  175/40/1 
f  189/37/1  190/38/1  177/39/1  176/40/1 
f  190/37/1  191/38/1  178/39/1  177/40/1 
f  191/37/1  192/38/1  179/39/1  178/40/1 
f  192/37/1  193/38/1  180/39/1  179/40/1 
f  193/37/1  194/38/1  181/39/1  180/40/1 
f  194/37/1  195/38/1  182/39/1  181/40/1 
