# Wavefront OBJ file automatically generated by Tiled2Unity

# Vertices (Count = 247)
v -832 -768 0
v -896 -768 0
v -896 -704 0
v -832 -704 0
v -960 -768 0
v -960 -704 0
v -1024 -768 0
v -1024 -704 0
v -1088 -768 0
v -1088 -704 0
v -1152 -768 0
v -1152 -704 0
v -1216 -768 0
v -1216 -704 0
v -1280 -768 0
v -1280 -704 0
v -1344 -768 0
v -1344 -704 0
v -1408 -768 0
v -1408 -704 0
v -1472 -768 0
v -1472 -704 0
v -1536 -768 0
v -1536 -704 0
v -1600 -768 0
v -1600 -704 0
v -832 -832 0
v -896 -832 0
v -960 -832 0
v -1024 -832 0
v -1088 -832 0
v -1152 -832 0
v -1216 -832 0
v -1280 -832 0
v -1344 -832 0
v -1408 -832 0
v -1472 -832 0
v -1536 -832 0
v -1600 -832 0
v -832 -896 0
v -896 -896 0
v -960 -896 0
v -1024 -896 0
v -1088 -896 0
v -1152 -896 0
v -1216 -896 0
v -1280 -896 0
v -1344 -896 0
v -1408 -896 0
v -1472 -896 0
v -1536 -896 0
v -1600 -896 0
v -832 -960 0
v -896 -960 0
v -960 -960 0
v -1024 -960 0
v -1088 -960 0
v -1152 -960 0
v -1216 -960 0
v -1280 -960 0
v -1344 -960 0
v -1408 -960 0
v -1472 -960 0
v -1536 -960 0
v -1600 -960 0
v -832 -1024 0
v -896 -1024 0
v -960 -1024 0
v -1024 -1024 0
v -1088 -1024 0
v -1152 -1024 0
v -1216 -1024 0
v -1280 -1024 0
v -1344 -1024 0
v -1408 -1024 0
v -1472 -1024 0
v -1536 -1024 0
v -1600 -1024 0
v -832 -1088 0
v -896 -1088 0
v -960 -1088 0
v -1024 -1088 0
v -1088 -1088 0
v -1152 -1088 0
v -1216 -1088 0
v -1280 -1088 0
v -1344 -1088 0
v -1408 -1088 0
v -1472 -1088 0
v -1536 -1088 0
v -1600 -1088 0
v -832 -1152 0
v -896 -1152 0
v -960 -1152 0
v -1024 -1152 0
v -1088 -1152 0
v -1152 -1152 0
v -1216 -1152 0
v -1280 -1152 0
v -1344 -1152 0
v -1408 -1152 0
v -1472 -1152 0
v -1536 -1152 0
v -1600 -1152 0
v -832 -1216 0
v -896 -1216 0
v -960 -1216 0
v -1024 -1216 0
v -1088 -1216 0
v -1152 -1216 0
v -1216 -1216 0
v -1280 -1216 0
v -1344 -1216 0
v -1408 -1216 0
v -1472 -1216 0
v -1536 -1216 0
v -1600 -1216 0
v -832 -1280 0
v -896 -1280 0
v -960 -1280 0
v -1024 -1280 0
v -1088 -1280 0
v -1152 -1280 0
v -1216 -1280 0
v -1280 -1280 0
v -1344 -1280 0
v -1408 -1280 0
v -1472 -1280 0
v -1536 -1280 0
v -1600 -1280 0
v -832 -1344 0
v -896 -1344 0
v -960 -1344 0
v -1024 -1344 0
v -1088 -1344 0
v -1152 -1344 0
v -1216 -1344 0
v -1280 -1344 0
v -1344 -1344 0
v -1408 -1344 0
v -1472 -1344 0
v -1536 -1344 0
v -1600 -1344 0
v -1024 -1408 0
v -1152 -1408 0
v -832 -512 0
v -896 -512 0
v -896 -448 0
v -832 -448 0
v -960 -512 0
v -960 -448 0
v -1024 -512 0
v -1024 -448 0
v -1088 -512 0
v -1088 -448 0
v -1152 -512 0
v -1152 -448 0
v -1216 -512 0
v -1216 -448 0
v -1280 -512 0
v -1280 -448 0
v -1344 -512 0
v -1344 -448 0
v -1408 -512 0
v -1408 -448 0
v -1472 -512 0
v -1472 -448 0
v -1536 -512 0
v -1536 -448 0
v -1600 -512 0
v -1600 -448 0
v -832 -576 0
v -896 -576 0
v -960 -576 0
v -1024 -576 0
v -1088 -576 0
v -1152 -576 0
v -1216 -576 0
v -1280 -576 0
v -1344 -576 0
v -1408 -576 0
v -1472 -576 0
v -1536 -576 0
v -1600 -576 0
v -832 -640 0
v -896 -640 0
v -960 -640 0
v -1024 -640 0
v -1088 -640 0
v -1152 -640 0
v -1216 -640 0
v -1280 -640 0
v -1344 -640 0
v -1408 -640 0
v -1472 -640 0
v -1536 -640 0
v -1600 -640 0
v -832 -1408 0
v -896 -1408 0
v -960 -1408 0
v -1088 -1408 0
v -1216 -1408 0
v -1280 -1408 0
v -1344 -1408 0
v -1408 -1408 0
v -1472 -1408 0
v -1536 -1408 0
v -1600 -1408 0
v -832 -1472 0
v -896 -1472 0
v -960 -1472 0
v -1024 -1472 0
v -1088 -1472 0
v -1152 -1472 0
v -1216 -1472 0
v -1280 -1472 0
v -1344 -1472 0
v -1408 -1472 0
v -1472 -1472 0
v -1536 -1472 0
v -1600 -1472 0
v -832 -1536 0
v -896 -1536 0
v -960 -1536 0
v -1024 -1536 0
v -1088 -1536 0
v -1152 -1536 0
v -1216 -1536 0
v -1280 -1536 0
v -1344 -1536 0
v -1408 -1536 0
v -1472 -1536 0
v -1536 -1536 0
v -1600 -1536 0
v -832 -1600 0
v -896 -1600 0
v -960 -1600 0
v -1024 -1600 0
v -1088 -1600 0
v -1152 -1600 0
v -1216 -1600 0
v -1280 -1600 0
v -1344 -1600 0
v -1408 -1600 0
v -1472 -1600 0
v -1536 -1600 0
v -1600 -1600 0

# Texture Coorindates (Count = 52)
vt 0.4376221 0.8126221
vt 0.4998779 0.8126221
vt 0.4998779 0.8748779
vt 0.4376221 0.8748779
vt 0.0001220703 0.6876221
vt 0.06237793 0.6876221
vt 0.06237793 0.7498779
vt 0.0001220703 0.7498779
vt 0.06262207 0.6876221
vt 0.1248779 0.6876221
vt 0.1248779 0.7498779
vt 0.06262207 0.7498779
vt 0.1251221 0.6876221
vt 0.1873779 0.6876221
vt 0.1873779 0.7498779
vt 0.1251221 0.7498779
vt 0.1876221 0.6876221
vt 0.2498779 0.6876221
vt 0.2498779 0.7498779
vt 0.1876221 0.7498779
vt 0.0001220703 0.4376221
vt 0.06237793 0.4376221
vt 0.06237793 0.4998779
vt 0.0001220703 0.4998779
vt 0.4376221 0.6876221
vt 0.4998779 0.6876221
vt 0.4998779 0.7498779
vt 0.4376221 0.7498779
vt 0.2501221 0.6876221
vt 0.3123779 0.6876221
vt 0.3123779 0.7498779
vt 0.2501221 0.7498779
vt 0.3126221 0.6876221
vt 0.3748779 0.6876221
vt 0.3748779 0.7498779
vt 0.3126221 0.7498779
vt 0.3751221 0.6876221
vt 0.4373779 0.6876221
vt 0.4373779 0.7498779
vt 0.3751221 0.7498779
vt 0.0001220703 0.7501221
vt 0.06237793 0.7501221
vt 0.06237793 0.8123779
vt 0.0001220703 0.8123779
vt 0.1251221 0.7501221
vt 0.1873779 0.7501221
vt 0.1873779 0.8123779
vt 0.1251221 0.8123779
vt 0.06262207 0.7501221
vt 0.1248779 0.7501221
vt 0.1248779 0.8123779
vt 0.06262207 0.8123779

# Normal
vn 0 0 -1

# Groups (Count = 3)
g mesh_[00]_[00]
f  1/1/1  2/2/1  3/3/1  4/4/1 
f  2/1/1  5/2/1  6/3/1  3/4/1 
f  5/1/1  7/2/1  8/3/1  6/4/1 
f  7/1/1  9/2/1  10/3/1  8/4/1 
f  9/1/1  11/2/1  12/3/1  10/4/1 
f  11/1/1  13/2/1  14/3/1  12/4/1 
f  13/1/1  15/2/1  16/3/1  14/4/1 
f  15/1/1  17/2/1  18/3/1  16/4/1 
f  17/1/1  19/2/1  20/3/1  18/4/1 
f  19/1/1  21/2/1  22/3/1  20/4/1 
f  21/1/1  23/2/1  24/3/1  22/4/1 
f  23/1/1  25/2/1  26/3/1  24/4/1 
f  27/1/1  28/2/1  2/3/1  1/4/1 
f  28/1/1  29/2/1  5/3/1  2/4/1 
f  29/1/1  30/2/1  7/3/1  5/4/1 
f  30/1/1  31/2/1  9/3/1  7/4/1 
f  31/1/1  32/2/1  11/3/1  9/4/1 
f  32/1/1  33/2/1  13/3/1  11/4/1 
f  33/1/1  34/2/1  15/3/1  13/4/1 
f  34/1/1  35/2/1  17/3/1  15/4/1 
f  35/1/1  36/2/1  19/3/1  17/4/1 
f  36/1/1  37/2/1  21/3/1  19/4/1 
f  37/1/1  38/2/1  23/3/1  21/4/1 
f  38/1/1  39/2/1  25/3/1  23/4/1 
f  40/1/1  41/2/1  28/3/1  27/4/1 
f  41/1/1  42/2/1  29/3/1  28/4/1 
f  42/1/1  43/2/1  30/3/1  29/4/1 
f  43/1/1  44/2/1  31/3/1  30/4/1 
f  44/1/1  45/2/1  32/3/1  31/4/1 
f  45/1/1  46/2/1  33/3/1  32/4/1 
f  46/1/1  47/2/1  34/3/1  33/4/1 
f  47/1/1  48/2/1  35/3/1  34/4/1 
f  48/1/1  49/2/1  36/3/1  35/4/1 
f  49/1/1  50/2/1  37/3/1  36/4/1 
f  50/1/1  51/2/1  38/3/1  37/4/1 
f  51/1/1  52/2/1  39/3/1  38/4/1 
f  53/1/1  54/2/1  41/3/1  40/4/1 
f  54/1/1  55/2/1  42/3/1  41/4/1 
f  55/1/1  56/2/1  43/3/1  42/4/1 
f  56/1/1  57/2/1  44/3/1  43/4/1 
f  57/1/1  58/2/1  45/3/1  44/4/1 
f  58/1/1  59/2/1  46/3/1  45/4/1 
f  59/1/1  60/2/1  47/3/1  46/4/1 
f  60/1/1  61/2/1  48/3/1  47/4/1 
f  61/1/1  62/2/1  49/3/1  48/4/1 
f  62/1/1  63/2/1  50/3/1  49/4/1 
f  63/1/1  64/2/1  51/3/1  50/4/1 
f  64/1/1  65/2/1  52/3/1  51/4/1 
f  66/1/1  67/2/1  54/3/1  53/4/1 
f  67/1/1  68/2/1  55/3/1  54/4/1 
f  68/1/1  69/2/1  56/3/1  55/4/1 
f  69/1/1  70/2/1  57/3/1  56/4/1 
f  70/1/1  71/2/1  58/3/1  57/4/1 
f  71/1/1  72/2/1  59/3/1  58/4/1 
f  72/1/1  73/2/1  60/3/1  59/4/1 
f  73/1/1  74/2/1  61/3/1  60/4/1 
f  74/1/1  75/2/1  62/3/1  61/4/1 
f  75/1/1  76/2/1  63/3/1  62/4/1 
f  76/1/1  77/2/1  64/3/1  63/4/1 
f  77/1/1  78/2/1  65/3/1  64/4/1 
f  79/1/1  80/2/1  67/3/1  66/4/1 
f  80/1/1  81/2/1  68/3/1  67/4/1 
f  81/1/1  82/2/1  69/3/1  68/4/1 
f  82/1/1  83/2/1  70/3/1  69/4/1 
f  83/1/1  84/2/1  71/3/1  70/4/1 
f  84/1/1  85/2/1  72/3/1  71/4/1 
f  85/1/1  86/2/1  73/3/1  72/4/1 
f  86/1/1  87/2/1  74/3/1  73/4/1 
f  87/1/1  88/2/1  75/3/1  74/4/1 
f  88/1/1  89/2/1  76/3/1  75/4/1 
f  89/1/1  90/2/1  77/3/1  76/4/1 
f  90/1/1  91/2/1  78/3/1  77/4/1 
f  92/1/1  93/2/1  80/3/1  79/4/1 
f  93/1/1  94/2/1  81/3/1  80/4/1 
f  94/1/1  95/2/1  82/3/1  81/4/1 
f  95/1/1  96/2/1  83/3/1  82/4/1 
f  96/1/1  97/2/1  84/3/1  83/4/1 
f  97/1/1  98/2/1  85/3/1  84/4/1 
f  98/1/1  99/2/1  86/3/1  85/4/1 
f  99/1/1  100/2/1  87/3/1  86/4/1 
f  100/1/1  101/2/1  88/3/1  87/4/1 
f  101/1/1  102/2/1  89/3/1  88/4/1 
f  102/1/1  103/2/1  90/3/1  89/4/1 
f  103/1/1  104/2/1  91/3/1  90/4/1 
f  105/1/1  106/2/1  93/3/1  92/4/1 
f  106/1/1  107/2/1  94/3/1  93/4/1 
f  107/1/1  108/2/1  95/3/1  94/4/1 
f  108/1/1  109/2/1  96/3/1  95/4/1 
f  109/1/1  110/2/1  97/3/1  96/4/1 
f  110/1/1  111/2/1  98/3/1  97/4/1 
f  111/1/1  112/2/1  99/3/1  98/4/1 
f  112/1/1  113/2/1  100/3/1  99/4/1 
f  113/1/1  114/2/1  101/3/1  100/4/1 
f  114/1/1  115/2/1  102/3/1  101/4/1 
f  115/1/1  116/2/1  103/3/1  102/4/1 
f  116/1/1  117/2/1  104/3/1  103/4/1 
f  118/1/1  119/2/1  106/3/1  105/4/1 
f  119/1/1  120/2/1  107/3/1  106/4/1 
f  120/1/1  121/2/1  108/3/1  107/4/1 
f  121/1/1  122/2/1  109/3/1  108/4/1 
f  122/1/1  123/2/1  110/3/1  109/4/1 
f  123/1/1  124/2/1  111/3/1  110/4/1 
f  124/1/1  125/2/1  112/3/1  111/4/1 
f  125/1/1  126/2/1  113/3/1  112/4/1 
f  126/1/1  127/2/1  114/3/1  113/4/1 
f  127/1/1  128/2/1  115/3/1  114/4/1 
f  128/1/1  129/2/1  116/3/1  115/4/1 
f  129/1/1  130/2/1  117/3/1  116/4/1 
f  131/1/1  132/2/1  119/3/1  118/4/1 
f  132/1/1  133/2/1  120/3/1  119/4/1 
f  133/1/1  134/2/1  121/3/1  120/4/1 
f  134/1/1  135/2/1  122/3/1  121/4/1 
f  135/1/1  136/2/1  123/3/1  122/4/1 
f  136/1/1  137/2/1  124/3/1  123/4/1 
f  137/1/1  138/2/1  125/3/1  124/4/1 
f  138/1/1  139/2/1  126/3/1  125/4/1 
f  139/1/1  140/2/1  127/3/1  126/4/1 
f  140/1/1  141/2/1  128/3/1  127/4/1 
f  141/1/1  142/2/1  129/3/1  128/4/1 
f  142/1/1  143/2/1  130/3/1  129/4/1 
g mesh_[01]_[01]
f  27/5/1  29/6/1  6/7/1  4/8/1 
f  29/9/1  31/10/1  10/11/1  6/12/1 
f  31/13/1  33/14/1  14/15/1  10/16/1 
f  33/17/1  35/18/1  18/19/1  14/20/1 
f  35/9/1  37/10/1  22/11/1  18/12/1 
f  36/5/1  38/6/1  24/7/1  20/8/1 
f  37/5/1  39/6/1  26/7/1  22/8/1 
f  131/21/1  133/22/1  107/23/1  105/24/1 
f  133/25/1  135/26/1  109/27/1  107/28/1 
f  137/29/1  139/30/1  113/31/1  111/32/1 
f  139/33/1  141/34/1  115/35/1  113/36/1 
f  141/37/1  143/38/1  117/39/1  115/40/1 
f  144/21/1  145/22/1  123/23/1  121/24/1 
g mesh_[02]_[00]
f  146/41/1  147/42/1  148/43/1  149/44/1 
f  147/41/1  150/42/1  151/43/1  148/44/1 
f  150/41/1  152/42/1  153/43/1  151/44/1 
f  152/41/1  154/42/1  155/43/1  153/44/1 
f  154/41/1  156/42/1  157/43/1  155/44/1 
f  156/41/1  158/42/1  159/43/1  157/44/1 
f  158/41/1  160/42/1  161/43/1  159/44/1 
f  160/41/1  162/42/1  163/43/1  161/44/1 
f  162/41/1  164/42/1  165/43/1  163/44/1 
f  164/41/1  166/42/1  167/43/1  165/44/1 
f  166/41/1  168/42/1  169/43/1  167/44/1 
f  168/41/1  170/42/1  171/43/1  169/44/1 
f  172/41/1  173/42/1  147/43/1  146/44/1 
f  173/41/1  174/42/1  150/43/1  147/44/1 
f  174/41/1  175/42/1  152/43/1  150/44/1 
f  175/41/1  176/42/1  154/43/1  152/44/1 
f  176/41/1  177/42/1  156/43/1  154/44/1 
f  177/41/1  178/42/1  158/43/1  156/44/1 
f  178/41/1  179/42/1  160/43/1  158/44/1 
f  179/41/1  180/42/1  162/43/1  160/44/1 
f  180/41/1  181/42/1  164/43/1  162/44/1 
f  181/41/1  182/42/1  166/43/1  164/44/1 
f  182/41/1  183/42/1  168/43/1  166/44/1 
f  183/41/1  184/42/1  170/43/1  168/44/1 
f  185/41/1  186/42/1  173/43/1  172/44/1 
f  186/41/1  187/42/1  174/43/1  173/44/1 
f  187/41/1  188/42/1  175/43/1  174/44/1 
f  188/41/1  189/42/1  176/43/1  175/44/1 
f  189/41/1  190/42/1  177/43/1  176/44/1 
f  190/41/1  191/42/1  178/43/1  177/44/1 
f  191/41/1  192/42/1  179/43/1  178/44/1 
f  192/41/1  193/42/1  180/43/1  179/44/1 
f  193/41/1  194/42/1  181/43/1  180/44/1 
f  194/41/1  195/42/1  182/43/1  181/44/1 
f  195/41/1  196/42/1  183/43/1  182/44/1 
f  196/41/1  197/42/1  184/43/1  183/44/1 
f  4/45/1  3/46/1  186/47/1  185/48/1 
f  3/45/1  6/46/1  187/47/1  186/48/1 
f  6/45/1  8/46/1  188/47/1  187/48/1 
f  8/45/1  10/46/1  189/47/1  188/48/1 
f  10/45/1  12/46/1  190/47/1  189/48/1 
f  12/45/1  14/46/1  191/47/1  190/48/1 
f  14/45/1  16/46/1  192/47/1  191/48/1 
f  16/45/1  18/46/1  193/47/1  192/48/1 
f  18/45/1  20/46/1  194/47/1  193/48/1 
f  20/45/1  22/46/1  195/47/1  194/48/1 
f  22/45/1  24/46/1  196/47/1  195/48/1 
f  24/45/1  26/46/1  197/47/1  196/48/1 
f  198/49/1  199/50/1  132/51/1  131/52/1 
f  199/49/1  200/50/1  133/51/1  132/52/1 
f  200/49/1  144/50/1  134/51/1  133/52/1 
f  144/49/1  201/50/1  135/51/1  134/52/1 
f  201/49/1  145/50/1  136/51/1  135/52/1 
f  145/49/1  202/50/1  137/51/1  136/52/1 
f  202/49/1  203/50/1  138/51/1  137/52/1 
f  203/49/1  204/50/1  139/51/1  138/52/1 
f  204/49/1  205/50/1  140/51/1  139/52/1 
f  205/49/1  206/50/1  141/51/1  140/52/1 
f  206/49/1  207/50/1  142/51/1  141/52/1 
f  207/49/1  208/50/1  143/51/1  142/52/1 
f  209/41/1  210/42/1  199/43/1  198/44/1 
f  210/41/1  211/42/1  200/43/1  199/44/1 
f  211/41/1  212/42/1  144/43/1  200/44/1 
f  212/41/1  213/42/1  201/43/1  144/44/1 
f  213/41/1  214/42/1  145/43/1  201/44/1 
f  214/41/1  215/42/1  202/43/1  145/44/1 
f  215/41/1  216/42/1  203/43/1  202/44/1 
f  216/41/1  217/42/1  204/43/1  203/44/1 
f  217/41/1  218/42/1  205/43/1  204/44/1 
f  218/41/1  219/42/1  206/43/1  205/44/1 
f  219/41/1  220/42/1  207/43/1  206/44/1 
f  220/41/1  221/42/1  208/43/1  207/44/1 
f  222/41/1  223/42/1  210/43/1  209/44/1 
f  223/41/1  224/42/1  211/43/1  210/44/1 
f  224/41/1  225/42/1  212/43/1  211/44/1 
f  225/41/1  226/42/1  213/43/1  212/44/1 
f  226/41/1  227/42/1  214/43/1  213/44/1 
f  227/41/1  228/42/1  215/43/1  214/44/1 
f  228/41/1  229/42/1  216/43/1  215/44/1 
f  229/41/1  230/42/1  217/43/1  216/44/1 
f  230/41/1  231/42/1  218/43/1  217/44/1 
f  231/41/1  232/42/1  219/43/1  218/44/1 
f  232/41/1  233/42/1  220/43/1  219/44/1 
f  233/41/1  234/42/1  221/43/1  220/44/1 
f  235/41/1  236/42/1  223/43/1  222/44/1 
f  236/41/1  237/42/1  224/43/1  223/44/1 
f  237/41/1  238/42/1  225/43/1  224/44/1 
f  238/41/1  239/42/1  226/43/1  225/44/1 
f  239/41/1  240/42/1  227/43/1  226/44/1 
f  240/41/1  241/42/1  228/43/1  227/44/1 
f  241/41/1  242/42/1  229/43/1  228/44/1 
f  242/41/1  243/42/1  230/43/1  229/44/1 
f  243/41/1  244/42/1  231/43/1  230/44/1 
f  244/41/1  245/42/1  232/43/1  231/44/1 
f  245/41/1  246/42/1  233/43/1  232/44/1 
f  246/41/1  247/42/1  234/43/1  233/44/1 
