# Wavefront OBJ file automatically generated by Tiled2Unity

# Vertices (Count = 228)
v -1472 -768 0
v -1536 -768 0
v -1536 -704 0
v -1472 -704 0
v -1600 -768 0
v -1600 -704 0
v -1664 -768 0
v -1664 -704 0
v -1728 -768 0
v -1728 -704 0
v -1792 -768 0
v -1792 -704 0
v -1856 -768 0
v -1856 -704 0
v -1920 -768 0
v -1920 -704 0
v -1984 -768 0
v -1984 -704 0
v -2048 -768 0
v -2048 -704 0
v -2112 -768 0
v -2112 -704 0
v -2176 -768 0
v -2176 -704 0
v -1472 -832 0
v -1536 -832 0
v -1600 -832 0
v -1664 -832 0
v -1728 -832 0
v -1792 -832 0
v -1856 -832 0
v -1920 -832 0
v -1984 -832 0
v -2048 -832 0
v -2112 -832 0
v -2176 -832 0
v -1472 -896 0
v -1536 -896 0
v -1600 -896 0
v -1664 -896 0
v -1728 -896 0
v -1792 -896 0
v -1856 -896 0
v -1920 -896 0
v -1984 -896 0
v -2048 -896 0
v -2112 -896 0
v -2176 -896 0
v -1472 -960 0
v -1536 -960 0
v -1600 -960 0
v -1664 -960 0
v -1728 -960 0
v -1792 -960 0
v -1856 -960 0
v -1920 -960 0
v -1984 -960 0
v -2048 -960 0
v -2112 -960 0
v -2176 -960 0
v -1472 -1024 0
v -1536 -1024 0
v -1600 -1024 0
v -1664 -1024 0
v -1728 -1024 0
v -1792 -1024 0
v -1856 -1024 0
v -1920 -1024 0
v -1984 -1024 0
v -2048 -1024 0
v -2112 -1024 0
v -2176 -1024 0
v -1472 -1088 0
v -1536 -1088 0
v -1600 -1088 0
v -1664 -1088 0
v -1728 -1088 0
v -1792 -1088 0
v -1856 -1088 0
v -1920 -1088 0
v -1984 -1088 0
v -2048 -1088 0
v -2112 -1088 0
v -2176 -1088 0
v -1472 -1152 0
v -1536 -1152 0
v -1600 -1152 0
v -1664 -1152 0
v -1728 -1152 0
v -1792 -1152 0
v -1856 -1152 0
v -1920 -1152 0
v -1984 -1152 0
v -2048 -1152 0
v -2112 -1152 0
v -2176 -1152 0
v -1472 -1216 0
v -1536 -1216 0
v -1600 -1216 0
v -1664 -1216 0
v -1728 -1216 0
v -1792 -1216 0
v -1856 -1216 0
v -1920 -1216 0
v -1984 -1216 0
v -2048 -1216 0
v -2112 -1216 0
v -2176 -1216 0
v -1472 -1280 0
v -1536 -1280 0
v -1600 -1280 0
v -1664 -1280 0
v -1728 -1280 0
v -1792 -1280 0
v -1856 -1280 0
v -1920 -1280 0
v -1984 -1280 0
v -2048 -1280 0
v -2112 -1280 0
v -2176 -1280 0
v -1472 -1344 0
v -1536 -1344 0
v -1600 -1344 0
v -1664 -1344 0
v -1728 -1344 0
v -1792 -1344 0
v -1856 -1344 0
v -1920 -1344 0
v -1984 -1344 0
v -2048 -1344 0
v -2112 -1344 0
v -2176 -1344 0
v -1472 -1408 0
v -1536 -1408 0
v -1600 -1408 0
v -1664 -1408 0
v -1728 -1408 0
v -1792 -1408 0
v -1856 -1408 0
v -1920 -1408 0
v -1984 -1408 0
v -2048 -1408 0
v -2112 -1408 0
v -2176 -1408 0
v -1472 -1472 0
v -1536 -1472 0
v -1600 -1472 0
v -1664 -1472 0
v -1728 -1472 0
v -1792 -1472 0
v -1856 -1472 0
v -1920 -1472 0
v -1984 -1472 0
v -2048 -1472 0
v -2112 -1472 0
v -2176 -1472 0
v -1472 -1536 0
v -1536 -1536 0
v -1600 -1536 0
v -1664 -1536 0
v -1728 -1536 0
v -1792 -1536 0
v -1856 -1536 0
v -1920 -1536 0
v -1984 -1536 0
v -2048 -1536 0
v -2112 -1536 0
v -2176 -1536 0
v -1472 -1600 0
v -1536 -1600 0
v -1600 -1600 0
v -1664 -1600 0
v -1728 -1600 0
v -1792 -1600 0
v -1856 -1600 0
v -1920 -1600 0
v -1984 -1600 0
v -2048 -1600 0
v -2112 -1600 0
v -2176 -1600 0
v -1472 -512 0
v -1536 -512 0
v -1536 -448 0
v -1472 -448 0
v -1600 -512 0
v -1600 -448 0
v -1664 -512 0
v -1664 -448 0
v -1728 -512 0
v -1728 -448 0
v -1792 -512 0
v -1792 -448 0
v -1856 -512 0
v -1856 -448 0
v -1920 -512 0
v -1920 -448 0
v -1984 -512 0
v -1984 -448 0
v -2048 -512 0
v -2048 -448 0
v -2112 -512 0
v -2112 -448 0
v -2176 -512 0
v -2176 -448 0
v -1472 -576 0
v -1536 -576 0
v -1600 -576 0
v -1664 -576 0
v -1728 -576 0
v -1792 -576 0
v -1856 -576 0
v -1920 -576 0
v -1984 -576 0
v -2048 -576 0
v -2112 -576 0
v -2176 -576 0
v -1472 -640 0
v -1536 -640 0
v -1600 -640 0
v -1664 -640 0
v -1728 -640 0
v -1792 -640 0
v -1856 -640 0
v -1920 -640 0
v -1984 -640 0
v -2048 -640 0
v -2112 -640 0
v -2176 -640 0

# Texture Coorindates (Count = 72)
vt 0.4376221 0.8126221
vt 0.4998779 0.8126221
vt 0.4998779 0.8748779
vt 0.4376221 0.8748779
vt 0.0001220703 0.6876221
vt 0.06237793 0.6876221
vt 0.06237793 0.7498779
vt 0.0001220703 0.7498779
vt 0.06262207 0.6876221
vt 0.1248779 0.6876221
vt 0.1248779 0.7498779
vt 0.06262207 0.7498779
vt 0.3751221 0.4376221
vt 0.4373779 0.4376221
vt 0.4373779 0.4998779
vt 0.3751221 0.4998779
vt 0.1251221 0.6876221
vt 0.1873779 0.6876221
vt 0.1873779 0.7498779
vt 0.1251221 0.7498779
vt 0.6251221 0.6876221
vt 0.6873779 0.6876221
vt 0.6873779 0.7498779
vt 0.6251221 0.7498779
vt 0.4376221 0.6876221
vt 0.4998779 0.6876221
vt 0.4998779 0.7498779
vt 0.4376221 0.7498779
vt 0.3751221 0.6876221
vt 0.4373779 0.6876221
vt 0.4373779 0.7498779
vt 0.3751221 0.7498779
vt 0.6251221 0.6251221
vt 0.6873779 0.6251221
vt 0.6873779 0.6873779
vt 0.6251221 0.6873779
vt 0.0001220703 0.7501221
vt 0.06237793 0.7501221
vt 0.06237793 0.8123779
vt 0.0001220703 0.8123779
vt 0.1251221 0.7501221
vt 0.1873779 0.7501221
vt 0.1873779 0.8123779
vt 0.1251221 0.8123779
vt 0.9376221 0.7501221
vt 0.9998779 0.7501221
vt 0.9998779 0.8123779
vt 0.9376221 0.8123779
vt 0.6251221 0.7501221
vt 0.6873779 0.7501221
vt 0.6873779 0.8123779
vt 0.6251221 0.8123779
vt 0.8751221 0.7501221
vt 0.9373779 0.7501221
vt 0.9373779 0.8123779
vt 0.8751221 0.8123779
vt 0.6876221 0.7501221
vt 0.7498779 0.7501221
vt 0.7498779 0.8123779
vt 0.6876221 0.8123779
vt 0.3751221 0.7501221
vt 0.4373779 0.7501221
vt 0.4373779 0.8123779
vt 0.3751221 0.8123779
vt 0.06262207 0.7501221
vt 0.1248779 0.7501221
vt 0.1248779 0.8123779
vt 0.06262207 0.8123779
vt 0.3126221 0.7501221
vt 0.3748779 0.7501221
vt 0.3748779 0.8123779
vt 0.3126221 0.8123779

# Normal
vn 0 0 -1

# Groups (Count = 3)
g mesh_[00]_[00]
f  1/1/1  2/2/1  3/3/1  4/4/1 
f  2/1/1  5/2/1  6/3/1  3/4/1 
f  5/1/1  7/2/1  8/3/1  6/4/1 
f  7/1/1  9/2/1  10/3/1  8/4/1 
f  9/1/1  11/2/1  12/3/1  10/4/1 
f  11/1/1  13/2/1  14/3/1  12/4/1 
f  13/1/1  15/2/1  16/3/1  14/4/1 
f  15/1/1  17/2/1  18/3/1  16/4/1 
f  17/1/1  19/2/1  20/3/1  18/4/1 
f  19/1/1  21/2/1  22/3/1  20/4/1 
f  21/1/1  23/2/1  24/3/1  22/4/1 
f  25/1/1  26/2/1  2/3/1  1/4/1 
f  26/1/1  27/2/1  5/3/1  2/4/1 
f  27/1/1  28/2/1  7/3/1  5/4/1 
f  28/1/1  29/2/1  9/3/1  7/4/1 
f  29/1/1  30/2/1  11/3/1  9/4/1 
f  30/1/1  31/2/1  13/3/1  11/4/1 
f  31/1/1  32/2/1  15/3/1  13/4/1 
f  32/1/1  33/2/1  17/3/1  15/4/1 
f  33/1/1  34/2/1  19/3/1  17/4/1 
f  34/1/1  35/2/1  21/3/1  19/4/1 
f  35/1/1  36/2/1  23/3/1  21/4/1 
f  37/1/1  38/2/1  26/3/1  25/4/1 
f  38/1/1  39/2/1  27/3/1  26/4/1 
f  39/1/1  40/2/1  28/3/1  27/4/1 
f  40/1/1  41/2/1  29/3/1  28/4/1 
f  41/1/1  42/2/1  30/3/1  29/4/1 
f  42/1/1  43/2/1  31/3/1  30/4/1 
f  43/1/1  44/2/1  32/3/1  31/4/1 
f  44/1/1  45/2/1  33/3/1  32/4/1 
f  45/1/1  46/2/1  34/3/1  33/4/1 
f  46/1/1  47/2/1  35/3/1  34/4/1 
f  47/1/1  48/2/1  36/3/1  35/4/1 
f  49/1/1  50/2/1  38/3/1  37/4/1 
f  50/1/1  51/2/1  39/3/1  38/4/1 
f  51/1/1  52/2/1  40/3/1  39/4/1 
f  52/1/1  53/2/1  41/3/1  40/4/1 
f  53/1/1  54/2/1  42/3/1  41/4/1 
f  54/1/1  55/2/1  43/3/1  42/4/1 
f  55/1/1  56/2/1  44/3/1  43/4/1 
f  56/1/1  57/2/1  45/3/1  44/4/1 
f  57/1/1  58/2/1  46/3/1  45/4/1 
f  58/1/1  59/2/1  47/3/1  46/4/1 
f  59/1/1  60/2/1  48/3/1  47/4/1 
f  61/1/1  62/2/1  50/3/1  49/4/1 
f  62/1/1  63/2/1  51/3/1  50/4/1 
f  63/1/1  64/2/1  52/3/1  51/4/1 
f  64/1/1  65/2/1  53/3/1  52/4/1 
f  65/1/1  66/2/1  54/3/1  53/4/1 
f  66/1/1  67/2/1  55/3/1  54/4/1 
f  67/1/1  68/2/1  56/3/1  55/4/1 
f  68/1/1  69/2/1  57/3/1  56/4/1 
f  69/1/1  70/2/1  58/3/1  57/4/1 
f  70/1/1  71/2/1  59/3/1  58/4/1 
f  71/1/1  72/2/1  60/3/1  59/4/1 
f  73/1/1  74/2/1  62/3/1  61/4/1 
f  74/1/1  75/2/1  63/3/1  62/4/1 
f  75/1/1  76/2/1  64/3/1  63/4/1 
f  76/1/1  77/2/1  65/3/1  64/4/1 
f  77/1/1  78/2/1  66/3/1  65/4/1 
f  78/1/1  79/2/1  67/3/1  66/4/1 
f  79/1/1  80/2/1  68/3/1  67/4/1 
f  80/1/1  81/2/1  69/3/1  68/4/1 
f  81/1/1  82/2/1  70/3/1  69/4/1 
f  82/1/1  83/2/1  71/3/1  70/4/1 
f  83/1/1  84/2/1  72/3/1  71/4/1 
f  85/1/1  86/2/1  74/3/1  73/4/1 
f  86/1/1  87/2/1  75/3/1  74/4/1 
f  87/1/1  88/2/1  76/3/1  75/4/1 
f  88/1/1  89/2/1  77/3/1  76/4/1 
f  89/1/1  90/2/1  78/3/1  77/4/1 
f  90/1/1  91/2/1  79/3/1  78/4/1 
f  91/1/1  92/2/1  80/3/1  79/4/1 
f  92/1/1  93/2/1  81/3/1  80/4/1 
f  93/1/1  94/2/1  82/3/1  81/4/1 
f  94/1/1  95/2/1  83/3/1  82/4/1 
f  95/1/1  96/2/1  84/3/1  83/4/1 
f  97/1/1  98/2/1  86/3/1  85/4/1 
f  98/1/1  99/2/1  87/3/1  86/4/1 
f  99/1/1  100/2/1  88/3/1  87/4/1 
f  100/1/1  101/2/1  89/3/1  88/4/1 
f  101/1/1  102/2/1  90/3/1  89/4/1 
f  102/1/1  103/2/1  91/3/1  90/4/1 
f  103/1/1  104/2/1  92/3/1  91/4/1 
f  104/1/1  105/2/1  93/3/1  92/4/1 
f  105/1/1  106/2/1  94/3/1  93/4/1 
f  106/1/1  107/2/1  95/3/1  94/4/1 
f  107/1/1  108/2/1  96/3/1  95/4/1 
f  109/1/1  110/2/1  98/3/1  97/4/1 
f  110/1/1  111/2/1  99/3/1  98/4/1 
f  111/1/1  112/2/1  100/3/1  99/4/1 
f  112/1/1  113/2/1  101/3/1  100/4/1 
f  113/1/1  114/2/1  102/3/1  101/4/1 
f  114/1/1  115/2/1  103/3/1  102/4/1 
f  115/1/1  116/2/1  104/3/1  103/4/1 
f  116/1/1  117/2/1  105/3/1  104/4/1 
f  117/1/1  118/2/1  106/3/1  105/4/1 
f  118/1/1  119/2/1  107/3/1  106/4/1 
f  119/1/1  120/2/1  108/3/1  107/4/1 
f  121/1/1  122/2/1  110/3/1  109/4/1 
f  122/1/1  123/2/1  111/3/1  110/4/1 
f  123/1/1  124/2/1  112/3/1  111/4/1 
f  124/1/1  125/2/1  113/3/1  112/4/1 
f  125/1/1  126/2/1  114/3/1  113/4/1 
f  126/1/1  127/2/1  115/3/1  114/4/1 
f  127/1/1  128/2/1  116/3/1  115/4/1 
f  128/1/1  129/2/1  117/3/1  116/4/1 
f  129/1/1  130/2/1  118/3/1  117/4/1 
f  130/1/1  131/2/1  119/3/1  118/4/1 
f  131/1/1  132/2/1  120/3/1  119/4/1 
f  133/1/1  134/2/1  122/3/1  121/4/1 
f  134/1/1  135/2/1  123/3/1  122/4/1 
f  135/1/1  136/2/1  124/3/1  123/4/1 
f  136/1/1  137/2/1  125/3/1  124/4/1 
f  137/1/1  138/2/1  126/3/1  125/4/1 
f  138/1/1  139/2/1  127/3/1  126/4/1 
f  139/1/1  140/2/1  128/3/1  127/4/1 
f  140/1/1  141/2/1  129/3/1  128/4/1 
f  141/1/1  142/2/1  130/3/1  129/4/1 
f  142/1/1  143/2/1  131/3/1  130/4/1 
f  143/1/1  144/2/1  132/3/1  131/4/1 
f  145/1/1  146/2/1  134/3/1  133/4/1 
f  146/1/1  147/2/1  135/3/1  134/4/1 
f  147/1/1  148/2/1  136/3/1  135/4/1 
f  148/1/1  149/2/1  137/3/1  136/4/1 
f  149/1/1  150/2/1  138/3/1  137/4/1 
f  150/1/1  151/2/1  139/3/1  138/4/1 
f  151/1/1  152/2/1  140/3/1  139/4/1 
f  152/1/1  153/2/1  141/3/1  140/4/1 
f  153/1/1  154/2/1  142/3/1  141/4/1 
f  154/1/1  155/2/1  143/3/1  142/4/1 
f  155/1/1  156/2/1  144/3/1  143/4/1 
f  157/1/1  158/2/1  146/3/1  145/4/1 
f  158/1/1  159/2/1  147/3/1  146/4/1 
f  159/1/1  160/2/1  148/3/1  147/4/1 
f  160/1/1  161/2/1  149/3/1  148/4/1 
f  161/1/1  162/2/1  150/3/1  149/4/1 
f  162/1/1  163/2/1  151/3/1  150/4/1 
f  163/1/1  164/2/1  152/3/1  151/4/1 
f  164/1/1  165/2/1  153/3/1  152/4/1 
f  165/1/1  166/2/1  154/3/1  153/4/1 
f  166/1/1  167/2/1  155/3/1  154/4/1 
f  167/1/1  168/2/1  156/3/1  155/4/1 
f  169/1/1  170/2/1  158/3/1  157/4/1 
f  170/1/1  171/2/1  159/3/1  158/4/1 
f  171/1/1  172/2/1  160/3/1  159/4/1 
f  172/1/1  173/2/1  161/3/1  160/4/1 
f  173/1/1  174/2/1  162/3/1  161/4/1 
f  174/1/1  175/2/1  163/3/1  162/4/1 
f  175/1/1  176/2/1  164/3/1  163/4/1 
f  176/1/1  177/2/1  165/3/1  164/4/1 
f  177/1/1  178/2/1  166/3/1  165/4/1 
f  178/1/1  179/2/1  167/3/1  166/4/1 
f  179/1/1  180/2/1  168/3/1  167/4/1 
g mesh_[01]_[01]
f  25/5/1  27/6/1  6/7/1  4/8/1 
f  27/9/1  29/10/1  10/11/1  6/12/1 
f  34/13/1  36/14/1  24/15/1  20/16/1 
f  41/17/1  43/18/1  13/19/1  9/20/1 
f  54/5/1  56/6/1  32/7/1  30/8/1 
f  55/5/1  57/6/1  33/7/1  31/8/1 
f  68/21/1  70/22/1  46/23/1  44/24/1 
f  78/25/1  80/26/1  56/27/1  54/28/1 
f  89/29/1  91/30/1  67/31/1  65/32/1 
f  91/25/1  93/26/1  69/27/1  67/28/1 
f  92/33/1  94/34/1  70/35/1  68/36/1 
f  99/29/1  101/30/1  77/31/1  75/32/1 
f  117/25/1  119/26/1  95/27/1  93/28/1 
f  121/29/1  123/30/1  99/31/1  97/32/1 
g mesh_[02]_[00]
f  181/37/1  182/38/1  183/39/1  184/40/1 
f  182/37/1  185/38/1  186/39/1  183/40/1 
f  185/37/1  187/38/1  188/39/1  186/40/1 
f  187/37/1  189/38/1  190/39/1  188/40/1 
f  189/37/1  191/38/1  192/39/1  190/40/1 
f  191/37/1  193/38/1  194/39/1  192/40/1 
f  193/37/1  195/38/1  196/39/1  194/40/1 
f  195/37/1  197/38/1  198/39/1  196/40/1 
f  197/37/1  199/38/1  200/39/1  198/40/1 
f  199/37/1  201/38/1  202/39/1  200/40/1 
f  201/37/1  203/38/1  204/39/1  202/40/1 
f  205/37/1  206/38/1  182/39/1  181/40/1 
f  206/37/1  207/38/1  185/39/1  182/40/1 
f  207/37/1  208/38/1  187/39/1  185/40/1 
f  208/37/1  209/38/1  189/39/1  187/40/1 
f  209/37/1  210/38/1  191/39/1  189/40/1 
f  210/37/1  211/38/1  193/39/1  191/40/1 
f  211/37/1  212/38/1  195/39/1  193/40/1 
f  212/37/1  213/38/1  197/39/1  195/40/1 
f  213/37/1  214/38/1  199/39/1  197/40/1 
f  214/37/1  215/38/1  201/39/1  199/40/1 
f  215/37/1  216/38/1  203/39/1  201/40/1 
f  217/37/1  218/38/1  206/39/1  205/40/1 
f  218/37/1  219/38/1  207/39/1  206/40/1 
f  219/37/1  220/38/1  208/39/1  207/40/1 
f  220/37/1  221/38/1  209/39/1  208/40/1 
f  221/37/1  222/38/1  210/39/1  209/40/1 
f  222/37/1  223/38/1  211/39/1  210/40/1 
f  223/37/1  224/38/1  212/39/1  211/40/1 
f  224/37/1  225/38/1  213/39/1  212/40/1 
f  225/37/1  226/38/1  214/39/1  213/40/1 
f  226/37/1  227/38/1  215/39/1  214/40/1 
f  227/37/1  228/38/1  216/39/1  215/40/1 
f  4/41/1  3/42/1  218/43/1  217/44/1 
f  3/41/1  6/42/1  219/43/1  218/44/1 
f  6/41/1  8/42/1  220/43/1  219/44/1 
f  8/45/1  10/46/1  221/47/1  220/48/1 
f  10/37/1  12/38/1  222/39/1  221/40/1 
f  12/37/1  14/38/1  223/39/1  222/40/1 
f  14/37/1  16/38/1  224/39/1  223/40/1 
f  16/37/1  18/38/1  225/39/1  224/40/1 
f  18/37/1  20/38/1  226/39/1  225/40/1 
f  20/37/1  22/38/1  227/39/1  226/40/1 
f  22/37/1  24/38/1  228/39/1  227/40/1 
f  7/49/1  9/50/1  10/51/1  8/52/1 
f  9/45/1  11/46/1  12/47/1  10/48/1 
f  11/37/1  13/38/1  14/39/1  12/40/1 
f  13/37/1  15/38/1  16/39/1  14/40/1 
f  15/37/1  17/38/1  18/39/1  16/40/1 
f  17/37/1  19/38/1  20/39/1  18/40/1 
f  19/53/1  21/54/1  22/55/1  20/56/1 
f  21/57/1  23/58/1  24/59/1  22/60/1 
f  29/49/1  30/50/1  11/51/1  9/52/1 
f  30/41/1  31/42/1  13/43/1  11/44/1 
f  31/45/1  32/46/1  15/47/1  13/48/1 
f  32/37/1  33/38/1  17/39/1  15/40/1 
f  33/53/1  34/54/1  19/55/1  17/56/1 
f  34/57/1  35/58/1  21/59/1  19/60/1 
f  43/49/1  44/50/1  32/51/1  31/52/1 
f  44/41/1  45/42/1  33/43/1  32/44/1 
f  45/57/1  46/58/1  34/59/1  33/60/1 
f  88/61/1  89/62/1  77/63/1  76/64/1 
f  89/65/1  90/66/1  78/67/1  77/68/1 
f  90/65/1  91/66/1  79/67/1  78/68/1 
f  91/65/1  92/66/1  80/67/1  79/68/1 
f  92/69/1  93/70/1  81/71/1  80/72/1 
f  99/61/1  100/62/1  88/63/1  87/64/1 
f  100/37/1  101/38/1  89/39/1  88/40/1 
f  101/37/1  102/38/1  90/39/1  89/40/1 
f  102/37/1  103/38/1  91/39/1  90/40/1 
f  103/37/1  104/38/1  92/39/1  91/40/1 
f  104/37/1  105/38/1  93/39/1  92/40/1 
f  105/69/1  106/70/1  94/71/1  93/72/1 
f  110/61/1  111/62/1  99/63/1  98/64/1 
f  111/37/1  112/38/1  100/39/1  99/40/1 
f  112/37/1  113/38/1  101/39/1  100/40/1 
f  113/37/1  114/38/1  102/39/1  101/40/1 
f  114/37/1  115/38/1  103/39/1  102/40/1 
f  115/37/1  116/38/1  104/39/1  103/40/1 
f  116/37/1  117/38/1  105/39/1  104/40/1 
f  117/37/1  118/38/1  106/39/1  105/40/1 
f  118/69/1  119/70/1  107/71/1  106/72/1 
f  121/61/1  122/62/1  110/63/1  109/64/1 
f  122/37/1  123/38/1  111/39/1  110/40/1 
f  123/37/1  124/38/1  112/39/1  111/40/1 
f  124/37/1  125/38/1  113/39/1  112/40/1 
f  125/37/1  126/38/1  114/39/1  113/40/1 
f  126/37/1  127/38/1  115/39/1  114/40/1 
f  127/37/1  128/38/1  116/39/1  115/40/1 
f  128/37/1  129/38/1  117/39/1  116/40/1 
f  129/37/1  130/38/1  118/39/1  117/40/1 
f  130/37/1  131/38/1  119/39/1  118/40/1 
f  131/69/1  132/70/1  120/71/1  119/72/1 
f  133/37/1  134/38/1  122/39/1  121/40/1 
f  134/37/1  135/38/1  123/39/1  122/40/1 
f  135/37/1  136/38/1  124/39/1  123/40/1 
f  136/37/1  137/38/1  125/39/1  124/40/1 
f  137/37/1  138/38/1  126/39/1  125/40/1 
f  138/37/1  139/38/1  127/39/1  126/40/1 
f  139/37/1  140/38/1  128/39/1  127/40/1 
f  140/37/1  141/38/1  129/39/1  128/40/1 
f  141/37/1  142/38/1  130/39/1  129/40/1 
f  142/37/1  143/38/1  131/39/1  130/40/1 
f  143/37/1  144/38/1  132/39/1  131/40/1 
f  145/37/1  146/38/1  134/39/1  133/40/1 
f  146/37/1  147/38/1  135/39/1  134/40/1 
f  147/37/1  148/38/1  136/39/1  135/40/1 
f  148/37/1  149/38/1  137/39/1  136/40/1 
f  149/37/1  150/38/1  138/39/1  137/40/1 
f  150/37/1  151/38/1  139/39/1  138/40/1 
f  151/37/1  152/38/1  140/39/1  139/40/1 
f  152/37/1  153/38/1  141/39/1  140/40/1 
f  153/37/1  154/38/1  142/39/1  141/40/1 
f  154/37/1  155/38/1  143/39/1  142/40/1 
f  155/37/1  156/38/1  144/39/1  143/40/1 
f  157/37/1  158/38/1  146/39/1  145/40/1 
f  158/37/1  159/38/1  147/39/1  146/40/1 
f  159/37/1  160/38/1  148/39/1  147/40/1 
f  160/37/1  161/38/1  149/39/1  148/40/1 
f  161/37/1  162/38/1  150/39/1  149/40/1 
f  162/37/1  163/38/1  151/39/1  150/40/1 
f  163/37/1  164/38/1  152/39/1  151/40/1 
f  164/37/1  165/38/1  153/39/1  152/40/1 
f  165/37/1  166/38/1  154/39/1  153/40/1 
f  166/37/1  167/38/1  155/39/1  154/40/1 
f  167/37/1  168/38/1  156/39/1  155/40/1 
f  169/37/1  170/38/1  158/39/1  157/40/1 
f  170/37/1  171/38/1  159/39/1  158/40/1 
f  171/37/1  172/38/1  160/39/1  159/40/1 
f  172/37/1  173/38/1  161/39/1  160/40/1 
f  173/37/1  174/38/1  162/39/1  161/40/1 
f  174/37/1  175/38/1  163/39/1  162/40/1 
f  175/37/1  176/38/1  164/39/1  163/40/1 
f  176/37/1  177/38/1  165/39/1  164/40/1 
f  177/37/1  178/38/1  166/39/1  165/40/1 
f  178/37/1  179/38/1  167/39/1  166/40/1 
f  179/37/1  180/38/1  168/39/1  167/40/1 
