# Wavefront OBJ file automatically generated by Tiled2Unity

# Vertices (Count = 361)
v -1152 -768 0
v -1216 -768 0
v -1216 -704 0
v -1152 -704 0
v -1280 -768 0
v -1280 -704 0
v -1344 -768 0
v -1344 -704 0
v -1408 -768 0
v -1408 -704 0
v -1472 -768 0
v -1472 -704 0
v -1536 -768 0
v -1536 -704 0
v -1600 -768 0
v -1600 -704 0
v -1664 -768 0
v -1664 -704 0
v -1728 -768 0
v -1728 -704 0
v -1152 -832 0
v -1216 -832 0
v -1280 -832 0
v -1344 -832 0
v -1408 -832 0
v -1472 -832 0
v -1536 -832 0
v -1600 -832 0
v -1664 -832 0
v -1728 -832 0
v -1152 -896 0
v -1216 -896 0
v -1280 -896 0
v -1344 -896 0
v -1408 -896 0
v -1472 -896 0
v -1536 -896 0
v -1600 -896 0
v -1664 -896 0
v -1728 -896 0
v -1152 -960 0
v -1216 -960 0
v -1280 -960 0
v -1344 -960 0
v -1408 -960 0
v -1472 -960 0
v -1536 -960 0
v -1600 -960 0
v -1664 -960 0
v -1728 -960 0
v -1152 -1024 0
v -1216 -1024 0
v -1280 -1024 0
v -1344 -1024 0
v -1408 -1024 0
v -1472 -1024 0
v -1536 -1024 0
v -1600 -1024 0
v -1664 -1024 0
v -1728 -1024 0
v -1152 -1088 0
v -1216 -1088 0
v -1280 -1088 0
v -1344 -1088 0
v -1408 -1088 0
v -1472 -1088 0
v -1536 -1088 0
v -1600 -1088 0
v -1664 -1088 0
v -1728 -1088 0
v -1152 -1152 0
v -1216 -1152 0
v -1280 -1152 0
v -1344 -1152 0
v -1408 -1152 0
v -1472 -1152 0
v -1536 -1152 0
v -1600 -1152 0
v -1664 -1152 0
v -1728 -1152 0
v -1152 -1216 0
v -1216 -1216 0
v -1280 -1216 0
v -1344 -1216 0
v -1408 -1216 0
v -1472 -1216 0
v -1536 -1216 0
v -1600 -1216 0
v -1664 -1216 0
v -1728 -1216 0
v -1088 -1280 0
v -1152 -1280 0
v -1088 -1216 0
v -1216 -1280 0
v -1280 -1280 0
v -1344 -1280 0
v -1408 -1280 0
v -1472 -1280 0
v -1536 -1280 0
v -1600 -1280 0
v -1664 -1280 0
v -1728 -1280 0
v -1152 -1344 0
v -1216 -1344 0
v -1280 -1344 0
v -1344 -1344 0
v -1408 -1344 0
v -1472 -1344 0
v -1536 -1344 0
v -1600 -1344 0
v -1664 -1344 0
v -1728 -1344 0
v -1088 -832 0
v -1088 -704 0
v -576 -512 0
v -640 -512 0
v -640 -448 0
v -576 -448 0
v -704 -512 0
v -704 -448 0
v -768 -512 0
v -768 -448 0
v -832 -512 0
v -832 -448 0
v -896 -512 0
v -896 -448 0
v -960 -512 0
v -960 -448 0
v -1024 -512 0
v -1024 -448 0
v -1088 -512 0
v -1088 -448 0
v -1152 -512 0
v -1152 -448 0
v -1216 -512 0
v -1216 -448 0
v -1280 -512 0
v -1280 -448 0
v -1344 -512 0
v -1344 -448 0
v -1408 -512 0
v -1408 -448 0
v -1472 -512 0
v -1472 -448 0
v -1536 -512 0
v -1536 -448 0
v -1600 -512 0
v -1600 -448 0
v -1664 -512 0
v -1664 -448 0
v -1728 -512 0
v -1728 -448 0
v -576 -576 0
v -640 -576 0
v -704 -576 0
v -768 -576 0
v -832 -576 0
v -896 -576 0
v -960 -576 0
v -1024 -576 0
v -1088 -576 0
v -1152 -576 0
v -1216 -576 0
v -1280 -576 0
v -1344 -576 0
v -1408 -576 0
v -1472 -576 0
v -1536 -576 0
v -1600 -576 0
v -1664 -576 0
v -1728 -576 0
v -576 -640 0
v -640 -640 0
v -704 -640 0
v -768 -640 0
v -832 -640 0
v -896 -640 0
v -960 -640 0
v -1024 -640 0
v -1088 -640 0
v -1152 -640 0
v -1216 -640 0
v -1280 -640 0
v -1344 -640 0
v -1408 -640 0
v -1472 -640 0
v -1536 -640 0
v -1600 -640 0
v -1664 -640 0
v -1728 -640 0
v -576 -704 0
v -640 -704 0
v -704 -704 0
v -768 -704 0
v -832 -704 0
v -896 -704 0
v -960 -704 0
v -1024 -704 0
v -576 -768 0
v -640 -768 0
v -704 -768 0
v -768 -768 0
v -832 -768 0
v -896 -768 0
v -960 -768 0
v -1024 -768 0
v -1088 -768 0
v -576 -832 0
v -640 -832 0
v -704 -832 0
v -768 -832 0
v -832 -832 0
v -896 -832 0
v -960 -832 0
v -1024 -832 0
v -576 -896 0
v -640 -896 0
v -704 -896 0
v -768 -896 0
v -832 -896 0
v -896 -896 0
v -960 -896 0
v -1024 -896 0
v -1088 -896 0
v -576 -960 0
v -640 -960 0
v -704 -960 0
v -768 -960 0
v -832 -960 0
v -896 -960 0
v -960 -960 0
v -1024 -960 0
v -1088 -960 0
v -576 -1024 0
v -640 -1024 0
v -704 -1024 0
v -768 -1024 0
v -832 -1024 0
v -896 -1024 0
v -960 -1024 0
v -1024 -1024 0
v -1088 -1024 0
v -576 -1088 0
v -640 -1088 0
v -704 -1088 0
v -768 -1088 0
v -832 -1088 0
v -896 -1088 0
v -960 -1088 0
v -1024 -1088 0
v -1088 -1088 0
v -576 -1152 0
v -640 -1152 0
v -704 -1152 0
v -768 -1152 0
v -832 -1152 0
v -896 -1152 0
v -960 -1152 0
v -1024 -1152 0
v -1088 -1152 0
v -576 -1216 0
v -640 -1216 0
v -704 -1216 0
v -768 -1216 0
v -832 -1216 0
v -896 -1216 0
v -960 -1216 0
v -1024 -1216 0
v -576 -1280 0
v -640 -1280 0
v -704 -1280 0
v -768 -1280 0
v -832 -1280 0
v -896 -1280 0
v -960 -1280 0
v -1024 -1280 0
v -576 -1344 0
v -640 -1344 0
v -704 -1344 0
v -768 -1344 0
v -832 -1344 0
v -896 -1344 0
v -960 -1344 0
v -1024 -1344 0
v -1088 -1344 0
v -576 -1408 0
v -640 -1408 0
v -704 -1408 0
v -768 -1408 0
v -832 -1408 0
v -896 -1408 0
v -960 -1408 0
v -1024 -1408 0
v -1088 -1408 0
v -1152 -1408 0
v -1216 -1408 0
v -1280 -1408 0
v -1344 -1408 0
v -1408 -1408 0
v -1472 -1408 0
v -1536 -1408 0
v -1600 -1408 0
v -1664 -1408 0
v -1728 -1408 0
v -576 -1472 0
v -640 -1472 0
v -704 -1472 0
v -768 -1472 0
v -832 -1472 0
v -896 -1472 0
v -960 -1472 0
v -1024 -1472 0
v -1088 -1472 0
v -1152 -1472 0
v -1216 -1472 0
v -1280 -1472 0
v -1344 -1472 0
v -1408 -1472 0
v -1472 -1472 0
v -1536 -1472 0
v -1600 -1472 0
v -1664 -1472 0
v -1728 -1472 0
v -576 -1536 0
v -640 -1536 0
v -704 -1536 0
v -768 -1536 0
v -832 -1536 0
v -896 -1536 0
v -960 -1536 0
v -1024 -1536 0
v -1088 -1536 0
v -1152 -1536 0
v -1216 -1536 0
v -1280 -1536 0
v -1344 -1536 0
v -1408 -1536 0
v -1472 -1536 0
v -1536 -1536 0
v -1600 -1536 0
v -1664 -1536 0
v -1728 -1536 0
v -576 -1600 0
v -640 -1600 0
v -704 -1600 0
v -768 -1600 0
v -832 -1600 0
v -896 -1600 0
v -960 -1600 0
v -1024 -1600 0
v -1088 -1600 0
v -1152 -1600 0
v -1216 -1600 0
v -1280 -1600 0
v -1344 -1600 0
v -1408 -1600 0
v -1472 -1600 0
v -1536 -1600 0
v -1600 -1600 0
v -1664 -1600 0
v -1728 -1600 0

# Texture Coorindates (Count = 72)
vt 0.4376221 0.8126221
vt 0.4998779 0.8126221
vt 0.4998779 0.8748779
vt 0.4376221 0.8748779
vt 0.1876221 0.6876221
vt 0.2498779 0.6876221
vt 0.2498779 0.7498779
vt 0.1876221 0.7498779
vt 0.0001220703 0.6876221
vt 0.06237793 0.6876221
vt 0.06237793 0.7498779
vt 0.0001220703 0.7498779
vt 0.06262207 0.6876221
vt 0.1248779 0.6876221
vt 0.1248779 0.7498779
vt 0.06262207 0.7498779
vt 0.1251221 0.6876221
vt 0.1873779 0.6876221
vt 0.1873779 0.7498779
vt 0.1251221 0.7498779
vt 0.2501221 0.6876221
vt 0.3123779 0.6876221
vt 0.3123779 0.7498779
vt 0.2501221 0.7498779
vt 0.3126221 0.6876221
vt 0.3748779 0.6876221
vt 0.3748779 0.7498779
vt 0.3126221 0.7498779
vt 0.3751221 0.6876221
vt 0.4373779 0.6876221
vt 0.4373779 0.7498779
vt 0.3751221 0.7498779
vt 0.4376221 0.6876221
vt 0.4998779 0.6876221
vt 0.4998779 0.7498779
vt 0.4376221 0.7498779
vt 0.1876221 0.7501221
vt 0.2498779 0.7501221
vt 0.2498779 0.8123779
vt 0.1876221 0.8123779
vt 0.0001220703 0.7501221
vt 0.06237793 0.7501221
vt 0.06237793 0.8123779
vt 0.0001220703 0.8123779
vt 0.8751221 0.7501221
vt 0.9373779 0.7501221
vt 0.9373779 0.8123779
vt 0.8751221 0.8123779
vt 0.1251221 0.7501221
vt 0.1873779 0.7501221
vt 0.1873779 0.8123779
vt 0.1251221 0.8123779
vt 0.6876221 0.7501221
vt 0.7498779 0.7501221
vt 0.7498779 0.8123779
vt 0.6876221 0.8123779
vt 0.2501221 0.7501221
vt 0.3123779 0.7501221
vt 0.3123779 0.8123779
vt 0.2501221 0.8123779
vt 0.7501221 0.7501221
vt 0.8123779 0.7501221
vt 0.8123779 0.8123779
vt 0.7501221 0.8123779
vt 0.3126221 0.7501221
vt 0.3748779 0.7501221
vt 0.3748779 0.8123779
vt 0.3126221 0.8123779
vt 0.06262207 0.7501221
vt 0.1248779 0.7501221
vt 0.1248779 0.8123779
vt 0.06262207 0.8123779

# Normal
vn 0 0 -1

# Groups (Count = 3)
g mesh_[00]_[00]
f  1/1/1  2/2/1  3/3/1  4/4/1 
f  2/1/1  5/2/1  6/3/1  3/4/1 
f  5/1/1  7/2/1  8/3/1  6/4/1 
f  7/1/1  9/2/1  10/3/1  8/4/1 
f  9/1/1  11/2/1  12/3/1  10/4/1 
f  11/1/1  13/2/1  14/3/1  12/4/1 
f  13/1/1  15/2/1  16/3/1  14/4/1 
f  15/1/1  17/2/1  18/3/1  16/4/1 
f  17/1/1  19/2/1  20/3/1  18/4/1 
f  21/1/1  22/2/1  2/3/1  1/4/1 
f  22/1/1  23/2/1  5/3/1  2/4/1 
f  23/1/1  24/2/1  7/3/1  5/4/1 
f  24/1/1  25/2/1  9/3/1  7/4/1 
f  25/1/1  26/2/1  11/3/1  9/4/1 
f  26/1/1  27/2/1  13/3/1  11/4/1 
f  27/1/1  28/2/1  15/3/1  13/4/1 
f  28/1/1  29/2/1  17/3/1  15/4/1 
f  29/1/1  30/2/1  19/3/1  17/4/1 
f  31/1/1  32/2/1  22/3/1  21/4/1 
f  32/1/1  33/2/1  23/3/1  22/4/1 
f  33/1/1  34/2/1  24/3/1  23/4/1 
f  34/1/1  35/2/1  25/3/1  24/4/1 
f  35/1/1  36/2/1  26/3/1  25/4/1 
f  36/1/1  37/2/1  27/3/1  26/4/1 
f  37/1/1  38/2/1  28/3/1  27/4/1 
f  38/1/1  39/2/1  29/3/1  28/4/1 
f  39/1/1  40/2/1  30/3/1  29/4/1 
f  41/1/1  42/2/1  32/3/1  31/4/1 
f  42/1/1  43/2/1  33/3/1  32/4/1 
f  43/1/1  44/2/1  34/3/1  33/4/1 
f  44/1/1  45/2/1  35/3/1  34/4/1 
f  45/1/1  46/2/1  36/3/1  35/4/1 
f  46/1/1  47/2/1  37/3/1  36/4/1 
f  47/1/1  48/2/1  38/3/1  37/4/1 
f  48/1/1  49/2/1  39/3/1  38/4/1 
f  49/1/1  50/2/1  40/3/1  39/4/1 
f  51/1/1  52/2/1  42/3/1  41/4/1 
f  52/1/1  53/2/1  43/3/1  42/4/1 
f  53/1/1  54/2/1  44/3/1  43/4/1 
f  54/1/1  55/2/1  45/3/1  44/4/1 
f  55/1/1  56/2/1  46/3/1  45/4/1 
f  56/1/1  57/2/1  47/3/1  46/4/1 
f  57/1/1  58/2/1  48/3/1  47/4/1 
f  58/1/1  59/2/1  49/3/1  48/4/1 
f  59/1/1  60/2/1  50/3/1  49/4/1 
f  61/1/1  62/2/1  52/3/1  51/4/1 
f  62/1/1  63/2/1  53/3/1  52/4/1 
f  63/1/1  64/2/1  54/3/1  53/4/1 
f  64/1/1  65/2/1  55/3/1  54/4/1 
f  65/1/1  66/2/1  56/3/1  55/4/1 
f  66/1/1  67/2/1  57/3/1  56/4/1 
f  67/1/1  68/2/1  58/3/1  57/4/1 
f  68/1/1  69/2/1  59/3/1  58/4/1 
f  69/1/1  70/2/1  60/3/1  59/4/1 
f  71/1/1  72/2/1  62/3/1  61/4/1 
f  72/1/1  73/2/1  63/3/1  62/4/1 
f  73/1/1  74/2/1  64/3/1  63/4/1 
f  74/1/1  75/2/1  65/3/1  64/4/1 
f  75/1/1  76/2/1  66/3/1  65/4/1 
f  76/1/1  77/2/1  67/3/1  66/4/1 
f  77/1/1  78/2/1  68/3/1  67/4/1 
f  78/1/1  79/2/1  69/3/1  68/4/1 
f  79/1/1  80/2/1  70/3/1  69/4/1 
f  81/1/1  82/2/1  72/3/1  71/4/1 
f  82/1/1  83/2/1  73/3/1  72/4/1 
f  83/1/1  84/2/1  74/3/1  73/4/1 
f  84/1/1  85/2/1  75/3/1  74/4/1 
f  85/1/1  86/2/1  76/3/1  75/4/1 
f  86/1/1  87/2/1  77/3/1  76/4/1 
f  87/1/1  88/2/1  78/3/1  77/4/1 
f  88/1/1  89/2/1  79/3/1  78/4/1 
f  89/1/1  90/2/1  80/3/1  79/4/1 
f  91/1/1  92/2/1  81/3/1  93/4/1 
f  92/1/1  94/2/1  82/3/1  81/4/1 
f  94/1/1  95/2/1  83/3/1  82/4/1 
f  95/1/1  96/2/1  84/3/1  83/4/1 
f  96/1/1  97/2/1  85/3/1  84/4/1 
f  97/1/1  98/2/1  86/3/1  85/4/1 
f  98/1/1  99/2/1  87/3/1  86/4/1 
f  99/1/1  100/2/1  88/3/1  87/4/1 
f  100/1/1  101/2/1  89/3/1  88/4/1 
f  101/1/1  102/2/1  90/3/1  89/4/1 
f  103/1/1  104/2/1  94/3/1  92/4/1 
f  104/1/1  105/2/1  95/3/1  94/4/1 
f  105/1/1  106/2/1  96/3/1  95/4/1 
f  106/1/1  107/2/1  97/3/1  96/4/1 
f  107/1/1  108/2/1  98/3/1  97/4/1 
f  108/1/1  109/2/1  99/3/1  98/4/1 
f  109/1/1  110/2/1  100/3/1  99/4/1 
f  110/1/1  111/2/1  101/3/1  100/4/1 
f  111/1/1  112/2/1  102/3/1  101/4/1 
g mesh_[01]_[01]
f  113/5/1  22/6/1  3/7/1  114/8/1 
f  22/9/1  24/10/1  8/11/1  3/12/1 
f  24/13/1  26/14/1  12/15/1  8/16/1 
f  26/17/1  28/18/1  16/19/1  12/20/1 
f  28/5/1  30/6/1  20/7/1  16/8/1 
f  103/21/1  105/22/1  83/23/1  81/24/1 
f  105/25/1  107/26/1  85/27/1  83/28/1 
f  107/29/1  109/30/1  87/31/1  85/32/1 
f  108/29/1  110/30/1  88/31/1  86/32/1 
f  110/33/1  112/34/1  90/35/1  88/36/1 
g mesh_[02]_[00]
f  115/37/1  116/38/1  117/39/1  118/40/1 
f  116/41/1  119/42/1  120/43/1  117/44/1 
f  119/41/1  121/42/1  122/43/1  120/44/1 
f  121/41/1  123/42/1  124/43/1  122/44/1 
f  123/41/1  125/42/1  126/43/1  124/44/1 
f  125/41/1  127/42/1  128/43/1  126/44/1 
f  127/41/1  129/42/1  130/43/1  128/44/1 
f  129/41/1  131/42/1  132/43/1  130/44/1 
f  131/41/1  133/42/1  134/43/1  132/44/1 
f  133/41/1  135/42/1  136/43/1  134/44/1 
f  135/41/1  137/42/1  138/43/1  136/44/1 
f  137/41/1  139/42/1  140/43/1  138/44/1 
f  139/41/1  141/42/1  142/43/1  140/44/1 
f  141/41/1  143/42/1  144/43/1  142/44/1 
f  143/41/1  145/42/1  146/43/1  144/44/1 
f  145/41/1  147/42/1  148/43/1  146/44/1 
f  147/41/1  149/42/1  150/43/1  148/44/1 
f  149/41/1  151/42/1  152/43/1  150/44/1 
f  153/37/1  154/38/1  116/39/1  115/40/1 
f  154/41/1  155/42/1  119/43/1  116/44/1 
f  155/41/1  156/42/1  121/43/1  119/44/1 
f  156/41/1  157/42/1  123/43/1  121/44/1 
f  157/41/1  158/42/1  125/43/1  123/44/1 
f  158/41/1  159/42/1  127/43/1  125/44/1 
f  159/41/1  160/42/1  129/43/1  127/44/1 
f  160/41/1  161/42/1  131/43/1  129/44/1 
f  161/41/1  162/42/1  133/43/1  131/44/1 
f  162/41/1  163/42/1  135/43/1  133/44/1 
f  163/41/1  164/42/1  137/43/1  135/44/1 
f  164/41/1  165/42/1  139/43/1  137/44/1 
f  165/41/1  166/42/1  141/43/1  139/44/1 
f  166/41/1  167/42/1  143/43/1  141/44/1 
f  167/41/1  168/42/1  145/43/1  143/44/1 
f  168/41/1  169/42/1  147/43/1  145/44/1 
f  169/41/1  170/42/1  149/43/1  147/44/1 
f  170/41/1  171/42/1  151/43/1  149/44/1 
f  172/37/1  173/38/1  154/39/1  153/40/1 
f  173/41/1  174/42/1  155/43/1  154/44/1 
f  174/41/1  175/42/1  156/43/1  155/44/1 
f  175/41/1  176/42/1  157/43/1  156/44/1 
f  176/41/1  177/42/1  158/43/1  157/44/1 
f  177/41/1  178/42/1  159/43/1  158/44/1 
f  178/41/1  179/42/1  160/43/1  159/44/1 
f  179/41/1  180/42/1  161/43/1  160/44/1 
f  180/41/1  181/42/1  162/43/1  161/44/1 
f  181/41/1  182/42/1  163/43/1  162/44/1 
f  182/41/1  183/42/1  164/43/1  163/44/1 
f  183/41/1  184/42/1  165/43/1  164/44/1 
f  184/41/1  185/42/1  166/43/1  165/44/1 
f  185/41/1  186/42/1  167/43/1  166/44/1 
f  186/41/1  187/42/1  168/43/1  167/44/1 
f  187/41/1  188/42/1  169/43/1  168/44/1 
f  188/41/1  189/42/1  170/43/1  169/44/1 
f  189/41/1  190/42/1  171/43/1  170/44/1 
f  191/37/1  192/38/1  173/39/1  172/40/1 
f  192/41/1  193/42/1  174/43/1  173/44/1 
f  193/41/1  194/42/1  175/43/1  174/44/1 
f  194/41/1  195/42/1  176/43/1  175/44/1 
f  195/41/1  196/42/1  177/43/1  176/44/1 
f  196/41/1  197/42/1  178/43/1  177/44/1 
f  197/41/1  198/42/1  179/43/1  178/44/1 
f  198/41/1  114/42/1  180/43/1  179/44/1 
f  114/41/1  4/42/1  181/43/1  180/44/1 
f  4/45/1  3/46/1  182/47/1  181/48/1 
f  3/49/1  6/50/1  183/51/1  182/52/1 
f  6/49/1  8/50/1  184/51/1  183/52/1 
f  8/49/1  10/50/1  185/51/1  184/52/1 
f  10/49/1  12/50/1  186/51/1  185/52/1 
f  12/49/1  14/50/1  187/51/1  186/52/1 
f  14/49/1  16/50/1  188/51/1  187/52/1 
f  16/49/1  18/50/1  189/51/1  188/52/1 
f  18/49/1  20/50/1  190/51/1  189/52/1 
f  199/37/1  200/38/1  192/39/1  191/40/1 
f  200/41/1  201/42/1  193/43/1  192/44/1 
f  201/41/1  202/42/1  194/43/1  193/44/1 
f  202/41/1  203/42/1  195/43/1  194/44/1 
f  203/41/1  204/42/1  196/43/1  195/44/1 
f  204/41/1  205/42/1  197/43/1  196/44/1 
f  205/41/1  206/42/1  198/43/1  197/44/1 
f  206/41/1  207/42/1  114/43/1  198/44/1 
f  207/45/1  1/46/1  4/47/1  114/48/1 
f  1/53/1  2/54/1  3/55/1  4/56/1 
f  208/37/1  209/38/1  200/39/1  199/40/1 
f  209/41/1  210/42/1  201/43/1  200/44/1 
f  210/41/1  211/42/1  202/43/1  201/44/1 
f  211/41/1  212/42/1  203/43/1  202/44/1 
f  212/41/1  213/42/1  204/43/1  203/44/1 
f  213/41/1  214/42/1  205/43/1  204/44/1 
f  214/41/1  215/42/1  206/43/1  205/44/1 
f  215/41/1  113/42/1  207/43/1  206/44/1 
f  113/57/1  21/58/1  1/59/1  207/60/1 
f  216/37/1  217/38/1  209/39/1  208/40/1 
f  217/41/1  218/42/1  210/43/1  209/44/1 
f  218/41/1  219/42/1  211/43/1  210/44/1 
f  219/41/1  220/42/1  212/43/1  211/44/1 
f  220/41/1  221/42/1  213/43/1  212/44/1 
f  221/41/1  222/42/1  214/43/1  213/44/1 
f  222/41/1  223/42/1  215/43/1  214/44/1 
f  223/41/1  224/42/1  113/43/1  215/44/1 
f  224/57/1  31/58/1  21/59/1  113/60/1 
f  225/37/1  226/38/1  217/39/1  216/40/1 
f  226/41/1  227/42/1  218/43/1  217/44/1 
f  227/41/1  228/42/1  219/43/1  218/44/1 
f  228/41/1  229/42/1  220/43/1  219/44/1 
f  229/41/1  230/42/1  221/43/1  220/44/1 
f  230/41/1  231/42/1  222/43/1  221/44/1 
f  231/41/1  232/42/1  223/43/1  222/44/1 
f  232/41/1  233/42/1  224/43/1  223/44/1 
f  233/57/1  41/58/1  31/59/1  224/60/1 
f  234/37/1  235/38/1  226/39/1  225/40/1 
f  235/41/1  236/42/1  227/43/1  226/44/1 
f  236/41/1  237/42/1  228/43/1  227/44/1 
f  237/41/1  238/42/1  229/43/1  228/44/1 
f  238/41/1  239/42/1  230/43/1  229/44/1 
f  239/41/1  240/42/1  231/43/1  230/44/1 
f  240/41/1  241/42/1  232/43/1  231/44/1 
f  241/41/1  242/42/1  233/43/1  232/44/1 
f  242/57/1  51/58/1  41/59/1  233/60/1 
f  243/37/1  244/38/1  235/39/1  234/40/1 
f  244/41/1  245/42/1  236/43/1  235/44/1 
f  245/41/1  246/42/1  237/43/1  236/44/1 
f  246/41/1  247/42/1  238/43/1  237/44/1 
f  247/41/1  248/42/1  239/43/1  238/44/1 
f  248/41/1  249/42/1  240/43/1  239/44/1 
f  249/41/1  250/42/1  241/43/1  240/44/1 
f  250/41/1  251/42/1  242/43/1  241/44/1 
f  251/57/1  61/58/1  51/59/1  242/60/1 
f  252/37/1  253/38/1  244/39/1  243/40/1 
f  253/41/1  254/42/1  245/43/1  244/44/1 
f  254/41/1  255/42/1  246/43/1  245/44/1 
f  255/41/1  256/42/1  247/43/1  246/44/1 
f  256/41/1  257/42/1  248/43/1  247/44/1 
f  257/41/1  258/42/1  249/43/1  248/44/1 
f  258/41/1  259/42/1  250/43/1  249/44/1 
f  259/41/1  260/42/1  251/43/1  250/44/1 
f  260/57/1  71/58/1  61/59/1  251/60/1 
f  261/37/1  262/38/1  253/39/1  252/40/1 
f  262/41/1  263/42/1  254/43/1  253/44/1 
f  263/41/1  264/42/1  255/43/1  254/44/1 
f  264/41/1  265/42/1  256/43/1  255/44/1 
f  265/41/1  266/42/1  257/43/1  256/44/1 
f  266/41/1  267/42/1  258/43/1  257/44/1 
f  267/41/1  268/42/1  259/43/1  258/44/1 
f  268/41/1  93/42/1  260/43/1  259/44/1 
f  93/57/1  81/58/1  71/59/1  260/60/1 
f  269/37/1  270/38/1  262/39/1  261/40/1 
f  270/41/1  271/42/1  263/43/1  262/44/1 
f  271/41/1  272/42/1  264/43/1  263/44/1 
f  272/41/1  273/42/1  265/43/1  264/44/1 
f  273/41/1  274/42/1  266/43/1  265/44/1 
f  274/41/1  275/42/1  267/43/1  266/44/1 
f  275/41/1  276/42/1  268/43/1  267/44/1 
f  276/41/1  91/42/1  93/43/1  268/44/1 
f  91/57/1  92/58/1  81/59/1  93/60/1 
f  277/37/1  278/38/1  270/39/1  269/40/1 
f  278/41/1  279/42/1  271/43/1  270/44/1 
f  279/41/1  280/42/1  272/43/1  271/44/1 
f  280/41/1  281/42/1  273/43/1  272/44/1 
f  281/41/1  282/42/1  274/43/1  273/44/1 
f  282/41/1  283/42/1  275/43/1  274/44/1 
f  283/41/1  284/42/1  276/43/1  275/44/1 
f  284/41/1  285/42/1  91/43/1  276/44/1 
f  285/61/1  103/62/1  92/63/1  91/64/1 
f  103/65/1  104/66/1  94/67/1  92/68/1 
f  286/37/1  287/38/1  278/39/1  277/40/1 
f  287/41/1  288/42/1  279/43/1  278/44/1 
f  288/41/1  289/42/1  280/43/1  279/44/1 
f  289/41/1  290/42/1  281/43/1  280/44/1 
f  290/41/1  291/42/1  282/43/1  281/44/1 
f  291/41/1  292/42/1  283/43/1  282/44/1 
f  292/41/1  293/42/1  284/43/1  283/44/1 
f  293/41/1  294/42/1  285/43/1  284/44/1 
f  294/41/1  295/42/1  103/43/1  285/44/1 
f  295/61/1  296/62/1  104/63/1  103/64/1 
f  296/69/1  297/70/1  105/71/1  104/72/1 
f  297/69/1  298/70/1  106/71/1  105/72/1 
f  298/69/1  299/70/1  107/71/1  106/72/1 
f  299/69/1  300/70/1  108/71/1  107/72/1 
f  300/69/1  301/70/1  109/71/1  108/72/1 
f  301/69/1  302/70/1  110/71/1  109/72/1 
f  302/69/1  303/70/1  111/71/1  110/72/1 
f  303/69/1  304/70/1  112/71/1  111/72/1 
f  305/37/1  306/38/1  287/39/1  286/40/1 
f  306/41/1  307/42/1  288/43/1  287/44/1 
f  307/41/1  308/42/1  289/43/1  288/44/1 
f  308/41/1  309/42/1  290/43/1  289/44/1 
f  309/41/1  310/42/1  291/43/1  290/44/1 
f  310/41/1  311/42/1  292/43/1  291/44/1 
f  311/41/1  312/42/1  293/43/1  292/44/1 
f  312/41/1  313/42/1  294/43/1  293/44/1 
f  313/41/1  314/42/1  295/43/1  294/44/1 
f  314/41/1  315/42/1  296/43/1  295/44/1 
f  315/41/1  316/42/1  297/43/1  296/44/1 
f  316/41/1  317/42/1  298/43/1  297/44/1 
f  317/41/1  318/42/1  299/43/1  298/44/1 
f  318/41/1  319/42/1  300/43/1  299/44/1 
f  319/41/1  320/42/1  301/43/1  300/44/1 
f  320/41/1  321/42/1  302/43/1  301/44/1 
f  321/41/1  322/42/1  303/43/1  302/44/1 
f  322/41/1  323/42/1  304/43/1  303/44/1 
f  324/37/1  325/38/1  306/39/1  305/40/1 
f  325/41/1  326/42/1  307/43/1  306/44/1 
f  326/41/1  327/42/1  308/43/1  307/44/1 
f  327/41/1  328/42/1  309/43/1  308/44/1 
f  328/41/1  329/42/1  310/43/1  309/44/1 
f  329/41/1  330/42/1  311/43/1  310/44/1 
f  330/41/1  331/42/1  312/43/1  311/44/1 
f  331/41/1  332/42/1  313/43/1  312/44/1 
f  332/41/1  333/42/1  314/43/1  313/44/1 
f  333/41/1  334/42/1  315/43/1  314/44/1 
f  334/41/1  335/42/1  316/43/1  315/44/1 
f  335/41/1  336/42/1  317/43/1  316/44/1 
f  336/41/1  337/42/1  318/43/1  317/44/1 
f  337/41/1  338/42/1  319/43/1  318/44/1 
f  338/41/1  339/42/1  320/43/1  319/44/1 
f  339/41/1  340/42/1  321/43/1  320/44/1 
f  340/41/1  341/42/1  322/43/1  321/44/1 
f  341/41/1  342/42/1  323/43/1  322/44/1 
f  343/37/1  344/38/1  325/39/1  324/40/1 
f  344/41/1  345/42/1  326/43/1  325/44/1 
f  345/41/1  346/42/1  327/43/1  326/44/1 
f  346/41/1  347/42/1  328/43/1  327/44/1 
f  347/41/1  348/42/1  329/43/1  328/44/1 
f  348/41/1  349/42/1  330/43/1  329/44/1 
f  349/41/1  350/42/1  331/43/1  330/44/1 
f  350/41/1  351/42/1  332/43/1  331/44/1 
f  351/41/1  352/42/1  333/43/1  332/44/1 
f  352/41/1  353/42/1  334/43/1  333/44/1 
f  353/41/1  354/42/1  335/43/1  334/44/1 
f  354/41/1  355/42/1  336/43/1  335/44/1 
f  355/41/1  356/42/1  337/43/1  336/44/1 
f  356/41/1  357/42/1  338/43/1  337/44/1 
f  357/41/1  358/42/1  339/43/1  338/44/1 
f  358/41/1  359/42/1  340/43/1  339/44/1 
f  359/41/1  360/42/1  341/43/1  340/44/1 
f  360/41/1  361/42/1  342/43/1  341/44/1 
