# Wavefront OBJ file automatically generated by Tiled2Unity

# Vertices (Count = 295)
v -1792 -832 0
v -1856 -832 0
v -1856 -768 0
v -1792 -768 0
v -1920 -832 0
v -1920 -768 0
v -1984 -832 0
v -1984 -768 0
v -2048 -832 0
v -2048 -768 0
v -2112 -832 0
v -2112 -768 0
v -2176 -832 0
v -2176 -768 0
v -2240 -832 0
v -2240 -768 0
v -2304 -832 0
v -2304 -768 0
v -2368 -832 0
v -2368 -768 0
v -2432 -832 0
v -2432 -768 0
v -2496 -832 0
v -2496 -768 0
v -2752 -832 0
v -2816 -832 0
v -2816 -768 0
v -2752 -768 0
v -2880 -832 0
v -2880 -768 0
v -2944 -832 0
v -2944 -768 0
v -3008 -832 0
v -3008 -768 0
v -3072 -832 0
v -3072 -768 0
v -3136 -832 0
v -3136 -768 0
v -3200 -832 0
v -3200 -768 0
v -3264 -832 0
v -3264 -768 0
v -3328 -832 0
v -3328 -768 0
v -3392 -832 0
v -3392 -768 0
v -3456 -832 0
v -3456 -768 0
v -1792 -896 0
v -1856 -896 0
v -1920 -896 0
v -1984 -896 0
v -2048 -896 0
v -2112 -896 0
v -2176 -896 0
v -2240 -896 0
v -2304 -896 0
v -2368 -896 0
v -2432 -896 0
v -2496 -896 0
v -2752 -896 0
v -2816 -896 0
v -2880 -896 0
v -2944 -896 0
v -3008 -896 0
v -3072 -896 0
v -3136 -896 0
v -3200 -896 0
v -3264 -896 0
v -3328 -896 0
v -3392 -896 0
v -3456 -896 0
v -1792 -960 0
v -1856 -960 0
v -1920 -960 0
v -1984 -960 0
v -2048 -960 0
v -2112 -960 0
v -2176 -960 0
v -2240 -960 0
v -2304 -960 0
v -2368 -960 0
v -2432 -960 0
v -2496 -960 0
v -2752 -960 0
v -2816 -960 0
v -2880 -960 0
v -2944 -960 0
v -3008 -960 0
v -3072 -960 0
v -3136 -960 0
v -3200 -960 0
v -3264 -960 0
v -3328 -960 0
v -3392 -960 0
v -3456 -960 0
v -1792 -1024 0
v -1856 -1024 0
v -1920 -1024 0
v -1984 -1024 0
v -2048 -1024 0
v -2112 -1024 0
v -2176 -1024 0
v -2240 -1024 0
v -2304 -1024 0
v -2368 -1024 0
v -2432 -1024 0
v -2496 -1024 0
v -2752 -1024 0
v -2816 -1024 0
v -2880 -1024 0
v -2944 -1024 0
v -3008 -1024 0
v -3072 -1024 0
v -3136 -1024 0
v -3200 -1024 0
v -3264 -1024 0
v -3328 -1024 0
v -3392 -1024 0
v -3456 -1024 0
v -1792 -1088 0
v -1856 -1088 0
v -1920 -1088 0
v -1984 -1088 0
v -2048 -1088 0
v -3200 -1088 0
v -3264 -1088 0
v -3328 -1088 0
v -3392 -1088 0
v -3456 -1088 0
v -1792 -1152 0
v -1856 -1152 0
v -1920 -1152 0
v -1984 -1152 0
v -2048 -1152 0
v -3200 -1152 0
v -3264 -1152 0
v -3328 -1152 0
v -3392 -1152 0
v -3456 -1152 0
v -1792 -1472 0
v -1856 -1472 0
v -1856 -1408 0
v -1792 -1408 0
v -1920 -1472 0
v -1920 -1408 0
v -1984 -1472 0
v -1984 -1408 0
v -2048 -1472 0
v -2048 -1408 0
v -3200 -1472 0
v -3264 -1472 0
v -3264 -1408 0
v -3200 -1408 0
v -3328 -1472 0
v -3328 -1408 0
v -3392 -1472 0
v -3392 -1408 0
v -3456 -1472 0
v -3456 -1408 0
v -1792 -1536 0
v -1856 -1536 0
v -1920 -1536 0
v -1984 -1536 0
v -2048 -1536 0
v -3200 -1536 0
v -3264 -1536 0
v -3328 -1536 0
v -3392 -1536 0
v -3456 -1536 0
v -1792 -1600 0
v -1856 -1600 0
v -1920 -1600 0
v -1984 -1600 0
v -2048 -1600 0
v -2112 -1600 0
v -2112 -1536 0
v -2176 -1600 0
v -2176 -1536 0
v -2240 -1600 0
v -2240 -1536 0
v -2304 -1600 0
v -2304 -1536 0
v -2368 -1600 0
v -2368 -1536 0
v -2432 -1600 0
v -2432 -1536 0
v -2496 -1600 0
v -2496 -1536 0
v -2560 -1600 0
v -2560 -1536 0
v -2624 -1600 0
v -2624 -1536 0
v -2688 -1600 0
v -2688 -1536 0
v -2752 -1600 0
v -2752 -1536 0
v -2816 -1600 0
v -2816 -1536 0
v -2880 -1600 0
v -2880 -1536 0
v -2944 -1600 0
v -2944 -1536 0
v -3008 -1600 0
v -3008 -1536 0
v -3072 -1600 0
v -3072 -1536 0
v -3136 -1600 0
v -3136 -1536 0
v -3200 -1600 0
v -3264 -1600 0
v -3328 -1600 0
v -3392 -1600 0
v -3456 -1600 0
v -1792 -1664 0
v -1856 -1664 0
v -1920 -1664 0
v -1984 -1664 0
v -2048 -1664 0
v -2112 -1664 0
v -2176 -1664 0
v -2240 -1664 0
v -2304 -1664 0
v -2368 -1664 0
v -2432 -1664 0
v -2496 -1664 0
v -2560 -1664 0
v -2624 -1664 0
v -2688 -1664 0
v -2752 -1664 0
v -2816 -1664 0
v -2880 -1664 0
v -2944 -1664 0
v -3008 -1664 0
v -3072 -1664 0
v -3136 -1664 0
v -3200 -1664 0
v -3264 -1664 0
v -3328 -1664 0
v -3392 -1664 0
v -3456 -1664 0
v -1792 -1728 0
v -1856 -1728 0
v -1920 -1728 0
v -1984 -1728 0
v -2048 -1728 0
v -2112 -1728 0
v -2176 -1728 0
v -2240 -1728 0
v -2304 -1728 0
v -2368 -1728 0
v -2432 -1728 0
v -2496 -1728 0
v -2560 -1728 0
v -2624 -1728 0
v -2688 -1728 0
v -2752 -1728 0
v -2816 -1728 0
v -2880 -1728 0
v -2944 -1728 0
v -3008 -1728 0
v -3072 -1728 0
v -3136 -1728 0
v -3200 -1728 0
v -3264 -1728 0
v -3328 -1728 0
v -3392 -1728 0
v -3456 -1728 0
v -1792 -1792 0
v -1856 -1792 0
v -1920 -1792 0
v -1984 -1792 0
v -2048 -1792 0
v -2112 -1792 0
v -2176 -1792 0
v -2240 -1792 0
v -2304 -1792 0
v -2368 -1792 0
v -2432 -1792 0
v -2496 -1792 0
v -2560 -1792 0
v -2624 -1792 0
v -2688 -1792 0
v -2752 -1792 0
v -2816 -1792 0
v -2880 -1792 0
v -2944 -1792 0
v -3008 -1792 0
v -3072 -1792 0
v -3136 -1792 0
v -3200 -1792 0
v -3264 -1792 0
v -3328 -1792 0
v -3392 -1792 0
v -3456 -1792 0

# Texture Coorindates (Count = 52)
vt 0.06262207 0.6876221
vt 0.1248779 0.6876221
vt 0.1248779 0.7498779
vt 0.06262207 0.7498779
vt 0.06262207 0.7501221
vt 0.1248779 0.7501221
vt 0.1248779 0.8123779
vt 0.06262207 0.8123779
vt 0.0001220703 0.6876221
vt 0.06237793 0.6876221
vt 0.06237793 0.7498779
vt 0.0001220703 0.7498779
vt 0.1876221 0.7501221
vt 0.2498779 0.7501221
vt 0.2498779 0.8123779
vt 0.1876221 0.8123779
vt 0.0001220703 0.7501221
vt 0.06237793 0.7501221
vt 0.06237793 0.8123779
vt 0.0001220703 0.8123779
vt 0.2501221 0.7501221
vt 0.3123779 0.7501221
vt 0.3123779 0.8123779
vt 0.2501221 0.8123779
vt 0.8751221 0.7501221
vt 0.9373779 0.7501221
vt 0.9373779 0.8123779
vt 0.8751221 0.8123779
vt 0.1251221 0.7501221
vt 0.1873779 0.7501221
vt 0.1873779 0.8123779
vt 0.1251221 0.8123779
vt 0.1876221 0.6876221
vt 0.2498779 0.6876221
vt 0.2498779 0.7498779
vt 0.1876221 0.7498779
vt 0.1251221 0.6876221
vt 0.1873779 0.6876221
vt 0.1873779 0.7498779
vt 0.1251221 0.7498779
vt 0.9376221 0.7501221
vt 0.9998779 0.7501221
vt 0.9998779 0.8123779
vt 0.9376221 0.8123779
vt 0.7501221 0.7501221
vt 0.8123779 0.7501221
vt 0.8123779 0.8123779
vt 0.7501221 0.8123779
vt 0.8126221 0.7501221
vt 0.8748779 0.7501221
vt 0.8748779 0.8123779
vt 0.8126221 0.8123779

# Normal
vn 0 0 -1

# Groups (Count = 1)
g mesh_[01]_[00]
f  1/1/1  2/2/1  3/3/1  4/4/1 
f  2/5/1  5/6/1  6/7/1  3/8/1 
f  5/5/1  7/6/1  8/7/1  6/8/1 
f  7/5/1  9/6/1  10/7/1  8/8/1 
f  9/5/1  11/6/1  12/7/1  10/8/1 
f  11/5/1  13/6/1  14/7/1  12/8/1 
f  13/5/1  15/6/1  16/7/1  14/8/1 
f  15/5/1  17/6/1  18/7/1  16/8/1 
f  17/5/1  19/6/1  20/7/1  18/8/1 
f  19/5/1  21/6/1  22/7/1  20/8/1 
f  21/9/1  23/10/1  24/11/1  22/12/1 
f  25/1/1  26/2/1  27/3/1  28/4/1 
f  26/5/1  29/6/1  30/7/1  27/8/1 
f  29/5/1  31/6/1  32/7/1  30/8/1 
f  31/5/1  33/6/1  34/7/1  32/8/1 
f  33/5/1  35/6/1  36/7/1  34/8/1 
f  35/5/1  37/6/1  38/7/1  36/8/1 
f  37/5/1  39/6/1  40/7/1  38/8/1 
f  39/5/1  41/6/1  42/7/1  40/8/1 
f  41/5/1  43/6/1  44/7/1  42/8/1 
f  43/5/1  45/6/1  46/7/1  44/8/1 
f  45/9/1  47/10/1  48/11/1  46/12/1 
f  49/13/1  50/14/1  2/15/1  1/16/1 
f  50/17/1  51/18/1  5/19/1  2/20/1 
f  51/17/1  52/18/1  7/19/1  5/20/1 
f  52/17/1  53/18/1  9/19/1  7/20/1 
f  53/17/1  54/18/1  11/19/1  9/20/1 
f  54/17/1  55/18/1  13/19/1  11/20/1 
f  55/17/1  56/18/1  15/19/1  13/20/1 
f  56/17/1  57/18/1  17/19/1  15/20/1 
f  57/17/1  58/18/1  19/19/1  17/20/1 
f  58/17/1  59/18/1  21/19/1  19/20/1 
f  59/21/1  60/22/1  23/23/1  21/24/1 
f  61/13/1  62/14/1  26/15/1  25/16/1 
f  62/17/1  63/18/1  29/19/1  26/20/1 
f  63/17/1  64/18/1  31/19/1  29/20/1 
f  64/17/1  65/18/1  33/19/1  31/20/1 
f  65/17/1  66/18/1  35/19/1  33/20/1 
f  66/17/1  67/18/1  37/19/1  35/20/1 
f  67/17/1  68/18/1  39/19/1  37/20/1 
f  68/17/1  69/18/1  41/19/1  39/20/1 
f  69/17/1  70/18/1  43/19/1  41/20/1 
f  70/17/1  71/18/1  45/19/1  43/20/1 
f  71/21/1  72/22/1  47/23/1  45/24/1 
f  73/13/1  74/14/1  50/15/1  49/16/1 
f  74/17/1  75/18/1  51/19/1  50/20/1 
f  75/17/1  76/18/1  52/19/1  51/20/1 
f  76/17/1  77/18/1  53/19/1  52/20/1 
f  77/17/1  78/18/1  54/19/1  53/20/1 
f  78/17/1  79/18/1  55/19/1  54/20/1 
f  79/17/1  80/18/1  56/19/1  55/20/1 
f  80/17/1  81/18/1  57/19/1  56/20/1 
f  81/17/1  82/18/1  58/19/1  57/20/1 
f  82/17/1  83/18/1  59/19/1  58/20/1 
f  83/21/1  84/22/1  60/23/1  59/24/1 
f  85/13/1  86/14/1  62/15/1  61/16/1 
f  86/17/1  87/18/1  63/19/1  62/20/1 
f  87/17/1  88/18/1  64/19/1  63/20/1 
f  88/17/1  89/18/1  65/19/1  64/20/1 
f  89/17/1  90/18/1  66/19/1  65/20/1 
f  90/17/1  91/18/1  67/19/1  66/20/1 
f  91/17/1  92/18/1  68/19/1  67/20/1 
f  92/17/1  93/18/1  69/19/1  68/20/1 
f  93/17/1  94/18/1  70/19/1  69/20/1 
f  94/17/1  95/18/1  71/19/1  70/20/1 
f  95/21/1  96/22/1  72/23/1  71/24/1 
f  97/13/1  98/14/1  74/15/1  73/16/1 
f  98/17/1  99/18/1  75/19/1  74/20/1 
f  99/17/1  100/18/1  76/19/1  75/20/1 
f  100/25/1  101/26/1  77/27/1  76/28/1 
f  101/29/1  102/30/1  78/31/1  77/32/1 
f  102/29/1  103/30/1  79/31/1  78/32/1 
f  103/29/1  104/30/1  80/31/1  79/32/1 
f  104/29/1  105/30/1  81/31/1  80/32/1 
f  105/29/1  106/30/1  82/31/1  81/32/1 
f  106/29/1  107/30/1  83/31/1  82/32/1 
f  107/33/1  108/34/1  84/35/1  83/36/1 
f  109/37/1  110/38/1  86/39/1  85/40/1 
f  110/29/1  111/30/1  87/31/1  86/32/1 
f  111/29/1  112/30/1  88/31/1  87/32/1 
f  112/29/1  113/30/1  89/31/1  88/32/1 
f  113/29/1  114/30/1  90/31/1  89/32/1 
f  114/29/1  115/30/1  91/31/1  90/32/1 
f  115/29/1  116/30/1  92/31/1  91/32/1 
f  116/41/1  117/42/1  93/43/1  92/44/1 
f  117/17/1  118/18/1  94/19/1  93/20/1 
f  118/17/1  119/18/1  95/19/1  94/20/1 
f  119/21/1  120/22/1  96/23/1  95/24/1 
f  121/13/1  122/14/1  98/15/1  97/16/1 
f  122/17/1  123/18/1  99/19/1  98/20/1 
f  123/17/1  124/18/1  100/19/1  99/20/1 
f  124/21/1  125/22/1  101/23/1  100/24/1 
f  126/13/1  127/14/1  117/15/1  116/16/1 
f  127/17/1  128/18/1  118/19/1  117/20/1 
f  128/17/1  129/18/1  119/19/1  118/20/1 
f  129/21/1  130/22/1  120/23/1  119/24/1 
f  131/37/1  132/38/1  122/39/1  121/40/1 
f  132/29/1  133/30/1  123/31/1  122/32/1 
f  133/29/1  134/30/1  124/31/1  123/32/1 
f  134/33/1  135/34/1  125/35/1  124/36/1 
f  136/37/1  137/38/1  127/39/1  126/40/1 
f  137/29/1  138/30/1  128/31/1  127/32/1 
f  138/29/1  139/30/1  129/31/1  128/32/1 
f  139/33/1  140/34/1  130/35/1  129/36/1 
f  141/1/1  142/2/1  143/3/1  144/4/1 
f  142/5/1  145/6/1  146/7/1  143/8/1 
f  145/5/1  147/6/1  148/7/1  146/8/1 
f  147/9/1  149/10/1  150/11/1  148/12/1 
f  151/1/1  152/2/1  153/3/1  154/4/1 
f  152/5/1  155/6/1  156/7/1  153/8/1 
f  155/5/1  157/6/1  158/7/1  156/8/1 
f  157/9/1  159/10/1  160/11/1  158/12/1 
f  161/13/1  162/14/1  142/15/1  141/16/1 
f  162/17/1  163/18/1  145/19/1  142/20/1 
f  163/17/1  164/18/1  147/19/1  145/20/1 
f  164/21/1  165/22/1  149/23/1  147/24/1 
f  166/13/1  167/14/1  152/15/1  151/16/1 
f  167/17/1  168/18/1  155/19/1  152/20/1 
f  168/17/1  169/18/1  157/19/1  155/20/1 
f  169/21/1  170/22/1  159/23/1  157/24/1 
f  171/13/1  172/14/1  162/15/1  161/16/1 
f  172/17/1  173/18/1  163/19/1  162/20/1 
f  173/17/1  174/18/1  164/19/1  163/20/1 
f  174/45/1  175/46/1  165/47/1  164/48/1 
f  175/5/1  176/6/1  177/7/1  165/8/1 
f  176/5/1  178/6/1  179/7/1  177/8/1 
f  178/5/1  180/6/1  181/7/1  179/8/1 
f  180/5/1  182/6/1  183/7/1  181/8/1 
f  182/5/1  184/6/1  185/7/1  183/8/1 
f  184/5/1  186/6/1  187/7/1  185/8/1 
f  186/5/1  188/6/1  189/7/1  187/8/1 
f  188/5/1  190/6/1  191/7/1  189/8/1 
f  190/5/1  192/6/1  193/7/1  191/8/1 
f  192/5/1  194/6/1  195/7/1  193/8/1 
f  194/5/1  196/6/1  197/7/1  195/8/1 
f  196/5/1  198/6/1  199/7/1  197/8/1 
f  198/5/1  200/6/1  201/7/1  199/8/1 
f  200/5/1  202/6/1  203/7/1  201/8/1 
f  202/5/1  204/6/1  205/7/1  203/8/1 
f  204/5/1  206/6/1  207/7/1  205/8/1 
f  206/5/1  208/6/1  209/7/1  207/8/1 
f  208/5/1  210/6/1  166/7/1  209/8/1 
f  210/49/1  211/50/1  167/51/1  166/52/1 
f  211/17/1  212/18/1  168/19/1  167/20/1 
f  212/17/1  213/18/1  169/19/1  168/20/1 
f  213/21/1  214/22/1  170/23/1  169/24/1 
f  215/13/1  216/14/1  172/15/1  171/16/1 
f  216/17/1  217/18/1  173/19/1  172/20/1 
f  217/17/1  218/18/1  174/19/1  173/20/1 
f  218/17/1  219/18/1  175/19/1  174/20/1 
f  219/17/1  220/18/1  176/19/1  175/20/1 
f  220/17/1  221/18/1  178/19/1  176/20/1 
f  221/17/1  222/18/1  180/19/1  178/20/1 
f  222/17/1  223/18/1  182/19/1  180/20/1 
f  223/17/1  224/18/1  184/19/1  182/20/1 
f  224/17/1  225/18/1  186/19/1  184/20/1 
f  225/17/1  226/18/1  188/19/1  186/20/1 
f  226/17/1  227/18/1  190/19/1  188/20/1 
f  227/17/1  228/18/1  192/19/1  190/20/1 
f  228/17/1  229/18/1  194/19/1  192/20/1 
f  229/17/1  230/18/1  196/19/1  194/20/1 
f  230/17/1  231/18/1  198/19/1  196/20/1 
f  231/17/1  232/18/1  200/19/1  198/20/1 
f  232/17/1  233/18/1  202/19/1  200/20/1 
f  233/17/1  234/18/1  204/19/1  202/20/1 
f  234/17/1  235/18/1  206/19/1  204/20/1 
f  235/17/1  236/18/1  208/19/1  206/20/1 
f  236/17/1  237/18/1  210/19/1  208/20/1 
f  237/17/1  238/18/1  211/19/1  210/20/1 
f  238/17/1  239/18/1  212/19/1  211/20/1 
f  239/17/1  240/18/1  213/19/1  212/20/1 
f  240/21/1  241/22/1  214/23/1  213/24/1 
f  242/13/1  243/14/1  216/15/1  215/16/1 
f  243/17/1  244/18/1  217/19/1  216/20/1 
f  244/17/1  245/18/1  218/19/1  217/20/1 
f  245/17/1  246/18/1  219/19/1  218/20/1 
f  246/17/1  247/18/1  220/19/1  219/20/1 
f  247/17/1  248/18/1  221/19/1  220/20/1 
f  248/17/1  249/18/1  222/19/1  221/20/1 
f  249/17/1  250/18/1  223/19/1  222/20/1 
f  250/17/1  251/18/1  224/19/1  223/20/1 
f  251/17/1  252/18/1  225/19/1  224/20/1 
f  252/17/1  253/18/1  226/19/1  225/20/1 
f  253/17/1  254/18/1  227/19/1  226/20/1 
f  254/17/1  255/18/1  228/19/1  227/20/1 
f  255/17/1  256/18/1  229/19/1  228/20/1 
f  256/17/1  257/18/1  230/19/1  229/20/1 
f  257/17/1  258/18/1  231/19/1  230/20/1 
f  258/17/1  259/18/1  232/19/1  231/20/1 
f  259/17/1  260/18/1  233/19/1  232/20/1 
f  260/17/1  261/18/1  234/19/1  233/20/1 
f  261/17/1  262/18/1  235/19/1  234/20/1 
f  262/17/1  263/18/1  236/19/1  235/20/1 
f  263/17/1  264/18/1  237/19/1  236/20/1 
f  264/17/1  265/18/1  238/19/1  237/20/1 
f  265/17/1  266/18/1  239/19/1  238/20/1 
f  266/17/1  267/18/1  240/19/1  239/20/1 
f  267/21/1  268/22/1  241/23/1  240/24/1 
f  269/37/1  270/38/1  243/39/1  242/40/1 
f  270/29/1  271/30/1  244/31/1  243/32/1 
f  271/29/1  272/30/1  245/31/1  244/32/1 
f  272/29/1  273/30/1  246/31/1  245/32/1 
f  273/29/1  274/30/1  247/31/1  246/32/1 
f  274/29/1  275/30/1  248/31/1  247/32/1 
f  275/29/1  276/30/1  249/31/1  248/32/1 
f  276/29/1  277/30/1  250/31/1  249/32/1 
f  277/29/1  278/30/1  251/31/1  250/32/1 
f  278/29/1  279/30/1  252/31/1  251/32/1 
f  279/29/1  280/30/1  253/31/1  252/32/1 
f  280/29/1  281/30/1  254/31/1  253/32/1 
f  281/29/1  282/30/1  255/31/1  254/32/1 
f  282/29/1  283/30/1  256/31/1  255/32/1 
f  283/29/1  284/30/1  257/31/1  256/32/1 
f  284/29/1  285/30/1  258/31/1  257/32/1 
f  285/29/1  286/30/1  259/31/1  258/32/1 
f  286/29/1  287/30/1  260/31/1  259/32/1 
f  287/29/1  288/30/1  261/31/1  260/32/1 
f  288/29/1  289/30/1  262/31/1  261/32/1 
f  289/29/1  290/30/1  263/31/1  262/32/1 
f  290/29/1  291/30/1  264/31/1  263/32/1 
f  291/29/1  292/30/1  265/31/1  264/32/1 
f  292/29/1  293/30/1  266/31/1  265/32/1 
f  293/29/1  294/30/1  267/31/1  266/32/1 
f  294/33/1  295/34/1  268/35/1  267/36/1 
