# Wavefront OBJ file automatically generated by Tiled2Unity

# Vertices (Count = 266)
v -1152 -768 0
v -1216 -768 0
v -1216 -704 0
v -1152 -704 0
v -1280 -768 0
v -1280 -704 0
v -1344 -768 0
v -1344 -704 0
v -1408 -768 0
v -1408 -704 0
v -1472 -768 0
v -1472 -704 0
v -1536 -768 0
v -1536 -704 0
v -1600 -768 0
v -1600 -704 0
v -1664 -768 0
v -1664 -704 0
v -1728 -768 0
v -1728 -704 0
v -1152 -832 0
v -1216 -832 0
v -1280 -832 0
v -1344 -832 0
v -1408 -832 0
v -1472 -832 0
v -1536 -832 0
v -1600 -832 0
v -1664 -832 0
v -1728 -832 0
v -1152 -896 0
v -1216 -896 0
v -1280 -896 0
v -1344 -896 0
v -1408 -896 0
v -1472 -896 0
v -1536 -896 0
v -1600 -896 0
v -1664 -896 0
v -1728 -896 0
v -1152 -960 0
v -1216 -960 0
v -1280 -960 0
v -1344 -960 0
v -1408 -960 0
v -1472 -960 0
v -1536 -960 0
v -1600 -960 0
v -1664 -960 0
v -1728 -960 0
v -1152 -1024 0
v -1216 -1024 0
v -1280 -1024 0
v -1344 -1024 0
v -1408 -1024 0
v -1472 -1024 0
v -1536 -1024 0
v -1600 -1024 0
v -1664 -1024 0
v -1728 -1024 0
v -1152 -1088 0
v -1216 -1088 0
v -1280 -1088 0
v -1344 -1088 0
v -1408 -1088 0
v -1472 -1088 0
v -1536 -1088 0
v -1600 -1088 0
v -1664 -1088 0
v -1728 -1088 0
v -1152 -1152 0
v -1216 -1152 0
v -1280 -1152 0
v -1344 -1152 0
v -1408 -1152 0
v -1472 -1152 0
v -1536 -1152 0
v -1600 -1152 0
v -1664 -1152 0
v -1728 -1152 0
v -1152 -1216 0
v -1216 -1216 0
v -1280 -1216 0
v -1344 -1216 0
v -1408 -1216 0
v -1472 -1216 0
v -1536 -1216 0
v -1600 -1216 0
v -1664 -1216 0
v -1728 -1216 0
v -1088 -1280 0
v -1152 -1280 0
v -1088 -1216 0
v -1216 -1280 0
v -1280 -1280 0
v -1344 -1280 0
v -1408 -1280 0
v -1472 -1280 0
v -1536 -1280 0
v -1600 -1280 0
v -1664 -1280 0
v -1728 -1280 0
v -1152 -1344 0
v -1216 -1344 0
v -1280 -1344 0
v -1344 -1344 0
v -1408 -1344 0
v -1472 -1344 0
v -1536 -1344 0
v -1600 -1344 0
v -1664 -1344 0
v -1728 -1344 0
v -1088 -832 0
v -1088 -704 0
v -896 -512 0
v -960 -512 0
v -960 -448 0
v -896 -448 0
v -1024 -512 0
v -1024 -448 0
v -1088 -512 0
v -1088 -448 0
v -1152 -512 0
v -1152 -448 0
v -1216 -512 0
v -1216 -448 0
v -1280 -512 0
v -1280 -448 0
v -1344 -512 0
v -1344 -448 0
v -1408 -512 0
v -1408 -448 0
v -1472 -512 0
v -1472 -448 0
v -1536 -512 0
v -1536 -448 0
v -1600 -512 0
v -1600 -448 0
v -1664 -512 0
v -1664 -448 0
v -1728 -512 0
v -1728 -448 0
v -896 -576 0
v -960 -576 0
v -1024 -576 0
v -1088 -576 0
v -1152 -576 0
v -1216 -576 0
v -1280 -576 0
v -1344 -576 0
v -1408 -576 0
v -1472 -576 0
v -1536 -576 0
v -1600 -576 0
v -1664 -576 0
v -1728 -576 0
v -896 -640 0
v -960 -640 0
v -1024 -640 0
v -1088 -640 0
v -1152 -640 0
v -1216 -640 0
v -1280 -640 0
v -1344 -640 0
v -1408 -640 0
v -1472 -640 0
v -1536 -640 0
v -1600 -640 0
v -1664 -640 0
v -1728 -640 0
v -896 -704 0
v -960 -704 0
v -1024 -704 0
v -896 -768 0
v -960 -768 0
v -1024 -768 0
v -1088 -768 0
v -896 -832 0
v -960 -832 0
v -1024 -832 0
v -896 -896 0
v -960 -896 0
v -1024 -896 0
v -1088 -896 0
v -896 -960 0
v -960 -960 0
v -1024 -960 0
v -1088 -960 0
v -896 -1024 0
v -960 -1024 0
v -1024 -1024 0
v -1088 -1024 0
v -896 -1088 0
v -960 -1088 0
v -1024 -1088 0
v -1088 -1088 0
v -896 -1152 0
v -960 -1152 0
v -1024 -1152 0
v -1088 -1152 0
v -896 -1216 0
v -960 -1216 0
v -1024 -1216 0
v -896 -1280 0
v -960 -1280 0
v -1024 -1280 0
v -896 -1344 0
v -960 -1344 0
v -1024 -1344 0
v -1088 -1344 0
v -896 -1408 0
v -960 -1408 0
v -1024 -1408 0
v -1088 -1408 0
v -1152 -1408 0
v -1216 -1408 0
v -1280 -1408 0
v -1344 -1408 0
v -1408 -1408 0
v -1472 -1408 0
v -1536 -1408 0
v -1600 -1408 0
v -1664 -1408 0
v -1728 -1408 0
v -896 -1472 0
v -960 -1472 0
v -1024 -1472 0
v -1088 -1472 0
v -1152 -1472 0
v -1216 -1472 0
v -1280 -1472 0
v -1344 -1472 0
v -1408 -1472 0
v -1472 -1472 0
v -1536 -1472 0
v -1600 -1472 0
v -1664 -1472 0
v -1728 -1472 0
v -896 -1536 0
v -960 -1536 0
v -1024 -1536 0
v -1088 -1536 0
v -1152 -1536 0
v -1216 -1536 0
v -1280 -1536 0
v -1344 -1536 0
v -1408 -1536 0
v -1472 -1536 0
v -1536 -1536 0
v -1600 -1536 0
v -1664 -1536 0
v -1728 -1536 0
v -896 -1600 0
v -960 -1600 0
v -1024 -1600 0
v -1088 -1600 0
v -1152 -1600 0
v -1216 -1600 0
v -1280 -1600 0
v -1344 -1600 0
v -1408 -1600 0
v -1472 -1600 0
v -1536 -1600 0
v -1600 -1600 0
v -1664 -1600 0
v -1728 -1600 0

# Texture Coorindates (Count = 60)
vt 0.4376221 0.8126221
vt 0.4998779 0.8126221
vt 0.4998779 0.8748779
vt 0.4376221 0.8748779
vt 0.1876221 0.6876221
vt 0.2498779 0.6876221
vt 0.2498779 0.7498779
vt 0.1876221 0.7498779
vt 0.0001220703 0.6876221
vt 0.06237793 0.6876221
vt 0.06237793 0.7498779
vt 0.0001220703 0.7498779
vt 0.06262207 0.6876221
vt 0.1248779 0.6876221
vt 0.1248779 0.7498779
vt 0.06262207 0.7498779
vt 0.1251221 0.6876221
vt 0.1873779 0.6876221
vt 0.1873779 0.7498779
vt 0.1251221 0.7498779
vt 0.2501221 0.6876221
vt 0.3123779 0.6876221
vt 0.3123779 0.7498779
vt 0.2501221 0.7498779
vt 0.3126221 0.6876221
vt 0.3748779 0.6876221
vt 0.3748779 0.7498779
vt 0.3126221 0.7498779
vt 0.3751221 0.6876221
vt 0.4373779 0.6876221
vt 0.4373779 0.7498779
vt 0.3751221 0.7498779
vt 0.4376221 0.6876221
vt 0.4998779 0.6876221
vt 0.4998779 0.7498779
vt 0.4376221 0.7498779
vt 0.0001220703 0.7501221
vt 0.06237793 0.7501221
vt 0.06237793 0.8123779
vt 0.0001220703 0.8123779
vt 0.1251221 0.7501221
vt 0.1873779 0.7501221
vt 0.1873779 0.8123779
vt 0.1251221 0.8123779
vt 0.6876221 0.7501221
vt 0.7498779 0.7501221
vt 0.7498779 0.8123779
vt 0.6876221 0.8123779
vt 0.2501221 0.7501221
vt 0.3123779 0.7501221
vt 0.3123779 0.8123779
vt 0.2501221 0.8123779
vt 0.3126221 0.7501221
vt 0.3748779 0.7501221
vt 0.3748779 0.8123779
vt 0.3126221 0.8123779
vt 0.06262207 0.7501221
vt 0.1248779 0.7501221
vt 0.1248779 0.8123779
vt 0.06262207 0.8123779

# Normal
vn 0 0 -1

# Groups (Count = 3)
g mesh_[00]_[00]
f  1/1/1  2/2/1  3/3/1  4/4/1 
f  2/1/1  5/2/1  6/3/1  3/4/1 
f  5/1/1  7/2/1  8/3/1  6/4/1 
f  7/1/1  9/2/1  10/3/1  8/4/1 
f  9/1/1  11/2/1  12/3/1  10/4/1 
f  11/1/1  13/2/1  14/3/1  12/4/1 
f  13/1/1  15/2/1  16/3/1  14/4/1 
f  15/1/1  17/2/1  18/3/1  16/4/1 
f  17/1/1  19/2/1  20/3/1  18/4/1 
f  21/1/1  22/2/1  2/3/1  1/4/1 
f  22/1/1  23/2/1  5/3/1  2/4/1 
f  23/1/1  24/2/1  7/3/1  5/4/1 
f  24/1/1  25/2/1  9/3/1  7/4/1 
f  25/1/1  26/2/1  11/3/1  9/4/1 
f  26/1/1  27/2/1  13/3/1  11/4/1 
f  27/1/1  28/2/1  15/3/1  13/4/1 
f  28/1/1  29/2/1  17/3/1  15/4/1 
f  29/1/1  30/2/1  19/3/1  17/4/1 
f  31/1/1  32/2/1  22/3/1  21/4/1 
f  32/1/1  33/2/1  23/3/1  22/4/1 
f  33/1/1  34/2/1  24/3/1  23/4/1 
f  34/1/1  35/2/1  25/3/1  24/4/1 
f  35/1/1  36/2/1  26/3/1  25/4/1 
f  36/1/1  37/2/1  27/3/1  26/4/1 
f  37/1/1  38/2/1  28/3/1  27/4/1 
f  38/1/1  39/2/1  29/3/1  28/4/1 
f  39/1/1  40/2/1  30/3/1  29/4/1 
f  41/1/1  42/2/1  32/3/1  31/4/1 
f  42/1/1  43/2/1  33/3/1  32/4/1 
f  43/1/1  44/2/1  34/3/1  33/4/1 
f  44/1/1  45/2/1  35/3/1  34/4/1 
f  45/1/1  46/2/1  36/3/1  35/4/1 
f  46/1/1  47/2/1  37/3/1  36/4/1 
f  47/1/1  48/2/1  38/3/1  37/4/1 
f  48/1/1  49/2/1  39/3/1  38/4/1 
f  49/1/1  50/2/1  40/3/1  39/4/1 
f  51/1/1  52/2/1  42/3/1  41/4/1 
f  52/1/1  53/2/1  43/3/1  42/4/1 
f  53/1/1  54/2/1  44/3/1  43/4/1 
f  54/1/1  55/2/1  45/3/1  44/4/1 
f  55/1/1  56/2/1  46/3/1  45/4/1 
f  56/1/1  57/2/1  47/3/1  46/4/1 
f  57/1/1  58/2/1  48/3/1  47/4/1 
f  58/1/1  59/2/1  49/3/1  48/4/1 
f  59/1/1  60/2/1  50/3/1  49/4/1 
f  61/1/1  62/2/1  52/3/1  51/4/1 
f  62/1/1  63/2/1  53/3/1  52/4/1 
f  63/1/1  64/2/1  54/3/1  53/4/1 
f  64/1/1  65/2/1  55/3/1  54/4/1 
f  65/1/1  66/2/1  56/3/1  55/4/1 
f  66/1/1  67/2/1  57/3/1  56/4/1 
f  67/1/1  68/2/1  58/3/1  57/4/1 
f  68/1/1  69/2/1  59/3/1  58/4/1 
f  69/1/1  70/2/1  60/3/1  59/4/1 
f  71/1/1  72/2/1  62/3/1  61/4/1 
f  72/1/1  73/2/1  63/3/1  62/4/1 
f  73/1/1  74/2/1  64/3/1  63/4/1 
f  74/1/1  75/2/1  65/3/1  64/4/1 
f  75/1/1  76/2/1  66/3/1  65/4/1 
f  76/1/1  77/2/1  67/3/1  66/4/1 
f  77/1/1  78/2/1  68/3/1  67/4/1 
f  78/1/1  79/2/1  69/3/1  68/4/1 
f  79/1/1  80/2/1  70/3/1  69/4/1 
f  81/1/1  82/2/1  72/3/1  71/4/1 
f  82/1/1  83/2/1  73/3/1  72/4/1 
f  83/1/1  84/2/1  74/3/1  73/4/1 
f  84/1/1  85/2/1  75/3/1  74/4/1 
f  85/1/1  86/2/1  76/3/1  75/4/1 
f  86/1/1  87/2/1  77/3/1  76/4/1 
f  87/1/1  88/2/1  78/3/1  77/4/1 
f  88/1/1  89/2/1  79/3/1  78/4/1 
f  89/1/1  90/2/1  80/3/1  79/4/1 
f  91/1/1  92/2/1  81/3/1  93/4/1 
f  92/1/1  94/2/1  82/3/1  81/4/1 
f  94/1/1  95/2/1  83/3/1  82/4/1 
f  95/1/1  96/2/1  84/3/1  83/4/1 
f  96/1/1  97/2/1  85/3/1  84/4/1 
f  97/1/1  98/2/1  86/3/1  85/4/1 
f  98/1/1  99/2/1  87/3/1  86/4/1 
f  99/1/1  100/2/1  88/3/1  87/4/1 
f  100/1/1  101/2/1  89/3/1  88/4/1 
f  101/1/1  102/2/1  90/3/1  89/4/1 
f  103/1/1  104/2/1  94/3/1  92/4/1 
f  104/1/1  105/2/1  95/3/1  94/4/1 
f  105/1/1  106/2/1  96/3/1  95/4/1 
f  106/1/1  107/2/1  97/3/1  96/4/1 
f  107/1/1  108/2/1  98/3/1  97/4/1 
f  108/1/1  109/2/1  99/3/1  98/4/1 
f  109/1/1  110/2/1  100/3/1  99/4/1 
f  110/1/1  111/2/1  101/3/1  100/4/1 
f  111/1/1  112/2/1  102/3/1  101/4/1 
g mesh_[01]_[01]
f  113/5/1  22/6/1  3/7/1  114/8/1 
f  22/9/1  24/10/1  8/11/1  3/12/1 
f  24/13/1  26/14/1  12/15/1  8/16/1 
f  26/17/1  28/18/1  16/19/1  12/20/1 
f  28/5/1  30/6/1  20/7/1  16/8/1 
f  103/21/1  105/22/1  83/23/1  81/24/1 
f  105/25/1  107/26/1  85/27/1  83/28/1 
f  107/29/1  109/30/1  87/31/1  85/32/1 
f  108/29/1  110/30/1  88/31/1  86/32/1 
f  110/33/1  112/34/1  90/35/1  88/36/1 
g mesh_[02]_[00]
f  115/37/1  116/38/1  117/39/1  118/40/1 
f  116/37/1  119/38/1  120/39/1  117/40/1 
f  119/37/1  121/38/1  122/39/1  120/40/1 
f  121/37/1  123/38/1  124/39/1  122/40/1 
f  123/37/1  125/38/1  126/39/1  124/40/1 
f  125/37/1  127/38/1  128/39/1  126/40/1 
f  127/37/1  129/38/1  130/39/1  128/40/1 
f  129/37/1  131/38/1  132/39/1  130/40/1 
f  131/37/1  133/38/1  134/39/1  132/40/1 
f  133/37/1  135/38/1  136/39/1  134/40/1 
f  135/37/1  137/38/1  138/39/1  136/40/1 
f  137/37/1  139/38/1  140/39/1  138/40/1 
f  139/37/1  141/38/1  142/39/1  140/40/1 
f  143/37/1  144/38/1  116/39/1  115/40/1 
f  144/37/1  145/38/1  119/39/1  116/40/1 
f  145/37/1  146/38/1  121/39/1  119/40/1 
f  146/37/1  147/38/1  123/39/1  121/40/1 
f  147/37/1  148/38/1  125/39/1  123/40/1 
f  148/37/1  149/38/1  127/39/1  125/40/1 
f  149/37/1  150/38/1  129/39/1  127/40/1 
f  150/37/1  151/38/1  131/39/1  129/40/1 
f  151/37/1  152/38/1  133/39/1  131/40/1 
f  152/37/1  153/38/1  135/39/1  133/40/1 
f  153/37/1  154/38/1  137/39/1  135/40/1 
f  154/37/1  155/38/1  139/39/1  137/40/1 
f  155/37/1  156/38/1  141/39/1  139/40/1 
f  157/37/1  158/38/1  144/39/1  143/40/1 
f  158/37/1  159/38/1  145/39/1  144/40/1 
f  159/37/1  160/38/1  146/39/1  145/40/1 
f  160/37/1  161/38/1  147/39/1  146/40/1 
f  161/37/1  162/38/1  148/39/1  147/40/1 
f  162/37/1  163/38/1  149/39/1  148/40/1 
f  163/37/1  164/38/1  150/39/1  149/40/1 
f  164/37/1  165/38/1  151/39/1  150/40/1 
f  165/37/1  166/38/1  152/39/1  151/40/1 
f  166/37/1  167/38/1  153/39/1  152/40/1 
f  167/37/1  168/38/1  154/39/1  153/40/1 
f  168/37/1  169/38/1  155/39/1  154/40/1 
f  169/37/1  170/38/1  156/39/1  155/40/1 
f  171/37/1  172/38/1  158/39/1  157/40/1 
f  172/37/1  173/38/1  159/39/1  158/40/1 
f  173/37/1  114/38/1  160/39/1  159/40/1 
f  114/37/1  4/38/1  161/39/1  160/40/1 
f  4/37/1  3/38/1  162/39/1  161/40/1 
f  3/41/1  6/42/1  163/43/1  162/44/1 
f  6/41/1  8/42/1  164/43/1  163/44/1 
f  8/41/1  10/42/1  165/43/1  164/44/1 
f  10/41/1  12/42/1  166/43/1  165/44/1 
f  12/41/1  14/42/1  167/43/1  166/44/1 
f  14/41/1  16/42/1  168/43/1  167/44/1 
f  16/41/1  18/42/1  169/43/1  168/44/1 
f  18/41/1  20/42/1  170/43/1  169/44/1 
f  174/37/1  175/38/1  172/39/1  171/40/1 
f  175/37/1  176/38/1  173/39/1  172/40/1 
f  176/37/1  177/38/1  114/39/1  173/40/1 
f  177/37/1  1/38/1  4/39/1  114/40/1 
f  1/45/1  2/46/1  3/47/1  4/48/1 
f  178/37/1  179/38/1  175/39/1  174/40/1 
f  179/37/1  180/38/1  176/39/1  175/40/1 
f  180/37/1  113/38/1  177/39/1  176/40/1 
f  113/49/1  21/50/1  1/51/1  177/52/1 
f  181/37/1  182/38/1  179/39/1  178/40/1 
f  182/37/1  183/38/1  180/39/1  179/40/1 
f  183/37/1  184/38/1  113/39/1  180/40/1 
f  184/49/1  31/50/1  21/51/1  113/52/1 
f  185/37/1  186/38/1  182/39/1  181/40/1 
f  186/37/1  187/38/1  183/39/1  182/40/1 
f  187/37/1  188/38/1  184/39/1  183/40/1 
f  188/49/1  41/50/1  31/51/1  184/52/1 
f  189/37/1  190/38/1  186/39/1  185/40/1 
f  190/37/1  191/38/1  187/39/1  186/40/1 
f  191/37/1  192/38/1  188/39/1  187/40/1 
f  192/49/1  51/50/1  41/51/1  188/52/1 
f  193/37/1  194/38/1  190/39/1  189/40/1 
f  194/37/1  195/38/1  191/39/1  190/40/1 
f  195/37/1  196/38/1  192/39/1  191/40/1 
f  196/49/1  61/50/1  51/51/1  192/52/1 
f  197/37/1  198/38/1  194/39/1  193/40/1 
f  198/37/1  199/38/1  195/39/1  194/40/1 
f  199/37/1  200/38/1  196/39/1  195/40/1 
f  200/49/1  71/50/1  61/51/1  196/52/1 
f  201/37/1  202/38/1  198/39/1  197/40/1 
f  202/37/1  203/38/1  199/39/1  198/40/1 
f  203/37/1  93/38/1  200/39/1  199/40/1 
f  93/49/1  81/50/1  71/51/1  200/52/1 
f  204/37/1  205/38/1  202/39/1  201/40/1 
f  205/37/1  206/38/1  203/39/1  202/40/1 
f  206/37/1  91/38/1  93/39/1  203/40/1 
f  91/49/1  92/50/1  81/51/1  93/52/1 
f  207/37/1  208/38/1  205/39/1  204/40/1 
f  208/37/1  209/38/1  206/39/1  205/40/1 
f  209/37/1  210/38/1  91/39/1  206/40/1 
f  210/37/1  103/38/1  92/39/1  91/40/1 
f  103/53/1  104/54/1  94/55/1  92/56/1 
f  211/37/1  212/38/1  208/39/1  207/40/1 
f  212/37/1  213/38/1  209/39/1  208/40/1 
f  213/37/1  214/38/1  210/39/1  209/40/1 
f  214/37/1  215/38/1  103/39/1  210/40/1 
f  215/37/1  216/38/1  104/39/1  103/40/1 
f  216/57/1  217/58/1  105/59/1  104/60/1 
f  217/57/1  218/58/1  106/59/1  105/60/1 
f  218/57/1  219/58/1  107/59/1  106/60/1 
f  219/57/1  220/58/1  108/59/1  107/60/1 
f  220/57/1  221/58/1  109/59/1  108/60/1 
f  221/57/1  222/58/1  110/59/1  109/60/1 
f  222/57/1  223/58/1  111/59/1  110/60/1 
f  223/57/1  224/58/1  112/59/1  111/60/1 
f  225/37/1  226/38/1  212/39/1  211/40/1 
f  226/37/1  227/38/1  213/39/1  212/40/1 
f  227/37/1  228/38/1  214/39/1  213/40/1 
f  228/37/1  229/38/1  215/39/1  214/40/1 
f  229/37/1  230/38/1  216/39/1  215/40/1 
f  230/37/1  231/38/1  217/39/1  216/40/1 
f  231/37/1  232/38/1  218/39/1  217/40/1 
f  232/37/1  233/38/1  219/39/1  218/40/1 
f  233/37/1  234/38/1  220/39/1  219/40/1 
f  234/37/1  235/38/1  221/39/1  220/40/1 
f  235/37/1  236/38/1  222/39/1  221/40/1 
f  236/37/1  237/38/1  223/39/1  222/40/1 
f  237/37/1  238/38/1  224/39/1  223/40/1 
f  239/37/1  240/38/1  226/39/1  225/40/1 
f  240/37/1  241/38/1  227/39/1  226/40/1 
f  241/37/1  242/38/1  228/39/1  227/40/1 
f  242/37/1  243/38/1  229/39/1  228/40/1 
f  243/37/1  244/38/1  230/39/1  229/40/1 
f  244/37/1  245/38/1  231/39/1  230/40/1 
f  245/37/1  246/38/1  232/39/1  231/40/1 
f  246/37/1  247/38/1  233/39/1  232/40/1 
f  247/37/1  248/38/1  234/39/1  233/40/1 
f  248/37/1  249/38/1  235/39/1  234/40/1 
f  249/37/1  250/38/1  236/39/1  235/40/1 
f  250/37/1  251/38/1  237/39/1  236/40/1 
f  251/37/1  252/38/1  238/39/1  237/40/1 
f  253/37/1  254/38/1  240/39/1  239/40/1 
f  254/37/1  255/38/1  241/39/1  240/40/1 
f  255/37/1  256/38/1  242/39/1  241/40/1 
f  256/37/1  257/38/1  243/39/1  242/40/1 
f  257/37/1  258/38/1  244/39/1  243/40/1 
f  258/37/1  259/38/1  245/39/1  244/40/1 
f  259/37/1  260/38/1  246/39/1  245/40/1 
f  260/37/1  261/38/1  247/39/1  246/40/1 
f  261/37/1  262/38/1  248/39/1  247/40/1 
f  262/37/1  263/38/1  249/39/1  248/40/1 
f  263/37/1  264/38/1  250/39/1  249/40/1 
f  264/37/1  265/38/1  251/39/1  250/40/1 
f  265/37/1  266/38/1  252/39/1  251/40/1 
