# Wavefront OBJ file automatically generated by Tiled2Unity

# Vertices (Count = 22)
v -3136 -1792 0
v -3200 -1792 0
v -3200 -1728 0
v -3136 -1728 0
v -3264 -1792 0
v -3264 -1728 0
v -3328 -1792 0
v -3328 -1728 0
v -3072 -1856 0
v -3136 -1856 0
v -3072 -1792 0
v -3200 -1856 0
v -3264 -1856 0
v -3328 -1856 0
v -3392 -1856 0
v -3392 -1792 0
v -3072 -1920 0
v -3136 -1920 0
v -3200 -1920 0
v -3264 -1920 0
v -3328 -1920 0
v -3392 -1920 0

# Texture Coorindates (Count = 32)
vt 0.06262207 0.6876221
vt 0.1248779 0.6876221
vt 0.1248779 0.7498779
vt 0.06262207 0.7498779
vt 0.06262207 0.7501221
vt 0.1248779 0.7501221
vt 0.1248779 0.8123779
vt 0.06262207 0.8123779
vt 0.0001220703 0.6876221
vt 0.06237793 0.6876221
vt 0.06237793 0.7498779
vt 0.0001220703 0.7498779
vt 0.3751221 0.7501221
vt 0.4373779 0.7501221
vt 0.4373779 0.8123779
vt 0.3751221 0.8123779
vt 0.8126221 0.7501221
vt 0.8748779 0.7501221
vt 0.8748779 0.8123779
vt 0.8126221 0.8123779
vt 0.0001220703 0.7501221
vt 0.06237793 0.7501221
vt 0.06237793 0.8123779
vt 0.0001220703 0.8123779
vt 0.7501221 0.7501221
vt 0.8123779 0.7501221
vt 0.8123779 0.8123779
vt 0.7501221 0.8123779
vt 0.3126221 0.7501221
vt 0.3748779 0.7501221
vt 0.3748779 0.8123779
vt 0.3126221 0.8123779

# Normal
vn 0 0 -1

# Groups (Count = 1)
g mesh_[00]_[00]
f  1/1/1  2/2/1  3/3/1  4/4/1 
f  2/5/1  5/6/1  6/7/1  3/8/1 
f  5/9/1  7/10/1  8/11/1  6/12/1 
f  9/13/1  10/14/1  1/15/1  11/16/1 
f  10/17/1  12/18/1  2/19/1  1/20/1 
f  12/21/1  13/22/1  5/23/1  2/24/1 
f  13/25/1  14/26/1  7/27/1  5/28/1 
f  14/29/1  15/30/1  16/31/1  7/32/1 
f  17/21/1  18/22/1  10/23/1  9/24/1 
f  18/21/1  19/22/1  12/23/1  10/24/1 
f  19/21/1  20/22/1  13/23/1  12/24/1 
f  20/21/1  21/22/1  14/23/1  13/24/1 
f  21/21/1  22/22/1  15/23/1  14/24/1 
