# Wavefront OBJ file automatically generated by Tiled2Unity

# Vertices (Count = 338)
v -832 -768 0
v -896 -768 0
v -896 -704 0
v -832 -704 0
v -960 -768 0
v -960 -704 0
v -1024 -768 0
v -1024 -704 0
v -1088 -768 0
v -1088 -704 0
v -1152 -768 0
v -1152 -704 0
v -1216 -768 0
v -1216 -704 0
v -1280 -768 0
v -1280 -704 0
v -1344 -768 0
v -1344 -704 0
v -1408 -768 0
v -1408 -704 0
v -1472 -768 0
v -1472 -704 0
v -1536 -768 0
v -1536 -704 0
v -1600 -768 0
v -1600 -704 0
v -832 -832 0
v -896 -832 0
v -960 -832 0
v -1024 -832 0
v -1088 -832 0
v -1152 -832 0
v -1216 -832 0
v -1280 -832 0
v -1344 -832 0
v -1408 -832 0
v -1472 -832 0
v -1536 -832 0
v -1600 -832 0
v -832 -896 0
v -896 -896 0
v -960 -896 0
v -1024 -896 0
v -1088 -896 0
v -1152 -896 0
v -1216 -896 0
v -1280 -896 0
v -1344 -896 0
v -1408 -896 0
v -1472 -896 0
v -1536 -896 0
v -1600 -896 0
v -832 -960 0
v -896 -960 0
v -960 -960 0
v -1024 -960 0
v -1088 -960 0
v -1152 -960 0
v -1216 -960 0
v -1280 -960 0
v -1344 -960 0
v -1408 -960 0
v -1472 -960 0
v -1536 -960 0
v -1600 -960 0
v -832 -1024 0
v -896 -1024 0
v -960 -1024 0
v -1024 -1024 0
v -1088 -1024 0
v -1152 -1024 0
v -1216 -1024 0
v -1280 -1024 0
v -1344 -1024 0
v -1408 -1024 0
v -1472 -1024 0
v -1536 -1024 0
v -1600 -1024 0
v -832 -1088 0
v -896 -1088 0
v -960 -1088 0
v -1024 -1088 0
v -1088 -1088 0
v -1152 -1088 0
v -1216 -1088 0
v -1280 -1088 0
v -1344 -1088 0
v -1408 -1088 0
v -1472 -1088 0
v -1536 -1088 0
v -1600 -1088 0
v -832 -1152 0
v -896 -1152 0
v -960 -1152 0
v -1024 -1152 0
v -1088 -1152 0
v -1152 -1152 0
v -1216 -1152 0
v -1280 -1152 0
v -1344 -1152 0
v -1408 -1152 0
v -1472 -1152 0
v -1536 -1152 0
v -1600 -1152 0
v -832 -1216 0
v -896 -1216 0
v -960 -1216 0
v -1024 -1216 0
v -1088 -1216 0
v -1152 -1216 0
v -1216 -1216 0
v -1280 -1216 0
v -1344 -1216 0
v -1408 -1216 0
v -1472 -1216 0
v -1536 -1216 0
v -1600 -1216 0
v -832 -1280 0
v -896 -1280 0
v -960 -1280 0
v -1024 -1280 0
v -1088 -1280 0
v -1152 -1280 0
v -1216 -1280 0
v -1280 -1280 0
v -1344 -1280 0
v -1408 -1280 0
v -1472 -1280 0
v -1536 -1280 0
v -1600 -1280 0
v -832 -1344 0
v -896 -1344 0
v -960 -1344 0
v -1024 -1344 0
v -1088 -1344 0
v -1152 -1344 0
v -1216 -1344 0
v -1280 -1344 0
v -1344 -1344 0
v -1408 -1344 0
v -1472 -1344 0
v -1536 -1344 0
v -1600 -1344 0
v -832 -1408 0
v -896 -1408 0
v -960 -1408 0
v -1024 -1408 0
v -1088 -1408 0
v -1152 -1408 0
v -1216 -1408 0
v -1280 -1408 0
v -1344 -1408 0
v -1408 -1408 0
v -1472 -1408 0
v -1536 -1408 0
v -1600 -1408 0
v -832 -1472 0
v -896 -1472 0
v -960 -1472 0
v -1024 -1472 0
v -1088 -1472 0
v -1152 -1472 0
v -1216 -1472 0
v -1280 -1472 0
v -1344 -1472 0
v -1408 -1472 0
v -1472 -1472 0
v -1536 -1472 0
v -1600 -1472 0
v -832 -1536 0
v -896 -1536 0
v -960 -1536 0
v -1024 -1536 0
v -1088 -1536 0
v -1152 -1536 0
v -1216 -1536 0
v -1280 -1536 0
v -1344 -1536 0
v -1408 -1536 0
v -1472 -1536 0
v -1536 -1536 0
v -1600 -1536 0
v -832 -1600 0
v -896 -1600 0
v -960 -1600 0
v -1024 -1600 0
v -1088 -1600 0
v -1152 -1600 0
v -1216 -1600 0
v -1280 -1600 0
v -1344 -1600 0
v -1408 -1600 0
v -1472 -1600 0
v -1536 -1600 0
v -1600 -1600 0
v -832 -1664 0
v -896 -1664 0
v -960 -1664 0
v -1024 -1664 0
v -1088 -1664 0
v -1152 -1664 0
v -1216 -1664 0
v -1280 -1664 0
v -1344 -1664 0
v -1408 -1664 0
v -1472 -1664 0
v -1536 -1664 0
v -1600 -1664 0
v -1024 -1728 0
v -1152 -1728 0
v -832 -448 0
v -896 -448 0
v -896 -384 0
v -832 -384 0
v -960 -448 0
v -960 -384 0
v -1024 -448 0
v -1024 -384 0
v -1088 -448 0
v -1088 -384 0
v -1152 -448 0
v -1152 -384 0
v -1216 -448 0
v -1216 -384 0
v -1280 -448 0
v -1280 -384 0
v -1344 -448 0
v -1344 -384 0
v -1408 -448 0
v -1408 -384 0
v -1472 -448 0
v -1472 -384 0
v -1536 -448 0
v -1536 -384 0
v -1600 -448 0
v -1600 -384 0
v -832 -512 0
v -896 -512 0
v -960 -512 0
v -1024 -512 0
v -1088 -512 0
v -1152 -512 0
v -1216 -512 0
v -1280 -512 0
v -1344 -512 0
v -1408 -512 0
v -1472 -512 0
v -1536 -512 0
v -1600 -512 0
v -832 -576 0
v -896 -576 0
v -960 -576 0
v -1024 -576 0
v -1088 -576 0
v -1152 -576 0
v -1216 -576 0
v -1280 -576 0
v -1344 -576 0
v -1408 -576 0
v -1472 -576 0
v -1536 -576 0
v -1600 -576 0
v -832 -640 0
v -896 -640 0
v -960 -640 0
v -1024 -640 0
v -1088 -640 0
v -1152 -640 0
v -1216 -640 0
v -1280 -640 0
v -1344 -640 0
v -1408 -640 0
v -1472 -640 0
v -1536 -640 0
v -1600 -640 0
v -832 -1728 0
v -896 -1728 0
v -960 -1728 0
v -1088 -1728 0
v -1216 -1728 0
v -1280 -1728 0
v -1344 -1728 0
v -1408 -1728 0
v -1472 -1728 0
v -1536 -1728 0
v -1600 -1728 0
v -832 -1792 0
v -896 -1792 0
v -960 -1792 0
v -1024 -1792 0
v -1088 -1792 0
v -1152 -1792 0
v -1216 -1792 0
v -1280 -1792 0
v -1344 -1792 0
v -1408 -1792 0
v -1472 -1792 0
v -1536 -1792 0
v -1600 -1792 0
v -832 -1856 0
v -896 -1856 0
v -960 -1856 0
v -1024 -1856 0
v -1088 -1856 0
v -1152 -1856 0
v -1216 -1856 0
v -1280 -1856 0
v -1344 -1856 0
v -1408 -1856 0
v -1472 -1856 0
v -1536 -1856 0
v -1600 -1856 0
v -832 -1920 0
v -896 -1920 0
v -960 -1920 0
v -1024 -1920 0
v -1088 -1920 0
v -1152 -1920 0
v -1216 -1920 0
v -1280 -1920 0
v -1344 -1920 0
v -1408 -1920 0
v -1472 -1920 0
v -1536 -1920 0
v -1600 -1920 0
v -832 -1984 0
v -896 -1984 0
v -960 -1984 0
v -1024 -1984 0
v -1088 -1984 0
v -1152 -1984 0
v -1216 -1984 0
v -1280 -1984 0
v -1344 -1984 0
v -1408 -1984 0
v -1472 -1984 0
v -1536 -1984 0
v -1600 -1984 0

# Texture Coorindates (Count = 52)
vt 0.4376221 0.8126221
vt 0.4998779 0.8126221
vt 0.4998779 0.8748779
vt 0.4376221 0.8748779
vt 0.0001220703 0.6876221
vt 0.06237793 0.6876221
vt 0.06237793 0.7498779
vt 0.0001220703 0.7498779
vt 0.06262207 0.6876221
vt 0.1248779 0.6876221
vt 0.1248779 0.7498779
vt 0.06262207 0.7498779
vt 0.1251221 0.6876221
vt 0.1873779 0.6876221
vt 0.1873779 0.7498779
vt 0.1251221 0.7498779
vt 0.1876221 0.6876221
vt 0.2498779 0.6876221
vt 0.2498779 0.7498779
vt 0.1876221 0.7498779
vt 0.0001220703 0.4376221
vt 0.06237793 0.4376221
vt 0.06237793 0.4998779
vt 0.0001220703 0.4998779
vt 0.4376221 0.6876221
vt 0.4998779 0.6876221
vt 0.4998779 0.7498779
vt 0.4376221 0.7498779
vt 0.2501221 0.6876221
vt 0.3123779 0.6876221
vt 0.3123779 0.7498779
vt 0.2501221 0.7498779
vt 0.3126221 0.6876221
vt 0.3748779 0.6876221
vt 0.3748779 0.7498779
vt 0.3126221 0.7498779
vt 0.3751221 0.6876221
vt 0.4373779 0.6876221
vt 0.4373779 0.7498779
vt 0.3751221 0.7498779
vt 0.0001220703 0.7501221
vt 0.06237793 0.7501221
vt 0.06237793 0.8123779
vt 0.0001220703 0.8123779
vt 0.1251221 0.7501221
vt 0.1873779 0.7501221
vt 0.1873779 0.8123779
vt 0.1251221 0.8123779
vt 0.06262207 0.7501221
vt 0.1248779 0.7501221
vt 0.1248779 0.8123779
vt 0.06262207 0.8123779

# Normal
vn 0 0 -1

# Groups (Count = 3)
g mesh_[00]_[00]
f  1/1/1  2/2/1  3/3/1  4/4/1 
f  2/1/1  5/2/1  6/3/1  3/4/1 
f  5/1/1  7/2/1  8/3/1  6/4/1 
f  7/1/1  9/2/1  10/3/1  8/4/1 
f  9/1/1  11/2/1  12/3/1  10/4/1 
f  11/1/1  13/2/1  14/3/1  12/4/1 
f  13/1/1  15/2/1  16/3/1  14/4/1 
f  15/1/1  17/2/1  18/3/1  16/4/1 
f  17/1/1  19/2/1  20/3/1  18/4/1 
f  19/1/1  21/2/1  22/3/1  20/4/1 
f  21/1/1  23/2/1  24/3/1  22/4/1 
f  23/1/1  25/2/1  26/3/1  24/4/1 
f  27/1/1  28/2/1  2/3/1  1/4/1 
f  28/1/1  29/2/1  5/3/1  2/4/1 
f  29/1/1  30/2/1  7/3/1  5/4/1 
f  30/1/1  31/2/1  9/3/1  7/4/1 
f  31/1/1  32/2/1  11/3/1  9/4/1 
f  32/1/1  33/2/1  13/3/1  11/4/1 
f  33/1/1  34/2/1  15/3/1  13/4/1 
f  34/1/1  35/2/1  17/3/1  15/4/1 
f  35/1/1  36/2/1  19/3/1  17/4/1 
f  36/1/1  37/2/1  21/3/1  19/4/1 
f  37/1/1  38/2/1  23/3/1  21/4/1 
f  38/1/1  39/2/1  25/3/1  23/4/1 
f  40/1/1  41/2/1  28/3/1  27/4/1 
f  41/1/1  42/2/1  29/3/1  28/4/1 
f  42/1/1  43/2/1  30/3/1  29/4/1 
f  43/1/1  44/2/1  31/3/1  30/4/1 
f  44/1/1  45/2/1  32/3/1  31/4/1 
f  45/1/1  46/2/1  33/3/1  32/4/1 
f  46/1/1  47/2/1  34/3/1  33/4/1 
f  47/1/1  48/2/1  35/3/1  34/4/1 
f  48/1/1  49/2/1  36/3/1  35/4/1 
f  49/1/1  50/2/1  37/3/1  36/4/1 
f  50/1/1  51/2/1  38/3/1  37/4/1 
f  51/1/1  52/2/1  39/3/1  38/4/1 
f  53/1/1  54/2/1  41/3/1  40/4/1 
f  54/1/1  55/2/1  42/3/1  41/4/1 
f  55/1/1  56/2/1  43/3/1  42/4/1 
f  56/1/1  57/2/1  44/3/1  43/4/1 
f  57/1/1  58/2/1  45/3/1  44/4/1 
f  58/1/1  59/2/1  46/3/1  45/4/1 
f  59/1/1  60/2/1  47/3/1  46/4/1 
f  60/1/1  61/2/1  48/3/1  47/4/1 
f  61/1/1  62/2/1  49/3/1  48/4/1 
f  62/1/1  63/2/1  50/3/1  49/4/1 
f  63/1/1  64/2/1  51/3/1  50/4/1 
f  64/1/1  65/2/1  52/3/1  51/4/1 
f  66/1/1  67/2/1  54/3/1  53/4/1 
f  67/1/1  68/2/1  55/3/1  54/4/1 
f  68/1/1  69/2/1  56/3/1  55/4/1 
f  69/1/1  70/2/1  57/3/1  56/4/1 
f  70/1/1  71/2/1  58/3/1  57/4/1 
f  71/1/1  72/2/1  59/3/1  58/4/1 
f  72/1/1  73/2/1  60/3/1  59/4/1 
f  73/1/1  74/2/1  61/3/1  60/4/1 
f  74/1/1  75/2/1  62/3/1  61/4/1 
f  75/1/1  76/2/1  63/3/1  62/4/1 
f  76/1/1  77/2/1  64/3/1  63/4/1 
f  77/1/1  78/2/1  65/3/1  64/4/1 
f  79/1/1  80/2/1  67/3/1  66/4/1 
f  80/1/1  81/2/1  68/3/1  67/4/1 
f  81/1/1  82/2/1  69/3/1  68/4/1 
f  82/1/1  83/2/1  70/3/1  69/4/1 
f  83/1/1  84/2/1  71/3/1  70/4/1 
f  84/1/1  85/2/1  72/3/1  71/4/1 
f  85/1/1  86/2/1  73/3/1  72/4/1 
f  86/1/1  87/2/1  74/3/1  73/4/1 
f  87/1/1  88/2/1  75/3/1  74/4/1 
f  88/1/1  89/2/1  76/3/1  75/4/1 
f  89/1/1  90/2/1  77/3/1  76/4/1 
f  90/1/1  91/2/1  78/3/1  77/4/1 
f  92/1/1  93/2/1  80/3/1  79/4/1 
f  93/1/1  94/2/1  81/3/1  80/4/1 
f  94/1/1  95/2/1  82/3/1  81/4/1 
f  95/1/1  96/2/1  83/3/1  82/4/1 
f  96/1/1  97/2/1  84/3/1  83/4/1 
f  97/1/1  98/2/1  85/3/1  84/4/1 
f  98/1/1  99/2/1  86/3/1  85/4/1 
f  99/1/1  100/2/1  87/3/1  86/4/1 
f  100/1/1  101/2/1  88/3/1  87/4/1 
f  101/1/1  102/2/1  89/3/1  88/4/1 
f  102/1/1  103/2/1  90/3/1  89/4/1 
f  103/1/1  104/2/1  91/3/1  90/4/1 
f  105/1/1  106/2/1  93/3/1  92/4/1 
f  106/1/1  107/2/1  94/3/1  93/4/1 
f  107/1/1  108/2/1  95/3/1  94/4/1 
f  108/1/1  109/2/1  96/3/1  95/4/1 
f  109/1/1  110/2/1  97/3/1  96/4/1 
f  110/1/1  111/2/1  98/3/1  97/4/1 
f  111/1/1  112/2/1  99/3/1  98/4/1 
f  112/1/1  113/2/1  100/3/1  99/4/1 
f  113/1/1  114/2/1  101/3/1  100/4/1 
f  114/1/1  115/2/1  102/3/1  101/4/1 
f  115/1/1  116/2/1  103/3/1  102/4/1 
f  116/1/1  117/2/1  104/3/1  103/4/1 
f  118/1/1  119/2/1  106/3/1  105/4/1 
f  119/1/1  120/2/1  107/3/1  106/4/1 
f  120/1/1  121/2/1  108/3/1  107/4/1 
f  121/1/1  122/2/1  109/3/1  108/4/1 
f  122/1/1  123/2/1  110/3/1  109/4/1 
f  123/1/1  124/2/1  111/3/1  110/4/1 
f  124/1/1  125/2/1  112/3/1  111/4/1 
f  125/1/1  126/2/1  113/3/1  112/4/1 
f  126/1/1  127/2/1  114/3/1  113/4/1 
f  127/1/1  128/2/1  115/3/1  114/4/1 
f  128/1/1  129/2/1  116/3/1  115/4/1 
f  129/1/1  130/2/1  117/3/1  116/4/1 
f  131/1/1  132/2/1  119/3/1  118/4/1 
f  132/1/1  133/2/1  120/3/1  119/4/1 
f  133/1/1  134/2/1  121/3/1  120/4/1 
f  134/1/1  135/2/1  122/3/1  121/4/1 
f  135/1/1  136/2/1  123/3/1  122/4/1 
f  136/1/1  137/2/1  124/3/1  123/4/1 
f  137/1/1  138/2/1  125/3/1  124/4/1 
f  138/1/1  139/2/1  126/3/1  125/4/1 
f  139/1/1  140/2/1  127/3/1  126/4/1 
f  140/1/1  141/2/1  128/3/1  127/4/1 
f  141/1/1  142/2/1  129/3/1  128/4/1 
f  142/1/1  143/2/1  130/3/1  129/4/1 
f  144/1/1  145/2/1  132/3/1  131/4/1 
f  145/1/1  146/2/1  133/3/1  132/4/1 
f  146/1/1  147/2/1  134/3/1  133/4/1 
f  147/1/1  148/2/1  135/3/1  134/4/1 
f  148/1/1  149/2/1  136/3/1  135/4/1 
f  149/1/1  150/2/1  137/3/1  136/4/1 
f  150/1/1  151/2/1  138/3/1  137/4/1 
f  151/1/1  152/2/1  139/3/1  138/4/1 
f  152/1/1  153/2/1  140/3/1  139/4/1 
f  153/1/1  154/2/1  141/3/1  140/4/1 
f  154/1/1  155/2/1  142/3/1  141/4/1 
f  155/1/1  156/2/1  143/3/1  142/4/1 
f  157/1/1  158/2/1  145/3/1  144/4/1 
f  158/1/1  159/2/1  146/3/1  145/4/1 
f  159/1/1  160/2/1  147/3/1  146/4/1 
f  160/1/1  161/2/1  148/3/1  147/4/1 
f  161/1/1  162/2/1  149/3/1  148/4/1 
f  162/1/1  163/2/1  150/3/1  149/4/1 
f  163/1/1  164/2/1  151/3/1  150/4/1 
f  164/1/1  165/2/1  152/3/1  151/4/1 
f  165/1/1  166/2/1  153/3/1  152/4/1 
f  166/1/1  167/2/1  154/3/1  153/4/1 
f  167/1/1  168/2/1  155/3/1  154/4/1 
f  168/1/1  169/2/1  156/3/1  155/4/1 
f  170/1/1  171/2/1  158/3/1  157/4/1 
f  171/1/1  172/2/1  159/3/1  158/4/1 
f  172/1/1  173/2/1  160/3/1  159/4/1 
f  173/1/1  174/2/1  161/3/1  160/4/1 
f  174/1/1  175/2/1  162/3/1  161/4/1 
f  175/1/1  176/2/1  163/3/1  162/4/1 
f  176/1/1  177/2/1  164/3/1  163/4/1 
f  177/1/1  178/2/1  165/3/1  164/4/1 
f  178/1/1  179/2/1  166/3/1  165/4/1 
f  179/1/1  180/2/1  167/3/1  166/4/1 
f  180/1/1  181/2/1  168/3/1  167/4/1 
f  181/1/1  182/2/1  169/3/1  168/4/1 
f  183/1/1  184/2/1  171/3/1  170/4/1 
f  184/1/1  185/2/1  172/3/1  171/4/1 
f  185/1/1  186/2/1  173/3/1  172/4/1 
f  186/1/1  187/2/1  174/3/1  173/4/1 
f  187/1/1  188/2/1  175/3/1  174/4/1 
f  188/1/1  189/2/1  176/3/1  175/4/1 
f  189/1/1  190/2/1  177/3/1  176/4/1 
f  190/1/1  191/2/1  178/3/1  177/4/1 
f  191/1/1  192/2/1  179/3/1  178/4/1 
f  192/1/1  193/2/1  180/3/1  179/4/1 
f  193/1/1  194/2/1  181/3/1  180/4/1 
f  194/1/1  195/2/1  182/3/1  181/4/1 
f  196/1/1  197/2/1  184/3/1  183/4/1 
f  197/1/1  198/2/1  185/3/1  184/4/1 
f  198/1/1  199/2/1  186/3/1  185/4/1 
f  199/1/1  200/2/1  187/3/1  186/4/1 
f  200/1/1  201/2/1  188/3/1  187/4/1 
f  201/1/1  202/2/1  189/3/1  188/4/1 
f  202/1/1  203/2/1  190/3/1  189/4/1 
f  203/1/1  204/2/1  191/3/1  190/4/1 
f  204/1/1  205/2/1  192/3/1  191/4/1 
f  205/1/1  206/2/1  193/3/1  192/4/1 
f  206/1/1  207/2/1  194/3/1  193/4/1 
f  207/1/1  208/2/1  195/3/1  194/4/1 
g mesh_[01]_[01]
f  27/5/1  29/6/1  6/7/1  4/8/1 
f  29/9/1  31/10/1  10/11/1  6/12/1 
f  31/13/1  33/14/1  14/15/1  10/16/1 
f  33/17/1  35/18/1  18/19/1  14/20/1 
f  35/9/1  37/10/1  22/11/1  18/12/1 
f  36/5/1  38/6/1  24/7/1  20/8/1 
f  37/5/1  39/6/1  26/7/1  22/8/1 
f  196/21/1  198/22/1  172/23/1  170/24/1 
f  198/25/1  200/26/1  174/27/1  172/28/1 
f  202/29/1  204/30/1  178/31/1  176/32/1 
f  204/33/1  206/34/1  180/35/1  178/36/1 
f  206/37/1  208/38/1  182/39/1  180/40/1 
f  209/21/1  210/22/1  188/23/1  186/24/1 
g mesh_[02]_[00]
f  211/41/1  212/42/1  213/43/1  214/44/1 
f  212/41/1  215/42/1  216/43/1  213/44/1 
f  215/41/1  217/42/1  218/43/1  216/44/1 
f  217/41/1  219/42/1  220/43/1  218/44/1 
f  219/41/1  221/42/1  222/43/1  220/44/1 
f  221/41/1  223/42/1  224/43/1  222/44/1 
f  223/41/1  225/42/1  226/43/1  224/44/1 
f  225/41/1  227/42/1  228/43/1  226/44/1 
f  227/41/1  229/42/1  230/43/1  228/44/1 
f  229/41/1  231/42/1  232/43/1  230/44/1 
f  231/41/1  233/42/1  234/43/1  232/44/1 
f  233/41/1  235/42/1  236/43/1  234/44/1 
f  237/41/1  238/42/1  212/43/1  211/44/1 
f  238/41/1  239/42/1  215/43/1  212/44/1 
f  239/41/1  240/42/1  217/43/1  215/44/1 
f  240/41/1  241/42/1  219/43/1  217/44/1 
f  241/41/1  242/42/1  221/43/1  219/44/1 
f  242/41/1  243/42/1  223/43/1  221/44/1 
f  243/41/1  244/42/1  225/43/1  223/44/1 
f  244/41/1  245/42/1  227/43/1  225/44/1 
f  245/41/1  246/42/1  229/43/1  227/44/1 
f  246/41/1  247/42/1  231/43/1  229/44/1 
f  247/41/1  248/42/1  233/43/1  231/44/1 
f  248/41/1  249/42/1  235/43/1  233/44/1 
f  250/41/1  251/42/1  238/43/1  237/44/1 
f  251/41/1  252/42/1  239/43/1  238/44/1 
f  252/41/1  253/42/1  240/43/1  239/44/1 
f  253/41/1  254/42/1  241/43/1  240/44/1 
f  254/41/1  255/42/1  242/43/1  241/44/1 
f  255/41/1  256/42/1  243/43/1  242/44/1 
f  256/41/1  257/42/1  244/43/1  243/44/1 
f  257/41/1  258/42/1  245/43/1  244/44/1 
f  258/41/1  259/42/1  246/43/1  245/44/1 
f  259/41/1  260/42/1  247/43/1  246/44/1 
f  260/41/1  261/42/1  248/43/1  247/44/1 
f  261/41/1  262/42/1  249/43/1  248/44/1 
f  263/41/1  264/42/1  251/43/1  250/44/1 
f  264/41/1  265/42/1  252/43/1  251/44/1 
f  265/41/1  266/42/1  253/43/1  252/44/1 
f  266/41/1  267/42/1  254/43/1  253/44/1 
f  267/41/1  268/42/1  255/43/1  254/44/1 
f  268/41/1  269/42/1  256/43/1  255/44/1 
f  269/41/1  270/42/1  257/43/1  256/44/1 
f  270/41/1  271/42/1  258/43/1  257/44/1 
f  271/41/1  272/42/1  259/43/1  258/44/1 
f  272/41/1  273/42/1  260/43/1  259/44/1 
f  273/41/1  274/42/1  261/43/1  260/44/1 
f  274/41/1  275/42/1  262/43/1  261/44/1 
f  4/45/1  3/46/1  264/47/1  263/48/1 
f  3/45/1  6/46/1  265/47/1  264/48/1 
f  6/45/1  8/46/1  266/47/1  265/48/1 
f  8/45/1  10/46/1  267/47/1  266/48/1 
f  10/45/1  12/46/1  268/47/1  267/48/1 
f  12/45/1  14/46/1  269/47/1  268/48/1 
f  14/45/1  16/46/1  270/47/1  269/48/1 
f  16/45/1  18/46/1  271/47/1  270/48/1 
f  18/45/1  20/46/1  272/47/1  271/48/1 
f  20/45/1  22/46/1  273/47/1  272/48/1 
f  22/45/1  24/46/1  274/47/1  273/48/1 
f  24/45/1  26/46/1  275/47/1  274/48/1 
f  276/49/1  277/50/1  197/51/1  196/52/1 
f  277/49/1  278/50/1  198/51/1  197/52/1 
f  278/49/1  209/50/1  199/51/1  198/52/1 
f  209/49/1  279/50/1  200/51/1  199/52/1 
f  279/49/1  210/50/1  201/51/1  200/52/1 
f  210/49/1  280/50/1  202/51/1  201/52/1 
f  280/49/1  281/50/1  203/51/1  202/52/1 
f  281/49/1  282/50/1  204/51/1  203/52/1 
f  282/49/1  283/50/1  205/51/1  204/52/1 
f  283/49/1  284/50/1  206/51/1  205/52/1 
f  284/49/1  285/50/1  207/51/1  206/52/1 
f  285/49/1  286/50/1  208/51/1  207/52/1 
f  287/41/1  288/42/1  277/43/1  276/44/1 
f  288/41/1  289/42/1  278/43/1  277/44/1 
f  289/41/1  290/42/1  209/43/1  278/44/1 
f  290/41/1  291/42/1  279/43/1  209/44/1 
f  291/41/1  292/42/1  210/43/1  279/44/1 
f  292/41/1  293/42/1  280/43/1  210/44/1 
f  293/41/1  294/42/1  281/43/1  280/44/1 
f  294/41/1  295/42/1  282/43/1  281/44/1 
f  295/41/1  296/42/1  283/43/1  282/44/1 
f  296/41/1  297/42/1  284/43/1  283/44/1 
f  297/41/1  298/42/1  285/43/1  284/44/1 
f  298/41/1  299/42/1  286/43/1  285/44/1 
f  300/41/1  301/42/1  288/43/1  287/44/1 
f  301/41/1  302/42/1  289/43/1  288/44/1 
f  302/41/1  303/42/1  290/43/1  289/44/1 
f  303/41/1  304/42/1  291/43/1  290/44/1 
f  304/41/1  305/42/1  292/43/1  291/44/1 
f  305/41/1  306/42/1  293/43/1  292/44/1 
f  306/41/1  307/42/1  294/43/1  293/44/1 
f  307/41/1  308/42/1  295/43/1  294/44/1 
f  308/41/1  309/42/1  296/43/1  295/44/1 
f  309/41/1  310/42/1  297/43/1  296/44/1 
f  310/41/1  311/42/1  298/43/1  297/44/1 
f  311/41/1  312/42/1  299/43/1  298/44/1 
f  313/41/1  314/42/1  301/43/1  300/44/1 
f  314/41/1  315/42/1  302/43/1  301/44/1 
f  315/41/1  316/42/1  303/43/1  302/44/1 
f  316/41/1  317/42/1  304/43/1  303/44/1 
f  317/41/1  318/42/1  305/43/1  304/44/1 
f  318/41/1  319/42/1  306/43/1  305/44/1 
f  319/41/1  320/42/1  307/43/1  306/44/1 
f  320/41/1  321/42/1  308/43/1  307/44/1 
f  321/41/1  322/42/1  309/43/1  308/44/1 
f  322/41/1  323/42/1  310/43/1  309/44/1 
f  323/41/1  324/42/1  311/43/1  310/44/1 
f  324/41/1  325/42/1  312/43/1  311/44/1 
f  326/41/1  327/42/1  314/43/1  313/44/1 
f  327/41/1  328/42/1  315/43/1  314/44/1 
f  328/41/1  329/42/1  316/43/1  315/44/1 
f  329/41/1  330/42/1  317/43/1  316/44/1 
f  330/41/1  331/42/1  318/43/1  317/44/1 
f  331/41/1  332/42/1  319/43/1  318/44/1 
f  332/41/1  333/42/1  320/43/1  319/44/1 
f  333/41/1  334/42/1  321/43/1  320/44/1 
f  334/41/1  335/42/1  322/43/1  321/44/1 
f  335/41/1  336/42/1  323/43/1  322/44/1 
f  336/41/1  337/42/1  324/43/1  323/44/1 
f  337/41/1  338/42/1  325/43/1  324/44/1 
