# Wavefront OBJ file automatically generated by Tiled2Unity

# Vertices (Count = 312)
v -1472 -768 0
v -1536 -768 0
v -1536 -704 0
v -1472 -704 0
v -1600 -768 0
v -1600 -704 0
v -1664 -768 0
v -1664 -704 0
v -1728 -768 0
v -1728 -704 0
v -1792 -768 0
v -1792 -704 0
v -1856 -768 0
v -1856 -704 0
v -1920 -768 0
v -1920 -704 0
v -1984 -768 0
v -1984 -704 0
v -2048 -768 0
v -2048 -704 0
v -2112 -768 0
v -2112 -704 0
v -2176 -768 0
v -2176 -704 0
v -1472 -832 0
v -1536 -832 0
v -1600 -832 0
v -1664 -832 0
v -1728 -832 0
v -1792 -832 0
v -1856 -832 0
v -1920 -832 0
v -1984 -832 0
v -2048 -832 0
v -2112 -832 0
v -2176 -832 0
v -1472 -896 0
v -1536 -896 0
v -1600 -896 0
v -1664 -896 0
v -1728 -896 0
v -1792 -896 0
v -1856 -896 0
v -1920 -896 0
v -1984 -896 0
v -2048 -896 0
v -2112 -896 0
v -2176 -896 0
v -1472 -960 0
v -1536 -960 0
v -1600 -960 0
v -1664 -960 0
v -1728 -960 0
v -1792 -960 0
v -1856 -960 0
v -1920 -960 0
v -1984 -960 0
v -2048 -960 0
v -2112 -960 0
v -2176 -960 0
v -1472 -1024 0
v -1536 -1024 0
v -1600 -1024 0
v -1664 -1024 0
v -1728 -1024 0
v -1792 -1024 0
v -1856 -1024 0
v -1920 -1024 0
v -1984 -1024 0
v -2048 -1024 0
v -2112 -1024 0
v -2176 -1024 0
v -1472 -1088 0
v -1536 -1088 0
v -1600 -1088 0
v -1664 -1088 0
v -1728 -1088 0
v -1792 -1088 0
v -1856 -1088 0
v -1920 -1088 0
v -1984 -1088 0
v -2048 -1088 0
v -2112 -1088 0
v -2176 -1088 0
v -1472 -1152 0
v -1536 -1152 0
v -1600 -1152 0
v -1664 -1152 0
v -1728 -1152 0
v -1792 -1152 0
v -1856 -1152 0
v -1920 -1152 0
v -1984 -1152 0
v -2048 -1152 0
v -2112 -1152 0
v -2176 -1152 0
v -1472 -1216 0
v -1536 -1216 0
v -1600 -1216 0
v -1664 -1216 0
v -1728 -1216 0
v -1792 -1216 0
v -1856 -1216 0
v -1920 -1216 0
v -1984 -1216 0
v -2048 -1216 0
v -2112 -1216 0
v -2176 -1216 0
v -1472 -1280 0
v -1536 -1280 0
v -1600 -1280 0
v -1664 -1280 0
v -1728 -1280 0
v -1792 -1280 0
v -1856 -1280 0
v -1920 -1280 0
v -1984 -1280 0
v -2048 -1280 0
v -2112 -1280 0
v -2176 -1280 0
v -1472 -1344 0
v -1536 -1344 0
v -1600 -1344 0
v -1664 -1344 0
v -1728 -1344 0
v -1792 -1344 0
v -1856 -1344 0
v -1920 -1344 0
v -1984 -1344 0
v -2048 -1344 0
v -2112 -1344 0
v -2176 -1344 0
v -1472 -1408 0
v -1536 -1408 0
v -1600 -1408 0
v -1664 -1408 0
v -1728 -1408 0
v -1792 -1408 0
v -1856 -1408 0
v -1920 -1408 0
v -1984 -1408 0
v -2048 -1408 0
v -2112 -1408 0
v -2176 -1408 0
v -1472 -1472 0
v -1536 -1472 0
v -1600 -1472 0
v -1664 -1472 0
v -1728 -1472 0
v -1792 -1472 0
v -1856 -1472 0
v -1920 -1472 0
v -1984 -1472 0
v -2048 -1472 0
v -2112 -1472 0
v -2176 -1472 0
v -1472 -1536 0
v -1536 -1536 0
v -1600 -1536 0
v -1664 -1536 0
v -1728 -1536 0
v -1792 -1536 0
v -1856 -1536 0
v -1920 -1536 0
v -1984 -1536 0
v -2048 -1536 0
v -2112 -1536 0
v -2176 -1536 0
v -1472 -1600 0
v -1536 -1600 0
v -1600 -1600 0
v -1664 -1600 0
v -1728 -1600 0
v -1792 -1600 0
v -1856 -1600 0
v -1920 -1600 0
v -1984 -1600 0
v -2048 -1600 0
v -2112 -1600 0
v -2176 -1600 0
v -1472 -1664 0
v -1536 -1664 0
v -1600 -1664 0
v -1664 -1664 0
v -1728 -1664 0
v -1792 -1664 0
v -1856 -1664 0
v -1920 -1664 0
v -1984 -1664 0
v -2048 -1664 0
v -2112 -1664 0
v -2176 -1664 0
v -1472 -448 0
v -1536 -448 0
v -1536 -384 0
v -1472 -384 0
v -1600 -448 0
v -1600 -384 0
v -1664 -448 0
v -1664 -384 0
v -1728 -448 0
v -1728 -384 0
v -1792 -448 0
v -1792 -384 0
v -1856 -448 0
v -1856 -384 0
v -1920 -448 0
v -1920 -384 0
v -1984 -448 0
v -1984 -384 0
v -2048 -448 0
v -2048 -384 0
v -2112 -448 0
v -2112 -384 0
v -2176 -448 0
v -2176 -384 0
v -1472 -512 0
v -1536 -512 0
v -1600 -512 0
v -1664 -512 0
v -1728 -512 0
v -1792 -512 0
v -1856 -512 0
v -1920 -512 0
v -1984 -512 0
v -2048 -512 0
v -2112 -512 0
v -2176 -512 0
v -1472 -576 0
v -1536 -576 0
v -1600 -576 0
v -1664 -576 0
v -1728 -576 0
v -1792 -576 0
v -1856 -576 0
v -1920 -576 0
v -1984 -576 0
v -2048 -576 0
v -2112 -576 0
v -2176 -576 0
v -1472 -640 0
v -1536 -640 0
v -1600 -640 0
v -1664 -640 0
v -1728 -640 0
v -1792 -640 0
v -1856 -640 0
v -1920 -640 0
v -1984 -640 0
v -2048 -640 0
v -2112 -640 0
v -2176 -640 0
v -1472 -1728 0
v -1536 -1728 0
v -1600 -1728 0
v -1664 -1728 0
v -1728 -1728 0
v -1792 -1728 0
v -1856 -1728 0
v -1920 -1728 0
v -1984 -1728 0
v -2048 -1728 0
v -2112 -1728 0
v -2176 -1728 0
v -1472 -1792 0
v -1536 -1792 0
v -1600 -1792 0
v -1664 -1792 0
v -1728 -1792 0
v -1792 -1792 0
v -1856 -1792 0
v -1920 -1792 0
v -1984 -1792 0
v -2048 -1792 0
v -2112 -1792 0
v -2176 -1792 0
v -1472 -1856 0
v -1536 -1856 0
v -1600 -1856 0
v -1664 -1856 0
v -1728 -1856 0
v -1792 -1856 0
v -1856 -1856 0
v -1920 -1856 0
v -1984 -1856 0
v -2048 -1856 0
v -2112 -1856 0
v -2176 -1856 0
v -1472 -1920 0
v -1536 -1920 0
v -1600 -1920 0
v -1664 -1920 0
v -1728 -1920 0
v -1792 -1920 0
v -1856 -1920 0
v -1920 -1920 0
v -1984 -1920 0
v -2048 -1920 0
v -2112 -1920 0
v -2176 -1920 0
v -1472 -1984 0
v -1536 -1984 0
v -1600 -1984 0
v -1664 -1984 0
v -1728 -1984 0
v -1792 -1984 0
v -1856 -1984 0
v -1920 -1984 0
v -1984 -1984 0
v -2048 -1984 0
v -2112 -1984 0
v -2176 -1984 0

# Texture Coorindates (Count = 92)
vt 0.4376221 0.8126221
vt 0.4998779 0.8126221
vt 0.4998779 0.8748779
vt 0.4376221 0.8748779
vt 0.06262207 0.6876221
vt 0.1248779 0.6876221
vt 0.1248779 0.7498779
vt 0.06262207 0.7498779
vt 0.0001220703 0.6876221
vt 0.06237793 0.6876221
vt 0.06237793 0.7498779
vt 0.0001220703 0.7498779
vt 0.06262207 0.6251221
vt 0.1248779 0.6251221
vt 0.1248779 0.6873779
vt 0.06262207 0.6873779
vt 0.4376221 0.4376221
vt 0.4998779 0.4376221
vt 0.4998779 0.4998779
vt 0.4376221 0.4998779
vt 0.3751221 0.4376221
vt 0.4373779 0.4376221
vt 0.4373779 0.4998779
vt 0.3751221 0.4998779
vt 0.3751221 0.3751221
vt 0.4373779 0.3751221
vt 0.4373779 0.4373779
vt 0.3751221 0.4373779
vt 0.4376221 0.6876221
vt 0.4998779 0.6876221
vt 0.4998779 0.7498779
vt 0.4376221 0.7498779
vt 0.3751221 0.6876221
vt 0.4373779 0.6876221
vt 0.4373779 0.7498779
vt 0.3751221 0.7498779
vt 0.1876221 0.4376221
vt 0.2498779 0.4376221
vt 0.2498779 0.4998779
vt 0.1876221 0.4998779
vt 0.0001220703 0.7501221
vt 0.06237793 0.7501221
vt 0.06237793 0.8123779
vt 0.0001220703 0.8123779
vt 0.1251221 0.7501221
vt 0.1873779 0.7501221
vt 0.1873779 0.8123779
vt 0.1251221 0.8123779
vt 0.8751221 0.7501221
vt 0.9373779 0.7501221
vt 0.9373779 0.8123779
vt 0.8751221 0.8123779
vt 0.6251221 0.7501221
vt 0.6873779 0.7501221
vt 0.6873779 0.8123779
vt 0.6251221 0.8123779
vt 0.2501221 0.7501221
vt 0.3123779 0.7501221
vt 0.3123779 0.8123779
vt 0.2501221 0.8123779
vt 0.9376221 0.7501221
vt 0.9998779 0.7501221
vt 0.9998779 0.8123779
vt 0.9376221 0.8123779
vt 0.6876221 0.7501221
vt 0.7498779 0.7501221
vt 0.7498779 0.8123779
vt 0.6876221 0.8123779
vt 0.3751221 0.7501221
vt 0.4373779 0.7501221
vt 0.4373779 0.8123779
vt 0.3751221 0.8123779
vt 0.3126221 0.7501221
vt 0.3748779 0.7501221
vt 0.3748779 0.8123779
vt 0.3126221 0.8123779
vt 0.7501221 0.7501221
vt 0.8123779 0.7501221
vt 0.8123779 0.8123779
vt 0.7501221 0.8123779
vt 0.8126221 0.7501221
vt 0.8748779 0.7501221
vt 0.8748779 0.8123779
vt 0.8126221 0.8123779
vt 0.1876221 0.7501221
vt 0.2498779 0.7501221
vt 0.2498779 0.8123779
vt 0.1876221 0.8123779
vt 0.06262207 0.7501221
vt 0.1248779 0.7501221
vt 0.1248779 0.8123779
vt 0.06262207 0.8123779

# Normal
vn 0 0 -1

# Groups (Count = 3)
g mesh_[00]_[00]
f  1/1/1  2/2/1  3/3/1  4/4/1 
f  2/1/1  5/2/1  6/3/1  3/4/1 
f  5/1/1  7/2/1  8/3/1  6/4/1 
f  7/1/1  9/2/1  10/3/1  8/4/1 
f  9/1/1  11/2/1  12/3/1  10/4/1 
f  11/1/1  13/2/1  14/3/1  12/4/1 
f  13/1/1  15/2/1  16/3/1  14/4/1 
f  15/1/1  17/2/1  18/3/1  16/4/1 
f  17/1/1  19/2/1  20/3/1  18/4/1 
f  19/1/1  21/2/1  22/3/1  20/4/1 
f  21/1/1  23/2/1  24/3/1  22/4/1 
f  25/1/1  26/2/1  2/3/1  1/4/1 
f  26/1/1  27/2/1  5/3/1  2/4/1 
f  27/1/1  28/2/1  7/3/1  5/4/1 
f  28/1/1  29/2/1  9/3/1  7/4/1 
f  29/1/1  30/2/1  11/3/1  9/4/1 
f  30/1/1  31/2/1  13/3/1  11/4/1 
f  31/1/1  32/2/1  15/3/1  13/4/1 
f  32/1/1  33/2/1  17/3/1  15/4/1 
f  33/1/1  34/2/1  19/3/1  17/4/1 
f  34/1/1  35/2/1  21/3/1  19/4/1 
f  35/1/1  36/2/1  23/3/1  21/4/1 
f  37/1/1  38/2/1  26/3/1  25/4/1 
f  38/1/1  39/2/1  27/3/1  26/4/1 
f  39/1/1  40/2/1  28/3/1  27/4/1 
f  40/1/1  41/2/1  29/3/1  28/4/1 
f  41/1/1  42/2/1  30/3/1  29/4/1 
f  42/1/1  43/2/1  31/3/1  30/4/1 
f  43/1/1  44/2/1  32/3/1  31/4/1 
f  44/1/1  45/2/1  33/3/1  32/4/1 
f  45/1/1  46/2/1  34/3/1  33/4/1 
f  46/1/1  47/2/1  35/3/1  34/4/1 
f  47/1/1  48/2/1  36/3/1  35/4/1 
f  49/1/1  50/2/1  38/3/1  37/4/1 
f  50/1/1  51/2/1  39/3/1  38/4/1 
f  51/1/1  52/2/1  40/3/1  39/4/1 
f  52/1/1  53/2/1  41/3/1  40/4/1 
f  53/1/1  54/2/1  42/3/1  41/4/1 
f  54/1/1  55/2/1  43/3/1  42/4/1 
f  55/1/1  56/2/1  44/3/1  43/4/1 
f  56/1/1  57/2/1  45/3/1  44/4/1 
f  57/1/1  58/2/1  46/3/1  45/4/1 
f  58/1/1  59/2/1  47/3/1  46/4/1 
f  59/1/1  60/2/1  48/3/1  47/4/1 
f  61/1/1  62/2/1  50/3/1  49/4/1 
f  62/1/1  63/2/1  51/3/1  50/4/1 
f  63/1/1  64/2/1  52/3/1  51/4/1 
f  64/1/1  65/2/1  53/3/1  52/4/1 
f  65/1/1  66/2/1  54/3/1  53/4/1 
f  66/1/1  67/2/1  55/3/1  54/4/1 
f  67/1/1  68/2/1  56/3/1  55/4/1 
f  68/1/1  69/2/1  57/3/1  56/4/1 
f  69/1/1  70/2/1  58/3/1  57/4/1 
f  70/1/1  71/2/1  59/3/1  58/4/1 
f  71/1/1  72/2/1  60/3/1  59/4/1 
f  73/1/1  74/2/1  62/3/1  61/4/1 
f  74/1/1  75/2/1  63/3/1  62/4/1 
f  75/1/1  76/2/1  64/3/1  63/4/1 
f  76/1/1  77/2/1  65/3/1  64/4/1 
f  77/1/1  78/2/1  66/3/1  65/4/1 
f  78/1/1  79/2/1  67/3/1  66/4/1 
f  79/1/1  80/2/1  68/3/1  67/4/1 
f  80/1/1  81/2/1  69/3/1  68/4/1 
f  81/1/1  82/2/1  70/3/1  69/4/1 
f  82/1/1  83/2/1  71/3/1  70/4/1 
f  83/1/1  84/2/1  72/3/1  71/4/1 
f  85/1/1  86/2/1  74/3/1  73/4/1 
f  86/1/1  87/2/1  75/3/1  74/4/1 
f  87/1/1  88/2/1  76/3/1  75/4/1 
f  88/1/1  89/2/1  77/3/1  76/4/1 
f  89/1/1  90/2/1  78/3/1  77/4/1 
f  90/1/1  91/2/1  79/3/1  78/4/1 
f  91/1/1  92/2/1  80/3/1  79/4/1 
f  92/1/1  93/2/1  81/3/1  80/4/1 
f  93/1/1  94/2/1  82/3/1  81/4/1 
f  94/1/1  95/2/1  83/3/1  82/4/1 
f  95/1/1  96/2/1  84/3/1  83/4/1 
f  97/1/1  98/2/1  86/3/1  85/4/1 
f  98/1/1  99/2/1  87/3/1  86/4/1 
f  99/1/1  100/2/1  88/3/1  87/4/1 
f  100/1/1  101/2/1  89/3/1  88/4/1 
f  101/1/1  102/2/1  90/3/1  89/4/1 
f  102/1/1  103/2/1  91/3/1  90/4/1 
f  103/1/1  104/2/1  92/3/1  91/4/1 
f  104/1/1  105/2/1  93/3/1  92/4/1 
f  105/1/1  106/2/1  94/3/1  93/4/1 
f  106/1/1  107/2/1  95/3/1  94/4/1 
f  107/1/1  108/2/1  96/3/1  95/4/1 
f  109/1/1  110/2/1  98/3/1  97/4/1 
f  110/1/1  111/2/1  99/3/1  98/4/1 
f  111/1/1  112/2/1  100/3/1  99/4/1 
f  112/1/1  113/2/1  101/3/1  100/4/1 
f  113/1/1  114/2/1  102/3/1  101/4/1 
f  114/1/1  115/2/1  103/3/1  102/4/1 
f  115/1/1  116/2/1  104/3/1  103/4/1 
f  116/1/1  117/2/1  105/3/1  104/4/1 
f  117/1/1  118/2/1  106/3/1  105/4/1 
f  118/1/1  119/2/1  107/3/1  106/4/1 
f  119/1/1  120/2/1  108/3/1  107/4/1 
f  121/1/1  122/2/1  110/3/1  109/4/1 
f  122/1/1  123/2/1  111/3/1  110/4/1 
f  123/1/1  124/2/1  112/3/1  111/4/1 
f  124/1/1  125/2/1  113/3/1  112/4/1 
f  125/1/1  126/2/1  114/3/1  113/4/1 
f  126/1/1  127/2/1  115/3/1  114/4/1 
f  127/1/1  128/2/1  116/3/1  115/4/1 
f  128/1/1  129/2/1  117/3/1  116/4/1 
f  129/1/1  130/2/1  118/3/1  117/4/1 
f  130/1/1  131/2/1  119/3/1  118/4/1 
f  131/1/1  132/2/1  120/3/1  119/4/1 
f  133/1/1  134/2/1  122/3/1  121/4/1 
f  134/1/1  135/2/1  123/3/1  122/4/1 
f  135/1/1  136/2/1  124/3/1  123/4/1 
f  136/1/1  137/2/1  125/3/1  124/4/1 
f  137/1/1  138/2/1  126/3/1  125/4/1 
f  138/1/1  139/2/1  127/3/1  126/4/1 
f  139/1/1  140/2/1  128/3/1  127/4/1 
f  140/1/1  141/2/1  129/3/1  128/4/1 
f  141/1/1  142/2/1  130/3/1  129/4/1 
f  142/1/1  143/2/1  131/3/1  130/4/1 
f  143/1/1  144/2/1  132/3/1  131/4/1 
f  145/1/1  146/2/1  134/3/1  133/4/1 
f  146/1/1  147/2/1  135/3/1  134/4/1 
f  147/1/1  148/2/1  136/3/1  135/4/1 
f  148/1/1  149/2/1  137/3/1  136/4/1 
f  149/1/1  150/2/1  138/3/1  137/4/1 
f  150/1/1  151/2/1  139/3/1  138/4/1 
f  151/1/1  152/2/1  140/3/1  139/4/1 
f  152/1/1  153/2/1  141/3/1  140/4/1 
f  153/1/1  154/2/1  142/3/1  141/4/1 
f  154/1/1  155/2/1  143/3/1  142/4/1 
f  155/1/1  156/2/1  144/3/1  143/4/1 
f  157/1/1  158/2/1  146/3/1  145/4/1 
f  158/1/1  159/2/1  147/3/1  146/4/1 
f  159/1/1  160/2/1  148/3/1  147/4/1 
f  160/1/1  161/2/1  149/3/1  148/4/1 
f  161/1/1  162/2/1  150/3/1  149/4/1 
f  162/1/1  163/2/1  151/3/1  150/4/1 
f  163/1/1  164/2/1  152/3/1  151/4/1 
f  164/1/1  165/2/1  153/3/1  152/4/1 
f  165/1/1  166/2/1  154/3/1  153/4/1 
f  166/1/1  167/2/1  155/3/1  154/4/1 
f  167/1/1  168/2/1  156/3/1  155/4/1 
f  169/1/1  170/2/1  158/3/1  157/4/1 
f  170/1/1  171/2/1  159/3/1  158/4/1 
f  171/1/1  172/2/1  160/3/1  159/4/1 
f  172/1/1  173/2/1  161/3/1  160/4/1 
f  173/1/1  174/2/1  162/3/1  161/4/1 
f  174/1/1  175/2/1  163/3/1  162/4/1 
f  175/1/1  176/2/1  164/3/1  163/4/1 
f  176/1/1  177/2/1  165/3/1  164/4/1 
f  177/1/1  178/2/1  166/3/1  165/4/1 
f  178/1/1  179/2/1  167/3/1  166/4/1 
f  179/1/1  180/2/1  168/3/1  167/4/1 
f  181/1/1  182/2/1  170/3/1  169/4/1 
f  182/1/1  183/2/1  171/3/1  170/4/1 
f  183/1/1  184/2/1  172/3/1  171/4/1 
f  184/1/1  185/2/1  173/3/1  172/4/1 
f  185/1/1  186/2/1  174/3/1  173/4/1 
f  186/1/1  187/2/1  175/3/1  174/4/1 
f  187/1/1  188/2/1  176/3/1  175/4/1 
f  188/1/1  189/2/1  177/3/1  176/4/1 
f  189/1/1  190/2/1  178/3/1  177/4/1 
f  190/1/1  191/2/1  179/3/1  178/4/1 
f  191/1/1  192/2/1  180/3/1  179/4/1 
g mesh_[01]_[01]
f  25/5/1  27/6/1  6/7/1  4/8/1 
f  34/9/1  36/10/1  24/11/1  20/12/1 
f  45/9/1  47/10/1  21/11/1  17/12/1 
f  49/13/1  51/14/1  27/15/1  25/16/1 
f  52/17/1  54/18/1  30/19/1  28/20/1 
f  53/21/1  55/22/1  31/23/1  29/24/1 
f  55/17/1  57/18/1  33/19/1  31/20/1 
f  77/25/1  79/26/1  55/27/1  53/28/1 
f  159/29/1  161/30/1  137/31/1  135/32/1 
f  164/33/1  166/34/1  142/35/1  140/36/1 
f  172/29/1  174/30/1  150/31/1  148/32/1 
f  175/29/1  177/30/1  153/31/1  151/32/1 
f  177/37/1  179/38/1  155/39/1  153/40/1 
g mesh_[02]_[00]
f  193/41/1  194/42/1  195/43/1  196/44/1 
f  194/41/1  197/42/1  198/43/1  195/44/1 
f  197/41/1  199/42/1  200/43/1  198/44/1 
f  199/41/1  201/42/1  202/43/1  200/44/1 
f  201/41/1  203/42/1  204/43/1  202/44/1 
f  203/41/1  205/42/1  206/43/1  204/44/1 
f  205/41/1  207/42/1  208/43/1  206/44/1 
f  207/41/1  209/42/1  210/43/1  208/44/1 
f  209/41/1  211/42/1  212/43/1  210/44/1 
f  211/41/1  213/42/1  214/43/1  212/44/1 
f  213/41/1  215/42/1  216/43/1  214/44/1 
f  217/41/1  218/42/1  194/43/1  193/44/1 
f  218/41/1  219/42/1  197/43/1  194/44/1 
f  219/41/1  220/42/1  199/43/1  197/44/1 
f  220/41/1  221/42/1  201/43/1  199/44/1 
f  221/41/1  222/42/1  203/43/1  201/44/1 
f  222/41/1  223/42/1  205/43/1  203/44/1 
f  223/41/1  224/42/1  207/43/1  205/44/1 
f  224/41/1  225/42/1  209/43/1  207/44/1 
f  225/41/1  226/42/1  211/43/1  209/44/1 
f  226/41/1  227/42/1  213/43/1  211/44/1 
f  227/41/1  228/42/1  215/43/1  213/44/1 
f  229/41/1  230/42/1  218/43/1  217/44/1 
f  230/41/1  231/42/1  219/43/1  218/44/1 
f  231/41/1  232/42/1  220/43/1  219/44/1 
f  232/41/1  233/42/1  221/43/1  220/44/1 
f  233/41/1  234/42/1  222/43/1  221/44/1 
f  234/41/1  235/42/1  223/43/1  222/44/1 
f  235/41/1  236/42/1  224/43/1  223/44/1 
f  236/41/1  237/42/1  225/43/1  224/44/1 
f  237/41/1  238/42/1  226/43/1  225/44/1 
f  238/41/1  239/42/1  227/43/1  226/44/1 
f  239/41/1  240/42/1  228/43/1  227/44/1 
f  241/41/1  242/42/1  230/43/1  229/44/1 
f  242/41/1  243/42/1  231/43/1  230/44/1 
f  243/41/1  244/42/1  232/43/1  231/44/1 
f  244/41/1  245/42/1  233/43/1  232/44/1 
f  245/41/1  246/42/1  234/43/1  233/44/1 
f  246/41/1  247/42/1  235/43/1  234/44/1 
f  247/41/1  248/42/1  236/43/1  235/44/1 
f  248/41/1  249/42/1  237/43/1  236/44/1 
f  249/41/1  250/42/1  238/43/1  237/44/1 
f  250/41/1  251/42/1  239/43/1  238/44/1 
f  251/41/1  252/42/1  240/43/1  239/44/1 
f  4/45/1  3/46/1  242/47/1  241/48/1 
f  3/41/1  6/42/1  243/43/1  242/44/1 
f  6/41/1  8/42/1  244/43/1  243/44/1 
f  8/41/1  10/42/1  245/43/1  244/44/1 
f  10/41/1  12/42/1  246/43/1  245/44/1 
f  12/41/1  14/42/1  247/43/1  246/44/1 
f  14/41/1  16/42/1  248/43/1  247/44/1 
f  16/41/1  18/42/1  249/43/1  248/44/1 
f  18/41/1  20/42/1  250/43/1  249/44/1 
f  20/49/1  22/50/1  251/51/1  250/52/1 
f  22/45/1  24/46/1  252/47/1  251/48/1 
f  2/53/1  5/54/1  6/55/1  3/56/1 
f  5/41/1  7/42/1  8/43/1  6/44/1 
f  7/41/1  9/42/1  10/43/1  8/44/1 
f  9/41/1  11/42/1  12/43/1  10/44/1 
f  11/41/1  13/42/1  14/43/1  12/44/1 
f  13/41/1  15/42/1  16/43/1  14/44/1 
f  15/41/1  17/42/1  18/43/1  16/44/1 
f  17/41/1  19/42/1  20/43/1  18/44/1 
f  19/57/1  21/58/1  22/59/1  20/60/1 
f  27/53/1  28/54/1  7/55/1  5/56/1 
f  28/41/1  29/42/1  9/43/1  7/44/1 
f  29/41/1  30/42/1  11/43/1  9/44/1 
f  30/45/1  31/46/1  13/47/1  11/48/1 
f  31/61/1  32/62/1  15/63/1  13/64/1 
f  32/41/1  33/42/1  17/43/1  15/44/1 
f  33/49/1  34/50/1  19/51/1  17/52/1 
f  34/65/1  35/66/1  21/67/1  19/68/1 
f  40/53/1  41/54/1  29/55/1  28/56/1 
f  41/65/1  42/66/1  30/67/1  29/68/1 
f  43/53/1  44/54/1  32/55/1  31/56/1 
f  44/45/1  45/46/1  33/47/1  32/48/1 
f  45/65/1  46/66/1  34/67/1  33/68/1 
f  159/69/1  160/70/1  148/71/1  147/72/1 
f  160/9/1  161/10/1  149/11/1  148/12/1 
f  164/5/1  165/6/1  153/7/1  152/8/1 
f  165/73/1  166/74/1  154/75/1  153/76/1 
f  170/69/1  171/70/1  159/71/1  158/72/1 
f  171/41/1  172/42/1  160/43/1  159/44/1 
f  172/77/1  173/78/1  161/79/1  160/80/1 
f  173/73/1  174/74/1  162/75/1  161/76/1 
f  175/69/1  176/70/1  164/71/1  163/72/1 
f  176/81/1  177/82/1  165/83/1  164/84/1 
f  177/41/1  178/42/1  166/43/1  165/44/1 
f  178/73/1  179/74/1  167/75/1  166/76/1 
f  182/85/1  183/86/1  171/87/1  170/88/1 
f  183/41/1  184/42/1  172/43/1  171/44/1 
f  184/41/1  185/42/1  173/43/1  172/44/1 
f  185/77/1  186/78/1  174/79/1  173/80/1 
f  186/89/1  187/90/1  175/91/1  174/92/1 
f  187/81/1  188/82/1  176/83/1  175/84/1 
f  188/41/1  189/42/1  177/43/1  176/44/1 
f  189/41/1  190/42/1  178/43/1  177/44/1 
f  190/57/1  191/58/1  179/59/1  178/60/1 
f  253/89/1  254/90/1  182/91/1  181/92/1 
f  254/81/1  255/82/1  183/83/1  182/84/1 
f  255/41/1  256/42/1  184/43/1  183/44/1 
f  256/41/1  257/42/1  185/43/1  184/44/1 
f  257/41/1  258/42/1  186/43/1  185/44/1 
f  258/41/1  259/42/1  187/43/1  186/44/1 
f  259/41/1  260/42/1  188/43/1  187/44/1 
f  260/41/1  261/42/1  189/43/1  188/44/1 
f  261/41/1  262/42/1  190/43/1  189/44/1 
f  262/77/1  263/78/1  191/79/1  190/80/1 
f  263/89/1  264/90/1  192/91/1  191/92/1 
f  265/41/1  266/42/1  254/43/1  253/44/1 
f  266/41/1  267/42/1  255/43/1  254/44/1 
f  267/41/1  268/42/1  256/43/1  255/44/1 
f  268/41/1  269/42/1  257/43/1  256/44/1 
f  269/41/1  270/42/1  258/43/1  257/44/1 
f  270/41/1  271/42/1  259/43/1  258/44/1 
f  271/41/1  272/42/1  260/43/1  259/44/1 
f  272/41/1  273/42/1  261/43/1  260/44/1 
f  273/41/1  274/42/1  262/43/1  261/44/1 
f  274/41/1  275/42/1  263/43/1  262/44/1 
f  275/41/1  276/42/1  264/43/1  263/44/1 
f  277/41/1  278/42/1  266/43/1  265/44/1 
f  278/41/1  279/42/1  267/43/1  266/44/1 
f  279/41/1  280/42/1  268/43/1  267/44/1 
f  280/41/1  281/42/1  269/43/1  268/44/1 
f  281/41/1  282/42/1  270/43/1  269/44/1 
f  282/41/1  283/42/1  271/43/1  270/44/1 
f  283/41/1  284/42/1  272/43/1  271/44/1 
f  284/41/1  285/42/1  273/43/1  272/44/1 
f  285/41/1  286/42/1  274/43/1  273/44/1 
f  286/41/1  287/42/1  275/43/1  274/44/1 
f  287/41/1  288/42/1  276/43/1  275/44/1 
f  289/41/1  290/42/1  278/43/1  277/44/1 
f  290/41/1  291/42/1  279/43/1  278/44/1 
f  291/41/1  292/42/1  280/43/1  279/44/1 
f  292/41/1  293/42/1  281/43/1  280/44/1 
f  293/41/1  294/42/1  282/43/1  281/44/1 
f  294/41/1  295/42/1  283/43/1  282/44/1 
f  295/41/1  296/42/1  284/43/1  283/44/1 
f  296/41/1  297/42/1  285/43/1  284/44/1 
f  297/41/1  298/42/1  286/43/1  285/44/1 
f  298/41/1  299/42/1  287/43/1  286/44/1 
f  299/41/1  300/42/1  288/43/1  287/44/1 
f  301/41/1  302/42/1  290/43/1  289/44/1 
f  302/41/1  303/42/1  291/43/1  290/44/1 
f  303/41/1  304/42/1  292/43/1  291/44/1 
f  304/41/1  305/42/1  293/43/1  292/44/1 
f  305/41/1  306/42/1  294/43/1  293/44/1 
f  306/41/1  307/42/1  295/43/1  294/44/1 
f  307/41/1  308/42/1  296/43/1  295/44/1 
f  308/41/1  309/42/1  297/43/1  296/44/1 
f  309/41/1  310/42/1  298/43/1  297/44/1 
f  310/41/1  311/42/1  299/43/1  298/44/1 
f  311/41/1  312/42/1  300/43/1  299/44/1 
