# Wavefront OBJ file automatically generated by Tiled2Unity

# Vertices (Count = 361)
v -1152 -768 0
v -1216 -768 0
v -1216 -704 0
v -1152 -704 0
v -1280 -768 0
v -1280 -704 0
v -1344 -768 0
v -1344 -704 0
v -1408 -768 0
v -1408 -704 0
v -1472 -768 0
v -1472 -704 0
v -1536 -768 0
v -1536 -704 0
v -1600 -768 0
v -1600 -704 0
v -1664 -768 0
v -1664 -704 0
v -1728 -768 0
v -1728 -704 0
v -1152 -832 0
v -1216 -832 0
v -1280 -832 0
v -1344 -832 0
v -1408 -832 0
v -1472 -832 0
v -1536 -832 0
v -1600 -832 0
v -1664 -832 0
v -1728 -832 0
v -1152 -896 0
v -1216 -896 0
v -1280 -896 0
v -1344 -896 0
v -1408 -896 0
v -1472 -896 0
v -1536 -896 0
v -1600 -896 0
v -1664 -896 0
v -1728 -896 0
v -1152 -960 0
v -1216 -960 0
v -1280 -960 0
v -1344 -960 0
v -1408 -960 0
v -1472 -960 0
v -1536 -960 0
v -1600 -960 0
v -1664 -960 0
v -1728 -960 0
v -1152 -1024 0
v -1216 -1024 0
v -1280 -1024 0
v -1344 -1024 0
v -1408 -1024 0
v -1472 -1024 0
v -1536 -1024 0
v -1600 -1024 0
v -1664 -1024 0
v -1728 -1024 0
v -1152 -1088 0
v -1216 -1088 0
v -1280 -1088 0
v -1344 -1088 0
v -1408 -1088 0
v -1472 -1088 0
v -1536 -1088 0
v -1600 -1088 0
v -1664 -1088 0
v -1728 -1088 0
v -1152 -1152 0
v -1216 -1152 0
v -1280 -1152 0
v -1344 -1152 0
v -1408 -1152 0
v -1472 -1152 0
v -1536 -1152 0
v -1600 -1152 0
v -1664 -1152 0
v -1728 -1152 0
v -1152 -1216 0
v -1216 -1216 0
v -1280 -1216 0
v -1344 -1216 0
v -1408 -1216 0
v -1472 -1216 0
v -1536 -1216 0
v -1600 -1216 0
v -1664 -1216 0
v -1728 -1216 0
v -1152 -1280 0
v -1216 -1280 0
v -1280 -1280 0
v -1344 -1280 0
v -1408 -1280 0
v -1472 -1280 0
v -1536 -1280 0
v -1600 -1280 0
v -1664 -1280 0
v -1728 -1280 0
v -1152 -1344 0
v -1216 -1344 0
v -1280 -1344 0
v -1344 -1344 0
v -1408 -1344 0
v -1472 -1344 0
v -1536 -1344 0
v -1600 -1344 0
v -1664 -1344 0
v -1728 -1344 0
v -1152 -1408 0
v -1216 -1408 0
v -1280 -1408 0
v -1344 -1408 0
v -1408 -1408 0
v -1472 -1408 0
v -1536 -1408 0
v -1600 -1408 0
v -1664 -1408 0
v -1728 -1408 0
v -1152 -1472 0
v -1216 -1472 0
v -1280 -1472 0
v -1344 -1472 0
v -1408 -1472 0
v -1472 -1472 0
v -1536 -1472 0
v -1600 -1472 0
v -1664 -1472 0
v -1728 -1472 0
v -1152 -1536 0
v -1216 -1536 0
v -1280 -1536 0
v -1344 -1536 0
v -1408 -1536 0
v -1472 -1536 0
v -1536 -1536 0
v -1600 -1536 0
v -1664 -1536 0
v -1728 -1536 0
v -1088 -1600 0
v -1152 -1600 0
v -1088 -1536 0
v -1216 -1600 0
v -1280 -1600 0
v -1344 -1600 0
v -1408 -1600 0
v -1472 -1600 0
v -1536 -1600 0
v -1600 -1600 0
v -1664 -1600 0
v -1728 -1600 0
v -576 -512 0
v -640 -512 0
v -640 -448 0
v -576 -448 0
v -704 -512 0
v -704 -448 0
v -768 -512 0
v -768 -448 0
v -832 -512 0
v -832 -448 0
v -896 -512 0
v -896 -448 0
v -960 -512 0
v -960 -448 0
v -1024 -512 0
v -1024 -448 0
v -1088 -512 0
v -1088 -448 0
v -1152 -512 0
v -1152 -448 0
v -1216 -512 0
v -1216 -448 0
v -1280 -512 0
v -1280 -448 0
v -1344 -512 0
v -1344 -448 0
v -1408 -512 0
v -1408 -448 0
v -1472 -512 0
v -1472 -448 0
v -1536 -512 0
v -1536 -448 0
v -1600 -512 0
v -1600 -448 0
v -1664 -512 0
v -1664 -448 0
v -1728 -512 0
v -1728 -448 0
v -576 -576 0
v -640 -576 0
v -704 -576 0
v -768 -576 0
v -832 -576 0
v -896 -576 0
v -960 -576 0
v -1024 -576 0
v -1088 -576 0
v -1152 -576 0
v -1216 -576 0
v -1280 -576 0
v -1344 -576 0
v -1408 -576 0
v -1472 -576 0
v -1536 -576 0
v -1600 -576 0
v -1664 -576 0
v -1728 -576 0
v -576 -640 0
v -640 -640 0
v -704 -640 0
v -768 -640 0
v -832 -640 0
v -896 -640 0
v -960 -640 0
v -1024 -640 0
v -1088 -640 0
v -1152 -640 0
v -1216 -640 0
v -1280 -640 0
v -1344 -640 0
v -1408 -640 0
v -1472 -640 0
v -1536 -640 0
v -1600 -640 0
v -1664 -640 0
v -1728 -640 0
v -576 -704 0
v -640 -704 0
v -704 -704 0
v -768 -704 0
v -832 -704 0
v -896 -704 0
v -960 -704 0
v -1024 -704 0
v -1088 -704 0
v -576 -768 0
v -640 -768 0
v -704 -768 0
v -768 -768 0
v -832 -768 0
v -896 -768 0
v -960 -768 0
v -1024 -768 0
v -1088 -768 0
v -576 -832 0
v -640 -832 0
v -704 -832 0
v -768 -832 0
v -832 -832 0
v -896 -832 0
v -960 -832 0
v -1024 -832 0
v -1088 -832 0
v -576 -896 0
v -640 -896 0
v -704 -896 0
v -768 -896 0
v -832 -896 0
v -896 -896 0
v -960 -896 0
v -1024 -896 0
v -1088 -896 0
v -576 -960 0
v -640 -960 0
v -704 -960 0
v -768 -960 0
v -832 -960 0
v -896 -960 0
v -960 -960 0
v -1024 -960 0
v -1088 -960 0
v -576 -1024 0
v -640 -1024 0
v -704 -1024 0
v -768 -1024 0
v -832 -1024 0
v -896 -1024 0
v -960 -1024 0
v -1024 -1024 0
v -1088 -1024 0
v -576 -1088 0
v -640 -1088 0
v -704 -1088 0
v -768 -1088 0
v -832 -1088 0
v -896 -1088 0
v -960 -1088 0
v -1024 -1088 0
v -1088 -1088 0
v -576 -1152 0
v -640 -1152 0
v -704 -1152 0
v -768 -1152 0
v -832 -1152 0
v -896 -1152 0
v -960 -1152 0
v -1024 -1152 0
v -1088 -1152 0
v -576 -1216 0
v -640 -1216 0
v -704 -1216 0
v -768 -1216 0
v -832 -1216 0
v -896 -1216 0
v -960 -1216 0
v -1024 -1216 0
v -1088 -1216 0
v -576 -1280 0
v -640 -1280 0
v -704 -1280 0
v -768 -1280 0
v -832 -1280 0
v -896 -1280 0
v -960 -1280 0
v -1024 -1280 0
v -1088 -1280 0
v -576 -1344 0
v -640 -1344 0
v -704 -1344 0
v -768 -1344 0
v -832 -1344 0
v -896 -1344 0
v -960 -1344 0
v -1024 -1344 0
v -1088 -1344 0
v -576 -1408 0
v -640 -1408 0
v -704 -1408 0
v -768 -1408 0
v -832 -1408 0
v -896 -1408 0
v -960 -1408 0
v -1024 -1408 0
v -1088 -1408 0
v -576 -1472 0
v -640 -1472 0
v -704 -1472 0
v -768 -1472 0
v -832 -1472 0
v -896 -1472 0
v -960 -1472 0
v -1024 -1472 0
v -1088 -1472 0
v -576 -1536 0
v -640 -1536 0
v -704 -1536 0
v -768 -1536 0
v -832 -1536 0
v -896 -1536 0
v -960 -1536 0
v -1024 -1536 0
v -576 -1600 0
v -640 -1600 0
v -704 -1600 0
v -768 -1600 0
v -832 -1600 0
v -896 -1600 0
v -960 -1600 0
v -1024 -1600 0

# Texture Coorindates (Count = 72)
vt 0.4376221 0.8126221
vt 0.4998779 0.8126221
vt 0.4998779 0.8748779
vt 0.4376221 0.8748779
vt 0.1251221 0.6876221
vt 0.1873779 0.6876221
vt 0.1873779 0.7498779
vt 0.1251221 0.7498779
vt 0.1876221 0.6876221
vt 0.2498779 0.6876221
vt 0.2498779 0.7498779
vt 0.1876221 0.7498779
vt 0.0001220703 0.6876221
vt 0.06237793 0.6876221
vt 0.06237793 0.7498779
vt 0.0001220703 0.7498779
vt 0.3126221 0.6876221
vt 0.3748779 0.6876221
vt 0.3748779 0.7498779
vt 0.3126221 0.7498779
vt 0.3751221 0.6876221
vt 0.4373779 0.6876221
vt 0.4373779 0.7498779
vt 0.3751221 0.7498779
vt 0.4376221 0.6876221
vt 0.4998779 0.6876221
vt 0.4998779 0.7498779
vt 0.4376221 0.7498779
vt 0.1876221 0.7501221
vt 0.2498779 0.7501221
vt 0.2498779 0.8123779
vt 0.1876221 0.8123779
vt 0.0001220703 0.7501221
vt 0.06237793 0.7501221
vt 0.06237793 0.8123779
vt 0.0001220703 0.8123779
vt 0.8751221 0.7501221
vt 0.9373779 0.7501221
vt 0.9373779 0.8123779
vt 0.8751221 0.8123779
vt 0.1251221 0.7501221
vt 0.1873779 0.7501221
vt 0.1873779 0.8123779
vt 0.1251221 0.8123779
vt 0.6876221 0.7501221
vt 0.7498779 0.7501221
vt 0.7498779 0.8123779
vt 0.6876221 0.8123779
vt 0.2501221 0.7501221
vt 0.3123779 0.7501221
vt 0.3123779 0.8123779
vt 0.2501221 0.8123779
vt 0.3751221 0.7501221
vt 0.4373779 0.7501221
vt 0.4373779 0.8123779
vt 0.3751221 0.8123779
vt 0.06262207 0.7501221
vt 0.1248779 0.7501221
vt 0.1248779 0.8123779
vt 0.06262207 0.8123779
vt 0.7501221 0.7501221
vt 0.8123779 0.7501221
vt 0.8123779 0.8123779
vt 0.7501221 0.8123779
vt 0.8126221 0.7501221
vt 0.8748779 0.7501221
vt 0.8748779 0.8123779
vt 0.8126221 0.8123779
vt 0.3126221 0.7501221
vt 0.3748779 0.7501221
vt 0.3748779 0.8123779
vt 0.3126221 0.8123779

# Normal
vn 0 0 -1

# Groups (Count = 3)
g mesh_[00]_[00]
f  1/1/1  2/2/1  3/3/1  4/4/1 
f  2/1/1  5/2/1  6/3/1  3/4/1 
f  5/1/1  7/2/1  8/3/1  6/4/1 
f  7/1/1  9/2/1  10/3/1  8/4/1 
f  9/1/1  11/2/1  12/3/1  10/4/1 
f  11/1/1  13/2/1  14/3/1  12/4/1 
f  13/1/1  15/2/1  16/3/1  14/4/1 
f  15/1/1  17/2/1  18/3/1  16/4/1 
f  17/1/1  19/2/1  20/3/1  18/4/1 
f  21/1/1  22/2/1  2/3/1  1/4/1 
f  22/1/1  23/2/1  5/3/1  2/4/1 
f  23/1/1  24/2/1  7/3/1  5/4/1 
f  24/1/1  25/2/1  9/3/1  7/4/1 
f  25/1/1  26/2/1  11/3/1  9/4/1 
f  26/1/1  27/2/1  13/3/1  11/4/1 
f  27/1/1  28/2/1  15/3/1  13/4/1 
f  28/1/1  29/2/1  17/3/1  15/4/1 
f  29/1/1  30/2/1  19/3/1  17/4/1 
f  31/1/1  32/2/1  22/3/1  21/4/1 
f  32/1/1  33/2/1  23/3/1  22/4/1 
f  33/1/1  34/2/1  24/3/1  23/4/1 
f  34/1/1  35/2/1  25/3/1  24/4/1 
f  35/1/1  36/2/1  26/3/1  25/4/1 
f  36/1/1  37/2/1  27/3/1  26/4/1 
f  37/1/1  38/2/1  28/3/1  27/4/1 
f  38/1/1  39/2/1  29/3/1  28/4/1 
f  39/1/1  40/2/1  30/3/1  29/4/1 
f  41/1/1  42/2/1  32/3/1  31/4/1 
f  42/1/1  43/2/1  33/3/1  32/4/1 
f  43/1/1  44/2/1  34/3/1  33/4/1 
f  44/1/1  45/2/1  35/3/1  34/4/1 
f  45/1/1  46/2/1  36/3/1  35/4/1 
f  46/1/1  47/2/1  37/3/1  36/4/1 
f  47/1/1  48/2/1  38/3/1  37/4/1 
f  48/1/1  49/2/1  39/3/1  38/4/1 
f  49/1/1  50/2/1  40/3/1  39/4/1 
f  51/1/1  52/2/1  42/3/1  41/4/1 
f  52/1/1  53/2/1  43/3/1  42/4/1 
f  53/1/1  54/2/1  44/3/1  43/4/1 
f  54/1/1  55/2/1  45/3/1  44/4/1 
f  55/1/1  56/2/1  46/3/1  45/4/1 
f  56/1/1  57/2/1  47/3/1  46/4/1 
f  57/1/1  58/2/1  48/3/1  47/4/1 
f  58/1/1  59/2/1  49/3/1  48/4/1 
f  59/1/1  60/2/1  50/3/1  49/4/1 
f  61/1/1  62/2/1  52/3/1  51/4/1 
f  62/1/1  63/2/1  53/3/1  52/4/1 
f  63/1/1  64/2/1  54/3/1  53/4/1 
f  64/1/1  65/2/1  55/3/1  54/4/1 
f  65/1/1  66/2/1  56/3/1  55/4/1 
f  66/1/1  67/2/1  57/3/1  56/4/1 
f  67/1/1  68/2/1  58/3/1  57/4/1 
f  68/1/1  69/2/1  59/3/1  58/4/1 
f  69/1/1  70/2/1  60/3/1  59/4/1 
f  71/1/1  72/2/1  62/3/1  61/4/1 
f  72/1/1  73/2/1  63/3/1  62/4/1 
f  73/1/1  74/2/1  64/3/1  63/4/1 
f  74/1/1  75/2/1  65/3/1  64/4/1 
f  75/1/1  76/2/1  66/3/1  65/4/1 
f  76/1/1  77/2/1  67/3/1  66/4/1 
f  77/1/1  78/2/1  68/3/1  67/4/1 
f  78/1/1  79/2/1  69/3/1  68/4/1 
f  79/1/1  80/2/1  70/3/1  69/4/1 
f  81/1/1  82/2/1  72/3/1  71/4/1 
f  82/1/1  83/2/1  73/3/1  72/4/1 
f  83/1/1  84/2/1  74/3/1  73/4/1 
f  84/1/1  85/2/1  75/3/1  74/4/1 
f  85/1/1  86/2/1  76/3/1  75/4/1 
f  86/1/1  87/2/1  77/3/1  76/4/1 
f  87/1/1  88/2/1  78/3/1  77/4/1 
f  88/1/1  89/2/1  79/3/1  78/4/1 
f  89/1/1  90/2/1  80/3/1  79/4/1 
f  91/1/1  92/2/1  82/3/1  81/4/1 
f  92/1/1  93/2/1  83/3/1  82/4/1 
f  93/1/1  94/2/1  84/3/1  83/4/1 
f  94/1/1  95/2/1  85/3/1  84/4/1 
f  95/1/1  96/2/1  86/3/1  85/4/1 
f  96/1/1  97/2/1  87/3/1  86/4/1 
f  97/1/1  98/2/1  88/3/1  87/4/1 
f  98/1/1  99/2/1  89/3/1  88/4/1 
f  99/1/1  100/2/1  90/3/1  89/4/1 
f  101/1/1  102/2/1  92/3/1  91/4/1 
f  102/1/1  103/2/1  93/3/1  92/4/1 
f  103/1/1  104/2/1  94/3/1  93/4/1 
f  104/1/1  105/2/1  95/3/1  94/4/1 
f  105/1/1  106/2/1  96/3/1  95/4/1 
f  106/1/1  107/2/1  97/3/1  96/4/1 
f  107/1/1  108/2/1  98/3/1  97/4/1 
f  108/1/1  109/2/1  99/3/1  98/4/1 
f  109/1/1  110/2/1  100/3/1  99/4/1 
f  111/1/1  112/2/1  102/3/1  101/4/1 
f  112/1/1  113/2/1  103/3/1  102/4/1 
f  113/1/1  114/2/1  104/3/1  103/4/1 
f  114/1/1  115/2/1  105/3/1  104/4/1 
f  115/1/1  116/2/1  106/3/1  105/4/1 
f  116/1/1  117/2/1  107/3/1  106/4/1 
f  117/1/1  118/2/1  108/3/1  107/4/1 
f  118/1/1  119/2/1  109/3/1  108/4/1 
f  119/1/1  120/2/1  110/3/1  109/4/1 
f  121/1/1  122/2/1  112/3/1  111/4/1 
f  122/1/1  123/2/1  113/3/1  112/4/1 
f  123/1/1  124/2/1  114/3/1  113/4/1 
f  124/1/1  125/2/1  115/3/1  114/4/1 
f  125/1/1  126/2/1  116/3/1  115/4/1 
f  126/1/1  127/2/1  117/3/1  116/4/1 
f  127/1/1  128/2/1  118/3/1  117/4/1 
f  128/1/1  129/2/1  119/3/1  118/4/1 
f  129/1/1  130/2/1  120/3/1  119/4/1 
f  131/1/1  132/2/1  122/3/1  121/4/1 
f  132/1/1  133/2/1  123/3/1  122/4/1 
f  133/1/1  134/2/1  124/3/1  123/4/1 
f  134/1/1  135/2/1  125/3/1  124/4/1 
f  135/1/1  136/2/1  126/3/1  125/4/1 
f  136/1/1  137/2/1  127/3/1  126/4/1 
f  137/1/1  138/2/1  128/3/1  127/4/1 
f  138/1/1  139/2/1  129/3/1  128/4/1 
f  139/1/1  140/2/1  130/3/1  129/4/1 
f  141/1/1  142/2/1  131/3/1  143/4/1 
f  142/1/1  144/2/1  132/3/1  131/4/1 
f  144/1/1  145/2/1  133/3/1  132/4/1 
f  145/1/1  146/2/1  134/3/1  133/4/1 
f  146/1/1  147/2/1  135/3/1  134/4/1 
f  147/1/1  148/2/1  136/3/1  135/4/1 
f  148/1/1  149/2/1  137/3/1  136/4/1 
f  149/1/1  150/2/1  138/3/1  137/4/1 
f  150/1/1  151/2/1  139/3/1  138/4/1 
f  151/1/1  152/2/1  140/3/1  139/4/1 
g mesh_[01]_[01]
f  21/5/1  23/6/1  6/7/1  4/8/1 
f  23/9/1  25/10/1  10/11/1  6/12/1 
f  27/13/1  29/14/1  18/15/1  14/16/1 
f  31/17/1  33/18/1  5/19/1  1/20/1 
f  33/21/1  35/22/1  9/23/1  5/24/1 
f  62/13/1  64/14/1  44/15/1  42/16/1 
f  81/21/1  83/22/1  63/23/1  61/24/1 
f  83/25/1  85/26/1  65/27/1  63/28/1 
f  105/21/1  107/22/1  87/23/1  85/24/1 
f  118/25/1  120/26/1  100/27/1  98/28/1 
g mesh_[02]_[00]
f  153/29/1  154/30/1  155/31/1  156/32/1 
f  154/33/1  157/34/1  158/35/1  155/36/1 
f  157/33/1  159/34/1  160/35/1  158/36/1 
f  159/33/1  161/34/1  162/35/1  160/36/1 
f  161/33/1  163/34/1  164/35/1  162/36/1 
f  163/33/1  165/34/1  166/35/1  164/36/1 
f  165/33/1  167/34/1  168/35/1  166/36/1 
f  167/33/1  169/34/1  170/35/1  168/36/1 
f  169/33/1  171/34/1  172/35/1  170/36/1 
f  171/33/1  173/34/1  174/35/1  172/36/1 
f  173/33/1  175/34/1  176/35/1  174/36/1 
f  175/33/1  177/34/1  178/35/1  176/36/1 
f  177/33/1  179/34/1  180/35/1  178/36/1 
f  179/33/1  181/34/1  182/35/1  180/36/1 
f  181/33/1  183/34/1  184/35/1  182/36/1 
f  183/33/1  185/34/1  186/35/1  184/36/1 
f  185/33/1  187/34/1  188/35/1  186/36/1 
f  187/33/1  189/34/1  190/35/1  188/36/1 
f  191/29/1  192/30/1  154/31/1  153/32/1 
f  192/33/1  193/34/1  157/35/1  154/36/1 
f  193/33/1  194/34/1  159/35/1  157/36/1 
f  194/33/1  195/34/1  161/35/1  159/36/1 
f  195/33/1  196/34/1  163/35/1  161/36/1 
f  196/33/1  197/34/1  165/35/1  163/36/1 
f  197/33/1  198/34/1  167/35/1  165/36/1 
f  198/33/1  199/34/1  169/35/1  167/36/1 
f  199/33/1  200/34/1  171/35/1  169/36/1 
f  200/33/1  201/34/1  173/35/1  171/36/1 
f  201/33/1  202/34/1  175/35/1  173/36/1 
f  202/33/1  203/34/1  177/35/1  175/36/1 
f  203/33/1  204/34/1  179/35/1  177/36/1 
f  204/33/1  205/34/1  181/35/1  179/36/1 
f  205/33/1  206/34/1  183/35/1  181/36/1 
f  206/33/1  207/34/1  185/35/1  183/36/1 
f  207/33/1  208/34/1  187/35/1  185/36/1 
f  208/33/1  209/34/1  189/35/1  187/36/1 
f  210/29/1  211/30/1  192/31/1  191/32/1 
f  211/33/1  212/34/1  193/35/1  192/36/1 
f  212/33/1  213/34/1  194/35/1  193/36/1 
f  213/33/1  214/34/1  195/35/1  194/36/1 
f  214/33/1  215/34/1  196/35/1  195/36/1 
f  215/33/1  216/34/1  197/35/1  196/36/1 
f  216/33/1  217/34/1  198/35/1  197/36/1 
f  217/33/1  218/34/1  199/35/1  198/36/1 
f  218/33/1  219/34/1  200/35/1  199/36/1 
f  219/33/1  220/34/1  201/35/1  200/36/1 
f  220/33/1  221/34/1  202/35/1  201/36/1 
f  221/33/1  222/34/1  203/35/1  202/36/1 
f  222/33/1  223/34/1  204/35/1  203/36/1 
f  223/33/1  224/34/1  205/35/1  204/36/1 
f  224/33/1  225/34/1  206/35/1  205/36/1 
f  225/33/1  226/34/1  207/35/1  206/36/1 
f  226/33/1  227/34/1  208/35/1  207/36/1 
f  227/33/1  228/34/1  209/35/1  208/36/1 
f  229/29/1  230/30/1  211/31/1  210/32/1 
f  230/33/1  231/34/1  212/35/1  211/36/1 
f  231/33/1  232/34/1  213/35/1  212/36/1 
f  232/33/1  233/34/1  214/35/1  213/36/1 
f  233/33/1  234/34/1  215/35/1  214/36/1 
f  234/33/1  235/34/1  216/35/1  215/36/1 
f  235/33/1  236/34/1  217/35/1  216/36/1 
f  236/33/1  237/34/1  218/35/1  217/36/1 
f  237/33/1  4/34/1  219/35/1  218/36/1 
f  4/37/1  3/38/1  220/39/1  219/40/1 
f  3/41/1  6/42/1  221/43/1  220/44/1 
f  6/41/1  8/42/1  222/43/1  221/44/1 
f  8/41/1  10/42/1  223/43/1  222/44/1 
f  10/41/1  12/42/1  224/43/1  223/44/1 
f  12/41/1  14/42/1  225/43/1  224/44/1 
f  14/41/1  16/42/1  226/43/1  225/44/1 
f  16/41/1  18/42/1  227/43/1  226/44/1 
f  18/41/1  20/42/1  228/43/1  227/44/1 
f  238/29/1  239/30/1  230/31/1  229/32/1 
f  239/33/1  240/34/1  231/35/1  230/36/1 
f  240/33/1  241/34/1  232/35/1  231/36/1 
f  241/33/1  242/34/1  233/35/1  232/36/1 
f  242/33/1  243/34/1  234/35/1  233/36/1 
f  243/33/1  244/34/1  235/35/1  234/36/1 
f  244/33/1  245/34/1  236/35/1  235/36/1 
f  245/33/1  246/34/1  237/35/1  236/36/1 
f  246/37/1  1/38/1  4/39/1  237/40/1 
f  1/45/1  2/46/1  3/47/1  4/48/1 
f  247/29/1  248/30/1  239/31/1  238/32/1 
f  248/33/1  249/34/1  240/35/1  239/36/1 
f  249/33/1  250/34/1  241/35/1  240/36/1 
f  250/33/1  251/34/1  242/35/1  241/36/1 
f  251/33/1  252/34/1  243/35/1  242/36/1 
f  252/33/1  253/34/1  244/35/1  243/36/1 
f  253/33/1  254/34/1  245/35/1  244/36/1 
f  254/33/1  255/34/1  246/35/1  245/36/1 
f  255/49/1  21/50/1  1/51/1  246/52/1 
f  256/29/1  257/30/1  248/31/1  247/32/1 
f  257/33/1  258/34/1  249/35/1  248/36/1 
f  258/33/1  259/34/1  250/35/1  249/36/1 
f  259/33/1  260/34/1  251/35/1  250/36/1 
f  260/33/1  261/34/1  252/35/1  251/36/1 
f  261/33/1  262/34/1  253/35/1  252/36/1 
f  262/33/1  263/34/1  254/35/1  253/36/1 
f  263/33/1  264/34/1  255/35/1  254/36/1 
f  264/49/1  31/50/1  21/51/1  255/52/1 
f  33/53/1  34/54/1  24/55/1  23/56/1 
f  34/57/1  35/58/1  25/59/1  24/60/1 
f  35/13/1  36/14/1  26/15/1  25/16/1 
f  265/29/1  266/30/1  257/31/1  256/32/1 
f  266/33/1  267/34/1  258/35/1  257/36/1 
f  267/33/1  268/34/1  259/35/1  258/36/1 
f  268/33/1  269/34/1  260/35/1  259/36/1 
f  269/33/1  270/34/1  261/35/1  260/36/1 
f  270/33/1  271/34/1  262/35/1  261/36/1 
f  271/33/1  272/34/1  263/35/1  262/36/1 
f  272/33/1  273/34/1  264/35/1  263/36/1 
f  273/61/1  41/62/1  31/63/1  264/64/1 
f  41/57/1  42/58/1  32/59/1  31/60/1 
f  42/57/1  43/58/1  33/59/1  32/60/1 
f  43/65/1  44/66/1  34/67/1  33/68/1 
f  44/37/1  45/38/1  35/39/1  34/40/1 
f  45/45/1  46/46/1  36/47/1  35/48/1 
f  274/29/1  275/30/1  266/31/1  265/32/1 
f  275/33/1  276/34/1  267/35/1  266/36/1 
f  276/33/1  277/34/1  268/35/1  267/36/1 
f  277/33/1  278/34/1  269/35/1  268/36/1 
f  278/33/1  279/34/1  270/35/1  269/36/1 
f  279/33/1  280/34/1  271/35/1  270/36/1 
f  280/33/1  281/34/1  272/35/1  271/36/1 
f  281/33/1  282/34/1  273/35/1  272/36/1 
f  282/33/1  51/34/1  41/35/1  273/36/1 
f  51/37/1  52/38/1  42/39/1  41/40/1 
f  52/41/1  53/42/1  43/43/1  42/44/1 
f  53/41/1  54/42/1  44/43/1  43/44/1 
f  54/9/1  55/10/1  45/11/1  44/12/1 
f  283/29/1  284/30/1  275/31/1  274/32/1 
f  284/33/1  285/34/1  276/35/1  275/36/1 
f  285/33/1  286/34/1  277/35/1  276/36/1 
f  286/33/1  287/34/1  278/35/1  277/36/1 
f  287/33/1  288/34/1  279/35/1  278/36/1 
f  288/33/1  289/34/1  280/35/1  279/36/1 
f  289/33/1  290/34/1  281/35/1  280/36/1 
f  290/33/1  291/34/1  282/35/1  281/36/1 
f  291/37/1  61/38/1  51/39/1  282/40/1 
f  61/45/1  62/46/1  52/47/1  51/48/1 
f  292/29/1  293/30/1  284/31/1  283/32/1 
f  293/33/1  294/34/1  285/35/1  284/36/1 
f  294/33/1  295/34/1  286/35/1  285/36/1 
f  295/33/1  296/34/1  287/35/1  286/36/1 
f  296/33/1  297/34/1  288/35/1  287/36/1 
f  297/33/1  298/34/1  289/35/1  288/36/1 
f  298/33/1  299/34/1  290/35/1  289/36/1 
f  299/33/1  300/34/1  291/35/1  290/36/1 
f  300/49/1  71/50/1  61/51/1  291/52/1 
f  301/29/1  302/30/1  293/31/1  292/32/1 
f  302/33/1  303/34/1  294/35/1  293/36/1 
f  303/33/1  304/34/1  295/35/1  294/36/1 
f  304/33/1  305/34/1  296/35/1  295/36/1 
f  305/33/1  306/34/1  297/35/1  296/36/1 
f  306/33/1  307/34/1  298/35/1  297/36/1 
f  307/33/1  308/34/1  299/35/1  298/36/1 
f  308/33/1  309/34/1  300/35/1  299/36/1 
f  309/61/1  81/62/1  71/63/1  300/64/1 
f  81/69/1  82/70/1  72/71/1  71/72/1 
f  310/29/1  311/30/1  302/31/1  301/32/1 
f  311/33/1  312/34/1  303/35/1  302/36/1 
f  312/33/1  313/34/1  304/35/1  303/36/1 
f  313/33/1  314/34/1  305/35/1  304/36/1 
f  314/33/1  315/34/1  306/35/1  305/36/1 
f  315/33/1  316/34/1  307/35/1  306/36/1 
f  316/33/1  317/34/1  308/35/1  307/36/1 
f  317/33/1  318/34/1  309/35/1  308/36/1 
f  318/33/1  91/34/1  81/35/1  309/36/1 
f  91/61/1  92/62/1  82/63/1  81/64/1 
f  92/57/1  93/58/1  83/59/1  82/60/1 
f  93/57/1  94/58/1  84/59/1  83/60/1 
f  94/57/1  95/58/1  85/59/1  84/60/1 
f  95/69/1  96/70/1  86/71/1  85/72/1 
f  319/29/1  320/30/1  311/31/1  310/32/1 
f  320/33/1  321/34/1  312/35/1  311/36/1 
f  321/33/1  322/34/1  313/35/1  312/36/1 
f  322/33/1  323/34/1  314/35/1  313/36/1 
f  323/33/1  324/34/1  315/35/1  314/36/1 
f  324/33/1  325/34/1  316/35/1  315/36/1 
f  325/33/1  326/34/1  317/35/1  316/36/1 
f  326/33/1  327/34/1  318/35/1  317/36/1 
f  327/33/1  101/34/1  91/35/1  318/36/1 
f  101/33/1  102/34/1  92/35/1  91/36/1 
f  102/33/1  103/34/1  93/35/1  92/36/1 
f  103/33/1  104/34/1  94/35/1  93/36/1 
f  104/33/1  105/34/1  95/35/1  94/36/1 
f  105/61/1  106/62/1  96/63/1  95/64/1 
f  106/57/1  107/58/1  97/59/1  96/60/1 
f  107/69/1  108/70/1  98/71/1  97/72/1 
f  328/29/1  329/30/1  320/31/1  319/32/1 
f  329/33/1  330/34/1  321/35/1  320/36/1 
f  330/33/1  331/34/1  322/35/1  321/36/1 
f  331/33/1  332/34/1  323/35/1  322/36/1 
f  332/33/1  333/34/1  324/35/1  323/36/1 
f  333/33/1  334/34/1  325/35/1  324/36/1 
f  334/33/1  335/34/1  326/35/1  325/36/1 
f  335/33/1  336/34/1  327/35/1  326/36/1 
f  336/33/1  111/34/1  101/35/1  327/36/1 
f  111/33/1  112/34/1  102/35/1  101/36/1 
f  112/33/1  113/34/1  103/35/1  102/36/1 
f  113/33/1  114/34/1  104/35/1  103/36/1 
f  114/33/1  115/34/1  105/35/1  104/36/1 
f  115/33/1  116/34/1  106/35/1  105/36/1 
f  116/33/1  117/34/1  107/35/1  106/36/1 
f  117/61/1  118/62/1  108/63/1  107/64/1 
f  118/57/1  119/58/1  109/59/1  108/60/1 
f  119/57/1  120/58/1  110/59/1  109/60/1 
f  337/29/1  338/30/1  329/31/1  328/32/1 
f  338/33/1  339/34/1  330/35/1  329/36/1 
f  339/33/1  340/34/1  331/35/1  330/36/1 
f  340/33/1  341/34/1  332/35/1  331/36/1 
f  341/33/1  342/34/1  333/35/1  332/36/1 
f  342/33/1  343/34/1  334/35/1  333/36/1 
f  343/33/1  344/34/1  335/35/1  334/36/1 
f  344/33/1  345/34/1  336/35/1  335/36/1 
f  345/33/1  121/34/1  111/35/1  336/36/1 
f  121/33/1  122/34/1  112/35/1  111/36/1 
f  122/33/1  123/34/1  113/35/1  112/36/1 
f  123/33/1  124/34/1  114/35/1  113/36/1 
f  124/33/1  125/34/1  115/35/1  114/36/1 
f  125/33/1  126/34/1  116/35/1  115/36/1 
f  126/33/1  127/34/1  117/35/1  116/36/1 
f  127/33/1  128/34/1  118/35/1  117/36/1 
f  128/33/1  129/34/1  119/35/1  118/36/1 
f  129/33/1  130/34/1  120/35/1  119/36/1 
f  346/29/1  347/30/1  338/31/1  337/32/1 
f  347/33/1  348/34/1  339/35/1  338/36/1 
f  348/33/1  349/34/1  340/35/1  339/36/1 
f  349/33/1  350/34/1  341/35/1  340/36/1 
f  350/33/1  351/34/1  342/35/1  341/36/1 
f  351/33/1  352/34/1  343/35/1  342/36/1 
f  352/33/1  353/34/1  344/35/1  343/36/1 
f  353/33/1  143/34/1  345/35/1  344/36/1 
f  143/33/1  131/34/1  121/35/1  345/36/1 
f  131/33/1  132/34/1  122/35/1  121/36/1 
f  132/33/1  133/34/1  123/35/1  122/36/1 
f  133/33/1  134/34/1  124/35/1  123/36/1 
f  134/33/1  135/34/1  125/35/1  124/36/1 
f  135/33/1  136/34/1  126/35/1  125/36/1 
f  136/33/1  137/34/1  127/35/1  126/36/1 
f  137/33/1  138/34/1  128/35/1  127/36/1 
f  138/33/1  139/34/1  129/35/1  128/36/1 
f  139/33/1  140/34/1  130/35/1  129/36/1 
f  354/29/1  355/30/1  347/31/1  346/32/1 
f  355/33/1  356/34/1  348/35/1  347/36/1 
f  356/33/1  357/34/1  349/35/1  348/36/1 
f  357/33/1  358/34/1  350/35/1  349/36/1 
f  358/33/1  359/34/1  351/35/1  350/36/1 
f  359/33/1  360/34/1  352/35/1  351/36/1 
f  360/33/1  361/34/1  353/35/1  352/36/1 
f  361/33/1  141/34/1  143/35/1  353/36/1 
f  141/33/1  142/34/1  131/35/1  143/36/1 
f  142/33/1  144/34/1  132/35/1  131/36/1 
f  144/33/1  145/34/1  133/35/1  132/36/1 
f  145/33/1  146/34/1  134/35/1  133/36/1 
f  146/33/1  147/34/1  135/35/1  134/36/1 
f  147/33/1  148/34/1  136/35/1  135/36/1 
f  148/33/1  149/34/1  137/35/1  136/36/1 
f  149/33/1  150/34/1  138/35/1  137/36/1 
f  150/33/1  151/34/1  139/35/1  138/36/1 
f  151/33/1  152/34/1  140/35/1  139/36/1 
