# Wavefront OBJ file automatically generated by Tiled2Unity

# Vertices (Count = 228)
v -1472 -768 0
v -1536 -768 0
v -1536 -704 0
v -1472 -704 0
v -1600 -768 0
v -1600 -704 0
v -1664 -768 0
v -1664 -704 0
v -1728 -768 0
v -1728 -704 0
v -1792 -768 0
v -1792 -704 0
v -1856 -768 0
v -1856 -704 0
v -1920 -768 0
v -1920 -704 0
v -1984 -768 0
v -1984 -704 0
v -2048 -768 0
v -2048 -704 0
v -2112 -768 0
v -2112 -704 0
v -2176 -768 0
v -2176 -704 0
v -1472 -832 0
v -1536 -832 0
v -1600 -832 0
v -1664 -832 0
v -1728 -832 0
v -1792 -832 0
v -1856 -832 0
v -1920 -832 0
v -1984 -832 0
v -2048 -832 0
v -2112 -832 0
v -2176 -832 0
v -1472 -896 0
v -1536 -896 0
v -1600 -896 0
v -1664 -896 0
v -1728 -896 0
v -1792 -896 0
v -1856 -896 0
v -1920 -896 0
v -1984 -896 0
v -2048 -896 0
v -2112 -896 0
v -2176 -896 0
v -1472 -960 0
v -1536 -960 0
v -1600 -960 0
v -1664 -960 0
v -1728 -960 0
v -1792 -960 0
v -1856 -960 0
v -1920 -960 0
v -1984 -960 0
v -2048 -960 0
v -2112 -960 0
v -2176 -960 0
v -1472 -1024 0
v -1536 -1024 0
v -1600 -1024 0
v -1664 -1024 0
v -1728 -1024 0
v -1792 -1024 0
v -1856 -1024 0
v -1920 -1024 0
v -1984 -1024 0
v -2048 -1024 0
v -2112 -1024 0
v -2176 -1024 0
v -1472 -1088 0
v -1536 -1088 0
v -1600 -1088 0
v -1664 -1088 0
v -1728 -1088 0
v -1792 -1088 0
v -1856 -1088 0
v -1920 -1088 0
v -1984 -1088 0
v -2048 -1088 0
v -2112 -1088 0
v -2176 -1088 0
v -1472 -1152 0
v -1536 -1152 0
v -1600 -1152 0
v -1664 -1152 0
v -1728 -1152 0
v -1792 -1152 0
v -1856 -1152 0
v -1920 -1152 0
v -1984 -1152 0
v -2048 -1152 0
v -2112 -1152 0
v -2176 -1152 0
v -1472 -1216 0
v -1536 -1216 0
v -1600 -1216 0
v -1664 -1216 0
v -1728 -1216 0
v -1792 -1216 0
v -1856 -1216 0
v -1920 -1216 0
v -1984 -1216 0
v -2048 -1216 0
v -2112 -1216 0
v -2176 -1216 0
v -1472 -1280 0
v -1536 -1280 0
v -1600 -1280 0
v -1664 -1280 0
v -1728 -1280 0
v -1792 -1280 0
v -1856 -1280 0
v -1920 -1280 0
v -1984 -1280 0
v -2048 -1280 0
v -2112 -1280 0
v -2176 -1280 0
v -1472 -1344 0
v -1536 -1344 0
v -1600 -1344 0
v -1664 -1344 0
v -1728 -1344 0
v -1792 -1344 0
v -1856 -1344 0
v -1920 -1344 0
v -1984 -1344 0
v -2048 -1344 0
v -2112 -1344 0
v -2176 -1344 0
v -1472 -1408 0
v -1536 -1408 0
v -1600 -1408 0
v -1664 -1408 0
v -1728 -1408 0
v -1792 -1408 0
v -1856 -1408 0
v -1920 -1408 0
v -1984 -1408 0
v -2048 -1408 0
v -2112 -1408 0
v -2176 -1408 0
v -1472 -1472 0
v -1536 -1472 0
v -1600 -1472 0
v -1664 -1472 0
v -1728 -1472 0
v -1792 -1472 0
v -1856 -1472 0
v -1920 -1472 0
v -1984 -1472 0
v -2048 -1472 0
v -2112 -1472 0
v -2176 -1472 0
v -1472 -1536 0
v -1536 -1536 0
v -1600 -1536 0
v -1664 -1536 0
v -1728 -1536 0
v -1792 -1536 0
v -1856 -1536 0
v -1920 -1536 0
v -1984 -1536 0
v -2048 -1536 0
v -2112 -1536 0
v -2176 -1536 0
v -1472 -1600 0
v -1536 -1600 0
v -1600 -1600 0
v -1664 -1600 0
v -1728 -1600 0
v -1792 -1600 0
v -1856 -1600 0
v -1920 -1600 0
v -1984 -1600 0
v -2048 -1600 0
v -2112 -1600 0
v -2176 -1600 0
v -1472 -512 0
v -1536 -512 0
v -1536 -448 0
v -1472 -448 0
v -1600 -512 0
v -1600 -448 0
v -1664 -512 0
v -1664 -448 0
v -1728 -512 0
v -1728 -448 0
v -1792 -512 0
v -1792 -448 0
v -1856 -512 0
v -1856 -448 0
v -1920 -512 0
v -1920 -448 0
v -1984 -512 0
v -1984 -448 0
v -2048 -512 0
v -2048 -448 0
v -2112 -512 0
v -2112 -448 0
v -2176 -512 0
v -2176 -448 0
v -1472 -576 0
v -1536 -576 0
v -1600 -576 0
v -1664 -576 0
v -1728 -576 0
v -1792 -576 0
v -1856 -576 0
v -1920 -576 0
v -1984 -576 0
v -2048 -576 0
v -2112 -576 0
v -2176 -576 0
v -1472 -640 0
v -1536 -640 0
v -1600 -640 0
v -1664 -640 0
v -1728 -640 0
v -1792 -640 0
v -1856 -640 0
v -1920 -640 0
v -1984 -640 0
v -2048 -640 0
v -2112 -640 0
v -2176 -640 0

# Texture Coorindates (Count = 108)
vt 0.4376221 0.8126221
vt 0.4998779 0.8126221
vt 0.4998779 0.8748779
vt 0.4376221 0.8748779
vt 0.06262207 0.6876221
vt 0.1248779 0.6876221
vt 0.1248779 0.7498779
vt 0.06262207 0.7498779
vt 0.0001220703 0.6876221
vt 0.06237793 0.6876221
vt 0.06237793 0.7498779
vt 0.0001220703 0.7498779
vt 0.6251221 0.6876221
vt 0.6873779 0.6876221
vt 0.6873779 0.7498779
vt 0.6251221 0.7498779
vt 0.4376221 0.6876221
vt 0.4998779 0.6876221
vt 0.4998779 0.7498779
vt 0.4376221 0.7498779
vt 0.06262207 0.6251221
vt 0.1248779 0.6251221
vt 0.1248779 0.6873779
vt 0.06262207 0.6873779
vt 0.6251221 0.6251221
vt 0.6873779 0.6251221
vt 0.6873779 0.6873779
vt 0.6251221 0.6873779
vt 0.6251221 0.5626221
vt 0.6873779 0.5626221
vt 0.6873779 0.6248779
vt 0.6251221 0.6248779
vt 0.3751221 0.6876221
vt 0.4373779 0.6876221
vt 0.4373779 0.7498779
vt 0.3751221 0.7498779
vt 0.6251221 0.5001221
vt 0.6873779 0.5001221
vt 0.6873779 0.5623779
vt 0.6251221 0.5623779
vt 0.2501221 0.6876221
vt 0.3123779 0.6876221
vt 0.3123779 0.7498779
vt 0.2501221 0.7498779
vt 0.3126221 0.6876221
vt 0.3748779 0.6876221
vt 0.3748779 0.7498779
vt 0.3126221 0.7498779
vt 0.0001220703 0.7501221
vt 0.06237793 0.7501221
vt 0.06237793 0.8123779
vt 0.0001220703 0.8123779
vt 0.1251221 0.7501221
vt 0.1873779 0.7501221
vt 0.1873779 0.8123779
vt 0.1251221 0.8123779
vt 0.6251221 0.7501221
vt 0.6873779 0.7501221
vt 0.6873779 0.8123779
vt 0.6251221 0.8123779
vt 0.9376221 0.7501221
vt 0.9998779 0.7501221
vt 0.9998779 0.8123779
vt 0.9376221 0.8123779
vt 0.2501221 0.7501221
vt 0.3123779 0.7501221
vt 0.3123779 0.8123779
vt 0.2501221 0.8123779
vt 0.1876221 0.7501221
vt 0.2498779 0.7501221
vt 0.2498779 0.8123779
vt 0.1876221 0.8123779
vt 0.06262207 0.7501221
vt 0.1248779 0.7501221
vt 0.1248779 0.8123779
vt 0.06262207 0.8123779
vt 0.3126221 0.7501221
vt 0.3748779 0.7501221
vt 0.3748779 0.8123779
vt 0.3126221 0.8123779
vt 0.1251221 0.6876221
vt 0.1873779 0.6876221
vt 0.1873779 0.7498779
vt 0.1251221 0.7498779
vt 0.8751221 0.7501221
vt 0.9373779 0.7501221
vt 0.9373779 0.8123779
vt 0.8751221 0.8123779
vt 0.1876221 0.6876221
vt 0.2498779 0.6876221
vt 0.2498779 0.7498779
vt 0.1876221 0.7498779
vt 0.6876221 0.7501221
vt 0.7498779 0.7501221
vt 0.7498779 0.8123779
vt 0.6876221 0.8123779
vt 0.3751221 0.7501221
vt 0.4373779 0.7501221
vt 0.4373779 0.8123779
vt 0.3751221 0.8123779
vt 0.8126221 0.7501221
vt 0.8748779 0.7501221
vt 0.8748779 0.8123779
vt 0.8126221 0.8123779
vt 0.7501221 0.7501221
vt 0.8123779 0.7501221
vt 0.8123779 0.8123779
vt 0.7501221 0.8123779

# Normal
vn 0 0 -1

# Groups (Count = 3)
g mesh_[00]_[00]
f  1/1/1  2/2/1  3/3/1  4/4/1 
f  2/1/1  5/2/1  6/3/1  3/4/1 
f  5/1/1  7/2/1  8/3/1  6/4/1 
f  7/1/1  9/2/1  10/3/1  8/4/1 
f  9/1/1  11/2/1  12/3/1  10/4/1 
f  11/1/1  13/2/1  14/3/1  12/4/1 
f  13/1/1  15/2/1  16/3/1  14/4/1 
f  15/1/1  17/2/1  18/3/1  16/4/1 
f  17/1/1  19/2/1  20/3/1  18/4/1 
f  19/1/1  21/2/1  22/3/1  20/4/1 
f  21/1/1  23/2/1  24/3/1  22/4/1 
f  25/1/1  26/2/1  2/3/1  1/4/1 
f  26/1/1  27/2/1  5/3/1  2/4/1 
f  27/1/1  28/2/1  7/3/1  5/4/1 
f  28/1/1  29/2/1  9/3/1  7/4/1 
f  29/1/1  30/2/1  11/3/1  9/4/1 
f  30/1/1  31/2/1  13/3/1  11/4/1 
f  31/1/1  32/2/1  15/3/1  13/4/1 
f  32/1/1  33/2/1  17/3/1  15/4/1 
f  33/1/1  34/2/1  19/3/1  17/4/1 
f  34/1/1  35/2/1  21/3/1  19/4/1 
f  35/1/1  36/2/1  23/3/1  21/4/1 
f  37/1/1  38/2/1  26/3/1  25/4/1 
f  38/1/1  39/2/1  27/3/1  26/4/1 
f  39/1/1  40/2/1  28/3/1  27/4/1 
f  40/1/1  41/2/1  29/3/1  28/4/1 
f  41/1/1  42/2/1  30/3/1  29/4/1 
f  42/1/1  43/2/1  31/3/1  30/4/1 
f  43/1/1  44/2/1  32/3/1  31/4/1 
f  44/1/1  45/2/1  33/3/1  32/4/1 
f  45/1/1  46/2/1  34/3/1  33/4/1 
f  46/1/1  47/2/1  35/3/1  34/4/1 
f  47/1/1  48/2/1  36/3/1  35/4/1 
f  49/1/1  50/2/1  38/3/1  37/4/1 
f  50/1/1  51/2/1  39/3/1  38/4/1 
f  51/1/1  52/2/1  40/3/1  39/4/1 
f  52/1/1  53/2/1  41/3/1  40/4/1 
f  53/1/1  54/2/1  42/3/1  41/4/1 
f  54/1/1  55/2/1  43/3/1  42/4/1 
f  55/1/1  56/2/1  44/3/1  43/4/1 
f  56/1/1  57/2/1  45/3/1  44/4/1 
f  57/1/1  58/2/1  46/3/1  45/4/1 
f  58/1/1  59/2/1  47/3/1  46/4/1 
f  59/1/1  60/2/1  48/3/1  47/4/1 
f  61/1/1  62/2/1  50/3/1  49/4/1 
f  62/1/1  63/2/1  51/3/1  50/4/1 
f  63/1/1  64/2/1  52/3/1  51/4/1 
f  64/1/1  65/2/1  53/3/1  52/4/1 
f  65/1/1  66/2/1  54/3/1  53/4/1 
f  66/1/1  67/2/1  55/3/1  54/4/1 
f  67/1/1  68/2/1  56/3/1  55/4/1 
f  68/1/1  69/2/1  57/3/1  56/4/1 
f  69/1/1  70/2/1  58/3/1  57/4/1 
f  70/1/1  71/2/1  59/3/1  58/4/1 
f  71/1/1  72/2/1  60/3/1  59/4/1 
f  73/1/1  74/2/1  62/3/1  61/4/1 
f  74/1/1  75/2/1  63/3/1  62/4/1 
f  75/1/1  76/2/1  64/3/1  63/4/1 
f  76/1/1  77/2/1  65/3/1  64/4/1 
f  77/1/1  78/2/1  66/3/1  65/4/1 
f  78/1/1  79/2/1  67/3/1  66/4/1 
f  79/1/1  80/2/1  68/3/1  67/4/1 
f  80/1/1  81/2/1  69/3/1  68/4/1 
f  81/1/1  82/2/1  70/3/1  69/4/1 
f  82/1/1  83/2/1  71/3/1  70/4/1 
f  83/1/1  84/2/1  72/3/1  71/4/1 
f  85/1/1  86/2/1  74/3/1  73/4/1 
f  86/1/1  87/2/1  75/3/1  74/4/1 
f  87/1/1  88/2/1  76/3/1  75/4/1 
f  88/1/1  89/2/1  77/3/1  76/4/1 
f  89/1/1  90/2/1  78/3/1  77/4/1 
f  90/1/1  91/2/1  79/3/1  78/4/1 
f  91/1/1  92/2/1  80/3/1  79/4/1 
f  92/1/1  93/2/1  81/3/1  80/4/1 
f  93/1/1  94/2/1  82/3/1  81/4/1 
f  94/1/1  95/2/1  83/3/1  82/4/1 
f  95/1/1  96/2/1  84/3/1  83/4/1 
f  97/1/1  98/2/1  86/3/1  85/4/1 
f  98/1/1  99/2/1  87/3/1  86/4/1 
f  99/1/1  100/2/1  88/3/1  87/4/1 
f  100/1/1  101/2/1  89/3/1  88/4/1 
f  101/1/1  102/2/1  90/3/1  89/4/1 
f  102/1/1  103/2/1  91/3/1  90/4/1 
f  103/1/1  104/2/1  92/3/1  91/4/1 
f  104/1/1  105/2/1  93/3/1  92/4/1 
f  105/1/1  106/2/1  94/3/1  93/4/1 
f  106/1/1  107/2/1  95/3/1  94/4/1 
f  107/1/1  108/2/1  96/3/1  95/4/1 
f  109/1/1  110/2/1  98/3/1  97/4/1 
f  110/1/1  111/2/1  99/3/1  98/4/1 
f  111/1/1  112/2/1  100/3/1  99/4/1 
f  112/1/1  113/2/1  101/3/1  100/4/1 
f  113/1/1  114/2/1  102/3/1  101/4/1 
f  114/1/1  115/2/1  103/3/1  102/4/1 
f  115/1/1  116/2/1  104/3/1  103/4/1 
f  116/1/1  117/2/1  105/3/1  104/4/1 
f  117/1/1  118/2/1  106/3/1  105/4/1 
f  118/1/1  119/2/1  107/3/1  106/4/1 
f  119/1/1  120/2/1  108/3/1  107/4/1 
f  121/1/1  122/2/1  110/3/1  109/4/1 
f  122/1/1  123/2/1  111/3/1  110/4/1 
f  123/1/1  124/2/1  112/3/1  111/4/1 
f  124/1/1  125/2/1  113/3/1  112/4/1 
f  125/1/1  126/2/1  114/3/1  113/4/1 
f  126/1/1  127/2/1  115/3/1  114/4/1 
f  127/1/1  128/2/1  116/3/1  115/4/1 
f  128/1/1  129/2/1  117/3/1  116/4/1 
f  129/1/1  130/2/1  118/3/1  117/4/1 
f  130/1/1  131/2/1  119/3/1  118/4/1 
f  131/1/1  132/2/1  120/3/1  119/4/1 
f  133/1/1  134/2/1  122/3/1  121/4/1 
f  134/1/1  135/2/1  123/3/1  122/4/1 
f  135/1/1  136/2/1  124/3/1  123/4/1 
f  136/1/1  137/2/1  125/3/1  124/4/1 
f  137/1/1  138/2/1  126/3/1  125/4/1 
f  138/1/1  139/2/1  127/3/1  126/4/1 
f  139/1/1  140/2/1  128/3/1  127/4/1 
f  140/1/1  141/2/1  129/3/1  128/4/1 
f  141/1/1  142/2/1  130/3/1  129/4/1 
f  142/1/1  143/2/1  131/3/1  130/4/1 
f  143/1/1  144/2/1  132/3/1  131/4/1 
f  145/1/1  146/2/1  134/3/1  133/4/1 
f  146/1/1  147/2/1  135/3/1  134/4/1 
f  147/1/1  148/2/1  136/3/1  135/4/1 
f  148/1/1  149/2/1  137/3/1  136/4/1 
f  149/1/1  150/2/1  138/3/1  137/4/1 
f  150/1/1  151/2/1  139/3/1  138/4/1 
f  151/1/1  152/2/1  140/3/1  139/4/1 
f  152/1/1  153/2/1  141/3/1  140/4/1 
f  153/1/1  154/2/1  142/3/1  141/4/1 
f  154/1/1  155/2/1  143/3/1  142/4/1 
f  155/1/1  156/2/1  144/3/1  143/4/1 
f  157/1/1  158/2/1  146/3/1  145/4/1 
f  158/1/1  159/2/1  147/3/1  146/4/1 
f  159/1/1  160/2/1  148/3/1  147/4/1 
f  160/1/1  161/2/1  149/3/1  148/4/1 
f  161/1/1  162/2/1  150/3/1  149/4/1 
f  162/1/1  163/2/1  151/3/1  150/4/1 
f  163/1/1  164/2/1  152/3/1  151/4/1 
f  164/1/1  165/2/1  153/3/1  152/4/1 
f  165/1/1  166/2/1  154/3/1  153/4/1 
f  166/1/1  167/2/1  155/3/1  154/4/1 
f  167/1/1  168/2/1  156/3/1  155/4/1 
f  169/1/1  170/2/1  158/3/1  157/4/1 
f  170/1/1  171/2/1  159/3/1  158/4/1 
f  171/1/1  172/2/1  160/3/1  159/4/1 
f  172/1/1  173/2/1  161/3/1  160/4/1 
f  173/1/1  174/2/1  162/3/1  161/4/1 
f  174/1/1  175/2/1  163/3/1  162/4/1 
f  175/1/1  176/2/1  164/3/1  163/4/1 
f  176/1/1  177/2/1  165/3/1  164/4/1 
f  177/1/1  178/2/1  166/3/1  165/4/1 
f  178/1/1  179/2/1  167/3/1  166/4/1 
f  179/1/1  180/2/1  168/3/1  167/4/1 
g mesh_[01]_[01]
f  25/5/1  27/6/1  6/7/1  4/8/1 
f  31/9/1  33/10/1  18/11/1  14/12/1 
f  32/9/1  34/10/1  20/11/1  16/12/1 
f  33/13/1  35/14/1  22/15/1  18/16/1 
f  34/9/1  36/10/1  24/11/1  20/12/1 
f  42/17/1  44/18/1  15/19/1  11/20/1 
f  49/21/1  51/22/1  27/23/1  25/24/1 
f  57/25/1  59/26/1  35/27/1  33/28/1 
f  74/13/1  76/14/1  52/15/1  50/16/1 
f  75/9/1  77/10/1  53/11/1  51/12/1 
f  77/5/1  79/6/1  55/7/1  53/8/1 
f  79/9/1  81/10/1  57/11/1  55/12/1 
f  81/29/1  83/30/1  59/31/1  57/32/1 
f  93/33/1  95/34/1  71/35/1  69/36/1 
f  98/25/1  100/26/1  76/27/1  74/28/1 
f  101/13/1  103/14/1  79/15/1  77/16/1 
f  111/17/1  113/18/1  89/19/1  87/20/1 
f  121/17/1  123/18/1  99/19/1  97/20/1 
f  122/37/1  124/38/1  100/39/1  98/40/1 
f  125/25/1  127/26/1  103/27/1  101/28/1 
f  126/17/1  128/18/1  104/19/1  102/20/1 
f  130/17/1  132/18/1  108/19/1  106/20/1 
f  135/29/1  137/30/1  113/31/1  111/32/1 
f  148/17/1  150/18/1  126/19/1  124/20/1 
f  150/29/1  152/30/1  128/31/1  126/32/1 
f  151/41/1  153/42/1  129/43/1  127/44/1 
f  153/45/1  155/46/1  131/47/1  129/48/1 
f  159/37/1  161/38/1  137/39/1  135/40/1 
f  170/33/1  172/34/1  148/35/1  146/36/1 
g mesh_[02]_[00]
f  181/49/1  182/50/1  183/51/1  184/52/1 
f  182/49/1  185/50/1  186/51/1  183/52/1 
f  185/49/1  187/50/1  188/51/1  186/52/1 
f  187/49/1  189/50/1  190/51/1  188/52/1 
f  189/49/1  191/50/1  192/51/1  190/52/1 
f  191/49/1  193/50/1  194/51/1  192/52/1 
f  193/49/1  195/50/1  196/51/1  194/52/1 
f  195/49/1  197/50/1  198/51/1  196/52/1 
f  197/49/1  199/50/1  200/51/1  198/52/1 
f  199/49/1  201/50/1  202/51/1  200/52/1 
f  201/49/1  203/50/1  204/51/1  202/52/1 
f  205/49/1  206/50/1  182/51/1  181/52/1 
f  206/49/1  207/50/1  185/51/1  182/52/1 
f  207/49/1  208/50/1  187/51/1  185/52/1 
f  208/49/1  209/50/1  189/51/1  187/52/1 
f  209/49/1  210/50/1  191/51/1  189/52/1 
f  210/49/1  211/50/1  193/51/1  191/52/1 
f  211/49/1  212/50/1  195/51/1  193/52/1 
f  212/49/1  213/50/1  197/51/1  195/52/1 
f  213/49/1  214/50/1  199/51/1  197/52/1 
f  214/49/1  215/50/1  201/51/1  199/52/1 
f  215/49/1  216/50/1  203/51/1  201/52/1 
f  217/49/1  218/50/1  206/51/1  205/52/1 
f  218/49/1  219/50/1  207/51/1  206/52/1 
f  219/49/1  220/50/1  208/51/1  207/52/1 
f  220/49/1  221/50/1  209/51/1  208/52/1 
f  221/49/1  222/50/1  210/51/1  209/52/1 
f  222/49/1  223/50/1  211/51/1  210/52/1 
f  223/49/1  224/50/1  212/51/1  211/52/1 
f  224/49/1  225/50/1  213/51/1  212/52/1 
f  225/49/1  226/50/1  214/51/1  213/52/1 
f  226/49/1  227/50/1  215/51/1  214/52/1 
f  227/49/1  228/50/1  216/51/1  215/52/1 
f  4/49/1  3/50/1  218/51/1  217/52/1 
f  3/49/1  6/50/1  219/51/1  218/52/1 
f  6/49/1  8/50/1  220/51/1  219/52/1 
f  8/49/1  10/50/1  221/51/1  220/52/1 
f  10/49/1  12/50/1  222/51/1  221/52/1 
f  12/49/1  14/50/1  223/51/1  222/52/1 
f  14/53/1  16/54/1  224/55/1  223/56/1 
f  16/53/1  18/54/1  225/55/1  224/56/1 
f  18/53/1  20/54/1  226/55/1  225/56/1 
f  20/53/1  22/54/1  227/55/1  226/56/1 
f  22/53/1  24/54/1  228/55/1  227/56/1 
f  1/57/1  2/58/1  3/59/1  4/60/1 
f  2/61/1  5/62/1  6/63/1  3/64/1 
f  5/49/1  7/50/1  8/51/1  6/52/1 
f  7/49/1  9/50/1  10/51/1  8/52/1 
f  9/49/1  11/50/1  12/51/1  10/52/1 
f  11/65/1  13/66/1  14/67/1  12/68/1 
f  26/69/1  27/70/1  5/71/1  2/72/1 
f  27/49/1  28/50/1  7/51/1  5/52/1 
f  28/49/1  29/50/1  9/51/1  7/52/1 
f  29/49/1  30/50/1  11/51/1  9/52/1 
f  30/65/1  31/66/1  13/67/1  11/68/1 
f  38/69/1  39/70/1  27/71/1  26/72/1 
f  39/49/1  40/50/1  28/51/1  27/52/1 
f  40/49/1  41/50/1  29/51/1  28/52/1 
f  41/49/1  42/50/1  30/51/1  29/52/1 
f  42/49/1  43/50/1  31/51/1  30/52/1 
f  43/73/1  44/74/1  32/75/1  31/76/1 
f  44/77/1  45/78/1  33/79/1  32/80/1 
f  50/81/1  51/82/1  39/83/1  38/84/1 
f  51/61/1  52/62/1  40/63/1  39/64/1 
f  52/49/1  53/50/1  41/51/1  40/52/1 
f  53/49/1  54/50/1  42/51/1  41/52/1 
f  54/49/1  55/50/1  43/51/1  42/52/1 
f  55/85/1  56/86/1  44/87/1  43/88/1 
f  56/89/1  57/90/1  45/91/1  44/92/1 
f  63/57/1  64/58/1  52/59/1  51/60/1 
f  64/61/1  65/62/1  53/63/1  52/64/1 
f  65/49/1  66/50/1  54/51/1  53/52/1 
f  66/85/1  67/86/1  55/87/1  54/88/1 
f  67/93/1  68/94/1  56/95/1  55/96/1 
f  76/57/1  77/58/1  65/59/1  64/60/1 
f  77/53/1  78/54/1  66/55/1  65/56/1 
f  78/93/1  79/94/1  67/95/1  66/96/1 
f  92/97/1  93/98/1  81/99/1  80/100/1 
f  93/73/1  94/74/1  82/75/1  81/76/1 
f  94/77/1  95/78/1  83/79/1  82/80/1 
f  104/69/1  105/70/1  93/71/1  92/72/1 
f  105/49/1  106/50/1  94/51/1  93/52/1 
f  106/65/1  107/66/1  95/67/1  94/68/1 
f  110/97/1  111/98/1  99/99/1  98/100/1 
f  111/73/1  112/74/1  100/75/1  99/76/1 
f  112/77/1  113/78/1  101/79/1  100/80/1 
f  116/69/1  117/70/1  105/71/1  104/72/1 
f  117/49/1  118/50/1  106/51/1  105/52/1 
f  118/65/1  119/66/1  107/67/1  106/68/1 
f  121/97/1  122/98/1  110/99/1  109/100/1 
f  122/101/1  123/102/1  111/103/1  110/104/1 
f  123/49/1  124/50/1  112/51/1  111/52/1 
f  124/65/1  125/66/1  113/67/1  112/68/1 
f  127/97/1  128/98/1  116/99/1  115/100/1 
f  128/49/1  129/50/1  117/51/1  116/52/1 
f  129/49/1  130/50/1  118/51/1  117/52/1 
f  130/105/1  131/106/1  119/107/1  118/108/1 
f  131/77/1  132/78/1  120/79/1  119/80/1 
f  133/49/1  134/50/1  122/51/1  121/52/1 
f  134/49/1  135/50/1  123/51/1  122/52/1 
f  135/49/1  136/50/1  124/51/1  123/52/1 
f  136/49/1  137/50/1  125/51/1  124/52/1 
f  137/73/1  138/74/1  126/75/1  125/76/1 
f  138/73/1  139/74/1  127/75/1  126/76/1 
f  139/49/1  140/50/1  128/51/1  127/52/1 
f  140/49/1  141/50/1  129/51/1  128/52/1 
f  141/49/1  142/50/1  130/51/1  129/52/1 
f  142/49/1  143/50/1  131/51/1  130/52/1 
f  143/49/1  144/50/1  132/51/1  131/52/1 
f  145/49/1  146/50/1  134/51/1  133/52/1 
f  146/49/1  147/50/1  135/51/1  134/52/1 
f  147/49/1  148/50/1  136/51/1  135/52/1 
f  148/49/1  149/50/1  137/51/1  136/52/1 
f  149/49/1  150/50/1  138/51/1  137/52/1 
f  150/49/1  151/50/1  139/51/1  138/52/1 
f  151/49/1  152/50/1  140/51/1  139/52/1 
f  152/49/1  153/50/1  141/51/1  140/52/1 
f  153/49/1  154/50/1  142/51/1  141/52/1 
f  154/49/1  155/50/1  143/51/1  142/52/1 
f  155/49/1  156/50/1  144/51/1  143/52/1 
f  157/49/1  158/50/1  146/51/1  145/52/1 
f  158/49/1  159/50/1  147/51/1  146/52/1 
f  159/49/1  160/50/1  148/51/1  147/52/1 
f  160/49/1  161/50/1  149/51/1  148/52/1 
f  161/49/1  162/50/1  150/51/1  149/52/1 
f  162/49/1  163/50/1  151/51/1  150/52/1 
f  163/49/1  164/50/1  152/51/1  151/52/1 
f  164/49/1  165/50/1  153/51/1  152/52/1 
f  165/49/1  166/50/1  154/51/1  153/52/1 
f  166/49/1  167/50/1  155/51/1  154/52/1 
f  167/49/1  168/50/1  156/51/1  155/52/1 
f  169/49/1  170/50/1  158/51/1  157/52/1 
f  170/49/1  171/50/1  159/51/1  158/52/1 
f  171/49/1  172/50/1  160/51/1  159/52/1 
f  172/49/1  173/50/1  161/51/1  160/52/1 
f  173/49/1  174/50/1  162/51/1  161/52/1 
f  174/49/1  175/50/1  163/51/1  162/52/1 
f  175/49/1  176/50/1  164/51/1  163/52/1 
f  176/49/1  177/50/1  165/51/1  164/52/1 
f  177/49/1  178/50/1  166/51/1  165/52/1 
f  178/49/1  179/50/1  167/51/1  166/52/1 
f  179/49/1  180/50/1  168/51/1  167/52/1 
