# Wavefront OBJ file automatically generated by Tiled2Unity

# Vertices (Count = 18)
v -2752 -1536 0
v -2816 -1536 0
v -2816 -1472 0
v -2752 -1472 0
v -2880 -1536 0
v -2880 -1472 0
v -2944 -1536 0
v -2944 -1472 0
v -3008 -1536 0
v -3008 -1472 0
v -3072 -1536 0
v -3072 -1472 0
v -2752 -1600 0
v -2816 -1600 0
v -2880 -1600 0
v -2944 -1600 0
v -3008 -1600 0
v -3072 -1600 0

# Texture Coorindates (Count = 16)
vt 0.3751221 0.7501221
vt 0.4373779 0.7501221
vt 0.4373779 0.8123779
vt 0.3751221 0.8123779
vt 0.06262207 0.7501221
vt 0.1248779 0.7501221
vt 0.1248779 0.8123779
vt 0.06262207 0.8123779
vt 0.3126221 0.7501221
vt 0.3748779 0.7501221
vt 0.3748779 0.8123779
vt 0.3126221 0.8123779
vt 0.0001220703 0.7501221
vt 0.06237793 0.7501221
vt 0.06237793 0.8123779
vt 0.0001220703 0.8123779

# Normal
vn 0 0 -1

# Groups (Count = 1)
g mesh_[00]_[00]
f  1/1/1  2/2/1  3/3/1  4/4/1 
f  2/5/1  5/6/1  6/7/1  3/8/1 
f  5/5/1  7/6/1  8/7/1  6/8/1 
f  7/5/1  9/6/1  10/7/1  8/8/1 
f  9/9/1  11/10/1  12/11/1  10/12/1 
f  13/13/1  14/14/1  2/15/1  1/16/1 
f  14/13/1  15/14/1  5/15/1  2/16/1 
f  15/13/1  16/14/1  7/15/1  5/16/1 
f  16/13/1  17/14/1  9/15/1  7/16/1 
f  17/13/1  18/14/1  11/15/1  9/16/1 
