# Wavefront OBJ file automatically generated by Tiled2Unity

# Vertices (Count = 209)
v -384 -1472 0
v -448 -1472 0
v -448 -1408 0
v -384 -1408 0
v -512 -1472 0
v -512 -1408 0
v -1280 -1472 0
v -1344 -1472 0
v -1344 -1408 0
v -1280 -1408 0
v -320 -1536 0
v -384 -1536 0
v -320 -1472 0
v -448 -1536 0
v -512 -1536 0
v -1280 -1536 0
v -1344 -1536 0
v -1408 -1536 0
v -1408 -1472 0
v -1472 -1536 0
v -1472 -1472 0
v -320 -1408 0
v -576 -1472 0
v -576 -1408 0
v -640 -1472 0
v -640 -1408 0
v -704 -1472 0
v -704 -1408 0
v -768 -1472 0
v -768 -1408 0
v -832 -1472 0
v -832 -1408 0
v -896 -1472 0
v -896 -1408 0
v -960 -1472 0
v -960 -1408 0
v -1024 -1472 0
v -1024 -1408 0
v -1088 -1472 0
v -1088 -1408 0
v -1152 -1472 0
v -1152 -1408 0
v -1216 -1472 0
v -1216 -1408 0
v -1408 -1408 0
v -1472 -1408 0
v -576 -1536 0
v -640 -1536 0
v -704 -1536 0
v -768 -1536 0
v -832 -1536 0
v -896 -1536 0
v -960 -1536 0
v -1024 -1536 0
v -1088 -1536 0
v -1152 -1536 0
v -1216 -1536 0
v -320 -1600 0
v -384 -1600 0
v -448 -1600 0
v -512 -1600 0
v -576 -1600 0
v -640 -1600 0
v -704 -1600 0
v -768 -1600 0
v -832 -1600 0
v -896 -1600 0
v -960 -1600 0
v -1024 -1600 0
v -1088 -1600 0
v -1152 -1600 0
v -1216 -1600 0
v -1280 -1600 0
v -1344 -1600 0
v -1408 -1600 0
v -1472 -1600 0
v -320 -1664 0
v -384 -1664 0
v -448 -1664 0
v -512 -1664 0
v -576 -1664 0
v -640 -1664 0
v -704 -1664 0
v -768 -1664 0
v -832 -1664 0
v -896 -1664 0
v -960 -1664 0
v -1024 -1664 0
v -1088 -1664 0
v -1152 -1664 0
v -1216 -1664 0
v -1280 -1664 0
v -1344 -1664 0
v -1408 -1664 0
v -1472 -1664 0
v -320 -1728 0
v -384 -1728 0
v -448 -1728 0
v -512 -1728 0
v -576 -1728 0
v -640 -1728 0
v -704 -1728 0
v -768 -1728 0
v -832 -1728 0
v -896 -1728 0
v -960 -1728 0
v -1024 -1728 0
v -1088 -1728 0
v -1152 -1728 0
v -1216 -1728 0
v -1280 -1728 0
v -1344 -1728 0
v -1408 -1728 0
v -1472 -1728 0
v -320 -1792 0
v -384 -1792 0
v -448 -1792 0
v -512 -1792 0
v -576 -1792 0
v -640 -1792 0
v -704 -1792 0
v -768 -1792 0
v -832 -1792 0
v -896 -1792 0
v -960 -1792 0
v -1024 -1792 0
v -1088 -1792 0
v -1152 -1792 0
v -1216 -1792 0
v -1280 -1792 0
v -1344 -1792 0
v -1408 -1792 0
v -1472 -1792 0
v -320 -1856 0
v -384 -1856 0
v -448 -1856 0
v -512 -1856 0
v -576 -1856 0
v -640 -1856 0
v -704 -1856 0
v -768 -1856 0
v -832 -1856 0
v -896 -1856 0
v -960 -1856 0
v -1024 -1856 0
v -1088 -1856 0
v -1152 -1856 0
v -1216 -1856 0
v -1280 -1856 0
v -1344 -1856 0
v -1408 -1856 0
v -1472 -1856 0
v -320 -1920 0
v -384 -1920 0
v -448 -1920 0
v -512 -1920 0
v -576 -1920 0
v -640 -1920 0
v -704 -1920 0
v -768 -1920 0
v -832 -1920 0
v -896 -1920 0
v -960 -1920 0
v -1024 -1920 0
v -1088 -1920 0
v -1152 -1920 0
v -1216 -1920 0
v -1280 -1920 0
v -1344 -1920 0
v -1408 -1920 0
v -1472 -1920 0
v -320 -1984 0
v -384 -1984 0
v -448 -1984 0
v -512 -1984 0
v -576 -1984 0
v -640 -1984 0
v -704 -1984 0
v -768 -1984 0
v -832 -1984 0
v -896 -1984 0
v -960 -1984 0
v -1024 -1984 0
v -1088 -1984 0
v -1152 -1984 0
v -1216 -1984 0
v -1280 -1984 0
v -1344 -1984 0
v -1408 -1984 0
v -1472 -1984 0
v -320 -2048 0
v -384 -2048 0
v -448 -2048 0
v -512 -2048 0
v -576 -2048 0
v -640 -2048 0
v -704 -2048 0
v -768 -2048 0
v -832 -2048 0
v -896 -2048 0
v -960 -2048 0
v -1024 -2048 0
v -1088 -2048 0
v -1152 -2048 0
v -1216 -2048 0
v -1280 -2048 0
v -1344 -2048 0
v -1408 -2048 0
v -1472 -2048 0

# Texture Coorindates (Count = 36)
vt 0.0001220703 0.9376221
vt 0.06237793 0.9376221
vt 0.06237793 0.9998779
vt 0.0001220703 0.9998779
vt 0.8751221 0.8751221
vt 0.9373779 0.8751221
vt 0.9373779 0.9373779
vt 0.8751221 0.9373779
vt 0.3751221 0.5001221
vt 0.4373779 0.5001221
vt 0.4373779 0.5623779
vt 0.3751221 0.5623779
vt 0.2501221 0.5001221
vt 0.3123779 0.5001221
vt 0.3123779 0.5623779
vt 0.2501221 0.5623779
vt 0.3126221 0.5001221
vt 0.3748779 0.5001221
vt 0.3748779 0.5623779
vt 0.3126221 0.5623779
vt 0.9376221 0.8751221
vt 0.9998779 0.8751221
vt 0.9998779 0.9373779
vt 0.9376221 0.9373779
vt 0.7501221 0.8751221
vt 0.8123779 0.8751221
vt 0.8123779 0.9373779
vt 0.7501221 0.9373779
vt 0.2501221 0.8751221
vt 0.3123779 0.8751221
vt 0.3123779 0.9373779
vt 0.2501221 0.9373779
vt 0.8126221 0.8751221
vt 0.8748779 0.8751221
vt 0.8748779 0.9373779
vt 0.8126221 0.9373779

# Normal
vn 0 0 -1

# Groups (Count = 2)
g mesh_[01]_[00]
f  1/1/1  2/2/1  3/3/1  4/4/1 
f  2/1/1  5/2/1  6/3/1  3/4/1 
f  7/1/1  8/2/1  9/3/1  10/4/1 
f  11/1/1  12/2/1  1/3/1  13/4/1 
f  12/1/1  14/2/1  2/3/1  1/4/1 
f  14/1/1  15/2/1  5/3/1  2/4/1 
f  16/1/1  17/2/1  8/3/1  7/4/1 
f  17/1/1  18/2/1  19/3/1  8/4/1 
f  18/1/1  20/2/1  21/3/1  19/4/1 
g mesh_[02]_[00]
f  13/5/1  1/6/1  4/7/1  22/8/1 
f  1/9/1  2/10/1  3/11/1  4/12/1 
f  2/13/1  5/14/1  6/15/1  3/16/1 
f  5/13/1  23/14/1  24/15/1  6/16/1 
f  23/13/1  25/14/1  26/15/1  24/16/1 
f  25/13/1  27/14/1  28/15/1  26/16/1 
f  27/13/1  29/14/1  30/15/1  28/16/1 
f  29/13/1  31/14/1  32/15/1  30/16/1 
f  31/13/1  33/14/1  34/15/1  32/16/1 
f  33/13/1  35/14/1  36/15/1  34/16/1 
f  35/13/1  37/14/1  38/15/1  36/16/1 
f  37/13/1  39/14/1  40/15/1  38/16/1 
f  39/13/1  41/14/1  42/15/1  40/16/1 
f  41/13/1  43/14/1  44/15/1  42/16/1 
f  43/13/1  7/14/1  10/15/1  44/16/1 
f  7/13/1  8/14/1  9/15/1  10/16/1 
f  8/17/1  19/18/1  45/19/1  9/20/1 
f  19/21/1  21/22/1  46/23/1  45/24/1 
f  11/25/1  12/26/1  1/27/1  13/28/1 
f  12/29/1  14/30/1  2/31/1  1/32/1 
f  14/29/1  15/30/1  5/31/1  2/32/1 
f  15/29/1  47/30/1  23/31/1  5/32/1 
f  47/29/1  48/30/1  25/31/1  23/32/1 
f  48/29/1  49/30/1  27/31/1  25/32/1 
f  49/29/1  50/30/1  29/31/1  27/32/1 
f  50/29/1  51/30/1  31/31/1  29/32/1 
f  51/29/1  52/30/1  33/31/1  31/32/1 
f  52/29/1  53/30/1  35/31/1  33/32/1 
f  53/29/1  54/30/1  37/31/1  35/32/1 
f  54/29/1  55/30/1  39/31/1  37/32/1 
f  55/29/1  56/30/1  41/31/1  39/32/1 
f  56/29/1  57/30/1  43/31/1  41/32/1 
f  57/29/1  16/30/1  7/31/1  43/32/1 
f  16/29/1  17/30/1  8/31/1  7/32/1 
f  17/29/1  18/30/1  19/31/1  8/32/1 
f  18/33/1  20/34/1  21/35/1  19/36/1 
f  58/1/1  59/2/1  12/3/1  11/4/1 
f  59/1/1  60/2/1  14/3/1  12/4/1 
f  60/1/1  61/2/1  15/3/1  14/4/1 
f  61/1/1  62/2/1  47/3/1  15/4/1 
f  62/1/1  63/2/1  48/3/1  47/4/1 
f  63/1/1  64/2/1  49/3/1  48/4/1 
f  64/1/1  65/2/1  50/3/1  49/4/1 
f  65/1/1  66/2/1  51/3/1  50/4/1 
f  66/1/1  67/2/1  52/3/1  51/4/1 
f  67/1/1  68/2/1  53/3/1  52/4/1 
f  68/1/1  69/2/1  54/3/1  53/4/1 
f  69/1/1  70/2/1  55/3/1  54/4/1 
f  70/1/1  71/2/1  56/3/1  55/4/1 
f  71/1/1  72/2/1  57/3/1  56/4/1 
f  72/1/1  73/2/1  16/3/1  57/4/1 
f  73/1/1  74/2/1  17/3/1  16/4/1 
f  74/1/1  75/2/1  18/3/1  17/4/1 
f  75/1/1  76/2/1  20/3/1  18/4/1 
f  77/1/1  78/2/1  59/3/1  58/4/1 
f  78/1/1  79/2/1  60/3/1  59/4/1 
f  79/1/1  80/2/1  61/3/1  60/4/1 
f  80/1/1  81/2/1  62/3/1  61/4/1 
f  81/1/1  82/2/1  63/3/1  62/4/1 
f  82/1/1  83/2/1  64/3/1  63/4/1 
f  83/1/1  84/2/1  65/3/1  64/4/1 
f  84/1/1  85/2/1  66/3/1  65/4/1 
f  85/1/1  86/2/1  67/3/1  66/4/1 
f  86/1/1  87/2/1  68/3/1  67/4/1 
f  87/1/1  88/2/1  69/3/1  68/4/1 
f  88/1/1  89/2/1  70/3/1  69/4/1 
f  89/1/1  90/2/1  71/3/1  70/4/1 
f  90/1/1  91/2/1  72/3/1  71/4/1 
f  91/1/1  92/2/1  73/3/1  72/4/1 
f  92/1/1  93/2/1  74/3/1  73/4/1 
f  93/1/1  94/2/1  75/3/1  74/4/1 
f  94/1/1  95/2/1  76/3/1  75/4/1 
f  96/1/1  97/2/1  78/3/1  77/4/1 
f  97/1/1  98/2/1  79/3/1  78/4/1 
f  98/1/1  99/2/1  80/3/1  79/4/1 
f  99/1/1  100/2/1  81/3/1  80/4/1 
f  100/1/1  101/2/1  82/3/1  81/4/1 
f  101/1/1  102/2/1  83/3/1  82/4/1 
f  102/1/1  103/2/1  84/3/1  83/4/1 
f  103/1/1  104/2/1  85/3/1  84/4/1 
f  104/1/1  105/2/1  86/3/1  85/4/1 
f  105/1/1  106/2/1  87/3/1  86/4/1 
f  106/1/1  107/2/1  88/3/1  87/4/1 
f  107/1/1  108/2/1  89/3/1  88/4/1 
f  108/1/1  109/2/1  90/3/1  89/4/1 
f  109/1/1  110/2/1  91/3/1  90/4/1 
f  110/1/1  111/2/1  92/3/1  91/4/1 
f  111/1/1  112/2/1  93/3/1  92/4/1 
f  112/1/1  113/2/1  94/3/1  93/4/1 
f  113/1/1  114/2/1  95/3/1  94/4/1 
f  115/1/1  116/2/1  97/3/1  96/4/1 
f  116/1/1  117/2/1  98/3/1  97/4/1 
f  117/1/1  118/2/1  99/3/1  98/4/1 
f  118/1/1  119/2/1  100/3/1  99/4/1 
f  119/1/1  120/2/1  101/3/1  100/4/1 
f  120/1/1  121/2/1  102/3/1  101/4/1 
f  121/1/1  122/2/1  103/3/1  102/4/1 
f  122/1/1  123/2/1  104/3/1  103/4/1 
f  123/1/1  124/2/1  105/3/1  104/4/1 
f  124/1/1  125/2/1  106/3/1  105/4/1 
f  125/1/1  126/2/1  107/3/1  106/4/1 
f  126/1/1  127/2/1  108/3/1  107/4/1 
f  127/1/1  128/2/1  109/3/1  108/4/1 
f  128/1/1  129/2/1  110/3/1  109/4/1 
f  129/1/1  130/2/1  111/3/1  110/4/1 
f  130/1/1  131/2/1  112/3/1  111/4/1 
f  131/1/1  132/2/1  113/3/1  112/4/1 
f  132/1/1  133/2/1  114/3/1  113/4/1 
f  134/1/1  135/2/1  116/3/1  115/4/1 
f  135/1/1  136/2/1  117/3/1  116/4/1 
f  136/1/1  137/2/1  118/3/1  117/4/1 
f  137/1/1  138/2/1  119/3/1  118/4/1 
f  138/1/1  139/2/1  120/3/1  119/4/1 
f  139/1/1  140/2/1  121/3/1  120/4/1 
f  140/1/1  141/2/1  122/3/1  121/4/1 
f  141/1/1  142/2/1  123/3/1  122/4/1 
f  142/1/1  143/2/1  124/3/1  123/4/1 
f  143/1/1  144/2/1  125/3/1  124/4/1 
f  144/1/1  145/2/1  126/3/1  125/4/1 
f  145/1/1  146/2/1  127/3/1  126/4/1 
f  146/1/1  147/2/1  128/3/1  127/4/1 
f  147/1/1  148/2/1  129/3/1  128/4/1 
f  148/1/1  149/2/1  130/3/1  129/4/1 
f  149/1/1  150/2/1  131/3/1  130/4/1 
f  150/1/1  151/2/1  132/3/1  131/4/1 
f  151/1/1  152/2/1  133/3/1  132/4/1 
f  153/1/1  154/2/1  135/3/1  134/4/1 
f  154/1/1  155/2/1  136/3/1  135/4/1 
f  155/1/1  156/2/1  137/3/1  136/4/1 
f  156/1/1  157/2/1  138/3/1  137/4/1 
f  157/1/1  158/2/1  139/3/1  138/4/1 
f  158/1/1  159/2/1  140/3/1  139/4/1 
f  159/1/1  160/2/1  141/3/1  140/4/1 
f  160/1/1  161/2/1  142/3/1  141/4/1 
f  161/1/1  162/2/1  143/3/1  142/4/1 
f  162/1/1  163/2/1  144/3/1  143/4/1 
f  163/1/1  164/2/1  145/3/1  144/4/1 
f  164/1/1  165/2/1  146/3/1  145/4/1 
f  165/1/1  166/2/1  147/3/1  146/4/1 
f  166/1/1  167/2/1  148/3/1  147/4/1 
f  167/1/1  168/2/1  149/3/1  148/4/1 
f  168/1/1  169/2/1  150/3/1  149/4/1 
f  169/1/1  170/2/1  151/3/1  150/4/1 
f  170/1/1  171/2/1  152/3/1  151/4/1 
f  172/1/1  173/2/1  154/3/1  153/4/1 
f  173/1/1  174/2/1  155/3/1  154/4/1 
f  174/1/1  175/2/1  156/3/1  155/4/1 
f  175/1/1  176/2/1  157/3/1  156/4/1 
f  176/1/1  177/2/1  158/3/1  157/4/1 
f  177/1/1  178/2/1  159/3/1  158/4/1 
f  178/1/1  179/2/1  160/3/1  159/4/1 
f  179/1/1  180/2/1  161/3/1  160/4/1 
f  180/1/1  181/2/1  162/3/1  161/4/1 
f  181/1/1  182/2/1  163/3/1  162/4/1 
f  182/1/1  183/2/1  164/3/1  163/4/1 
f  183/1/1  184/2/1  165/3/1  164/4/1 
f  184/1/1  185/2/1  166/3/1  165/4/1 
f  185/1/1  186/2/1  167/3/1  166/4/1 
f  186/1/1  187/2/1  168/3/1  167/4/1 
f  187/1/1  188/2/1  169/3/1  168/4/1 
f  188/1/1  189/2/1  170/3/1  169/4/1 
f  189/1/1  190/2/1  171/3/1  170/4/1 
f  191/1/1  192/2/1  173/3/1  172/4/1 
f  192/1/1  193/2/1  174/3/1  173/4/1 
f  193/1/1  194/2/1  175/3/1  174/4/1 
f  194/1/1  195/2/1  176/3/1  175/4/1 
f  195/1/1  196/2/1  177/3/1  176/4/1 
f  196/1/1  197/2/1  178/3/1  177/4/1 
f  197/1/1  198/2/1  179/3/1  178/4/1 
f  198/1/1  199/2/1  180/3/1  179/4/1 
f  199/1/1  200/2/1  181/3/1  180/4/1 
f  200/1/1  201/2/1  182/3/1  181/4/1 
f  201/1/1  202/2/1  183/3/1  182/4/1 
f  202/1/1  203/2/1  184/3/1  183/4/1 
f  203/1/1  204/2/1  185/3/1  184/4/1 
f  204/1/1  205/2/1  186/3/1  185/4/1 
f  205/1/1  206/2/1  187/3/1  186/4/1 
f  206/1/1  207/2/1  188/3/1  187/4/1 
f  207/1/1  208/2/1  189/3/1  188/4/1 
f  208/1/1  209/2/1  190/3/1  189/4/1 
