# Wavefront OBJ file automatically generated by Tiled2Unity

# Vertices (Count = 422)
v -320 -1408 0
v -384 -1408 0
v -384 -1344 0
v -320 -1344 0
v -448 -1408 0
v -448 -1344 0
v -512 -1408 0
v -512 -1344 0
v -576 -1408 0
v -576 -1344 0
v -640 -1408 0
v -640 -1344 0
v -704 -1408 0
v -704 -1344 0
v -768 -1408 0
v -768 -1344 0
v -832 -1408 0
v -832 -1344 0
v -896 -1408 0
v -896 -1344 0
v -960 -1408 0
v -960 -1344 0
v -1024 -1408 0
v -1024 -1344 0
v -1088 -1408 0
v -1088 -1344 0
v -1152 -1408 0
v -1152 -1344 0
v -1216 -1408 0
v -1216 -1344 0
v -1280 -1408 0
v -1280 -1344 0
v -1344 -1408 0
v -1344 -1344 0
v -1408 -1408 0
v -1408 -1344 0
v -1472 -1408 0
v -1472 -1344 0
v -1152 -960 0
v -1216 -960 0
v -1216 -896 0
v -1152 -896 0
v -1280 -960 0
v -1280 -896 0
v -1344 -960 0
v -1344 -896 0
v -1408 -960 0
v -1408 -896 0
v -1472 -960 0
v -1472 -896 0
v -1536 -960 0
v -1536 -896 0
v -1600 -960 0
v -1600 -896 0
v -1664 -960 0
v -1664 -896 0
v -1728 -960 0
v -1728 -896 0
v -1792 -960 0
v -1792 -896 0
v -1856 -960 0
v -1856 -896 0
v -1920 -960 0
v -1920 -896 0
v -1984 -960 0
v -1984 -896 0
v -1152 -1024 0
v -1216 -1024 0
v -1280 -1024 0
v -1344 -1024 0
v -1408 -1024 0
v -1472 -1024 0
v -1536 -1024 0
v -1600 -1024 0
v -1664 -1024 0
v -1728 -1024 0
v -1792 -1024 0
v -1856 -1024 0
v -1920 -1024 0
v -1984 -1024 0
v -1152 -1088 0
v -1216 -1088 0
v -1280 -1088 0
v -1344 -1088 0
v -1408 -1088 0
v -1472 -1088 0
v -1536 -1088 0
v -1600 -1088 0
v -1664 -1088 0
v -1728 -1088 0
v -1792 -1088 0
v -1856 -1088 0
v -1920 -1088 0
v -1984 -1088 0
v -1152 -1152 0
v -1216 -1152 0
v -1280 -1152 0
v -1344 -1152 0
v -1408 -1152 0
v -1472 -1152 0
v -1536 -1152 0
v -1600 -1152 0
v -1664 -1152 0
v -1728 -1152 0
v -1792 -1152 0
v -1856 -1152 0
v -1920 -1152 0
v -1984 -1152 0
v -1152 -1216 0
v -1216 -1216 0
v -1280 -1216 0
v -1344 -1216 0
v -1408 -1216 0
v -1472 -1216 0
v -1536 -1216 0
v -1600 -1216 0
v -1664 -1216 0
v -1728 -1216 0
v -1792 -1216 0
v -1856 -1216 0
v -1920 -1216 0
v -1984 -1216 0
v -1152 -1280 0
v -1216 -1280 0
v -1280 -1280 0
v -1344 -1280 0
v -1408 -1280 0
v -1472 -1280 0
v -1536 -1280 0
v -1600 -1280 0
v -1664 -1280 0
v -1728 -1280 0
v -1792 -1280 0
v -1856 -1280 0
v -1920 -1280 0
v -1984 -1280 0
v -1536 -1344 0
v -1600 -1344 0
v -1664 -1344 0
v -1728 -1344 0
v -1792 -1344 0
v -1856 -1344 0
v -1920 -1344 0
v -1984 -1344 0
v -1536 -1408 0
v -1600 -1408 0
v -1664 -1408 0
v -1728 -1408 0
v -1792 -1408 0
v -1856 -1408 0
v -1920 -1408 0
v -1984 -1408 0
v -320 -1472 0
v -384 -1472 0
v -448 -1472 0
v -512 -1472 0
v -576 -1472 0
v -640 -1472 0
v -704 -1472 0
v -768 -1472 0
v -832 -1472 0
v -896 -1472 0
v -960 -1472 0
v -1024 -1472 0
v -1088 -1472 0
v -1152 -1472 0
v -1216 -1472 0
v -1280 -1472 0
v -1344 -1472 0
v -1408 -1472 0
v -1472 -1472 0
v -1536 -1472 0
v -1600 -1472 0
v -1664 -1472 0
v -1728 -1472 0
v -1792 -1472 0
v -1856 -1472 0
v -1920 -1472 0
v -1984 -1472 0
v -320 -1536 0
v -384 -1536 0
v -448 -1536 0
v -512 -1536 0
v -576 -1536 0
v -640 -1536 0
v -704 -1536 0
v -768 -1536 0
v -832 -1536 0
v -896 -1536 0
v -960 -1536 0
v -1024 -1536 0
v -1088 -1536 0
v -1152 -1536 0
v -1216 -1536 0
v -1280 -1536 0
v -1344 -1536 0
v -1408 -1536 0
v -1472 -1536 0
v -1536 -1536 0
v -1600 -1536 0
v -1664 -1536 0
v -1728 -1536 0
v -1792 -1536 0
v -1856 -1536 0
v -1920 -1536 0
v -1984 -1536 0
v -320 -1600 0
v -384 -1600 0
v -448 -1600 0
v -512 -1600 0
v -576 -1600 0
v -640 -1600 0
v -704 -1600 0
v -768 -1600 0
v -832 -1600 0
v -896 -1600 0
v -960 -1600 0
v -1024 -1600 0
v -1088 -1600 0
v -1152 -1600 0
v -1216 -1600 0
v -1280 -1600 0
v -1344 -1600 0
v -1408 -1600 0
v -1472 -1600 0
v -1536 -1600 0
v -1600 -1600 0
v -1664 -1600 0
v -1728 -1600 0
v -1792 -1600 0
v -1856 -1600 0
v -1920 -1600 0
v -1984 -1600 0
v -320 -1664 0
v -384 -1664 0
v -448 -1664 0
v -512 -1664 0
v -576 -1664 0
v -640 -1664 0
v -704 -1664 0
v -768 -1664 0
v -832 -1664 0
v -896 -1664 0
v -960 -1664 0
v -1024 -1664 0
v -1088 -1664 0
v -1152 -1664 0
v -1216 -1664 0
v -1280 -1664 0
v -1344 -1664 0
v -1408 -1664 0
v -1472 -1664 0
v -1536 -1664 0
v -1600 -1664 0
v -1664 -1664 0
v -1728 -1664 0
v -1792 -1664 0
v -1856 -1664 0
v -1920 -1664 0
v -1984 -1664 0
v -320 -1728 0
v -384 -1728 0
v -448 -1728 0
v -512 -1728 0
v -576 -1728 0
v -640 -1728 0
v -704 -1728 0
v -768 -1728 0
v -832 -1728 0
v -896 -1728 0
v -960 -1728 0
v -1024 -1728 0
v -1088 -1728 0
v -1152 -1728 0
v -1216 -1728 0
v -1280 -1728 0
v -1344 -1728 0
v -1408 -1728 0
v -1472 -1728 0
v -1536 -1728 0
v -1600 -1728 0
v -1664 -1728 0
v -1728 -1728 0
v -1792 -1728 0
v -1856 -1728 0
v -1920 -1728 0
v -1984 -1728 0
v -320 -1792 0
v -384 -1792 0
v -448 -1792 0
v -512 -1792 0
v -576 -1792 0
v -640 -1792 0
v -704 -1792 0
v -768 -1792 0
v -832 -1792 0
v -896 -1792 0
v -960 -1792 0
v -1024 -1792 0
v -1088 -1792 0
v -1152 -1792 0
v -1216 -1792 0
v -1280 -1792 0
v -1344 -1792 0
v -1408 -1792 0
v -1472 -1792 0
v -1536 -1792 0
v -1600 -1792 0
v -1664 -1792 0
v -1728 -1792 0
v -1792 -1792 0
v -1856 -1792 0
v -1920 -1792 0
v -1984 -1792 0
v -320 -1856 0
v -384 -1856 0
v -448 -1856 0
v -512 -1856 0
v -576 -1856 0
v -640 -1856 0
v -704 -1856 0
v -768 -1856 0
v -832 -1856 0
v -896 -1856 0
v -960 -1856 0
v -1024 -1856 0
v -1088 -1856 0
v -1152 -1856 0
v -1216 -1856 0
v -1280 -1856 0
v -1344 -1856 0
v -1408 -1856 0
v -1472 -1856 0
v -1536 -1856 0
v -1600 -1856 0
v -1664 -1856 0
v -1728 -1856 0
v -1792 -1856 0
v -1856 -1856 0
v -1920 -1856 0
v -1984 -1856 0
v -320 -1920 0
v -384 -1920 0
v -448 -1920 0
v -512 -1920 0
v -576 -1920 0
v -640 -1920 0
v -704 -1920 0
v -768 -1920 0
v -832 -1920 0
v -896 -1920 0
v -960 -1920 0
v -1024 -1920 0
v -1088 -1920 0
v -1152 -1920 0
v -1216 -1920 0
v -1280 -1920 0
v -1344 -1920 0
v -1408 -1920 0
v -1472 -1920 0
v -1536 -1920 0
v -1600 -1920 0
v -1664 -1920 0
v -1728 -1920 0
v -1792 -1920 0
v -1856 -1920 0
v -1920 -1920 0
v -1984 -1920 0
v -320 -1984 0
v -384 -1984 0
v -448 -1984 0
v -512 -1984 0
v -576 -1984 0
v -640 -1984 0
v -704 -1984 0
v -768 -1984 0
v -832 -1984 0
v -896 -1984 0
v -960 -1984 0
v -1024 -1984 0
v -1088 -1984 0
v -1152 -1984 0
v -1216 -1984 0
v -1280 -1984 0
v -1344 -1984 0
v -1408 -1984 0
v -1472 -1984 0
v -1536 -1984 0
v -1600 -1984 0
v -1664 -1984 0
v -1728 -1984 0
v -1792 -1984 0
v -1856 -1984 0
v -1920 -1984 0
v -1984 -1984 0
v -320 -2048 0
v -384 -2048 0
v -448 -2048 0
v -512 -2048 0
v -576 -2048 0
v -640 -2048 0
v -704 -2048 0
v -768 -2048 0
v -832 -2048 0
v -896 -2048 0
v -960 -2048 0
v -1024 -2048 0
v -1088 -2048 0
v -1152 -2048 0
v -1216 -2048 0
v -1280 -2048 0
v -1344 -2048 0
v -1408 -2048 0
v -1472 -2048 0
v -1536 -2048 0
v -1600 -2048 0
v -1664 -2048 0
v -1728 -2048 0
v -1792 -2048 0
v -1856 -2048 0
v -1920 -2048 0
v -1984 -2048 0

# Texture Coorindates (Count = 44)
vt 0.1251221 0.8126221
vt 0.1873779 0.8126221
vt 0.1873779 0.8748779
vt 0.1251221 0.8748779
vt 0.2501221 0.8126221
vt 0.3123779 0.8126221
vt 0.3123779 0.8748779
vt 0.2501221 0.8748779
vt 0.1876221 0.8126221
vt 0.2498779 0.8126221
vt 0.2498779 0.8748779
vt 0.1876221 0.8748779
vt 0.8751221 0.8751221
vt 0.9373779 0.8751221
vt 0.9373779 0.9373779
vt 0.8751221 0.9373779
vt 0.0001220703 0.8751221
vt 0.06237793 0.8751221
vt 0.06237793 0.9373779
vt 0.0001220703 0.9373779
vt 0.1876221 0.8751221
vt 0.2498779 0.8751221
vt 0.2498779 0.9373779
vt 0.1876221 0.9373779
vt 0.06262207 0.8751221
vt 0.1248779 0.8751221
vt 0.1248779 0.9373779
vt 0.06262207 0.9373779
vt 0.7501221 0.8751221
vt 0.8123779 0.8751221
vt 0.8123779 0.9373779
vt 0.7501221 0.9373779
vt 0.2501221 0.8751221
vt 0.3123779 0.8751221
vt 0.3123779 0.9373779
vt 0.2501221 0.9373779
vt 0.06262207 0.9376221
vt 0.1248779 0.9376221
vt 0.1248779 0.9998779
vt 0.06262207 0.9998779
vt 0.0001220703 0.9376221
vt 0.06237793 0.9376221
vt 0.06237793 0.9998779
vt 0.0001220703 0.9998779

# Normal
vn 0 0 -1

# Groups (Count = 2)
g mesh_[01]_[00]
f  1/1/1  2/2/1  3/3/1  4/4/1 
f  2/5/1  5/6/1  6/7/1  3/8/1 
f  5/1/1  7/2/1  8/3/1  6/4/1 
f  7/5/1  9/6/1  10/7/1  8/8/1 
f  9/5/1  11/6/1  12/7/1  10/8/1 
f  11/5/1  13/6/1  14/7/1  12/8/1 
f  13/9/1  15/10/1  16/11/1  14/12/1 
f  15/9/1  17/10/1  18/11/1  16/12/1 
f  17/1/1  19/2/1  20/3/1  18/4/1 
f  19/1/1  21/2/1  22/3/1  20/4/1 
f  21/1/1  23/2/1  24/3/1  22/4/1 
f  23/1/1  25/2/1  26/3/1  24/4/1 
f  25/9/1  27/10/1  28/11/1  26/12/1 
f  27/9/1  29/10/1  30/11/1  28/12/1 
f  29/1/1  31/2/1  32/3/1  30/4/1 
f  31/1/1  33/2/1  34/3/1  32/4/1 
f  33/5/1  35/6/1  36/7/1  34/8/1 
f  35/5/1  37/6/1  38/7/1  36/8/1 
g mesh_[02]_[00]
f  39/13/1  40/14/1  41/15/1  42/16/1 
f  40/17/1  43/18/1  44/19/1  41/20/1 
f  43/17/1  45/18/1  46/19/1  44/20/1 
f  45/17/1  47/18/1  48/19/1  46/20/1 
f  47/17/1  49/18/1  50/19/1  48/20/1 
f  49/17/1  51/18/1  52/19/1  50/20/1 
f  51/17/1  53/18/1  54/19/1  52/20/1 
f  53/17/1  55/18/1  56/19/1  54/20/1 
f  55/17/1  57/18/1  58/19/1  56/20/1 
f  57/17/1  59/18/1  60/19/1  58/20/1 
f  59/17/1  61/18/1  62/19/1  60/20/1 
f  61/17/1  63/18/1  64/19/1  62/20/1 
f  63/17/1  65/18/1  66/19/1  64/20/1 
f  67/21/1  68/22/1  40/23/1  39/24/1 
f  68/25/1  69/26/1  43/27/1  40/28/1 
f  69/25/1  70/26/1  45/27/1  43/28/1 
f  70/25/1  71/26/1  47/27/1  45/28/1 
f  71/25/1  72/26/1  49/27/1  47/28/1 
f  72/25/1  73/26/1  51/27/1  49/28/1 
f  73/25/1  74/26/1  53/27/1  51/28/1 
f  74/25/1  75/26/1  55/27/1  53/28/1 
f  75/25/1  76/26/1  57/27/1  55/28/1 
f  76/25/1  77/26/1  59/27/1  57/28/1 
f  77/25/1  78/26/1  61/27/1  59/28/1 
f  78/25/1  79/26/1  63/27/1  61/28/1 
f  79/25/1  80/26/1  65/27/1  63/28/1 
f  81/21/1  82/22/1  68/23/1  67/24/1 
f  82/25/1  83/26/1  69/27/1  68/28/1 
f  83/25/1  84/26/1  70/27/1  69/28/1 
f  84/25/1  85/26/1  71/27/1  70/28/1 
f  85/25/1  86/26/1  72/27/1  71/28/1 
f  86/25/1  87/26/1  73/27/1  72/28/1 
f  87/25/1  88/26/1  74/27/1  73/28/1 
f  88/25/1  89/26/1  75/27/1  74/28/1 
f  89/25/1  90/26/1  76/27/1  75/28/1 
f  90/25/1  91/26/1  77/27/1  76/28/1 
f  91/25/1  92/26/1  78/27/1  77/28/1 
f  92/25/1  93/26/1  79/27/1  78/28/1 
f  93/25/1  94/26/1  80/27/1  79/28/1 
f  95/21/1  96/22/1  82/23/1  81/24/1 
f  96/25/1  97/26/1  83/27/1  82/28/1 
f  97/25/1  98/26/1  84/27/1  83/28/1 
f  98/25/1  99/26/1  85/27/1  84/28/1 
f  99/25/1  100/26/1  86/27/1  85/28/1 
f  100/25/1  101/26/1  87/27/1  86/28/1 
f  101/25/1  102/26/1  88/27/1  87/28/1 
f  102/25/1  103/26/1  89/27/1  88/28/1 
f  103/25/1  104/26/1  90/27/1  89/28/1 
f  104/25/1  105/26/1  91/27/1  90/28/1 
f  105/25/1  106/26/1  92/27/1  91/28/1 
f  106/25/1  107/26/1  93/27/1  92/28/1 
f  107/25/1  108/26/1  94/27/1  93/28/1 
f  109/21/1  110/22/1  96/23/1  95/24/1 
f  110/25/1  111/26/1  97/27/1  96/28/1 
f  111/25/1  112/26/1  98/27/1  97/28/1 
f  112/25/1  113/26/1  99/27/1  98/28/1 
f  113/25/1  114/26/1  100/27/1  99/28/1 
f  114/25/1  115/26/1  101/27/1  100/28/1 
f  115/25/1  116/26/1  102/27/1  101/28/1 
f  116/25/1  117/26/1  103/27/1  102/28/1 
f  117/25/1  118/26/1  104/27/1  103/28/1 
f  118/25/1  119/26/1  105/27/1  104/28/1 
f  119/25/1  120/26/1  106/27/1  105/28/1 
f  120/25/1  121/26/1  107/27/1  106/28/1 
f  121/25/1  122/26/1  108/27/1  107/28/1 
f  123/21/1  124/22/1  110/23/1  109/24/1 
f  124/25/1  125/26/1  111/27/1  110/28/1 
f  125/25/1  126/26/1  112/27/1  111/28/1 
f  126/25/1  127/26/1  113/27/1  112/28/1 
f  127/25/1  128/26/1  114/27/1  113/28/1 
f  128/25/1  129/26/1  115/27/1  114/28/1 
f  129/25/1  130/26/1  116/27/1  115/28/1 
f  130/25/1  131/26/1  117/27/1  116/28/1 
f  131/25/1  132/26/1  118/27/1  117/28/1 
f  132/25/1  133/26/1  119/27/1  118/28/1 
f  133/25/1  134/26/1  120/27/1  119/28/1 
f  134/25/1  135/26/1  121/27/1  120/28/1 
f  135/25/1  136/26/1  122/27/1  121/28/1 
f  28/21/1  30/22/1  124/23/1  123/24/1 
f  30/25/1  32/26/1  125/27/1  124/28/1 
f  32/25/1  34/26/1  126/27/1  125/28/1 
f  34/25/1  36/26/1  127/27/1  126/28/1 
f  36/25/1  38/26/1  128/27/1  127/28/1 
f  38/25/1  137/26/1  129/27/1  128/28/1 
f  137/25/1  138/26/1  130/27/1  129/28/1 
f  138/25/1  139/26/1  131/27/1  130/28/1 
f  139/25/1  140/26/1  132/27/1  131/28/1 
f  140/25/1  141/26/1  133/27/1  132/28/1 
f  141/25/1  142/26/1  134/27/1  133/28/1 
f  142/25/1  143/26/1  135/27/1  134/28/1 
f  143/25/1  144/26/1  136/27/1  135/28/1 
f  27/29/1  29/30/1  30/31/1  28/32/1 
f  29/33/1  31/34/1  32/35/1  30/36/1 
f  31/33/1  33/34/1  34/35/1  32/36/1 
f  33/33/1  35/34/1  36/35/1  34/36/1 
f  35/33/1  37/34/1  38/35/1  36/36/1 
f  37/33/1  145/34/1  137/35/1  38/36/1 
f  145/33/1  146/34/1  138/35/1  137/36/1 
f  146/33/1  147/34/1  139/35/1  138/36/1 
f  147/33/1  148/34/1  140/35/1  139/36/1 
f  148/33/1  149/34/1  141/35/1  140/36/1 
f  149/33/1  150/34/1  142/35/1  141/36/1 
f  150/33/1  151/34/1  143/35/1  142/36/1 
f  151/33/1  152/34/1  144/35/1  143/36/1 
f  153/37/1  154/38/1  2/39/1  1/40/1 
f  154/37/1  155/38/1  5/39/1  2/40/1 
f  155/37/1  156/38/1  7/39/1  5/40/1 
f  156/37/1  157/38/1  9/39/1  7/40/1 
f  157/37/1  158/38/1  11/39/1  9/40/1 
f  158/37/1  159/38/1  13/39/1  11/40/1 
f  159/37/1  160/38/1  15/39/1  13/40/1 
f  160/37/1  161/38/1  17/39/1  15/40/1 
f  161/37/1  162/38/1  19/39/1  17/40/1 
f  162/37/1  163/38/1  21/39/1  19/40/1 
f  163/37/1  164/38/1  23/39/1  21/40/1 
f  164/37/1  165/38/1  25/39/1  23/40/1 
f  165/37/1  166/38/1  27/39/1  25/40/1 
f  166/37/1  167/38/1  29/39/1  27/40/1 
f  167/37/1  168/38/1  31/39/1  29/40/1 
f  168/37/1  169/38/1  33/39/1  31/40/1 
f  169/37/1  170/38/1  35/39/1  33/40/1 
f  170/37/1  171/38/1  37/39/1  35/40/1 
f  171/37/1  172/38/1  145/39/1  37/40/1 
f  172/37/1  173/38/1  146/39/1  145/40/1 
f  173/37/1  174/38/1  147/39/1  146/40/1 
f  174/37/1  175/38/1  148/39/1  147/40/1 
f  175/37/1  176/38/1  149/39/1  148/40/1 
f  176/37/1  177/38/1  150/39/1  149/40/1 
f  177/37/1  178/38/1  151/39/1  150/40/1 
f  178/37/1  179/38/1  152/39/1  151/40/1 
f  180/41/1  181/42/1  154/43/1  153/44/1 
f  181/41/1  182/42/1  155/43/1  154/44/1 
f  182/41/1  183/42/1  156/43/1  155/44/1 
f  183/41/1  184/42/1  157/43/1  156/44/1 
f  184/41/1  185/42/1  158/43/1  157/44/1 
f  185/41/1  186/42/1  159/43/1  158/44/1 
f  186/41/1  187/42/1  160/43/1  159/44/1 
f  187/41/1  188/42/1  161/43/1  160/44/1 
f  188/41/1  189/42/1  162/43/1  161/44/1 
f  189/41/1  190/42/1  163/43/1  162/44/1 
f  190/41/1  191/42/1  164/43/1  163/44/1 
f  191/41/1  192/42/1  165/43/1  164/44/1 
f  192/41/1  193/42/1  166/43/1  165/44/1 
f  193/41/1  194/42/1  167/43/1  166/44/1 
f  194/41/1  195/42/1  168/43/1  167/44/1 
f  195/41/1  196/42/1  169/43/1  168/44/1 
f  196/41/1  197/42/1  170/43/1  169/44/1 
f  197/41/1  198/42/1  171/43/1  170/44/1 
f  198/41/1  199/42/1  172/43/1  171/44/1 
f  199/41/1  200/42/1  173/43/1  172/44/1 
f  200/41/1  201/42/1  174/43/1  173/44/1 
f  201/41/1  202/42/1  175/43/1  174/44/1 
f  202/41/1  203/42/1  176/43/1  175/44/1 
f  203/41/1  204/42/1  177/43/1  176/44/1 
f  204/41/1  205/42/1  178/43/1  177/44/1 
f  205/41/1  206/42/1  179/43/1  178/44/1 
f  207/41/1  208/42/1  181/43/1  180/44/1 
f  208/41/1  209/42/1  182/43/1  181/44/1 
f  209/41/1  210/42/1  183/43/1  182/44/1 
f  210/41/1  211/42/1  184/43/1  183/44/1 
f  211/41/1  212/42/1  185/43/1  184/44/1 
f  212/41/1  213/42/1  186/43/1  185/44/1 
f  213/41/1  214/42/1  187/43/1  186/44/1 
f  214/41/1  215/42/1  188/43/1  187/44/1 
f  215/41/1  216/42/1  189/43/1  188/44/1 
f  216/41/1  217/42/1  190/43/1  189/44/1 
f  217/41/1  218/42/1  191/43/1  190/44/1 
f  218/41/1  219/42/1  192/43/1  191/44/1 
f  219/41/1  220/42/1  193/43/1  192/44/1 
f  220/41/1  221/42/1  194/43/1  193/44/1 
f  221/41/1  222/42/1  195/43/1  194/44/1 
f  222/41/1  223/42/1  196/43/1  195/44/1 
f  223/41/1  224/42/1  197/43/1  196/44/1 
f  224/41/1  225/42/1  198/43/1  197/44/1 
f  225/41/1  226/42/1  199/43/1  198/44/1 
f  226/41/1  227/42/1  200/43/1  199/44/1 
f  227/41/1  228/42/1  201/43/1  200/44/1 
f  228/41/1  229/42/1  202/43/1  201/44/1 
f  229/41/1  230/42/1  203/43/1  202/44/1 
f  230/41/1  231/42/1  204/43/1  203/44/1 
f  231/41/1  232/42/1  205/43/1  204/44/1 
f  232/41/1  233/42/1  206/43/1  205/44/1 
f  234/41/1  235/42/1  208/43/1  207/44/1 
f  235/41/1  236/42/1  209/43/1  208/44/1 
f  236/41/1  237/42/1  210/43/1  209/44/1 
f  237/41/1  238/42/1  211/43/1  210/44/1 
f  238/41/1  239/42/1  212/43/1  211/44/1 
f  239/41/1  240/42/1  213/43/1  212/44/1 
f  240/41/1  241/42/1  214/43/1  213/44/1 
f  241/41/1  242/42/1  215/43/1  214/44/1 
f  242/41/1  243/42/1  216/43/1  215/44/1 
f  243/41/1  244/42/1  217/43/1  216/44/1 
f  244/41/1  245/42/1  218/43/1  217/44/1 
f  245/41/1  246/42/1  219/43/1  218/44/1 
f  246/41/1  247/42/1  220/43/1  219/44/1 
f  247/41/1  248/42/1  221/43/1  220/44/1 
f  248/41/1  249/42/1  222/43/1  221/44/1 
f  249/41/1  250/42/1  223/43/1  222/44/1 
f  250/41/1  251/42/1  224/43/1  223/44/1 
f  251/41/1  252/42/1  225/43/1  224/44/1 
f  252/41/1  253/42/1  226/43/1  225/44/1 
f  253/41/1  254/42/1  227/43/1  226/44/1 
f  254/41/1  255/42/1  228/43/1  227/44/1 
f  255/41/1  256/42/1  229/43/1  228/44/1 
f  256/41/1  257/42/1  230/43/1  229/44/1 
f  257/41/1  258/42/1  231/43/1  230/44/1 
f  258/41/1  259/42/1  232/43/1  231/44/1 
f  259/41/1  260/42/1  233/43/1  232/44/1 
f  261/41/1  262/42/1  235/43/1  234/44/1 
f  262/41/1  263/42/1  236/43/1  235/44/1 
f  263/41/1  264/42/1  237/43/1  236/44/1 
f  264/41/1  265/42/1  238/43/1  237/44/1 
f  265/41/1  266/42/1  239/43/1  238/44/1 
f  266/41/1  267/42/1  240/43/1  239/44/1 
f  267/41/1  268/42/1  241/43/1  240/44/1 
f  268/41/1  269/42/1  242/43/1  241/44/1 
f  269/41/1  270/42/1  243/43/1  242/44/1 
f  270/41/1  271/42/1  244/43/1  243/44/1 
f  271/41/1  272/42/1  245/43/1  244/44/1 
f  272/41/1  273/42/1  246/43/1  245/44/1 
f  273/41/1  274/42/1  247/43/1  246/44/1 
f  274/41/1  275/42/1  248/43/1  247/44/1 
f  275/41/1  276/42/1  249/43/1  248/44/1 
f  276/41/1  277/42/1  250/43/1  249/44/1 
f  277/41/1  278/42/1  251/43/1  250/44/1 
f  278/41/1  279/42/1  252/43/1  251/44/1 
f  279/41/1  280/42/1  253/43/1  252/44/1 
f  280/41/1  281/42/1  254/43/1  253/44/1 
f  281/41/1  282/42/1  255/43/1  254/44/1 
f  282/41/1  283/42/1  256/43/1  255/44/1 
f  283/41/1  284/42/1  257/43/1  256/44/1 
f  284/41/1  285/42/1  258/43/1  257/44/1 
f  285/41/1  286/42/1  259/43/1  258/44/1 
f  286/41/1  287/42/1  260/43/1  259/44/1 
f  288/41/1  289/42/1  262/43/1  261/44/1 
f  289/41/1  290/42/1  263/43/1  262/44/1 
f  290/41/1  291/42/1  264/43/1  263/44/1 
f  291/41/1  292/42/1  265/43/1  264/44/1 
f  292/41/1  293/42/1  266/43/1  265/44/1 
f  293/41/1  294/42/1  267/43/1  266/44/1 
f  294/41/1  295/42/1  268/43/1  267/44/1 
f  295/41/1  296/42/1  269/43/1  268/44/1 
f  296/41/1  297/42/1  270/43/1  269/44/1 
f  297/41/1  298/42/1  271/43/1  270/44/1 
f  298/41/1  299/42/1  272/43/1  271/44/1 
f  299/41/1  300/42/1  273/43/1  272/44/1 
f  300/41/1  301/42/1  274/43/1  273/44/1 
f  301/41/1  302/42/1  275/43/1  274/44/1 
f  302/41/1  303/42/1  276/43/1  275/44/1 
f  303/41/1  304/42/1  277/43/1  276/44/1 
f  304/41/1  305/42/1  278/43/1  277/44/1 
f  305/41/1  306/42/1  279/43/1  278/44/1 
f  306/41/1  307/42/1  280/43/1  279/44/1 
f  307/41/1  308/42/1  281/43/1  280/44/1 
f  308/41/1  309/42/1  282/43/1  281/44/1 
f  309/41/1  310/42/1  283/43/1  282/44/1 
f  310/41/1  311/42/1  284/43/1  283/44/1 
f  311/41/1  312/42/1  285/43/1  284/44/1 
f  312/41/1  313/42/1  286/43/1  285/44/1 
f  313/41/1  314/42/1  287/43/1  286/44/1 
f  315/41/1  316/42/1  289/43/1  288/44/1 
f  316/41/1  317/42/1  290/43/1  289/44/1 
f  317/41/1  318/42/1  291/43/1  290/44/1 
f  318/41/1  319/42/1  292/43/1  291/44/1 
f  319/41/1  320/42/1  293/43/1  292/44/1 
f  320/41/1  321/42/1  294/43/1  293/44/1 
f  321/41/1  322/42/1  295/43/1  294/44/1 
f  322/41/1  323/42/1  296/43/1  295/44/1 
f  323/41/1  324/42/1  297/43/1  296/44/1 
f  324/41/1  325/42/1  298/43/1  297/44/1 
f  325/41/1  326/42/1  299/43/1  298/44/1 
f  326/41/1  327/42/1  300/43/1  299/44/1 
f  327/41/1  328/42/1  301/43/1  300/44/1 
f  328/41/1  329/42/1  302/43/1  301/44/1 
f  329/41/1  330/42/1  303/43/1  302/44/1 
f  330/41/1  331/42/1  304/43/1  303/44/1 
f  331/41/1  332/42/1  305/43/1  304/44/1 
f  332/41/1  333/42/1  306/43/1  305/44/1 
f  333/41/1  334/42/1  307/43/1  306/44/1 
f  334/41/1  335/42/1  308/43/1  307/44/1 
f  335/41/1  336/42/1  309/43/1  308/44/1 
f  336/41/1  337/42/1  310/43/1  309/44/1 
f  337/41/1  338/42/1  311/43/1  310/44/1 
f  338/41/1  339/42/1  312/43/1  311/44/1 
f  339/41/1  340/42/1  313/43/1  312/44/1 
f  340/41/1  341/42/1  314/43/1  313/44/1 
f  342/41/1  343/42/1  316/43/1  315/44/1 
f  343/41/1  344/42/1  317/43/1  316/44/1 
f  344/41/1  345/42/1  318/43/1  317/44/1 
f  345/41/1  346/42/1  319/43/1  318/44/1 
f  346/41/1  347/42/1  320/43/1  319/44/1 
f  347/41/1  348/42/1  321/43/1  320/44/1 
f  348/41/1  349/42/1  322/43/1  321/44/1 
f  349/41/1  350/42/1  323/43/1  322/44/1 
f  350/41/1  351/42/1  324/43/1  323/44/1 
f  351/41/1  352/42/1  325/43/1  324/44/1 
f  352/41/1  353/42/1  326/43/1  325/44/1 
f  353/41/1  354/42/1  327/43/1  326/44/1 
f  354/41/1  355/42/1  328/43/1  327/44/1 
f  355/41/1  356/42/1  329/43/1  328/44/1 
f  356/41/1  357/42/1  330/43/1  329/44/1 
f  357/41/1  358/42/1  331/43/1  330/44/1 
f  358/41/1  359/42/1  332/43/1  331/44/1 
f  359/41/1  360/42/1  333/43/1  332/44/1 
f  360/41/1  361/42/1  334/43/1  333/44/1 
f  361/41/1  362/42/1  335/43/1  334/44/1 
f  362/41/1  363/42/1  336/43/1  335/44/1 
f  363/41/1  364/42/1  337/43/1  336/44/1 
f  364/41/1  365/42/1  338/43/1  337/44/1 
f  365/41/1  366/42/1  339/43/1  338/44/1 
f  366/41/1  367/42/1  340/43/1  339/44/1 
f  367/41/1  368/42/1  341/43/1  340/44/1 
f  369/41/1  370/42/1  343/43/1  342/44/1 
f  370/41/1  371/42/1  344/43/1  343/44/1 
f  371/41/1  372/42/1  345/43/1  344/44/1 
f  372/41/1  373/42/1  346/43/1  345/44/1 
f  373/41/1  374/42/1  347/43/1  346/44/1 
f  374/41/1  375/42/1  348/43/1  347/44/1 
f  375/41/1  376/42/1  349/43/1  348/44/1 
f  376/41/1  377/42/1  350/43/1  349/44/1 
f  377/41/1  378/42/1  351/43/1  350/44/1 
f  378/41/1  379/42/1  352/43/1  351/44/1 
f  379/41/1  380/42/1  353/43/1  352/44/1 
f  380/41/1  381/42/1  354/43/1  353/44/1 
f  381/41/1  382/42/1  355/43/1  354/44/1 
f  382/41/1  383/42/1  356/43/1  355/44/1 
f  383/41/1  384/42/1  357/43/1  356/44/1 
f  384/41/1  385/42/1  358/43/1  357/44/1 
f  385/41/1  386/42/1  359/43/1  358/44/1 
f  386/41/1  387/42/1  360/43/1  359/44/1 
f  387/41/1  388/42/1  361/43/1  360/44/1 
f  388/41/1  389/42/1  362/43/1  361/44/1 
f  389/41/1  390/42/1  363/43/1  362/44/1 
f  390/41/1  391/42/1  364/43/1  363/44/1 
f  391/41/1  392/42/1  365/43/1  364/44/1 
f  392/41/1  393/42/1  366/43/1  365/44/1 
f  393/41/1  394/42/1  367/43/1  366/44/1 
f  394/41/1  395/42/1  368/43/1  367/44/1 
f  396/41/1  397/42/1  370/43/1  369/44/1 
f  397/41/1  398/42/1  371/43/1  370/44/1 
f  398/41/1  399/42/1  372/43/1  371/44/1 
f  399/41/1  400/42/1  373/43/1  372/44/1 
f  400/41/1  401/42/1  374/43/1  373/44/1 
f  401/41/1  402/42/1  375/43/1  374/44/1 
f  402/41/1  403/42/1  376/43/1  375/44/1 
f  403/41/1  404/42/1  377/43/1  376/44/1 
f  404/41/1  405/42/1  378/43/1  377/44/1 
f  405/41/1  406/42/1  379/43/1  378/44/1 
f  406/41/1  407/42/1  380/43/1  379/44/1 
f  407/41/1  408/42/1  381/43/1  380/44/1 
f  408/41/1  409/42/1  382/43/1  381/44/1 
f  409/41/1  410/42/1  383/43/1  382/44/1 
f  410/41/1  411/42/1  384/43/1  383/44/1 
f  411/41/1  412/42/1  385/43/1  384/44/1 
f  412/41/1  413/42/1  386/43/1  385/44/1 
f  413/41/1  414/42/1  387/43/1  386/44/1 
f  414/41/1  415/42/1  388/43/1  387/44/1 
f  415/41/1  416/42/1  389/43/1  388/44/1 
f  416/41/1  417/42/1  390/43/1  389/44/1 
f  417/41/1  418/42/1  391/43/1  390/44/1 
f  418/41/1  419/42/1  392/43/1  391/44/1 
f  419/41/1  420/42/1  393/43/1  392/44/1 
f  420/41/1  421/42/1  394/43/1  393/44/1 
f  421/41/1  422/42/1  395/43/1  394/44/1 
