# Wavefront OBJ file automatically generated by Tiled2Unity

# Vertices (Count = 274)
v -3904 -4096 0
v -3968 -4096 0
v -3968 -4032 0
v -3904 -4032 0
v -4032 -4096 0
v -4032 -4032 0
v -4096 -4096 0
v -4096 -4032 0
v -4160 -4096 0
v -4160 -4032 0
v -3904 -4160 0
v -3968 -4160 0
v -4032 -4160 0
v -4096 -4160 0
v -3904 -4224 0
v -3968 -4224 0
v -4032 -4224 0
v -4096 -4224 0
v -4160 -4224 0
v -4160 -4160 0
v -3904 -4288 0
v -3968 -4288 0
v -4032 -4288 0
v -4096 -4288 0
v -4160 -4288 0
v -3904 -4352 0
v -3968 -4352 0
v -4032 -4352 0
v -4096 -4352 0
v -3904 -4416 0
v -3968 -4416 0
v -4032 -4416 0
v -4096 -4416 0
v -3904 -4480 0
v -3968 -4480 0
v -4032 -4480 0
v -4096 -4480 0
v -3904 -4544 0
v -3968 -4544 0
v -4032 -4544 0
v -4096 -4544 0
v -3904 -4608 0
v -3968 -4608 0
v -4032 -4608 0
v -4096 -4608 0
v -3840 -4672 0
v -3904 -4672 0
v -3840 -4608 0
v -3968 -4672 0
v -4032 -4672 0
v -4096 -4672 0
v -3840 -4736 0
v -3904 -4736 0
v -3968 -4736 0
v -4032 -4736 0
v -4096 -4736 0
v -3840 -4800 0
v -3904 -4800 0
v -3968 -4800 0
v -4032 -4800 0
v -4096 -4800 0
v -3904 -4864 0
v -3968 -4864 0
v -4032 -4864 0
v -4096 -4864 0
v -3712 -3968 0
v -3776 -3968 0
v -3776 -3904 0
v -3712 -3904 0
v -3840 -3968 0
v -3840 -3904 0
v -4160 -3968 0
v -4224 -3968 0
v -4224 -3904 0
v -4160 -3904 0
v -4288 -3968 0
v -4288 -3904 0
v -3264 -4032 0
v -3328 -4032 0
v -3328 -3968 0
v -3264 -3968 0
v -3392 -4032 0
v -3392 -3968 0
v -3456 -4032 0
v -3456 -3968 0
v -3520 -4032 0
v -3520 -3968 0
v -3584 -4032 0
v -3584 -3968 0
v -3648 -4032 0
v -3648 -3968 0
v -3712 -4032 0
v -3776 -4032 0
v -3840 -4032 0
v -3904 -3968 0
v -4096 -3968 0
v -4224 -4032 0
v -4288 -4032 0
v -4352 -4032 0
v -4352 -3968 0
v -3264 -4096 0
v -3328 -4096 0
v -3392 -4096 0
v -3456 -4096 0
v -3520 -4096 0
v -3584 -4096 0
v -3648 -4096 0
v -3712 -4096 0
v -3776 -4096 0
v -3840 -4096 0
v -4224 -4096 0
v -4288 -4096 0
v -4352 -4096 0
v -3264 -4160 0
v -3328 -4160 0
v -3392 -4160 0
v -3456 -4160 0
v -3520 -4160 0
v -3584 -4160 0
v -3648 -4160 0
v -3712 -4160 0
v -3776 -4160 0
v -3840 -4160 0
v -4224 -4160 0
v -4288 -4160 0
v -4352 -4160 0
v -3264 -4224 0
v -3328 -4224 0
v -3392 -4224 0
v -3456 -4224 0
v -3520 -4224 0
v -3584 -4224 0
v -3648 -4224 0
v -3712 -4224 0
v -3776 -4224 0
v -3840 -4224 0
v -4224 -4224 0
v -4288 -4224 0
v -4352 -4224 0
v -3264 -4288 0
v -3328 -4288 0
v -3392 -4288 0
v -3456 -4288 0
v -3520 -4288 0
v -3584 -4288 0
v -3648 -4288 0
v -3712 -4288 0
v -3776 -4288 0
v -3840 -4288 0
v -4224 -4288 0
v -4288 -4288 0
v -4352 -4288 0
v -3264 -4352 0
v -3328 -4352 0
v -3392 -4352 0
v -3456 -4352 0
v -3520 -4352 0
v -3584 -4352 0
v -3648 -4352 0
v -3712 -4352 0
v -3776 -4352 0
v -3840 -4352 0
v -4160 -4352 0
v -4224 -4352 0
v -4288 -4352 0
v -4352 -4352 0
v -3264 -4416 0
v -3328 -4416 0
v -3392 -4416 0
v -3456 -4416 0
v -3520 -4416 0
v -3584 -4416 0
v -3648 -4416 0
v -3712 -4416 0
v -3776 -4416 0
v -3840 -4416 0
v -4160 -4416 0
v -4224 -4416 0
v -4288 -4416 0
v -4352 -4416 0
v -3264 -4480 0
v -3328 -4480 0
v -3392 -4480 0
v -3456 -4480 0
v -3520 -4480 0
v -3584 -4480 0
v -3648 -4480 0
v -3712 -4480 0
v -3776 -4480 0
v -3840 -4480 0
v -4160 -4480 0
v -4224 -4480 0
v -4288 -4480 0
v -4352 -4480 0
v -3264 -4544 0
v -3328 -4544 0
v -3392 -4544 0
v -3456 -4544 0
v -3520 -4544 0
v -3584 -4544 0
v -3648 -4544 0
v -3712 -4544 0
v -3776 -4544 0
v -3840 -4544 0
v -4160 -4544 0
v -4224 -4544 0
v -4288 -4544 0
v -4352 -4544 0
v -3264 -4608 0
v -3328 -4608 0
v -3392 -4608 0
v -3456 -4608 0
v -3520 -4608 0
v -3584 -4608 0
v -3648 -4608 0
v -3712 -4608 0
v -3776 -4608 0
v -4160 -4608 0
v -4224 -4608 0
v -4288 -4608 0
v -4352 -4608 0
v -3264 -4672 0
v -3328 -4672 0
v -3392 -4672 0
v -3456 -4672 0
v -3520 -4672 0
v -3584 -4672 0
v -3648 -4672 0
v -3712 -4672 0
v -3776 -4672 0
v -4160 -4672 0
v -4224 -4672 0
v -4288 -4672 0
v -4352 -4672 0
v -3264 -4736 0
v -3328 -4736 0
v -3392 -4736 0
v -3456 -4736 0
v -3520 -4736 0
v -3584 -4736 0
v -3648 -4736 0
v -3712 -4736 0
v -3776 -4736 0
v -4160 -4736 0
v -4224 -4736 0
v -4288 -4736 0
v -4352 -4736 0
v -3264 -4800 0
v -3328 -4800 0
v -3392 -4800 0
v -3456 -4800 0
v -3520 -4800 0
v -3584 -4800 0
v -3648 -4800 0
v -3712 -4800 0
v -3776 -4800 0
v -4160 -4800 0
v -4224 -4800 0
v -4288 -4800 0
v -4352 -4800 0
v -3264 -4864 0
v -3328 -4864 0
v -3392 -4864 0
v -3456 -4864 0
v -3520 -4864 0
v -3584 -4864 0
v -3648 -4864 0
v -3712 -4864 0
v -3776 -4864 0
v -3840 -4864 0
v -4160 -4864 0
v -4224 -4864 0
v -4288 -4864 0
v -4352 -4864 0

# Texture Coorindates (Count = 64)
vt 0.06262207 0.8126221
vt 0.1248779 0.8126221
vt 0.1248779 0.8748779
vt 0.06262207 0.8748779
vt 0.6876221 0.8126221
vt 0.7498779 0.8126221
vt 0.7498779 0.8748779
vt 0.6876221 0.8748779
vt 0.6251221 0.8126221
vt 0.6873779 0.8126221
vt 0.6873779 0.8748779
vt 0.6251221 0.8748779
vt 0.3751221 0.8751221
vt 0.4373779 0.8751221
vt 0.4373779 0.9373779
vt 0.3751221 0.9373779
vt 0.3126221 0.8751221
vt 0.3748779 0.8751221
vt 0.3748779 0.9373779
vt 0.3126221 0.9373779
vt 0.0001220703 0.8751221
vt 0.06237793 0.8751221
vt 0.06237793 0.9373779
vt 0.0001220703 0.9373779
vt 0.3751221 0.5001221
vt 0.4373779 0.5001221
vt 0.4373779 0.5623779
vt 0.3751221 0.5623779
vt 0.3126221 0.5001221
vt 0.3748779 0.5001221
vt 0.3748779 0.5623779
vt 0.3126221 0.5623779
vt 0.2501221 0.5001221
vt 0.3123779 0.5001221
vt 0.3123779 0.5623779
vt 0.2501221 0.5623779
vt 0.9376221 0.8751221
vt 0.9998779 0.8751221
vt 0.9998779 0.9373779
vt 0.9376221 0.9373779
vt 0.8751221 0.8751221
vt 0.9373779 0.8751221
vt 0.9373779 0.9373779
vt 0.8751221 0.9373779
vt 0.06262207 0.8751221
vt 0.1248779 0.8751221
vt 0.1248779 0.9373779
vt 0.06262207 0.9373779
vt 0.1251221 0.8751221
vt 0.1873779 0.8751221
vt 0.1873779 0.9373779
vt 0.1251221 0.9373779
vt 0.1876221 0.8751221
vt 0.2498779 0.8751221
vt 0.2498779 0.9373779
vt 0.1876221 0.9373779
vt 0.5626221 0.8751221
vt 0.6248779 0.8751221
vt 0.6248779 0.9373779
vt 0.5626221 0.9373779
vt 0.5001221 0.8751221
vt 0.5623779 0.8751221
vt 0.5623779 0.9373779
vt 0.5001221 0.9373779

# Normal
vn 0 0 -1

# Groups (Count = 2)
g mesh_[00]_[00]
f  1/1/1  2/2/1  3/3/1  4/4/1 
f  2/1/1  5/2/1  6/3/1  3/4/1 
f  5/1/1  7/2/1  8/3/1  6/4/1 
f  7/1/1  9/2/1  10/3/1  8/4/1 
f  11/1/1  12/2/1  2/3/1  1/4/1 
f  12/1/1  13/2/1  5/3/1  2/4/1 
f  13/1/1  14/2/1  7/3/1  5/4/1 
f  15/1/1  16/2/1  12/3/1  11/4/1 
f  16/5/1  17/6/1  13/7/1  12/8/1 
f  17/1/1  18/2/1  14/3/1  13/4/1 
f  18/1/1  19/2/1  20/3/1  14/4/1 
f  21/1/1  22/2/1  16/3/1  15/4/1 
f  22/9/1  23/10/1  17/11/1  16/12/1 
f  23/1/1  24/2/1  18/3/1  17/4/1 
f  24/1/1  25/2/1  19/3/1  18/4/1 
f  26/1/1  27/2/1  22/3/1  21/4/1 
f  27/1/1  28/2/1  23/3/1  22/4/1 
f  28/1/1  29/2/1  24/3/1  23/4/1 
f  30/1/1  31/2/1  27/3/1  26/4/1 
f  31/1/1  32/2/1  28/3/1  27/4/1 
f  32/1/1  33/2/1  29/3/1  28/4/1 
f  34/1/1  35/2/1  31/3/1  30/4/1 
f  35/1/1  36/2/1  32/3/1  31/4/1 
f  36/1/1  37/2/1  33/3/1  32/4/1 
f  38/1/1  39/2/1  35/3/1  34/4/1 
f  39/5/1  40/6/1  36/7/1  35/8/1 
f  40/1/1  41/2/1  37/3/1  36/4/1 
f  42/1/1  43/2/1  39/3/1  38/4/1 
f  43/9/1  44/10/1  40/11/1  39/12/1 
f  44/1/1  45/2/1  41/3/1  40/4/1 
f  46/1/1  47/2/1  42/3/1  48/4/1 
f  47/1/1  49/2/1  43/3/1  42/4/1 
f  49/1/1  50/2/1  44/3/1  43/4/1 
f  50/1/1  51/2/1  45/3/1  44/4/1 
f  52/1/1  53/2/1  47/3/1  46/4/1 
f  53/1/1  54/2/1  49/3/1  47/4/1 
f  54/1/1  55/2/1  50/3/1  49/4/1 
f  55/1/1  56/2/1  51/3/1  50/4/1 
f  57/1/1  58/2/1  53/3/1  52/4/1 
f  58/1/1  59/2/1  54/3/1  53/4/1 
f  59/1/1  60/2/1  55/3/1  54/4/1 
f  60/1/1  61/2/1  56/3/1  55/4/1 
f  62/1/1  63/2/1  59/3/1  58/4/1 
f  63/1/1  64/2/1  60/3/1  59/4/1 
f  64/1/1  65/2/1  61/3/1  60/4/1 
g mesh_[01]_[00]
f  66/13/1  67/14/1  68/15/1  69/16/1 
f  67/17/1  70/18/1  71/19/1  68/20/1 
f  72/13/1  73/14/1  74/15/1  75/16/1 
f  73/17/1  76/18/1  77/19/1  74/20/1 
f  78/21/1  79/22/1  80/23/1  81/24/1 
f  79/21/1  82/22/1  83/23/1  80/24/1 
f  82/25/1  84/26/1  85/27/1  83/28/1 
f  84/29/1  86/30/1  87/31/1  85/32/1 
f  86/21/1  88/22/1  89/23/1  87/24/1 
f  88/21/1  90/22/1  91/23/1  89/24/1 
f  90/25/1  92/26/1  66/27/1  91/28/1 
f  92/33/1  93/34/1  67/35/1  66/36/1 
f  93/29/1  94/30/1  70/31/1  67/32/1 
f  94/37/1  4/38/1  95/39/1  70/40/1 
f  8/41/1  10/42/1  72/43/1  96/44/1 
f  10/33/1  97/34/1  73/35/1  72/36/1 
f  97/33/1  98/34/1  76/35/1  73/36/1 
f  98/33/1  99/34/1  100/35/1  76/36/1 
f  101/45/1  102/46/1  79/47/1  78/48/1 
f  102/45/1  103/46/1  82/47/1  79/48/1 
f  103/45/1  104/46/1  84/47/1  82/48/1 
f  104/45/1  105/46/1  86/47/1  84/48/1 
f  105/45/1  106/46/1  88/47/1  86/48/1 
f  106/45/1  107/46/1  90/47/1  88/48/1 
f  107/45/1  108/46/1  92/47/1  90/48/1 
f  108/45/1  109/46/1  93/47/1  92/48/1 
f  109/45/1  110/46/1  94/47/1  93/48/1 
f  110/49/1  1/50/1  4/51/1  94/52/1 
f  7/53/1  9/54/1  10/55/1  8/56/1 
f  9/45/1  111/46/1  97/47/1  10/48/1 
f  111/45/1  112/46/1  98/47/1  97/48/1 
f  112/45/1  113/46/1  99/47/1  98/48/1 
f  114/45/1  115/46/1  102/47/1  101/48/1 
f  115/45/1  116/46/1  103/47/1  102/48/1 
f  116/45/1  117/46/1  104/47/1  103/48/1 
f  117/45/1  118/46/1  105/47/1  104/48/1 
f  118/45/1  119/46/1  106/47/1  105/48/1 
f  119/45/1  120/46/1  107/47/1  106/48/1 
f  120/45/1  121/46/1  108/47/1  107/48/1 
f  121/45/1  122/46/1  109/47/1  108/48/1 
f  122/45/1  123/46/1  110/47/1  109/48/1 
f  123/49/1  11/50/1  1/51/1  110/52/1 
f  14/53/1  20/54/1  9/55/1  7/56/1 
f  20/45/1  124/46/1  111/47/1  9/48/1 
f  124/45/1  125/46/1  112/47/1  111/48/1 
f  125/45/1  126/46/1  113/47/1  112/48/1 
f  127/45/1  128/46/1  115/47/1  114/48/1 
f  128/45/1  129/46/1  116/47/1  115/48/1 
f  129/45/1  130/46/1  117/47/1  116/48/1 
f  130/45/1  131/46/1  118/47/1  117/48/1 
f  131/45/1  132/46/1  119/47/1  118/48/1 
f  132/45/1  133/46/1  120/47/1  119/48/1 
f  133/45/1  134/46/1  121/47/1  120/48/1 
f  134/45/1  135/46/1  122/47/1  121/48/1 
f  135/45/1  136/46/1  123/47/1  122/48/1 
f  136/49/1  15/50/1  11/51/1  123/52/1 
f  15/57/1  16/58/1  12/59/1  11/60/1 
f  18/53/1  19/54/1  20/55/1  14/56/1 
f  19/45/1  137/46/1  124/47/1  20/48/1 
f  137/45/1  138/46/1  125/47/1  124/48/1 
f  138/45/1  139/46/1  126/47/1  125/48/1 
f  140/45/1  141/46/1  128/47/1  127/48/1 
f  141/45/1  142/46/1  129/47/1  128/48/1 
f  142/45/1  143/46/1  130/47/1  129/48/1 
f  143/45/1  144/46/1  131/47/1  130/48/1 
f  144/45/1  145/46/1  132/47/1  131/48/1 
f  145/45/1  146/46/1  133/47/1  132/48/1 
f  146/45/1  147/46/1  134/47/1  133/48/1 
f  147/45/1  148/46/1  135/47/1  134/48/1 
f  148/45/1  149/46/1  136/47/1  135/48/1 
f  149/49/1  21/50/1  15/51/1  136/52/1 
f  24/53/1  25/54/1  19/55/1  18/56/1 
f  25/45/1  150/46/1  137/47/1  19/48/1 
f  150/45/1  151/46/1  138/47/1  137/48/1 
f  151/45/1  152/46/1  139/47/1  138/48/1 
f  153/45/1  154/46/1  141/47/1  140/48/1 
f  154/45/1  155/46/1  142/47/1  141/48/1 
f  155/45/1  156/46/1  143/47/1  142/48/1 
f  156/45/1  157/46/1  144/47/1  143/48/1 
f  157/45/1  158/46/1  145/47/1  144/48/1 
f  158/45/1  159/46/1  146/47/1  145/48/1 
f  159/45/1  160/46/1  147/47/1  146/48/1 
f  160/45/1  161/46/1  148/47/1  147/48/1 
f  161/45/1  162/46/1  149/47/1  148/48/1 
f  162/49/1  26/50/1  21/51/1  149/52/1 
f  29/53/1  163/54/1  25/55/1  24/56/1 
f  163/45/1  164/46/1  150/47/1  25/48/1 
f  164/45/1  165/46/1  151/47/1  150/48/1 
f  165/45/1  166/46/1  152/47/1  151/48/1 
f  167/45/1  168/46/1  154/47/1  153/48/1 
f  168/45/1  169/46/1  155/47/1  154/48/1 
f  169/45/1  170/46/1  156/47/1  155/48/1 
f  170/45/1  171/46/1  157/47/1  156/48/1 
f  171/45/1  172/46/1  158/47/1  157/48/1 
f  172/45/1  173/46/1  159/47/1  158/48/1 
f  173/45/1  174/46/1  160/47/1  159/48/1 
f  174/45/1  175/46/1  161/47/1  160/48/1 
f  175/45/1  176/46/1  162/47/1  161/48/1 
f  176/49/1  30/50/1  26/51/1  162/52/1 
f  32/61/1  33/62/1  29/63/1  28/64/1 
f  33/53/1  177/54/1  163/55/1  29/56/1 
f  177/45/1  178/46/1  164/47/1  163/48/1 
f  178/45/1  179/46/1  165/47/1  164/48/1 
f  179/45/1  180/46/1  166/47/1  165/48/1 
f  181/45/1  182/46/1  168/47/1  167/48/1 
f  182/45/1  183/46/1  169/47/1  168/48/1 
f  183/45/1  184/46/1  170/47/1  169/48/1 
f  184/45/1  185/46/1  171/47/1  170/48/1 
f  185/45/1  186/46/1  172/47/1  171/48/1 
f  186/45/1  187/46/1  173/47/1  172/48/1 
f  187/45/1  188/46/1  174/47/1  173/48/1 
f  188/45/1  189/46/1  175/47/1  174/48/1 
f  189/45/1  190/46/1  176/47/1  175/48/1 
f  190/49/1  34/50/1  30/51/1  176/52/1 
f  37/53/1  191/54/1  177/55/1  33/56/1 
f  191/45/1  192/46/1  178/47/1  177/48/1 
f  192/45/1  193/46/1  179/47/1  178/48/1 
f  193/45/1  194/46/1  180/47/1  179/48/1 
f  195/45/1  196/46/1  182/47/1  181/48/1 
f  196/45/1  197/46/1  183/47/1  182/48/1 
f  197/45/1  198/46/1  184/47/1  183/48/1 
f  198/45/1  199/46/1  185/47/1  184/48/1 
f  199/45/1  200/46/1  186/47/1  185/48/1 
f  200/45/1  201/46/1  187/47/1  186/48/1 
f  201/45/1  202/46/1  188/47/1  187/48/1 
f  202/45/1  203/46/1  189/47/1  188/48/1 
f  203/45/1  204/46/1  190/47/1  189/48/1 
f  204/49/1  38/50/1  34/51/1  190/52/1 
f  41/53/1  205/54/1  191/55/1  37/56/1 
f  205/45/1  206/46/1  192/47/1  191/48/1 
f  206/45/1  207/46/1  193/47/1  192/48/1 
f  207/45/1  208/46/1  194/47/1  193/48/1 
f  209/45/1  210/46/1  196/47/1  195/48/1 
f  210/45/1  211/46/1  197/47/1  196/48/1 
f  211/45/1  212/46/1  198/47/1  197/48/1 
f  212/45/1  213/46/1  199/47/1  198/48/1 
f  213/45/1  214/46/1  200/47/1  199/48/1 
f  214/45/1  215/46/1  201/47/1  200/48/1 
f  215/45/1  216/46/1  202/47/1  201/48/1 
f  216/45/1  217/46/1  203/47/1  202/48/1 
f  217/45/1  48/46/1  204/47/1  203/48/1 
f  48/49/1  42/50/1  38/51/1  204/52/1 
f  42/57/1  43/58/1  39/59/1  38/60/1 
f  45/53/1  218/54/1  205/55/1  41/56/1 
f  218/45/1  219/46/1  206/47/1  205/48/1 
f  219/45/1  220/46/1  207/47/1  206/48/1 
f  220/45/1  221/46/1  208/47/1  207/48/1 
f  222/45/1  223/46/1  210/47/1  209/48/1 
f  223/45/1  224/46/1  211/47/1  210/48/1 
f  224/45/1  225/46/1  212/47/1  211/48/1 
f  225/45/1  226/46/1  213/47/1  212/48/1 
f  226/45/1  227/46/1  214/47/1  213/48/1 
f  227/45/1  228/46/1  215/47/1  214/48/1 
f  228/45/1  229/46/1  216/47/1  215/48/1 
f  229/45/1  230/46/1  217/47/1  216/48/1 
f  230/45/1  46/46/1  48/47/1  217/48/1 
f  46/49/1  47/50/1  42/51/1  48/52/1 
f  51/53/1  231/54/1  218/55/1  45/56/1 
f  231/45/1  232/46/1  219/47/1  218/48/1 
f  232/45/1  233/46/1  220/47/1  219/48/1 
f  233/45/1  234/46/1  221/47/1  220/48/1 
f  235/45/1  236/46/1  223/47/1  222/48/1 
f  236/45/1  237/46/1  224/47/1  223/48/1 
f  237/45/1  238/46/1  225/47/1  224/48/1 
f  238/45/1  239/46/1  226/47/1  225/48/1 
f  239/45/1  240/46/1  227/47/1  226/48/1 
f  240/45/1  241/46/1  228/47/1  227/48/1 
f  241/45/1  242/46/1  229/47/1  228/48/1 
f  242/45/1  243/46/1  230/47/1  229/48/1 
f  243/45/1  52/46/1  46/47/1  230/48/1 
f  52/49/1  53/50/1  47/51/1  46/52/1 
f  56/53/1  244/54/1  231/55/1  51/56/1 
f  244/45/1  245/46/1  232/47/1  231/48/1 
f  245/45/1  246/46/1  233/47/1  232/48/1 
f  246/45/1  247/46/1  234/47/1  233/48/1 
f  248/45/1  249/46/1  236/47/1  235/48/1 
f  249/45/1  250/46/1  237/47/1  236/48/1 
f  250/45/1  251/46/1  238/47/1  237/48/1 
f  251/45/1  252/46/1  239/47/1  238/48/1 
f  252/45/1  253/46/1  240/47/1  239/48/1 
f  253/45/1  254/46/1  241/47/1  240/48/1 
f  254/45/1  255/46/1  242/47/1  241/48/1 
f  255/45/1  256/46/1  243/47/1  242/48/1 
f  256/45/1  57/46/1  52/47/1  243/48/1 
f  57/49/1  58/50/1  53/51/1  52/52/1 
f  60/61/1  61/62/1  56/63/1  55/64/1 
f  61/53/1  257/54/1  244/55/1  56/56/1 
f  257/45/1  258/46/1  245/47/1  244/48/1 
f  258/45/1  259/46/1  246/47/1  245/48/1 
f  259/45/1  260/46/1  247/47/1  246/48/1 
f  261/45/1  262/46/1  249/47/1  248/48/1 
f  262/45/1  263/46/1  250/47/1  249/48/1 
f  263/45/1  264/46/1  251/47/1  250/48/1 
f  264/45/1  265/46/1  252/47/1  251/48/1 
f  265/45/1  266/46/1  253/47/1  252/48/1 
f  266/45/1  267/46/1  254/47/1  253/48/1 
f  267/45/1  268/46/1  255/47/1  254/48/1 
f  268/45/1  269/46/1  256/47/1  255/48/1 
f  269/45/1  270/46/1  57/47/1  256/48/1 
f  270/49/1  62/50/1  58/51/1  57/52/1 
f  65/53/1  271/54/1  257/55/1  61/56/1 
f  271/45/1  272/46/1  258/47/1  257/48/1 
f  272/45/1  273/46/1  259/47/1  258/48/1 
f  273/45/1  274/46/1  260/47/1  259/48/1 
