# Wavefront OBJ file automatically generated by Tiled2Unity

# Vertices (Count = 336)
v -4224 -960 0
v -4288 -960 0
v -4288 -896 0
v -4224 -896 0
v -4352 -960 0
v -4352 -896 0
v -4416 -960 0
v -4416 -896 0
v -4480 -960 0
v -4480 -896 0
v -4544 -960 0
v -4544 -896 0
v -4608 -960 0
v -4608 -896 0
v -4672 -960 0
v -4736 -960 0
v -4736 -896 0
v -4672 -896 0
v -4224 -1024 0
v -4288 -1024 0
v -4352 -1024 0
v -4416 -1024 0
v -4480 -1024 0
v -4544 -1024 0
v -4608 -1024 0
v -4672 -1024 0
v -4736 -1024 0
v -3904 -1088 0
v -3968 -1088 0
v -3968 -1024 0
v -3904 -1024 0
v -4032 -1088 0
v -4032 -1024 0
v -4096 -1088 0
v -4096 -1024 0
v -4160 -1088 0
v -4160 -1024 0
v -4224 -1088 0
v -4288 -1088 0
v -4352 -1088 0
v -4416 -1088 0
v -4480 -1088 0
v -4544 -1088 0
v -4608 -1088 0
v -4672 -1088 0
v -4736 -1088 0
v -3904 -1152 0
v -3968 -1152 0
v -4032 -1152 0
v -4096 -1152 0
v -4160 -1152 0
v -4224 -1152 0
v -4288 -1152 0
v -4352 -1152 0
v -4416 -1152 0
v -4480 -1152 0
v -4544 -1152 0
v -4608 -1152 0
v -4672 -1152 0
v -4736 -1152 0
v -3904 -1216 0
v -3968 -1216 0
v -4032 -1216 0
v -4096 -1216 0
v -4160 -1216 0
v -4224 -1216 0
v -4288 -1216 0
v -4352 -1216 0
v -4416 -1216 0
v -4480 -1216 0
v -4544 -1216 0
v -4608 -1216 0
v -4672 -1216 0
v -4736 -1216 0
v -3904 -1280 0
v -3968 -1280 0
v -4032 -1280 0
v -4096 -1280 0
v -4160 -1280 0
v -4224 -1280 0
v -4288 -1280 0
v -4352 -1280 0
v -4416 -1280 0
v -4480 -1280 0
v -4544 -1280 0
v -4608 -1280 0
v -4672 -1280 0
v -4736 -1280 0
v -3904 -1344 0
v -3968 -1344 0
v -4032 -1344 0
v -4096 -1344 0
v -4160 -1344 0
v -4224 -1344 0
v -4288 -1344 0
v -4352 -1344 0
v -4416 -1344 0
v -4480 -1344 0
v -4544 -1344 0
v -4608 -1344 0
v -4672 -1344 0
v -4736 -1344 0
v -3904 -1408 0
v -3968 -1408 0
v -4032 -1408 0
v -4096 -1408 0
v -4160 -1408 0
v -4224 -1408 0
v -4288 -1408 0
v -4352 -1408 0
v -4416 -1408 0
v -4480 -1408 0
v -4544 -1408 0
v -4608 -1408 0
v -4672 -1408 0
v -4736 -1408 0
v -3904 -960 0
v -3968 -960 0
v -3968 -896 0
v -3904 -896 0
v -4032 -960 0
v -4032 -896 0
v -4096 -960 0
v -4096 -896 0
v -4160 -960 0
v -4160 -896 0
v -3904 -1472 0
v -3968 -1472 0
v -4032 -1472 0
v -4096 -1472 0
v -4160 -1472 0
v -4224 -1472 0
v -4288 -1472 0
v -4352 -1472 0
v -4416 -1472 0
v -4480 -1472 0
v -4544 -1472 0
v -4608 -1472 0
v -4672 -1472 0
v -4736 -1472 0
v -3904 -1536 0
v -3968 -1536 0
v -4032 -1536 0
v -4096 -1536 0
v -4160 -1536 0
v -4224 -1536 0
v -4288 -1536 0
v -4352 -1536 0
v -4416 -1536 0
v -4480 -1536 0
v -4544 -1536 0
v -4608 -1536 0
v -4672 -1536 0
v -4736 -1536 0
v -3904 -1600 0
v -3968 -1600 0
v -4032 -1600 0
v -4096 -1600 0
v -4160 -1600 0
v -4224 -1600 0
v -4288 -1600 0
v -4352 -1600 0
v -4416 -1600 0
v -4480 -1600 0
v -4544 -1600 0
v -4608 -1600 0
v -4672 -1600 0
v -4736 -1600 0
v -3904 -1664 0
v -3968 -1664 0
v -4032 -1664 0
v -4096 -1664 0
v -4160 -1664 0
v -4224 -1664 0
v -4288 -1664 0
v -4352 -1664 0
v -4416 -1664 0
v -4480 -1664 0
v -4544 -1664 0
v -4608 -1664 0
v -4672 -1664 0
v -4736 -1664 0
v -3904 -1728 0
v -3968 -1728 0
v -4032 -1728 0
v -4096 -1728 0
v -4160 -1728 0
v -4224 -1728 0
v -4288 -1728 0
v -4352 -1728 0
v -4416 -1728 0
v -4480 -1728 0
v -4544 -1728 0
v -4608 -1728 0
v -4672 -1728 0
v -4736 -1728 0
v -3904 -1792 0
v -3968 -1792 0
v -4032 -1792 0
v -4096 -1792 0
v -4160 -1792 0
v -4224 -1792 0
v -4288 -1792 0
v -4352 -1792 0
v -4416 -1792 0
v -4480 -1792 0
v -4544 -1792 0
v -4608 -1792 0
v -4672 -1792 0
v -4736 -1792 0
v -3904 -1856 0
v -3968 -1856 0
v -4032 -1856 0
v -4096 -1856 0
v -4160 -1856 0
v -4224 -1856 0
v -4288 -1856 0
v -4352 -1856 0
v -4416 -1856 0
v -4480 -1856 0
v -4544 -1856 0
v -4608 -1856 0
v -4672 -1856 0
v -4736 -1856 0
v -3904 -1920 0
v -3968 -1920 0
v -4032 -1920 0
v -4096 -1920 0
v -4160 -1920 0
v -4224 -1920 0
v -4288 -1920 0
v -4352 -1920 0
v -4416 -1920 0
v -4480 -1920 0
v -4544 -1920 0
v -4608 -1920 0
v -4672 -1920 0
v -4736 -1920 0
v -3904 -1984 0
v -3968 -1984 0
v -4032 -1984 0
v -4096 -1984 0
v -4160 -1984 0
v -4224 -1984 0
v -4288 -1984 0
v -4352 -1984 0
v -4416 -1984 0
v -4480 -1984 0
v -4544 -1984 0
v -4608 -1984 0
v -4672 -1984 0
v -4736 -1984 0
v -3904 -2048 0
v -3968 -2048 0
v -4032 -2048 0
v -4096 -2048 0
v -4160 -2048 0
v -4224 -2048 0
v -4288 -2048 0
v -4352 -2048 0
v -4416 -2048 0
v -4480 -2048 0
v -4544 -2048 0
v -4608 -2048 0
v -4672 -2048 0
v -4736 -2048 0
v -3904 -2112 0
v -3968 -2112 0
v -4032 -2112 0
v -4096 -2112 0
v -4160 -2112 0
v -4224 -2112 0
v -4288 -2112 0
v -4352 -2112 0
v -4416 -2112 0
v -4480 -2112 0
v -4544 -2112 0
v -4608 -2112 0
v -4672 -2112 0
v -4736 -2112 0
v -3904 -2176 0
v -3968 -2176 0
v -4032 -2176 0
v -4096 -2176 0
v -4160 -2176 0
v -4224 -2176 0
v -4288 -2176 0
v -4352 -2176 0
v -4416 -2176 0
v -4480 -2176 0
v -4544 -2176 0
v -4608 -2176 0
v -4672 -2176 0
v -4736 -2176 0
v -3904 -2240 0
v -3968 -2240 0
v -4032 -2240 0
v -4096 -2240 0
v -4160 -2240 0
v -4224 -2240 0
v -4288 -2240 0
v -4352 -2240 0
v -4416 -2240 0
v -4480 -2240 0
v -4544 -2240 0
v -4608 -2240 0
v -4672 -2240 0
v -4736 -2240 0
v -3904 -2304 0
v -3968 -2304 0
v -4032 -2304 0
v -4096 -2304 0
v -4160 -2304 0
v -4224 -2304 0
v -4288 -2304 0
v -4352 -2304 0
v -4416 -2304 0
v -4480 -2304 0
v -4544 -2304 0
v -4608 -2304 0
v -4672 -2304 0
v -4736 -2304 0
v -3904 -2368 0
v -3968 -2368 0
v -4032 -2368 0
v -4096 -2368 0
v -4160 -2368 0
v -4224 -2368 0
v -4288 -2368 0
v -4352 -2368 0
v -4416 -2368 0
v -4480 -2368 0
v -4544 -2368 0
v -4608 -2368 0
v -4672 -2368 0
v -4736 -2368 0

# Texture Coorindates (Count = 60)
vt 0.06262207 0.8126221
vt 0.1248779 0.8126221
vt 0.1248779 0.8748779
vt 0.06262207 0.8748779
vt 0.5001221 0.8126221
vt 0.5623779 0.8126221
vt 0.5623779 0.8748779
vt 0.5001221 0.8748779
vt 0.5626221 0.8126221
vt 0.6248779 0.8126221
vt 0.6248779 0.8748779
vt 0.5626221 0.8748779
vt 0.0001220703 0.8751221
vt 0.06237793 0.8751221
vt 0.06237793 0.9373779
vt 0.0001220703 0.9373779
vt 0.2501221 0.8751221
vt 0.3123779 0.8751221
vt 0.3123779 0.9373779
vt 0.2501221 0.9373779
vt 0.3126221 0.6876221
vt 0.3748779 0.6876221
vt 0.3748779 0.7498779
vt 0.3126221 0.7498779
vt 0.06262207 0.8751221
vt 0.1248779 0.8751221
vt 0.1248779 0.9373779
vt 0.06262207 0.9373779
vt 0.2501221 0.6876221
vt 0.3123779 0.6876221
vt 0.3123779 0.7498779
vt 0.2501221 0.7498779
vt 0.7501221 0.8751221
vt 0.8123779 0.8751221
vt 0.8123779 0.9373779
vt 0.7501221 0.9373779
vt 0.8126221 0.8751221
vt 0.8748779 0.8751221
vt 0.8748779 0.9373779
vt 0.8126221 0.9373779
vt 0.8751221 0.8751221
vt 0.9373779 0.8751221
vt 0.9373779 0.9373779
vt 0.8751221 0.9373779
vt 0.9376221 0.8751221
vt 0.9998779 0.8751221
vt 0.9998779 0.9373779
vt 0.9376221 0.9373779
vt 0.3751221 0.6876221
vt 0.4373779 0.6876221
vt 0.4373779 0.7498779
vt 0.3751221 0.7498779
vt 0.4376221 0.6876221
vt 0.4998779 0.6876221
vt 0.4998779 0.7498779
vt 0.4376221 0.7498779
vt 0.0001220703 0.9376221
vt 0.06237793 0.9376221
vt 0.06237793 0.9998779
vt 0.0001220703 0.9998779

# Normal
vn 0 0 -1

# Groups (Count = 2)
g mesh_[00]_[00]
f  1/1/1  2/2/1  3/3/1  4/4/1 
f  2/1/1  5/2/1  6/3/1  3/4/1 
f  5/1/1  7/2/1  8/3/1  6/4/1 
f  7/1/1  9/2/1  10/3/1  8/4/1 
f  9/1/1  11/2/1  12/3/1  10/4/1 
f  11/1/1  13/2/1  14/3/1  12/4/1 
f  15/1/1  16/2/1  17/3/1  18/4/1 
f  19/1/1  20/2/1  2/3/1  1/4/1 
f  20/1/1  21/2/1  5/3/1  2/4/1 
f  21/1/1  22/2/1  7/3/1  5/4/1 
f  22/1/1  23/2/1  9/3/1  7/4/1 
f  23/1/1  24/2/1  11/3/1  9/4/1 
f  24/1/1  25/2/1  13/3/1  11/4/1 
f  26/1/1  27/2/1  16/3/1  15/4/1 
f  28/1/1  29/2/1  30/3/1  31/4/1 
f  29/1/1  32/2/1  33/3/1  30/4/1 
f  32/5/1  34/6/1  35/7/1  33/8/1 
f  34/9/1  36/10/1  37/11/1  35/12/1 
f  36/1/1  38/2/1  19/3/1  37/4/1 
f  38/1/1  39/2/1  20/3/1  19/4/1 
f  39/1/1  40/2/1  21/3/1  20/4/1 
f  40/1/1  41/2/1  22/3/1  21/4/1 
f  41/1/1  42/2/1  23/3/1  22/4/1 
f  42/1/1  43/2/1  24/3/1  23/4/1 
f  43/5/1  44/6/1  25/7/1  24/8/1 
f  44/9/1  45/10/1  26/11/1  25/12/1 
f  45/1/1  46/2/1  27/3/1  26/4/1 
f  47/1/1  48/2/1  29/3/1  28/4/1 
f  48/1/1  49/2/1  32/3/1  29/4/1 
f  49/5/1  50/6/1  34/7/1  32/8/1 
f  50/9/1  51/10/1  36/11/1  34/12/1 
f  51/1/1  52/2/1  38/3/1  36/4/1 
f  52/1/1  53/2/1  39/3/1  38/4/1 
f  53/1/1  54/2/1  40/3/1  39/4/1 
f  54/1/1  55/2/1  41/3/1  40/4/1 
f  55/1/1  56/2/1  42/3/1  41/4/1 
f  56/1/1  57/2/1  43/3/1  42/4/1 
f  57/5/1  58/6/1  44/7/1  43/8/1 
f  58/9/1  59/10/1  45/11/1  44/12/1 
f  59/1/1  60/2/1  46/3/1  45/4/1 
f  61/1/1  62/2/1  48/3/1  47/4/1 
f  62/1/1  63/2/1  49/3/1  48/4/1 
f  63/5/1  64/6/1  50/7/1  49/8/1 
f  64/9/1  65/10/1  51/11/1  50/12/1 
f  65/1/1  66/2/1  52/3/1  51/4/1 
f  66/1/1  67/2/1  53/3/1  52/4/1 
f  67/1/1  68/2/1  54/3/1  53/4/1 
f  68/1/1  69/2/1  55/3/1  54/4/1 
f  69/1/1  70/2/1  56/3/1  55/4/1 
f  70/1/1  71/2/1  57/3/1  56/4/1 
f  71/5/1  72/6/1  58/7/1  57/8/1 
f  72/9/1  73/10/1  59/11/1  58/12/1 
f  73/1/1  74/2/1  60/3/1  59/4/1 
f  75/1/1  76/2/1  62/3/1  61/4/1 
f  76/1/1  77/2/1  63/3/1  62/4/1 
f  77/5/1  78/6/1  64/7/1  63/8/1 
f  78/9/1  79/10/1  65/11/1  64/12/1 
f  79/1/1  80/2/1  66/3/1  65/4/1 
f  80/1/1  81/2/1  67/3/1  66/4/1 
f  81/1/1  82/2/1  68/3/1  67/4/1 
f  82/1/1  83/2/1  69/3/1  68/4/1 
f  83/1/1  84/2/1  70/3/1  69/4/1 
f  84/1/1  85/2/1  71/3/1  70/4/1 
f  85/5/1  86/6/1  72/7/1  71/8/1 
f  86/9/1  87/10/1  73/11/1  72/12/1 
f  87/1/1  88/2/1  74/3/1  73/4/1 
f  89/1/1  90/2/1  76/3/1  75/4/1 
f  90/1/1  91/2/1  77/3/1  76/4/1 
f  91/5/1  92/6/1  78/7/1  77/8/1 
f  92/9/1  93/10/1  79/11/1  78/12/1 
f  93/1/1  94/2/1  80/3/1  79/4/1 
f  94/1/1  95/2/1  81/3/1  80/4/1 
f  95/1/1  96/2/1  82/3/1  81/4/1 
f  96/1/1  97/2/1  83/3/1  82/4/1 
f  97/1/1  98/2/1  84/3/1  83/4/1 
f  98/1/1  99/2/1  85/3/1  84/4/1 
f  99/5/1  100/6/1  86/7/1  85/8/1 
f  100/9/1  101/10/1  87/11/1  86/12/1 
f  101/1/1  102/2/1  88/3/1  87/4/1 
f  103/1/1  104/2/1  90/3/1  89/4/1 
f  104/1/1  105/2/1  91/3/1  90/4/1 
f  105/5/1  106/6/1  92/7/1  91/8/1 
f  106/9/1  107/10/1  93/11/1  92/12/1 
f  107/1/1  108/2/1  94/3/1  93/4/1 
f  108/1/1  109/2/1  95/3/1  94/4/1 
f  109/1/1  110/2/1  96/3/1  95/4/1 
f  110/1/1  111/2/1  97/3/1  96/4/1 
f  111/1/1  112/2/1  98/3/1  97/4/1 
f  112/1/1  113/2/1  99/3/1  98/4/1 
f  113/5/1  114/6/1  100/7/1  99/8/1 
f  114/9/1  115/10/1  101/11/1  100/12/1 
f  115/1/1  116/2/1  102/3/1  101/4/1 
g mesh_[01]_[00]
f  117/13/1  118/14/1  119/15/1  120/16/1 
f  118/13/1  121/14/1  122/15/1  119/16/1 
f  121/13/1  123/14/1  124/15/1  122/16/1 
f  123/13/1  125/14/1  126/15/1  124/16/1 
f  125/13/1  1/14/1  4/15/1  126/16/1 
f  1/13/1  2/14/1  3/15/1  4/16/1 
f  2/13/1  5/14/1  6/15/1  3/16/1 
f  5/13/1  7/14/1  8/15/1  6/16/1 
f  7/13/1  9/14/1  10/15/1  8/16/1 
f  9/13/1  11/14/1  12/15/1  10/16/1 
f  11/13/1  13/14/1  14/15/1  12/16/1 
f  13/13/1  15/14/1  18/15/1  14/16/1 
f  15/13/1  16/14/1  17/15/1  18/16/1 
f  31/17/1  30/18/1  118/19/1  117/20/1 
f  30/17/1  33/18/1  121/19/1  118/20/1 
f  33/17/1  35/18/1  123/19/1  121/20/1 
f  35/17/1  37/18/1  125/19/1  123/20/1 
f  37/17/1  19/18/1  1/19/1  125/20/1 
f  19/21/1  20/22/1  2/23/1  1/24/1 
f  20/25/1  21/26/1  5/27/1  2/28/1 
f  21/25/1  22/26/1  7/27/1  5/28/1 
f  22/25/1  23/26/1  9/27/1  7/28/1 
f  23/29/1  24/30/1  11/31/1  9/32/1 
f  24/17/1  25/18/1  13/19/1  11/20/1 
f  25/17/1  26/18/1  15/19/1  13/20/1 
f  26/17/1  27/18/1  16/19/1  15/20/1 
f  38/33/1  39/34/1  20/35/1  19/36/1 
f  39/21/1  40/22/1  21/23/1  20/24/1 
f  40/25/1  41/26/1  22/27/1  21/28/1 
f  41/29/1  42/30/1  23/31/1  22/32/1 
f  42/37/1  43/38/1  24/39/1  23/40/1 
f  53/33/1  54/34/1  40/35/1  39/36/1 
f  54/17/1  55/18/1  41/19/1  40/20/1 
f  55/37/1  56/38/1  42/39/1  41/40/1 
f  90/41/1  91/42/1  77/43/1  76/44/1 
f  91/13/1  92/14/1  78/15/1  77/16/1 
f  92/45/1  93/46/1  79/47/1  78/48/1 
f  103/41/1  104/42/1  90/43/1  89/44/1 
f  104/49/1  105/50/1  91/51/1  90/52/1 
f  105/25/1  106/26/1  92/27/1  91/28/1 
f  106/53/1  107/54/1  93/55/1  92/56/1 
f  107/45/1  108/46/1  94/47/1  93/48/1 
f  108/1/1  109/2/1  95/3/1  94/4/1 
f  127/49/1  128/50/1  104/51/1  103/52/1 
f  128/25/1  129/26/1  105/27/1  104/28/1 
f  129/25/1  130/26/1  106/27/1  105/28/1 
f  130/25/1  131/26/1  107/27/1  106/28/1 
f  131/53/1  132/54/1  108/55/1  107/56/1 
f  132/13/1  133/14/1  109/15/1  108/16/1 
f  133/13/1  134/14/1  110/15/1  109/16/1 
f  134/13/1  135/14/1  111/15/1  110/16/1 
f  135/13/1  136/14/1  112/15/1  111/16/1 
f  136/13/1  137/14/1  113/15/1  112/16/1 
f  137/13/1  138/14/1  114/15/1  113/16/1 
f  138/13/1  139/14/1  115/15/1  114/16/1 
f  139/13/1  140/14/1  116/15/1  115/16/1 
f  141/17/1  142/18/1  128/19/1  127/20/1 
f  142/17/1  143/18/1  129/19/1  128/20/1 
f  143/17/1  144/18/1  130/19/1  129/20/1 
f  144/17/1  145/18/1  131/19/1  130/20/1 
f  145/17/1  146/18/1  132/19/1  131/20/1 
f  146/17/1  147/18/1  133/19/1  132/20/1 
f  147/17/1  148/18/1  134/19/1  133/20/1 
f  148/17/1  149/18/1  135/19/1  134/20/1 
f  149/17/1  150/18/1  136/19/1  135/20/1 
f  150/17/1  151/18/1  137/19/1  136/20/1 
f  151/17/1  152/18/1  138/19/1  137/20/1 
f  152/17/1  153/18/1  139/19/1  138/20/1 
f  153/17/1  154/18/1  140/19/1  139/20/1 
f  155/57/1  156/58/1  142/59/1  141/60/1 
f  156/57/1  157/58/1  143/59/1  142/60/1 
f  157/57/1  158/58/1  144/59/1  143/60/1 
f  158/57/1  159/58/1  145/59/1  144/60/1 
f  159/57/1  160/58/1  146/59/1  145/60/1 
f  160/57/1  161/58/1  147/59/1  146/60/1 
f  161/57/1  162/58/1  148/59/1  147/60/1 
f  162/57/1  163/58/1  149/59/1  148/60/1 
f  163/57/1  164/58/1  150/59/1  149/60/1 
f  164/57/1  165/58/1  151/59/1  150/60/1 
f  165/57/1  166/58/1  152/59/1  151/60/1 
f  166/57/1  167/58/1  153/59/1  152/60/1 
f  167/57/1  168/58/1  154/59/1  153/60/1 
f  169/57/1  170/58/1  156/59/1  155/60/1 
f  170/57/1  171/58/1  157/59/1  156/60/1 
f  171/57/1  172/58/1  158/59/1  157/60/1 
f  172/57/1  173/58/1  159/59/1  158/60/1 
f  173/57/1  174/58/1  160/59/1  159/60/1 
f  174/57/1  175/58/1  161/59/1  160/60/1 
f  175/57/1  176/58/1  162/59/1  161/60/1 
f  176/57/1  177/58/1  163/59/1  162/60/1 
f  177/57/1  178/58/1  164/59/1  163/60/1 
f  178/57/1  179/58/1  165/59/1  164/60/1 
f  179/57/1  180/58/1  166/59/1  165/60/1 
f  180/57/1  181/58/1  167/59/1  166/60/1 
f  181/57/1  182/58/1  168/59/1  167/60/1 
f  183/57/1  184/58/1  170/59/1  169/60/1 
f  184/57/1  185/58/1  171/59/1  170/60/1 
f  185/57/1  186/58/1  172/59/1  171/60/1 
f  186/57/1  187/58/1  173/59/1  172/60/1 
f  187/57/1  188/58/1  174/59/1  173/60/1 
f  188/57/1  189/58/1  175/59/1  174/60/1 
f  189/57/1  190/58/1  176/59/1  175/60/1 
f  190/57/1  191/58/1  177/59/1  176/60/1 
f  191/57/1  192/58/1  178/59/1  177/60/1 
f  192/57/1  193/58/1  179/59/1  178/60/1 
f  193/57/1  194/58/1  180/59/1  179/60/1 
f  194/57/1  195/58/1  181/59/1  180/60/1 
f  195/57/1  196/58/1  182/59/1  181/60/1 
f  197/57/1  198/58/1  184/59/1  183/60/1 
f  198/57/1  199/58/1  185/59/1  184/60/1 
f  199/57/1  200/58/1  186/59/1  185/60/1 
f  200/57/1  201/58/1  187/59/1  186/60/1 
f  201/57/1  202/58/1  188/59/1  187/60/1 
f  202/57/1  203/58/1  189/59/1  188/60/1 
f  203/57/1  204/58/1  190/59/1  189/60/1 
f  204/57/1  205/58/1  191/59/1  190/60/1 
f  205/57/1  206/58/1  192/59/1  191/60/1 
f  206/57/1  207/58/1  193/59/1  192/60/1 
f  207/57/1  208/58/1  194/59/1  193/60/1 
f  208/57/1  209/58/1  195/59/1  194/60/1 
f  209/57/1  210/58/1  196/59/1  195/60/1 
f  211/57/1  212/58/1  198/59/1  197/60/1 
f  212/57/1  213/58/1  199/59/1  198/60/1 
f  213/57/1  214/58/1  200/59/1  199/60/1 
f  214/57/1  215/58/1  201/59/1  200/60/1 
f  215/57/1  216/58/1  202/59/1  201/60/1 
f  216/57/1  217/58/1  203/59/1  202/60/1 
f  217/57/1  218/58/1  204/59/1  203/60/1 
f  218/57/1  219/58/1  205/59/1  204/60/1 
f  219/57/1  220/58/1  206/59/1  205/60/1 
f  220/57/1  221/58/1  207/59/1  206/60/1 
f  221/57/1  222/58/1  208/59/1  207/60/1 
f  222/57/1  223/58/1  209/59/1  208/60/1 
f  223/57/1  224/58/1  210/59/1  209/60/1 
f  225/57/1  226/58/1  212/59/1  211/60/1 
f  226/57/1  227/58/1  213/59/1  212/60/1 
f  227/57/1  228/58/1  214/59/1  213/60/1 
f  228/57/1  229/58/1  215/59/1  214/60/1 
f  229/57/1  230/58/1  216/59/1  215/60/1 
f  230/57/1  231/58/1  217/59/1  216/60/1 
f  231/57/1  232/58/1  218/59/1  217/60/1 
f  232/57/1  233/58/1  219/59/1  218/60/1 
f  233/57/1  234/58/1  220/59/1  219/60/1 
f  234/57/1  235/58/1  221/59/1  220/60/1 
f  235/57/1  236/58/1  222/59/1  221/60/1 
f  236/57/1  237/58/1  223/59/1  222/60/1 
f  237/57/1  238/58/1  224/59/1  223/60/1 
f  239/57/1  240/58/1  226/59/1  225/60/1 
f  240/57/1  241/58/1  227/59/1  226/60/1 
f  241/57/1  242/58/1  228/59/1  227/60/1 
f  242/57/1  243/58/1  229/59/1  228/60/1 
f  243/57/1  244/58/1  230/59/1  229/60/1 
f  244/57/1  245/58/1  231/59/1  230/60/1 
f  245/57/1  246/58/1  232/59/1  231/60/1 
f  246/57/1  247/58/1  233/59/1  232/60/1 
f  247/57/1  248/58/1  234/59/1  233/60/1 
f  248/57/1  249/58/1  235/59/1  234/60/1 
f  249/57/1  250/58/1  236/59/1  235/60/1 
f  250/57/1  251/58/1  237/59/1  236/60/1 
f  251/57/1  252/58/1  238/59/1  237/60/1 
f  253/57/1  254/58/1  240/59/1  239/60/1 
f  254/57/1  255/58/1  241/59/1  240/60/1 
f  255/57/1  256/58/1  242/59/1  241/60/1 
f  256/57/1  257/58/1  243/59/1  242/60/1 
f  257/57/1  258/58/1  244/59/1  243/60/1 
f  258/57/1  259/58/1  245/59/1  244/60/1 
f  259/57/1  260/58/1  246/59/1  245/60/1 
f  260/57/1  261/58/1  247/59/1  246/60/1 
f  261/57/1  262/58/1  248/59/1  247/60/1 
f  262/57/1  263/58/1  249/59/1  248/60/1 
f  263/57/1  264/58/1  250/59/1  249/60/1 
f  264/57/1  265/58/1  251/59/1  250/60/1 
f  265/57/1  266/58/1  252/59/1  251/60/1 
f  267/57/1  268/58/1  254/59/1  253/60/1 
f  268/57/1  269/58/1  255/59/1  254/60/1 
f  269/57/1  270/58/1  256/59/1  255/60/1 
f  270/57/1  271/58/1  257/59/1  256/60/1 
f  271/57/1  272/58/1  258/59/1  257/60/1 
f  272/57/1  273/58/1  259/59/1  258/60/1 
f  273/57/1  274/58/1  260/59/1  259/60/1 
f  274/57/1  275/58/1  261/59/1  260/60/1 
f  275/57/1  276/58/1  262/59/1  261/60/1 
f  276/57/1  277/58/1  263/59/1  262/60/1 
f  277/57/1  278/58/1  264/59/1  263/60/1 
f  278/57/1  279/58/1  265/59/1  264/60/1 
f  279/57/1  280/58/1  266/59/1  265/60/1 
f  281/57/1  282/58/1  268/59/1  267/60/1 
f  282/57/1  283/58/1  269/59/1  268/60/1 
f  283/57/1  284/58/1  270/59/1  269/60/1 
f  284/57/1  285/58/1  271/59/1  270/60/1 
f  285/57/1  286/58/1  272/59/1  271/60/1 
f  286/57/1  287/58/1  273/59/1  272/60/1 
f  287/57/1  288/58/1  274/59/1  273/60/1 
f  288/57/1  289/58/1  275/59/1  274/60/1 
f  289/57/1  290/58/1  276/59/1  275/60/1 
f  290/57/1  291/58/1  277/59/1  276/60/1 
f  291/57/1  292/58/1  278/59/1  277/60/1 
f  292/57/1  293/58/1  279/59/1  278/60/1 
f  293/57/1  294/58/1  280/59/1  279/60/1 
f  295/57/1  296/58/1  282/59/1  281/60/1 
f  296/57/1  297/58/1  283/59/1  282/60/1 
f  297/57/1  298/58/1  284/59/1  283/60/1 
f  298/57/1  299/58/1  285/59/1  284/60/1 
f  299/57/1  300/58/1  286/59/1  285/60/1 
f  300/57/1  301/58/1  287/59/1  286/60/1 
f  301/57/1  302/58/1  288/59/1  287/60/1 
f  302/57/1  303/58/1  289/59/1  288/60/1 
f  303/57/1  304/58/1  290/59/1  289/60/1 
f  304/57/1  305/58/1  291/59/1  290/60/1 
f  305/57/1  306/58/1  292/59/1  291/60/1 
f  306/57/1  307/58/1  293/59/1  292/60/1 
f  307/57/1  308/58/1  294/59/1  293/60/1 
f  309/57/1  310/58/1  296/59/1  295/60/1 
f  310/57/1  311/58/1  297/59/1  296/60/1 
f  311/57/1  312/58/1  298/59/1  297/60/1 
f  312/57/1  313/58/1  299/59/1  298/60/1 
f  313/57/1  314/58/1  300/59/1  299/60/1 
f  314/57/1  315/58/1  301/59/1  300/60/1 
f  315/57/1  316/58/1  302/59/1  301/60/1 
f  316/57/1  317/58/1  303/59/1  302/60/1 
f  317/57/1  318/58/1  304/59/1  303/60/1 
f  318/57/1  319/58/1  305/59/1  304/60/1 
f  319/57/1  320/58/1  306/59/1  305/60/1 
f  320/57/1  321/58/1  307/59/1  306/60/1 
f  321/57/1  322/58/1  308/59/1  307/60/1 
f  323/57/1  324/58/1  310/59/1  309/60/1 
f  324/57/1  325/58/1  311/59/1  310/60/1 
f  325/57/1  326/58/1  312/59/1  311/60/1 
f  326/57/1  327/58/1  313/59/1  312/60/1 
f  327/57/1  328/58/1  314/59/1  313/60/1 
f  328/57/1  329/58/1  315/59/1  314/60/1 
f  329/57/1  330/58/1  316/59/1  315/60/1 
f  330/57/1  331/58/1  317/59/1  316/60/1 
f  331/57/1  332/58/1  318/59/1  317/60/1 
f  332/57/1  333/58/1  319/59/1  318/60/1 
f  333/57/1  334/58/1  320/59/1  319/60/1 
f  334/57/1  335/58/1  321/59/1  320/60/1 
f  335/57/1  336/58/1  322/59/1  321/60/1 
