# Wavefront OBJ file automatically generated by Tiled2Unity

# Vertices (Count = 238)
v -1088 -1472 0
v -1600 -1472 0
v -1600 -960 0
v -1088 -960 0
v -2112 -1472 0
v -2112 -960 0
v -1088 -1344 0
v -1600 -1344 0
v -1600 -832 0
v -1088 -832 0
v -2112 -1344 0
v -2112 -832 0
v -1088 -1408 0
v -1152 -1408 0
v -1152 -1344 0
v -1216 -1408 0
v -1216 -1344 0
v -1280 -1408 0
v -1280 -1344 0
v -1344 -1408 0
v -1344 -1344 0
v -1856 -1408 0
v -1920 -1408 0
v -1920 -1344 0
v -1856 -1344 0
v -1984 -1408 0
v -1984 -1344 0
v -2048 -1408 0
v -2048 -1344 0
v -2112 -1408 0
v -1152 -1472 0
v -1216 -1472 0
v -1280 -1472 0
v -1344 -1472 0
v -1408 -1472 0
v -1408 -1408 0
v -1472 -1472 0
v -1472 -1408 0
v -1536 -1472 0
v -1536 -1408 0
v -1600 -1408 0
v -1664 -1472 0
v -1664 -1408 0
v -1728 -1472 0
v -1728 -1408 0
v -1792 -1472 0
v -1792 -1408 0
v -1856 -1472 0
v -1920 -1472 0
v -1984 -1472 0
v -2048 -1472 0
v -1088 -1536 0
v -1152 -1536 0
v -1216 -1536 0
v -1280 -1536 0
v -1344 -1536 0
v -1408 -1536 0
v -1472 -1536 0
v -1536 -1536 0
v -1600 -1536 0
v -1664 -1536 0
v -1728 -1536 0
v -1792 -1536 0
v -1856 -1536 0
v -1920 -1536 0
v -1984 -1536 0
v -2048 -1536 0
v -2112 -1536 0
v -1088 -1600 0
v -1152 -1600 0
v -1216 -1600 0
v -1280 -1600 0
v -1344 -1600 0
v -1408 -1600 0
v -1472 -1600 0
v -1536 -1600 0
v -1600 -1600 0
v -1664 -1600 0
v -1728 -1600 0
v -1792 -1600 0
v -1856 -1600 0
v -1920 -1600 0
v -1984 -1600 0
v -2048 -1600 0
v -2112 -1600 0
v -1088 -1664 0
v -1152 -1664 0
v -1216 -1664 0
v -1280 -1664 0
v -1344 -1664 0
v -1408 -1664 0
v -1472 -1664 0
v -1536 -1664 0
v -1600 -1664 0
v -1664 -1664 0
v -1728 -1664 0
v -1792 -1664 0
v -1856 -1664 0
v -1920 -1664 0
v -1984 -1664 0
v -2048 -1664 0
v -2112 -1664 0
v -1088 -1728 0
v -1152 -1728 0
v -1216 -1728 0
v -1280 -1728 0
v -1344 -1728 0
v -1408 -1728 0
v -1472 -1728 0
v -1536 -1728 0
v -1600 -1728 0
v -1664 -1728 0
v -1728 -1728 0
v -1792 -1728 0
v -1856 -1728 0
v -1920 -1728 0
v -1984 -1728 0
v -2048 -1728 0
v -2112 -1728 0
v -1088 -1792 0
v -1152 -1792 0
v -1216 -1792 0
v -1280 -1792 0
v -1344 -1792 0
v -1408 -1792 0
v -1472 -1792 0
v -1536 -1792 0
v -1600 -1792 0
v -1664 -1792 0
v -1728 -1792 0
v -1792 -1792 0
v -1856 -1792 0
v -1920 -1792 0
v -1984 -1792 0
v -2048 -1792 0
v -2112 -1792 0
v -1088 -1856 0
v -1152 -1856 0
v -1216 -1856 0
v -1280 -1856 0
v -1344 -1856 0
v -1408 -1856 0
v -1472 -1856 0
v -1536 -1856 0
v -1600 -1856 0
v -1664 -1856 0
v -1728 -1856 0
v -1792 -1856 0
v -1856 -1856 0
v -1920 -1856 0
v -1984 -1856 0
v -2048 -1856 0
v -2112 -1856 0
v -1088 -1920 0
v -1152 -1920 0
v -1216 -1920 0
v -1280 -1920 0
v -1344 -1920 0
v -1408 -1920 0
v -1472 -1920 0
v -1536 -1920 0
v -1600 -1920 0
v -1664 -1920 0
v -1728 -1920 0
v -1792 -1920 0
v -1856 -1920 0
v -1920 -1920 0
v -1984 -1920 0
v -2048 -1920 0
v -2112 -1920 0
v -1088 -1984 0
v -1152 -1984 0
v -1216 -1984 0
v -1280 -1984 0
v -1344 -1984 0
v -1408 -1984 0
v -1472 -1984 0
v -1536 -1984 0
v -1600 -1984 0
v -1664 -1984 0
v -1728 -1984 0
v -1792 -1984 0
v -1856 -1984 0
v -1920 -1984 0
v -1984 -1984 0
v -2048 -1984 0
v -2112 -1984 0
v -1088 -2048 0
v -1152 -2048 0
v -1216 -2048 0
v -1280 -2048 0
v -1344 -2048 0
v -1408 -2048 0
v -1472 -2048 0
v -1536 -2048 0
v -1600 -2048 0
v -1664 -2048 0
v -1728 -2048 0
v -1792 -2048 0
v -1856 -2048 0
v -1920 -2048 0
v -1984 -2048 0
v -2048 -2048 0
v -2112 -2048 0
v -1088 -2112 0
v -1152 -2112 0
v -1216 -2112 0
v -1280 -2112 0
v -1344 -2112 0
v -1408 -2112 0
v -1472 -2112 0
v -1536 -2112 0
v -1600 -2112 0
v -1664 -2112 0
v -1728 -2112 0
v -1792 -2112 0
v -1856 -2112 0
v -1920 -2112 0
v -1984 -2112 0
v -2048 -2112 0
v -2112 -2112 0
v -1088 -2176 0
v -1152 -2176 0
v -1216 -2176 0
v -1280 -2176 0
v -1344 -2176 0
v -1408 -2176 0
v -1472 -2176 0
v -1536 -2176 0
v -1600 -2176 0
v -1664 -2176 0
v -1728 -2176 0
v -1792 -2176 0
v -1856 -2176 0
v -1920 -2176 0
v -1984 -2176 0
v -2048 -2176 0
v -2112 -2176 0

# Texture Coorindates (Count = 35)
vt 0.5001221 0.7501221
vt 0.7498779 0.7501221
vt 0.7498779 0.9998779
vt 0.5001221 0.9998779
vt 0.0001220703 0.7501221
vt 0.2498779 0.7501221
vt 0.2498779 0.9998779
vt 0.0001220703 0.9998779
vt 0.2501221 0.7501221
vt 0.4998779 0.7501221
vt 0.4998779 0.9998779
vt 0.2501221 0.9998779
vt 0.06262207 0.9376221
vt 0.1248779 0.9376221
vt 0.1248779 0.9998779
vt 0.06262207 0.9998779
vt 0.3126221 0.9376221
vt 0.3748779 0.9376221
vt 0.3748779 0.9998779
vt 0.3126221 0.9998779
vt 0.3751221 0.9376221
vt 0.4373779 0.9376221
vt 0.4373779 0.9998779
vt 0.3751221 0.9998779
vt 0.0001220703 0.9376221
vt 0.06237793 0.9376221
vt 0.06237793 0.9998779
vt 0.7501221 0.9376221
vt 0.8123779 0.9376221
vt 0.8123779 0.9998779
vt 0.7501221 0.9998779
vt 0.8126221 0.9376221
vt 0.8748779 0.9376221
vt 0.8748779 0.9998779
vt 0.8126221 0.9998779

# Normal
vn 0 0 -1

# Groups (Count = 3)
g mesh_[00]_[01]
f  1/1/1  2/2/1  3/3/1  4/4/1 
f  2/1/1  5/2/1  6/3/1  3/4/1 
g mesh_[01]_[01]
f  7/5/1  8/6/1  9/7/1  10/8/1 
f  8/9/1  11/10/1  12/11/1  9/12/1 
g mesh_[01]_[00]
f  13/13/1  14/14/1  15/15/1  7/16/1 
f  14/13/1  16/14/1  17/15/1  15/16/1 
f  16/13/1  18/14/1  19/15/1  17/16/1 
f  18/17/1  20/18/1  21/19/1  19/20/1 
f  22/21/1  23/22/1  24/23/1  25/24/1 
f  23/13/1  26/14/1  27/15/1  24/16/1 
f  26/13/1  28/14/1  29/15/1  27/16/1 
f  28/13/1  30/14/1  11/15/1  29/16/1 
f  1/25/1  31/26/1  14/27/1  13/8/1 
f  31/25/1  32/26/1  16/27/1  14/8/1 
f  32/25/1  33/26/1  18/27/1  16/8/1 
f  33/28/1  34/29/1  20/30/1  18/31/1 
f  34/13/1  35/14/1  36/15/1  20/16/1 
f  35/13/1  37/14/1  38/15/1  36/16/1 
f  37/13/1  39/14/1  40/15/1  38/16/1 
f  39/13/1  2/14/1  41/15/1  40/16/1 
f  2/13/1  42/14/1  43/15/1  41/16/1 
f  42/13/1  44/14/1  45/15/1  43/16/1 
f  44/13/1  46/14/1  47/15/1  45/16/1 
f  46/13/1  48/14/1  22/15/1  47/16/1 
f  48/32/1  49/33/1  23/34/1  22/35/1 
f  49/25/1  50/26/1  26/27/1  23/8/1 
f  50/25/1  51/26/1  28/27/1  26/8/1 
f  51/25/1  5/26/1  30/27/1  28/8/1 
f  52/25/1  53/26/1  31/27/1  1/8/1 
f  53/25/1  54/26/1  32/27/1  31/8/1 
f  54/25/1  55/26/1  33/27/1  32/8/1 
f  55/25/1  56/26/1  34/27/1  33/8/1 
f  56/25/1  57/26/1  35/27/1  34/8/1 
f  57/25/1  58/26/1  37/27/1  35/8/1 
f  58/25/1  59/26/1  39/27/1  37/8/1 
f  59/25/1  60/26/1  2/27/1  39/8/1 
f  60/25/1  61/26/1  42/27/1  2/8/1 
f  61/25/1  62/26/1  44/27/1  42/8/1 
f  62/25/1  63/26/1  46/27/1  44/8/1 
f  63/25/1  64/26/1  48/27/1  46/8/1 
f  64/25/1  65/26/1  49/27/1  48/8/1 
f  65/25/1  66/26/1  50/27/1  49/8/1 
f  66/25/1  67/26/1  51/27/1  50/8/1 
f  67/25/1  68/26/1  5/27/1  51/8/1 
f  69/25/1  70/26/1  53/27/1  52/8/1 
f  70/25/1  71/26/1  54/27/1  53/8/1 
f  71/25/1  72/26/1  55/27/1  54/8/1 
f  72/25/1  73/26/1  56/27/1  55/8/1 
f  73/25/1  74/26/1  57/27/1  56/8/1 
f  74/25/1  75/26/1  58/27/1  57/8/1 
f  75/25/1  76/26/1  59/27/1  58/8/1 
f  76/25/1  77/26/1  60/27/1  59/8/1 
f  77/25/1  78/26/1  61/27/1  60/8/1 
f  78/25/1  79/26/1  62/27/1  61/8/1 
f  79/25/1  80/26/1  63/27/1  62/8/1 
f  80/25/1  81/26/1  64/27/1  63/8/1 
f  81/25/1  82/26/1  65/27/1  64/8/1 
f  82/25/1  83/26/1  66/27/1  65/8/1 
f  83/25/1  84/26/1  67/27/1  66/8/1 
f  84/25/1  85/26/1  68/27/1  67/8/1 
f  86/25/1  87/26/1  70/27/1  69/8/1 
f  87/25/1  88/26/1  71/27/1  70/8/1 
f  88/25/1  89/26/1  72/27/1  71/8/1 
f  89/25/1  90/26/1  73/27/1  72/8/1 
f  90/25/1  91/26/1  74/27/1  73/8/1 
f  91/25/1  92/26/1  75/27/1  74/8/1 
f  92/25/1  93/26/1  76/27/1  75/8/1 
f  93/25/1  94/26/1  77/27/1  76/8/1 
f  94/25/1  95/26/1  78/27/1  77/8/1 
f  95/25/1  96/26/1  79/27/1  78/8/1 
f  96/25/1  97/26/1  80/27/1  79/8/1 
f  97/25/1  98/26/1  81/27/1  80/8/1 
f  98/25/1  99/26/1  82/27/1  81/8/1 
f  99/25/1  100/26/1  83/27/1  82/8/1 
f  100/25/1  101/26/1  84/27/1  83/8/1 
f  101/25/1  102/26/1  85/27/1  84/8/1 
f  103/25/1  104/26/1  87/27/1  86/8/1 
f  104/25/1  105/26/1  88/27/1  87/8/1 
f  105/25/1  106/26/1  89/27/1  88/8/1 
f  106/25/1  107/26/1  90/27/1  89/8/1 
f  107/25/1  108/26/1  91/27/1  90/8/1 
f  108/25/1  109/26/1  92/27/1  91/8/1 
f  109/25/1  110/26/1  93/27/1  92/8/1 
f  110/25/1  111/26/1  94/27/1  93/8/1 
f  111/25/1  112/26/1  95/27/1  94/8/1 
f  112/25/1  113/26/1  96/27/1  95/8/1 
f  113/25/1  114/26/1  97/27/1  96/8/1 
f  114/25/1  115/26/1  98/27/1  97/8/1 
f  115/25/1  116/26/1  99/27/1  98/8/1 
f  116/25/1  117/26/1  100/27/1  99/8/1 
f  117/25/1  118/26/1  101/27/1  100/8/1 
f  118/25/1  119/26/1  102/27/1  101/8/1 
f  120/25/1  121/26/1  104/27/1  103/8/1 
f  121/25/1  122/26/1  105/27/1  104/8/1 
f  122/25/1  123/26/1  106/27/1  105/8/1 
f  123/25/1  124/26/1  107/27/1  106/8/1 
f  124/25/1  125/26/1  108/27/1  107/8/1 
f  125/25/1  126/26/1  109/27/1  108/8/1 
f  126/25/1  127/26/1  110/27/1  109/8/1 
f  127/25/1  128/26/1  111/27/1  110/8/1 
f  128/25/1  129/26/1  112/27/1  111/8/1 
f  129/25/1  130/26/1  113/27/1  112/8/1 
f  130/25/1  131/26/1  114/27/1  113/8/1 
f  131/25/1  132/26/1  115/27/1  114/8/1 
f  132/25/1  133/26/1  116/27/1  115/8/1 
f  133/25/1  134/26/1  117/27/1  116/8/1 
f  134/25/1  135/26/1  118/27/1  117/8/1 
f  135/25/1  136/26/1  119/27/1  118/8/1 
f  137/25/1  138/26/1  121/27/1  120/8/1 
f  138/25/1  139/26/1  122/27/1  121/8/1 
f  139/25/1  140/26/1  123/27/1  122/8/1 
f  140/25/1  141/26/1  124/27/1  123/8/1 
f  141/25/1  142/26/1  125/27/1  124/8/1 
f  142/25/1  143/26/1  126/27/1  125/8/1 
f  143/25/1  144/26/1  127/27/1  126/8/1 
f  144/25/1  145/26/1  128/27/1  127/8/1 
f  145/25/1  146/26/1  129/27/1  128/8/1 
f  146/25/1  147/26/1  130/27/1  129/8/1 
f  147/25/1  148/26/1  131/27/1  130/8/1 
f  148/25/1  149/26/1  132/27/1  131/8/1 
f  149/25/1  150/26/1  133/27/1  132/8/1 
f  150/25/1  151/26/1  134/27/1  133/8/1 
f  151/25/1  152/26/1  135/27/1  134/8/1 
f  152/25/1  153/26/1  136/27/1  135/8/1 
f  154/25/1  155/26/1  138/27/1  137/8/1 
f  155/25/1  156/26/1  139/27/1  138/8/1 
f  156/25/1  157/26/1  140/27/1  139/8/1 
f  157/25/1  158/26/1  141/27/1  140/8/1 
f  158/25/1  159/26/1  142/27/1  141/8/1 
f  159/25/1  160/26/1  143/27/1  142/8/1 
f  160/25/1  161/26/1  144/27/1  143/8/1 
f  161/25/1  162/26/1  145/27/1  144/8/1 
f  162/25/1  163/26/1  146/27/1  145/8/1 
f  163/25/1  164/26/1  147/27/1  146/8/1 
f  164/25/1  165/26/1  148/27/1  147/8/1 
f  165/25/1  166/26/1  149/27/1  148/8/1 
f  166/25/1  167/26/1  150/27/1  149/8/1 
f  167/25/1  168/26/1  151/27/1  150/8/1 
f  168/25/1  169/26/1  152/27/1  151/8/1 
f  169/25/1  170/26/1  153/27/1  152/8/1 
f  171/25/1  172/26/1  155/27/1  154/8/1 
f  172/25/1  173/26/1  156/27/1  155/8/1 
f  173/25/1  174/26/1  157/27/1  156/8/1 
f  174/25/1  175/26/1  158/27/1  157/8/1 
f  175/25/1  176/26/1  159/27/1  158/8/1 
f  176/25/1  177/26/1  160/27/1  159/8/1 
f  177/25/1  178/26/1  161/27/1  160/8/1 
f  178/25/1  179/26/1  162/27/1  161/8/1 
f  179/25/1  180/26/1  163/27/1  162/8/1 
f  180/25/1  181/26/1  164/27/1  163/8/1 
f  181/25/1  182/26/1  165/27/1  164/8/1 
f  182/25/1  183/26/1  166/27/1  165/8/1 
f  183/25/1  184/26/1  167/27/1  166/8/1 
f  184/25/1  185/26/1  168/27/1  167/8/1 
f  185/25/1  186/26/1  169/27/1  168/8/1 
f  186/25/1  187/26/1  170/27/1  169/8/1 
f  188/25/1  189/26/1  172/27/1  171/8/1 
f  189/25/1  190/26/1  173/27/1  172/8/1 
f  190/25/1  191/26/1  174/27/1  173/8/1 
f  191/25/1  192/26/1  175/27/1  174/8/1 
f  192/25/1  193/26/1  176/27/1  175/8/1 
f  193/25/1  194/26/1  177/27/1  176/8/1 
f  194/25/1  195/26/1  178/27/1  177/8/1 
f  195/25/1  196/26/1  179/27/1  178/8/1 
f  196/25/1  197/26/1  180/27/1  179/8/1 
f  197/25/1  198/26/1  181/27/1  180/8/1 
f  198/25/1  199/26/1  182/27/1  181/8/1 
f  199/25/1  200/26/1  183/27/1  182/8/1 
f  200/25/1  201/26/1  184/27/1  183/8/1 
f  201/25/1  202/26/1  185/27/1  184/8/1 
f  202/25/1  203/26/1  186/27/1  185/8/1 
f  203/25/1  204/26/1  187/27/1  186/8/1 
f  205/25/1  206/26/1  189/27/1  188/8/1 
f  206/25/1  207/26/1  190/27/1  189/8/1 
f  207/25/1  208/26/1  191/27/1  190/8/1 
f  208/25/1  209/26/1  192/27/1  191/8/1 
f  209/25/1  210/26/1  193/27/1  192/8/1 
f  210/25/1  211/26/1  194/27/1  193/8/1 
f  211/25/1  212/26/1  195/27/1  194/8/1 
f  212/25/1  213/26/1  196/27/1  195/8/1 
f  213/25/1  214/26/1  197/27/1  196/8/1 
f  214/25/1  215/26/1  198/27/1  197/8/1 
f  215/25/1  216/26/1  199/27/1  198/8/1 
f  216/25/1  217/26/1  200/27/1  199/8/1 
f  217/25/1  218/26/1  201/27/1  200/8/1 
f  218/25/1  219/26/1  202/27/1  201/8/1 
f  219/25/1  220/26/1  203/27/1  202/8/1 
f  220/25/1  221/26/1  204/27/1  203/8/1 
f  222/25/1  223/26/1  206/27/1  205/8/1 
f  223/25/1  224/26/1  207/27/1  206/8/1 
f  224/25/1  225/26/1  208/27/1  207/8/1 
f  225/25/1  226/26/1  209/27/1  208/8/1 
f  226/25/1  227/26/1  210/27/1  209/8/1 
f  227/25/1  228/26/1  211/27/1  210/8/1 
f  228/25/1  229/26/1  212/27/1  211/8/1 
f  229/25/1  230/26/1  213/27/1  212/8/1 
f  230/25/1  231/26/1  214/27/1  213/8/1 
f  231/25/1  232/26/1  215/27/1  214/8/1 
f  232/25/1  233/26/1  216/27/1  215/8/1 
f  233/25/1  234/26/1  217/27/1  216/8/1 
f  234/25/1  235/26/1  218/27/1  217/8/1 
f  235/25/1  236/26/1  219/27/1  218/8/1 
f  236/25/1  237/26/1  220/27/1  219/8/1 
f  237/25/1  238/26/1  221/27/1  220/8/1 
