# Wavefront OBJ file automatically generated by Tiled2Unity

# Vertices (Count = 371)
v -4288 -320 0
v -4352 -320 0
v -4352 -256 0
v -4288 -256 0
v -4416 -320 0
v -4416 -256 0
v -4480 -320 0
v -4480 -256 0
v -4544 -320 0
v -4544 -256 0
v -4608 -320 0
v -4608 -256 0
v -4288 -384 0
v -4352 -384 0
v -4416 -384 0
v -4480 -384 0
v -4544 -384 0
v -4608 -384 0
v -4288 -448 0
v -4352 -448 0
v -4416 -448 0
v -4480 -448 0
v -4544 -448 0
v -4608 -448 0
v -4288 -512 0
v -4352 -512 0
v -4416 -512 0
v -4480 -512 0
v -4544 -512 0
v -4608 -512 0
v -4288 -576 0
v -4352 -576 0
v -4416 -576 0
v -4480 -576 0
v -4544 -576 0
v -4608 -576 0
v -4288 -640 0
v -4352 -640 0
v -4416 -640 0
v -4480 -640 0
v -4544 -640 0
v -4608 -640 0
v -4224 -704 0
v -4288 -704 0
v -4224 -640 0
v -4352 -704 0
v -4416 -704 0
v -4480 -704 0
v -4544 -704 0
v -4608 -704 0
v -4224 -768 0
v -4288 -768 0
v -4352 -768 0
v -4416 -768 0
v -4480 -768 0
v -4544 -768 0
v -4608 -768 0
v -4224 -832 0
v -4288 -832 0
v -4352 -832 0
v -4416 -832 0
v -4480 -832 0
v -4544 -832 0
v -4608 -832 0
v -4224 -896 0
v -4288 -896 0
v -4352 -896 0
v -4416 -896 0
v -4480 -896 0
v -4544 -896 0
v -4608 -896 0
v -4224 -960 0
v -4288 -960 0
v -4352 -960 0
v -4416 -960 0
v -4480 -960 0
v -4544 -960 0
v -4608 -960 0
v -4224 -1024 0
v -4288 -1024 0
v -4352 -1024 0
v -4416 -1024 0
v -4480 -1024 0
v -4544 -1024 0
v -4608 -1024 0
v -3904 -1088 0
v -3968 -1088 0
v -3968 -1024 0
v -3904 -1024 0
v -4032 -1088 0
v -4032 -1024 0
v -4096 -1088 0
v -4096 -1024 0
v -4160 -1088 0
v -4160 -1024 0
v -4224 -1088 0
v -4288 -1088 0
v -4352 -1088 0
v -4416 -1088 0
v -4480 -1088 0
v -4544 -1088 0
v -4608 -1088 0
v -3904 -1152 0
v -3968 -1152 0
v -4032 -1152 0
v -4096 -1152 0
v -4160 -1152 0
v -4224 -1152 0
v -4288 -1152 0
v -4352 -1152 0
v -4416 -1152 0
v -4480 -1152 0
v -4544 -1152 0
v -4608 -1152 0
v -3904 -1216 0
v -3968 -1216 0
v -4032 -1216 0
v -4096 -1216 0
v -4160 -1216 0
v -4224 -1216 0
v -4288 -1216 0
v -4352 -1216 0
v -4416 -1216 0
v -4480 -1216 0
v -4544 -1216 0
v -4608 -1216 0
v -3904 -1280 0
v -3968 -1280 0
v -4032 -1280 0
v -4096 -1280 0
v -4160 -1280 0
v -4224 -1280 0
v -4288 -1280 0
v -4352 -1280 0
v -4416 -1280 0
v -4480 -1280 0
v -4544 -1280 0
v -4608 -1280 0
v -4672 -1280 0
v -4672 -1216 0
v -3904 -1344 0
v -3968 -1344 0
v -4032 -1344 0
v -4096 -1344 0
v -4160 -1344 0
v -4224 -1344 0
v -4288 -1344 0
v -4352 -1344 0
v -4416 -1344 0
v -4480 -1344 0
v -4544 -1344 0
v -4608 -1344 0
v -4672 -1344 0
v -3904 -1408 0
v -3968 -1408 0
v -4032 -1408 0
v -4096 -1408 0
v -4160 -1408 0
v -4224 -1408 0
v -4288 -1408 0
v -4352 -1408 0
v -4416 -1408 0
v -4480 -1408 0
v -4544 -1408 0
v -4608 -1408 0
v -4672 -1408 0
v -4224 -128 0
v -4288 -128 0
v -4288 -64 0
v -4224 -64 0
v -4352 -128 0
v -4416 -128 0
v -4416 -64 0
v -4352 -64 0
v -4480 -128 0
v -4544 -128 0
v -4544 -64 0
v -4480 -64 0
v -4608 -128 0
v -4672 -128 0
v -4672 -64 0
v -4608 -64 0
v -4160 -192 0
v -4224 -192 0
v -4160 -128 0
v -4288 -192 0
v -4352 -192 0
v -4416 -192 0
v -4480 -192 0
v -4544 -192 0
v -4608 -192 0
v -4672 -192 0
v -4736 -192 0
v -4736 -128 0
v -4160 -256 0
v -4224 -256 0
v -4672 -256 0
v -4736 -256 0
v -4160 -320 0
v -4224 -320 0
v -4672 -320 0
v -4736 -320 0
v -4160 -384 0
v -4224 -384 0
v -4672 -384 0
v -4736 -384 0
v -4160 -448 0
v -4224 -448 0
v -4672 -448 0
v -4736 -448 0
v -4160 -512 0
v -4224 -512 0
v -4672 -512 0
v -4736 -512 0
v -4160 -576 0
v -4224 -576 0
v -4672 -576 0
v -4736 -576 0
v -4160 -640 0
v -4672 -640 0
v -4736 -640 0
v -4160 -704 0
v -4672 -704 0
v -4736 -704 0
v -4672 -768 0
v -4736 -768 0
v -4672 -832 0
v -4736 -832 0
v -4672 -896 0
v -4736 -896 0
v -3904 -960 0
v -3968 -960 0
v -3968 -896 0
v -3904 -896 0
v -4032 -960 0
v -4032 -896 0
v -4096 -960 0
v -4096 -896 0
v -4160 -960 0
v -4160 -896 0
v -4672 -960 0
v -4736 -960 0
v -4672 -1024 0
v -4736 -1024 0
v -4672 -1088 0
v -4736 -1088 0
v -4672 -1152 0
v -4736 -1152 0
v -4736 -1216 0
v -3904 -1472 0
v -3968 -1472 0
v -4032 -1472 0
v -4096 -1472 0
v -4160 -1472 0
v -4224 -1472 0
v -4288 -1472 0
v -4352 -1472 0
v -4416 -1472 0
v -4480 -1472 0
v -4544 -1472 0
v -4608 -1472 0
v -4672 -1472 0
v -4736 -1472 0
v -4736 -1408 0
v -4800 -1472 0
v -4800 -1408 0
v -3904 -1536 0
v -3968 -1536 0
v -4032 -1536 0
v -4096 -1536 0
v -4160 -1536 0
v -4224 -1536 0
v -4288 -1536 0
v -4352 -1536 0
v -4416 -1536 0
v -4480 -1536 0
v -4544 -1536 0
v -4608 -1536 0
v -4672 -1536 0
v -4736 -1536 0
v -4800 -1536 0
v -3904 -1600 0
v -3968 -1600 0
v -4032 -1600 0
v -4096 -1600 0
v -4160 -1600 0
v -4224 -1600 0
v -4288 -1600 0
v -4352 -1600 0
v -4416 -1600 0
v -4480 -1600 0
v -4544 -1600 0
v -4608 -1600 0
v -4672 -1600 0
v -4736 -1600 0
v -4800 -1600 0
v -3904 -1664 0
v -3968 -1664 0
v -4032 -1664 0
v -4096 -1664 0
v -4160 -1664 0
v -4224 -1664 0
v -4288 -1664 0
v -4352 -1664 0
v -4416 -1664 0
v -4480 -1664 0
v -4544 -1664 0
v -4608 -1664 0
v -4672 -1664 0
v -4736 -1664 0
v -4800 -1664 0
v -3904 -1728 0
v -3968 -1728 0
v -4032 -1728 0
v -4096 -1728 0
v -4160 -1728 0
v -4224 -1728 0
v -4288 -1728 0
v -4352 -1728 0
v -4416 -1728 0
v -4480 -1728 0
v -4544 -1728 0
v -4608 -1728 0
v -4672 -1728 0
v -4736 -1728 0
v -4800 -1728 0
v -3904 -1792 0
v -3968 -1792 0
v -4032 -1792 0
v -4096 -1792 0
v -4160 -1792 0
v -4224 -1792 0
v -4288 -1792 0
v -4352 -1792 0
v -4416 -1792 0
v -4480 -1792 0
v -4544 -1792 0
v -4608 -1792 0
v -4672 -1792 0
v -4736 -1792 0
v -4800 -1792 0
v -3904 -1856 0
v -3968 -1856 0
v -4032 -1856 0
v -4096 -1856 0
v -4160 -1856 0
v -4224 -1856 0
v -4288 -1856 0
v -4352 -1856 0
v -4416 -1856 0
v -4480 -1856 0
v -4544 -1856 0
v -4608 -1856 0
v -4672 -1856 0
v -4736 -1856 0
v -4800 -1856 0
v -3904 -1920 0
v -3968 -1920 0
v -4032 -1920 0
v -4096 -1920 0
v -4160 -1920 0
v -4224 -1920 0
v -4288 -1920 0
v -4352 -1920 0
v -4416 -1920 0
v -4480 -1920 0
v -4544 -1920 0
v -4608 -1920 0
v -4672 -1920 0
v -4736 -1920 0
v -4800 -1920 0

# Texture Coorindates (Count = 64)
vt 0.06262207 0.8126221
vt 0.1248779 0.8126221
vt 0.1248779 0.8748779
vt 0.06262207 0.8748779
vt 0.0001220703 0.8751221
vt 0.06237793 0.8751221
vt 0.06237793 0.9373779
vt 0.0001220703 0.9373779
vt 0.3751221 0.8751221
vt 0.4373779 0.8751221
vt 0.4373779 0.9373779
vt 0.3751221 0.9373779
vt 0.06262207 0.8751221
vt 0.1248779 0.8751221
vt 0.1248779 0.9373779
vt 0.06262207 0.9373779
vt 0.3126221 0.8751221
vt 0.3748779 0.8751221
vt 0.3748779 0.9373779
vt 0.3126221 0.9373779
vt 0.1876221 0.8751221
vt 0.2498779 0.8751221
vt 0.2498779 0.9373779
vt 0.1876221 0.9373779
vt 0.2501221 0.8751221
vt 0.3123779 0.8751221
vt 0.3123779 0.9373779
vt 0.2501221 0.9373779
vt 0.1251221 0.8751221
vt 0.1873779 0.8751221
vt 0.1873779 0.9373779
vt 0.1251221 0.9373779
vt 0.5001221 0.8751221
vt 0.5623779 0.8751221
vt 0.5623779 0.9373779
vt 0.5001221 0.9373779
vt 0.5626221 0.8751221
vt 0.6248779 0.8751221
vt 0.6248779 0.9373779
vt 0.5626221 0.9373779
vt 0.7501221 0.8751221
vt 0.8123779 0.8751221
vt 0.8123779 0.9373779
vt 0.7501221 0.9373779
vt 0.8126221 0.8751221
vt 0.8748779 0.8751221
vt 0.8748779 0.9373779
vt 0.8126221 0.9373779
vt 0.9376221 0.8751221
vt 0.9998779 0.8751221
vt 0.9998779 0.9373779
vt 0.9376221 0.9373779
vt 0.8751221 0.8751221
vt 0.9373779 0.8751221
vt 0.9373779 0.9373779
vt 0.8751221 0.9373779
vt 0.06262207 0.9376221
vt 0.1248779 0.9376221
vt 0.1248779 0.9998779
vt 0.06262207 0.9998779
vt 0.0001220703 0.9376221
vt 0.06237793 0.9376221
vt 0.06237793 0.9998779
vt 0.0001220703 0.9998779

# Normal
vn 0 0 -1

# Groups (Count = 2)
g mesh_[00]_[00]
f  1/1/1  2/2/1  3/3/1  4/4/1 
f  2/1/1  5/2/1  6/3/1  3/4/1 
f  5/1/1  7/2/1  8/3/1  6/4/1 
f  7/1/1  9/2/1  10/3/1  8/4/1 
f  9/1/1  11/2/1  12/3/1  10/4/1 
f  13/1/1  14/2/1  2/3/1  1/4/1 
f  14/1/1  15/2/1  5/3/1  2/4/1 
f  15/1/1  16/2/1  7/3/1  5/4/1 
f  16/1/1  17/2/1  9/3/1  7/4/1 
f  17/1/1  18/2/1  11/3/1  9/4/1 
f  19/1/1  20/2/1  14/3/1  13/4/1 
f  20/1/1  21/2/1  15/3/1  14/4/1 
f  21/1/1  22/2/1  16/3/1  15/4/1 
f  22/1/1  23/2/1  17/3/1  16/4/1 
f  23/1/1  24/2/1  18/3/1  17/4/1 
f  25/1/1  26/2/1  20/3/1  19/4/1 
f  26/1/1  27/2/1  21/3/1  20/4/1 
f  27/1/1  28/2/1  22/3/1  21/4/1 
f  28/1/1  29/2/1  23/3/1  22/4/1 
f  29/1/1  30/2/1  24/3/1  23/4/1 
f  31/1/1  32/2/1  26/3/1  25/4/1 
f  32/1/1  33/2/1  27/3/1  26/4/1 
f  33/1/1  34/2/1  28/3/1  27/4/1 
f  34/1/1  35/2/1  29/3/1  28/4/1 
f  35/1/1  36/2/1  30/3/1  29/4/1 
f  37/1/1  38/2/1  32/3/1  31/4/1 
f  38/1/1  39/2/1  33/3/1  32/4/1 
f  39/1/1  40/2/1  34/3/1  33/4/1 
f  40/1/1  41/2/1  35/3/1  34/4/1 
f  41/1/1  42/2/1  36/3/1  35/4/1 
f  43/1/1  44/2/1  37/3/1  45/4/1 
f  44/1/1  46/2/1  38/3/1  37/4/1 
f  46/1/1  47/2/1  39/3/1  38/4/1 
f  47/1/1  48/2/1  40/3/1  39/4/1 
f  48/1/1  49/2/1  41/3/1  40/4/1 
f  49/1/1  50/2/1  42/3/1  41/4/1 
f  51/1/1  52/2/1  44/3/1  43/4/1 
f  52/1/1  53/2/1  46/3/1  44/4/1 
f  53/1/1  54/2/1  47/3/1  46/4/1 
f  54/1/1  55/2/1  48/3/1  47/4/1 
f  55/1/1  56/2/1  49/3/1  48/4/1 
f  56/1/1  57/2/1  50/3/1  49/4/1 
f  58/1/1  59/2/1  52/3/1  51/4/1 
f  59/1/1  60/2/1  53/3/1  52/4/1 
f  60/1/1  61/2/1  54/3/1  53/4/1 
f  61/1/1  62/2/1  55/3/1  54/4/1 
f  62/1/1  63/2/1  56/3/1  55/4/1 
f  63/1/1  64/2/1  57/3/1  56/4/1 
f  65/1/1  66/2/1  59/3/1  58/4/1 
f  66/1/1  67/2/1  60/3/1  59/4/1 
f  67/1/1  68/2/1  61/3/1  60/4/1 
f  68/1/1  69/2/1  62/3/1  61/4/1 
f  69/1/1  70/2/1  63/3/1  62/4/1 
f  70/1/1  71/2/1  64/3/1  63/4/1 
f  72/1/1  73/2/1  66/3/1  65/4/1 
f  73/1/1  74/2/1  67/3/1  66/4/1 
f  74/1/1  75/2/1  68/3/1  67/4/1 
f  75/1/1  76/2/1  69/3/1  68/4/1 
f  76/1/1  77/2/1  70/3/1  69/4/1 
f  77/1/1  78/2/1  71/3/1  70/4/1 
f  79/1/1  80/2/1  73/3/1  72/4/1 
f  80/1/1  81/2/1  74/3/1  73/4/1 
f  81/1/1  82/2/1  75/3/1  74/4/1 
f  82/1/1  83/2/1  76/3/1  75/4/1 
f  83/1/1  84/2/1  77/3/1  76/4/1 
f  84/1/1  85/2/1  78/3/1  77/4/1 
f  86/1/1  87/2/1  88/3/1  89/4/1 
f  87/1/1  90/2/1  91/3/1  88/4/1 
f  90/1/1  92/2/1  93/3/1  91/4/1 
f  92/1/1  94/2/1  95/3/1  93/4/1 
f  94/1/1  96/2/1  79/3/1  95/4/1 
f  96/1/1  97/2/1  80/3/1  79/4/1 
f  97/1/1  98/2/1  81/3/1  80/4/1 
f  98/1/1  99/2/1  82/3/1  81/4/1 
f  99/1/1  100/2/1  83/3/1  82/4/1 
f  100/1/1  101/2/1  84/3/1  83/4/1 
f  101/1/1  102/2/1  85/3/1  84/4/1 
f  103/1/1  104/2/1  87/3/1  86/4/1 
f  104/1/1  105/2/1  90/3/1  87/4/1 
f  105/1/1  106/2/1  92/3/1  90/4/1 
f  106/1/1  107/2/1  94/3/1  92/4/1 
f  107/1/1  108/2/1  96/3/1  94/4/1 
f  108/1/1  109/2/1  97/3/1  96/4/1 
f  109/1/1  110/2/1  98/3/1  97/4/1 
f  110/1/1  111/2/1  99/3/1  98/4/1 
f  111/1/1  112/2/1  100/3/1  99/4/1 
f  112/1/1  113/2/1  101/3/1  100/4/1 
f  113/1/1  114/2/1  102/3/1  101/4/1 
f  115/1/1  116/2/1  104/3/1  103/4/1 
f  116/1/1  117/2/1  105/3/1  104/4/1 
f  117/1/1  118/2/1  106/3/1  105/4/1 
f  118/1/1  119/2/1  107/3/1  106/4/1 
f  119/1/1  120/2/1  108/3/1  107/4/1 
f  120/1/1  121/2/1  109/3/1  108/4/1 
f  121/1/1  122/2/1  110/3/1  109/4/1 
f  122/1/1  123/2/1  111/3/1  110/4/1 
f  123/1/1  124/2/1  112/3/1  111/4/1 
f  124/1/1  125/2/1  113/3/1  112/4/1 
f  125/1/1  126/2/1  114/3/1  113/4/1 
f  127/1/1  128/2/1  116/3/1  115/4/1 
f  128/1/1  129/2/1  117/3/1  116/4/1 
f  129/1/1  130/2/1  118/3/1  117/4/1 
f  130/1/1  131/2/1  119/3/1  118/4/1 
f  131/1/1  132/2/1  120/3/1  119/4/1 
f  132/1/1  133/2/1  121/3/1  120/4/1 
f  133/1/1  134/2/1  122/3/1  121/4/1 
f  134/1/1  135/2/1  123/3/1  122/4/1 
f  135/1/1  136/2/1  124/3/1  123/4/1 
f  136/1/1  137/2/1  125/3/1  124/4/1 
f  137/1/1  138/2/1  126/3/1  125/4/1 
f  138/1/1  139/2/1  140/3/1  126/4/1 
f  141/1/1  142/2/1  128/3/1  127/4/1 
f  142/1/1  143/2/1  129/3/1  128/4/1 
f  143/1/1  144/2/1  130/3/1  129/4/1 
f  144/1/1  145/2/1  131/3/1  130/4/1 
f  145/1/1  146/2/1  132/3/1  131/4/1 
f  146/1/1  147/2/1  133/3/1  132/4/1 
f  147/1/1  148/2/1  134/3/1  133/4/1 
f  148/1/1  149/2/1  135/3/1  134/4/1 
f  149/1/1  150/2/1  136/3/1  135/4/1 
f  150/1/1  151/2/1  137/3/1  136/4/1 
f  151/1/1  152/2/1  138/3/1  137/4/1 
f  152/1/1  153/2/1  139/3/1  138/4/1 
f  154/1/1  155/2/1  142/3/1  141/4/1 
f  155/1/1  156/2/1  143/3/1  142/4/1 
f  156/1/1  157/2/1  144/3/1  143/4/1 
f  157/1/1  158/2/1  145/3/1  144/4/1 
f  158/1/1  159/2/1  146/3/1  145/4/1 
f  159/1/1  160/2/1  147/3/1  146/4/1 
f  160/1/1  161/2/1  148/3/1  147/4/1 
f  161/1/1  162/2/1  149/3/1  148/4/1 
f  162/1/1  163/2/1  150/3/1  149/4/1 
f  163/1/1  164/2/1  151/3/1  150/4/1 
f  164/1/1  165/2/1  152/3/1  151/4/1 
f  165/1/1  166/2/1  153/3/1  152/4/1 
g mesh_[01]_[00]
f  167/5/1  168/6/1  169/7/1  170/8/1 
f  171/5/1  172/6/1  173/7/1  174/8/1 
f  175/5/1  176/6/1  177/7/1  178/8/1 
f  179/5/1  180/6/1  181/7/1  182/8/1 
f  183/9/1  184/10/1  167/11/1  185/12/1 
f  184/13/1  186/14/1  168/15/1  167/16/1 
f  186/5/1  187/6/1  171/7/1  168/8/1 
f  187/13/1  188/14/1  172/15/1  171/16/1 
f  188/5/1  189/6/1  175/7/1  172/8/1 
f  189/13/1  190/14/1  176/15/1  175/16/1 
f  190/5/1  191/6/1  179/7/1  176/8/1 
f  191/13/1  192/14/1  180/15/1  179/16/1 
f  192/17/1  193/18/1  194/19/1  180/20/1 
f  195/21/1  196/22/1  184/23/1  183/24/1 
f  196/13/1  4/14/1  186/15/1  184/16/1 
f  4/25/1  3/26/1  187/27/1  186/28/1 
f  3/25/1  6/26/1  188/27/1  187/28/1 
f  6/25/1  8/26/1  189/27/1  188/28/1 
f  8/25/1  10/26/1  190/27/1  189/28/1 
f  10/25/1  12/26/1  191/27/1  190/28/1 
f  12/13/1  197/14/1  192/15/1  191/16/1 
f  197/29/1  198/30/1  193/31/1  192/32/1 
f  199/21/1  200/22/1  196/23/1  195/24/1 
f  200/29/1  1/30/1  4/31/1  196/32/1 
f  11/21/1  201/22/1  197/23/1  12/24/1 
f  201/29/1  202/30/1  198/31/1  197/32/1 
f  203/21/1  204/22/1  200/23/1  199/24/1 
f  204/29/1  13/30/1  1/31/1  200/32/1 
f  18/21/1  205/22/1  201/23/1  11/24/1 
f  205/29/1  206/30/1  202/31/1  201/32/1 
f  207/21/1  208/22/1  204/23/1  203/24/1 
f  208/29/1  19/30/1  13/31/1  204/32/1 
f  23/33/1  24/34/1  18/35/1  17/36/1 
f  24/21/1  209/22/1  205/23/1  18/24/1 
f  209/29/1  210/30/1  206/31/1  205/32/1 
f  211/21/1  212/22/1  208/23/1  207/24/1 
f  212/29/1  25/30/1  19/31/1  208/32/1 
f  30/21/1  213/22/1  209/23/1  24/24/1 
f  213/29/1  214/30/1  210/31/1  209/32/1 
f  215/21/1  216/22/1  212/23/1  211/24/1 
f  216/29/1  31/30/1  25/31/1  212/32/1 
f  36/21/1  217/22/1  213/23/1  30/24/1 
f  217/29/1  218/30/1  214/31/1  213/32/1 
f  219/21/1  45/22/1  216/23/1  215/24/1 
f  45/29/1  37/30/1  31/31/1  216/32/1 
f  37/37/1  38/38/1  32/39/1  31/40/1 
f  42/21/1  220/22/1  217/23/1  36/24/1 
f  220/29/1  221/30/1  218/31/1  217/32/1 
f  222/41/1  43/42/1  45/43/1  219/44/1 
f  43/45/1  44/46/1  37/47/1  45/48/1 
f  50/21/1  223/22/1  220/23/1  42/24/1 
f  223/29/1  224/30/1  221/31/1  220/32/1 
f  57/21/1  225/22/1  223/23/1  50/24/1 
f  225/29/1  226/30/1  224/31/1  223/32/1 
f  63/33/1  64/34/1  57/35/1  56/36/1 
f  64/21/1  227/22/1  225/23/1  57/24/1 
f  227/29/1  228/30/1  226/31/1  225/32/1 
f  71/21/1  229/22/1  227/23/1  64/24/1 
f  229/29/1  230/30/1  228/31/1  227/32/1 
f  231/5/1  232/6/1  233/7/1  234/8/1 
f  232/5/1  235/6/1  236/7/1  233/8/1 
f  235/5/1  237/6/1  238/7/1  236/8/1 
f  237/5/1  239/6/1  240/7/1  238/8/1 
f  239/5/1  72/6/1  65/7/1  240/8/1 
f  72/49/1  73/50/1  66/51/1  65/52/1 
f  78/21/1  241/22/1  229/23/1  71/24/1 
f  241/29/1  242/30/1  230/31/1  229/32/1 
f  89/25/1  88/26/1  232/27/1  231/28/1 
f  88/25/1  91/26/1  235/27/1  232/28/1 
f  91/25/1  93/26/1  237/27/1  235/28/1 
f  93/25/1  95/26/1  239/27/1  237/28/1 
f  95/25/1  79/26/1  72/27/1  239/28/1 
f  79/45/1  80/46/1  73/47/1  72/48/1 
f  80/37/1  81/38/1  74/39/1  73/40/1 
f  85/21/1  243/22/1  241/23/1  78/24/1 
f  243/29/1  244/30/1  242/31/1  241/32/1 
f  102/21/1  245/22/1  243/23/1  85/24/1 
f  245/29/1  246/30/1  244/31/1  243/32/1 
f  114/21/1  247/22/1  245/23/1  102/24/1 
f  247/29/1  248/30/1  246/31/1  245/32/1 
f  125/33/1  126/34/1  114/35/1  113/36/1 
f  126/41/1  140/42/1  247/43/1  114/44/1 
f  140/45/1  249/46/1  248/47/1  247/48/1 
f  157/53/1  158/54/1  145/55/1  144/56/1 
f  158/5/1  159/6/1  146/7/1  145/8/1 
f  159/49/1  160/50/1  147/51/1  146/52/1 
f  250/5/1  251/6/1  155/7/1  154/8/1 
f  251/5/1  252/6/1  156/7/1  155/8/1 
f  252/5/1  253/6/1  157/7/1  156/8/1 
f  253/13/1  254/14/1  158/15/1  157/16/1 
f  254/13/1  255/14/1  159/15/1  158/16/1 
f  255/13/1  256/14/1  160/15/1  159/16/1 
f  256/5/1  257/6/1  161/7/1  160/8/1 
f  257/5/1  258/6/1  162/7/1  161/8/1 
f  258/5/1  259/6/1  163/7/1  162/8/1 
f  259/5/1  260/6/1  164/7/1  163/8/1 
f  260/5/1  261/6/1  165/7/1  164/8/1 
f  261/5/1  262/6/1  166/7/1  165/8/1 
f  262/5/1  263/6/1  264/7/1  166/8/1 
f  263/17/1  265/18/1  266/19/1  264/20/1 
f  267/57/1  268/58/1  251/59/1  250/60/1 
f  268/57/1  269/58/1  252/59/1  251/60/1 
f  269/57/1  270/58/1  253/59/1  252/60/1 
f  270/57/1  271/58/1  254/59/1  253/60/1 
f  271/57/1  272/58/1  255/59/1  254/60/1 
f  272/57/1  273/58/1  256/59/1  255/60/1 
f  273/57/1  274/58/1  257/59/1  256/60/1 
f  274/57/1  275/58/1  258/59/1  257/60/1 
f  275/57/1  276/58/1  259/59/1  258/60/1 
f  276/57/1  277/58/1  260/59/1  259/60/1 
f  277/57/1  278/58/1  261/59/1  260/60/1 
f  278/57/1  279/58/1  262/59/1  261/60/1 
f  279/57/1  280/58/1  263/59/1  262/60/1 
f  280/57/1  281/58/1  265/59/1  263/60/1 
f  282/61/1  283/62/1  268/63/1  267/64/1 
f  283/61/1  284/62/1  269/63/1  268/64/1 
f  284/61/1  285/62/1  270/63/1  269/64/1 
f  285/61/1  286/62/1  271/63/1  270/64/1 
f  286/61/1  287/62/1  272/63/1  271/64/1 
f  287/61/1  288/62/1  273/63/1  272/64/1 
f  288/61/1  289/62/1  274/63/1  273/64/1 
f  289/61/1  290/62/1  275/63/1  274/64/1 
f  290/61/1  291/62/1  276/63/1  275/64/1 
f  291/61/1  292/62/1  277/63/1  276/64/1 
f  292/61/1  293/62/1  278/63/1  277/64/1 
f  293/61/1  294/62/1  279/63/1  278/64/1 
f  294/61/1  295/62/1  280/63/1  279/64/1 
f  295/61/1  296/62/1  281/63/1  280/64/1 
f  297/61/1  298/62/1  283/63/1  282/64/1 
f  298/61/1  299/62/1  284/63/1  283/64/1 
f  299/61/1  300/62/1  285/63/1  284/64/1 
f  300/61/1  301/62/1  286/63/1  285/64/1 
f  301/61/1  302/62/1  287/63/1  286/64/1 
f  302/61/1  303/62/1  288/63/1  287/64/1 
f  303/61/1  304/62/1  289/63/1  288/64/1 
f  304/61/1  305/62/1  290/63/1  289/64/1 
f  305/61/1  306/62/1  291/63/1  290/64/1 
f  306/61/1  307/62/1  292/63/1  291/64/1 
f  307/61/1  308/62/1  293/63/1  292/64/1 
f  308/61/1  309/62/1  294/63/1  293/64/1 
f  309/61/1  310/62/1  295/63/1  294/64/1 
f  310/61/1  311/62/1  296/63/1  295/64/1 
f  312/61/1  313/62/1  298/63/1  297/64/1 
f  313/61/1  314/62/1  299/63/1  298/64/1 
f  314/61/1  315/62/1  300/63/1  299/64/1 
f  315/61/1  316/62/1  301/63/1  300/64/1 
f  316/61/1  317/62/1  302/63/1  301/64/1 
f  317/61/1  318/62/1  303/63/1  302/64/1 
f  318/61/1  319/62/1  304/63/1  303/64/1 
f  319/61/1  320/62/1  305/63/1  304/64/1 
f  320/61/1  321/62/1  306/63/1  305/64/1 
f  321/61/1  322/62/1  307/63/1  306/64/1 
f  322/61/1  323/62/1  308/63/1  307/64/1 
f  323/61/1  324/62/1  309/63/1  308/64/1 
f  324/61/1  325/62/1  310/63/1  309/64/1 
f  325/61/1  326/62/1  311/63/1  310/64/1 
f  327/61/1  328/62/1  313/63/1  312/64/1 
f  328/61/1  329/62/1  314/63/1  313/64/1 
f  329/61/1  330/62/1  315/63/1  314/64/1 
f  330/61/1  331/62/1  316/63/1  315/64/1 
f  331/61/1  332/62/1  317/63/1  316/64/1 
f  332/61/1  333/62/1  318/63/1  317/64/1 
f  333/61/1  334/62/1  319/63/1  318/64/1 
f  334/61/1  335/62/1  320/63/1  319/64/1 
f  335/61/1  336/62/1  321/63/1  320/64/1 
f  336/61/1  337/62/1  322/63/1  321/64/1 
f  337/61/1  338/62/1  323/63/1  322/64/1 
f  338/61/1  339/62/1  324/63/1  323/64/1 
f  339/61/1  340/62/1  325/63/1  324/64/1 
f  340/61/1  341/62/1  326/63/1  325/64/1 
f  342/61/1  343/62/1  328/63/1  327/64/1 
f  343/61/1  344/62/1  329/63/1  328/64/1 
f  344/61/1  345/62/1  330/63/1  329/64/1 
f  345/61/1  346/62/1  331/63/1  330/64/1 
f  346/61/1  347/62/1  332/63/1  331/64/1 
f  347/61/1  348/62/1  333/63/1  332/64/1 
f  348/61/1  349/62/1  334/63/1  333/64/1 
f  349/61/1  350/62/1  335/63/1  334/64/1 
f  350/61/1  351/62/1  336/63/1  335/64/1 
f  351/61/1  352/62/1  337/63/1  336/64/1 
f  352/61/1  353/62/1  338/63/1  337/64/1 
f  353/61/1  354/62/1  339/63/1  338/64/1 
f  354/61/1  355/62/1  340/63/1  339/64/1 
f  355/61/1  356/62/1  341/63/1  340/64/1 
f  357/61/1  358/62/1  343/63/1  342/64/1 
f  358/61/1  359/62/1  344/63/1  343/64/1 
f  359/61/1  360/62/1  345/63/1  344/64/1 
f  360/61/1  361/62/1  346/63/1  345/64/1 
f  361/61/1  362/62/1  347/63/1  346/64/1 
f  362/61/1  363/62/1  348/63/1  347/64/1 
f  363/61/1  364/62/1  349/63/1  348/64/1 
f  364/61/1  365/62/1  350/63/1  349/64/1 
f  365/61/1  366/62/1  351/63/1  350/64/1 
f  366/61/1  367/62/1  352/63/1  351/64/1 
f  367/61/1  368/62/1  353/63/1  352/64/1 
f  368/61/1  369/62/1  354/63/1  353/64/1 
f  369/61/1  370/62/1  355/63/1  354/64/1 
f  370/61/1  371/62/1  356/63/1  355/64/1 
