# Wavefront OBJ file automatically generated by Tiled2Unity

# Vertices (Count = 200)
v -320 -1408 0
v -384 -1408 0
v -384 -1344 0
v -320 -1344 0
v -1408 -1408 0
v -1472 -1408 0
v -1472 -1344 0
v -1408 -1344 0
v -384 -1536 0
v -448 -1536 0
v -448 -1472 0
v -384 -1472 0
v -512 -1536 0
v -512 -1472 0
v -576 -1536 0
v -576 -1472 0
v -640 -1536 0
v -640 -1472 0
v -704 -1536 0
v -704 -1472 0
v -768 -1536 0
v -768 -1472 0
v -832 -1536 0
v -832 -1472 0
v -896 -1536 0
v -896 -1472 0
v -960 -1536 0
v -960 -1472 0
v -1024 -1536 0
v -1024 -1472 0
v -1088 -1536 0
v -1088 -1472 0
v -1152 -1536 0
v -1152 -1472 0
v -1216 -1536 0
v -1216 -1472 0
v -1280 -1536 0
v -1280 -1472 0
v -1344 -1536 0
v -1344 -1472 0
v -1408 -1536 0
v -1408 -1472 0
v -320 -1472 0
v -448 -1408 0
v -1344 -1408 0
v -1472 -1472 0
v -320 -1536 0
v -1472 -1536 0
v -320 -1600 0
v -384 -1600 0
v -448 -1600 0
v -512 -1600 0
v -576 -1600 0
v -640 -1600 0
v -704 -1600 0
v -768 -1600 0
v -832 -1600 0
v -896 -1600 0
v -960 -1600 0
v -1024 -1600 0
v -1088 -1600 0
v -1152 -1600 0
v -1216 -1600 0
v -1280 -1600 0
v -1344 -1600 0
v -1408 -1600 0
v -1472 -1600 0
v -320 -1664 0
v -384 -1664 0
v -448 -1664 0
v -512 -1664 0
v -576 -1664 0
v -640 -1664 0
v -704 -1664 0
v -768 -1664 0
v -832 -1664 0
v -896 -1664 0
v -960 -1664 0
v -1024 -1664 0
v -1088 -1664 0
v -1152 -1664 0
v -1216 -1664 0
v -1280 -1664 0
v -1344 -1664 0
v -1408 -1664 0
v -1472 -1664 0
v -320 -1728 0
v -384 -1728 0
v -448 -1728 0
v -512 -1728 0
v -576 -1728 0
v -640 -1728 0
v -704 -1728 0
v -768 -1728 0
v -832 -1728 0
v -896 -1728 0
v -960 -1728 0
v -1024 -1728 0
v -1088 -1728 0
v -1152 -1728 0
v -1216 -1728 0
v -1280 -1728 0
v -1344 -1728 0
v -1408 -1728 0
v -1472 -1728 0
v -320 -1792 0
v -384 -1792 0
v -448 -1792 0
v -512 -1792 0
v -576 -1792 0
v -640 -1792 0
v -704 -1792 0
v -768 -1792 0
v -832 -1792 0
v -896 -1792 0
v -960 -1792 0
v -1024 -1792 0
v -1088 -1792 0
v -1152 -1792 0
v -1216 -1792 0
v -1280 -1792 0
v -1344 -1792 0
v -1408 -1792 0
v -1472 -1792 0
v -320 -1856 0
v -384 -1856 0
v -448 -1856 0
v -512 -1856 0
v -576 -1856 0
v -640 -1856 0
v -704 -1856 0
v -768 -1856 0
v -832 -1856 0
v -896 -1856 0
v -960 -1856 0
v -1024 -1856 0
v -1088 -1856 0
v -1152 -1856 0
v -1216 -1856 0
v -1280 -1856 0
v -1344 -1856 0
v -1408 -1856 0
v -1472 -1856 0
v -320 -1920 0
v -384 -1920 0
v -448 -1920 0
v -512 -1920 0
v -576 -1920 0
v -640 -1920 0
v -704 -1920 0
v -768 -1920 0
v -832 -1920 0
v -896 -1920 0
v -960 -1920 0
v -1024 -1920 0
v -1088 -1920 0
v -1152 -1920 0
v -1216 -1920 0
v -1280 -1920 0
v -1344 -1920 0
v -1408 -1920 0
v -1472 -1920 0
v -320 -1984 0
v -384 -1984 0
v -448 -1984 0
v -512 -1984 0
v -576 -1984 0
v -640 -1984 0
v -704 -1984 0
v -768 -1984 0
v -832 -1984 0
v -896 -1984 0
v -960 -1984 0
v -1024 -1984 0
v -1088 -1984 0
v -1152 -1984 0
v -1216 -1984 0
v -1280 -1984 0
v -1344 -1984 0
v -1408 -1984 0
v -1472 -1984 0
v -320 -2048 0
v -384 -2048 0
v -448 -2048 0
v -512 -2048 0
v -576 -2048 0
v -640 -2048 0
v -704 -2048 0
v -768 -2048 0
v -832 -2048 0
v -896 -2048 0
v -960 -2048 0
v -1024 -2048 0
v -1088 -2048 0
v -1152 -2048 0
v -1216 -2048 0
v -1280 -2048 0
v -1344 -2048 0
v -1408 -2048 0
v -1472 -2048 0

# Texture Coorindates (Count = 36)
vt 0.1251221 0.8126221
vt 0.1873779 0.8126221
vt 0.1873779 0.8748779
vt 0.1251221 0.8748779
vt 0.2501221 0.8126221
vt 0.3123779 0.8126221
vt 0.3123779 0.8748779
vt 0.2501221 0.8748779
vt 0.1876221 0.8126221
vt 0.2498779 0.8126221
vt 0.2498779 0.8748779
vt 0.1876221 0.8748779
vt 0.06262207 0.9376221
vt 0.1248779 0.9376221
vt 0.1248779 0.9998779
vt 0.06262207 0.9998779
vt 0.3126221 0.9376221
vt 0.3748779 0.9376221
vt 0.3748779 0.9998779
vt 0.3126221 0.9998779
vt 0.3751221 0.9376221
vt 0.4373779 0.9376221
vt 0.4373779 0.9998779
vt 0.3751221 0.9998779
vt 0.0001220703 0.9376221
vt 0.06237793 0.9376221
vt 0.06237793 0.9998779
vt 0.0001220703 0.9998779
vt 0.7501221 0.9376221
vt 0.8123779 0.9376221
vt 0.8123779 0.9998779
vt 0.7501221 0.9998779
vt 0.8126221 0.9376221
vt 0.8748779 0.9376221
vt 0.8748779 0.9998779
vt 0.8126221 0.9998779

# Normal
vn 0 0 -1

# Groups (Count = 2)
g mesh_[00]_[00]
f  1/1/1  2/2/1  3/3/1  4/4/1 
f  5/5/1  6/6/1  7/7/1  8/8/1 
f  9/5/1  10/6/1  11/7/1  12/8/1 
f  10/1/1  13/2/1  14/3/1  11/4/1 
f  13/5/1  15/6/1  16/7/1  14/8/1 
f  15/5/1  17/6/1  18/7/1  16/8/1 
f  17/5/1  19/6/1  20/7/1  18/8/1 
f  19/9/1  21/10/1  22/11/1  20/12/1 
f  21/9/1  23/10/1  24/11/1  22/12/1 
f  23/1/1  25/2/1  26/3/1  24/4/1 
f  25/1/1  27/2/1  28/3/1  26/4/1 
f  27/1/1  29/2/1  30/3/1  28/4/1 
f  29/1/1  31/2/1  32/3/1  30/4/1 
f  31/9/1  33/10/1  34/11/1  32/12/1 
f  33/9/1  35/10/1  36/11/1  34/12/1 
f  35/1/1  37/2/1  38/3/1  36/4/1 
f  37/1/1  39/2/1  40/3/1  38/4/1 
f  39/5/1  41/6/1  42/7/1  40/8/1 
g mesh_[01]_[00]
f  43/13/1  12/14/1  2/15/1  1/16/1 
f  12/17/1  11/18/1  44/19/1  2/20/1 
f  40/21/1  42/22/1  5/23/1  45/24/1 
f  42/13/1  46/14/1  6/15/1  5/16/1 
f  47/25/1  9/26/1  12/27/1  43/28/1 
f  9/29/1  10/30/1  11/31/1  12/32/1 
f  10/17/1  13/18/1  14/19/1  11/20/1 
f  37/21/1  39/22/1  40/23/1  38/24/1 
f  39/33/1  41/34/1  42/35/1  40/36/1 
f  41/25/1  48/26/1  46/27/1  42/28/1 
f  49/25/1  50/26/1  9/27/1  47/28/1 
f  50/25/1  51/26/1  10/27/1  9/28/1 
f  51/29/1  52/30/1  13/31/1  10/32/1 
f  52/13/1  53/14/1  15/15/1  13/16/1 
f  53/13/1  54/14/1  17/15/1  15/16/1 
f  54/13/1  55/14/1  19/15/1  17/16/1 
f  55/13/1  56/14/1  21/15/1  19/16/1 
f  56/13/1  57/14/1  23/15/1  21/16/1 
f  57/13/1  58/14/1  25/15/1  23/16/1 
f  58/13/1  59/14/1  27/15/1  25/16/1 
f  59/13/1  60/14/1  29/15/1  27/16/1 
f  60/13/1  61/14/1  31/15/1  29/16/1 
f  61/13/1  62/14/1  33/15/1  31/16/1 
f  62/13/1  63/14/1  35/15/1  33/16/1 
f  63/13/1  64/14/1  37/15/1  35/16/1 
f  64/33/1  65/34/1  39/35/1  37/36/1 
f  65/25/1  66/26/1  41/27/1  39/28/1 
f  66/25/1  67/26/1  48/27/1  41/28/1 
f  68/25/1  69/26/1  50/27/1  49/28/1 
f  69/25/1  70/26/1  51/27/1  50/28/1 
f  70/25/1  71/26/1  52/27/1  51/28/1 
f  71/25/1  72/26/1  53/27/1  52/28/1 
f  72/25/1  73/26/1  54/27/1  53/28/1 
f  73/25/1  74/26/1  55/27/1  54/28/1 
f  74/25/1  75/26/1  56/27/1  55/28/1 
f  75/25/1  76/26/1  57/27/1  56/28/1 
f  76/25/1  77/26/1  58/27/1  57/28/1 
f  77/25/1  78/26/1  59/27/1  58/28/1 
f  78/25/1  79/26/1  60/27/1  59/28/1 
f  79/25/1  80/26/1  61/27/1  60/28/1 
f  80/25/1  81/26/1  62/27/1  61/28/1 
f  81/25/1  82/26/1  63/27/1  62/28/1 
f  82/25/1  83/26/1  64/27/1  63/28/1 
f  83/25/1  84/26/1  65/27/1  64/28/1 
f  84/25/1  85/26/1  66/27/1  65/28/1 
f  85/25/1  86/26/1  67/27/1  66/28/1 
f  87/25/1  88/26/1  69/27/1  68/28/1 
f  88/25/1  89/26/1  70/27/1  69/28/1 
f  89/25/1  90/26/1  71/27/1  70/28/1 
f  90/25/1  91/26/1  72/27/1  71/28/1 
f  91/25/1  92/26/1  73/27/1  72/28/1 
f  92/25/1  93/26/1  74/27/1  73/28/1 
f  93/25/1  94/26/1  75/27/1  74/28/1 
f  94/25/1  95/26/1  76/27/1  75/28/1 
f  95/25/1  96/26/1  77/27/1  76/28/1 
f  96/25/1  97/26/1  78/27/1  77/28/1 
f  97/25/1  98/26/1  79/27/1  78/28/1 
f  98/25/1  99/26/1  80/27/1  79/28/1 
f  99/25/1  100/26/1  81/27/1  80/28/1 
f  100/25/1  101/26/1  82/27/1  81/28/1 
f  101/25/1  102/26/1  83/27/1  82/28/1 
f  102/25/1  103/26/1  84/27/1  83/28/1 
f  103/25/1  104/26/1  85/27/1  84/28/1 
f  104/25/1  105/26/1  86/27/1  85/28/1 
f  106/25/1  107/26/1  88/27/1  87/28/1 
f  107/25/1  108/26/1  89/27/1  88/28/1 
f  108/25/1  109/26/1  90/27/1  89/28/1 
f  109/25/1  110/26/1  91/27/1  90/28/1 
f  110/25/1  111/26/1  92/27/1  91/28/1 
f  111/25/1  112/26/1  93/27/1  92/28/1 
f  112/25/1  113/26/1  94/27/1  93/28/1 
f  113/25/1  114/26/1  95/27/1  94/28/1 
f  114/25/1  115/26/1  96/27/1  95/28/1 
f  115/25/1  116/26/1  97/27/1  96/28/1 
f  116/25/1  117/26/1  98/27/1  97/28/1 
f  117/25/1  118/26/1  99/27/1  98/28/1 
f  118/25/1  119/26/1  100/27/1  99/28/1 
f  119/25/1  120/26/1  101/27/1  100/28/1 
f  120/25/1  121/26/1  102/27/1  101/28/1 
f  121/25/1  122/26/1  103/27/1  102/28/1 
f  122/25/1  123/26/1  104/27/1  103/28/1 
f  123/25/1  124/26/1  105/27/1  104/28/1 
f  125/25/1  126/26/1  107/27/1  106/28/1 
f  126/25/1  127/26/1  108/27/1  107/28/1 
f  127/25/1  128/26/1  109/27/1  108/28/1 
f  128/25/1  129/26/1  110/27/1  109/28/1 
f  129/25/1  130/26/1  111/27/1  110/28/1 
f  130/25/1  131/26/1  112/27/1  111/28/1 
f  131/25/1  132/26/1  113/27/1  112/28/1 
f  132/25/1  133/26/1  114/27/1  113/28/1 
f  133/25/1  134/26/1  115/27/1  114/28/1 
f  134/25/1  135/26/1  116/27/1  115/28/1 
f  135/25/1  136/26/1  117/27/1  116/28/1 
f  136/25/1  137/26/1  118/27/1  117/28/1 
f  137/25/1  138/26/1  119/27/1  118/28/1 
f  138/25/1  139/26/1  120/27/1  119/28/1 
f  139/25/1  140/26/1  121/27/1  120/28/1 
f  140/25/1  141/26/1  122/27/1  121/28/1 
f  141/25/1  142/26/1  123/27/1  122/28/1 
f  142/25/1  143/26/1  124/27/1  123/28/1 
f  144/25/1  145/26/1  126/27/1  125/28/1 
f  145/25/1  146/26/1  127/27/1  126/28/1 
f  146/25/1  147/26/1  128/27/1  127/28/1 
f  147/25/1  148/26/1  129/27/1  128/28/1 
f  148/25/1  149/26/1  130/27/1  129/28/1 
f  149/25/1  150/26/1  131/27/1  130/28/1 
f  150/25/1  151/26/1  132/27/1  131/28/1 
f  151/25/1  152/26/1  133/27/1  132/28/1 
f  152/25/1  153/26/1  134/27/1  133/28/1 
f  153/25/1  154/26/1  135/27/1  134/28/1 
f  154/25/1  155/26/1  136/27/1  135/28/1 
f  155/25/1  156/26/1  137/27/1  136/28/1 
f  156/25/1  157/26/1  138/27/1  137/28/1 
f  157/25/1  158/26/1  139/27/1  138/28/1 
f  158/25/1  159/26/1  140/27/1  139/28/1 
f  159/25/1  160/26/1  141/27/1  140/28/1 
f  160/25/1  161/26/1  142/27/1  141/28/1 
f  161/25/1  162/26/1  143/27/1  142/28/1 
f  163/25/1  164/26/1  145/27/1  144/28/1 
f  164/25/1  165/26/1  146/27/1  145/28/1 
f  165/25/1  166/26/1  147/27/1  146/28/1 
f  166/25/1  167/26/1  148/27/1  147/28/1 
f  167/25/1  168/26/1  149/27/1  148/28/1 
f  168/25/1  169/26/1  150/27/1  149/28/1 
f  169/25/1  170/26/1  151/27/1  150/28/1 
f  170/25/1  171/26/1  152/27/1  151/28/1 
f  171/25/1  172/26/1  153/27/1  152/28/1 
f  172/25/1  173/26/1  154/27/1  153/28/1 
f  173/25/1  174/26/1  155/27/1  154/28/1 
f  174/25/1  175/26/1  156/27/1  155/28/1 
f  175/25/1  176/26/1  157/27/1  156/28/1 
f  176/25/1  177/26/1  158/27/1  157/28/1 
f  177/25/1  178/26/1  159/27/1  158/28/1 
f  178/25/1  179/26/1  160/27/1  159/28/1 
f  179/25/1  180/26/1  161/27/1  160/28/1 
f  180/25/1  181/26/1  162/27/1  161/28/1 
f  182/25/1  183/26/1  164/27/1  163/28/1 
f  183/25/1  184/26/1  165/27/1  164/28/1 
f  184/25/1  185/26/1  166/27/1  165/28/1 
f  185/25/1  186/26/1  167/27/1  166/28/1 
f  186/25/1  187/26/1  168/27/1  167/28/1 
f  187/25/1  188/26/1  169/27/1  168/28/1 
f  188/25/1  189/26/1  170/27/1  169/28/1 
f  189/25/1  190/26/1  171/27/1  170/28/1 
f  190/25/1  191/26/1  172/27/1  171/28/1 
f  191/25/1  192/26/1  173/27/1  172/28/1 
f  192/25/1  193/26/1  174/27/1  173/28/1 
f  193/25/1  194/26/1  175/27/1  174/28/1 
f  194/25/1  195/26/1  176/27/1  175/28/1 
f  195/25/1  196/26/1  177/27/1  176/28/1 
f  196/25/1  197/26/1  178/27/1  177/28/1 
f  197/25/1  198/26/1  179/27/1  178/28/1 
f  198/25/1  199/26/1  180/27/1  179/28/1 
f  199/25/1  200/26/1  181/27/1  180/28/1 
