# Wavefront OBJ file automatically generated by Tiled2Unity

# Vertices (Count = 198)
v -1600 -1408 0
v -1664 -1408 0
v -1664 -1344 0
v -1600 -1344 0
v -1728 -1408 0
v -1728 -1344 0
v -1792 -1408 0
v -1792 -1344 0
v -1856 -1408 0
v -1856 -1344 0
v -1920 -1408 0
v -1920 -1344 0
v -1984 -1408 0
v -1984 -1344 0
v -2304 -1408 0
v -2368 -1408 0
v -2368 -1344 0
v -2304 -1344 0
v -2432 -1408 0
v -2432 -1344 0
v -2496 -1408 0
v -2496 -1344 0
v -2560 -1408 0
v -2560 -1344 0
v -2624 -1408 0
v -2624 -1344 0
v -2048 -1536 0
v -2112 -1536 0
v -2112 -1472 0
v -2048 -1472 0
v -2176 -1536 0
v -2176 -1472 0
v -2240 -1536 0
v -2240 -1472 0
v -2304 -1536 0
v -2304 -1472 0
v -1984 -1600 0
v -2048 -1600 0
v -1984 -1536 0
v -2112 -1600 0
v -2176 -1600 0
v -2240 -1600 0
v -1984 -1664 0
v -2048 -1664 0
v -2112 -1664 0
v -2176 -1664 0
v -2240 -1664 0
v -2304 -1664 0
v -2304 -1600 0
v -2048 -1728 0
v -2112 -1728 0
v -2176 -1728 0
v -2240 -1728 0
v -2304 -1728 0
v -2048 -1792 0
v -2112 -1792 0
v -2176 -1792 0
v -2240 -1792 0
v -2048 -1856 0
v -2112 -1856 0
v -2176 -1856 0
v -2240 -1856 0
v -2048 -1920 0
v -2112 -1920 0
v -2176 -1920 0
v -2240 -1920 0
v -2048 -1984 0
v -2112 -1984 0
v -2176 -1984 0
v -2240 -1984 0
v -2048 -2048 0
v -2112 -2048 0
v -2176 -2048 0
v -2240 -2048 0
v -1600 -1472 0
v -1664 -1472 0
v -1728 -1472 0
v -1792 -1472 0
v -1856 -1472 0
v -1920 -1472 0
v -1984 -1472 0
v -2048 -1408 0
v -2240 -1408 0
v -2368 -1472 0
v -2432 -1472 0
v -2496 -1472 0
v -2560 -1472 0
v -2624 -1472 0
v -1600 -1536 0
v -1664 -1536 0
v -1728 -1536 0
v -1792 -1536 0
v -1856 -1536 0
v -1920 -1536 0
v -2368 -1536 0
v -2432 -1536 0
v -2496 -1536 0
v -2560 -1536 0
v -2624 -1536 0
v -1600 -1600 0
v -1664 -1600 0
v -1728 -1600 0
v -1792 -1600 0
v -1856 -1600 0
v -1920 -1600 0
v -2368 -1600 0
v -2432 -1600 0
v -2496 -1600 0
v -2560 -1600 0
v -2624 -1600 0
v -1600 -1664 0
v -1664 -1664 0
v -1728 -1664 0
v -1792 -1664 0
v -1856 -1664 0
v -1920 -1664 0
v -2368 -1664 0
v -2432 -1664 0
v -2496 -1664 0
v -2560 -1664 0
v -2624 -1664 0
v -1600 -1728 0
v -1664 -1728 0
v -1728 -1728 0
v -1792 -1728 0
v -1856 -1728 0
v -1920 -1728 0
v -1984 -1728 0
v -2368 -1728 0
v -2432 -1728 0
v -2496 -1728 0
v -2560 -1728 0
v -2624 -1728 0
v -1600 -1792 0
v -1664 -1792 0
v -1728 -1792 0
v -1792 -1792 0
v -1856 -1792 0
v -1920 -1792 0
v -1984 -1792 0
v -2304 -1792 0
v -2368 -1792 0
v -2432 -1792 0
v -2496 -1792 0
v -2560 -1792 0
v -2624 -1792 0
v -1600 -1856 0
v -1664 -1856 0
v -1728 -1856 0
v -1792 -1856 0
v -1856 -1856 0
v -1920 -1856 0
v -1984 -1856 0
v -2304 -1856 0
v -2368 -1856 0
v -2432 -1856 0
v -2496 -1856 0
v -2560 -1856 0
v -2624 -1856 0
v -1600 -1920 0
v -1664 -1920 0
v -1728 -1920 0
v -1792 -1920 0
v -1856 -1920 0
v -1920 -1920 0
v -1984 -1920 0
v -2304 -1920 0
v -2368 -1920 0
v -2432 -1920 0
v -2496 -1920 0
v -2560 -1920 0
v -2624 -1920 0
v -1600 -1984 0
v -1664 -1984 0
v -1728 -1984 0
v -1792 -1984 0
v -1856 -1984 0
v -1920 -1984 0
v -1984 -1984 0
v -2304 -1984 0
v -2368 -1984 0
v -2432 -1984 0
v -2496 -1984 0
v -2560 -1984 0
v -2624 -1984 0
v -1600 -2048 0
v -1664 -2048 0
v -1728 -2048 0
v -1792 -2048 0
v -1856 -2048 0
v -1920 -2048 0
v -1984 -2048 0
v -2304 -2048 0
v -2368 -2048 0
v -2432 -2048 0
v -2496 -2048 0
v -2560 -2048 0
v -2624 -2048 0

# Texture Coorindates (Count = 52)
vt 0.1251221 0.8126221
vt 0.1873779 0.8126221
vt 0.1873779 0.8748779
vt 0.1251221 0.8748779
vt 0.1876221 0.8126221
vt 0.2498779 0.8126221
vt 0.2498779 0.8748779
vt 0.1876221 0.8748779
vt 0.2501221 0.8126221
vt 0.3123779 0.8126221
vt 0.3123779 0.8748779
vt 0.2501221 0.8748779
vt 0.3751221 0.8126221
vt 0.4373779 0.8126221
vt 0.4373779 0.8748779
vt 0.3751221 0.8748779
vt 0.0001220703 0.8126221
vt 0.06237793 0.8126221
vt 0.06237793 0.8748779
vt 0.0001220703 0.8748779
vt 0.06262207 0.9376221
vt 0.1248779 0.9376221
vt 0.1248779 0.9998779
vt 0.06262207 0.9998779
vt 0.3126221 0.7501221
vt 0.3748779 0.7501221
vt 0.3748779 0.8123779
vt 0.3126221 0.8123779
vt 0.3751221 0.7501221
vt 0.4373779 0.7501221
vt 0.4373779 0.8123779
vt 0.3751221 0.8123779
vt 0.0001220703 0.9376221
vt 0.06237793 0.9376221
vt 0.06237793 0.9998779
vt 0.0001220703 0.9998779
vt 0.2501221 0.7501221
vt 0.3123779 0.7501221
vt 0.3123779 0.8123779
vt 0.2501221 0.8123779
vt 0.1876221 0.7501221
vt 0.2498779 0.7501221
vt 0.2498779 0.8123779
vt 0.1876221 0.8123779
vt 0.5001221 0.7501221
vt 0.5623779 0.7501221
vt 0.5623779 0.8123779
vt 0.5001221 0.8123779
vt 0.5626221 0.7501221
vt 0.6248779 0.7501221
vt 0.6248779 0.8123779
vt 0.5626221 0.8123779

# Normal
vn 0 0 -1

# Groups (Count = 2)
g mesh_[00]_[00]
f  1/1/1  2/2/1  3/3/1  4/4/1 
f  2/1/1  5/2/1  6/3/1  3/4/1 
f  5/1/1  7/2/1  8/3/1  6/4/1 
f  7/5/1  9/6/1  10/7/1  8/8/1 
f  9/1/1  11/2/1  12/3/1  10/4/1 
f  11/1/1  13/2/1  14/3/1  12/4/1 
f  15/1/1  16/2/1  17/3/1  18/4/1 
f  16/1/1  19/2/1  20/3/1  17/4/1 
f  19/9/1  21/10/1  22/11/1  20/12/1 
f  21/9/1  23/10/1  24/11/1  22/12/1 
f  23/1/1  25/2/1  26/3/1  24/4/1 
f  27/13/1  28/14/1  29/15/1  30/16/1 
f  28/13/1  31/14/1  32/15/1  29/16/1 
f  31/13/1  33/14/1  34/15/1  32/16/1 
f  33/13/1  35/14/1  36/15/1  34/16/1 
f  37/17/1  38/18/1  27/19/1  39/20/1 
f  38/17/1  40/18/1  28/19/1  27/20/1 
f  40/17/1  41/18/1  31/19/1  28/20/1 
f  41/17/1  42/18/1  33/19/1  31/20/1 
f  43/17/1  44/18/1  38/19/1  37/20/1 
f  44/17/1  45/18/1  40/19/1  38/20/1 
f  45/17/1  46/18/1  41/19/1  40/20/1 
f  46/17/1  47/18/1  42/19/1  41/20/1 
f  47/17/1  48/18/1  49/19/1  42/20/1 
f  50/17/1  51/18/1  45/19/1  44/20/1 
f  51/17/1  52/18/1  46/19/1  45/20/1 
f  52/17/1  53/18/1  47/19/1  46/20/1 
f  53/17/1  54/18/1  48/19/1  47/20/1 
f  55/17/1  56/18/1  51/19/1  50/20/1 
f  56/17/1  57/18/1  52/19/1  51/20/1 
f  57/17/1  58/18/1  53/19/1  52/20/1 
f  59/17/1  60/18/1  56/19/1  55/20/1 
f  60/17/1  61/18/1  57/19/1  56/20/1 
f  61/17/1  62/18/1  58/19/1  57/20/1 
f  63/17/1  64/18/1  60/19/1  59/20/1 
f  64/17/1  65/18/1  61/19/1  60/20/1 
f  65/17/1  66/18/1  62/19/1  61/20/1 
f  67/17/1  68/18/1  64/19/1  63/20/1 
f  68/17/1  69/18/1  65/19/1  64/20/1 
f  69/17/1  70/18/1  66/19/1  65/20/1 
f  71/17/1  72/18/1  68/19/1  67/20/1 
f  72/17/1  73/18/1  69/19/1  68/20/1 
f  73/17/1  74/18/1  70/19/1  69/20/1 
g mesh_[01]_[00]
f  75/21/1  76/22/1  2/23/1  1/24/1 
f  76/21/1  77/22/1  5/23/1  2/24/1 
f  77/21/1  78/22/1  7/23/1  5/24/1 
f  78/21/1  79/22/1  9/23/1  7/24/1 
f  79/21/1  80/22/1  11/23/1  9/24/1 
f  80/21/1  81/22/1  13/23/1  11/24/1 
f  81/25/1  30/26/1  82/27/1  13/28/1 
f  34/29/1  36/30/1  15/31/1  83/32/1 
f  36/21/1  84/22/1  16/23/1  15/24/1 
f  84/21/1  85/22/1  19/23/1  16/24/1 
f  85/21/1  86/22/1  21/23/1  19/24/1 
f  86/21/1  87/22/1  23/23/1  21/24/1 
f  87/21/1  88/22/1  25/23/1  23/24/1 
f  89/33/1  90/34/1  76/35/1  75/36/1 
f  90/33/1  91/34/1  77/35/1  76/36/1 
f  91/33/1  92/34/1  78/35/1  77/36/1 
f  92/33/1  93/34/1  79/35/1  78/36/1 
f  93/33/1  94/34/1  80/35/1  79/36/1 
f  94/33/1  39/34/1  81/35/1  80/36/1 
f  39/37/1  27/38/1  30/39/1  81/40/1 
f  33/41/1  35/42/1  36/43/1  34/44/1 
f  35/33/1  95/34/1  84/35/1  36/36/1 
f  95/33/1  96/34/1  85/35/1  84/36/1 
f  96/33/1  97/34/1  86/35/1  85/36/1 
f  97/33/1  98/34/1  87/35/1  86/36/1 
f  98/33/1  99/34/1  88/35/1  87/36/1 
f  100/33/1  101/34/1  90/35/1  89/36/1 
f  101/33/1  102/34/1  91/35/1  90/36/1 
f  102/33/1  103/34/1  92/35/1  91/36/1 
f  103/33/1  104/34/1  93/35/1  92/36/1 
f  104/33/1  105/34/1  94/35/1  93/36/1 
f  105/33/1  37/34/1  39/35/1  94/36/1 
f  37/37/1  38/38/1  27/39/1  39/40/1 
f  41/45/1  42/46/1  33/47/1  31/48/1 
f  42/41/1  49/42/1  35/43/1  33/44/1 
f  49/33/1  106/34/1  95/35/1  35/36/1 
f  106/33/1  107/34/1  96/35/1  95/36/1 
f  107/33/1  108/34/1  97/35/1  96/36/1 
f  108/33/1  109/34/1  98/35/1  97/36/1 
f  109/33/1  110/34/1  99/35/1  98/36/1 
f  111/33/1  112/34/1  101/35/1  100/36/1 
f  112/33/1  113/34/1  102/35/1  101/36/1 
f  113/33/1  114/34/1  103/35/1  102/36/1 
f  114/33/1  115/34/1  104/35/1  103/36/1 
f  115/33/1  116/34/1  105/35/1  104/36/1 
f  116/33/1  43/34/1  37/35/1  105/36/1 
f  43/37/1  44/38/1  38/39/1  37/40/1 
f  47/41/1  48/42/1  49/43/1  42/44/1 
f  48/33/1  117/34/1  106/35/1  49/36/1 
f  117/33/1  118/34/1  107/35/1  106/36/1 
f  118/33/1  119/34/1  108/35/1  107/36/1 
f  119/33/1  120/34/1  109/35/1  108/36/1 
f  120/33/1  121/34/1  110/35/1  109/36/1 
f  122/33/1  123/34/1  112/35/1  111/36/1 
f  123/33/1  124/34/1  113/35/1  112/36/1 
f  124/33/1  125/34/1  114/35/1  113/36/1 
f  125/33/1  126/34/1  115/35/1  114/36/1 
f  126/33/1  127/34/1  116/35/1  115/36/1 
f  127/33/1  128/34/1  43/35/1  116/36/1 
f  128/37/1  50/38/1  44/39/1  43/40/1 
f  50/49/1  51/50/1  45/51/1  44/52/1 
f  53/41/1  54/42/1  48/43/1  47/44/1 
f  54/33/1  129/34/1  117/35/1  48/36/1 
f  129/33/1  130/34/1  118/35/1  117/36/1 
f  130/33/1  131/34/1  119/35/1  118/36/1 
f  131/33/1  132/34/1  120/35/1  119/36/1 
f  132/33/1  133/34/1  121/35/1  120/36/1 
f  134/33/1  135/34/1  123/35/1  122/36/1 
f  135/33/1  136/34/1  124/35/1  123/36/1 
f  136/33/1  137/34/1  125/35/1  124/36/1 
f  137/33/1  138/34/1  126/35/1  125/36/1 
f  138/33/1  139/34/1  127/35/1  126/36/1 
f  139/33/1  140/34/1  128/35/1  127/36/1 
f  140/37/1  55/38/1  50/39/1  128/40/1 
f  58/41/1  141/42/1  54/43/1  53/44/1 
f  141/33/1  142/34/1  129/35/1  54/36/1 
f  142/33/1  143/34/1  130/35/1  129/36/1 
f  143/33/1  144/34/1  131/35/1  130/36/1 
f  144/33/1  145/34/1  132/35/1  131/36/1 
f  145/33/1  146/34/1  133/35/1  132/36/1 
f  147/33/1  148/34/1  135/35/1  134/36/1 
f  148/33/1  149/34/1  136/35/1  135/36/1 
f  149/33/1  150/34/1  137/35/1  136/36/1 
f  150/33/1  151/34/1  138/35/1  137/36/1 
f  151/33/1  152/34/1  139/35/1  138/36/1 
f  152/33/1  153/34/1  140/35/1  139/36/1 
f  153/37/1  59/38/1  55/39/1  140/40/1 
f  62/41/1  154/42/1  141/43/1  58/44/1 
f  154/33/1  155/34/1  142/35/1  141/36/1 
f  155/33/1  156/34/1  143/35/1  142/36/1 
f  156/33/1  157/34/1  144/35/1  143/36/1 
f  157/33/1  158/34/1  145/35/1  144/36/1 
f  158/33/1  159/34/1  146/35/1  145/36/1 
f  160/33/1  161/34/1  148/35/1  147/36/1 
f  161/33/1  162/34/1  149/35/1  148/36/1 
f  162/33/1  163/34/1  150/35/1  149/36/1 
f  163/33/1  164/34/1  151/35/1  150/36/1 
f  164/33/1  165/34/1  152/35/1  151/36/1 
f  165/33/1  166/34/1  153/35/1  152/36/1 
f  166/37/1  63/38/1  59/39/1  153/40/1 
f  66/41/1  167/42/1  154/43/1  62/44/1 
f  167/33/1  168/34/1  155/35/1  154/36/1 
f  168/33/1  169/34/1  156/35/1  155/36/1 
f  169/33/1  170/34/1  157/35/1  156/36/1 
f  170/33/1  171/34/1  158/35/1  157/36/1 
f  171/33/1  172/34/1  159/35/1  158/36/1 
f  173/33/1  174/34/1  161/35/1  160/36/1 
f  174/33/1  175/34/1  162/35/1  161/36/1 
f  175/33/1  176/34/1  163/35/1  162/36/1 
f  176/33/1  177/34/1  164/35/1  163/36/1 
f  177/33/1  178/34/1  165/35/1  164/36/1 
f  178/33/1  179/34/1  166/35/1  165/36/1 
f  179/37/1  67/38/1  63/39/1  166/40/1 
f  70/41/1  180/42/1  167/43/1  66/44/1 
f  180/33/1  181/34/1  168/35/1  167/36/1 
f  181/33/1  182/34/1  169/35/1  168/36/1 
f  182/33/1  183/34/1  170/35/1  169/36/1 
f  183/33/1  184/34/1  171/35/1  170/36/1 
f  184/33/1  185/34/1  172/35/1  171/36/1 
f  186/33/1  187/34/1  174/35/1  173/36/1 
f  187/33/1  188/34/1  175/35/1  174/36/1 
f  188/33/1  189/34/1  176/35/1  175/36/1 
f  189/33/1  190/34/1  177/35/1  176/36/1 
f  190/33/1  191/34/1  178/35/1  177/36/1 
f  191/33/1  192/34/1  179/35/1  178/36/1 
f  192/37/1  71/38/1  67/39/1  179/40/1 
f  74/41/1  193/42/1  180/43/1  70/44/1 
f  193/33/1  194/34/1  181/35/1  180/36/1 
f  194/33/1  195/34/1  182/35/1  181/36/1 
f  195/33/1  196/34/1  183/35/1  182/36/1 
f  196/33/1  197/34/1  184/35/1  183/36/1 
f  197/33/1  198/34/1  185/35/1  184/36/1 
