# Wavefront OBJ file automatically generated by Tiled2Unity

# Vertices (Count = 427)
v -3328 -704 0
v -3392 -704 0
v -3392 -640 0
v -3328 -640 0
v -3456 -704 0
v -3456 -640 0
v -3264 -768 0
v -3328 -768 0
v -3264 -704 0
v -3392 -768 0
v -3456 -768 0
v -3520 -768 0
v -3520 -704 0
v -3264 -832 0
v -3328 -832 0
v -3392 -832 0
v -3456 -832 0
v -3520 -832 0
v -3264 -896 0
v -3328 -896 0
v -3392 -896 0
v -3456 -896 0
v -3520 -896 0
v -3264 -960 0
v -3328 -960 0
v -3392 -960 0
v -3456 -960 0
v -3520 -960 0
v -3264 -1024 0
v -3328 -1024 0
v -3392 -1024 0
v -3456 -1024 0
v -3520 -1024 0
v -3584 -1024 0
v -3584 -960 0
v -3264 -1088 0
v -3328 -1088 0
v -3392 -1088 0
v -3456 -1088 0
v -3520 -1088 0
v -3584 -1088 0
v -3648 -1088 0
v -3648 -1024 0
v -3712 -1088 0
v -3712 -1024 0
v -3776 -1088 0
v -3776 -1024 0
v -3840 -1088 0
v -3840 -1024 0
v -3904 -1088 0
v -3904 -1024 0
v -3968 -1088 0
v -3968 -1024 0
v -3264 -1152 0
v -3328 -1152 0
v -3392 -1152 0
v -3456 -1152 0
v -3520 -1152 0
v -3584 -1152 0
v -3648 -1152 0
v -3712 -1152 0
v -3776 -1152 0
v -3840 -1152 0
v -3904 -1152 0
v -3968 -1152 0
v -3200 -1216 0
v -3264 -1216 0
v -3200 -1152 0
v -3328 -1216 0
v -3392 -1216 0
v -3456 -1216 0
v -3520 -1216 0
v -3584 -1216 0
v -3648 -1216 0
v -3712 -1216 0
v -3776 -1216 0
v -3840 -1216 0
v -3904 -1216 0
v -3968 -1216 0
v -3200 -1280 0
v -3264 -1280 0
v -3328 -1280 0
v -3392 -1280 0
v -3456 -1280 0
v -3520 -1280 0
v -3584 -1280 0
v -3648 -1280 0
v -3712 -1280 0
v -3776 -1280 0
v -3840 -1280 0
v -3904 -1280 0
v -3968 -1280 0
v -3200 -1344 0
v -3264 -1344 0
v -3328 -1344 0
v -3392 -1344 0
v -3456 -1344 0
v -3520 -1344 0
v -3584 -1344 0
v -3648 -1344 0
v -3712 -1344 0
v -3776 -1344 0
v -3840 -1344 0
v -3904 -1344 0
v -3968 -1344 0
v -3200 -1408 0
v -3264 -1408 0
v -3328 -1408 0
v -3392 -1408 0
v -3456 -1408 0
v -3520 -1408 0
v -3584 -1408 0
v -3648 -1408 0
v -3712 -1408 0
v -3776 -1408 0
v -3840 -1408 0
v -3904 -1408 0
v -3968 -1408 0
v -3136 -640 0
v -3200 -640 0
v -3200 -576 0
v -3136 -576 0
v -3264 -640 0
v -3264 -576 0
v -3328 -576 0
v -3520 -640 0
v -3520 -576 0
v -3456 -576 0
v -3584 -640 0
v -3584 -576 0
v -3648 -640 0
v -3648 -576 0
v -3136 -704 0
v -3200 -704 0
v -3584 -704 0
v -3648 -704 0
v -3136 -768 0
v -3200 -768 0
v -3584 -768 0
v -3648 -768 0
v -3136 -832 0
v -3200 -832 0
v -3584 -832 0
v -3648 -832 0
v -3136 -896 0
v -3200 -896 0
v -3584 -896 0
v -3648 -896 0
v -3712 -896 0
v -3712 -832 0
v -3136 -960 0
v -3200 -960 0
v -3648 -960 0
v -3712 -960 0
v -3776 -960 0
v -3776 -896 0
v -3840 -960 0
v -3840 -896 0
v -3904 -960 0
v -3904 -896 0
v -3968 -960 0
v -3968 -896 0
v -3136 -1024 0
v -3200 -1024 0
v -3136 -1088 0
v -3200 -1088 0
v -3136 -1152 0
v -3136 -1216 0
v -2944 -1472 0
v -3008 -1472 0
v -3008 -1408 0
v -2944 -1408 0
v -3072 -1472 0
v -3072 -1408 0
v -3136 -1472 0
v -3136 -1408 0
v -3200 -1472 0
v -3264 -1472 0
v -3328 -1472 0
v -3392 -1472 0
v -3456 -1472 0
v -3520 -1472 0
v -3584 -1472 0
v -3648 -1472 0
v -3712 -1472 0
v -3776 -1472 0
v -3840 -1472 0
v -3904 -1472 0
v -3968 -1472 0
v -2944 -1536 0
v -3008 -1536 0
v -3072 -1536 0
v -3136 -1536 0
v -3200 -1536 0
v -3264 -1536 0
v -3328 -1536 0
v -3392 -1536 0
v -3456 -1536 0
v -3520 -1536 0
v -3584 -1536 0
v -3648 -1536 0
v -3712 -1536 0
v -3776 -1536 0
v -3840 -1536 0
v -3904 -1536 0
v -3968 -1536 0
v -2944 -1600 0
v -3008 -1600 0
v -3072 -1600 0
v -3136 -1600 0
v -3200 -1600 0
v -3264 -1600 0
v -3328 -1600 0
v -3392 -1600 0
v -3456 -1600 0
v -3520 -1600 0
v -3584 -1600 0
v -3648 -1600 0
v -3712 -1600 0
v -3776 -1600 0
v -3840 -1600 0
v -3904 -1600 0
v -3968 -1600 0
v -2944 -1664 0
v -3008 -1664 0
v -3072 -1664 0
v -3136 -1664 0
v -3200 -1664 0
v -3264 -1664 0
v -3328 -1664 0
v -3392 -1664 0
v -3456 -1664 0
v -3520 -1664 0
v -3584 -1664 0
v -3648 -1664 0
v -3712 -1664 0
v -3776 -1664 0
v -3840 -1664 0
v -3904 -1664 0
v -3968 -1664 0
v -2944 -1728 0
v -3008 -1728 0
v -3072 -1728 0
v -3136 -1728 0
v -3200 -1728 0
v -3264 -1728 0
v -3328 -1728 0
v -3392 -1728 0
v -3456 -1728 0
v -3520 -1728 0
v -3584 -1728 0
v -3648 -1728 0
v -3712 -1728 0
v -3776 -1728 0
v -3840 -1728 0
v -3904 -1728 0
v -3968 -1728 0
v -2944 -1792 0
v -3008 -1792 0
v -3072 -1792 0
v -3136 -1792 0
v -3200 -1792 0
v -3264 -1792 0
v -3328 -1792 0
v -3392 -1792 0
v -3456 -1792 0
v -3520 -1792 0
v -3584 -1792 0
v -3648 -1792 0
v -3712 -1792 0
v -3776 -1792 0
v -3840 -1792 0
v -3904 -1792 0
v -3968 -1792 0
v -2944 -1856 0
v -3008 -1856 0
v -3072 -1856 0
v -3136 -1856 0
v -3200 -1856 0
v -3264 -1856 0
v -3328 -1856 0
v -3392 -1856 0
v -3456 -1856 0
v -3520 -1856 0
v -3584 -1856 0
v -3648 -1856 0
v -3712 -1856 0
v -3776 -1856 0
v -3840 -1856 0
v -3904 -1856 0
v -3968 -1856 0
v -2944 -1920 0
v -3008 -1920 0
v -3072 -1920 0
v -3136 -1920 0
v -3200 -1920 0
v -3264 -1920 0
v -3328 -1920 0
v -3392 -1920 0
v -3456 -1920 0
v -3520 -1920 0
v -3584 -1920 0
v -3648 -1920 0
v -3712 -1920 0
v -3776 -1920 0
v -3840 -1920 0
v -3904 -1920 0
v -3968 -1920 0
v -2944 -1984 0
v -3008 -1984 0
v -3072 -1984 0
v -3136 -1984 0
v -3200 -1984 0
v -3264 -1984 0
v -3328 -1984 0
v -3392 -1984 0
v -3456 -1984 0
v -3520 -1984 0
v -3584 -1984 0
v -3648 -1984 0
v -3712 -1984 0
v -3776 -1984 0
v -3840 -1984 0
v -3904 -1984 0
v -3968 -1984 0
v -2944 -2048 0
v -3008 -2048 0
v -3072 -2048 0
v -3136 -2048 0
v -3200 -2048 0
v -3264 -2048 0
v -3328 -2048 0
v -3392 -2048 0
v -3456 -2048 0
v -3520 -2048 0
v -3584 -2048 0
v -3648 -2048 0
v -3712 -2048 0
v -3776 -2048 0
v -3840 -2048 0
v -3904 -2048 0
v -3968 -2048 0
v -2944 -2112 0
v -3008 -2112 0
v -3072 -2112 0
v -3136 -2112 0
v -3200 -2112 0
v -3264 -2112 0
v -3328 -2112 0
v -3392 -2112 0
v -3456 -2112 0
v -3520 -2112 0
v -3584 -2112 0
v -3648 -2112 0
v -3712 -2112 0
v -3776 -2112 0
v -3840 -2112 0
v -3904 -2112 0
v -3968 -2112 0
v -2944 -2176 0
v -3008 -2176 0
v -3072 -2176 0
v -3136 -2176 0
v -3200 -2176 0
v -3264 -2176 0
v -3328 -2176 0
v -3392 -2176 0
v -3456 -2176 0
v -3520 -2176 0
v -3584 -2176 0
v -3648 -2176 0
v -3712 -2176 0
v -3776 -2176 0
v -3840 -2176 0
v -3904 -2176 0
v -3968 -2176 0
v -2944 -2240 0
v -3008 -2240 0
v -3072 -2240 0
v -3136 -2240 0
v -3200 -2240 0
v -3264 -2240 0
v -3328 -2240 0
v -3392 -2240 0
v -3456 -2240 0
v -3520 -2240 0
v -3584 -2240 0
v -3648 -2240 0
v -3712 -2240 0
v -3776 -2240 0
v -3840 -2240 0
v -3904 -2240 0
v -3968 -2240 0
v -2944 -2304 0
v -3008 -2304 0
v -3072 -2304 0
v -3136 -2304 0
v -3200 -2304 0
v -3264 -2304 0
v -3328 -2304 0
v -3392 -2304 0
v -3456 -2304 0
v -3520 -2304 0
v -3584 -2304 0
v -3648 -2304 0
v -3712 -2304 0
v -3776 -2304 0
v -3840 -2304 0
v -3904 -2304 0
v -3968 -2304 0
v -2944 -2368 0
v -3008 -2368 0
v -3072 -2368 0
v -3136 -2368 0
v -3200 -2368 0
v -3264 -2368 0
v -3328 -2368 0
v -3392 -2368 0
v -3456 -2368 0
v -3520 -2368 0
v -3584 -2368 0
v -3648 -2368 0
v -3712 -2368 0
v -3776 -2368 0
v -3840 -2368 0
v -3904 -2368 0
v -3968 -2368 0

# Texture Coorindates (Count = 64)
vt 0.06262207 0.8126221
vt 0.1248779 0.8126221
vt 0.1248779 0.8748779
vt 0.06262207 0.8748779
vt 0.3751221 0.8751221
vt 0.4373779 0.8751221
vt 0.4373779 0.9373779
vt 0.3751221 0.9373779
vt 0.0001220703 0.8751221
vt 0.06237793 0.8751221
vt 0.06237793 0.9373779
vt 0.0001220703 0.9373779
vt 0.9376221 0.8751221
vt 0.9998779 0.8751221
vt 0.9998779 0.9373779
vt 0.9376221 0.9373779
vt 0.8751221 0.8751221
vt 0.9373779 0.8751221
vt 0.9373779 0.9373779
vt 0.8751221 0.9373779
vt 0.3126221 0.8751221
vt 0.3748779 0.8751221
vt 0.3748779 0.9373779
vt 0.3126221 0.9373779
vt 0.1876221 0.8751221
vt 0.2498779 0.8751221
vt 0.2498779 0.9373779
vt 0.1876221 0.9373779
vt 0.06262207 0.8751221
vt 0.1248779 0.8751221
vt 0.1248779 0.9373779
vt 0.06262207 0.9373779
vt 0.8126221 0.8751221
vt 0.8748779 0.8751221
vt 0.8748779 0.9373779
vt 0.8126221 0.9373779
vt 0.7501221 0.8751221
vt 0.8123779 0.8751221
vt 0.8123779 0.9373779
vt 0.7501221 0.9373779
vt 0.1251221 0.8751221
vt 0.1873779 0.8751221
vt 0.1873779 0.9373779
vt 0.1251221 0.9373779
vt 0.5001221 0.8751221
vt 0.5623779 0.8751221
vt 0.5623779 0.9373779
vt 0.5001221 0.9373779
vt 0.5626221 0.8751221
vt 0.6248779 0.8751221
vt 0.6248779 0.9373779
vt 0.5626221 0.9373779
vt 0.2501221 0.8751221
vt 0.3123779 0.8751221
vt 0.3123779 0.9373779
vt 0.2501221 0.9373779
vt 0.06262207 0.9376221
vt 0.1248779 0.9376221
vt 0.1248779 0.9998779
vt 0.06262207 0.9998779
vt 0.0001220703 0.9376221
vt 0.06237793 0.9376221
vt 0.06237793 0.9998779
vt 0.0001220703 0.9998779

# Normal
vn 0 0 -1

# Groups (Count = 2)
g mesh_[00]_[00]
f  1/1/1  2/2/1  3/3/1  4/4/1 
f  2/1/1  5/2/1  6/3/1  3/4/1 
f  7/1/1  8/2/1  1/3/1  9/4/1 
f  8/1/1  10/2/1  2/3/1  1/4/1 
f  10/1/1  11/2/1  5/3/1  2/4/1 
f  11/1/1  12/2/1  13/3/1  5/4/1 
f  14/1/1  15/2/1  8/3/1  7/4/1 
f  15/1/1  16/2/1  10/3/1  8/4/1 
f  16/1/1  17/2/1  11/3/1  10/4/1 
f  17/1/1  18/2/1  12/3/1  11/4/1 
f  19/1/1  20/2/1  15/3/1  14/4/1 
f  20/1/1  21/2/1  16/3/1  15/4/1 
f  21/1/1  22/2/1  17/3/1  16/4/1 
f  22/1/1  23/2/1  18/3/1  17/4/1 
f  24/1/1  25/2/1  20/3/1  19/4/1 
f  25/1/1  26/2/1  21/3/1  20/4/1 
f  26/1/1  27/2/1  22/3/1  21/4/1 
f  27/1/1  28/2/1  23/3/1  22/4/1 
f  29/1/1  30/2/1  25/3/1  24/4/1 
f  30/1/1  31/2/1  26/3/1  25/4/1 
f  31/1/1  32/2/1  27/3/1  26/4/1 
f  32/1/1  33/2/1  28/3/1  27/4/1 
f  33/1/1  34/2/1  35/3/1  28/4/1 
f  36/1/1  37/2/1  30/3/1  29/4/1 
f  37/1/1  38/2/1  31/3/1  30/4/1 
f  38/1/1  39/2/1  32/3/1  31/4/1 
f  39/1/1  40/2/1  33/3/1  32/4/1 
f  40/1/1  41/2/1  34/3/1  33/4/1 
f  41/1/1  42/2/1  43/3/1  34/4/1 
f  42/1/1  44/2/1  45/3/1  43/4/1 
f  44/1/1  46/2/1  47/3/1  45/4/1 
f  46/1/1  48/2/1  49/3/1  47/4/1 
f  48/1/1  50/2/1  51/3/1  49/4/1 
f  50/1/1  52/2/1  53/3/1  51/4/1 
f  54/1/1  55/2/1  37/3/1  36/4/1 
f  55/1/1  56/2/1  38/3/1  37/4/1 
f  56/1/1  57/2/1  39/3/1  38/4/1 
f  57/1/1  58/2/1  40/3/1  39/4/1 
f  58/1/1  59/2/1  41/3/1  40/4/1 
f  59/1/1  60/2/1  42/3/1  41/4/1 
f  60/1/1  61/2/1  44/3/1  42/4/1 
f  61/1/1  62/2/1  46/3/1  44/4/1 
f  62/1/1  63/2/1  48/3/1  46/4/1 
f  63/1/1  64/2/1  50/3/1  48/4/1 
f  64/1/1  65/2/1  52/3/1  50/4/1 
f  66/1/1  67/2/1  54/3/1  68/4/1 
f  67/1/1  69/2/1  55/3/1  54/4/1 
f  69/1/1  70/2/1  56/3/1  55/4/1 
f  70/1/1  71/2/1  57/3/1  56/4/1 
f  71/1/1  72/2/1  58/3/1  57/4/1 
f  72/1/1  73/2/1  59/3/1  58/4/1 
f  73/1/1  74/2/1  60/3/1  59/4/1 
f  74/1/1  75/2/1  61/3/1  60/4/1 
f  75/1/1  76/2/1  62/3/1  61/4/1 
f  76/1/1  77/2/1  63/3/1  62/4/1 
f  77/1/1  78/2/1  64/3/1  63/4/1 
f  78/1/1  79/2/1  65/3/1  64/4/1 
f  80/1/1  81/2/1  67/3/1  66/4/1 
f  81/1/1  82/2/1  69/3/1  67/4/1 
f  82/1/1  83/2/1  70/3/1  69/4/1 
f  83/1/1  84/2/1  71/3/1  70/4/1 
f  84/1/1  85/2/1  72/3/1  71/4/1 
f  85/1/1  86/2/1  73/3/1  72/4/1 
f  86/1/1  87/2/1  74/3/1  73/4/1 
f  87/1/1  88/2/1  75/3/1  74/4/1 
f  88/1/1  89/2/1  76/3/1  75/4/1 
f  89/1/1  90/2/1  77/3/1  76/4/1 
f  90/1/1  91/2/1  78/3/1  77/4/1 
f  91/1/1  92/2/1  79/3/1  78/4/1 
f  93/1/1  94/2/1  81/3/1  80/4/1 
f  94/1/1  95/2/1  82/3/1  81/4/1 
f  95/1/1  96/2/1  83/3/1  82/4/1 
f  96/1/1  97/2/1  84/3/1  83/4/1 
f  97/1/1  98/2/1  85/3/1  84/4/1 
f  98/1/1  99/2/1  86/3/1  85/4/1 
f  99/1/1  100/2/1  87/3/1  86/4/1 
f  100/1/1  101/2/1  88/3/1  87/4/1 
f  101/1/1  102/2/1  89/3/1  88/4/1 
f  102/1/1  103/2/1  90/3/1  89/4/1 
f  103/1/1  104/2/1  91/3/1  90/4/1 
f  104/1/1  105/2/1  92/3/1  91/4/1 
f  106/1/1  107/2/1  94/3/1  93/4/1 
f  107/1/1  108/2/1  95/3/1  94/4/1 
f  108/1/1  109/2/1  96/3/1  95/4/1 
f  109/1/1  110/2/1  97/3/1  96/4/1 
f  110/1/1  111/2/1  98/3/1  97/4/1 
f  111/1/1  112/2/1  99/3/1  98/4/1 
f  112/1/1  113/2/1  100/3/1  99/4/1 
f  113/1/1  114/2/1  101/3/1  100/4/1 
f  114/1/1  115/2/1  102/3/1  101/4/1 
f  115/1/1  116/2/1  103/3/1  102/4/1 
f  116/1/1  117/2/1  104/3/1  103/4/1 
f  117/1/1  118/2/1  105/3/1  104/4/1 
g mesh_[01]_[00]
f  119/5/1  120/6/1  121/7/1  122/8/1 
f  120/9/1  123/10/1  124/11/1  121/12/1 
f  123/13/1  4/14/1  125/15/1  124/16/1 
f  6/17/1  126/18/1  127/19/1  128/20/1 
f  126/9/1  129/10/1  130/11/1  127/12/1 
f  129/21/1  131/22/1  132/23/1  130/24/1 
f  133/25/1  134/26/1  120/27/1  119/28/1 
f  134/29/1  9/30/1  123/31/1  120/32/1 
f  9/33/1  1/34/1  4/35/1  123/36/1 
f  5/37/1  13/38/1  126/39/1  6/40/1 
f  13/29/1  135/30/1  129/31/1  126/32/1 
f  135/41/1  136/42/1  131/43/1  129/44/1 
f  137/25/1  138/26/1  134/27/1  133/28/1 
f  138/41/1  7/42/1  9/43/1  134/44/1 
f  12/25/1  139/26/1  135/27/1  13/28/1 
f  139/41/1  140/42/1  136/43/1  135/44/1 
f  141/25/1  142/26/1  138/27/1  137/28/1 
f  142/41/1  14/42/1  7/43/1  138/44/1 
f  18/25/1  143/26/1  139/27/1  12/28/1 
f  143/41/1  144/42/1  140/43/1  139/44/1 
f  145/25/1  146/26/1  142/27/1  141/28/1 
f  146/41/1  19/42/1  14/43/1  142/44/1 
f  23/25/1  147/26/1  143/27/1  18/28/1 
f  147/29/1  148/30/1  144/31/1  143/32/1 
f  148/13/1  149/14/1  150/15/1  144/16/1 
f  151/25/1  152/26/1  146/27/1  145/28/1 
f  152/41/1  24/42/1  19/43/1  146/44/1 
f  28/25/1  35/26/1  147/27/1  23/28/1 
f  35/29/1  153/30/1  148/31/1  147/32/1 
f  153/29/1  154/30/1  149/31/1  148/32/1 
f  154/9/1  155/10/1  156/11/1  149/12/1 
f  155/9/1  157/10/1  158/11/1  156/12/1 
f  157/9/1  159/10/1  160/11/1  158/12/1 
f  159/9/1  161/10/1  162/11/1  160/12/1 
f  163/25/1  164/26/1  152/27/1  151/28/1 
f  164/41/1  29/42/1  24/43/1  152/44/1 
f  30/45/1  31/46/1  26/47/1  25/48/1 
f  31/49/1  32/50/1  27/51/1  26/52/1 
f  33/37/1  34/38/1  35/39/1  28/40/1 
f  34/53/1  43/54/1  153/55/1  35/56/1 
f  43/53/1  45/54/1  154/55/1  153/56/1 
f  45/53/1  47/54/1  155/55/1  154/56/1 
f  47/53/1  49/54/1  157/55/1  155/56/1 
f  49/53/1  51/54/1  159/55/1  157/56/1 
f  51/53/1  53/54/1  161/55/1  159/56/1 
f  165/25/1  166/26/1  164/27/1  163/28/1 
f  166/41/1  36/42/1  29/43/1  164/44/1 
f  167/25/1  68/26/1  166/27/1  165/28/1 
f  68/41/1  54/42/1  36/43/1  166/44/1 
f  168/37/1  66/38/1  68/39/1  167/40/1 
f  66/33/1  67/34/1  54/35/1  68/36/1 
f  111/17/1  112/18/1  99/19/1  98/20/1 
f  112/9/1  113/10/1  100/11/1  99/12/1 
f  113/13/1  114/14/1  101/15/1  100/16/1 
f  169/5/1  170/6/1  171/7/1  172/8/1 
f  170/9/1  173/10/1  174/11/1  171/12/1 
f  173/9/1  175/10/1  176/11/1  174/12/1 
f  175/9/1  177/10/1  106/11/1  176/12/1 
f  177/9/1  178/10/1  107/11/1  106/12/1 
f  178/9/1  179/10/1  108/11/1  107/12/1 
f  179/9/1  180/10/1  109/11/1  108/12/1 
f  180/9/1  181/10/1  110/11/1  109/12/1 
f  181/9/1  182/10/1  111/11/1  110/12/1 
f  182/29/1  183/30/1  112/31/1  111/32/1 
f  183/29/1  184/30/1  113/31/1  112/32/1 
f  184/29/1  185/30/1  114/31/1  113/32/1 
f  185/9/1  186/10/1  115/11/1  114/12/1 
f  186/9/1  187/10/1  116/11/1  115/12/1 
f  187/9/1  188/10/1  117/11/1  116/12/1 
f  188/9/1  189/10/1  118/11/1  117/12/1 
f  190/57/1  191/58/1  170/59/1  169/60/1 
f  191/57/1  192/58/1  173/59/1  170/60/1 
f  192/57/1  193/58/1  175/59/1  173/60/1 
f  193/57/1  194/58/1  177/59/1  175/60/1 
f  194/57/1  195/58/1  178/59/1  177/60/1 
f  195/57/1  196/58/1  179/59/1  178/60/1 
f  196/57/1  197/58/1  180/59/1  179/60/1 
f  197/57/1  198/58/1  181/59/1  180/60/1 
f  198/57/1  199/58/1  182/59/1  181/60/1 
f  199/57/1  200/58/1  183/59/1  182/60/1 
f  200/57/1  201/58/1  184/59/1  183/60/1 
f  201/57/1  202/58/1  185/59/1  184/60/1 
f  202/57/1  203/58/1  186/59/1  185/60/1 
f  203/57/1  204/58/1  187/59/1  186/60/1 
f  204/57/1  205/58/1  188/59/1  187/60/1 
f  205/57/1  206/58/1  189/59/1  188/60/1 
f  207/61/1  208/62/1  191/63/1  190/64/1 
f  208/61/1  209/62/1  192/63/1  191/64/1 
f  209/61/1  210/62/1  193/63/1  192/64/1 
f  210/61/1  211/62/1  194/63/1  193/64/1 
f  211/61/1  212/62/1  195/63/1  194/64/1 
f  212/61/1  213/62/1  196/63/1  195/64/1 
f  213/61/1  214/62/1  197/63/1  196/64/1 
f  214/61/1  215/62/1  198/63/1  197/64/1 
f  215/61/1  216/62/1  199/63/1  198/64/1 
f  216/61/1  217/62/1  200/63/1  199/64/1 
f  217/61/1  218/62/1  201/63/1  200/64/1 
f  218/61/1  219/62/1  202/63/1  201/64/1 
f  219/61/1  220/62/1  203/63/1  202/64/1 
f  220/61/1  221/62/1  204/63/1  203/64/1 
f  221/61/1  222/62/1  205/63/1  204/64/1 
f  222/61/1  223/62/1  206/63/1  205/64/1 
f  224/61/1  225/62/1  208/63/1  207/64/1 
f  225/61/1  226/62/1  209/63/1  208/64/1 
f  226/61/1  227/62/1  210/63/1  209/64/1 
f  227/61/1  228/62/1  211/63/1  210/64/1 
f  228/61/1  229/62/1  212/63/1  211/64/1 
f  229/61/1  230/62/1  213/63/1  212/64/1 
f  230/61/1  231/62/1  214/63/1  213/64/1 
f  231/61/1  232/62/1  215/63/1  214/64/1 
f  232/61/1  233/62/1  216/63/1  215/64/1 
f  233/61/1  234/62/1  217/63/1  216/64/1 
f  234/61/1  235/62/1  218/63/1  217/64/1 
f  235/61/1  236/62/1  219/63/1  218/64/1 
f  236/61/1  237/62/1  220/63/1  219/64/1 
f  237/61/1  238/62/1  221/63/1  220/64/1 
f  238/61/1  239/62/1  222/63/1  221/64/1 
f  239/61/1  240/62/1  223/63/1  222/64/1 
f  241/61/1  242/62/1  225/63/1  224/64/1 
f  242/61/1  243/62/1  226/63/1  225/64/1 
f  243/61/1  244/62/1  227/63/1  226/64/1 
f  244/61/1  245/62/1  228/63/1  227/64/1 
f  245/61/1  246/62/1  229/63/1  228/64/1 
f  246/61/1  247/62/1  230/63/1  229/64/1 
f  247/61/1  248/62/1  231/63/1  230/64/1 
f  248/61/1  249/62/1  232/63/1  231/64/1 
f  249/61/1  250/62/1  233/63/1  232/64/1 
f  250/61/1  251/62/1  234/63/1  233/64/1 
f  251/61/1  252/62/1  235/63/1  234/64/1 
f  252/61/1  253/62/1  236/63/1  235/64/1 
f  253/61/1  254/62/1  237/63/1  236/64/1 
f  254/61/1  255/62/1  238/63/1  237/64/1 
f  255/61/1  256/62/1  239/63/1  238/64/1 
f  256/61/1  257/62/1  240/63/1  239/64/1 
f  258/61/1  259/62/1  242/63/1  241/64/1 
f  259/61/1  260/62/1  243/63/1  242/64/1 
f  260/61/1  261/62/1  244/63/1  243/64/1 
f  261/61/1  262/62/1  245/63/1  244/64/1 
f  262/61/1  263/62/1  246/63/1  245/64/1 
f  263/61/1  264/62/1  247/63/1  246/64/1 
f  264/61/1  265/62/1  248/63/1  247/64/1 
f  265/61/1  266/62/1  249/63/1  248/64/1 
f  266/61/1  267/62/1  250/63/1  249/64/1 
f  267/61/1  268/62/1  251/63/1  250/64/1 
f  268/61/1  269/62/1  252/63/1  251/64/1 
f  269/61/1  270/62/1  253/63/1  252/64/1 
f  270/61/1  271/62/1  254/63/1  253/64/1 
f  271/61/1  272/62/1  255/63/1  254/64/1 
f  272/61/1  273/62/1  256/63/1  255/64/1 
f  273/61/1  274/62/1  257/63/1  256/64/1 
f  275/61/1  276/62/1  259/63/1  258/64/1 
f  276/61/1  277/62/1  260/63/1  259/64/1 
f  277/61/1  278/62/1  261/63/1  260/64/1 
f  278/61/1  279/62/1  262/63/1  261/64/1 
f  279/61/1  280/62/1  263/63/1  262/64/1 
f  280/61/1  281/62/1  264/63/1  263/64/1 
f  281/61/1  282/62/1  265/63/1  264/64/1 
f  282/61/1  283/62/1  266/63/1  265/64/1 
f  283/61/1  284/62/1  267/63/1  266/64/1 
f  284/61/1  285/62/1  268/63/1  267/64/1 
f  285/61/1  286/62/1  269/63/1  268/64/1 
f  286/61/1  287/62/1  270/63/1  269/64/1 
f  287/61/1  288/62/1  271/63/1  270/64/1 
f  288/61/1  289/62/1  272/63/1  271/64/1 
f  289/61/1  290/62/1  273/63/1  272/64/1 
f  290/61/1  291/62/1  274/63/1  273/64/1 
f  292/61/1  293/62/1  276/63/1  275/64/1 
f  293/61/1  294/62/1  277/63/1  276/64/1 
f  294/61/1  295/62/1  278/63/1  277/64/1 
f  295/61/1  296/62/1  279/63/1  278/64/1 
f  296/61/1  297/62/1  280/63/1  279/64/1 
f  297/61/1  298/62/1  281/63/1  280/64/1 
f  298/61/1  299/62/1  282/63/1  281/64/1 
f  299/61/1  300/62/1  283/63/1  282/64/1 
f  300/61/1  301/62/1  284/63/1  283/64/1 
f  301/61/1  302/62/1  285/63/1  284/64/1 
f  302/61/1  303/62/1  286/63/1  285/64/1 
f  303/61/1  304/62/1  287/63/1  286/64/1 
f  304/61/1  305/62/1  288/63/1  287/64/1 
f  305/61/1  306/62/1  289/63/1  288/64/1 
f  306/61/1  307/62/1  290/63/1  289/64/1 
f  307/61/1  308/62/1  291/63/1  290/64/1 
f  309/61/1  310/62/1  293/63/1  292/64/1 
f  310/61/1  311/62/1  294/63/1  293/64/1 
f  311/61/1  312/62/1  295/63/1  294/64/1 
f  312/61/1  313/62/1  296/63/1  295/64/1 
f  313/61/1  314/62/1  297/63/1  296/64/1 
f  314/61/1  315/62/1  298/63/1  297/64/1 
f  315/61/1  316/62/1  299/63/1  298/64/1 
f  316/61/1  317/62/1  300/63/1  299/64/1 
f  317/61/1  318/62/1  301/63/1  300/64/1 
f  318/61/1  319/62/1  302/63/1  301/64/1 
f  319/61/1  320/62/1  303/63/1  302/64/1 
f  320/61/1  321/62/1  304/63/1  303/64/1 
f  321/61/1  322/62/1  305/63/1  304/64/1 
f  322/61/1  323/62/1  306/63/1  305/64/1 
f  323/61/1  324/62/1  307/63/1  306/64/1 
f  324/61/1  325/62/1  308/63/1  307/64/1 
f  326/61/1  327/62/1  310/63/1  309/64/1 
f  327/61/1  328/62/1  311/63/1  310/64/1 
f  328/61/1  329/62/1  312/63/1  311/64/1 
f  329/61/1  330/62/1  313/63/1  312/64/1 
f  330/61/1  331/62/1  314/63/1  313/64/1 
f  331/61/1  332/62/1  315/63/1  314/64/1 
f  332/61/1  333/62/1  316/63/1  315/64/1 
f  333/61/1  334/62/1  317/63/1  316/64/1 
f  334/61/1  335/62/1  318/63/1  317/64/1 
f  335/61/1  336/62/1  319/63/1  318/64/1 
f  336/61/1  337/62/1  320/63/1  319/64/1 
f  337/61/1  338/62/1  321/63/1  320/64/1 
f  338/61/1  339/62/1  322/63/1  321/64/1 
f  339/61/1  340/62/1  323/63/1  322/64/1 
f  340/61/1  341/62/1  324/63/1  323/64/1 
f  341/61/1  342/62/1  325/63/1  324/64/1 
f  343/61/1  344/62/1  327/63/1  326/64/1 
f  344/61/1  345/62/1  328/63/1  327/64/1 
f  345/61/1  346/62/1  329/63/1  328/64/1 
f  346/61/1  347/62/1  330/63/1  329/64/1 
f  347/61/1  348/62/1  331/63/1  330/64/1 
f  348/61/1  349/62/1  332/63/1  331/64/1 
f  349/61/1  350/62/1  333/63/1  332/64/1 
f  350/61/1  351/62/1  334/63/1  333/64/1 
f  351/61/1  352/62/1  335/63/1  334/64/1 
f  352/61/1  353/62/1  336/63/1  335/64/1 
f  353/61/1  354/62/1  337/63/1  336/64/1 
f  354/61/1  355/62/1  338/63/1  337/64/1 
f  355/61/1  356/62/1  339/63/1  338/64/1 
f  356/61/1  357/62/1  340/63/1  339/64/1 
f  357/61/1  358/62/1  341/63/1  340/64/1 
f  358/61/1  359/62/1  342/63/1  341/64/1 
f  360/61/1  361/62/1  344/63/1  343/64/1 
f  361/61/1  362/62/1  345/63/1  344/64/1 
f  362/61/1  363/62/1  346/63/1  345/64/1 
f  363/61/1  364/62/1  347/63/1  346/64/1 
f  364/61/1  365/62/1  348/63/1  347/64/1 
f  365/61/1  366/62/1  349/63/1  348/64/1 
f  366/61/1  367/62/1  350/63/1  349/64/1 
f  367/61/1  368/62/1  351/63/1  350/64/1 
f  368/61/1  369/62/1  352/63/1  351/64/1 
f  369/61/1  370/62/1  353/63/1  352/64/1 
f  370/61/1  371/62/1  354/63/1  353/64/1 
f  371/61/1  372/62/1  355/63/1  354/64/1 
f  372/61/1  373/62/1  356/63/1  355/64/1 
f  373/61/1  374/62/1  357/63/1  356/64/1 
f  374/61/1  375/62/1  358/63/1  357/64/1 
f  375/61/1  376/62/1  359/63/1  358/64/1 
f  377/61/1  378/62/1  361/63/1  360/64/1 
f  378/61/1  379/62/1  362/63/1  361/64/1 
f  379/61/1  380/62/1  363/63/1  362/64/1 
f  380/61/1  381/62/1  364/63/1  363/64/1 
f  381/61/1  382/62/1  365/63/1  364/64/1 
f  382/61/1  383/62/1  366/63/1  365/64/1 
f  383/61/1  384/62/1  367/63/1  366/64/1 
f  384/61/1  385/62/1  368/63/1  367/64/1 
f  385/61/1  386/62/1  369/63/1  368/64/1 
f  386/61/1  387/62/1  370/63/1  369/64/1 
f  387/61/1  388/62/1  371/63/1  370/64/1 
f  388/61/1  389/62/1  372/63/1  371/64/1 
f  389/61/1  390/62/1  373/63/1  372/64/1 
f  390/61/1  391/62/1  374/63/1  373/64/1 
f  391/61/1  392/62/1  375/63/1  374/64/1 
f  392/61/1  393/62/1  376/63/1  375/64/1 
f  394/61/1  395/62/1  378/63/1  377/64/1 
f  395/61/1  396/62/1  379/63/1  378/64/1 
f  396/61/1  397/62/1  380/63/1  379/64/1 
f  397/61/1  398/62/1  381/63/1  380/64/1 
f  398/61/1  399/62/1  382/63/1  381/64/1 
f  399/61/1  400/62/1  383/63/1  382/64/1 
f  400/61/1  401/62/1  384/63/1  383/64/1 
f  401/61/1  402/62/1  385/63/1  384/64/1 
f  402/61/1  403/62/1  386/63/1  385/64/1 
f  403/61/1  404/62/1  387/63/1  386/64/1 
f  404/61/1  405/62/1  388/63/1  387/64/1 
f  405/61/1  406/62/1  389/63/1  388/64/1 
f  406/61/1  407/62/1  390/63/1  389/64/1 
f  407/61/1  408/62/1  391/63/1  390/64/1 
f  408/61/1  409/62/1  392/63/1  391/64/1 
f  409/61/1  410/62/1  393/63/1  392/64/1 
f  411/61/1  412/62/1  395/63/1  394/64/1 
f  412/61/1  413/62/1  396/63/1  395/64/1 
f  413/61/1  414/62/1  397/63/1  396/64/1 
f  414/61/1  415/62/1  398/63/1  397/64/1 
f  415/61/1  416/62/1  399/63/1  398/64/1 
f  416/61/1  417/62/1  400/63/1  399/64/1 
f  417/61/1  418/62/1  401/63/1  400/64/1 
f  418/61/1  419/62/1  402/63/1  401/64/1 
f  419/61/1  420/62/1  403/63/1  402/64/1 
f  420/61/1  421/62/1  404/63/1  403/64/1 
f  421/61/1  422/62/1  405/63/1  404/64/1 
f  422/61/1  423/62/1  406/63/1  405/64/1 
f  423/61/1  424/62/1  407/63/1  406/64/1 
f  424/61/1  425/62/1  408/63/1  407/64/1 
f  425/61/1  426/62/1  409/63/1  408/64/1 
f  426/61/1  427/62/1  410/63/1  409/64/1 
