# Wavefront OBJ file automatically generated by Tiled2Unity

# Vertices (Count = 426)
v -3328 -704 0
v -3392 -704 0
v -3392 -640 0
v -3328 -640 0
v -3456 -704 0
v -3456 -640 0
v -3264 -768 0
v -3328 -768 0
v -3264 -704 0
v -3392 -768 0
v -3456 -768 0
v -3520 -768 0
v -3520 -704 0
v -3264 -832 0
v -3328 -832 0
v -3392 -832 0
v -3456 -832 0
v -3520 -832 0
v -3264 -896 0
v -3328 -896 0
v -3392 -896 0
v -3456 -896 0
v -3520 -896 0
v -3264 -960 0
v -3328 -960 0
v -3392 -960 0
v -3456 -960 0
v -3520 -960 0
v -3264 -1024 0
v -3328 -1024 0
v -3392 -1024 0
v -3456 -1024 0
v -3520 -1024 0
v -3584 -1024 0
v -3584 -960 0
v -3264 -1088 0
v -3328 -1088 0
v -3392 -1088 0
v -3456 -1088 0
v -3520 -1088 0
v -3584 -1088 0
v -3648 -1088 0
v -3648 -1024 0
v -3712 -1088 0
v -3712 -1024 0
v -3776 -1088 0
v -3776 -1024 0
v -3840 -1088 0
v -3840 -1024 0
v -3904 -1088 0
v -3904 -1024 0
v -3968 -1088 0
v -3968 -1024 0
v -3264 -1152 0
v -3328 -1152 0
v -3392 -1152 0
v -3456 -1152 0
v -3520 -1152 0
v -3584 -1152 0
v -3648 -1152 0
v -3712 -1152 0
v -3776 -1152 0
v -3840 -1152 0
v -3904 -1152 0
v -3968 -1152 0
v -3200 -1216 0
v -3264 -1216 0
v -3200 -1152 0
v -3328 -1216 0
v -3392 -1216 0
v -3456 -1216 0
v -3520 -1216 0
v -3584 -1216 0
v -3648 -1216 0
v -3712 -1216 0
v -3776 -1216 0
v -3840 -1216 0
v -3904 -1216 0
v -3968 -1216 0
v -3200 -1280 0
v -3264 -1280 0
v -3328 -1280 0
v -3392 -1280 0
v -3456 -1280 0
v -3520 -1280 0
v -3584 -1280 0
v -3648 -1280 0
v -3712 -1280 0
v -3776 -1280 0
v -3840 -1280 0
v -3904 -1280 0
v -3968 -1280 0
v -3200 -1344 0
v -3264 -1344 0
v -3328 -1344 0
v -3392 -1344 0
v -3456 -1344 0
v -3520 -1344 0
v -3584 -1344 0
v -3648 -1344 0
v -3712 -1344 0
v -3776 -1344 0
v -3840 -1344 0
v -3904 -1344 0
v -3968 -1344 0
v -3200 -1408 0
v -3264 -1408 0
v -3328 -1408 0
v -3392 -1408 0
v -3456 -1408 0
v -3520 -1408 0
v -3584 -1408 0
v -3648 -1408 0
v -3712 -1408 0
v -3776 -1408 0
v -3840 -1408 0
v -3904 -1408 0
v -3968 -1408 0
v -3136 -640 0
v -3200 -640 0
v -3200 -576 0
v -3136 -576 0
v -3264 -640 0
v -3264 -576 0
v -3328 -576 0
v -3520 -640 0
v -3520 -576 0
v -3456 -576 0
v -3584 -640 0
v -3584 -576 0
v -3648 -640 0
v -3648 -576 0
v -3136 -704 0
v -3200 -704 0
v -3584 -704 0
v -3648 -704 0
v -3136 -768 0
v -3200 -768 0
v -3584 -768 0
v -3648 -768 0
v -3136 -832 0
v -3200 -832 0
v -3584 -832 0
v -3648 -832 0
v -3136 -896 0
v -3200 -896 0
v -3584 -896 0
v -3648 -896 0
v -3712 -896 0
v -3712 -832 0
v -3136 -960 0
v -3200 -960 0
v -3648 -960 0
v -3712 -960 0
v -3776 -960 0
v -3776 -896 0
v -3840 -960 0
v -3840 -896 0
v -3904 -960 0
v -3904 -896 0
v -3968 -960 0
v -3968 -896 0
v -3136 -1024 0
v -3200 -1024 0
v -3136 -1088 0
v -3200 -1088 0
v -3136 -1152 0
v -3136 -1216 0
v -3008 -1472 0
v -3072 -1472 0
v -3072 -1408 0
v -3008 -1408 0
v -3136 -1472 0
v -3136 -1408 0
v -3200 -1472 0
v -3264 -1472 0
v -3328 -1472 0
v -3392 -1472 0
v -3456 -1472 0
v -3520 -1472 0
v -3584 -1472 0
v -3648 -1472 0
v -3712 -1472 0
v -3776 -1472 0
v -3840 -1472 0
v -3904 -1472 0
v -3968 -1472 0
v -2944 -1536 0
v -3008 -1536 0
v -2944 -1472 0
v -3072 -1536 0
v -3136 -1536 0
v -3200 -1536 0
v -3264 -1536 0
v -3328 -1536 0
v -3392 -1536 0
v -3456 -1536 0
v -3520 -1536 0
v -3584 -1536 0
v -3648 -1536 0
v -3712 -1536 0
v -3776 -1536 0
v -3840 -1536 0
v -3904 -1536 0
v -3968 -1536 0
v -2944 -1600 0
v -3008 -1600 0
v -3072 -1600 0
v -3136 -1600 0
v -3200 -1600 0
v -3264 -1600 0
v -3328 -1600 0
v -3392 -1600 0
v -3456 -1600 0
v -3520 -1600 0
v -3584 -1600 0
v -3648 -1600 0
v -3712 -1600 0
v -3776 -1600 0
v -3840 -1600 0
v -3904 -1600 0
v -3968 -1600 0
v -2944 -1664 0
v -3008 -1664 0
v -3072 -1664 0
v -3136 -1664 0
v -3200 -1664 0
v -3264 -1664 0
v -3328 -1664 0
v -3392 -1664 0
v -3456 -1664 0
v -3520 -1664 0
v -3584 -1664 0
v -3648 -1664 0
v -3712 -1664 0
v -3776 -1664 0
v -3840 -1664 0
v -3904 -1664 0
v -3968 -1664 0
v -2944 -1728 0
v -3008 -1728 0
v -3072 -1728 0
v -3136 -1728 0
v -3200 -1728 0
v -3264 -1728 0
v -3328 -1728 0
v -3392 -1728 0
v -3456 -1728 0
v -3520 -1728 0
v -3584 -1728 0
v -3648 -1728 0
v -3712 -1728 0
v -3776 -1728 0
v -3840 -1728 0
v -3904 -1728 0
v -3968 -1728 0
v -2944 -1792 0
v -3008 -1792 0
v -3072 -1792 0
v -3136 -1792 0
v -3200 -1792 0
v -3264 -1792 0
v -3328 -1792 0
v -3392 -1792 0
v -3456 -1792 0
v -3520 -1792 0
v -3584 -1792 0
v -3648 -1792 0
v -3712 -1792 0
v -3776 -1792 0
v -3840 -1792 0
v -3904 -1792 0
v -3968 -1792 0
v -2944 -1856 0
v -3008 -1856 0
v -3072 -1856 0
v -3136 -1856 0
v -3200 -1856 0
v -3264 -1856 0
v -3328 -1856 0
v -3392 -1856 0
v -3456 -1856 0
v -3520 -1856 0
v -3584 -1856 0
v -3648 -1856 0
v -3712 -1856 0
v -3776 -1856 0
v -3840 -1856 0
v -3904 -1856 0
v -3968 -1856 0
v -2944 -1920 0
v -3008 -1920 0
v -3072 -1920 0
v -3136 -1920 0
v -3200 -1920 0
v -3264 -1920 0
v -3328 -1920 0
v -3392 -1920 0
v -3456 -1920 0
v -3520 -1920 0
v -3584 -1920 0
v -3648 -1920 0
v -3712 -1920 0
v -3776 -1920 0
v -3840 -1920 0
v -3904 -1920 0
v -3968 -1920 0
v -2944 -1984 0
v -3008 -1984 0
v -3072 -1984 0
v -3136 -1984 0
v -3200 -1984 0
v -3264 -1984 0
v -3328 -1984 0
v -3392 -1984 0
v -3456 -1984 0
v -3520 -1984 0
v -3584 -1984 0
v -3648 -1984 0
v -3712 -1984 0
v -3776 -1984 0
v -3840 -1984 0
v -3904 -1984 0
v -3968 -1984 0
v -2944 -2048 0
v -3008 -2048 0
v -3072 -2048 0
v -3136 -2048 0
v -3200 -2048 0
v -3264 -2048 0
v -3328 -2048 0
v -3392 -2048 0
v -3456 -2048 0
v -3520 -2048 0
v -3584 -2048 0
v -3648 -2048 0
v -3712 -2048 0
v -3776 -2048 0
v -3840 -2048 0
v -3904 -2048 0
v -3968 -2048 0
v -2944 -2112 0
v -3008 -2112 0
v -3072 -2112 0
v -3136 -2112 0
v -3200 -2112 0
v -3264 -2112 0
v -3328 -2112 0
v -3392 -2112 0
v -3456 -2112 0
v -3520 -2112 0
v -3584 -2112 0
v -3648 -2112 0
v -3712 -2112 0
v -3776 -2112 0
v -3840 -2112 0
v -3904 -2112 0
v -3968 -2112 0
v -2944 -2176 0
v -3008 -2176 0
v -3072 -2176 0
v -3136 -2176 0
v -3200 -2176 0
v -3264 -2176 0
v -3328 -2176 0
v -3392 -2176 0
v -3456 -2176 0
v -3520 -2176 0
v -3584 -2176 0
v -3648 -2176 0
v -3712 -2176 0
v -3776 -2176 0
v -3840 -2176 0
v -3904 -2176 0
v -3968 -2176 0
v -2944 -2240 0
v -3008 -2240 0
v -3072 -2240 0
v -3136 -2240 0
v -3200 -2240 0
v -3264 -2240 0
v -3328 -2240 0
v -3392 -2240 0
v -3456 -2240 0
v -3520 -2240 0
v -3584 -2240 0
v -3648 -2240 0
v -3712 -2240 0
v -3776 -2240 0
v -3840 -2240 0
v -3904 -2240 0
v -3968 -2240 0
v -2944 -2304 0
v -3008 -2304 0
v -3072 -2304 0
v -3136 -2304 0
v -3200 -2304 0
v -3264 -2304 0
v -3328 -2304 0
v -3392 -2304 0
v -3456 -2304 0
v -3520 -2304 0
v -3584 -2304 0
v -3648 -2304 0
v -3712 -2304 0
v -3776 -2304 0
v -3840 -2304 0
v -3904 -2304 0
v -3968 -2304 0
v -2944 -2368 0
v -3008 -2368 0
v -3072 -2368 0
v -3136 -2368 0
v -3200 -2368 0
v -3264 -2368 0
v -3328 -2368 0
v -3392 -2368 0
v -3456 -2368 0
v -3520 -2368 0
v -3584 -2368 0
v -3648 -2368 0
v -3712 -2368 0
v -3776 -2368 0
v -3840 -2368 0
v -3904 -2368 0
v -3968 -2368 0

# Texture Coorindates (Count = 80)
vt 0.06262207 0.8126221
vt 0.1248779 0.8126221
vt 0.1248779 0.8748779
vt 0.06262207 0.8748779
vt 0.6876221 0.8126221
vt 0.7498779 0.8126221
vt 0.7498779 0.8748779
vt 0.6876221 0.8748779
vt 0.6251221 0.8126221
vt 0.6873779 0.8126221
vt 0.6873779 0.8748779
vt 0.6251221 0.8748779
vt 0.5001221 0.8126221
vt 0.5623779 0.8126221
vt 0.5623779 0.8748779
vt 0.5001221 0.8748779
vt 0.5626221 0.8126221
vt 0.6248779 0.8126221
vt 0.6248779 0.8748779
vt 0.5626221 0.8748779
vt 0.3751221 0.8751221
vt 0.4373779 0.8751221
vt 0.4373779 0.9373779
vt 0.3751221 0.9373779
vt 0.0001220703 0.8751221
vt 0.06237793 0.8751221
vt 0.06237793 0.9373779
vt 0.0001220703 0.9373779
vt 0.9376221 0.8751221
vt 0.9998779 0.8751221
vt 0.9998779 0.9373779
vt 0.9376221 0.9373779
vt 0.8751221 0.8751221
vt 0.9373779 0.8751221
vt 0.9373779 0.9373779
vt 0.8751221 0.9373779
vt 0.3126221 0.8751221
vt 0.3748779 0.8751221
vt 0.3748779 0.9373779
vt 0.3126221 0.9373779
vt 0.1876221 0.8751221
vt 0.2498779 0.8751221
vt 0.2498779 0.9373779
vt 0.1876221 0.9373779
vt 0.06262207 0.8751221
vt 0.1248779 0.8751221
vt 0.1248779 0.9373779
vt 0.06262207 0.9373779
vt 0.8126221 0.8751221
vt 0.8748779 0.8751221
vt 0.8748779 0.9373779
vt 0.8126221 0.9373779
vt 0.7501221 0.8751221
vt 0.8123779 0.8751221
vt 0.8123779 0.9373779
vt 0.7501221 0.9373779
vt 0.1251221 0.8751221
vt 0.1873779 0.8751221
vt 0.1873779 0.9373779
vt 0.1251221 0.9373779
vt 0.5001221 0.8751221
vt 0.5623779 0.8751221
vt 0.5623779 0.9373779
vt 0.5001221 0.9373779
vt 0.5626221 0.8751221
vt 0.6248779 0.8751221
vt 0.6248779 0.9373779
vt 0.5626221 0.9373779
vt 0.2501221 0.8751221
vt 0.3123779 0.8751221
vt 0.3123779 0.9373779
vt 0.2501221 0.9373779
vt 0.06262207 0.9376221
vt 0.1248779 0.9376221
vt 0.1248779 0.9998779
vt 0.06262207 0.9998779
vt 0.0001220703 0.9376221
vt 0.06237793 0.9376221
vt 0.06237793 0.9998779
vt 0.0001220703 0.9998779

# Normal
vn 0 0 -1

# Groups (Count = 2)
g mesh_[00]_[00]
f  1/1/1  2/2/1  3/3/1  4/4/1 
f  2/1/1  5/2/1  6/3/1  3/4/1 
f  7/1/1  8/2/1  1/3/1  9/4/1 
f  8/1/1  10/2/1  2/3/1  1/4/1 
f  10/1/1  11/2/1  5/3/1  2/4/1 
f  11/1/1  12/2/1  13/3/1  5/4/1 
f  14/1/1  15/2/1  8/3/1  7/4/1 
f  15/5/1  16/6/1  10/7/1  8/8/1 
f  16/5/1  17/6/1  11/7/1  10/8/1 
f  17/1/1  18/2/1  12/3/1  11/4/1 
f  19/1/1  20/2/1  15/3/1  14/4/1 
f  20/9/1  21/10/1  16/11/1  15/12/1 
f  21/9/1  22/10/1  17/11/1  16/12/1 
f  22/1/1  23/2/1  18/3/1  17/4/1 
f  24/1/1  25/2/1  20/3/1  19/4/1 
f  25/1/1  26/2/1  21/3/1  20/4/1 
f  26/1/1  27/2/1  22/3/1  21/4/1 
f  27/1/1  28/2/1  23/3/1  22/4/1 
f  29/1/1  30/2/1  25/3/1  24/4/1 
f  30/1/1  31/2/1  26/3/1  25/4/1 
f  31/1/1  32/2/1  27/3/1  26/4/1 
f  32/1/1  33/2/1  28/3/1  27/4/1 
f  33/1/1  34/2/1  35/3/1  28/4/1 
f  36/1/1  37/2/1  30/3/1  29/4/1 
f  37/1/1  38/2/1  31/3/1  30/4/1 
f  38/1/1  39/2/1  32/3/1  31/4/1 
f  39/1/1  40/2/1  33/3/1  32/4/1 
f  40/1/1  41/2/1  34/3/1  33/4/1 
f  41/1/1  42/2/1  43/3/1  34/4/1 
f  42/1/1  44/2/1  45/3/1  43/4/1 
f  44/13/1  46/14/1  47/15/1  45/16/1 
f  46/17/1  48/18/1  49/19/1  47/20/1 
f  48/1/1  50/2/1  51/3/1  49/4/1 
f  50/1/1  52/2/1  53/3/1  51/4/1 
f  54/1/1  55/2/1  37/3/1  36/4/1 
f  55/1/1  56/2/1  38/3/1  37/4/1 
f  56/1/1  57/2/1  39/3/1  38/4/1 
f  57/1/1  58/2/1  40/3/1  39/4/1 
f  58/1/1  59/2/1  41/3/1  40/4/1 
f  59/1/1  60/2/1  42/3/1  41/4/1 
f  60/1/1  61/2/1  44/3/1  42/4/1 
f  61/13/1  62/14/1  46/15/1  44/16/1 
f  62/17/1  63/18/1  48/19/1  46/20/1 
f  63/1/1  64/2/1  50/3/1  48/4/1 
f  64/1/1  65/2/1  52/3/1  50/4/1 
f  66/1/1  67/2/1  54/3/1  68/4/1 
f  67/1/1  69/2/1  55/3/1  54/4/1 
f  69/1/1  70/2/1  56/3/1  55/4/1 
f  70/1/1  71/2/1  57/3/1  56/4/1 
f  71/1/1  72/2/1  58/3/1  57/4/1 
f  72/1/1  73/2/1  59/3/1  58/4/1 
f  73/1/1  74/2/1  60/3/1  59/4/1 
f  74/1/1  75/2/1  61/3/1  60/4/1 
f  75/13/1  76/14/1  62/15/1  61/16/1 
f  76/17/1  77/18/1  63/19/1  62/20/1 
f  77/1/1  78/2/1  64/3/1  63/4/1 
f  78/1/1  79/2/1  65/3/1  64/4/1 
f  80/1/1  81/2/1  67/3/1  66/4/1 
f  81/1/1  82/2/1  69/3/1  67/4/1 
f  82/1/1  83/2/1  70/3/1  69/4/1 
f  83/1/1  84/2/1  71/3/1  70/4/1 
f  84/1/1  85/2/1  72/3/1  71/4/1 
f  85/1/1  86/2/1  73/3/1  72/4/1 
f  86/1/1  87/2/1  74/3/1  73/4/1 
f  87/1/1  88/2/1  75/3/1  74/4/1 
f  88/13/1  89/14/1  76/15/1  75/16/1 
f  89/17/1  90/18/1  77/19/1  76/20/1 
f  90/1/1  91/2/1  78/3/1  77/4/1 
f  91/1/1  92/2/1  79/3/1  78/4/1 
f  93/1/1  94/2/1  81/3/1  80/4/1 
f  94/1/1  95/2/1  82/3/1  81/4/1 
f  95/1/1  96/2/1  83/3/1  82/4/1 
f  96/1/1  97/2/1  84/3/1  83/4/1 
f  97/1/1  98/2/1  85/3/1  84/4/1 
f  98/1/1  99/2/1  86/3/1  85/4/1 
f  99/1/1  100/2/1  87/3/1  86/4/1 
f  100/1/1  101/2/1  88/3/1  87/4/1 
f  101/13/1  102/14/1  89/15/1  88/16/1 
f  102/17/1  103/18/1  90/19/1  89/20/1 
f  103/1/1  104/2/1  91/3/1  90/4/1 
f  104/1/1  105/2/1  92/3/1  91/4/1 
f  106/1/1  107/2/1  94/3/1  93/4/1 
f  107/1/1  108/2/1  95/3/1  94/4/1 
f  108/1/1  109/2/1  96/3/1  95/4/1 
f  109/1/1  110/2/1  97/3/1  96/4/1 
f  110/1/1  111/2/1  98/3/1  97/4/1 
f  111/1/1  112/2/1  99/3/1  98/4/1 
f  112/1/1  113/2/1  100/3/1  99/4/1 
f  113/1/1  114/2/1  101/3/1  100/4/1 
f  114/13/1  115/14/1  102/15/1  101/16/1 
f  115/17/1  116/18/1  103/19/1  102/20/1 
f  116/1/1  117/2/1  104/3/1  103/4/1 
f  117/1/1  118/2/1  105/3/1  104/4/1 
g mesh_[01]_[00]
f  119/21/1  120/22/1  121/23/1  122/24/1 
f  120/25/1  123/26/1  124/27/1  121/28/1 
f  123/29/1  4/30/1  125/31/1  124/32/1 
f  6/33/1  126/34/1  127/35/1  128/36/1 
f  126/25/1  129/26/1  130/27/1  127/28/1 
f  129/37/1  131/38/1  132/39/1  130/40/1 
f  133/41/1  134/42/1  120/43/1  119/44/1 
f  134/45/1  9/46/1  123/47/1  120/48/1 
f  9/49/1  1/50/1  4/51/1  123/52/1 
f  5/53/1  13/54/1  126/55/1  6/56/1 
f  13/45/1  135/46/1  129/47/1  126/48/1 
f  135/57/1  136/58/1  131/59/1  129/60/1 
f  137/41/1  138/42/1  134/43/1  133/44/1 
f  138/57/1  7/58/1  9/59/1  134/60/1 
f  12/41/1  139/42/1  135/43/1  13/44/1 
f  139/57/1  140/58/1  136/59/1  135/60/1 
f  141/41/1  142/42/1  138/43/1  137/44/1 
f  142/57/1  14/58/1  7/59/1  138/60/1 
f  18/41/1  143/42/1  139/43/1  12/44/1 
f  143/57/1  144/58/1  140/59/1  139/60/1 
f  145/41/1  146/42/1  142/43/1  141/44/1 
f  146/57/1  19/58/1  14/59/1  142/60/1 
f  23/41/1  147/42/1  143/43/1  18/44/1 
f  147/45/1  148/46/1  144/47/1  143/48/1 
f  148/29/1  149/30/1  150/31/1  144/32/1 
f  151/41/1  152/42/1  146/43/1  145/44/1 
f  152/57/1  24/58/1  19/59/1  146/60/1 
f  28/41/1  35/42/1  147/43/1  23/44/1 
f  35/45/1  153/46/1  148/47/1  147/48/1 
f  153/45/1  154/46/1  149/47/1  148/48/1 
f  154/25/1  155/26/1  156/27/1  149/28/1 
f  155/25/1  157/26/1  158/27/1  156/28/1 
f  157/25/1  159/26/1  160/27/1  158/28/1 
f  159/25/1  161/26/1  162/27/1  160/28/1 
f  163/41/1  164/42/1  152/43/1  151/44/1 
f  164/57/1  29/58/1  24/59/1  152/60/1 
f  30/61/1  31/62/1  26/63/1  25/64/1 
f  31/65/1  32/66/1  27/67/1  26/68/1 
f  33/53/1  34/54/1  35/55/1  28/56/1 
f  34/69/1  43/70/1  153/71/1  35/72/1 
f  43/69/1  45/70/1  154/71/1  153/72/1 
f  45/69/1  47/70/1  155/71/1  154/72/1 
f  47/69/1  49/70/1  157/71/1  155/72/1 
f  49/69/1  51/70/1  159/71/1  157/72/1 
f  51/69/1  53/70/1  161/71/1  159/72/1 
f  165/41/1  166/42/1  164/43/1  163/44/1 
f  166/57/1  36/58/1  29/59/1  164/60/1 
f  167/41/1  68/42/1  166/43/1  165/44/1 
f  68/57/1  54/58/1  36/59/1  166/60/1 
f  168/53/1  66/54/1  68/55/1  167/56/1 
f  66/49/1  67/50/1  54/51/1  68/52/1 
f  111/33/1  112/34/1  99/35/1  98/36/1 
f  112/25/1  113/26/1  100/27/1  99/28/1 
f  113/29/1  114/30/1  101/31/1  100/32/1 
f  169/21/1  170/22/1  171/23/1  172/24/1 
f  170/25/1  173/26/1  174/27/1  171/28/1 
f  173/25/1  175/26/1  106/27/1  174/28/1 
f  175/25/1  176/26/1  107/27/1  106/28/1 
f  176/25/1  177/26/1  108/27/1  107/28/1 
f  177/25/1  178/26/1  109/27/1  108/28/1 
f  178/25/1  179/26/1  110/27/1  109/28/1 
f  179/25/1  180/26/1  111/27/1  110/28/1 
f  180/45/1  181/46/1  112/47/1  111/48/1 
f  181/45/1  182/46/1  113/47/1  112/48/1 
f  182/45/1  183/46/1  114/47/1  113/48/1 
f  183/25/1  184/26/1  115/27/1  114/28/1 
f  184/25/1  185/26/1  116/27/1  115/28/1 
f  185/25/1  186/26/1  117/27/1  116/28/1 
f  186/25/1  187/26/1  118/27/1  117/28/1 
f  188/73/1  189/74/1  169/75/1  190/76/1 
f  189/73/1  191/74/1  170/75/1  169/76/1 
f  191/73/1  192/74/1  173/75/1  170/76/1 
f  192/73/1  193/74/1  175/75/1  173/76/1 
f  193/73/1  194/74/1  176/75/1  175/76/1 
f  194/73/1  195/74/1  177/75/1  176/76/1 
f  195/73/1  196/74/1  178/75/1  177/76/1 
f  196/73/1  197/74/1  179/75/1  178/76/1 
f  197/73/1  198/74/1  180/75/1  179/76/1 
f  198/73/1  199/74/1  181/75/1  180/76/1 
f  199/73/1  200/74/1  182/75/1  181/76/1 
f  200/73/1  201/74/1  183/75/1  182/76/1 
f  201/73/1  202/74/1  184/75/1  183/76/1 
f  202/73/1  203/74/1  185/75/1  184/76/1 
f  203/73/1  204/74/1  186/75/1  185/76/1 
f  204/73/1  205/74/1  187/75/1  186/76/1 
f  206/77/1  207/78/1  189/79/1  188/80/1 
f  207/77/1  208/78/1  191/79/1  189/80/1 
f  208/77/1  209/78/1  192/79/1  191/80/1 
f  209/77/1  210/78/1  193/79/1  192/80/1 
f  210/77/1  211/78/1  194/79/1  193/80/1 
f  211/77/1  212/78/1  195/79/1  194/80/1 
f  212/77/1  213/78/1  196/79/1  195/80/1 
f  213/77/1  214/78/1  197/79/1  196/80/1 
f  214/77/1  215/78/1  198/79/1  197/80/1 
f  215/77/1  216/78/1  199/79/1  198/80/1 
f  216/77/1  217/78/1  200/79/1  199/80/1 
f  217/77/1  218/78/1  201/79/1  200/80/1 
f  218/77/1  219/78/1  202/79/1  201/80/1 
f  219/77/1  220/78/1  203/79/1  202/80/1 
f  220/77/1  221/78/1  204/79/1  203/80/1 
f  221/77/1  222/78/1  205/79/1  204/80/1 
f  223/77/1  224/78/1  207/79/1  206/80/1 
f  224/77/1  225/78/1  208/79/1  207/80/1 
f  225/77/1  226/78/1  209/79/1  208/80/1 
f  226/77/1  227/78/1  210/79/1  209/80/1 
f  227/77/1  228/78/1  211/79/1  210/80/1 
f  228/77/1  229/78/1  212/79/1  211/80/1 
f  229/77/1  230/78/1  213/79/1  212/80/1 
f  230/77/1  231/78/1  214/79/1  213/80/1 
f  231/77/1  232/78/1  215/79/1  214/80/1 
f  232/77/1  233/78/1  216/79/1  215/80/1 
f  233/77/1  234/78/1  217/79/1  216/80/1 
f  234/77/1  235/78/1  218/79/1  217/80/1 
f  235/77/1  236/78/1  219/79/1  218/80/1 
f  236/77/1  237/78/1  220/79/1  219/80/1 
f  237/77/1  238/78/1  221/79/1  220/80/1 
f  238/77/1  239/78/1  222/79/1  221/80/1 
f  240/77/1  241/78/1  224/79/1  223/80/1 
f  241/77/1  242/78/1  225/79/1  224/80/1 
f  242/77/1  243/78/1  226/79/1  225/80/1 
f  243/77/1  244/78/1  227/79/1  226/80/1 
f  244/77/1  245/78/1  228/79/1  227/80/1 
f  245/77/1  246/78/1  229/79/1  228/80/1 
f  246/77/1  247/78/1  230/79/1  229/80/1 
f  247/77/1  248/78/1  231/79/1  230/80/1 
f  248/77/1  249/78/1  232/79/1  231/80/1 
f  249/77/1  250/78/1  233/79/1  232/80/1 
f  250/77/1  251/78/1  234/79/1  233/80/1 
f  251/77/1  252/78/1  235/79/1  234/80/1 
f  252/77/1  253/78/1  236/79/1  235/80/1 
f  253/77/1  254/78/1  237/79/1  236/80/1 
f  254/77/1  255/78/1  238/79/1  237/80/1 
f  255/77/1  256/78/1  239/79/1  238/80/1 
f  257/77/1  258/78/1  241/79/1  240/80/1 
f  258/77/1  259/78/1  242/79/1  241/80/1 
f  259/77/1  260/78/1  243/79/1  242/80/1 
f  260/77/1  261/78/1  244/79/1  243/80/1 
f  261/77/1  262/78/1  245/79/1  244/80/1 
f  262/77/1  263/78/1  246/79/1  245/80/1 
f  263/77/1  264/78/1  247/79/1  246/80/1 
f  264/77/1  265/78/1  248/79/1  247/80/1 
f  265/77/1  266/78/1  249/79/1  248/80/1 
f  266/77/1  267/78/1  250/79/1  249/80/1 
f  267/77/1  268/78/1  251/79/1  250/80/1 
f  268/77/1  269/78/1  252/79/1  251/80/1 
f  269/77/1  270/78/1  253/79/1  252/80/1 
f  270/77/1  271/78/1  254/79/1  253/80/1 
f  271/77/1  272/78/1  255/79/1  254/80/1 
f  272/77/1  273/78/1  256/79/1  255/80/1 
f  274/77/1  275/78/1  258/79/1  257/80/1 
f  275/77/1  276/78/1  259/79/1  258/80/1 
f  276/77/1  277/78/1  260/79/1  259/80/1 
f  277/77/1  278/78/1  261/79/1  260/80/1 
f  278/77/1  279/78/1  262/79/1  261/80/1 
f  279/77/1  280/78/1  263/79/1  262/80/1 
f  280/77/1  281/78/1  264/79/1  263/80/1 
f  281/77/1  282/78/1  265/79/1  264/80/1 
f  282/77/1  283/78/1  266/79/1  265/80/1 
f  283/77/1  284/78/1  267/79/1  266/80/1 
f  284/77/1  285/78/1  268/79/1  267/80/1 
f  285/77/1  286/78/1  269/79/1  268/80/1 
f  286/77/1  287/78/1  270/79/1  269/80/1 
f  287/77/1  288/78/1  271/79/1  270/80/1 
f  288/77/1  289/78/1  272/79/1  271/80/1 
f  289/77/1  290/78/1  273/79/1  272/80/1 
f  291/77/1  292/78/1  275/79/1  274/80/1 
f  292/77/1  293/78/1  276/79/1  275/80/1 
f  293/77/1  294/78/1  277/79/1  276/80/1 
f  294/77/1  295/78/1  278/79/1  277/80/1 
f  295/77/1  296/78/1  279/79/1  278/80/1 
f  296/77/1  297/78/1  280/79/1  279/80/1 
f  297/77/1  298/78/1  281/79/1  280/80/1 
f  298/77/1  299/78/1  282/79/1  281/80/1 
f  299/77/1  300/78/1  283/79/1  282/80/1 
f  300/77/1  301/78/1  284/79/1  283/80/1 
f  301/77/1  302/78/1  285/79/1  284/80/1 
f  302/77/1  303/78/1  286/79/1  285/80/1 
f  303/77/1  304/78/1  287/79/1  286/80/1 
f  304/77/1  305/78/1  288/79/1  287/80/1 
f  305/77/1  306/78/1  289/79/1  288/80/1 
f  306/77/1  307/78/1  290/79/1  289/80/1 
f  308/77/1  309/78/1  292/79/1  291/80/1 
f  309/77/1  310/78/1  293/79/1  292/80/1 
f  310/77/1  311/78/1  294/79/1  293/80/1 
f  311/77/1  312/78/1  295/79/1  294/80/1 
f  312/77/1  313/78/1  296/79/1  295/80/1 
f  313/77/1  314/78/1  297/79/1  296/80/1 
f  314/77/1  315/78/1  298/79/1  297/80/1 
f  315/77/1  316/78/1  299/79/1  298/80/1 
f  316/77/1  317/78/1  300/79/1  299/80/1 
f  317/77/1  318/78/1  301/79/1  300/80/1 
f  318/77/1  319/78/1  302/79/1  301/80/1 
f  319/77/1  320/78/1  303/79/1  302/80/1 
f  320/77/1  321/78/1  304/79/1  303/80/1 
f  321/77/1  322/78/1  305/79/1  304/80/1 
f  322/77/1  323/78/1  306/79/1  305/80/1 
f  323/77/1  324/78/1  307/79/1  306/80/1 
f  325/77/1  326/78/1  309/79/1  308/80/1 
f  326/77/1  327/78/1  310/79/1  309/80/1 
f  327/77/1  328/78/1  311/79/1  310/80/1 
f  328/77/1  329/78/1  312/79/1  311/80/1 
f  329/77/1  330/78/1  313/79/1  312/80/1 
f  330/77/1  331/78/1  314/79/1  313/80/1 
f  331/77/1  332/78/1  315/79/1  314/80/1 
f  332/77/1  333/78/1  316/79/1  315/80/1 
f  333/77/1  334/78/1  317/79/1  316/80/1 
f  334/77/1  335/78/1  318/79/1  317/80/1 
f  335/77/1  336/78/1  319/79/1  318/80/1 
f  336/77/1  337/78/1  320/79/1  319/80/1 
f  337/77/1  338/78/1  321/79/1  320/80/1 
f  338/77/1  339/78/1  322/79/1  321/80/1 
f  339/77/1  340/78/1  323/79/1  322/80/1 
f  340/77/1  341/78/1  324/79/1  323/80/1 
f  342/77/1  343/78/1  326/79/1  325/80/1 
f  343/77/1  344/78/1  327/79/1  326/80/1 
f  344/77/1  345/78/1  328/79/1  327/80/1 
f  345/77/1  346/78/1  329/79/1  328/80/1 
f  346/77/1  347/78/1  330/79/1  329/80/1 
f  347/77/1  348/78/1  331/79/1  330/80/1 
f  348/77/1  349/78/1  332/79/1  331/80/1 
f  349/77/1  350/78/1  333/79/1  332/80/1 
f  350/77/1  351/78/1  334/79/1  333/80/1 
f  351/77/1  352/78/1  335/79/1  334/80/1 
f  352/77/1  353/78/1  336/79/1  335/80/1 
f  353/77/1  354/78/1  337/79/1  336/80/1 
f  354/77/1  355/78/1  338/79/1  337/80/1 
f  355/77/1  356/78/1  339/79/1  338/80/1 
f  356/77/1  357/78/1  340/79/1  339/80/1 
f  357/77/1  358/78/1  341/79/1  340/80/1 
f  359/77/1  360/78/1  343/79/1  342/80/1 
f  360/77/1  361/78/1  344/79/1  343/80/1 
f  361/77/1  362/78/1  345/79/1  344/80/1 
f  362/77/1  363/78/1  346/79/1  345/80/1 
f  363/77/1  364/78/1  347/79/1  346/80/1 
f  364/77/1  365/78/1  348/79/1  347/80/1 
f  365/77/1  366/78/1  349/79/1  348/80/1 
f  366/77/1  367/78/1  350/79/1  349/80/1 
f  367/77/1  368/78/1  351/79/1  350/80/1 
f  368/77/1  369/78/1  352/79/1  351/80/1 
f  369/77/1  370/78/1  353/79/1  352/80/1 
f  370/77/1  371/78/1  354/79/1  353/80/1 
f  371/77/1  372/78/1  355/79/1  354/80/1 
f  372/77/1  373/78/1  356/79/1  355/80/1 
f  373/77/1  374/78/1  357/79/1  356/80/1 
f  374/77/1  375/78/1  358/79/1  357/80/1 
f  376/77/1  377/78/1  360/79/1  359/80/1 
f  377/77/1  378/78/1  361/79/1  360/80/1 
f  378/77/1  379/78/1  362/79/1  361/80/1 
f  379/77/1  380/78/1  363/79/1  362/80/1 
f  380/77/1  381/78/1  364/79/1  363/80/1 
f  381/77/1  382/78/1  365/79/1  364/80/1 
f  382/77/1  383/78/1  366/79/1  365/80/1 
f  383/77/1  384/78/1  367/79/1  366/80/1 
f  384/77/1  385/78/1  368/79/1  367/80/1 
f  385/77/1  386/78/1  369/79/1  368/80/1 
f  386/77/1  387/78/1  370/79/1  369/80/1 
f  387/77/1  388/78/1  371/79/1  370/80/1 
f  388/77/1  389/78/1  372/79/1  371/80/1 
f  389/77/1  390/78/1  373/79/1  372/80/1 
f  390/77/1  391/78/1  374/79/1  373/80/1 
f  391/77/1  392/78/1  375/79/1  374/80/1 
f  393/77/1  394/78/1  377/79/1  376/80/1 
f  394/77/1  395/78/1  378/79/1  377/80/1 
f  395/77/1  396/78/1  379/79/1  378/80/1 
f  396/77/1  397/78/1  380/79/1  379/80/1 
f  397/77/1  398/78/1  381/79/1  380/80/1 
f  398/77/1  399/78/1  382/79/1  381/80/1 
f  399/77/1  400/78/1  383/79/1  382/80/1 
f  400/77/1  401/78/1  384/79/1  383/80/1 
f  401/77/1  402/78/1  385/79/1  384/80/1 
f  402/77/1  403/78/1  386/79/1  385/80/1 
f  403/77/1  404/78/1  387/79/1  386/80/1 
f  404/77/1  405/78/1  388/79/1  387/80/1 
f  405/77/1  406/78/1  389/79/1  388/80/1 
f  406/77/1  407/78/1  390/79/1  389/80/1 
f  407/77/1  408/78/1  391/79/1  390/80/1 
f  408/77/1  409/78/1  392/79/1  391/80/1 
f  410/77/1  411/78/1  394/79/1  393/80/1 
f  411/77/1  412/78/1  395/79/1  394/80/1 
f  412/77/1  413/78/1  396/79/1  395/80/1 
f  413/77/1  414/78/1  397/79/1  396/80/1 
f  414/77/1  415/78/1  398/79/1  397/80/1 
f  415/77/1  416/78/1  399/79/1  398/80/1 
f  416/77/1  417/78/1  400/79/1  399/80/1 
f  417/77/1  418/78/1  401/79/1  400/80/1 
f  418/77/1  419/78/1  402/79/1  401/80/1 
f  419/77/1  420/78/1  403/79/1  402/80/1 
f  420/77/1  421/78/1  404/79/1  403/80/1 
f  421/77/1  422/78/1  405/79/1  404/80/1 
f  422/77/1  423/78/1  406/79/1  405/80/1 
f  423/77/1  424/78/1  407/79/1  406/80/1 
f  424/77/1  425/78/1  408/79/1  407/80/1 
f  425/77/1  426/78/1  409/79/1  408/80/1 
