# Wavefront OBJ file automatically generated by Tiled2Unity

# Vertices (Count = 188)
v -5888 -1408 0
v -5952 -1408 0
v -5952 -1344 0
v -5888 -1344 0
v -6016 -1408 0
v -6016 -1344 0
v -6080 -1408 0
v -6080 -1344 0
v -6144 -1408 0
v -6144 -1344 0
v -6208 -1408 0
v -6208 -1344 0
v -6272 -1408 0
v -6272 -1344 0
v -6336 -1408 0
v -6336 -1344 0
v -5824 -1472 0
v -5888 -1472 0
v -5824 -1408 0
v -5248 -1600 0
v -5312 -1600 0
v -5312 -1536 0
v -5248 -1536 0
v -5376 -1600 0
v -5376 -1536 0
v -5440 -1600 0
v -5440 -1536 0
v -5504 -1600 0
v -5504 -1536 0
v -5568 -1600 0
v -5568 -1536 0
v -5632 -1600 0
v -5632 -1536 0
v -5696 -1600 0
v -5696 -1536 0
v -5760 -1600 0
v -5760 -1536 0
v -5824 -1600 0
v -5824 -1536 0
v -5248 -1920 0
v -5312 -1920 0
v -5312 -1856 0
v -5248 -1856 0
v -5376 -1920 0
v -5376 -1856 0
v -5440 -1920 0
v -5440 -1856 0
v -5504 -1920 0
v -5504 -1856 0
v -5568 -1920 0
v -5568 -1856 0
v -5632 -1920 0
v -5632 -1856 0
v -5696 -1920 0
v -5696 -1856 0
v -5760 -1920 0
v -5760 -1856 0
v -5824 -1920 0
v -5824 -1856 0
v -5888 -1920 0
v -5888 -1856 0
v -5952 -1920 0
v -5952 -1856 0
v -6016 -1920 0
v -6016 -1856 0
v -6080 -1920 0
v -6080 -1856 0
v -6144 -1920 0
v -6144 -1856 0
v -6208 -1920 0
v -6208 -1856 0
v -6272 -1920 0
v -6272 -1856 0
v -6336 -1920 0
v -6336 -1856 0
v -5248 -1984 0
v -5312 -1984 0
v -5376 -1984 0
v -5440 -1984 0
v -5504 -1984 0
v -5568 -1984 0
v -5632 -1984 0
v -5696 -1984 0
v -5760 -1984 0
v -5824 -1984 0
v -5888 -1984 0
v -5952 -1984 0
v -6016 -1984 0
v -6080 -1984 0
v -6144 -1984 0
v -6208 -1984 0
v -6272 -1984 0
v -6336 -1984 0
v -5248 -2048 0
v -5312 -2048 0
v -5376 -2048 0
v -5440 -2048 0
v -5504 -2048 0
v -5568 -2048 0
v -5632 -2048 0
v -5696 -2048 0
v -5760 -2048 0
v -5824 -2048 0
v -5888 -2048 0
v -5952 -2048 0
v -6016 -2048 0
v -6080 -2048 0
v -6144 -2048 0
v -6208 -2048 0
v -6272 -2048 0
v -6336 -2048 0
v -5952 -1472 0
v -6016 -1472 0
v -6080 -1472 0
v -6144 -1472 0
v -6208 -1472 0
v -6272 -1472 0
v -6336 -1472 0
v -5888 -1536 0
v -5952 -1536 0
v -6016 -1536 0
v -6080 -1536 0
v -6144 -1536 0
v -6208 -1536 0
v -6272 -1536 0
v -6336 -1536 0
v -5888 -1600 0
v -5952 -1600 0
v -6016 -1600 0
v -6080 -1600 0
v -6144 -1600 0
v -6208 -1600 0
v -6272 -1600 0
v -6336 -1600 0
v -5248 -1664 0
v -5312 -1664 0
v -5376 -1664 0
v -5440 -1664 0
v -5504 -1664 0
v -5568 -1664 0
v -5632 -1664 0
v -5696 -1664 0
v -5760 -1664 0
v -5824 -1664 0
v -5888 -1664 0
v -5952 -1664 0
v -6016 -1664 0
v -6080 -1664 0
v -6144 -1664 0
v -6208 -1664 0
v -6272 -1664 0
v -6336 -1664 0
v -5248 -1728 0
v -5312 -1728 0
v -5376 -1728 0
v -5440 -1728 0
v -5504 -1728 0
v -5568 -1728 0
v -5632 -1728 0
v -5696 -1728 0
v -5760 -1728 0
v -5824 -1728 0
v -5888 -1728 0
v -5952 -1728 0
v -6016 -1728 0
v -6080 -1728 0
v -6144 -1728 0
v -6208 -1728 0
v -6272 -1728 0
v -6336 -1728 0
v -5248 -1792 0
v -5312 -1792 0
v -5376 -1792 0
v -5440 -1792 0
v -5504 -1792 0
v -5568 -1792 0
v -5632 -1792 0
v -5696 -1792 0
v -5760 -1792 0
v -5824 -1792 0
v -5888 -1792 0
v -5952 -1792 0
v -6016 -1792 0
v -6080 -1792 0
v -6144 -1792 0
v -6208 -1792 0
v -6272 -1792 0
v -6336 -1792 0

# Texture Coorindates (Count = 36)
vt 0.3126221 0.8126221
vt 0.3748779 0.8126221
vt 0.3748779 0.8748779
vt 0.3126221 0.8748779
vt 0.2501221 0.8126221
vt 0.3123779 0.8126221
vt 0.3123779 0.8748779
vt 0.2501221 0.8748779
vt 0.1251221 0.8126221
vt 0.1873779 0.8126221
vt 0.1873779 0.8748779
vt 0.1251221 0.8748779
vt 0.1876221 0.8126221
vt 0.2498779 0.8126221
vt 0.2498779 0.8748779
vt 0.1876221 0.8748779
vt 0.0001220703 0.9376221
vt 0.06237793 0.9376221
vt 0.06237793 0.9998779
vt 0.0001220703 0.9998779
vt 0.3751221 0.9376221
vt 0.4373779 0.9376221
vt 0.4373779 0.9998779
vt 0.3751221 0.9998779
vt 0.06262207 0.9376221
vt 0.1248779 0.9376221
vt 0.1248779 0.9998779
vt 0.06262207 0.9998779
vt 0.1876221 0.9376221
vt 0.2498779 0.9376221
vt 0.2498779 0.9998779
vt 0.1876221 0.9998779
vt 0.8126221 0.9376221
vt 0.8748779 0.9376221
vt 0.8748779 0.9998779
vt 0.8126221 0.9998779

# Normal
vn 0 0 -1

# Groups (Count = 2)
g mesh_[00]_[00]
f  1/1/1  2/2/1  3/3/1  4/4/1 
f  2/5/1  5/6/1  6/7/1  3/8/1 
f  5/9/1  7/10/1  8/11/1  6/12/1 
f  7/1/1  9/2/1  10/3/1  8/4/1 
f  9/1/1  11/2/1  12/3/1  10/4/1 
f  11/9/1  13/10/1  14/11/1  12/12/1 
f  13/1/1  15/2/1  16/3/1  14/4/1 
f  17/9/1  18/10/1  1/11/1  19/12/1 
f  20/5/1  21/6/1  22/7/1  23/8/1 
f  21/1/1  24/2/1  25/3/1  22/4/1 
f  24/1/1  26/2/1  27/3/1  25/4/1 
f  26/13/1  28/14/1  29/15/1  27/16/1 
f  28/5/1  30/6/1  31/7/1  29/8/1 
f  30/5/1  32/6/1  33/7/1  31/8/1 
f  32/9/1  34/10/1  35/11/1  33/12/1 
f  34/1/1  36/2/1  37/3/1  35/4/1 
f  36/1/1  38/2/1  39/3/1  37/4/1 
f  40/17/1  41/18/1  42/19/1  43/20/1 
f  41/17/1  44/18/1  45/19/1  42/20/1 
f  44/17/1  46/18/1  47/19/1  45/20/1 
f  46/17/1  48/18/1  49/19/1  47/20/1 
f  48/17/1  50/18/1  51/19/1  49/20/1 
f  50/17/1  52/18/1  53/19/1  51/20/1 
f  52/17/1  54/18/1  55/19/1  53/20/1 
f  54/17/1  56/18/1  57/19/1  55/20/1 
f  56/17/1  58/18/1  59/19/1  57/20/1 
f  58/17/1  60/18/1  61/19/1  59/20/1 
f  60/17/1  62/18/1  63/19/1  61/20/1 
f  62/17/1  64/18/1  65/19/1  63/20/1 
f  64/17/1  66/18/1  67/19/1  65/20/1 
f  66/17/1  68/18/1  69/19/1  67/20/1 
f  68/17/1  70/18/1  71/19/1  69/20/1 
f  70/17/1  72/18/1  73/19/1  71/20/1 
f  72/17/1  74/18/1  75/19/1  73/20/1 
f  76/17/1  77/18/1  41/19/1  40/20/1 
f  77/17/1  78/18/1  44/19/1  41/20/1 
f  78/17/1  79/18/1  46/19/1  44/20/1 
f  79/17/1  80/18/1  48/19/1  46/20/1 
f  80/17/1  81/18/1  50/19/1  48/20/1 
f  81/17/1  82/18/1  52/19/1  50/20/1 
f  82/17/1  83/18/1  54/19/1  52/20/1 
f  83/17/1  84/18/1  56/19/1  54/20/1 
f  84/17/1  85/18/1  58/19/1  56/20/1 
f  85/17/1  86/18/1  60/19/1  58/20/1 
f  86/17/1  87/18/1  62/19/1  60/20/1 
f  87/17/1  88/18/1  64/19/1  62/20/1 
f  88/17/1  89/18/1  66/19/1  64/20/1 
f  89/17/1  90/18/1  68/19/1  66/20/1 
f  90/17/1  91/18/1  70/19/1  68/20/1 
f  91/17/1  92/18/1  72/19/1  70/20/1 
f  92/17/1  93/18/1  74/19/1  72/20/1 
f  94/17/1  95/18/1  77/19/1  76/20/1 
f  95/17/1  96/18/1  78/19/1  77/20/1 
f  96/17/1  97/18/1  79/19/1  78/20/1 
f  97/17/1  98/18/1  80/19/1  79/20/1 
f  98/17/1  99/18/1  81/19/1  80/20/1 
f  99/17/1  100/18/1  82/19/1  81/20/1 
f  100/17/1  101/18/1  83/19/1  82/20/1 
f  101/17/1  102/18/1  84/19/1  83/20/1 
f  102/17/1  103/18/1  85/19/1  84/20/1 
f  103/17/1  104/18/1  86/19/1  85/20/1 
f  104/17/1  105/18/1  87/19/1  86/20/1 
f  105/17/1  106/18/1  88/19/1  87/20/1 
f  106/17/1  107/18/1  89/19/1  88/20/1 
f  107/17/1  108/18/1  90/19/1  89/20/1 
f  108/17/1  109/18/1  91/19/1  90/20/1 
f  109/17/1  110/18/1  92/19/1  91/20/1 
f  110/17/1  111/18/1  93/19/1  92/20/1 
g mesh_[01]_[00]
f  17/21/1  18/22/1  1/23/1  19/24/1 
f  18/25/1  112/26/1  2/27/1  1/28/1 
f  112/25/1  113/26/1  5/27/1  2/28/1 
f  113/25/1  114/26/1  7/27/1  5/28/1 
f  114/25/1  115/26/1  9/27/1  7/28/1 
f  115/25/1  116/26/1  11/27/1  9/28/1 
f  116/25/1  117/26/1  13/27/1  11/28/1 
f  117/25/1  118/26/1  15/27/1  13/28/1 
f  39/29/1  119/30/1  18/31/1  17/32/1 
f  119/17/1  120/18/1  112/19/1  18/20/1 
f  120/17/1  121/18/1  113/19/1  112/20/1 
f  121/17/1  122/18/1  114/19/1  113/20/1 
f  122/17/1  123/18/1  115/19/1  114/20/1 
f  123/17/1  124/18/1  116/19/1  115/20/1 
f  124/17/1  125/18/1  117/19/1  116/20/1 
f  125/17/1  126/18/1  118/19/1  117/20/1 
f  36/21/1  38/22/1  39/23/1  37/24/1 
f  38/33/1  127/34/1  119/35/1  39/36/1 
f  127/17/1  128/18/1  120/19/1  119/20/1 
f  128/17/1  129/18/1  121/19/1  120/20/1 
f  129/17/1  130/18/1  122/19/1  121/20/1 
f  130/17/1  131/18/1  123/19/1  122/20/1 
f  131/17/1  132/18/1  124/19/1  123/20/1 
f  132/17/1  133/18/1  125/19/1  124/20/1 
f  133/17/1  134/18/1  126/19/1  125/20/1 
f  135/25/1  136/26/1  21/27/1  20/28/1 
f  136/25/1  137/26/1  24/27/1  21/28/1 
f  137/25/1  138/26/1  26/27/1  24/28/1 
f  138/25/1  139/26/1  28/27/1  26/28/1 
f  139/25/1  140/26/1  30/27/1  28/28/1 
f  140/25/1  141/26/1  32/27/1  30/28/1 
f  141/25/1  142/26/1  34/27/1  32/28/1 
f  142/25/1  143/26/1  36/27/1  34/28/1 
f  143/33/1  144/34/1  38/35/1  36/36/1 
f  144/17/1  145/18/1  127/19/1  38/20/1 
f  145/17/1  146/18/1  128/19/1  127/20/1 
f  146/17/1  147/18/1  129/19/1  128/20/1 
f  147/17/1  148/18/1  130/19/1  129/20/1 
f  148/17/1  149/18/1  131/19/1  130/20/1 
f  149/17/1  150/18/1  132/19/1  131/20/1 
f  150/17/1  151/18/1  133/19/1  132/20/1 
f  151/17/1  152/18/1  134/19/1  133/20/1 
f  153/17/1  154/18/1  136/19/1  135/20/1 
f  154/17/1  155/18/1  137/19/1  136/20/1 
f  155/17/1  156/18/1  138/19/1  137/20/1 
f  156/17/1  157/18/1  139/19/1  138/20/1 
f  157/17/1  158/18/1  140/19/1  139/20/1 
f  158/17/1  159/18/1  141/19/1  140/20/1 
f  159/17/1  160/18/1  142/19/1  141/20/1 
f  160/17/1  161/18/1  143/19/1  142/20/1 
f  161/17/1  162/18/1  144/19/1  143/20/1 
f  162/17/1  163/18/1  145/19/1  144/20/1 
f  163/17/1  164/18/1  146/19/1  145/20/1 
f  164/17/1  165/18/1  147/19/1  146/20/1 
f  165/17/1  166/18/1  148/19/1  147/20/1 
f  166/17/1  167/18/1  149/19/1  148/20/1 
f  167/17/1  168/18/1  150/19/1  149/20/1 
f  168/17/1  169/18/1  151/19/1  150/20/1 
f  169/17/1  170/18/1  152/19/1  151/20/1 
f  171/17/1  172/18/1  154/19/1  153/20/1 
f  172/17/1  173/18/1  155/19/1  154/20/1 
f  173/17/1  174/18/1  156/19/1  155/20/1 
f  174/17/1  175/18/1  157/19/1  156/20/1 
f  175/17/1  176/18/1  158/19/1  157/20/1 
f  176/17/1  177/18/1  159/19/1  158/20/1 
f  177/17/1  178/18/1  160/19/1  159/20/1 
f  178/17/1  179/18/1  161/19/1  160/20/1 
f  179/17/1  180/18/1  162/19/1  161/20/1 
f  180/17/1  181/18/1  163/19/1  162/20/1 
f  181/17/1  182/18/1  164/19/1  163/20/1 
f  182/17/1  183/18/1  165/19/1  164/20/1 
f  183/17/1  184/18/1  166/19/1  165/20/1 
f  184/17/1  185/18/1  167/19/1  166/20/1 
f  185/17/1  186/18/1  168/19/1  167/20/1 
f  186/17/1  187/18/1  169/19/1  168/20/1 
f  187/17/1  188/18/1  170/19/1  169/20/1 
f  43/17/1  42/18/1  172/19/1  171/20/1 
f  42/17/1  45/18/1  173/19/1  172/20/1 
f  45/17/1  47/18/1  174/19/1  173/20/1 
f  47/17/1  49/18/1  175/19/1  174/20/1 
f  49/17/1  51/18/1  176/19/1  175/20/1 
f  51/17/1  53/18/1  177/19/1  176/20/1 
f  53/17/1  55/18/1  178/19/1  177/20/1 
f  55/17/1  57/18/1  179/19/1  178/20/1 
f  57/17/1  59/18/1  180/19/1  179/20/1 
f  59/17/1  61/18/1  181/19/1  180/20/1 
f  61/17/1  63/18/1  182/19/1  181/20/1 
f  63/17/1  65/18/1  183/19/1  182/20/1 
f  65/17/1  67/18/1  184/19/1  183/20/1 
f  67/17/1  69/18/1  185/19/1  184/20/1 
f  69/17/1  71/18/1  186/19/1  185/20/1 
f  71/17/1  73/18/1  187/19/1  186/20/1 
f  73/17/1  75/18/1  188/19/1  187/20/1 
