# Wavefront OBJ file automatically generated by Tiled2Unity

# Vertices (Count = 239)
v -320 -1408 0
v -384 -1408 0
v -384 -1344 0
v -320 -1344 0
v -448 -1408 0
v -448 -1344 0
v -512 -1408 0
v -512 -1344 0
v -576 -1408 0
v -576 -1344 0
v -640 -1408 0
v -640 -1344 0
v -704 -1408 0
v -704 -1344 0
v -768 -1408 0
v -768 -1344 0
v -832 -1408 0
v -832 -1344 0
v -896 -1408 0
v -896 -1344 0
v -960 -1408 0
v -960 -1344 0
v -1024 -1408 0
v -1024 -1344 0
v -1088 -1408 0
v -1088 -1344 0
v -1152 -1408 0
v -1152 -1344 0
v -1216 -1664 0
v -1280 -1664 0
v -1280 -1600 0
v -1216 -1600 0
v -1344 -1664 0
v -1344 -1600 0
v -1408 -1664 0
v -1408 -1600 0
v -1472 -1664 0
v -1472 -1600 0
v -1536 -1664 0
v -1536 -1600 0
v -320 -1920 0
v -384 -1920 0
v -384 -1856 0
v -320 -1856 0
v -448 -1920 0
v -448 -1856 0
v -512 -1920 0
v -512 -1856 0
v -576 -1920 0
v -576 -1856 0
v -640 -1920 0
v -640 -1856 0
v -704 -1920 0
v -704 -1856 0
v -768 -1920 0
v -768 -1856 0
v -832 -1920 0
v -832 -1856 0
v -896 -1920 0
v -896 -1856 0
v -960 -1920 0
v -960 -1856 0
v -1024 -1920 0
v -1024 -1856 0
v -1088 -1920 0
v -1088 -1856 0
v -1152 -1920 0
v -1152 -1856 0
v -1216 -1920 0
v -1216 -1856 0
v -1280 -1920 0
v -1280 -1856 0
v -1344 -1920 0
v -1344 -1856 0
v -1408 -1920 0
v -1408 -1856 0
v -1472 -1920 0
v -1472 -1856 0
v -1536 -1920 0
v -1536 -1856 0
v -320 -1984 0
v -384 -1984 0
v -448 -1984 0
v -512 -1984 0
v -576 -1984 0
v -640 -1984 0
v -704 -1984 0
v -768 -1984 0
v -832 -1984 0
v -896 -1984 0
v -960 -1984 0
v -1024 -1984 0
v -1088 -1984 0
v -1152 -1984 0
v -1216 -1984 0
v -1280 -1984 0
v -1344 -1984 0
v -1408 -1984 0
v -1472 -1984 0
v -1536 -1984 0
v -320 -2048 0
v -384 -2048 0
v -448 -2048 0
v -512 -2048 0
v -576 -2048 0
v -640 -2048 0
v -704 -2048 0
v -768 -2048 0
v -832 -2048 0
v -896 -2048 0
v -960 -2048 0
v -1024 -2048 0
v -1088 -2048 0
v -1152 -2048 0
v -1216 -2048 0
v -1280 -2048 0
v -1344 -2048 0
v -1408 -2048 0
v -1472 -2048 0
v -1536 -2048 0
v -320 -2112 0
v -384 -2112 0
v -448 -2112 0
v -512 -2112 0
v -576 -2112 0
v -640 -2112 0
v -704 -2112 0
v -768 -2112 0
v -832 -2112 0
v -896 -2112 0
v -960 -2112 0
v -1024 -2112 0
v -1088 -2112 0
v -1152 -2112 0
v -1216 -2112 0
v -1280 -2112 0
v -1344 -2112 0
v -1408 -2112 0
v -1472 -2112 0
v -1536 -2112 0
v -320 -1472 0
v -384 -1472 0
v -448 -1472 0
v -512 -1472 0
v -576 -1472 0
v -640 -1472 0
v -704 -1472 0
v -768 -1472 0
v -832 -1472 0
v -896 -1472 0
v -960 -1472 0
v -1024 -1472 0
v -1088 -1472 0
v -1152 -1472 0
v -1216 -1472 0
v -1216 -1408 0
v -320 -1536 0
v -384 -1536 0
v -448 -1536 0
v -512 -1536 0
v -576 -1536 0
v -640 -1536 0
v -704 -1536 0
v -768 -1536 0
v -832 -1536 0
v -896 -1536 0
v -960 -1536 0
v -1024 -1536 0
v -1088 -1536 0
v -1152 -1536 0
v -1216 -1536 0
v -320 -1600 0
v -384 -1600 0
v -448 -1600 0
v -512 -1600 0
v -576 -1600 0
v -640 -1600 0
v -704 -1600 0
v -768 -1600 0
v -832 -1600 0
v -896 -1600 0
v -960 -1600 0
v -1024 -1600 0
v -1088 -1600 0
v -1152 -1600 0
v -320 -1664 0
v -384 -1664 0
v -448 -1664 0
v -512 -1664 0
v -576 -1664 0
v -640 -1664 0
v -704 -1664 0
v -768 -1664 0
v -832 -1664 0
v -896 -1664 0
v -960 -1664 0
v -1024 -1664 0
v -1088 -1664 0
v -1152 -1664 0
v -320 -1728 0
v -384 -1728 0
v -448 -1728 0
v -512 -1728 0
v -576 -1728 0
v -640 -1728 0
v -704 -1728 0
v -768 -1728 0
v -832 -1728 0
v -896 -1728 0
v -960 -1728 0
v -1024 -1728 0
v -1088 -1728 0
v -1152 -1728 0
v -1216 -1728 0
v -1280 -1728 0
v -1344 -1728 0
v -1408 -1728 0
v -1472 -1728 0
v -1536 -1728 0
v -320 -1792 0
v -384 -1792 0
v -448 -1792 0
v -512 -1792 0
v -576 -1792 0
v -640 -1792 0
v -704 -1792 0
v -768 -1792 0
v -832 -1792 0
v -896 -1792 0
v -960 -1792 0
v -1024 -1792 0
v -1088 -1792 0
v -1152 -1792 0
v -1216 -1792 0
v -1280 -1792 0
v -1344 -1792 0
v -1408 -1792 0
v -1472 -1792 0
v -1536 -1792 0

# Texture Coorindates (Count = 36)
vt 0.1251221 0.8126221
vt 0.1873779 0.8126221
vt 0.1873779 0.8748779
vt 0.1251221 0.8748779
vt 0.2501221 0.8126221
vt 0.3123779 0.8126221
vt 0.3123779 0.8748779
vt 0.2501221 0.8748779
vt 0.1876221 0.8126221
vt 0.2498779 0.8126221
vt 0.2498779 0.8748779
vt 0.1876221 0.8748779
vt 0.3126221 0.8126221
vt 0.3748779 0.8126221
vt 0.3748779 0.8748779
vt 0.3126221 0.8748779
vt 0.0001220703 0.9376221
vt 0.06237793 0.9376221
vt 0.06237793 0.9998779
vt 0.0001220703 0.9998779
vt 0.06262207 0.9376221
vt 0.1248779 0.9376221
vt 0.1248779 0.9998779
vt 0.06262207 0.9998779
vt 0.3126221 0.9376221
vt 0.3748779 0.9376221
vt 0.3748779 0.9998779
vt 0.3126221 0.9998779
vt 0.1251221 0.9376221
vt 0.1873779 0.9376221
vt 0.1873779 0.9998779
vt 0.1251221 0.9998779
vt 0.7501221 0.9376221
vt 0.8123779 0.9376221
vt 0.8123779 0.9998779
vt 0.7501221 0.9998779

# Normal
vn 0 0 -1

# Groups (Count = 2)
g mesh_[00]_[00]
f  1/1/1  2/2/1  3/3/1  4/4/1 
f  2/5/1  5/6/1  6/7/1  3/8/1 
f  5/9/1  7/10/1  8/11/1  6/12/1 
f  7/1/1  9/2/1  10/3/1  8/4/1 
f  9/9/1  11/10/1  12/11/1  10/12/1 
f  11/1/1  13/2/1  14/3/1  12/4/1 
f  13/13/1  15/14/1  16/15/1  14/16/1 
f  15/13/1  17/14/1  18/15/1  16/16/1 
f  17/9/1  19/10/1  20/11/1  18/12/1 
f  19/1/1  21/2/1  22/3/1  20/4/1 
f  21/5/1  23/6/1  24/7/1  22/8/1 
f  23/9/1  25/10/1  26/11/1  24/12/1 
f  25/1/1  27/2/1  28/3/1  26/4/1 
f  29/1/1  30/2/1  31/3/1  32/4/1 
f  30/1/1  33/2/1  34/3/1  31/4/1 
f  33/9/1  35/10/1  36/11/1  34/12/1 
f  35/1/1  37/2/1  38/3/1  36/4/1 
f  37/5/1  39/6/1  40/7/1  38/8/1 
f  41/17/1  42/18/1  43/19/1  44/20/1 
f  42/17/1  45/18/1  46/19/1  43/20/1 
f  45/17/1  47/18/1  48/19/1  46/20/1 
f  47/17/1  49/18/1  50/19/1  48/20/1 
f  49/17/1  51/18/1  52/19/1  50/20/1 
f  51/17/1  53/18/1  54/19/1  52/20/1 
f  53/17/1  55/18/1  56/19/1  54/20/1 
f  55/17/1  57/18/1  58/19/1  56/20/1 
f  57/17/1  59/18/1  60/19/1  58/20/1 
f  59/17/1  61/18/1  62/19/1  60/20/1 
f  61/17/1  63/18/1  64/19/1  62/20/1 
f  63/17/1  65/18/1  66/19/1  64/20/1 
f  65/17/1  67/18/1  68/19/1  66/20/1 
f  67/17/1  69/18/1  70/19/1  68/20/1 
f  69/17/1  71/18/1  72/19/1  70/20/1 
f  71/17/1  73/18/1  74/19/1  72/20/1 
f  73/17/1  75/18/1  76/19/1  74/20/1 
f  75/17/1  77/18/1  78/19/1  76/20/1 
f  77/17/1  79/18/1  80/19/1  78/20/1 
f  81/17/1  82/18/1  42/19/1  41/20/1 
f  82/17/1  83/18/1  45/19/1  42/20/1 
f  83/17/1  84/18/1  47/19/1  45/20/1 
f  84/17/1  85/18/1  49/19/1  47/20/1 
f  85/17/1  86/18/1  51/19/1  49/20/1 
f  86/17/1  87/18/1  53/19/1  51/20/1 
f  87/17/1  88/18/1  55/19/1  53/20/1 
f  88/17/1  89/18/1  57/19/1  55/20/1 
f  89/17/1  90/18/1  59/19/1  57/20/1 
f  90/17/1  91/18/1  61/19/1  59/20/1 
f  91/17/1  92/18/1  63/19/1  61/20/1 
f  92/17/1  93/18/1  65/19/1  63/20/1 
f  93/17/1  94/18/1  67/19/1  65/20/1 
f  94/17/1  95/18/1  69/19/1  67/20/1 
f  95/17/1  96/18/1  71/19/1  69/20/1 
f  96/17/1  97/18/1  73/19/1  71/20/1 
f  97/17/1  98/18/1  75/19/1  73/20/1 
f  98/17/1  99/18/1  77/19/1  75/20/1 
f  99/17/1  100/18/1  79/19/1  77/20/1 
f  101/17/1  102/18/1  82/19/1  81/20/1 
f  102/17/1  103/18/1  83/19/1  82/20/1 
f  103/17/1  104/18/1  84/19/1  83/20/1 
f  104/17/1  105/18/1  85/19/1  84/20/1 
f  105/17/1  106/18/1  86/19/1  85/20/1 
f  106/17/1  107/18/1  87/19/1  86/20/1 
f  107/17/1  108/18/1  88/19/1  87/20/1 
f  108/17/1  109/18/1  89/19/1  88/20/1 
f  109/17/1  110/18/1  90/19/1  89/20/1 
f  110/17/1  111/18/1  91/19/1  90/20/1 
f  111/17/1  112/18/1  92/19/1  91/20/1 
f  112/17/1  113/18/1  93/19/1  92/20/1 
f  113/17/1  114/18/1  94/19/1  93/20/1 
f  114/17/1  115/18/1  95/19/1  94/20/1 
f  115/17/1  116/18/1  96/19/1  95/20/1 
f  116/17/1  117/18/1  97/19/1  96/20/1 
f  117/17/1  118/18/1  98/19/1  97/20/1 
f  118/17/1  119/18/1  99/19/1  98/20/1 
f  119/17/1  120/18/1  100/19/1  99/20/1 
f  121/17/1  122/18/1  102/19/1  101/20/1 
f  122/17/1  123/18/1  103/19/1  102/20/1 
f  123/17/1  124/18/1  104/19/1  103/20/1 
f  124/17/1  125/18/1  105/19/1  104/20/1 
f  125/17/1  126/18/1  106/19/1  105/20/1 
f  126/17/1  127/18/1  107/19/1  106/20/1 
f  127/17/1  128/18/1  108/19/1  107/20/1 
f  128/17/1  129/18/1  109/19/1  108/20/1 
f  129/17/1  130/18/1  110/19/1  109/20/1 
f  130/17/1  131/18/1  111/19/1  110/20/1 
f  131/17/1  132/18/1  112/19/1  111/20/1 
f  132/17/1  133/18/1  113/19/1  112/20/1 
f  133/17/1  134/18/1  114/19/1  113/20/1 
f  134/17/1  135/18/1  115/19/1  114/20/1 
f  135/17/1  136/18/1  116/19/1  115/20/1 
f  136/17/1  137/18/1  117/19/1  116/20/1 
f  137/17/1  138/18/1  118/19/1  117/20/1 
f  138/17/1  139/18/1  119/19/1  118/20/1 
f  139/17/1  140/18/1  120/19/1  119/20/1 
g mesh_[01]_[00]
f  141/21/1  142/22/1  2/23/1  1/24/1 
f  142/21/1  143/22/1  5/23/1  2/24/1 
f  143/21/1  144/22/1  7/23/1  5/24/1 
f  144/21/1  145/22/1  9/23/1  7/24/1 
f  145/21/1  146/22/1  11/23/1  9/24/1 
f  146/21/1  147/22/1  13/23/1  11/24/1 
f  147/21/1  148/22/1  15/23/1  13/24/1 
f  148/21/1  149/22/1  17/23/1  15/24/1 
f  149/21/1  150/22/1  19/23/1  17/24/1 
f  150/21/1  151/22/1  21/23/1  19/24/1 
f  151/21/1  152/22/1  23/23/1  21/24/1 
f  152/21/1  153/22/1  25/23/1  23/24/1 
f  153/21/1  154/22/1  27/23/1  25/24/1 
f  154/25/1  155/26/1  156/27/1  27/28/1 
f  157/17/1  158/18/1  142/19/1  141/20/1 
f  158/17/1  159/18/1  143/19/1  142/20/1 
f  159/17/1  160/18/1  144/19/1  143/20/1 
f  160/17/1  161/18/1  145/19/1  144/20/1 
f  161/17/1  162/18/1  146/19/1  145/20/1 
f  162/17/1  163/18/1  147/19/1  146/20/1 
f  163/17/1  164/18/1  148/19/1  147/20/1 
f  164/17/1  165/18/1  149/19/1  148/20/1 
f  165/17/1  166/18/1  150/19/1  149/20/1 
f  166/17/1  167/18/1  151/19/1  150/20/1 
f  167/17/1  168/18/1  152/19/1  151/20/1 
f  168/17/1  169/18/1  153/19/1  152/20/1 
f  169/17/1  170/18/1  154/19/1  153/20/1 
f  170/29/1  171/30/1  155/31/1  154/32/1 
f  172/17/1  173/18/1  158/19/1  157/20/1 
f  173/17/1  174/18/1  159/19/1  158/20/1 
f  174/17/1  175/18/1  160/19/1  159/20/1 
f  175/17/1  176/18/1  161/19/1  160/20/1 
f  176/17/1  177/18/1  162/19/1  161/20/1 
f  177/17/1  178/18/1  163/19/1  162/20/1 
f  178/17/1  179/18/1  164/19/1  163/20/1 
f  179/17/1  180/18/1  165/19/1  164/20/1 
f  180/17/1  181/18/1  166/19/1  165/20/1 
f  181/17/1  182/18/1  167/19/1  166/20/1 
f  182/17/1  183/18/1  168/19/1  167/20/1 
f  183/17/1  184/18/1  169/19/1  168/20/1 
f  184/17/1  185/18/1  170/19/1  169/20/1 
f  185/29/1  32/30/1  171/31/1  170/32/1 
f  186/17/1  187/18/1  173/19/1  172/20/1 
f  187/17/1  188/18/1  174/19/1  173/20/1 
f  188/17/1  189/18/1  175/19/1  174/20/1 
f  189/17/1  190/18/1  176/19/1  175/20/1 
f  190/17/1  191/18/1  177/19/1  176/20/1 
f  191/17/1  192/18/1  178/19/1  177/20/1 
f  192/17/1  193/18/1  179/19/1  178/20/1 
f  193/17/1  194/18/1  180/19/1  179/20/1 
f  194/17/1  195/18/1  181/19/1  180/20/1 
f  195/17/1  196/18/1  182/19/1  181/20/1 
f  196/17/1  197/18/1  183/19/1  182/20/1 
f  197/17/1  198/18/1  184/19/1  183/20/1 
f  198/17/1  199/18/1  185/19/1  184/20/1 
f  199/33/1  29/34/1  32/35/1  185/36/1 
f  29/25/1  30/26/1  31/27/1  32/28/1 
f  200/17/1  201/18/1  187/19/1  186/20/1 
f  201/17/1  202/18/1  188/19/1  187/20/1 
f  202/17/1  203/18/1  189/19/1  188/20/1 
f  203/17/1  204/18/1  190/19/1  189/20/1 
f  204/17/1  205/18/1  191/19/1  190/20/1 
f  205/17/1  206/18/1  192/19/1  191/20/1 
f  206/17/1  207/18/1  193/19/1  192/20/1 
f  207/17/1  208/18/1  194/19/1  193/20/1 
f  208/17/1  209/18/1  195/19/1  194/20/1 
f  209/17/1  210/18/1  196/19/1  195/20/1 
f  210/17/1  211/18/1  197/19/1  196/20/1 
f  211/17/1  212/18/1  198/19/1  197/20/1 
f  212/17/1  213/18/1  199/19/1  198/20/1 
f  213/17/1  214/18/1  29/19/1  199/20/1 
f  214/33/1  215/34/1  30/35/1  29/36/1 
f  215/21/1  216/22/1  33/23/1  30/24/1 
f  216/21/1  217/22/1  35/23/1  33/24/1 
f  217/21/1  218/22/1  37/23/1  35/24/1 
f  218/21/1  219/22/1  39/23/1  37/24/1 
f  220/17/1  221/18/1  201/19/1  200/20/1 
f  221/17/1  222/18/1  202/19/1  201/20/1 
f  222/17/1  223/18/1  203/19/1  202/20/1 
f  223/17/1  224/18/1  204/19/1  203/20/1 
f  224/17/1  225/18/1  205/19/1  204/20/1 
f  225/17/1  226/18/1  206/19/1  205/20/1 
f  226/17/1  227/18/1  207/19/1  206/20/1 
f  227/17/1  228/18/1  208/19/1  207/20/1 
f  228/17/1  229/18/1  209/19/1  208/20/1 
f  229/17/1  230/18/1  210/19/1  209/20/1 
f  230/17/1  231/18/1  211/19/1  210/20/1 
f  231/17/1  232/18/1  212/19/1  211/20/1 
f  232/17/1  233/18/1  213/19/1  212/20/1 
f  233/17/1  234/18/1  214/19/1  213/20/1 
f  234/17/1  235/18/1  215/19/1  214/20/1 
f  235/17/1  236/18/1  216/19/1  215/20/1 
f  236/17/1  237/18/1  217/19/1  216/20/1 
f  237/17/1  238/18/1  218/19/1  217/20/1 
f  238/17/1  239/18/1  219/19/1  218/20/1 
f  44/17/1  43/18/1  221/19/1  220/20/1 
f  43/17/1  46/18/1  222/19/1  221/20/1 
f  46/17/1  48/18/1  223/19/1  222/20/1 
f  48/17/1  50/18/1  224/19/1  223/20/1 
f  50/17/1  52/18/1  225/19/1  224/20/1 
f  52/17/1  54/18/1  226/19/1  225/20/1 
f  54/17/1  56/18/1  227/19/1  226/20/1 
f  56/17/1  58/18/1  228/19/1  227/20/1 
f  58/17/1  60/18/1  229/19/1  228/20/1 
f  60/17/1  62/18/1  230/19/1  229/20/1 
f  62/17/1  64/18/1  231/19/1  230/20/1 
f  64/17/1  66/18/1  232/19/1  231/20/1 
f  66/17/1  68/18/1  233/19/1  232/20/1 
f  68/17/1  70/18/1  234/19/1  233/20/1 
f  70/17/1  72/18/1  235/19/1  234/20/1 
f  72/17/1  74/18/1  236/19/1  235/20/1 
f  74/17/1  76/18/1  237/19/1  236/20/1 
f  76/17/1  78/18/1  238/19/1  237/20/1 
f  78/17/1  80/18/1  239/19/1  238/20/1 
