# Wavefront OBJ file automatically generated by Tiled2Unity

# Vertices (Count = 327)
v -1024 -1344 0
v -1088 -1344 0
v -1088 -1280 0
v -1024 -1280 0
v -1152 -1344 0
v -1152 -1280 0
v -1216 -1344 0
v -1216 -1280 0
v -1280 -1344 0
v -1280 -1280 0
v -1344 -1344 0
v -1344 -1280 0
v -1408 -1344 0
v -1408 -1280 0
v -320 -1408 0
v -384 -1408 0
v -384 -1344 0
v -320 -1344 0
v -448 -1408 0
v -448 -1344 0
v -512 -1408 0
v -512 -1344 0
v -576 -1408 0
v -576 -1344 0
v -640 -1408 0
v -640 -1344 0
v -704 -1408 0
v -704 -1344 0
v -768 -1408 0
v -768 -1344 0
v -832 -1408 0
v -832 -1344 0
v -896 -1408 0
v -896 -1344 0
v -960 -1408 0
v -960 -1344 0
v -1024 -1408 0
v -1408 -1408 0
v -1472 -1408 0
v -1472 -1344 0
v -1536 -1408 0
v -1536 -1344 0
v -1088 -1408 0
v -1152 -1408 0
v -1216 -1408 0
v -1280 -1408 0
v -1344 -1408 0
v -320 -1472 0
v -384 -1472 0
v -448 -1472 0
v -512 -1472 0
v -576 -1472 0
v -640 -1472 0
v -704 -1472 0
v -768 -1472 0
v -832 -1472 0
v -896 -1472 0
v -960 -1472 0
v -1024 -1472 0
v -1088 -1472 0
v -1152 -1472 0
v -1216 -1472 0
v -1280 -1472 0
v -1344 -1472 0
v -1408 -1472 0
v -1472 -1472 0
v -1536 -1472 0
v -320 -1536 0
v -384 -1536 0
v -448 -1536 0
v -512 -1536 0
v -576 -1536 0
v -640 -1536 0
v -704 -1536 0
v -768 -1536 0
v -832 -1536 0
v -896 -1536 0
v -960 -1536 0
v -1024 -1536 0
v -1088 -1536 0
v -1152 -1536 0
v -1216 -1536 0
v -1280 -1536 0
v -1344 -1536 0
v -1408 -1536 0
v -1472 -1536 0
v -1536 -1536 0
v -320 -1600 0
v -384 -1600 0
v -448 -1600 0
v -512 -1600 0
v -576 -1600 0
v -640 -1600 0
v -704 -1600 0
v -768 -1600 0
v -832 -1600 0
v -896 -1600 0
v -960 -1600 0
v -1024 -1600 0
v -1088 -1600 0
v -1152 -1600 0
v -1216 -1600 0
v -1280 -1600 0
v -1344 -1600 0
v -1408 -1600 0
v -1472 -1600 0
v -1536 -1600 0
v -320 -1664 0
v -384 -1664 0
v -448 -1664 0
v -512 -1664 0
v -576 -1664 0
v -640 -1664 0
v -704 -1664 0
v -768 -1664 0
v -832 -1664 0
v -896 -1664 0
v -960 -1664 0
v -1024 -1664 0
v -1088 -1664 0
v -1152 -1664 0
v -1216 -1664 0
v -1280 -1664 0
v -1344 -1664 0
v -1408 -1664 0
v -1472 -1664 0
v -1536 -1664 0
v -320 -1728 0
v -384 -1728 0
v -448 -1728 0
v -512 -1728 0
v -576 -1728 0
v -640 -1728 0
v -704 -1728 0
v -768 -1728 0
v -832 -1728 0
v -896 -1728 0
v -960 -1728 0
v -1024 -1728 0
v -1088 -1728 0
v -1152 -1728 0
v -1216 -1728 0
v -1280 -1728 0
v -1344 -1728 0
v -1408 -1728 0
v -1472 -1728 0
v -1536 -1728 0
v -320 -1792 0
v -384 -1792 0
v -448 -1792 0
v -512 -1792 0
v -576 -1792 0
v -640 -1792 0
v -704 -1792 0
v -768 -1792 0
v -832 -1792 0
v -896 -1792 0
v -960 -1792 0
v -1024 -1792 0
v -1088 -1792 0
v -1152 -1792 0
v -1216 -1792 0
v -1280 -1792 0
v -1344 -1792 0
v -1408 -1792 0
v -1472 -1792 0
v -1536 -1792 0
v -320 -1856 0
v -384 -1856 0
v -448 -1856 0
v -512 -1856 0
v -576 -1856 0
v -640 -1856 0
v -704 -1856 0
v -768 -1856 0
v -832 -1856 0
v -896 -1856 0
v -960 -1856 0
v -1024 -1856 0
v -1088 -1856 0
v -1152 -1856 0
v -1216 -1856 0
v -1280 -1856 0
v -1344 -1856 0
v -1408 -1856 0
v -1472 -1856 0
v -1536 -1856 0
v -320 -1920 0
v -384 -1920 0
v -448 -1920 0
v -512 -1920 0
v -576 -1920 0
v -640 -1920 0
v -704 -1920 0
v -768 -1920 0
v -832 -1920 0
v -896 -1920 0
v -960 -1920 0
v -1024 -1920 0
v -1088 -1920 0
v -1152 -1920 0
v -1216 -1920 0
v -1280 -1920 0
v -1344 -1920 0
v -1408 -1920 0
v -1472 -1920 0
v -1536 -1920 0
v -320 -1984 0
v -384 -1984 0
v -448 -1984 0
v -512 -1984 0
v -576 -1984 0
v -640 -1984 0
v -704 -1984 0
v -768 -1984 0
v -832 -1984 0
v -896 -1984 0
v -960 -1984 0
v -1024 -1984 0
v -1088 -1984 0
v -1152 -1984 0
v -1216 -1984 0
v -1280 -1984 0
v -1344 -1984 0
v -1408 -1984 0
v -1472 -1984 0
v -1536 -1984 0
v -320 -2048 0
v -384 -2048 0
v -448 -2048 0
v -512 -2048 0
v -576 -2048 0
v -640 -2048 0
v -704 -2048 0
v -768 -2048 0
v -832 -2048 0
v -896 -2048 0
v -960 -2048 0
v -1024 -2048 0
v -1088 -2048 0
v -1152 -2048 0
v -1216 -2048 0
v -1280 -2048 0
v -1344 -2048 0
v -1408 -2048 0
v -1472 -2048 0
v -1536 -2048 0
v -320 -2112 0
v -384 -2112 0
v -448 -2112 0
v -512 -2112 0
v -576 -2112 0
v -640 -2112 0
v -704 -2112 0
v -768 -2112 0
v -832 -2112 0
v -896 -2112 0
v -960 -2112 0
v -1024 -2112 0
v -1088 -2112 0
v -1152 -2112 0
v -1216 -2112 0
v -1280 -2112 0
v -1344 -2112 0
v -1408 -2112 0
v -1472 -2112 0
v -1536 -2112 0
v -320 -2176 0
v -384 -2176 0
v -448 -2176 0
v -512 -2176 0
v -576 -2176 0
v -640 -2176 0
v -704 -2176 0
v -768 -2176 0
v -832 -2176 0
v -896 -2176 0
v -960 -2176 0
v -1024 -2176 0
v -1088 -2176 0
v -1152 -2176 0
v -1216 -2176 0
v -1280 -2176 0
v -1344 -2176 0
v -1408 -2176 0
v -1472 -2176 0
v -1536 -2176 0
v -320 -2240 0
v -384 -2240 0
v -448 -2240 0
v -512 -2240 0
v -576 -2240 0
v -640 -2240 0
v -704 -2240 0
v -768 -2240 0
v -832 -2240 0
v -896 -2240 0
v -960 -2240 0
v -1024 -2240 0
v -1088 -2240 0
v -1152 -2240 0
v -1216 -2240 0
v -1280 -2240 0
v -1344 -2240 0
v -1408 -2240 0
v -1472 -2240 0
v -1536 -2240 0
v -320 -2304 0
v -384 -2304 0
v -448 -2304 0
v -512 -2304 0
v -576 -2304 0
v -640 -2304 0
v -704 -2304 0
v -768 -2304 0
v -832 -2304 0
v -896 -2304 0
v -960 -2304 0
v -1024 -2304 0
v -1088 -2304 0
v -1152 -2304 0
v -1216 -2304 0
v -1280 -2304 0
v -1344 -2304 0
v -1408 -2304 0
v -1472 -2304 0
v -1536 -2304 0

# Texture Coorindates (Count = 40)
vt 0.1251221 0.8126221
vt 0.1873779 0.8126221
vt 0.1873779 0.8748779
vt 0.1251221 0.8748779
vt 0.1876221 0.8126221
vt 0.2498779 0.8126221
vt 0.2498779 0.8748779
vt 0.1876221 0.8748779
vt 0.2501221 0.8126221
vt 0.3123779 0.8126221
vt 0.3123779 0.8748779
vt 0.2501221 0.8748779
vt 0.3126221 0.8126221
vt 0.3748779 0.8126221
vt 0.3748779 0.8748779
vt 0.3126221 0.8748779
vt 0.3751221 0.9376221
vt 0.4373779 0.9376221
vt 0.4373779 0.9998779
vt 0.3751221 0.9998779
vt 0.06262207 0.9376221
vt 0.1248779 0.9376221
vt 0.1248779 0.9998779
vt 0.06262207 0.9998779
vt 0.3126221 0.9376221
vt 0.3748779 0.9376221
vt 0.3748779 0.9998779
vt 0.3126221 0.9998779
vt 0.8126221 0.9376221
vt 0.8748779 0.9376221
vt 0.8748779 0.9998779
vt 0.8126221 0.9998779
vt 0.0001220703 0.9376221
vt 0.06237793 0.9376221
vt 0.06237793 0.9998779
vt 0.0001220703 0.9998779
vt 0.7501221 0.9376221
vt 0.8123779 0.9376221
vt 0.8123779 0.9998779
vt 0.7501221 0.9998779

# Normal
vn 0 0 -1

# Groups (Count = 2)
g mesh_[00]_[00]
f  1/1/1  2/2/1  3/3/1  4/4/1 
f  2/5/1  5/6/1  6/7/1  3/8/1 
f  5/1/1  7/2/1  8/3/1  6/4/1 
f  7/9/1  9/10/1  10/11/1  8/12/1 
f  9/1/1  11/2/1  12/3/1  10/4/1 
f  11/1/1  13/2/1  14/3/1  12/4/1 
f  15/1/1  16/2/1  17/3/1  18/4/1 
f  16/9/1  19/10/1  20/11/1  17/12/1 
f  19/1/1  21/2/1  22/3/1  20/4/1 
f  21/5/1  23/6/1  24/7/1  22/8/1 
f  23/1/1  25/2/1  26/3/1  24/4/1 
f  25/5/1  27/6/1  28/7/1  26/8/1 
f  27/5/1  29/6/1  30/7/1  28/8/1 
f  29/1/1  31/2/1  32/3/1  30/4/1 
f  31/9/1  33/10/1  34/11/1  32/12/1 
f  33/1/1  35/2/1  36/3/1  34/4/1 
f  35/1/1  37/2/1  1/3/1  36/4/1 
f  38/1/1  39/2/1  40/3/1  13/4/1 
f  39/13/1  41/14/1  42/15/1  40/16/1 
g mesh_[01]_[00]
f  35/17/1  37/18/1  1/19/1  36/20/1 
f  37/21/1  43/22/1  2/23/1  1/24/1 
f  43/21/1  44/22/1  5/23/1  2/24/1 
f  44/21/1  45/22/1  7/23/1  5/24/1 
f  45/21/1  46/22/1  9/23/1  7/24/1 
f  46/21/1  47/22/1  11/23/1  9/24/1 
f  47/21/1  38/22/1  13/23/1  11/24/1 
f  38/25/1  39/26/1  40/27/1  13/28/1 
f  48/21/1  49/22/1  16/23/1  15/24/1 
f  49/21/1  50/22/1  19/23/1  16/24/1 
f  50/21/1  51/22/1  21/23/1  19/24/1 
f  51/21/1  52/22/1  23/23/1  21/24/1 
f  52/21/1  53/22/1  25/23/1  23/24/1 
f  53/21/1  54/22/1  27/23/1  25/24/1 
f  54/21/1  55/22/1  29/23/1  27/24/1 
f  55/21/1  56/22/1  31/23/1  29/24/1 
f  56/21/1  57/22/1  33/23/1  31/24/1 
f  57/21/1  58/22/1  35/23/1  33/24/1 
f  58/29/1  59/30/1  37/31/1  35/32/1 
f  59/33/1  60/34/1  43/35/1  37/36/1 
f  60/33/1  61/34/1  44/35/1  43/36/1 
f  61/33/1  62/34/1  45/35/1  44/36/1 
f  62/33/1  63/34/1  46/35/1  45/36/1 
f  63/33/1  64/34/1  47/35/1  46/36/1 
f  64/33/1  65/34/1  38/35/1  47/36/1 
f  65/37/1  66/38/1  39/39/1  38/40/1 
f  66/21/1  67/22/1  41/23/1  39/24/1 
f  68/33/1  69/34/1  49/35/1  48/36/1 
f  69/33/1  70/34/1  50/35/1  49/36/1 
f  70/33/1  71/34/1  51/35/1  50/36/1 
f  71/33/1  72/34/1  52/35/1  51/36/1 
f  72/33/1  73/34/1  53/35/1  52/36/1 
f  73/33/1  74/34/1  54/35/1  53/36/1 
f  74/33/1  75/34/1  55/35/1  54/36/1 
f  75/33/1  76/34/1  56/35/1  55/36/1 
f  76/33/1  77/34/1  57/35/1  56/36/1 
f  77/33/1  78/34/1  58/35/1  57/36/1 
f  78/33/1  79/34/1  59/35/1  58/36/1 
f  79/33/1  80/34/1  60/35/1  59/36/1 
f  80/33/1  81/34/1  61/35/1  60/36/1 
f  81/33/1  82/34/1  62/35/1  61/36/1 
f  82/33/1  83/34/1  63/35/1  62/36/1 
f  83/33/1  84/34/1  64/35/1  63/36/1 
f  84/33/1  85/34/1  65/35/1  64/36/1 
f  85/33/1  86/34/1  66/35/1  65/36/1 
f  86/33/1  87/34/1  67/35/1  66/36/1 
f  88/33/1  89/34/1  69/35/1  68/36/1 
f  89/33/1  90/34/1  70/35/1  69/36/1 
f  90/33/1  91/34/1  71/35/1  70/36/1 
f  91/33/1  92/34/1  72/35/1  71/36/1 
f  92/33/1  93/34/1  73/35/1  72/36/1 
f  93/33/1  94/34/1  74/35/1  73/36/1 
f  94/33/1  95/34/1  75/35/1  74/36/1 
f  95/33/1  96/34/1  76/35/1  75/36/1 
f  96/33/1  97/34/1  77/35/1  76/36/1 
f  97/33/1  98/34/1  78/35/1  77/36/1 
f  98/33/1  99/34/1  79/35/1  78/36/1 
f  99/33/1  100/34/1  80/35/1  79/36/1 
f  100/33/1  101/34/1  81/35/1  80/36/1 
f  101/33/1  102/34/1  82/35/1  81/36/1 
f  102/33/1  103/34/1  83/35/1  82/36/1 
f  103/33/1  104/34/1  84/35/1  83/36/1 
f  104/33/1  105/34/1  85/35/1  84/36/1 
f  105/33/1  106/34/1  86/35/1  85/36/1 
f  106/33/1  107/34/1  87/35/1  86/36/1 
f  108/33/1  109/34/1  89/35/1  88/36/1 
f  109/33/1  110/34/1  90/35/1  89/36/1 
f  110/33/1  111/34/1  91/35/1  90/36/1 
f  111/33/1  112/34/1  92/35/1  91/36/1 
f  112/33/1  113/34/1  93/35/1  92/36/1 
f  113/33/1  114/34/1  94/35/1  93/36/1 
f  114/33/1  115/34/1  95/35/1  94/36/1 
f  115/33/1  116/34/1  96/35/1  95/36/1 
f  116/33/1  117/34/1  97/35/1  96/36/1 
f  117/33/1  118/34/1  98/35/1  97/36/1 
f  118/33/1  119/34/1  99/35/1  98/36/1 
f  119/33/1  120/34/1  100/35/1  99/36/1 
f  120/33/1  121/34/1  101/35/1  100/36/1 
f  121/33/1  122/34/1  102/35/1  101/36/1 
f  122/33/1  123/34/1  103/35/1  102/36/1 
f  123/33/1  124/34/1  104/35/1  103/36/1 
f  124/33/1  125/34/1  105/35/1  104/36/1 
f  125/33/1  126/34/1  106/35/1  105/36/1 
f  126/33/1  127/34/1  107/35/1  106/36/1 
f  128/33/1  129/34/1  109/35/1  108/36/1 
f  129/33/1  130/34/1  110/35/1  109/36/1 
f  130/33/1  131/34/1  111/35/1  110/36/1 
f  131/33/1  132/34/1  112/35/1  111/36/1 
f  132/33/1  133/34/1  113/35/1  112/36/1 
f  133/33/1  134/34/1  114/35/1  113/36/1 
f  134/33/1  135/34/1  115/35/1  114/36/1 
f  135/33/1  136/34/1  116/35/1  115/36/1 
f  136/33/1  137/34/1  117/35/1  116/36/1 
f  137/33/1  138/34/1  118/35/1  117/36/1 
f  138/33/1  139/34/1  119/35/1  118/36/1 
f  139/33/1  140/34/1  120/35/1  119/36/1 
f  140/33/1  141/34/1  121/35/1  120/36/1 
f  141/33/1  142/34/1  122/35/1  121/36/1 
f  142/33/1  143/34/1  123/35/1  122/36/1 
f  143/33/1  144/34/1  124/35/1  123/36/1 
f  144/33/1  145/34/1  125/35/1  124/36/1 
f  145/33/1  146/34/1  126/35/1  125/36/1 
f  146/33/1  147/34/1  127/35/1  126/36/1 
f  148/33/1  149/34/1  129/35/1  128/36/1 
f  149/33/1  150/34/1  130/35/1  129/36/1 
f  150/33/1  151/34/1  131/35/1  130/36/1 
f  151/33/1  152/34/1  132/35/1  131/36/1 
f  152/33/1  153/34/1  133/35/1  132/36/1 
f  153/33/1  154/34/1  134/35/1  133/36/1 
f  154/33/1  155/34/1  135/35/1  134/36/1 
f  155/33/1  156/34/1  136/35/1  135/36/1 
f  156/33/1  157/34/1  137/35/1  136/36/1 
f  157/33/1  158/34/1  138/35/1  137/36/1 
f  158/33/1  159/34/1  139/35/1  138/36/1 
f  159/33/1  160/34/1  140/35/1  139/36/1 
f  160/33/1  161/34/1  141/35/1  140/36/1 
f  161/33/1  162/34/1  142/35/1  141/36/1 
f  162/33/1  163/34/1  143/35/1  142/36/1 
f  163/33/1  164/34/1  144/35/1  143/36/1 
f  164/33/1  165/34/1  145/35/1  144/36/1 
f  165/33/1  166/34/1  146/35/1  145/36/1 
f  166/33/1  167/34/1  147/35/1  146/36/1 
f  168/33/1  169/34/1  149/35/1  148/36/1 
f  169/33/1  170/34/1  150/35/1  149/36/1 
f  170/33/1  171/34/1  151/35/1  150/36/1 
f  171/33/1  172/34/1  152/35/1  151/36/1 
f  172/33/1  173/34/1  153/35/1  152/36/1 
f  173/33/1  174/34/1  154/35/1  153/36/1 
f  174/33/1  175/34/1  155/35/1  154/36/1 
f  175/33/1  176/34/1  156/35/1  155/36/1 
f  176/33/1  177/34/1  157/35/1  156/36/1 
f  177/33/1  178/34/1  158/35/1  157/36/1 
f  178/33/1  179/34/1  159/35/1  158/36/1 
f  179/33/1  180/34/1  160/35/1  159/36/1 
f  180/33/1  181/34/1  161/35/1  160/36/1 
f  181/33/1  182/34/1  162/35/1  161/36/1 
f  182/33/1  183/34/1  163/35/1  162/36/1 
f  183/33/1  184/34/1  164/35/1  163/36/1 
f  184/33/1  185/34/1  165/35/1  164/36/1 
f  185/33/1  186/34/1  166/35/1  165/36/1 
f  186/33/1  187/34/1  167/35/1  166/36/1 
f  188/33/1  189/34/1  169/35/1  168/36/1 
f  189/33/1  190/34/1  170/35/1  169/36/1 
f  190/33/1  191/34/1  171/35/1  170/36/1 
f  191/33/1  192/34/1  172/35/1  171/36/1 
f  192/33/1  193/34/1  173/35/1  172/36/1 
f  193/33/1  194/34/1  174/35/1  173/36/1 
f  194/33/1  195/34/1  175/35/1  174/36/1 
f  195/33/1  196/34/1  176/35/1  175/36/1 
f  196/33/1  197/34/1  177/35/1  176/36/1 
f  197/33/1  198/34/1  178/35/1  177/36/1 
f  198/33/1  199/34/1  179/35/1  178/36/1 
f  199/33/1  200/34/1  180/35/1  179/36/1 
f  200/33/1  201/34/1  181/35/1  180/36/1 
f  201/33/1  202/34/1  182/35/1  181/36/1 
f  202/33/1  203/34/1  183/35/1  182/36/1 
f  203/33/1  204/34/1  184/35/1  183/36/1 
f  204/33/1  205/34/1  185/35/1  184/36/1 
f  205/33/1  206/34/1  186/35/1  185/36/1 
f  206/33/1  207/34/1  187/35/1  186/36/1 
f  208/33/1  209/34/1  189/35/1  188/36/1 
f  209/33/1  210/34/1  190/35/1  189/36/1 
f  210/33/1  211/34/1  191/35/1  190/36/1 
f  211/33/1  212/34/1  192/35/1  191/36/1 
f  212/33/1  213/34/1  193/35/1  192/36/1 
f  213/33/1  214/34/1  194/35/1  193/36/1 
f  214/33/1  215/34/1  195/35/1  194/36/1 
f  215/33/1  216/34/1  196/35/1  195/36/1 
f  216/33/1  217/34/1  197/35/1  196/36/1 
f  217/33/1  218/34/1  198/35/1  197/36/1 
f  218/33/1  219/34/1  199/35/1  198/36/1 
f  219/33/1  220/34/1  200/35/1  199/36/1 
f  220/33/1  221/34/1  201/35/1  200/36/1 
f  221/33/1  222/34/1  202/35/1  201/36/1 
f  222/33/1  223/34/1  203/35/1  202/36/1 
f  223/33/1  224/34/1  204/35/1  203/36/1 
f  224/33/1  225/34/1  205/35/1  204/36/1 
f  225/33/1  226/34/1  206/35/1  205/36/1 
f  226/33/1  227/34/1  207/35/1  206/36/1 
f  228/33/1  229/34/1  209/35/1  208/36/1 
f  229/33/1  230/34/1  210/35/1  209/36/1 
f  230/33/1  231/34/1  211/35/1  210/36/1 
f  231/33/1  232/34/1  212/35/1  211/36/1 
f  232/33/1  233/34/1  213/35/1  212/36/1 
f  233/33/1  234/34/1  214/35/1  213/36/1 
f  234/33/1  235/34/1  215/35/1  214/36/1 
f  235/33/1  236/34/1  216/35/1  215/36/1 
f  236/33/1  237/34/1  217/35/1  216/36/1 
f  237/33/1  238/34/1  218/35/1  217/36/1 
f  238/33/1  239/34/1  219/35/1  218/36/1 
f  239/33/1  240/34/1  220/35/1  219/36/1 
f  240/33/1  241/34/1  221/35/1  220/36/1 
f  241/33/1  242/34/1  222/35/1  221/36/1 
f  242/33/1  243/34/1  223/35/1  222/36/1 
f  243/33/1  244/34/1  224/35/1  223/36/1 
f  244/33/1  245/34/1  225/35/1  224/36/1 
f  245/33/1  246/34/1  226/35/1  225/36/1 
f  246/33/1  247/34/1  227/35/1  226/36/1 
f  248/33/1  249/34/1  229/35/1  228/36/1 
f  249/33/1  250/34/1  230/35/1  229/36/1 
f  250/33/1  251/34/1  231/35/1  230/36/1 
f  251/33/1  252/34/1  232/35/1  231/36/1 
f  252/33/1  253/34/1  233/35/1  232/36/1 
f  253/33/1  254/34/1  234/35/1  233/36/1 
f  254/33/1  255/34/1  235/35/1  234/36/1 
f  255/33/1  256/34/1  236/35/1  235/36/1 
f  256/33/1  257/34/1  237/35/1  236/36/1 
f  257/33/1  258/34/1  238/35/1  237/36/1 
f  258/33/1  259/34/1  239/35/1  238/36/1 
f  259/33/1  260/34/1  240/35/1  239/36/1 
f  260/33/1  261/34/1  241/35/1  240/36/1 
f  261/33/1  262/34/1  242/35/1  241/36/1 
f  262/33/1  263/34/1  243/35/1  242/36/1 
f  263/33/1  264/34/1  244/35/1  243/36/1 
f  264/33/1  265/34/1  245/35/1  244/36/1 
f  265/33/1  266/34/1  246/35/1  245/36/1 
f  266/33/1  267/34/1  247/35/1  246/36/1 
f  268/33/1  269/34/1  249/35/1  248/36/1 
f  269/33/1  270/34/1  250/35/1  249/36/1 
f  270/33/1  271/34/1  251/35/1  250/36/1 
f  271/33/1  272/34/1  252/35/1  251/36/1 
f  272/33/1  273/34/1  253/35/1  252/36/1 
f  273/33/1  274/34/1  254/35/1  253/36/1 
f  274/33/1  275/34/1  255/35/1  254/36/1 
f  275/33/1  276/34/1  256/35/1  255/36/1 
f  276/33/1  277/34/1  257/35/1  256/36/1 
f  277/33/1  278/34/1  258/35/1  257/36/1 
f  278/33/1  279/34/1  259/35/1  258/36/1 
f  279/33/1  280/34/1  260/35/1  259/36/1 
f  280/33/1  281/34/1  261/35/1  260/36/1 
f  281/33/1  282/34/1  262/35/1  261/36/1 
f  282/33/1  283/34/1  263/35/1  262/36/1 
f  283/33/1  284/34/1  264/35/1  263/36/1 
f  284/33/1  285/34/1  265/35/1  264/36/1 
f  285/33/1  286/34/1  266/35/1  265/36/1 
f  286/33/1  287/34/1  267/35/1  266/36/1 
f  288/33/1  289/34/1  269/35/1  268/36/1 
f  289/33/1  290/34/1  270/35/1  269/36/1 
f  290/33/1  291/34/1  271/35/1  270/36/1 
f  291/33/1  292/34/1  272/35/1  271/36/1 
f  292/33/1  293/34/1  273/35/1  272/36/1 
f  293/33/1  294/34/1  274/35/1  273/36/1 
f  294/33/1  295/34/1  275/35/1  274/36/1 
f  295/33/1  296/34/1  276/35/1  275/36/1 
f  296/33/1  297/34/1  277/35/1  276/36/1 
f  297/33/1  298/34/1  278/35/1  277/36/1 
f  298/33/1  299/34/1  279/35/1  278/36/1 
f  299/33/1  300/34/1  280/35/1  279/36/1 
f  300/33/1  301/34/1  281/35/1  280/36/1 
f  301/33/1  302/34/1  282/35/1  281/36/1 
f  302/33/1  303/34/1  283/35/1  282/36/1 
f  303/33/1  304/34/1  284/35/1  283/36/1 
f  304/33/1  305/34/1  285/35/1  284/36/1 
f  305/33/1  306/34/1  286/35/1  285/36/1 
f  306/33/1  307/34/1  287/35/1  286/36/1 
f  308/33/1  309/34/1  289/35/1  288/36/1 
f  309/33/1  310/34/1  290/35/1  289/36/1 
f  310/33/1  311/34/1  291/35/1  290/36/1 
f  311/33/1  312/34/1  292/35/1  291/36/1 
f  312/33/1  313/34/1  293/35/1  292/36/1 
f  313/33/1  314/34/1  294/35/1  293/36/1 
f  314/33/1  315/34/1  295/35/1  294/36/1 
f  315/33/1  316/34/1  296/35/1  295/36/1 
f  316/33/1  317/34/1  297/35/1  296/36/1 
f  317/33/1  318/34/1  298/35/1  297/36/1 
f  318/33/1  319/34/1  299/35/1  298/36/1 
f  319/33/1  320/34/1  300/35/1  299/36/1 
f  320/33/1  321/34/1  301/35/1  300/36/1 
f  321/33/1  322/34/1  302/35/1  301/36/1 
f  322/33/1  323/34/1  303/35/1  302/36/1 
f  323/33/1  324/34/1  304/35/1  303/36/1 
f  324/33/1  325/34/1  305/35/1  304/36/1 
f  325/33/1  326/34/1  306/35/1  305/36/1 
f  326/33/1  327/34/1  307/35/1  306/36/1 
