# Wavefront OBJ file automatically generated by Tiled2Unity

# Vertices (Count = 252)
v -4224 -1408 0
v -4288 -1408 0
v -4288 -1344 0
v -4224 -1344 0
v -4352 -1408 0
v -4352 -1344 0
v -4416 -1408 0
v -4416 -1344 0
v -4480 -1408 0
v -4480 -1344 0
v -4480 -1472 0
v -4544 -1472 0
v -4544 -1408 0
v -4608 -1472 0
v -4608 -1408 0
v -4672 -1472 0
v -4672 -1408 0
v -4736 -1472 0
v -4736 -1408 0
v -4736 -1536 0
v -4800 -1536 0
v -4800 -1472 0
v -4864 -1536 0
v -4864 -1472 0
v -4928 -1536 0
v -4928 -1472 0
v -4992 -1536 0
v -4992 -1472 0
v -4992 -1600 0
v -5056 -1600 0
v -5056 -1536 0
v -5120 -1600 0
v -5120 -1536 0
v -5184 -1600 0
v -5184 -1536 0
v -5248 -1600 0
v -5248 -1536 0
v -5312 -1600 0
v -5312 -1536 0
v -5376 -1600 0
v -5376 -1536 0
v -5440 -1600 0
v -5440 -1536 0
v -5504 -1600 0
v -5504 -1536 0
v -5568 -1600 0
v -5568 -1536 0
v -5632 -1600 0
v -5632 -1536 0
v -5696 -1600 0
v -5696 -1536 0
v -5760 -1600 0
v -5760 -1536 0
v -4224 -1920 0
v -4288 -1920 0
v -4288 -1856 0
v -4224 -1856 0
v -4352 -1920 0
v -4352 -1856 0
v -4416 -1920 0
v -4416 -1856 0
v -4480 -1920 0
v -4480 -1856 0
v -4544 -1920 0
v -4544 -1856 0
v -4608 -1920 0
v -4608 -1856 0
v -4672 -1920 0
v -4672 -1856 0
v -4736 -1920 0
v -4736 -1856 0
v -4800 -1920 0
v -4800 -1856 0
v -4864 -1920 0
v -4864 -1856 0
v -4928 -1920 0
v -4928 -1856 0
v -4992 -1920 0
v -4992 -1856 0
v -5056 -1920 0
v -5056 -1856 0
v -5120 -1920 0
v -5120 -1856 0
v -5184 -1920 0
v -5184 -1856 0
v -5248 -1920 0
v -5248 -1856 0
v -5312 -1920 0
v -5312 -1856 0
v -5376 -1920 0
v -5376 -1856 0
v -5440 -1920 0
v -5440 -1856 0
v -5504 -1920 0
v -5504 -1856 0
v -5568 -1920 0
v -5568 -1856 0
v -5632 -1920 0
v -5632 -1856 0
v -5696 -1920 0
v -5696 -1856 0
v -5760 -1920 0
v -5760 -1856 0
v -4224 -1984 0
v -4288 -1984 0
v -4352 -1984 0
v -4416 -1984 0
v -4480 -1984 0
v -4544 -1984 0
v -4608 -1984 0
v -4672 -1984 0
v -4736 -1984 0
v -4800 -1984 0
v -4864 -1984 0
v -4928 -1984 0
v -4992 -1984 0
v -5056 -1984 0
v -5120 -1984 0
v -5184 -1984 0
v -5248 -1984 0
v -5312 -1984 0
v -5376 -1984 0
v -5440 -1984 0
v -5504 -1984 0
v -5568 -1984 0
v -5632 -1984 0
v -5696 -1984 0
v -5760 -1984 0
v -4224 -2048 0
v -4288 -2048 0
v -4352 -2048 0
v -4416 -2048 0
v -4480 -2048 0
v -4544 -2048 0
v -4608 -2048 0
v -4672 -2048 0
v -4736 -2048 0
v -4800 -2048 0
v -4864 -2048 0
v -4928 -2048 0
v -4992 -2048 0
v -5056 -2048 0
v -5120 -2048 0
v -5184 -2048 0
v -5248 -2048 0
v -5312 -2048 0
v -5376 -2048 0
v -5440 -2048 0
v -5504 -2048 0
v -5568 -2048 0
v -5632 -2048 0
v -5696 -2048 0
v -5760 -2048 0
v -4224 -1472 0
v -4288 -1472 0
v -4352 -1472 0
v -4416 -1472 0
v -4224 -1536 0
v -4288 -1536 0
v -4352 -1536 0
v -4416 -1536 0
v -4480 -1536 0
v -4544 -1536 0
v -4608 -1536 0
v -4672 -1536 0
v -4224 -1600 0
v -4288 -1600 0
v -4352 -1600 0
v -4416 -1600 0
v -4480 -1600 0
v -4544 -1600 0
v -4608 -1600 0
v -4672 -1600 0
v -4736 -1600 0
v -4800 -1600 0
v -4864 -1600 0
v -4928 -1600 0
v -4224 -1664 0
v -4288 -1664 0
v -4352 -1664 0
v -4416 -1664 0
v -4480 -1664 0
v -4544 -1664 0
v -4608 -1664 0
v -4672 -1664 0
v -4736 -1664 0
v -4800 -1664 0
v -4864 -1664 0
v -4928 -1664 0
v -4992 -1664 0
v -5056 -1664 0
v -5120 -1664 0
v -5184 -1664 0
v -5248 -1664 0
v -5312 -1664 0
v -5376 -1664 0
v -5440 -1664 0
v -5504 -1664 0
v -5568 -1664 0
v -5632 -1664 0
v -5696 -1664 0
v -5760 -1664 0
v -4224 -1728 0
v -4288 -1728 0
v -4352 -1728 0
v -4416 -1728 0
v -4480 -1728 0
v -4544 -1728 0
v -4608 -1728 0
v -4672 -1728 0
v -4736 -1728 0
v -4800 -1728 0
v -4864 -1728 0
v -4928 -1728 0
v -4992 -1728 0
v -5056 -1728 0
v -5120 -1728 0
v -5184 -1728 0
v -5248 -1728 0
v -5312 -1728 0
v -5376 -1728 0
v -5440 -1728 0
v -5504 -1728 0
v -5568 -1728 0
v -5632 -1728 0
v -5696 -1728 0
v -5760 -1728 0
v -4224 -1792 0
v -4288 -1792 0
v -4352 -1792 0
v -4416 -1792 0
v -4480 -1792 0
v -4544 -1792 0
v -4608 -1792 0
v -4672 -1792 0
v -4736 -1792 0
v -4800 -1792 0
v -4864 -1792 0
v -4928 -1792 0
v -4992 -1792 0
v -5056 -1792 0
v -5120 -1792 0
v -5184 -1792 0
v -5248 -1792 0
v -5312 -1792 0
v -5376 -1792 0
v -5440 -1792 0
v -5504 -1792 0
v -5568 -1792 0
v -5632 -1792 0
v -5696 -1792 0
v -5760 -1792 0

# Texture Coorindates (Count = 24)
vt 0.3126221 0.8126221
vt 0.3748779 0.8126221
vt 0.3748779 0.8748779
vt 0.3126221 0.8748779
vt 0.2501221 0.8126221
vt 0.3123779 0.8126221
vt 0.3123779 0.8748779
vt 0.2501221 0.8748779
vt 0.1876221 0.8126221
vt 0.2498779 0.8126221
vt 0.2498779 0.8748779
vt 0.1876221 0.8748779
vt 0.1251221 0.8126221
vt 0.1873779 0.8126221
vt 0.1873779 0.8748779
vt 0.1251221 0.8748779
vt 0.0001220703 0.9376221
vt 0.06237793 0.9376221
vt 0.06237793 0.9998779
vt 0.0001220703 0.9998779
vt 0.06262207 0.9376221
vt 0.1248779 0.9376221
vt 0.1248779 0.9998779
vt 0.06262207 0.9998779

# Normal
vn 0 0 -1

# Groups (Count = 2)
g mesh_[00]_[00]
f  1/1/1  2/2/1  3/3/1  4/4/1 
f  2/5/1  5/6/1  6/7/1  3/8/1 
f  5/1/1  7/2/1  8/3/1  6/4/1 
f  7/1/1  9/2/1  10/3/1  8/4/1 
f  11/1/1  12/2/1  13/3/1  9/4/1 
f  12/9/1  14/10/1  15/11/1  13/12/1 
f  14/1/1  16/2/1  17/3/1  15/4/1 
f  16/1/1  18/2/1  19/3/1  17/4/1 
f  20/1/1  21/2/1  22/3/1  18/4/1 
f  21/13/1  23/14/1  24/15/1  22/16/1 
f  23/13/1  25/14/1  26/15/1  24/16/1 
f  25/1/1  27/2/1  28/3/1  26/4/1 
f  29/1/1  30/2/1  31/3/1  27/4/1 
f  30/5/1  32/6/1  33/7/1  31/8/1 
f  32/13/1  34/14/1  35/15/1  33/16/1 
f  34/1/1  36/2/1  37/3/1  35/4/1 
f  36/5/1  38/6/1  39/7/1  37/8/1 
f  38/1/1  40/2/1  41/3/1  39/4/1 
f  40/1/1  42/2/1  43/3/1  41/4/1 
f  42/9/1  44/10/1  45/11/1  43/12/1 
f  44/5/1  46/6/1  47/7/1  45/8/1 
f  46/5/1  48/6/1  49/7/1  47/8/1 
f  48/13/1  50/14/1  51/15/1  49/16/1 
f  50/1/1  52/2/1  53/3/1  51/4/1 
f  54/17/1  55/18/1  56/19/1  57/20/1 
f  55/17/1  58/18/1  59/19/1  56/20/1 
f  58/17/1  60/18/1  61/19/1  59/20/1 
f  60/17/1  62/18/1  63/19/1  61/20/1 
f  62/17/1  64/18/1  65/19/1  63/20/1 
f  64/17/1  66/18/1  67/19/1  65/20/1 
f  66/17/1  68/18/1  69/19/1  67/20/1 
f  68/17/1  70/18/1  71/19/1  69/20/1 
f  70/17/1  72/18/1  73/19/1  71/20/1 
f  72/17/1  74/18/1  75/19/1  73/20/1 
f  74/17/1  76/18/1  77/19/1  75/20/1 
f  76/17/1  78/18/1  79/19/1  77/20/1 
f  78/17/1  80/18/1  81/19/1  79/20/1 
f  80/17/1  82/18/1  83/19/1  81/20/1 
f  82/17/1  84/18/1  85/19/1  83/20/1 
f  84/17/1  86/18/1  87/19/1  85/20/1 
f  86/17/1  88/18/1  89/19/1  87/20/1 
f  88/17/1  90/18/1  91/19/1  89/20/1 
f  90/17/1  92/18/1  93/19/1  91/20/1 
f  92/17/1  94/18/1  95/19/1  93/20/1 
f  94/17/1  96/18/1  97/19/1  95/20/1 
f  96/17/1  98/18/1  99/19/1  97/20/1 
f  98/17/1  100/18/1  101/19/1  99/20/1 
f  100/17/1  102/18/1  103/19/1  101/20/1 
f  104/17/1  105/18/1  55/19/1  54/20/1 
f  105/17/1  106/18/1  58/19/1  55/20/1 
f  106/17/1  107/18/1  60/19/1  58/20/1 
f  107/17/1  108/18/1  62/19/1  60/20/1 
f  108/17/1  109/18/1  64/19/1  62/20/1 
f  109/17/1  110/18/1  66/19/1  64/20/1 
f  110/17/1  111/18/1  68/19/1  66/20/1 
f  111/17/1  112/18/1  70/19/1  68/20/1 
f  112/17/1  113/18/1  72/19/1  70/20/1 
f  113/17/1  114/18/1  74/19/1  72/20/1 
f  114/17/1  115/18/1  76/19/1  74/20/1 
f  115/17/1  116/18/1  78/19/1  76/20/1 
f  116/17/1  117/18/1  80/19/1  78/20/1 
f  117/17/1  118/18/1  82/19/1  80/20/1 
f  118/17/1  119/18/1  84/19/1  82/20/1 
f  119/17/1  120/18/1  86/19/1  84/20/1 
f  120/17/1  121/18/1  88/19/1  86/20/1 
f  121/17/1  122/18/1  90/19/1  88/20/1 
f  122/17/1  123/18/1  92/19/1  90/20/1 
f  123/17/1  124/18/1  94/19/1  92/20/1 
f  124/17/1  125/18/1  96/19/1  94/20/1 
f  125/17/1  126/18/1  98/19/1  96/20/1 
f  126/17/1  127/18/1  100/19/1  98/20/1 
f  127/17/1  128/18/1  102/19/1  100/20/1 
f  129/17/1  130/18/1  105/19/1  104/20/1 
f  130/17/1  131/18/1  106/19/1  105/20/1 
f  131/17/1  132/18/1  107/19/1  106/20/1 
f  132/17/1  133/18/1  108/19/1  107/20/1 
f  133/17/1  134/18/1  109/19/1  108/20/1 
f  134/17/1  135/18/1  110/19/1  109/20/1 
f  135/17/1  136/18/1  111/19/1  110/20/1 
f  136/17/1  137/18/1  112/19/1  111/20/1 
f  137/17/1  138/18/1  113/19/1  112/20/1 
f  138/17/1  139/18/1  114/19/1  113/20/1 
f  139/17/1  140/18/1  115/19/1  114/20/1 
f  140/17/1  141/18/1  116/19/1  115/20/1 
f  141/17/1  142/18/1  117/19/1  116/20/1 
f  142/17/1  143/18/1  118/19/1  117/20/1 
f  143/17/1  144/18/1  119/19/1  118/20/1 
f  144/17/1  145/18/1  120/19/1  119/20/1 
f  145/17/1  146/18/1  121/19/1  120/20/1 
f  146/17/1  147/18/1  122/19/1  121/20/1 
f  147/17/1  148/18/1  123/19/1  122/20/1 
f  148/17/1  149/18/1  124/19/1  123/20/1 
f  149/17/1  150/18/1  125/19/1  124/20/1 
f  150/17/1  151/18/1  126/19/1  125/20/1 
f  151/17/1  152/18/1  127/19/1  126/20/1 
f  152/17/1  153/18/1  128/19/1  127/20/1 
g mesh_[01]_[00]
f  154/21/1  155/22/1  2/23/1  1/24/1 
f  155/21/1  156/22/1  5/23/1  2/24/1 
f  156/21/1  157/22/1  7/23/1  5/24/1 
f  157/21/1  11/22/1  9/23/1  7/24/1 
f  158/17/1  159/18/1  155/19/1  154/20/1 
f  159/17/1  160/18/1  156/19/1  155/20/1 
f  160/17/1  161/18/1  157/19/1  156/20/1 
f  161/17/1  162/18/1  11/19/1  157/20/1 
f  162/21/1  163/22/1  12/23/1  11/24/1 
f  163/21/1  164/22/1  14/23/1  12/24/1 
f  164/21/1  165/22/1  16/23/1  14/24/1 
f  165/21/1  20/22/1  18/23/1  16/24/1 
f  166/17/1  167/18/1  159/19/1  158/20/1 
f  167/17/1  168/18/1  160/19/1  159/20/1 
f  168/17/1  169/18/1  161/19/1  160/20/1 
f  169/17/1  170/18/1  162/19/1  161/20/1 
f  170/17/1  171/18/1  163/19/1  162/20/1 
f  171/17/1  172/18/1  164/19/1  163/20/1 
f  172/17/1  173/18/1  165/19/1  164/20/1 
f  173/17/1  174/18/1  20/19/1  165/20/1 
f  174/21/1  175/22/1  21/23/1  20/24/1 
f  175/21/1  176/22/1  23/23/1  21/24/1 
f  176/21/1  177/22/1  25/23/1  23/24/1 
f  177/21/1  29/22/1  27/23/1  25/24/1 
f  178/17/1  179/18/1  167/19/1  166/20/1 
f  179/17/1  180/18/1  168/19/1  167/20/1 
f  180/17/1  181/18/1  169/19/1  168/20/1 
f  181/17/1  182/18/1  170/19/1  169/20/1 
f  182/17/1  183/18/1  171/19/1  170/20/1 
f  183/17/1  184/18/1  172/19/1  171/20/1 
f  184/17/1  185/18/1  173/19/1  172/20/1 
f  185/17/1  186/18/1  174/19/1  173/20/1 
f  186/17/1  187/18/1  175/19/1  174/20/1 
f  187/17/1  188/18/1  176/19/1  175/20/1 
f  188/17/1  189/18/1  177/19/1  176/20/1 
f  189/17/1  190/18/1  29/19/1  177/20/1 
f  190/21/1  191/22/1  30/23/1  29/24/1 
f  191/21/1  192/22/1  32/23/1  30/24/1 
f  192/21/1  193/22/1  34/23/1  32/24/1 
f  193/21/1  194/22/1  36/23/1  34/24/1 
f  194/21/1  195/22/1  38/23/1  36/24/1 
f  195/21/1  196/22/1  40/23/1  38/24/1 
f  196/21/1  197/22/1  42/23/1  40/24/1 
f  197/21/1  198/22/1  44/23/1  42/24/1 
f  198/21/1  199/22/1  46/23/1  44/24/1 
f  199/21/1  200/22/1  48/23/1  46/24/1 
f  200/21/1  201/22/1  50/23/1  48/24/1 
f  201/21/1  202/22/1  52/23/1  50/24/1 
f  203/17/1  204/18/1  179/19/1  178/20/1 
f  204/17/1  205/18/1  180/19/1  179/20/1 
f  205/17/1  206/18/1  181/19/1  180/20/1 
f  206/17/1  207/18/1  182/19/1  181/20/1 
f  207/17/1  208/18/1  183/19/1  182/20/1 
f  208/17/1  209/18/1  184/19/1  183/20/1 
f  209/17/1  210/18/1  185/19/1  184/20/1 
f  210/17/1  211/18/1  186/19/1  185/20/1 
f  211/17/1  212/18/1  187/19/1  186/20/1 
f  212/17/1  213/18/1  188/19/1  187/20/1 
f  213/17/1  214/18/1  189/19/1  188/20/1 
f  214/17/1  215/18/1  190/19/1  189/20/1 
f  215/17/1  216/18/1  191/19/1  190/20/1 
f  216/17/1  217/18/1  192/19/1  191/20/1 
f  217/17/1  218/18/1  193/19/1  192/20/1 
f  218/17/1  219/18/1  194/19/1  193/20/1 
f  219/17/1  220/18/1  195/19/1  194/20/1 
f  220/17/1  221/18/1  196/19/1  195/20/1 
f  221/17/1  222/18/1  197/19/1  196/20/1 
f  222/17/1  223/18/1  198/19/1  197/20/1 
f  223/17/1  224/18/1  199/19/1  198/20/1 
f  224/17/1  225/18/1  200/19/1  199/20/1 
f  225/17/1  226/18/1  201/19/1  200/20/1 
f  226/17/1  227/18/1  202/19/1  201/20/1 
f  228/17/1  229/18/1  204/19/1  203/20/1 
f  229/17/1  230/18/1  205/19/1  204/20/1 
f  230/17/1  231/18/1  206/19/1  205/20/1 
f  231/17/1  232/18/1  207/19/1  206/20/1 
f  232/17/1  233/18/1  208/19/1  207/20/1 
f  233/17/1  234/18/1  209/19/1  208/20/1 
f  234/17/1  235/18/1  210/19/1  209/20/1 
f  235/17/1  236/18/1  211/19/1  210/20/1 
f  236/17/1  237/18/1  212/19/1  211/20/1 
f  237/17/1  238/18/1  213/19/1  212/20/1 
f  238/17/1  239/18/1  214/19/1  213/20/1 
f  239/17/1  240/18/1  215/19/1  214/20/1 
f  240/17/1  241/18/1  216/19/1  215/20/1 
f  241/17/1  242/18/1  217/19/1  216/20/1 
f  242/17/1  243/18/1  218/19/1  217/20/1 
f  243/17/1  244/18/1  219/19/1  218/20/1 
f  244/17/1  245/18/1  220/19/1  219/20/1 
f  245/17/1  246/18/1  221/19/1  220/20/1 
f  246/17/1  247/18/1  222/19/1  221/20/1 
f  247/17/1  248/18/1  223/19/1  222/20/1 
f  248/17/1  249/18/1  224/19/1  223/20/1 
f  249/17/1  250/18/1  225/19/1  224/20/1 
f  250/17/1  251/18/1  226/19/1  225/20/1 
f  251/17/1  252/18/1  227/19/1  226/20/1 
f  57/17/1  56/18/1  229/19/1  228/20/1 
f  56/17/1  59/18/1  230/19/1  229/20/1 
f  59/17/1  61/18/1  231/19/1  230/20/1 
f  61/17/1  63/18/1  232/19/1  231/20/1 
f  63/17/1  65/18/1  233/19/1  232/20/1 
f  65/17/1  67/18/1  234/19/1  233/20/1 
f  67/17/1  69/18/1  235/19/1  234/20/1 
f  69/17/1  71/18/1  236/19/1  235/20/1 
f  71/17/1  73/18/1  237/19/1  236/20/1 
f  73/17/1  75/18/1  238/19/1  237/20/1 
f  75/17/1  77/18/1  239/19/1  238/20/1 
f  77/17/1  79/18/1  240/19/1  239/20/1 
f  79/17/1  81/18/1  241/19/1  240/20/1 
f  81/17/1  83/18/1  242/19/1  241/20/1 
f  83/17/1  85/18/1  243/19/1  242/20/1 
f  85/17/1  87/18/1  244/19/1  243/20/1 
f  87/17/1  89/18/1  245/19/1  244/20/1 
f  89/17/1  91/18/1  246/19/1  245/20/1 
f  91/17/1  93/18/1  247/19/1  246/20/1 
f  93/17/1  95/18/1  248/19/1  247/20/1 
f  95/17/1  97/18/1  249/19/1  248/20/1 
f  97/17/1  99/18/1  250/19/1  249/20/1 
f  99/17/1  101/18/1  251/19/1  250/20/1 
f  101/17/1  103/18/1  252/19/1  251/20/1 
