# Wavefront OBJ file automatically generated by Tiled2Unity

# Vertices (Count = 332)
v -4672 -960 0
v -4736 -960 0
v -4736 -896 0
v -4672 -896 0
v -4224 -1024 0
v -4288 -1024 0
v -4288 -960 0
v -4224 -960 0
v -4352 -1024 0
v -4352 -960 0
v -4416 -1024 0
v -4416 -960 0
v -4480 -1024 0
v -4480 -960 0
v -4544 -1024 0
v -4544 -960 0
v -4608 -1024 0
v -4608 -960 0
v -4672 -1024 0
v -4736 -1024 0
v -3904 -1088 0
v -3968 -1088 0
v -3968 -1024 0
v -3904 -1024 0
v -4032 -1088 0
v -4032 -1024 0
v -4096 -1088 0
v -4096 -1024 0
v -4160 -1088 0
v -4160 -1024 0
v -4224 -1088 0
v -4288 -1088 0
v -4352 -1088 0
v -4416 -1088 0
v -4480 -1088 0
v -4544 -1088 0
v -4608 -1088 0
v -4672 -1088 0
v -4736 -1088 0
v -3904 -1152 0
v -3968 -1152 0
v -4032 -1152 0
v -4096 -1152 0
v -4160 -1152 0
v -4224 -1152 0
v -4288 -1152 0
v -4352 -1152 0
v -4416 -1152 0
v -4480 -1152 0
v -4544 -1152 0
v -4608 -1152 0
v -4672 -1152 0
v -4736 -1152 0
v -3904 -1216 0
v -3968 -1216 0
v -4032 -1216 0
v -4096 -1216 0
v -4160 -1216 0
v -4224 -1216 0
v -4288 -1216 0
v -4352 -1216 0
v -4416 -1216 0
v -4480 -1216 0
v -4544 -1216 0
v -4608 -1216 0
v -4672 -1216 0
v -4736 -1216 0
v -3904 -1280 0
v -3968 -1280 0
v -4032 -1280 0
v -4096 -1280 0
v -4160 -1280 0
v -4224 -1280 0
v -4288 -1280 0
v -4352 -1280 0
v -4416 -1280 0
v -4480 -1280 0
v -4544 -1280 0
v -4608 -1280 0
v -4672 -1280 0
v -4736 -1280 0
v -3904 -1344 0
v -3968 -1344 0
v -4032 -1344 0
v -4096 -1344 0
v -4160 -1344 0
v -4224 -1344 0
v -4288 -1344 0
v -4352 -1344 0
v -4416 -1344 0
v -4480 -1344 0
v -4544 -1344 0
v -4608 -1344 0
v -4672 -1344 0
v -4736 -1344 0
v -3904 -1408 0
v -3968 -1408 0
v -4032 -1408 0
v -4096 -1408 0
v -4160 -1408 0
v -4224 -1408 0
v -4288 -1408 0
v -4352 -1408 0
v -4416 -1408 0
v -4480 -1408 0
v -4544 -1408 0
v -4608 -1408 0
v -4672 -1408 0
v -4736 -1408 0
v -3904 -960 0
v -3968 -960 0
v -3968 -896 0
v -3904 -896 0
v -4032 -960 0
v -4032 -896 0
v -4096 -960 0
v -4096 -896 0
v -4160 -960 0
v -4160 -896 0
v -4224 -896 0
v -4288 -896 0
v -4608 -896 0
v -3904 -1472 0
v -3968 -1472 0
v -4032 -1472 0
v -4096 -1472 0
v -4160 -1472 0
v -4224 -1472 0
v -4288 -1472 0
v -4352 -1472 0
v -4416 -1472 0
v -4480 -1472 0
v -4544 -1472 0
v -4608 -1472 0
v -4672 -1472 0
v -4736 -1472 0
v -3904 -1536 0
v -3968 -1536 0
v -4032 -1536 0
v -4096 -1536 0
v -4160 -1536 0
v -4224 -1536 0
v -4288 -1536 0
v -4352 -1536 0
v -4416 -1536 0
v -4480 -1536 0
v -4544 -1536 0
v -4608 -1536 0
v -4672 -1536 0
v -4736 -1536 0
v -3904 -1600 0
v -3968 -1600 0
v -4032 -1600 0
v -4096 -1600 0
v -4160 -1600 0
v -4224 -1600 0
v -4288 -1600 0
v -4352 -1600 0
v -4416 -1600 0
v -4480 -1600 0
v -4544 -1600 0
v -4608 -1600 0
v -4672 -1600 0
v -4736 -1600 0
v -3904 -1664 0
v -3968 -1664 0
v -4032 -1664 0
v -4096 -1664 0
v -4160 -1664 0
v -4224 -1664 0
v -4288 -1664 0
v -4352 -1664 0
v -4416 -1664 0
v -4480 -1664 0
v -4544 -1664 0
v -4608 -1664 0
v -4672 -1664 0
v -4736 -1664 0
v -3904 -1728 0
v -3968 -1728 0
v -4032 -1728 0
v -4096 -1728 0
v -4160 -1728 0
v -4224 -1728 0
v -4288 -1728 0
v -4352 -1728 0
v -4416 -1728 0
v -4480 -1728 0
v -4544 -1728 0
v -4608 -1728 0
v -4672 -1728 0
v -4736 -1728 0
v -3904 -1792 0
v -3968 -1792 0
v -4032 -1792 0
v -4096 -1792 0
v -4160 -1792 0
v -4224 -1792 0
v -4288 -1792 0
v -4352 -1792 0
v -4416 -1792 0
v -4480 -1792 0
v -4544 -1792 0
v -4608 -1792 0
v -4672 -1792 0
v -4736 -1792 0
v -3904 -1856 0
v -3968 -1856 0
v -4032 -1856 0
v -4096 -1856 0
v -4160 -1856 0
v -4224 -1856 0
v -4288 -1856 0
v -4352 -1856 0
v -4416 -1856 0
v -4480 -1856 0
v -4544 -1856 0
v -4608 -1856 0
v -4672 -1856 0
v -4736 -1856 0
v -3904 -1920 0
v -3968 -1920 0
v -4032 -1920 0
v -4096 -1920 0
v -4160 -1920 0
v -4224 -1920 0
v -4288 -1920 0
v -4352 -1920 0
v -4416 -1920 0
v -4480 -1920 0
v -4544 -1920 0
v -4608 -1920 0
v -4672 -1920 0
v -4736 -1920 0
v -3904 -1984 0
v -3968 -1984 0
v -4032 -1984 0
v -4096 -1984 0
v -4160 -1984 0
v -4224 -1984 0
v -4288 -1984 0
v -4352 -1984 0
v -4416 -1984 0
v -4480 -1984 0
v -4544 -1984 0
v -4608 -1984 0
v -4672 -1984 0
v -4736 -1984 0
v -3904 -2048 0
v -3968 -2048 0
v -4032 -2048 0
v -4096 -2048 0
v -4160 -2048 0
v -4224 -2048 0
v -4288 -2048 0
v -4352 -2048 0
v -4416 -2048 0
v -4480 -2048 0
v -4544 -2048 0
v -4608 -2048 0
v -4672 -2048 0
v -4736 -2048 0
v -3904 -2112 0
v -3968 -2112 0
v -4032 -2112 0
v -4096 -2112 0
v -4160 -2112 0
v -4224 -2112 0
v -4288 -2112 0
v -4352 -2112 0
v -4416 -2112 0
v -4480 -2112 0
v -4544 -2112 0
v -4608 -2112 0
v -4672 -2112 0
v -4736 -2112 0
v -3904 -2176 0
v -3968 -2176 0
v -4032 -2176 0
v -4096 -2176 0
v -4160 -2176 0
v -4224 -2176 0
v -4288 -2176 0
v -4352 -2176 0
v -4416 -2176 0
v -4480 -2176 0
v -4544 -2176 0
v -4608 -2176 0
v -4672 -2176 0
v -4736 -2176 0
v -3904 -2240 0
v -3968 -2240 0
v -4032 -2240 0
v -4096 -2240 0
v -4160 -2240 0
v -4224 -2240 0
v -4288 -2240 0
v -4352 -2240 0
v -4416 -2240 0
v -4480 -2240 0
v -4544 -2240 0
v -4608 -2240 0
v -4672 -2240 0
v -4736 -2240 0
v -3904 -2304 0
v -3968 -2304 0
v -4032 -2304 0
v -4096 -2304 0
v -4160 -2304 0
v -4224 -2304 0
v -4288 -2304 0
v -4352 -2304 0
v -4416 -2304 0
v -4480 -2304 0
v -4544 -2304 0
v -4608 -2304 0
v -4672 -2304 0
v -4736 -2304 0
v -3904 -2368 0
v -3968 -2368 0
v -4032 -2368 0
v -4096 -2368 0
v -4160 -2368 0
v -4224 -2368 0
v -4288 -2368 0
v -4352 -2368 0
v -4416 -2368 0
v -4480 -2368 0
v -4544 -2368 0
v -4608 -2368 0
v -4672 -2368 0
v -4736 -2368 0

# Texture Coorindates (Count = 76)
vt 0.06262207 0.8126221
vt 0.1248779 0.8126221
vt 0.1248779 0.8748779
vt 0.06262207 0.8748779
vt 0.5001221 0.8126221
vt 0.5623779 0.8126221
vt 0.5623779 0.8748779
vt 0.5001221 0.8748779
vt 0.5626221 0.8126221
vt 0.6248779 0.8126221
vt 0.6248779 0.8748779
vt 0.5626221 0.8748779
vt 0.6876221 0.8126221
vt 0.7498779 0.8126221
vt 0.7498779 0.8748779
vt 0.6876221 0.8748779
vt 0.7501221 0.8126221
vt 0.8123779 0.8126221
vt 0.8123779 0.8748779
vt 0.7501221 0.8748779
vt 0.8126221 0.8126221
vt 0.8748779 0.8126221
vt 0.8748779 0.8748779
vt 0.8126221 0.8748779
vt 0.6251221 0.8126221
vt 0.6873779 0.8126221
vt 0.6873779 0.8748779
vt 0.6251221 0.8748779
vt 0.0001220703 0.8751221
vt 0.06237793 0.8751221
vt 0.06237793 0.9373779
vt 0.0001220703 0.9373779
vt 0.9376221 0.8751221
vt 0.9998779 0.8751221
vt 0.9998779 0.9373779
vt 0.9376221 0.9373779
vt 0.5626221 0.8751221
vt 0.6248779 0.8751221
vt 0.6248779 0.9373779
vt 0.5626221 0.9373779
vt 0.5001221 0.8751221
vt 0.5623779 0.8751221
vt 0.5623779 0.9373779
vt 0.5001221 0.9373779
vt 0.8751221 0.8751221
vt 0.9373779 0.8751221
vt 0.9373779 0.9373779
vt 0.8751221 0.9373779
vt 0.2501221 0.8751221
vt 0.3123779 0.8751221
vt 0.3123779 0.9373779
vt 0.2501221 0.9373779
vt 0.8126221 0.8751221
vt 0.8748779 0.8751221
vt 0.8748779 0.9373779
vt 0.8126221 0.9373779
vt 0.7501221 0.8751221
vt 0.8123779 0.8751221
vt 0.8123779 0.9373779
vt 0.7501221 0.9373779
vt 0.06262207 0.8751221
vt 0.1248779 0.8751221
vt 0.1248779 0.9373779
vt 0.06262207 0.9373779
vt 0.1251221 0.8751221
vt 0.1873779 0.8751221
vt 0.1873779 0.9373779
vt 0.1251221 0.9373779
vt 0.06262207 0.9376221
vt 0.1248779 0.9376221
vt 0.1248779 0.9998779
vt 0.06262207 0.9998779
vt 0.0001220703 0.9376221
vt 0.06237793 0.9376221
vt 0.06237793 0.9998779
vt 0.0001220703 0.9998779

# Normal
vn 0 0 -1

# Groups (Count = 2)
g mesh_[00]_[00]
f  1/1/1  2/2/1  3/3/1  4/4/1 
f  5/1/1  6/2/1  7/3/1  8/4/1 
f  6/1/1  9/2/1  10/3/1  7/4/1 
f  9/5/1  11/6/1  12/7/1  10/8/1 
f  11/9/1  13/10/1  14/11/1  12/12/1 
f  13/1/1  15/2/1  16/3/1  14/4/1 
f  15/1/1  17/2/1  18/3/1  16/4/1 
f  17/1/1  19/2/1  1/3/1  18/4/1 
f  19/1/1  20/2/1  2/3/1  1/4/1 
f  21/1/1  22/2/1  23/3/1  24/4/1 
f  22/1/1  25/2/1  26/3/1  23/4/1 
f  25/5/1  27/6/1  28/7/1  26/8/1 
f  27/9/1  29/10/1  30/11/1  28/12/1 
f  29/1/1  31/2/1  5/3/1  30/4/1 
f  31/13/1  32/14/1  6/15/1  5/16/1 
f  32/1/1  33/2/1  9/3/1  6/4/1 
f  33/5/1  34/6/1  11/7/1  9/8/1 
f  34/9/1  35/10/1  13/11/1  11/12/1 
f  35/1/1  36/2/1  15/3/1  13/4/1 
f  36/13/1  37/14/1  17/15/1  15/16/1 
f  37/1/1  38/2/1  19/3/1  17/4/1 
f  38/1/1  39/2/1  20/3/1  19/4/1 
f  40/1/1  41/2/1  22/3/1  21/4/1 
f  41/1/1  42/2/1  25/3/1  22/4/1 
f  42/17/1  43/18/1  27/19/1  25/20/1 
f  43/21/1  44/22/1  29/23/1  27/24/1 
f  44/1/1  45/2/1  31/3/1  29/4/1 
f  45/25/1  46/26/1  32/27/1  31/28/1 
f  46/1/1  47/2/1  33/3/1  32/4/1 
f  47/5/1  48/6/1  34/7/1  33/8/1 
f  48/1/1  49/2/1  35/3/1  34/4/1 
f  49/1/1  50/2/1  36/3/1  35/4/1 
f  50/25/1  51/26/1  37/27/1  36/28/1 
f  51/1/1  52/2/1  38/3/1  37/4/1 
f  52/1/1  53/2/1  39/3/1  38/4/1 
f  54/1/1  55/2/1  41/3/1  40/4/1 
f  55/1/1  56/2/1  42/3/1  41/4/1 
f  56/5/1  57/6/1  43/7/1  42/8/1 
f  57/9/1  58/10/1  44/11/1  43/12/1 
f  58/1/1  59/2/1  45/3/1  44/4/1 
f  59/1/1  60/2/1  46/3/1  45/4/1 
f  60/1/1  61/2/1  47/3/1  46/4/1 
f  61/1/1  62/2/1  48/3/1  47/4/1 
f  62/1/1  63/2/1  49/3/1  48/4/1 
f  63/1/1  64/2/1  50/3/1  49/4/1 
f  64/1/1  65/2/1  51/3/1  50/4/1 
f  65/1/1  66/2/1  52/3/1  51/4/1 
f  66/1/1  67/2/1  53/3/1  52/4/1 
f  68/1/1  69/2/1  55/3/1  54/4/1 
f  69/1/1  70/2/1  56/3/1  55/4/1 
f  70/5/1  71/6/1  57/7/1  56/8/1 
f  71/9/1  72/10/1  58/11/1  57/12/1 
f  72/1/1  73/2/1  59/3/1  58/4/1 
f  73/1/1  74/2/1  60/3/1  59/4/1 
f  74/1/1  75/2/1  61/3/1  60/4/1 
f  75/1/1  76/2/1  62/3/1  61/4/1 
f  76/1/1  77/2/1  63/3/1  62/4/1 
f  77/1/1  78/2/1  64/3/1  63/4/1 
f  78/1/1  79/2/1  65/3/1  64/4/1 
f  79/1/1  80/2/1  66/3/1  65/4/1 
f  80/1/1  81/2/1  67/3/1  66/4/1 
f  82/1/1  83/2/1  69/3/1  68/4/1 
f  83/1/1  84/2/1  70/3/1  69/4/1 
f  84/1/1  85/2/1  71/3/1  70/4/1 
f  85/1/1  86/2/1  72/3/1  71/4/1 
f  86/1/1  87/2/1  73/3/1  72/4/1 
f  87/1/1  88/2/1  74/3/1  73/4/1 
f  88/1/1  89/2/1  75/3/1  74/4/1 
f  89/1/1  90/2/1  76/3/1  75/4/1 
f  90/1/1  91/2/1  77/3/1  76/4/1 
f  91/1/1  92/2/1  78/3/1  77/4/1 
f  92/1/1  93/2/1  79/3/1  78/4/1 
f  93/1/1  94/2/1  80/3/1  79/4/1 
f  94/1/1  95/2/1  81/3/1  80/4/1 
f  96/1/1  97/2/1  83/3/1  82/4/1 
f  97/1/1  98/2/1  84/3/1  83/4/1 
f  98/1/1  99/2/1  85/3/1  84/4/1 
f  99/1/1  100/2/1  86/3/1  85/4/1 
f  100/1/1  101/2/1  87/3/1  86/4/1 
f  101/1/1  102/2/1  88/3/1  87/4/1 
f  102/1/1  103/2/1  89/3/1  88/4/1 
f  103/1/1  104/2/1  90/3/1  89/4/1 
f  104/1/1  105/2/1  91/3/1  90/4/1 
f  105/1/1  106/2/1  92/3/1  91/4/1 
f  106/1/1  107/2/1  93/3/1  92/4/1 
f  107/1/1  108/2/1  94/3/1  93/4/1 
f  108/1/1  109/2/1  95/3/1  94/4/1 
g mesh_[01]_[00]
f  110/29/1  111/30/1  112/31/1  113/32/1 
f  111/29/1  114/30/1  115/31/1  112/32/1 
f  114/29/1  116/30/1  117/31/1  115/32/1 
f  116/29/1  118/30/1  119/31/1  117/32/1 
f  118/33/1  8/34/1  120/35/1  119/36/1 
f  8/37/1  7/38/1  121/39/1  120/40/1 
f  18/41/1  1/42/1  4/43/1  122/44/1 
f  1/45/1  2/46/1  3/47/1  4/48/1 
f  24/49/1  23/50/1  111/51/1  110/52/1 
f  23/49/1  26/50/1  114/51/1  111/52/1 
f  26/49/1  28/50/1  116/51/1  114/52/1 
f  28/49/1  30/50/1  118/51/1  116/52/1 
f  30/53/1  5/54/1  8/55/1  118/56/1 
f  19/57/1  20/58/1  2/59/1  1/60/1 
f  48/45/1  49/46/1  35/47/1  34/48/1 
f  49/33/1  50/34/1  36/35/1  35/36/1 
f  60/45/1  61/46/1  47/47/1  46/48/1 
f  61/29/1  62/30/1  48/31/1  47/32/1 
f  62/61/1  63/62/1  49/63/1  48/64/1 
f  63/65/1  64/66/1  50/67/1  49/68/1 
f  72/45/1  73/46/1  59/47/1  58/48/1 
f  73/29/1  74/30/1  60/31/1  59/32/1 
f  74/61/1  75/62/1  61/63/1  60/64/1 
f  75/61/1  76/62/1  62/63/1  61/64/1 
f  76/61/1  77/62/1  63/63/1  62/64/1 
f  77/65/1  78/66/1  64/67/1  63/68/1 
f  84/45/1  85/46/1  71/47/1  70/48/1 
f  85/29/1  86/30/1  72/31/1  71/32/1 
f  86/61/1  87/62/1  73/63/1  72/64/1 
f  87/61/1  88/62/1  74/63/1  73/64/1 
f  88/61/1  89/62/1  75/63/1  74/64/1 
f  89/61/1  90/62/1  76/63/1  75/64/1 
f  90/61/1  91/62/1  77/63/1  76/64/1 
f  91/65/1  92/66/1  78/67/1  77/68/1 
f  96/45/1  97/46/1  83/47/1  82/48/1 
f  97/29/1  98/30/1  84/31/1  83/32/1 
f  98/61/1  99/62/1  85/63/1  84/64/1 
f  99/61/1  100/62/1  86/63/1  85/64/1 
f  100/61/1  101/62/1  87/63/1  86/64/1 
f  101/61/1  102/62/1  88/63/1  87/64/1 
f  102/61/1  103/62/1  89/63/1  88/64/1 
f  103/61/1  104/62/1  90/63/1  89/64/1 
f  104/61/1  105/62/1  91/63/1  90/64/1 
f  105/65/1  106/66/1  92/67/1  91/68/1 
f  123/61/1  124/62/1  97/63/1  96/64/1 
f  124/61/1  125/62/1  98/63/1  97/64/1 
f  125/61/1  126/62/1  99/63/1  98/64/1 
f  126/61/1  127/62/1  100/63/1  99/64/1 
f  127/61/1  128/62/1  101/63/1  100/64/1 
f  128/61/1  129/62/1  102/63/1  101/64/1 
f  129/61/1  130/62/1  103/63/1  102/64/1 
f  130/61/1  131/62/1  104/63/1  103/64/1 
f  131/61/1  132/62/1  105/63/1  104/64/1 
f  132/61/1  133/62/1  106/63/1  105/64/1 
f  133/29/1  134/30/1  107/31/1  106/32/1 
f  134/29/1  135/30/1  108/31/1  107/32/1 
f  135/29/1  136/30/1  109/31/1  108/32/1 
f  137/69/1  138/70/1  124/71/1  123/72/1 
f  138/69/1  139/70/1  125/71/1  124/72/1 
f  139/69/1  140/70/1  126/71/1  125/72/1 
f  140/69/1  141/70/1  127/71/1  126/72/1 
f  141/69/1  142/70/1  128/71/1  127/72/1 
f  142/69/1  143/70/1  129/71/1  128/72/1 
f  143/69/1  144/70/1  130/71/1  129/72/1 
f  144/69/1  145/70/1  131/71/1  130/72/1 
f  145/69/1  146/70/1  132/71/1  131/72/1 
f  146/69/1  147/70/1  133/71/1  132/72/1 
f  147/69/1  148/70/1  134/71/1  133/72/1 
f  148/69/1  149/70/1  135/71/1  134/72/1 
f  149/69/1  150/70/1  136/71/1  135/72/1 
f  151/73/1  152/74/1  138/75/1  137/76/1 
f  152/73/1  153/74/1  139/75/1  138/76/1 
f  153/73/1  154/74/1  140/75/1  139/76/1 
f  154/73/1  155/74/1  141/75/1  140/76/1 
f  155/73/1  156/74/1  142/75/1  141/76/1 
f  156/73/1  157/74/1  143/75/1  142/76/1 
f  157/73/1  158/74/1  144/75/1  143/76/1 
f  158/73/1  159/74/1  145/75/1  144/76/1 
f  159/73/1  160/74/1  146/75/1  145/76/1 
f  160/73/1  161/74/1  147/75/1  146/76/1 
f  161/73/1  162/74/1  148/75/1  147/76/1 
f  162/73/1  163/74/1  149/75/1  148/76/1 
f  163/73/1  164/74/1  150/75/1  149/76/1 
f  165/73/1  166/74/1  152/75/1  151/76/1 
f  166/73/1  167/74/1  153/75/1  152/76/1 
f  167/73/1  168/74/1  154/75/1  153/76/1 
f  168/73/1  169/74/1  155/75/1  154/76/1 
f  169/73/1  170/74/1  156/75/1  155/76/1 
f  170/73/1  171/74/1  157/75/1  156/76/1 
f  171/73/1  172/74/1  158/75/1  157/76/1 
f  172/73/1  173/74/1  159/75/1  158/76/1 
f  173/73/1  174/74/1  160/75/1  159/76/1 
f  174/73/1  175/74/1  161/75/1  160/76/1 
f  175/73/1  176/74/1  162/75/1  161/76/1 
f  176/73/1  177/74/1  163/75/1  162/76/1 
f  177/73/1  178/74/1  164/75/1  163/76/1 
f  179/73/1  180/74/1  166/75/1  165/76/1 
f  180/73/1  181/74/1  167/75/1  166/76/1 
f  181/73/1  182/74/1  168/75/1  167/76/1 
f  182/73/1  183/74/1  169/75/1  168/76/1 
f  183/73/1  184/74/1  170/75/1  169/76/1 
f  184/73/1  185/74/1  171/75/1  170/76/1 
f  185/73/1  186/74/1  172/75/1  171/76/1 
f  186/73/1  187/74/1  173/75/1  172/76/1 
f  187/73/1  188/74/1  174/75/1  173/76/1 
f  188/73/1  189/74/1  175/75/1  174/76/1 
f  189/73/1  190/74/1  176/75/1  175/76/1 
f  190/73/1  191/74/1  177/75/1  176/76/1 
f  191/73/1  192/74/1  178/75/1  177/76/1 
f  193/73/1  194/74/1  180/75/1  179/76/1 
f  194/73/1  195/74/1  181/75/1  180/76/1 
f  195/73/1  196/74/1  182/75/1  181/76/1 
f  196/73/1  197/74/1  183/75/1  182/76/1 
f  197/73/1  198/74/1  184/75/1  183/76/1 
f  198/73/1  199/74/1  185/75/1  184/76/1 
f  199/73/1  200/74/1  186/75/1  185/76/1 
f  200/73/1  201/74/1  187/75/1  186/76/1 
f  201/73/1  202/74/1  188/75/1  187/76/1 
f  202/73/1  203/74/1  189/75/1  188/76/1 
f  203/73/1  204/74/1  190/75/1  189/76/1 
f  204/73/1  205/74/1  191/75/1  190/76/1 
f  205/73/1  206/74/1  192/75/1  191/76/1 
f  207/73/1  208/74/1  194/75/1  193/76/1 
f  208/73/1  209/74/1  195/75/1  194/76/1 
f  209/73/1  210/74/1  196/75/1  195/76/1 
f  210/73/1  211/74/1  197/75/1  196/76/1 
f  211/73/1  212/74/1  198/75/1  197/76/1 
f  212/73/1  213/74/1  199/75/1  198/76/1 
f  213/73/1  214/74/1  200/75/1  199/76/1 
f  214/73/1  215/74/1  201/75/1  200/76/1 
f  215/73/1  216/74/1  202/75/1  201/76/1 
f  216/73/1  217/74/1  203/75/1  202/76/1 
f  217/73/1  218/74/1  204/75/1  203/76/1 
f  218/73/1  219/74/1  205/75/1  204/76/1 
f  219/73/1  220/74/1  206/75/1  205/76/1 
f  221/73/1  222/74/1  208/75/1  207/76/1 
f  222/73/1  223/74/1  209/75/1  208/76/1 
f  223/73/1  224/74/1  210/75/1  209/76/1 
f  224/73/1  225/74/1  211/75/1  210/76/1 
f  225/73/1  226/74/1  212/75/1  211/76/1 
f  226/73/1  227/74/1  213/75/1  212/76/1 
f  227/73/1  228/74/1  214/75/1  213/76/1 
f  228/73/1  229/74/1  215/75/1  214/76/1 
f  229/73/1  230/74/1  216/75/1  215/76/1 
f  230/73/1  231/74/1  217/75/1  216/76/1 
f  231/73/1  232/74/1  218/75/1  217/76/1 
f  232/73/1  233/74/1  219/75/1  218/76/1 
f  233/73/1  234/74/1  220/75/1  219/76/1 
f  235/73/1  236/74/1  222/75/1  221/76/1 
f  236/73/1  237/74/1  223/75/1  222/76/1 
f  237/73/1  238/74/1  224/75/1  223/76/1 
f  238/73/1  239/74/1  225/75/1  224/76/1 
f  239/73/1  240/74/1  226/75/1  225/76/1 
f  240/73/1  241/74/1  227/75/1  226/76/1 
f  241/73/1  242/74/1  228/75/1  227/76/1 
f  242/73/1  243/74/1  229/75/1  228/76/1 
f  243/73/1  244/74/1  230/75/1  229/76/1 
f  244/73/1  245/74/1  231/75/1  230/76/1 
f  245/73/1  246/74/1  232/75/1  231/76/1 
f  246/73/1  247/74/1  233/75/1  232/76/1 
f  247/73/1  248/74/1  234/75/1  233/76/1 
f  249/73/1  250/74/1  236/75/1  235/76/1 
f  250/73/1  251/74/1  237/75/1  236/76/1 
f  251/73/1  252/74/1  238/75/1  237/76/1 
f  252/73/1  253/74/1  239/75/1  238/76/1 
f  253/73/1  254/74/1  240/75/1  239/76/1 
f  254/73/1  255/74/1  241/75/1  240/76/1 
f  255/73/1  256/74/1  242/75/1  241/76/1 
f  256/73/1  257/74/1  243/75/1  242/76/1 
f  257/73/1  258/74/1  244/75/1  243/76/1 
f  258/73/1  259/74/1  245/75/1  244/76/1 
f  259/73/1  260/74/1  246/75/1  245/76/1 
f  260/73/1  261/74/1  247/75/1  246/76/1 
f  261/73/1  262/74/1  248/75/1  247/76/1 
f  263/73/1  264/74/1  250/75/1  249/76/1 
f  264/73/1  265/74/1  251/75/1  250/76/1 
f  265/73/1  266/74/1  252/75/1  251/76/1 
f  266/73/1  267/74/1  253/75/1  252/76/1 
f  267/73/1  268/74/1  254/75/1  253/76/1 
f  268/73/1  269/74/1  255/75/1  254/76/1 
f  269/73/1  270/74/1  256/75/1  255/76/1 
f  270/73/1  271/74/1  257/75/1  256/76/1 
f  271/73/1  272/74/1  258/75/1  257/76/1 
f  272/73/1  273/74/1  259/75/1  258/76/1 
f  273/73/1  274/74/1  260/75/1  259/76/1 
f  274/73/1  275/74/1  261/75/1  260/76/1 
f  275/73/1  276/74/1  262/75/1  261/76/1 
f  277/73/1  278/74/1  264/75/1  263/76/1 
f  278/73/1  279/74/1  265/75/1  264/76/1 
f  279/73/1  280/74/1  266/75/1  265/76/1 
f  280/73/1  281/74/1  267/75/1  266/76/1 
f  281/73/1  282/74/1  268/75/1  267/76/1 
f  282/73/1  283/74/1  269/75/1  268/76/1 
f  283/73/1  284/74/1  270/75/1  269/76/1 
f  284/73/1  285/74/1  271/75/1  270/76/1 
f  285/73/1  286/74/1  272/75/1  271/76/1 
f  286/73/1  287/74/1  273/75/1  272/76/1 
f  287/73/1  288/74/1  274/75/1  273/76/1 
f  288/73/1  289/74/1  275/75/1  274/76/1 
f  289/73/1  290/74/1  276/75/1  275/76/1 
f  291/73/1  292/74/1  278/75/1  277/76/1 
f  292/73/1  293/74/1  279/75/1  278/76/1 
f  293/73/1  294/74/1  280/75/1  279/76/1 
f  294/73/1  295/74/1  281/75/1  280/76/1 
f  295/73/1  296/74/1  282/75/1  281/76/1 
f  296/73/1  297/74/1  283/75/1  282/76/1 
f  297/73/1  298/74/1  284/75/1  283/76/1 
f  298/73/1  299/74/1  285/75/1  284/76/1 
f  299/73/1  300/74/1  286/75/1  285/76/1 
f  300/73/1  301/74/1  287/75/1  286/76/1 
f  301/73/1  302/74/1  288/75/1  287/76/1 
f  302/73/1  303/74/1  289/75/1  288/76/1 
f  303/73/1  304/74/1  290/75/1  289/76/1 
f  305/73/1  306/74/1  292/75/1  291/76/1 
f  306/73/1  307/74/1  293/75/1  292/76/1 
f  307/73/1  308/74/1  294/75/1  293/76/1 
f  308/73/1  309/74/1  295/75/1  294/76/1 
f  309/73/1  310/74/1  296/75/1  295/76/1 
f  310/73/1  311/74/1  297/75/1  296/76/1 
f  311/73/1  312/74/1  298/75/1  297/76/1 
f  312/73/1  313/74/1  299/75/1  298/76/1 
f  313/73/1  314/74/1  300/75/1  299/76/1 
f  314/73/1  315/74/1  301/75/1  300/76/1 
f  315/73/1  316/74/1  302/75/1  301/76/1 
f  316/73/1  317/74/1  303/75/1  302/76/1 
f  317/73/1  318/74/1  304/75/1  303/76/1 
f  319/73/1  320/74/1  306/75/1  305/76/1 
f  320/73/1  321/74/1  307/75/1  306/76/1 
f  321/73/1  322/74/1  308/75/1  307/76/1 
f  322/73/1  323/74/1  309/75/1  308/76/1 
f  323/73/1  324/74/1  310/75/1  309/76/1 
f  324/73/1  325/74/1  311/75/1  310/76/1 
f  325/73/1  326/74/1  312/75/1  311/76/1 
f  326/73/1  327/74/1  313/75/1  312/76/1 
f  327/73/1  328/74/1  314/75/1  313/76/1 
f  328/73/1  329/74/1  315/75/1  314/76/1 
f  329/73/1  330/74/1  316/75/1  315/76/1 
f  330/73/1  331/74/1  317/75/1  316/76/1 
f  331/73/1  332/74/1  318/75/1  317/76/1 
