# Wavefront OBJ file automatically generated by Tiled2Unity

# Vertices (Count = 320)
v -4672 -960 0
v -4736 -960 0
v -4736 -896 0
v -4672 -896 0
v -4160 -1024 0
v -4224 -1024 0
v -4224 -960 0
v -4160 -960 0
v -4288 -1024 0
v -4288 -960 0
v -4352 -1024 0
v -4352 -960 0
v -4416 -1024 0
v -4416 -960 0
v -4480 -1024 0
v -4480 -960 0
v -4544 -1024 0
v -4544 -960 0
v -4608 -1024 0
v -4608 -960 0
v -4672 -1024 0
v -4736 -1024 0
v -3904 -1088 0
v -3968 -1088 0
v -3968 -1024 0
v -3904 -1024 0
v -4032 -1088 0
v -4032 -1024 0
v -4096 -1088 0
v -4096 -1024 0
v -4160 -1088 0
v -4224 -1088 0
v -4288 -1088 0
v -4352 -1088 0
v -4416 -1088 0
v -4480 -1088 0
v -4544 -1088 0
v -4608 -1088 0
v -4672 -1088 0
v -4736 -1088 0
v -3904 -1152 0
v -3968 -1152 0
v -4032 -1152 0
v -4096 -1152 0
v -4160 -1152 0
v -4224 -1152 0
v -4288 -1152 0
v -4352 -1152 0
v -4416 -1152 0
v -4480 -1152 0
v -4544 -1152 0
v -4608 -1152 0
v -4672 -1152 0
v -4736 -1152 0
v -3904 -1216 0
v -3968 -1216 0
v -4032 -1216 0
v -4096 -1216 0
v -4160 -1216 0
v -4224 -1216 0
v -4288 -1216 0
v -4352 -1216 0
v -4416 -1216 0
v -4480 -1216 0
v -4544 -1216 0
v -4608 -1216 0
v -4672 -1216 0
v -4736 -1216 0
v -3904 -1280 0
v -3968 -1280 0
v -4032 -1280 0
v -4096 -1280 0
v -4160 -1280 0
v -4224 -1280 0
v -4288 -1280 0
v -4352 -1280 0
v -4416 -1280 0
v -4480 -1280 0
v -4544 -1280 0
v -4608 -1280 0
v -4672 -1280 0
v -4736 -1280 0
v -3904 -1344 0
v -3968 -1344 0
v -4032 -1344 0
v -4096 -1344 0
v -4160 -1344 0
v -4224 -1344 0
v -4288 -1344 0
v -4352 -1344 0
v -4416 -1344 0
v -4480 -1344 0
v -4544 -1344 0
v -4608 -1344 0
v -4672 -1344 0
v -4736 -1344 0
v -3904 -1408 0
v -3968 -1408 0
v -4032 -1408 0
v -4096 -1408 0
v -4160 -1408 0
v -4224 -1408 0
v -4288 -1408 0
v -4352 -1408 0
v -4416 -1408 0
v -4480 -1408 0
v -4544 -1408 0
v -4608 -1408 0
v -4672 -1408 0
v -4736 -1408 0
v -3904 -1472 0
v -3968 -1472 0
v -4032 -1472 0
v -4096 -1472 0
v -4160 -1472 0
v -4224 -1472 0
v -4288 -1472 0
v -4352 -1472 0
v -4416 -1472 0
v -4480 -1472 0
v -4544 -1472 0
v -4608 -1472 0
v -4672 -1472 0
v -4736 -1472 0
v -3968 -1536 0
v -4032 -1536 0
v -4096 -1536 0
v -4160 -1536 0
v -4224 -1536 0
v -4288 -1536 0
v -4352 -1536 0
v -4416 -1536 0
v -4480 -1536 0
v -4544 -1536 0
v -4608 -1536 0
v -4672 -1536 0
v -4736 -1536 0
v -3968 -1600 0
v -4032 -1600 0
v -4096 -1600 0
v -4160 -1600 0
v -4224 -1600 0
v -4288 -1600 0
v -4352 -1600 0
v -4416 -1600 0
v -4480 -1600 0
v -4544 -1600 0
v -4608 -1600 0
v -4096 -1664 0
v -4160 -1664 0
v -4224 -1664 0
v -4288 -1664 0
v -4352 -1664 0
v -4416 -1664 0
v -4480 -1664 0
v -4544 -1664 0
v -4608 -1664 0
v -4096 -1728 0
v -4160 -1728 0
v -4224 -1728 0
v -4288 -1728 0
v -4352 -1728 0
v -4416 -1728 0
v -4480 -1728 0
v -4544 -1728 0
v -4608 -1728 0
v -4096 -1792 0
v -4160 -1792 0
v -4224 -1792 0
v -4288 -1792 0
v -4352 -1792 0
v -4416 -1792 0
v -4480 -1792 0
v -4544 -1792 0
v -4608 -1792 0
v -4096 -1856 0
v -4160 -1856 0
v -4224 -1856 0
v -4288 -1856 0
v -4352 -1856 0
v -4416 -1856 0
v -4480 -1856 0
v -4544 -1856 0
v -4608 -1856 0
v -3904 -960 0
v -3968 -960 0
v -3968 -896 0
v -3904 -896 0
v -4032 -960 0
v -4032 -896 0
v -4096 -960 0
v -4096 -896 0
v -4160 -896 0
v -4224 -896 0
v -4480 -896 0
v -4416 -896 0
v -4544 -896 0
v -4608 -896 0
v -3904 -1536 0
v -3904 -1600 0
v -4672 -1600 0
v -4736 -1600 0
v -3904 -1664 0
v -3968 -1664 0
v -4032 -1664 0
v -4672 -1664 0
v -4736 -1664 0
v -3904 -1728 0
v -3968 -1728 0
v -4032 -1728 0
v -4672 -1728 0
v -4736 -1728 0
v -3904 -1792 0
v -3968 -1792 0
v -4032 -1792 0
v -4672 -1792 0
v -4736 -1792 0
v -3904 -1856 0
v -3968 -1856 0
v -4032 -1856 0
v -4672 -1856 0
v -4736 -1856 0
v -3904 -1920 0
v -3968 -1920 0
v -4032 -1920 0
v -4096 -1920 0
v -4160 -1920 0
v -4224 -1920 0
v -4288 -1920 0
v -4352 -1920 0
v -4416 -1920 0
v -4480 -1920 0
v -4544 -1920 0
v -4608 -1920 0
v -4672 -1920 0
v -4736 -1920 0
v -3904 -1984 0
v -3968 -1984 0
v -4032 -1984 0
v -4096 -1984 0
v -4160 -1984 0
v -4224 -1984 0
v -4288 -1984 0
v -4352 -1984 0
v -4416 -1984 0
v -4480 -1984 0
v -4544 -1984 0
v -4608 -1984 0
v -4672 -1984 0
v -4736 -1984 0
v -3904 -2048 0
v -3968 -2048 0
v -4032 -2048 0
v -4096 -2048 0
v -4160 -2048 0
v -4224 -2048 0
v -4288 -2048 0
v -4352 -2048 0
v -4416 -2048 0
v -4480 -2048 0
v -4544 -2048 0
v -4608 -2048 0
v -4672 -2048 0
v -4736 -2048 0
v -3904 -2112 0
v -3968 -2112 0
v -4032 -2112 0
v -4096 -2112 0
v -4160 -2112 0
v -4224 -2112 0
v -4288 -2112 0
v -4352 -2112 0
v -4416 -2112 0
v -4480 -2112 0
v -4544 -2112 0
v -4608 -2112 0
v -4672 -2112 0
v -4736 -2112 0
v -3904 -2176 0
v -3968 -2176 0
v -4032 -2176 0
v -4096 -2176 0
v -4160 -2176 0
v -4224 -2176 0
v -4288 -2176 0
v -4352 -2176 0
v -4416 -2176 0
v -4480 -2176 0
v -4544 -2176 0
v -4608 -2176 0
v -4672 -2176 0
v -4736 -2176 0
v -3904 -2240 0
v -3968 -2240 0
v -4032 -2240 0
v -4096 -2240 0
v -4160 -2240 0
v -4224 -2240 0
v -4288 -2240 0
v -4352 -2240 0
v -4416 -2240 0
v -4480 -2240 0
v -4544 -2240 0
v -4608 -2240 0
v -4672 -2240 0
v -4736 -2240 0
v -3904 -2304 0
v -3968 -2304 0
v -4032 -2304 0
v -4096 -2304 0
v -4160 -2304 0
v -4224 -2304 0
v -4288 -2304 0
v -4352 -2304 0
v -4416 -2304 0
v -4480 -2304 0
v -4544 -2304 0
v -4608 -2304 0
v -4672 -2304 0
v -4736 -2304 0

# Texture Coorindates (Count = 72)
vt 0.06262207 0.8126221
vt 0.1248779 0.8126221
vt 0.1248779 0.8748779
vt 0.06262207 0.8748779
vt 0.0001220703 0.8751221
vt 0.06237793 0.8751221
vt 0.06237793 0.9373779
vt 0.0001220703 0.9373779
vt 0.9376221 0.8751221
vt 0.9998779 0.8751221
vt 0.9998779 0.9373779
vt 0.9376221 0.9373779
vt 0.8751221 0.8751221
vt 0.9373779 0.8751221
vt 0.9373779 0.9373779
vt 0.8751221 0.9373779
vt 0.2501221 0.8751221
vt 0.3123779 0.8751221
vt 0.3123779 0.9373779
vt 0.2501221 0.9373779
vt 0.6876221 0.8751221
vt 0.7498779 0.8751221
vt 0.7498779 0.9373779
vt 0.6876221 0.9373779
vt 0.6251221 0.8751221
vt 0.6873779 0.8751221
vt 0.6873779 0.9373779
vt 0.6251221 0.9373779
vt 0.4376221 0.8751221
vt 0.4998779 0.8751221
vt 0.4998779 0.9373779
vt 0.4376221 0.9373779
vt 0.3126221 0.8751221
vt 0.3748779 0.8751221
vt 0.3748779 0.9373779
vt 0.3126221 0.9373779
vt 0.5001221 0.8751221
vt 0.5623779 0.8751221
vt 0.5623779 0.9373779
vt 0.5001221 0.9373779
vt 0.5626221 0.8751221
vt 0.6248779 0.8751221
vt 0.6248779 0.9373779
vt 0.5626221 0.9373779
vt 0.3751221 0.8751221
vt 0.4373779 0.8751221
vt 0.4373779 0.9373779
vt 0.3751221 0.9373779
vt 0.1876221 0.8751221
vt 0.2498779 0.8751221
vt 0.2498779 0.9373779
vt 0.1876221 0.9373779
vt 0.06262207 0.8751221
vt 0.1248779 0.8751221
vt 0.1248779 0.9373779
vt 0.06262207 0.9373779
vt 0.7501221 0.8751221
vt 0.8123779 0.8751221
vt 0.8123779 0.9373779
vt 0.7501221 0.9373779
vt 0.8126221 0.8751221
vt 0.8748779 0.8751221
vt 0.8748779 0.9373779
vt 0.8126221 0.9373779
vt 0.0001220703 0.9376221
vt 0.06237793 0.9376221
vt 0.06237793 0.9998779
vt 0.0001220703 0.9998779
vt 0.1251221 0.8751221
vt 0.1873779 0.8751221
vt 0.1873779 0.9373779
vt 0.1251221 0.9373779

# Normal
vn 0 0 -1

# Groups (Count = 2)
g mesh_[00]_[00]
f  1/1/1  2/2/1  3/3/1  4/4/1 
f  5/1/1  6/2/1  7/3/1  8/4/1 
f  6/1/1  9/2/1  10/3/1  7/4/1 
f  9/1/1  11/2/1  12/3/1  10/4/1 
f  11/1/1  13/2/1  14/3/1  12/4/1 
f  13/1/1  15/2/1  16/3/1  14/4/1 
f  15/1/1  17/2/1  18/3/1  16/4/1 
f  17/1/1  19/2/1  20/3/1  18/4/1 
f  19/1/1  21/2/1  1/3/1  20/4/1 
f  21/1/1  22/2/1  2/3/1  1/4/1 
f  23/1/1  24/2/1  25/3/1  26/4/1 
f  24/1/1  27/2/1  28/3/1  25/4/1 
f  27/1/1  29/2/1  30/3/1  28/4/1 
f  29/1/1  31/2/1  5/3/1  30/4/1 
f  31/1/1  32/2/1  6/3/1  5/4/1 
f  32/1/1  33/2/1  9/3/1  6/4/1 
f  33/1/1  34/2/1  11/3/1  9/4/1 
f  34/1/1  35/2/1  13/3/1  11/4/1 
f  35/1/1  36/2/1  15/3/1  13/4/1 
f  36/1/1  37/2/1  17/3/1  15/4/1 
f  37/1/1  38/2/1  19/3/1  17/4/1 
f  38/1/1  39/2/1  21/3/1  19/4/1 
f  39/1/1  40/2/1  22/3/1  21/4/1 
f  41/1/1  42/2/1  24/3/1  23/4/1 
f  42/1/1  43/2/1  27/3/1  24/4/1 
f  43/1/1  44/2/1  29/3/1  27/4/1 
f  44/1/1  45/2/1  31/3/1  29/4/1 
f  45/1/1  46/2/1  32/3/1  31/4/1 
f  46/1/1  47/2/1  33/3/1  32/4/1 
f  47/1/1  48/2/1  34/3/1  33/4/1 
f  48/1/1  49/2/1  35/3/1  34/4/1 
f  49/1/1  50/2/1  36/3/1  35/4/1 
f  50/1/1  51/2/1  37/3/1  36/4/1 
f  51/1/1  52/2/1  38/3/1  37/4/1 
f  52/1/1  53/2/1  39/3/1  38/4/1 
f  53/1/1  54/2/1  40/3/1  39/4/1 
f  55/1/1  56/2/1  42/3/1  41/4/1 
f  56/1/1  57/2/1  43/3/1  42/4/1 
f  57/1/1  58/2/1  44/3/1  43/4/1 
f  58/1/1  59/2/1  45/3/1  44/4/1 
f  59/1/1  60/2/1  46/3/1  45/4/1 
f  60/1/1  61/2/1  47/3/1  46/4/1 
f  61/1/1  62/2/1  48/3/1  47/4/1 
f  62/1/1  63/2/1  49/3/1  48/4/1 
f  63/1/1  64/2/1  50/3/1  49/4/1 
f  64/1/1  65/2/1  51/3/1  50/4/1 
f  65/1/1  66/2/1  52/3/1  51/4/1 
f  66/1/1  67/2/1  53/3/1  52/4/1 
f  67/1/1  68/2/1  54/3/1  53/4/1 
f  69/1/1  70/2/1  56/3/1  55/4/1 
f  70/1/1  71/2/1  57/3/1  56/4/1 
f  71/1/1  72/2/1  58/3/1  57/4/1 
f  72/1/1  73/2/1  59/3/1  58/4/1 
f  73/1/1  74/2/1  60/3/1  59/4/1 
f  74/1/1  75/2/1  61/3/1  60/4/1 
f  75/1/1  76/2/1  62/3/1  61/4/1 
f  76/1/1  77/2/1  63/3/1  62/4/1 
f  77/1/1  78/2/1  64/3/1  63/4/1 
f  78/1/1  79/2/1  65/3/1  64/4/1 
f  79/1/1  80/2/1  66/3/1  65/4/1 
f  80/1/1  81/2/1  67/3/1  66/4/1 
f  81/1/1  82/2/1  68/3/1  67/4/1 
f  83/1/1  84/2/1  70/3/1  69/4/1 
f  84/1/1  85/2/1  71/3/1  70/4/1 
f  85/1/1  86/2/1  72/3/1  71/4/1 
f  86/1/1  87/2/1  73/3/1  72/4/1 
f  87/1/1  88/2/1  74/3/1  73/4/1 
f  88/1/1  89/2/1  75/3/1  74/4/1 
f  89/1/1  90/2/1  76/3/1  75/4/1 
f  90/1/1  91/2/1  77/3/1  76/4/1 
f  91/1/1  92/2/1  78/3/1  77/4/1 
f  92/1/1  93/2/1  79/3/1  78/4/1 
f  93/1/1  94/2/1  80/3/1  79/4/1 
f  94/1/1  95/2/1  81/3/1  80/4/1 
f  95/1/1  96/2/1  82/3/1  81/4/1 
f  97/1/1  98/2/1  84/3/1  83/4/1 
f  98/1/1  99/2/1  85/3/1  84/4/1 
f  99/1/1  100/2/1  86/3/1  85/4/1 
f  100/1/1  101/2/1  87/3/1  86/4/1 
f  101/1/1  102/2/1  88/3/1  87/4/1 
f  102/1/1  103/2/1  89/3/1  88/4/1 
f  103/1/1  104/2/1  90/3/1  89/4/1 
f  104/1/1  105/2/1  91/3/1  90/4/1 
f  105/1/1  106/2/1  92/3/1  91/4/1 
f  106/1/1  107/2/1  93/3/1  92/4/1 
f  107/1/1  108/2/1  94/3/1  93/4/1 
f  108/1/1  109/2/1  95/3/1  94/4/1 
f  109/1/1  110/2/1  96/3/1  95/4/1 
f  111/1/1  112/2/1  98/3/1  97/4/1 
f  112/1/1  113/2/1  99/3/1  98/4/1 
f  113/1/1  114/2/1  100/3/1  99/4/1 
f  114/1/1  115/2/1  101/3/1  100/4/1 
f  115/1/1  116/2/1  102/3/1  101/4/1 
f  116/1/1  117/2/1  103/3/1  102/4/1 
f  117/1/1  118/2/1  104/3/1  103/4/1 
f  118/1/1  119/2/1  105/3/1  104/4/1 
f  119/1/1  120/2/1  106/3/1  105/4/1 
f  120/1/1  121/2/1  107/3/1  106/4/1 
f  121/1/1  122/2/1  108/3/1  107/4/1 
f  122/1/1  123/2/1  109/3/1  108/4/1 
f  123/1/1  124/2/1  110/3/1  109/4/1 
f  125/1/1  126/2/1  113/3/1  112/4/1 
f  126/1/1  127/2/1  114/3/1  113/4/1 
f  127/1/1  128/2/1  115/3/1  114/4/1 
f  128/1/1  129/2/1  116/3/1  115/4/1 
f  129/1/1  130/2/1  117/3/1  116/4/1 
f  130/1/1  131/2/1  118/3/1  117/4/1 
f  131/1/1  132/2/1  119/3/1  118/4/1 
f  132/1/1  133/2/1  120/3/1  119/4/1 
f  133/1/1  134/2/1  121/3/1  120/4/1 
f  134/1/1  135/2/1  122/3/1  121/4/1 
f  135/1/1  136/2/1  123/3/1  122/4/1 
f  136/1/1  137/2/1  124/3/1  123/4/1 
f  138/1/1  139/2/1  126/3/1  125/4/1 
f  139/1/1  140/2/1  127/3/1  126/4/1 
f  140/1/1  141/2/1  128/3/1  127/4/1 
f  141/1/1  142/2/1  129/3/1  128/4/1 
f  142/1/1  143/2/1  130/3/1  129/4/1 
f  143/1/1  144/2/1  131/3/1  130/4/1 
f  144/1/1  145/2/1  132/3/1  131/4/1 
f  145/1/1  146/2/1  133/3/1  132/4/1 
f  146/1/1  147/2/1  134/3/1  133/4/1 
f  147/1/1  148/2/1  135/3/1  134/4/1 
f  149/1/1  150/2/1  141/3/1  140/4/1 
f  150/1/1  151/2/1  142/3/1  141/4/1 
f  151/1/1  152/2/1  143/3/1  142/4/1 
f  152/1/1  153/2/1  144/3/1  143/4/1 
f  153/1/1  154/2/1  145/3/1  144/4/1 
f  154/1/1  155/2/1  146/3/1  145/4/1 
f  155/1/1  156/2/1  147/3/1  146/4/1 
f  156/1/1  157/2/1  148/3/1  147/4/1 
f  158/1/1  159/2/1  150/3/1  149/4/1 
f  159/1/1  160/2/1  151/3/1  150/4/1 
f  160/1/1  161/2/1  152/3/1  151/4/1 
f  161/1/1  162/2/1  153/3/1  152/4/1 
f  162/1/1  163/2/1  154/3/1  153/4/1 
f  163/1/1  164/2/1  155/3/1  154/4/1 
f  164/1/1  165/2/1  156/3/1  155/4/1 
f  165/1/1  166/2/1  157/3/1  156/4/1 
f  167/1/1  168/2/1  159/3/1  158/4/1 
f  168/1/1  169/2/1  160/3/1  159/4/1 
f  169/1/1  170/2/1  161/3/1  160/4/1 
f  170/1/1  171/2/1  162/3/1  161/4/1 
f  171/1/1  172/2/1  163/3/1  162/4/1 
f  172/1/1  173/2/1  164/3/1  163/4/1 
f  173/1/1  174/2/1  165/3/1  164/4/1 
f  174/1/1  175/2/1  166/3/1  165/4/1 
f  176/1/1  177/2/1  168/3/1  167/4/1 
f  177/1/1  178/2/1  169/3/1  168/4/1 
f  178/1/1  179/2/1  170/3/1  169/4/1 
f  179/1/1  180/2/1  171/3/1  170/4/1 
f  180/1/1  181/2/1  172/3/1  171/4/1 
f  181/1/1  182/2/1  173/3/1  172/4/1 
f  182/1/1  183/2/1  174/3/1  173/4/1 
f  183/1/1  184/2/1  175/3/1  174/4/1 
g mesh_[01]_[00]
f  185/5/1  186/6/1  187/7/1  188/8/1 
f  186/5/1  189/6/1  190/7/1  187/8/1 
f  189/5/1  191/6/1  192/7/1  190/8/1 
f  191/5/1  8/6/1  193/7/1  192/8/1 
f  8/9/1  7/10/1  194/11/1  193/12/1 
f  14/13/1  16/14/1  195/15/1  196/16/1 
f  16/5/1  18/6/1  197/7/1  195/8/1 
f  18/5/1  20/6/1  198/7/1  197/8/1 
f  20/5/1  1/6/1  4/7/1  198/8/1 
f  1/5/1  2/6/1  3/7/1  4/8/1 
f  26/17/1  25/18/1  186/19/1  185/20/1 
f  25/17/1  28/18/1  189/19/1  186/20/1 
f  28/17/1  30/18/1  191/19/1  189/20/1 
f  30/17/1  5/18/1  8/19/1  191/20/1 
f  5/21/1  6/22/1  7/23/1  8/24/1 
f  13/25/1  15/26/1  16/27/1  14/28/1 
f  15/17/1  17/18/1  18/19/1  16/20/1 
f  17/17/1  19/18/1  20/19/1  18/20/1 
f  19/17/1  21/18/1  1/19/1  20/20/1 
f  21/17/1  22/18/1  2/19/1  1/20/1 
f  47/29/1  48/30/1  34/31/1  33/32/1 
f  72/29/1  73/30/1  59/31/1  58/32/1 
f  78/29/1  79/30/1  65/31/1  64/32/1 
f  111/33/1  112/34/1  98/35/1  97/36/1 
f  116/37/1  117/38/1  103/39/1  102/40/1 
f  117/29/1  118/30/1  104/31/1  103/32/1 
f  118/41/1  119/42/1  105/43/1  104/44/1 
f  123/45/1  124/46/1  110/47/1  109/48/1 
f  199/49/1  125/50/1  112/51/1  111/52/1 
f  125/33/1  126/34/1  113/35/1  112/36/1 
f  135/45/1  136/46/1  123/47/1  122/48/1 
f  136/53/1  137/54/1  124/55/1  123/56/1 
f  200/57/1  138/58/1  125/59/1  199/60/1 
f  138/53/1  139/54/1  126/55/1  125/56/1 
f  139/33/1  140/34/1  127/35/1  126/36/1 
f  147/45/1  148/46/1  135/47/1  134/48/1 
f  148/53/1  201/54/1  136/55/1  135/56/1 
f  201/61/1  202/62/1  137/63/1  136/64/1 
f  203/65/1  204/66/1  138/67/1  200/68/1 
f  204/49/1  205/50/1  139/51/1  138/52/1 
f  205/69/1  149/70/1  140/71/1  139/72/1 
f  156/49/1  157/50/1  148/51/1  147/52/1 
f  157/69/1  206/70/1  201/71/1  148/72/1 
f  206/65/1  207/66/1  202/67/1  201/68/1 
f  208/65/1  209/66/1  204/67/1  203/68/1 
f  209/49/1  210/50/1  205/51/1  204/52/1 
f  210/69/1  158/70/1  149/71/1  205/72/1 
f  165/49/1  166/50/1  157/51/1  156/52/1 
f  166/69/1  211/70/1  206/71/1  157/72/1 
f  211/65/1  212/66/1  207/67/1  206/68/1 
f  213/65/1  214/66/1  209/67/1  208/68/1 
f  214/49/1  215/50/1  210/51/1  209/52/1 
f  215/69/1  167/70/1  158/71/1  210/72/1 
f  174/49/1  175/50/1  166/51/1  165/52/1 
f  175/69/1  216/70/1  211/71/1  166/72/1 
f  216/65/1  217/66/1  212/67/1  211/68/1 
f  218/65/1  219/66/1  214/67/1  213/68/1 
f  219/49/1  220/50/1  215/51/1  214/52/1 
f  220/53/1  176/54/1  167/55/1  215/56/1 
f  176/33/1  177/34/1  168/35/1  167/36/1 
f  182/45/1  183/46/1  174/47/1  173/48/1 
f  183/53/1  184/54/1  175/55/1  174/56/1 
f  184/69/1  221/70/1  216/71/1  175/72/1 
f  221/65/1  222/66/1  217/67/1  216/68/1 
f  223/65/1  224/66/1  219/67/1  218/68/1 
f  224/49/1  225/50/1  220/51/1  219/52/1 
f  225/53/1  226/54/1  176/55/1  220/56/1 
f  226/53/1  227/54/1  177/55/1  176/56/1 
f  227/5/1  228/6/1  178/7/1  177/8/1 
f  228/5/1  229/6/1  179/7/1  178/8/1 
f  229/5/1  230/6/1  180/7/1  179/8/1 
f  230/5/1  231/6/1  181/7/1  180/8/1 
f  231/5/1  232/6/1  182/7/1  181/8/1 
f  232/53/1  233/54/1  183/55/1  182/56/1 
f  233/53/1  234/54/1  184/55/1  183/56/1 
f  234/69/1  235/70/1  221/71/1  184/72/1 
f  235/65/1  236/66/1  222/67/1  221/68/1 
f  237/65/1  238/66/1  224/67/1  223/68/1 
f  238/57/1  239/58/1  225/59/1  224/60/1 
f  239/17/1  240/18/1  226/19/1  225/20/1 
f  240/17/1  241/18/1  227/19/1  226/20/1 
f  241/17/1  242/18/1  228/19/1  227/20/1 
f  242/17/1  243/18/1  229/19/1  228/20/1 
f  243/17/1  244/18/1  230/19/1  229/20/1 
f  244/17/1  245/18/1  231/19/1  230/20/1 
f  245/17/1  246/18/1  232/19/1  231/20/1 
f  246/17/1  247/18/1  233/19/1  232/20/1 
f  247/17/1  248/18/1  234/19/1  233/20/1 
f  248/61/1  249/62/1  235/63/1  234/64/1 
f  249/65/1  250/66/1  236/67/1  235/68/1 
f  251/65/1  252/66/1  238/67/1  237/68/1 
f  252/65/1  253/66/1  239/67/1  238/68/1 
f  253/65/1  254/66/1  240/67/1  239/68/1 
f  254/65/1  255/66/1  241/67/1  240/68/1 
f  255/65/1  256/66/1  242/67/1  241/68/1 
f  256/65/1  257/66/1  243/67/1  242/68/1 
f  257/65/1  258/66/1  244/67/1  243/68/1 
f  258/65/1  259/66/1  245/67/1  244/68/1 
f  259/65/1  260/66/1  246/67/1  245/68/1 
f  260/65/1  261/66/1  247/67/1  246/68/1 
f  261/65/1  262/66/1  248/67/1  247/68/1 
f  262/65/1  263/66/1  249/67/1  248/68/1 
f  263/65/1  264/66/1  250/67/1  249/68/1 
f  265/65/1  266/66/1  252/67/1  251/68/1 
f  266/65/1  267/66/1  253/67/1  252/68/1 
f  267/65/1  268/66/1  254/67/1  253/68/1 
f  268/65/1  269/66/1  255/67/1  254/68/1 
f  269/65/1  270/66/1  256/67/1  255/68/1 
f  270/65/1  271/66/1  257/67/1  256/68/1 
f  271/65/1  272/66/1  258/67/1  257/68/1 
f  272/65/1  273/66/1  259/67/1  258/68/1 
f  273/65/1  274/66/1  260/67/1  259/68/1 
f  274/65/1  275/66/1  261/67/1  260/68/1 
f  275/65/1  276/66/1  262/67/1  261/68/1 
f  276/65/1  277/66/1  263/67/1  262/68/1 
f  277/65/1  278/66/1  264/67/1  263/68/1 
f  279/65/1  280/66/1  266/67/1  265/68/1 
f  280/65/1  281/66/1  267/67/1  266/68/1 
f  281/65/1  282/66/1  268/67/1  267/68/1 
f  282/65/1  283/66/1  269/67/1  268/68/1 
f  283/65/1  284/66/1  270/67/1  269/68/1 
f  284/65/1  285/66/1  271/67/1  270/68/1 
f  285/65/1  286/66/1  272/67/1  271/68/1 
f  286/65/1  287/66/1  273/67/1  272/68/1 
f  287/65/1  288/66/1  274/67/1  273/68/1 
f  288/65/1  289/66/1  275/67/1  274/68/1 
f  289/65/1  290/66/1  276/67/1  275/68/1 
f  290/65/1  291/66/1  277/67/1  276/68/1 
f  291/65/1  292/66/1  278/67/1  277/68/1 
f  293/65/1  294/66/1  280/67/1  279/68/1 
f  294/65/1  295/66/1  281/67/1  280/68/1 
f  295/65/1  296/66/1  282/67/1  281/68/1 
f  296/65/1  297/66/1  283/67/1  282/68/1 
f  297/65/1  298/66/1  284/67/1  283/68/1 
f  298/65/1  299/66/1  285/67/1  284/68/1 
f  299/65/1  300/66/1  286/67/1  285/68/1 
f  300/65/1  301/66/1  287/67/1  286/68/1 
f  301/65/1  302/66/1  288/67/1  287/68/1 
f  302/65/1  303/66/1  289/67/1  288/68/1 
f  303/65/1  304/66/1  290/67/1  289/68/1 
f  304/65/1  305/66/1  291/67/1  290/68/1 
f  305/65/1  306/66/1  292/67/1  291/68/1 
f  307/65/1  308/66/1  294/67/1  293/68/1 
f  308/65/1  309/66/1  295/67/1  294/68/1 
f  309/65/1  310/66/1  296/67/1  295/68/1 
f  310/65/1  311/66/1  297/67/1  296/68/1 
f  311/65/1  312/66/1  298/67/1  297/68/1 
f  312/65/1  313/66/1  299/67/1  298/68/1 
f  313/65/1  314/66/1  300/67/1  299/68/1 
f  314/65/1  315/66/1  301/67/1  300/68/1 
f  315/65/1  316/66/1  302/67/1  301/68/1 
f  316/65/1  317/66/1  303/67/1  302/68/1 
f  317/65/1  318/66/1  304/67/1  303/68/1 
f  318/65/1  319/66/1  305/67/1  304/68/1 
f  319/65/1  320/66/1  306/67/1  305/68/1 
