# Wavefront OBJ file automatically generated by Tiled2Unity

# Vertices (Count = 335)
v -1600 -1088 0
v -1664 -1088 0
v -1664 -1024 0
v -1600 -1024 0
v -1728 -1088 0
v -1728 -1024 0
v -1792 -1088 0
v -1792 -1024 0
v -1856 -1088 0
v -1856 -1024 0
v -1920 -1088 0
v -1920 -1024 0
v -1984 -1088 0
v -1984 -1024 0
v -1216 -1344 0
v -1280 -1344 0
v -1280 -1280 0
v -1216 -1280 0
v -1344 -1344 0
v -1344 -1280 0
v -1408 -1344 0
v -1408 -1280 0
v -2112 -1344 0
v -2176 -1344 0
v -2176 -1280 0
v -2112 -1280 0
v -2240 -1344 0
v -2240 -1280 0
v -2304 -1344 0
v -2304 -1280 0
v -2368 -1344 0
v -2368 -1280 0
v -1088 -1408 0
v -1152 -1408 0
v -1152 -1344 0
v -1088 -1344 0
v -1216 -1408 0
v -2432 -1408 0
v -2496 -1408 0
v -2496 -1344 0
v -2432 -1344 0
v -1536 -1152 0
v -1600 -1152 0
v -1536 -1088 0
v -1664 -1152 0
v -1728 -1152 0
v -1792 -1152 0
v -1856 -1152 0
v -1920 -1152 0
v -1984 -1152 0
v -2048 -1152 0
v -2048 -1088 0
v -1472 -1216 0
v -1536 -1216 0
v -1472 -1152 0
v -1600 -1216 0
v -1664 -1216 0
v -1728 -1216 0
v -1792 -1216 0
v -1856 -1216 0
v -1920 -1216 0
v -1984 -1216 0
v -2048 -1216 0
v -2112 -1216 0
v -2112 -1152 0
v -1472 -1280 0
v -1408 -1216 0
v -1536 -1280 0
v -1600 -1280 0
v -1664 -1280 0
v -1728 -1280 0
v -1792 -1280 0
v -1856 -1280 0
v -1920 -1280 0
v -1984 -1280 0
v -2048 -1280 0
v -2176 -1216 0
v -1472 -1344 0
v -1536 -1344 0
v -1600 -1344 0
v -1664 -1344 0
v -1728 -1344 0
v -1792 -1344 0
v -1856 -1344 0
v -1920 -1344 0
v -1984 -1344 0
v -2048 -1344 0
v -1280 -1408 0
v -1344 -1408 0
v -1408 -1408 0
v -1472 -1408 0
v -1536 -1408 0
v -1600 -1408 0
v -1664 -1408 0
v -1728 -1408 0
v -1792 -1408 0
v -1856 -1408 0
v -1920 -1408 0
v -1984 -1408 0
v -2048 -1408 0
v -2112 -1408 0
v -2176 -1408 0
v -2240 -1408 0
v -2304 -1408 0
v -2368 -1408 0
v -1088 -1472 0
v -1152 -1472 0
v -1216 -1472 0
v -1280 -1472 0
v -1344 -1472 0
v -1408 -1472 0
v -1472 -1472 0
v -1536 -1472 0
v -1600 -1472 0
v -1664 -1472 0
v -1728 -1472 0
v -1792 -1472 0
v -1856 -1472 0
v -1920 -1472 0
v -1984 -1472 0
v -2048 -1472 0
v -2112 -1472 0
v -2176 -1472 0
v -2240 -1472 0
v -2304 -1472 0
v -2368 -1472 0
v -2432 -1472 0
v -2496 -1472 0
v -1088 -1536 0
v -1152 -1536 0
v -1216 -1536 0
v -1280 -1536 0
v -1344 -1536 0
v -1408 -1536 0
v -1472 -1536 0
v -1536 -1536 0
v -1600 -1536 0
v -1664 -1536 0
v -1728 -1536 0
v -1792 -1536 0
v -1856 -1536 0
v -1920 -1536 0
v -1984 -1536 0
v -2048 -1536 0
v -2112 -1536 0
v -2176 -1536 0
v -2240 -1536 0
v -2304 -1536 0
v -2368 -1536 0
v -2432 -1536 0
v -2496 -1536 0
v -1088 -1600 0
v -1152 -1600 0
v -1216 -1600 0
v -1280 -1600 0
v -1344 -1600 0
v -1408 -1600 0
v -1472 -1600 0
v -1536 -1600 0
v -1600 -1600 0
v -1664 -1600 0
v -1728 -1600 0
v -1792 -1600 0
v -1856 -1600 0
v -1920 -1600 0
v -1984 -1600 0
v -2048 -1600 0
v -2112 -1600 0
v -2176 -1600 0
v -2240 -1600 0
v -2304 -1600 0
v -2368 -1600 0
v -2432 -1600 0
v -2496 -1600 0
v -1088 -1664 0
v -1152 -1664 0
v -1216 -1664 0
v -1280 -1664 0
v -1344 -1664 0
v -1408 -1664 0
v -1472 -1664 0
v -1536 -1664 0
v -1600 -1664 0
v -1664 -1664 0
v -1728 -1664 0
v -1792 -1664 0
v -1856 -1664 0
v -1920 -1664 0
v -1984 -1664 0
v -2048 -1664 0
v -2112 -1664 0
v -2176 -1664 0
v -2240 -1664 0
v -2304 -1664 0
v -2368 -1664 0
v -2432 -1664 0
v -2496 -1664 0
v -1088 -1728 0
v -1152 -1728 0
v -1216 -1728 0
v -1280 -1728 0
v -1344 -1728 0
v -1408 -1728 0
v -1472 -1728 0
v -1536 -1728 0
v -1600 -1728 0
v -1664 -1728 0
v -1728 -1728 0
v -1792 -1728 0
v -1856 -1728 0
v -1920 -1728 0
v -1984 -1728 0
v -2048 -1728 0
v -2112 -1728 0
v -2176 -1728 0
v -2240 -1728 0
v -2304 -1728 0
v -2368 -1728 0
v -2432 -1728 0
v -2496 -1728 0
v -1088 -1792 0
v -1152 -1792 0
v -1216 -1792 0
v -1280 -1792 0
v -1344 -1792 0
v -1408 -1792 0
v -1472 -1792 0
v -1536 -1792 0
v -1600 -1792 0
v -1664 -1792 0
v -1728 -1792 0
v -1792 -1792 0
v -1856 -1792 0
v -1920 -1792 0
v -1984 -1792 0
v -2048 -1792 0
v -2112 -1792 0
v -2176 -1792 0
v -2240 -1792 0
v -2304 -1792 0
v -2368 -1792 0
v -2432 -1792 0
v -2496 -1792 0
v -1088 -1856 0
v -1152 -1856 0
v -1216 -1856 0
v -1280 -1856 0
v -1344 -1856 0
v -1408 -1856 0
v -1472 -1856 0
v -1536 -1856 0
v -1600 -1856 0
v -1664 -1856 0
v -1728 -1856 0
v -1792 -1856 0
v -1856 -1856 0
v -1920 -1856 0
v -1984 -1856 0
v -2048 -1856 0
v -2112 -1856 0
v -2176 -1856 0
v -2240 -1856 0
v -2304 -1856 0
v -2368 -1856 0
v -2432 -1856 0
v -2496 -1856 0
v -1088 -1920 0
v -1152 -1920 0
v -1216 -1920 0
v -1280 -1920 0
v -1344 -1920 0
v -1408 -1920 0
v -1472 -1920 0
v -1536 -1920 0
v -1600 -1920 0
v -1664 -1920 0
v -1728 -1920 0
v -1792 -1920 0
v -1856 -1920 0
v -1920 -1920 0
v -1984 -1920 0
v -2048 -1920 0
v -2112 -1920 0
v -2176 -1920 0
v -2240 -1920 0
v -2304 -1920 0
v -2368 -1920 0
v -2432 -1920 0
v -2496 -1920 0
v -1088 -1984 0
v -1152 -1984 0
v -1216 -1984 0
v -1280 -1984 0
v -1344 -1984 0
v -1408 -1984 0
v -1472 -1984 0
v -1536 -1984 0
v -1600 -1984 0
v -1664 -1984 0
v -1728 -1984 0
v -1792 -1984 0
v -1856 -1984 0
v -1920 -1984 0
v -1984 -1984 0
v -2048 -1984 0
v -2112 -1984 0
v -2176 -1984 0
v -2240 -1984 0
v -2304 -1984 0
v -2368 -1984 0
v -2432 -1984 0
v -2496 -1984 0
v -1088 -2048 0
v -1152 -2048 0
v -1216 -2048 0
v -1280 -2048 0
v -1344 -2048 0
v -1408 -2048 0
v -1472 -2048 0
v -1536 -2048 0
v -1600 -2048 0
v -1664 -2048 0
v -1728 -2048 0
v -1792 -2048 0
v -1856 -2048 0
v -1920 -2048 0
v -1984 -2048 0
v -2048 -2048 0
v -2112 -2048 0
v -2176 -2048 0
v -2240 -2048 0
v -2304 -2048 0
v -2368 -2048 0
v -2432 -2048 0
v -2496 -2048 0

# Texture Coorindates (Count = 36)
vt 0.2501221 0.8126221
vt 0.3123779 0.8126221
vt 0.3123779 0.8748779
vt 0.2501221 0.8748779
vt 0.1876221 0.8126221
vt 0.2498779 0.8126221
vt 0.2498779 0.8748779
vt 0.1876221 0.8748779
vt 0.1251221 0.8126221
vt 0.1873779 0.8126221
vt 0.1873779 0.8748779
vt 0.1251221 0.8748779
vt 0.3751221 0.9376221
vt 0.4373779 0.9376221
vt 0.4373779 0.9998779
vt 0.3751221 0.9998779
vt 0.06262207 0.9376221
vt 0.1248779 0.9376221
vt 0.1248779 0.9998779
vt 0.06262207 0.9998779
vt 0.3126221 0.9376221
vt 0.3748779 0.9376221
vt 0.3748779 0.9998779
vt 0.3126221 0.9998779
vt 0.8126221 0.9376221
vt 0.8748779 0.9376221
vt 0.8748779 0.9998779
vt 0.8126221 0.9998779
vt 0.0001220703 0.9376221
vt 0.06237793 0.9376221
vt 0.06237793 0.9998779
vt 0.0001220703 0.9998779
vt 0.7501221 0.9376221
vt 0.8123779 0.9376221
vt 0.8123779 0.9998779
vt 0.7501221 0.9998779

# Normal
vn 0 0 -1

# Groups (Count = 2)
g mesh_[00]_[00]
f  1/1/1  2/2/1  3/3/1  4/4/1 
f  2/5/1  5/6/1  6/7/1  3/8/1 
f  5/1/1  7/2/1  8/3/1  6/4/1 
f  7/9/1  9/10/1  10/11/1  8/12/1 
f  9/5/1  11/6/1  12/7/1  10/8/1 
f  11/9/1  13/10/1  14/11/1  12/12/1 
f  15/5/1  16/6/1  17/7/1  18/8/1 
f  16/9/1  19/10/1  20/11/1  17/12/1 
f  19/9/1  21/10/1  22/11/1  20/12/1 
f  23/9/1  24/10/1  25/11/1  26/12/1 
f  24/9/1  27/10/1  28/11/1  25/12/1 
f  27/9/1  29/10/1  30/11/1  28/12/1 
f  29/5/1  31/6/1  32/7/1  30/8/1 
f  33/9/1  34/10/1  35/11/1  36/12/1 
f  34/9/1  37/10/1  15/11/1  35/12/1 
f  38/9/1  39/10/1  40/11/1  41/12/1 
g mesh_[01]_[00]
f  42/13/1  43/14/1  1/15/1  44/16/1 
f  43/17/1  45/18/1  2/19/1  1/20/1 
f  45/17/1  46/18/1  5/19/1  2/20/1 
f  46/17/1  47/18/1  7/19/1  5/20/1 
f  47/17/1  48/18/1  9/19/1  7/20/1 
f  48/17/1  49/18/1  11/19/1  9/20/1 
f  49/17/1  50/18/1  13/19/1  11/20/1 
f  50/21/1  51/22/1  52/23/1  13/24/1 
f  53/13/1  54/14/1  42/15/1  55/16/1 
f  54/25/1  56/26/1  43/27/1  42/28/1 
f  56/29/1  57/30/1  45/31/1  43/32/1 
f  57/29/1  58/30/1  46/31/1  45/32/1 
f  58/29/1  59/30/1  47/31/1  46/32/1 
f  59/29/1  60/30/1  48/31/1  47/32/1 
f  60/29/1  61/30/1  49/31/1  48/32/1 
f  61/29/1  62/30/1  50/31/1  49/32/1 
f  62/33/1  63/34/1  51/35/1  50/36/1 
f  63/21/1  64/22/1  65/23/1  51/24/1 
f  22/13/1  66/14/1  53/15/1  67/16/1 
f  66/25/1  68/26/1  54/27/1  53/28/1 
f  68/29/1  69/30/1  56/31/1  54/32/1 
f  69/29/1  70/30/1  57/31/1  56/32/1 
f  70/29/1  71/30/1  58/31/1  57/32/1 
f  71/29/1  72/30/1  59/31/1  58/32/1 
f  72/29/1  73/30/1  60/31/1  59/32/1 
f  73/29/1  74/30/1  61/31/1  60/32/1 
f  74/29/1  75/30/1  62/31/1  61/32/1 
f  75/29/1  76/30/1  63/31/1  62/32/1 
f  76/33/1  26/34/1  64/35/1  63/36/1 
f  26/21/1  25/22/1  77/23/1  64/24/1 
f  19/13/1  21/14/1  22/15/1  20/16/1 
f  21/25/1  78/26/1  66/27/1  22/28/1 
f  78/29/1  79/30/1  68/31/1  66/32/1 
f  79/29/1  80/30/1  69/31/1  68/32/1 
f  80/29/1  81/30/1  70/31/1  69/32/1 
f  81/29/1  82/30/1  71/31/1  70/32/1 
f  82/29/1  83/30/1  72/31/1  71/32/1 
f  83/29/1  84/30/1  73/31/1  72/32/1 
f  84/29/1  85/30/1  74/31/1  73/32/1 
f  85/29/1  86/30/1  75/31/1  74/32/1 
f  86/29/1  87/30/1  76/31/1  75/32/1 
f  87/29/1  23/30/1  26/31/1  76/32/1 
f  23/33/1  24/34/1  25/35/1  26/36/1 
f  24/21/1  27/22/1  28/23/1  25/24/1 
f  34/13/1  37/14/1  15/15/1  35/16/1 
f  37/17/1  88/18/1  16/19/1  15/20/1 
f  88/17/1  89/18/1  19/19/1  16/20/1 
f  89/25/1  90/26/1  21/27/1  19/28/1 
f  90/29/1  91/30/1  78/31/1  21/32/1 
f  91/29/1  92/30/1  79/31/1  78/32/1 
f  92/29/1  93/30/1  80/31/1  79/32/1 
f  93/29/1  94/30/1  81/31/1  80/32/1 
f  94/29/1  95/30/1  82/31/1  81/32/1 
f  95/29/1  96/30/1  83/31/1  82/32/1 
f  96/29/1  97/30/1  84/31/1  83/32/1 
f  97/29/1  98/30/1  85/31/1  84/32/1 
f  98/29/1  99/30/1  86/31/1  85/32/1 
f  99/29/1  100/30/1  87/31/1  86/32/1 
f  100/29/1  101/30/1  23/31/1  87/32/1 
f  101/29/1  102/30/1  24/31/1  23/32/1 
f  102/33/1  103/34/1  27/35/1  24/36/1 
f  103/17/1  104/18/1  29/19/1  27/20/1 
f  104/17/1  105/18/1  31/19/1  29/20/1 
f  105/21/1  38/22/1  41/23/1  31/24/1 
f  106/17/1  107/18/1  34/19/1  33/20/1 
f  107/25/1  108/26/1  37/27/1  34/28/1 
f  108/29/1  109/30/1  88/31/1  37/32/1 
f  109/29/1  110/30/1  89/31/1  88/32/1 
f  110/29/1  111/30/1  90/31/1  89/32/1 
f  111/29/1  112/30/1  91/31/1  90/32/1 
f  112/29/1  113/30/1  92/31/1  91/32/1 
f  113/29/1  114/30/1  93/31/1  92/32/1 
f  114/29/1  115/30/1  94/31/1  93/32/1 
f  115/29/1  116/30/1  95/31/1  94/32/1 
f  116/29/1  117/30/1  96/31/1  95/32/1 
f  117/29/1  118/30/1  97/31/1  96/32/1 
f  118/29/1  119/30/1  98/31/1  97/32/1 
f  119/29/1  120/30/1  99/31/1  98/32/1 
f  120/29/1  121/30/1  100/31/1  99/32/1 
f  121/29/1  122/30/1  101/31/1  100/32/1 
f  122/29/1  123/30/1  102/31/1  101/32/1 
f  123/29/1  124/30/1  103/31/1  102/32/1 
f  124/29/1  125/30/1  104/31/1  103/32/1 
f  125/29/1  126/30/1  105/31/1  104/32/1 
f  126/33/1  127/34/1  38/35/1  105/36/1 
f  127/17/1  128/18/1  39/19/1  38/20/1 
f  129/29/1  130/30/1  107/31/1  106/32/1 
f  130/29/1  131/30/1  108/31/1  107/32/1 
f  131/29/1  132/30/1  109/31/1  108/32/1 
f  132/29/1  133/30/1  110/31/1  109/32/1 
f  133/29/1  134/30/1  111/31/1  110/32/1 
f  134/29/1  135/30/1  112/31/1  111/32/1 
f  135/29/1  136/30/1  113/31/1  112/32/1 
f  136/29/1  137/30/1  114/31/1  113/32/1 
f  137/29/1  138/30/1  115/31/1  114/32/1 
f  138/29/1  139/30/1  116/31/1  115/32/1 
f  139/29/1  140/30/1  117/31/1  116/32/1 
f  140/29/1  141/30/1  118/31/1  117/32/1 
f  141/29/1  142/30/1  119/31/1  118/32/1 
f  142/29/1  143/30/1  120/31/1  119/32/1 
f  143/29/1  144/30/1  121/31/1  120/32/1 
f  144/29/1  145/30/1  122/31/1  121/32/1 
f  145/29/1  146/30/1  123/31/1  122/32/1 
f  146/29/1  147/30/1  124/31/1  123/32/1 
f  147/29/1  148/30/1  125/31/1  124/32/1 
f  148/29/1  149/30/1  126/31/1  125/32/1 
f  149/29/1  150/30/1  127/31/1  126/32/1 
f  150/29/1  151/30/1  128/31/1  127/32/1 
f  152/29/1  153/30/1  130/31/1  129/32/1 
f  153/29/1  154/30/1  131/31/1  130/32/1 
f  154/29/1  155/30/1  132/31/1  131/32/1 
f  155/29/1  156/30/1  133/31/1  132/32/1 
f  156/29/1  157/30/1  134/31/1  133/32/1 
f  157/29/1  158/30/1  135/31/1  134/32/1 
f  158/29/1  159/30/1  136/31/1  135/32/1 
f  159/29/1  160/30/1  137/31/1  136/32/1 
f  160/29/1  161/30/1  138/31/1  137/32/1 
f  161/29/1  162/30/1  139/31/1  138/32/1 
f  162/29/1  163/30/1  140/31/1  139/32/1 
f  163/29/1  164/30/1  141/31/1  140/32/1 
f  164/29/1  165/30/1  142/31/1  141/32/1 
f  165/29/1  166/30/1  143/31/1  142/32/1 
f  166/29/1  167/30/1  144/31/1  143/32/1 
f  167/29/1  168/30/1  145/31/1  144/32/1 
f  168/29/1  169/30/1  146/31/1  145/32/1 
f  169/29/1  170/30/1  147/31/1  146/32/1 
f  170/29/1  171/30/1  148/31/1  147/32/1 
f  171/29/1  172/30/1  149/31/1  148/32/1 
f  172/29/1  173/30/1  150/31/1  149/32/1 
f  173/29/1  174/30/1  151/31/1  150/32/1 
f  175/29/1  176/30/1  153/31/1  152/32/1 
f  176/29/1  177/30/1  154/31/1  153/32/1 
f  177/29/1  178/30/1  155/31/1  154/32/1 
f  178/29/1  179/30/1  156/31/1  155/32/1 
f  179/29/1  180/30/1  157/31/1  156/32/1 
f  180/29/1  181/30/1  158/31/1  157/32/1 
f  181/29/1  182/30/1  159/31/1  158/32/1 
f  182/29/1  183/30/1  160/31/1  159/32/1 
f  183/29/1  184/30/1  161/31/1  160/32/1 
f  184/29/1  185/30/1  162/31/1  161/32/1 
f  185/29/1  186/30/1  163/31/1  162/32/1 
f  186/29/1  187/30/1  164/31/1  163/32/1 
f  187/29/1  188/30/1  165/31/1  164/32/1 
f  188/29/1  189/30/1  166/31/1  165/32/1 
f  189/29/1  190/30/1  167/31/1  166/32/1 
f  190/29/1  191/30/1  168/31/1  167/32/1 
f  191/29/1  192/30/1  169/31/1  168/32/1 
f  192/29/1  193/30/1  170/31/1  169/32/1 
f  193/29/1  194/30/1  171/31/1  170/32/1 
f  194/29/1  195/30/1  172/31/1  171/32/1 
f  195/29/1  196/30/1  173/31/1  172/32/1 
f  196/29/1  197/30/1  174/31/1  173/32/1 
f  198/29/1  199/30/1  176/31/1  175/32/1 
f  199/29/1  200/30/1  177/31/1  176/32/1 
f  200/29/1  201/30/1  178/31/1  177/32/1 
f  201/29/1  202/30/1  179/31/1  178/32/1 
f  202/29/1  203/30/1  180/31/1  179/32/1 
f  203/29/1  204/30/1  181/31/1  180/32/1 
f  204/29/1  205/30/1  182/31/1  181/32/1 
f  205/29/1  206/30/1  183/31/1  182/32/1 
f  206/29/1  207/30/1  184/31/1  183/32/1 
f  207/29/1  208/30/1  185/31/1  184/32/1 
f  208/29/1  209/30/1  186/31/1  185/32/1 
f  209/29/1  210/30/1  187/31/1  186/32/1 
f  210/29/1  211/30/1  188/31/1  187/32/1 
f  211/29/1  212/30/1  189/31/1  188/32/1 
f  212/29/1  213/30/1  190/31/1  189/32/1 
f  213/29/1  214/30/1  191/31/1  190/32/1 
f  214/29/1  215/30/1  192/31/1  191/32/1 
f  215/29/1  216/30/1  193/31/1  192/32/1 
f  216/29/1  217/30/1  194/31/1  193/32/1 
f  217/29/1  218/30/1  195/31/1  194/32/1 
f  218/29/1  219/30/1  196/31/1  195/32/1 
f  219/29/1  220/30/1  197/31/1  196/32/1 
f  221/29/1  222/30/1  199/31/1  198/32/1 
f  222/29/1  223/30/1  200/31/1  199/32/1 
f  223/29/1  224/30/1  201/31/1  200/32/1 
f  224/29/1  225/30/1  202/31/1  201/32/1 
f  225/29/1  226/30/1  203/31/1  202/32/1 
f  226/29/1  227/30/1  204/31/1  203/32/1 
f  227/29/1  228/30/1  205/31/1  204/32/1 
f  228/29/1  229/30/1  206/31/1  205/32/1 
f  229/29/1  230/30/1  207/31/1  206/32/1 
f  230/29/1  231/30/1  208/31/1  207/32/1 
f  231/29/1  232/30/1  209/31/1  208/32/1 
f  232/29/1  233/30/1  210/31/1  209/32/1 
f  233/29/1  234/30/1  211/31/1  210/32/1 
f  234/29/1  235/30/1  212/31/1  211/32/1 
f  235/29/1  236/30/1  213/31/1  212/32/1 
f  236/29/1  237/30/1  214/31/1  213/32/1 
f  237/29/1  238/30/1  215/31/1  214/32/1 
f  238/29/1  239/30/1  216/31/1  215/32/1 
f  239/29/1  240/30/1  217/31/1  216/32/1 
f  240/29/1  241/30/1  218/31/1  217/32/1 
f  241/29/1  242/30/1  219/31/1  218/32/1 
f  242/29/1  243/30/1  220/31/1  219/32/1 
f  244/29/1  245/30/1  222/31/1  221/32/1 
f  245/29/1  246/30/1  223/31/1  222/32/1 
f  246/29/1  247/30/1  224/31/1  223/32/1 
f  247/29/1  248/30/1  225/31/1  224/32/1 
f  248/29/1  249/30/1  226/31/1  225/32/1 
f  249/29/1  250/30/1  227/31/1  226/32/1 
f  250/29/1  251/30/1  228/31/1  227/32/1 
f  251/29/1  252/30/1  229/31/1  228/32/1 
f  252/29/1  253/30/1  230/31/1  229/32/1 
f  253/29/1  254/30/1  231/31/1  230/32/1 
f  254/29/1  255/30/1  232/31/1  231/32/1 
f  255/29/1  256/30/1  233/31/1  232/32/1 
f  256/29/1  257/30/1  234/31/1  233/32/1 
f  257/29/1  258/30/1  235/31/1  234/32/1 
f  258/29/1  259/30/1  236/31/1  235/32/1 
f  259/29/1  260/30/1  237/31/1  236/32/1 
f  260/29/1  261/30/1  238/31/1  237/32/1 
f  261/29/1  262/30/1  239/31/1  238/32/1 
f  262/29/1  263/30/1  240/31/1  239/32/1 
f  263/29/1  264/30/1  241/31/1  240/32/1 
f  264/29/1  265/30/1  242/31/1  241/32/1 
f  265/29/1  266/30/1  243/31/1  242/32/1 
f  267/29/1  268/30/1  245/31/1  244/32/1 
f  268/29/1  269/30/1  246/31/1  245/32/1 
f  269/29/1  270/30/1  247/31/1  246/32/1 
f  270/29/1  271/30/1  248/31/1  247/32/1 
f  271/29/1  272/30/1  249/31/1  248/32/1 
f  272/29/1  273/30/1  250/31/1  249/32/1 
f  273/29/1  274/30/1  251/31/1  250/32/1 
f  274/29/1  275/30/1  252/31/1  251/32/1 
f  275/29/1  276/30/1  253/31/1  252/32/1 
f  276/29/1  277/30/1  254/31/1  253/32/1 
f  277/29/1  278/30/1  255/31/1  254/32/1 
f  278/29/1  279/30/1  256/31/1  255/32/1 
f  279/29/1  280/30/1  257/31/1  256/32/1 
f  280/29/1  281/30/1  258/31/1  257/32/1 
f  281/29/1  282/30/1  259/31/1  258/32/1 
f  282/29/1  283/30/1  260/31/1  259/32/1 
f  283/29/1  284/30/1  261/31/1  260/32/1 
f  284/29/1  285/30/1  262/31/1  261/32/1 
f  285/29/1  286/30/1  263/31/1  262/32/1 
f  286/29/1  287/30/1  264/31/1  263/32/1 
f  287/29/1  288/30/1  265/31/1  264/32/1 
f  288/29/1  289/30/1  266/31/1  265/32/1 
f  290/29/1  291/30/1  268/31/1  267/32/1 
f  291/29/1  292/30/1  269/31/1  268/32/1 
f  292/29/1  293/30/1  270/31/1  269/32/1 
f  293/29/1  294/30/1  271/31/1  270/32/1 
f  294/29/1  295/30/1  272/31/1  271/32/1 
f  295/29/1  296/30/1  273/31/1  272/32/1 
f  296/29/1  297/30/1  274/31/1  273/32/1 
f  297/29/1  298/30/1  275/31/1  274/32/1 
f  298/29/1  299/30/1  276/31/1  275/32/1 
f  299/29/1  300/30/1  277/31/1  276/32/1 
f  300/29/1  301/30/1  278/31/1  277/32/1 
f  301/29/1  302/30/1  279/31/1  278/32/1 
f  302/29/1  303/30/1  280/31/1  279/32/1 
f  303/29/1  304/30/1  281/31/1  280/32/1 
f  304/29/1  305/30/1  282/31/1  281/32/1 
f  305/29/1  306/30/1  283/31/1  282/32/1 
f  306/29/1  307/30/1  284/31/1  283/32/1 
f  307/29/1  308/30/1  285/31/1  284/32/1 
f  308/29/1  309/30/1  286/31/1  285/32/1 
f  309/29/1  310/30/1  287/31/1  286/32/1 
f  310/29/1  311/30/1  288/31/1  287/32/1 
f  311/29/1  312/30/1  289/31/1  288/32/1 
f  313/29/1  314/30/1  291/31/1  290/32/1 
f  314/29/1  315/30/1  292/31/1  291/32/1 
f  315/29/1  316/30/1  293/31/1  292/32/1 
f  316/29/1  317/30/1  294/31/1  293/32/1 
f  317/29/1  318/30/1  295/31/1  294/32/1 
f  318/29/1  319/30/1  296/31/1  295/32/1 
f  319/29/1  320/30/1  297/31/1  296/32/1 
f  320/29/1  321/30/1  298/31/1  297/32/1 
f  321/29/1  322/30/1  299/31/1  298/32/1 
f  322/29/1  323/30/1  300/31/1  299/32/1 
f  323/29/1  324/30/1  301/31/1  300/32/1 
f  324/29/1  325/30/1  302/31/1  301/32/1 
f  325/29/1  326/30/1  303/31/1  302/32/1 
f  326/29/1  327/30/1  304/31/1  303/32/1 
f  327/29/1  328/30/1  305/31/1  304/32/1 
f  328/29/1  329/30/1  306/31/1  305/32/1 
f  329/29/1  330/30/1  307/31/1  306/32/1 
f  330/29/1  331/30/1  308/31/1  307/32/1 
f  331/29/1  332/30/1  309/31/1  308/32/1 
f  332/29/1  333/30/1  310/31/1  309/32/1 
f  333/29/1  334/30/1  311/31/1  310/32/1 
f  334/29/1  335/30/1  312/31/1  311/32/1 
