# Wavefront OBJ file automatically generated by Tiled2Unity

# Vertices (Count = 336)
v -4224 -960 0
v -4288 -960 0
v -4288 -896 0
v -4224 -896 0
v -4352 -960 0
v -4352 -896 0
v -4416 -960 0
v -4416 -896 0
v -4480 -960 0
v -4480 -896 0
v -4544 -960 0
v -4544 -896 0
v -4608 -960 0
v -4608 -896 0
v -4672 -960 0
v -4736 -960 0
v -4736 -896 0
v -4672 -896 0
v -4224 -1024 0
v -4288 -1024 0
v -4352 -1024 0
v -4416 -1024 0
v -4480 -1024 0
v -4544 -1024 0
v -4608 -1024 0
v -4672 -1024 0
v -4736 -1024 0
v -3904 -1088 0
v -3968 -1088 0
v -3968 -1024 0
v -3904 -1024 0
v -4032 -1088 0
v -4032 -1024 0
v -4096 -1088 0
v -4096 -1024 0
v -4160 -1088 0
v -4160 -1024 0
v -4224 -1088 0
v -4288 -1088 0
v -4352 -1088 0
v -4416 -1088 0
v -4480 -1088 0
v -4544 -1088 0
v -4608 -1088 0
v -4672 -1088 0
v -4736 -1088 0
v -3904 -1152 0
v -3968 -1152 0
v -4032 -1152 0
v -4096 -1152 0
v -4160 -1152 0
v -4224 -1152 0
v -4288 -1152 0
v -4352 -1152 0
v -4416 -1152 0
v -4480 -1152 0
v -4544 -1152 0
v -4608 -1152 0
v -4672 -1152 0
v -4736 -1152 0
v -3904 -1216 0
v -3968 -1216 0
v -4032 -1216 0
v -4096 -1216 0
v -4160 -1216 0
v -4224 -1216 0
v -4288 -1216 0
v -4352 -1216 0
v -4416 -1216 0
v -4480 -1216 0
v -4544 -1216 0
v -4608 -1216 0
v -4672 -1216 0
v -4736 -1216 0
v -3904 -1280 0
v -3968 -1280 0
v -4032 -1280 0
v -4096 -1280 0
v -4160 -1280 0
v -4224 -1280 0
v -4288 -1280 0
v -4352 -1280 0
v -4416 -1280 0
v -4480 -1280 0
v -4544 -1280 0
v -4608 -1280 0
v -4672 -1280 0
v -4736 -1280 0
v -3904 -1344 0
v -3968 -1344 0
v -4032 -1344 0
v -4096 -1344 0
v -4160 -1344 0
v -4224 -1344 0
v -4288 -1344 0
v -4352 -1344 0
v -4416 -1344 0
v -4480 -1344 0
v -4544 -1344 0
v -4608 -1344 0
v -4672 -1344 0
v -4736 -1344 0
v -3904 -1408 0
v -3968 -1408 0
v -4032 -1408 0
v -4096 -1408 0
v -4160 -1408 0
v -4224 -1408 0
v -4288 -1408 0
v -4352 -1408 0
v -4416 -1408 0
v -4480 -1408 0
v -4544 -1408 0
v -4608 -1408 0
v -4672 -1408 0
v -4736 -1408 0
v -4032 -1472 0
v -4096 -1472 0
v -4160 -1472 0
v -3904 -960 0
v -3968 -960 0
v -3968 -896 0
v -3904 -896 0
v -4032 -960 0
v -4032 -896 0
v -4096 -960 0
v -4096 -896 0
v -4160 -960 0
v -4160 -896 0
v -3904 -1472 0
v -3968 -1472 0
v -4224 -1472 0
v -4288 -1472 0
v -4352 -1472 0
v -4416 -1472 0
v -4480 -1472 0
v -4544 -1472 0
v -4608 -1472 0
v -4672 -1472 0
v -4736 -1472 0
v -3904 -1536 0
v -3968 -1536 0
v -4032 -1536 0
v -4096 -1536 0
v -4160 -1536 0
v -4224 -1536 0
v -4288 -1536 0
v -4352 -1536 0
v -4416 -1536 0
v -4480 -1536 0
v -4544 -1536 0
v -4608 -1536 0
v -4672 -1536 0
v -4736 -1536 0
v -3904 -1600 0
v -3968 -1600 0
v -4032 -1600 0
v -4096 -1600 0
v -4160 -1600 0
v -4224 -1600 0
v -4288 -1600 0
v -4352 -1600 0
v -4416 -1600 0
v -4480 -1600 0
v -4544 -1600 0
v -4608 -1600 0
v -4672 -1600 0
v -4736 -1600 0
v -3904 -1664 0
v -3968 -1664 0
v -4032 -1664 0
v -4096 -1664 0
v -4160 -1664 0
v -4224 -1664 0
v -4288 -1664 0
v -4352 -1664 0
v -4416 -1664 0
v -4480 -1664 0
v -4544 -1664 0
v -4608 -1664 0
v -4672 -1664 0
v -4736 -1664 0
v -3904 -1728 0
v -3968 -1728 0
v -4032 -1728 0
v -4096 -1728 0
v -4160 -1728 0
v -4224 -1728 0
v -4288 -1728 0
v -4352 -1728 0
v -4416 -1728 0
v -4480 -1728 0
v -4544 -1728 0
v -4608 -1728 0
v -4672 -1728 0
v -4736 -1728 0
v -3904 -1792 0
v -3968 -1792 0
v -4032 -1792 0
v -4096 -1792 0
v -4160 -1792 0
v -4224 -1792 0
v -4288 -1792 0
v -4352 -1792 0
v -4416 -1792 0
v -4480 -1792 0
v -4544 -1792 0
v -4608 -1792 0
v -4672 -1792 0
v -4736 -1792 0
v -3904 -1856 0
v -3968 -1856 0
v -4032 -1856 0
v -4096 -1856 0
v -4160 -1856 0
v -4224 -1856 0
v -4288 -1856 0
v -4352 -1856 0
v -4416 -1856 0
v -4480 -1856 0
v -4544 -1856 0
v -4608 -1856 0
v -4672 -1856 0
v -4736 -1856 0
v -3904 -1920 0
v -3968 -1920 0
v -4032 -1920 0
v -4096 -1920 0
v -4160 -1920 0
v -4224 -1920 0
v -4288 -1920 0
v -4352 -1920 0
v -4416 -1920 0
v -4480 -1920 0
v -4544 -1920 0
v -4608 -1920 0
v -4672 -1920 0
v -4736 -1920 0
v -3904 -1984 0
v -3968 -1984 0
v -4032 -1984 0
v -4096 -1984 0
v -4160 -1984 0
v -4224 -1984 0
v -4288 -1984 0
v -4352 -1984 0
v -4416 -1984 0
v -4480 -1984 0
v -4544 -1984 0
v -4608 -1984 0
v -4672 -1984 0
v -4736 -1984 0
v -3904 -2048 0
v -3968 -2048 0
v -4032 -2048 0
v -4096 -2048 0
v -4160 -2048 0
v -4224 -2048 0
v -4288 -2048 0
v -4352 -2048 0
v -4416 -2048 0
v -4480 -2048 0
v -4544 -2048 0
v -4608 -2048 0
v -4672 -2048 0
v -4736 -2048 0
v -3904 -2112 0
v -3968 -2112 0
v -4032 -2112 0
v -4096 -2112 0
v -4160 -2112 0
v -4224 -2112 0
v -4288 -2112 0
v -4352 -2112 0
v -4416 -2112 0
v -4480 -2112 0
v -4544 -2112 0
v -4608 -2112 0
v -4672 -2112 0
v -4736 -2112 0
v -3904 -2176 0
v -3968 -2176 0
v -4032 -2176 0
v -4096 -2176 0
v -4160 -2176 0
v -4224 -2176 0
v -4288 -2176 0
v -4352 -2176 0
v -4416 -2176 0
v -4480 -2176 0
v -4544 -2176 0
v -4608 -2176 0
v -4672 -2176 0
v -4736 -2176 0
v -3904 -2240 0
v -3968 -2240 0
v -4032 -2240 0
v -4096 -2240 0
v -4160 -2240 0
v -4224 -2240 0
v -4288 -2240 0
v -4352 -2240 0
v -4416 -2240 0
v -4480 -2240 0
v -4544 -2240 0
v -4608 -2240 0
v -4672 -2240 0
v -4736 -2240 0
v -3904 -2304 0
v -3968 -2304 0
v -4032 -2304 0
v -4096 -2304 0
v -4160 -2304 0
v -4224 -2304 0
v -4288 -2304 0
v -4352 -2304 0
v -4416 -2304 0
v -4480 -2304 0
v -4544 -2304 0
v -4608 -2304 0
v -4672 -2304 0
v -4736 -2304 0
v -3904 -2368 0
v -3968 -2368 0
v -4032 -2368 0
v -4096 -2368 0
v -4160 -2368 0
v -4224 -2368 0
v -4288 -2368 0
v -4352 -2368 0
v -4416 -2368 0
v -4480 -2368 0
v -4544 -2368 0
v -4608 -2368 0
v -4672 -2368 0
v -4736 -2368 0

# Texture Coorindates (Count = 68)
vt 0.06262207 0.8126221
vt 0.1248779 0.8126221
vt 0.1248779 0.8748779
vt 0.06262207 0.8748779
vt 0.5001221 0.8126221
vt 0.5623779 0.8126221
vt 0.5623779 0.8748779
vt 0.5001221 0.8748779
vt 0.5626221 0.8126221
vt 0.6248779 0.8126221
vt 0.6248779 0.8748779
vt 0.5626221 0.8748779
vt 0.7501221 0.8126221
vt 0.8123779 0.8126221
vt 0.8123779 0.8748779
vt 0.7501221 0.8748779
vt 0.8126221 0.8126221
vt 0.8748779 0.8126221
vt 0.8748779 0.8748779
vt 0.8126221 0.8748779
vt 0.6876221 0.8126221
vt 0.7498779 0.8126221
vt 0.7498779 0.8748779
vt 0.6876221 0.8748779
vt 0.6251221 0.8126221
vt 0.6873779 0.8126221
vt 0.6873779 0.8748779
vt 0.6251221 0.8748779
vt 0.0001220703 0.8751221
vt 0.06237793 0.8751221
vt 0.06237793 0.9373779
vt 0.0001220703 0.9373779
vt 0.2501221 0.8751221
vt 0.3123779 0.8751221
vt 0.3123779 0.9373779
vt 0.2501221 0.9373779
vt 0.3126221 0.6876221
vt 0.3748779 0.6876221
vt 0.3748779 0.7498779
vt 0.3126221 0.7498779
vt 0.06262207 0.8751221
vt 0.1248779 0.8751221
vt 0.1248779 0.9373779
vt 0.06262207 0.9373779
vt 0.2501221 0.6876221
vt 0.3123779 0.6876221
vt 0.3123779 0.7498779
vt 0.2501221 0.7498779
vt 0.1876221 0.8751221
vt 0.2498779 0.8751221
vt 0.2498779 0.9373779
vt 0.1876221 0.9373779
vt 0.1251221 0.8751221
vt 0.1873779 0.8751221
vt 0.1873779 0.9373779
vt 0.1251221 0.9373779
vt 0.7501221 0.8751221
vt 0.8123779 0.8751221
vt 0.8123779 0.9373779
vt 0.7501221 0.9373779
vt 0.8126221 0.8751221
vt 0.8748779 0.8751221
vt 0.8748779 0.9373779
vt 0.8126221 0.9373779
vt 0.0001220703 0.9376221
vt 0.06237793 0.9376221
vt 0.06237793 0.9998779
vt 0.0001220703 0.9998779

# Normal
vn 0 0 -1

# Groups (Count = 2)
g mesh_[00]_[00]
f  1/1/1  2/2/1  3/3/1  4/4/1 
f  2/1/1  5/2/1  6/3/1  3/4/1 
f  5/1/1  7/2/1  8/3/1  6/4/1 
f  7/1/1  9/2/1  10/3/1  8/4/1 
f  9/1/1  11/2/1  12/3/1  10/4/1 
f  11/1/1  13/2/1  14/3/1  12/4/1 
f  15/1/1  16/2/1  17/3/1  18/4/1 
f  19/1/1  20/2/1  2/3/1  1/4/1 
f  20/1/1  21/2/1  5/3/1  2/4/1 
f  21/1/1  22/2/1  7/3/1  5/4/1 
f  22/1/1  23/2/1  9/3/1  7/4/1 
f  23/1/1  24/2/1  11/3/1  9/4/1 
f  24/1/1  25/2/1  13/3/1  11/4/1 
f  26/1/1  27/2/1  16/3/1  15/4/1 
f  28/1/1  29/2/1  30/3/1  31/4/1 
f  29/1/1  32/2/1  33/3/1  30/4/1 
f  32/5/1  34/6/1  35/7/1  33/8/1 
f  34/9/1  36/10/1  37/11/1  35/12/1 
f  36/1/1  38/2/1  19/3/1  37/4/1 
f  38/1/1  39/2/1  20/3/1  19/4/1 
f  39/1/1  40/2/1  21/3/1  20/4/1 
f  40/1/1  41/2/1  22/3/1  21/4/1 
f  41/1/1  42/2/1  23/3/1  22/4/1 
f  42/1/1  43/2/1  24/3/1  23/4/1 
f  43/1/1  44/2/1  25/3/1  24/4/1 
f  45/1/1  46/2/1  27/3/1  26/4/1 
f  47/1/1  48/2/1  29/3/1  28/4/1 
f  48/1/1  49/2/1  32/3/1  29/4/1 
f  49/5/1  50/6/1  34/7/1  32/8/1 
f  50/9/1  51/10/1  36/11/1  34/12/1 
f  51/1/1  52/2/1  38/3/1  36/4/1 
f  52/1/1  53/2/1  39/3/1  38/4/1 
f  53/1/1  54/2/1  40/3/1  39/4/1 
f  54/1/1  55/2/1  41/3/1  40/4/1 
f  55/1/1  56/2/1  42/3/1  41/4/1 
f  56/1/1  57/2/1  43/3/1  42/4/1 
f  57/1/1  58/2/1  44/3/1  43/4/1 
f  59/1/1  60/2/1  46/3/1  45/4/1 
f  61/1/1  62/2/1  48/3/1  47/4/1 
f  62/1/1  63/2/1  49/3/1  48/4/1 
f  63/13/1  64/14/1  50/15/1  49/16/1 
f  64/17/1  65/18/1  51/19/1  50/20/1 
f  65/1/1  66/2/1  52/3/1  51/4/1 
f  66/21/1  67/22/1  53/23/1  52/24/1 
f  67/1/1  68/2/1  54/3/1  53/4/1 
f  68/1/1  69/2/1  55/3/1  54/4/1 
f  69/21/1  70/22/1  56/23/1  55/24/1 
f  70/1/1  71/2/1  57/3/1  56/4/1 
f  71/1/1  72/2/1  58/3/1  57/4/1 
f  73/1/1  74/2/1  60/3/1  59/4/1 
f  75/1/1  76/2/1  62/3/1  61/4/1 
f  76/1/1  77/2/1  63/3/1  62/4/1 
f  77/5/1  78/6/1  64/7/1  63/8/1 
f  78/9/1  79/10/1  65/11/1  64/12/1 
f  79/1/1  80/2/1  66/3/1  65/4/1 
f  80/25/1  81/26/1  67/27/1  66/28/1 
f  81/1/1  82/2/1  68/3/1  67/4/1 
f  82/1/1  83/2/1  69/3/1  68/4/1 
f  83/25/1  84/26/1  70/27/1  69/28/1 
f  84/1/1  85/2/1  71/3/1  70/4/1 
f  85/1/1  86/2/1  72/3/1  71/4/1 
f  86/1/1  87/2/1  73/3/1  72/4/1 
f  87/1/1  88/2/1  74/3/1  73/4/1 
f  89/1/1  90/2/1  76/3/1  75/4/1 
f  90/1/1  91/2/1  77/3/1  76/4/1 
f  91/5/1  92/6/1  78/7/1  77/8/1 
f  92/9/1  93/10/1  79/11/1  78/12/1 
f  93/1/1  94/2/1  80/3/1  79/4/1 
f  94/1/1  95/2/1  81/3/1  80/4/1 
f  95/1/1  96/2/1  82/3/1  81/4/1 
f  96/1/1  97/2/1  83/3/1  82/4/1 
f  97/1/1  98/2/1  84/3/1  83/4/1 
f  98/1/1  99/2/1  85/3/1  84/4/1 
f  99/1/1  100/2/1  86/3/1  85/4/1 
f  100/1/1  101/2/1  87/3/1  86/4/1 
f  101/1/1  102/2/1  88/3/1  87/4/1 
f  103/1/1  104/2/1  90/3/1  89/4/1 
f  104/1/1  105/2/1  91/3/1  90/4/1 
f  105/5/1  106/6/1  92/7/1  91/8/1 
f  106/9/1  107/10/1  93/11/1  92/12/1 
f  107/1/1  108/2/1  94/3/1  93/4/1 
f  108/1/1  109/2/1  95/3/1  94/4/1 
f  109/1/1  110/2/1  96/3/1  95/4/1 
f  110/1/1  111/2/1  97/3/1  96/4/1 
f  111/1/1  112/2/1  98/3/1  97/4/1 
f  112/1/1  113/2/1  99/3/1  98/4/1 
f  113/1/1  114/2/1  100/3/1  99/4/1 
f  114/1/1  115/2/1  101/3/1  100/4/1 
f  115/1/1  116/2/1  102/3/1  101/4/1 
f  117/5/1  118/6/1  106/7/1  105/8/1 
f  118/9/1  119/10/1  107/11/1  106/12/1 
g mesh_[01]_[00]
f  120/29/1  121/30/1  122/31/1  123/32/1 
f  121/29/1  124/30/1  125/31/1  122/32/1 
f  124/29/1  126/30/1  127/31/1  125/32/1 
f  126/29/1  128/30/1  129/31/1  127/32/1 
f  128/29/1  1/30/1  4/31/1  129/32/1 
f  1/29/1  2/30/1  3/31/1  4/32/1 
f  2/29/1  5/30/1  6/31/1  3/32/1 
f  5/29/1  7/30/1  8/31/1  6/32/1 
f  7/29/1  9/30/1  10/31/1  8/32/1 
f  9/29/1  11/30/1  12/31/1  10/32/1 
f  11/29/1  13/30/1  14/31/1  12/32/1 
f  13/29/1  15/30/1  18/31/1  14/32/1 
f  15/29/1  16/30/1  17/31/1  18/32/1 
f  31/33/1  30/34/1  121/35/1  120/36/1 
f  30/33/1  33/34/1  124/35/1  121/36/1 
f  33/33/1  35/34/1  126/35/1  124/36/1 
f  35/33/1  37/34/1  128/35/1  126/36/1 
f  37/33/1  19/34/1  1/35/1  128/36/1 
f  19/33/1  20/34/1  2/35/1  1/36/1 
f  20/33/1  21/34/1  5/35/1  2/36/1 
f  21/33/1  22/34/1  7/35/1  5/36/1 
f  22/33/1  23/34/1  9/35/1  7/36/1 
f  23/33/1  24/34/1  11/35/1  9/36/1 
f  24/37/1  25/38/1  13/39/1  11/40/1 
f  25/41/1  26/42/1  15/43/1  13/44/1 
f  26/45/1  27/46/1  16/47/1  15/48/1 
f  43/49/1  44/50/1  25/51/1  24/52/1 
f  44/41/1  45/42/1  26/43/1  25/44/1 
f  45/53/1  46/54/1  27/55/1  26/56/1 
f  57/49/1  58/50/1  44/51/1  43/52/1 
f  58/41/1  59/42/1  45/43/1  44/44/1 
f  59/53/1  60/54/1  46/55/1  45/56/1 
f  71/57/1  72/58/1  58/59/1  57/60/1 
f  72/33/1  73/34/1  59/35/1  58/36/1 
f  73/61/1  74/62/1  60/63/1  59/64/1 
f  107/1/1  108/2/1  94/3/1  93/4/1 
f  108/1/1  109/2/1  95/3/1  94/4/1 
f  130/29/1  131/30/1  104/31/1  103/32/1 
f  131/29/1  117/30/1  105/31/1  104/32/1 
f  117/29/1  118/30/1  106/31/1  105/32/1 
f  118/29/1  119/30/1  107/31/1  106/32/1 
f  119/29/1  132/30/1  108/31/1  107/32/1 
f  132/29/1  133/30/1  109/31/1  108/32/1 
f  133/29/1  134/30/1  110/31/1  109/32/1 
f  134/29/1  135/30/1  111/31/1  110/32/1 
f  135/29/1  136/30/1  112/31/1  111/32/1 
f  136/29/1  137/30/1  113/31/1  112/32/1 
f  137/29/1  138/30/1  114/31/1  113/32/1 
f  138/29/1  139/30/1  115/31/1  114/32/1 
f  139/29/1  140/30/1  116/31/1  115/32/1 
f  141/33/1  142/34/1  131/35/1  130/36/1 
f  142/33/1  143/34/1  117/35/1  131/36/1 
f  143/33/1  144/34/1  118/35/1  117/36/1 
f  144/33/1  145/34/1  119/35/1  118/36/1 
f  145/33/1  146/34/1  132/35/1  119/36/1 
f  146/33/1  147/34/1  133/35/1  132/36/1 
f  147/33/1  148/34/1  134/35/1  133/36/1 
f  148/33/1  149/34/1  135/35/1  134/36/1 
f  149/33/1  150/34/1  136/35/1  135/36/1 
f  150/33/1  151/34/1  137/35/1  136/36/1 
f  151/33/1  152/34/1  138/35/1  137/36/1 
f  152/33/1  153/34/1  139/35/1  138/36/1 
f  153/33/1  154/34/1  140/35/1  139/36/1 
f  155/65/1  156/66/1  142/67/1  141/68/1 
f  156/65/1  157/66/1  143/67/1  142/68/1 
f  157/65/1  158/66/1  144/67/1  143/68/1 
f  158/65/1  159/66/1  145/67/1  144/68/1 
f  159/65/1  160/66/1  146/67/1  145/68/1 
f  160/65/1  161/66/1  147/67/1  146/68/1 
f  161/65/1  162/66/1  148/67/1  147/68/1 
f  162/65/1  163/66/1  149/67/1  148/68/1 
f  163/65/1  164/66/1  150/67/1  149/68/1 
f  164/65/1  165/66/1  151/67/1  150/68/1 
f  165/65/1  166/66/1  152/67/1  151/68/1 
f  166/65/1  167/66/1  153/67/1  152/68/1 
f  167/65/1  168/66/1  154/67/1  153/68/1 
f  169/65/1  170/66/1  156/67/1  155/68/1 
f  170/65/1  171/66/1  157/67/1  156/68/1 
f  171/65/1  172/66/1  158/67/1  157/68/1 
f  172/65/1  173/66/1  159/67/1  158/68/1 
f  173/65/1  174/66/1  160/67/1  159/68/1 
f  174/65/1  175/66/1  161/67/1  160/68/1 
f  175/65/1  176/66/1  162/67/1  161/68/1 
f  176/65/1  177/66/1  163/67/1  162/68/1 
f  177/65/1  178/66/1  164/67/1  163/68/1 
f  178/65/1  179/66/1  165/67/1  164/68/1 
f  179/65/1  180/66/1  166/67/1  165/68/1 
f  180/65/1  181/66/1  167/67/1  166/68/1 
f  181/65/1  182/66/1  168/67/1  167/68/1 
f  183/65/1  184/66/1  170/67/1  169/68/1 
f  184/65/1  185/66/1  171/67/1  170/68/1 
f  185/65/1  186/66/1  172/67/1  171/68/1 
f  186/65/1  187/66/1  173/67/1  172/68/1 
f  187/65/1  188/66/1  174/67/1  173/68/1 
f  188/65/1  189/66/1  175/67/1  174/68/1 
f  189/65/1  190/66/1  176/67/1  175/68/1 
f  190/65/1  191/66/1  177/67/1  176/68/1 
f  191/65/1  192/66/1  178/67/1  177/68/1 
f  192/65/1  193/66/1  179/67/1  178/68/1 
f  193/65/1  194/66/1  180/67/1  179/68/1 
f  194/65/1  195/66/1  181/67/1  180/68/1 
f  195/65/1  196/66/1  182/67/1  181/68/1 
f  197/65/1  198/66/1  184/67/1  183/68/1 
f  198/65/1  199/66/1  185/67/1  184/68/1 
f  199/65/1  200/66/1  186/67/1  185/68/1 
f  200/65/1  201/66/1  187/67/1  186/68/1 
f  201/65/1  202/66/1  188/67/1  187/68/1 
f  202/65/1  203/66/1  189/67/1  188/68/1 
f  203/65/1  204/66/1  190/67/1  189/68/1 
f  204/65/1  205/66/1  191/67/1  190/68/1 
f  205/65/1  206/66/1  192/67/1  191/68/1 
f  206/65/1  207/66/1  193/67/1  192/68/1 
f  207/65/1  208/66/1  194/67/1  193/68/1 
f  208/65/1  209/66/1  195/67/1  194/68/1 
f  209/65/1  210/66/1  196/67/1  195/68/1 
f  211/65/1  212/66/1  198/67/1  197/68/1 
f  212/65/1  213/66/1  199/67/1  198/68/1 
f  213/65/1  214/66/1  200/67/1  199/68/1 
f  214/65/1  215/66/1  201/67/1  200/68/1 
f  215/65/1  216/66/1  202/67/1  201/68/1 
f  216/65/1  217/66/1  203/67/1  202/68/1 
f  217/65/1  218/66/1  204/67/1  203/68/1 
f  218/65/1  219/66/1  205/67/1  204/68/1 
f  219/65/1  220/66/1  206/67/1  205/68/1 
f  220/65/1  221/66/1  207/67/1  206/68/1 
f  221/65/1  222/66/1  208/67/1  207/68/1 
f  222/65/1  223/66/1  209/67/1  208/68/1 
f  223/65/1  224/66/1  210/67/1  209/68/1 
f  225/65/1  226/66/1  212/67/1  211/68/1 
f  226/65/1  227/66/1  213/67/1  212/68/1 
f  227/65/1  228/66/1  214/67/1  213/68/1 
f  228/65/1  229/66/1  215/67/1  214/68/1 
f  229/65/1  230/66/1  216/67/1  215/68/1 
f  230/65/1  231/66/1  217/67/1  216/68/1 
f  231/65/1  232/66/1  218/67/1  217/68/1 
f  232/65/1  233/66/1  219/67/1  218/68/1 
f  233/65/1  234/66/1  220/67/1  219/68/1 
f  234/65/1  235/66/1  221/67/1  220/68/1 
f  235/65/1  236/66/1  222/67/1  221/68/1 
f  236/65/1  237/66/1  223/67/1  222/68/1 
f  237/65/1  238/66/1  224/67/1  223/68/1 
f  239/65/1  240/66/1  226/67/1  225/68/1 
f  240/65/1  241/66/1  227/67/1  226/68/1 
f  241/65/1  242/66/1  228/67/1  227/68/1 
f  242/65/1  243/66/1  229/67/1  228/68/1 
f  243/65/1  244/66/1  230/67/1  229/68/1 
f  244/65/1  245/66/1  231/67/1  230/68/1 
f  245/65/1  246/66/1  232/67/1  231/68/1 
f  246/65/1  247/66/1  233/67/1  232/68/1 
f  247/65/1  248/66/1  234/67/1  233/68/1 
f  248/65/1  249/66/1  235/67/1  234/68/1 
f  249/65/1  250/66/1  236/67/1  235/68/1 
f  250/65/1  251/66/1  237/67/1  236/68/1 
f  251/65/1  252/66/1  238/67/1  237/68/1 
f  253/65/1  254/66/1  240/67/1  239/68/1 
f  254/65/1  255/66/1  241/67/1  240/68/1 
f  255/65/1  256/66/1  242/67/1  241/68/1 
f  256/65/1  257/66/1  243/67/1  242/68/1 
f  257/65/1  258/66/1  244/67/1  243/68/1 
f  258/65/1  259/66/1  245/67/1  244/68/1 
f  259/65/1  260/66/1  246/67/1  245/68/1 
f  260/65/1  261/66/1  247/67/1  246/68/1 
f  261/65/1  262/66/1  248/67/1  247/68/1 
f  262/65/1  263/66/1  249/67/1  248/68/1 
f  263/65/1  264/66/1  250/67/1  249/68/1 
f  264/65/1  265/66/1  251/67/1  250/68/1 
f  265/65/1  266/66/1  252/67/1  251/68/1 
f  267/65/1  268/66/1  254/67/1  253/68/1 
f  268/65/1  269/66/1  255/67/1  254/68/1 
f  269/65/1  270/66/1  256/67/1  255/68/1 
f  270/65/1  271/66/1  257/67/1  256/68/1 
f  271/65/1  272/66/1  258/67/1  257/68/1 
f  272/65/1  273/66/1  259/67/1  258/68/1 
f  273/65/1  274/66/1  260/67/1  259/68/1 
f  274/65/1  275/66/1  261/67/1  260/68/1 
f  275/65/1  276/66/1  262/67/1  261/68/1 
f  276/65/1  277/66/1  263/67/1  262/68/1 
f  277/65/1  278/66/1  264/67/1  263/68/1 
f  278/65/1  279/66/1  265/67/1  264/68/1 
f  279/65/1  280/66/1  266/67/1  265/68/1 
f  281/65/1  282/66/1  268/67/1  267/68/1 
f  282/65/1  283/66/1  269/67/1  268/68/1 
f  283/65/1  284/66/1  270/67/1  269/68/1 
f  284/65/1  285/66/1  271/67/1  270/68/1 
f  285/65/1  286/66/1  272/67/1  271/68/1 
f  286/65/1  287/66/1  273/67/1  272/68/1 
f  287/65/1  288/66/1  274/67/1  273/68/1 
f  288/65/1  289/66/1  275/67/1  274/68/1 
f  289/65/1  290/66/1  276/67/1  275/68/1 
f  290/65/1  291/66/1  277/67/1  276/68/1 
f  291/65/1  292/66/1  278/67/1  277/68/1 
f  292/65/1  293/66/1  279/67/1  278/68/1 
f  293/65/1  294/66/1  280/67/1  279/68/1 
f  295/65/1  296/66/1  282/67/1  281/68/1 
f  296/65/1  297/66/1  283/67/1  282/68/1 
f  297/65/1  298/66/1  284/67/1  283/68/1 
f  298/65/1  299/66/1  285/67/1  284/68/1 
f  299/65/1  300/66/1  286/67/1  285/68/1 
f  300/65/1  301/66/1  287/67/1  286/68/1 
f  301/65/1  302/66/1  288/67/1  287/68/1 
f  302/65/1  303/66/1  289/67/1  288/68/1 
f  303/65/1  304/66/1  290/67/1  289/68/1 
f  304/65/1  305/66/1  291/67/1  290/68/1 
f  305/65/1  306/66/1  292/67/1  291/68/1 
f  306/65/1  307/66/1  293/67/1  292/68/1 
f  307/65/1  308/66/1  294/67/1  293/68/1 
f  309/65/1  310/66/1  296/67/1  295/68/1 
f  310/65/1  311/66/1  297/67/1  296/68/1 
f  311/65/1  312/66/1  298/67/1  297/68/1 
f  312/65/1  313/66/1  299/67/1  298/68/1 
f  313/65/1  314/66/1  300/67/1  299/68/1 
f  314/65/1  315/66/1  301/67/1  300/68/1 
f  315/65/1  316/66/1  302/67/1  301/68/1 
f  316/65/1  317/66/1  303/67/1  302/68/1 
f  317/65/1  318/66/1  304/67/1  303/68/1 
f  318/65/1  319/66/1  305/67/1  304/68/1 
f  319/65/1  320/66/1  306/67/1  305/68/1 
f  320/65/1  321/66/1  307/67/1  306/68/1 
f  321/65/1  322/66/1  308/67/1  307/68/1 
f  323/65/1  324/66/1  310/67/1  309/68/1 
f  324/65/1  325/66/1  311/67/1  310/68/1 
f  325/65/1  326/66/1  312/67/1  311/68/1 
f  326/65/1  327/66/1  313/67/1  312/68/1 
f  327/65/1  328/66/1  314/67/1  313/68/1 
f  328/65/1  329/66/1  315/67/1  314/68/1 
f  329/65/1  330/66/1  316/67/1  315/68/1 
f  330/65/1  331/66/1  317/67/1  316/68/1 
f  331/65/1  332/66/1  318/67/1  317/68/1 
f  332/65/1  333/66/1  319/67/1  318/68/1 
f  333/65/1  334/66/1  320/67/1  319/68/1 
f  334/65/1  335/66/1  321/67/1  320/68/1 
f  335/65/1  336/66/1  322/67/1  321/68/1 
