# Wavefront OBJ file automatically generated by Tiled2Unity

# Vertices (Count = 336)
v -4224 -960 0
v -4288 -960 0
v -4288 -896 0
v -4224 -896 0
v -4352 -960 0
v -4352 -896 0
v -4416 -960 0
v -4416 -896 0
v -4480 -960 0
v -4480 -896 0
v -4544 -960 0
v -4544 -896 0
v -4608 -960 0
v -4608 -896 0
v -4672 -960 0
v -4736 -960 0
v -4736 -896 0
v -4672 -896 0
v -4224 -1024 0
v -4288 -1024 0
v -4352 -1024 0
v -4416 -1024 0
v -4480 -1024 0
v -4544 -1024 0
v -4608 -1024 0
v -4672 -1024 0
v -4736 -1024 0
v -3904 -1088 0
v -3968 -1088 0
v -3968 -1024 0
v -3904 -1024 0
v -4032 -1088 0
v -4032 -1024 0
v -4096 -1088 0
v -4096 -1024 0
v -4160 -1088 0
v -4160 -1024 0
v -4224 -1088 0
v -4288 -1088 0
v -4352 -1088 0
v -4416 -1088 0
v -4480 -1088 0
v -4544 -1088 0
v -4608 -1088 0
v -4672 -1088 0
v -4736 -1088 0
v -3904 -1152 0
v -3968 -1152 0
v -4032 -1152 0
v -4096 -1152 0
v -4160 -1152 0
v -4224 -1152 0
v -4288 -1152 0
v -4352 -1152 0
v -4416 -1152 0
v -4480 -1152 0
v -4544 -1152 0
v -4608 -1152 0
v -4672 -1152 0
v -4736 -1152 0
v -3904 -1216 0
v -3968 -1216 0
v -4032 -1216 0
v -4096 -1216 0
v -4160 -1216 0
v -4224 -1216 0
v -4288 -1216 0
v -4352 -1216 0
v -4416 -1216 0
v -4480 -1216 0
v -4544 -1216 0
v -4608 -1216 0
v -4672 -1216 0
v -4736 -1216 0
v -3904 -1280 0
v -3968 -1280 0
v -4032 -1280 0
v -4096 -1280 0
v -4160 -1280 0
v -4224 -1280 0
v -4288 -1280 0
v -4352 -1280 0
v -4416 -1280 0
v -4480 -1280 0
v -4544 -1280 0
v -4608 -1280 0
v -4672 -1280 0
v -4736 -1280 0
v -3904 -1344 0
v -3968 -1344 0
v -4032 -1344 0
v -4096 -1344 0
v -4160 -1344 0
v -4224 -1344 0
v -4288 -1344 0
v -4352 -1344 0
v -4416 -1344 0
v -4480 -1344 0
v -4544 -1344 0
v -4608 -1344 0
v -4672 -1344 0
v -4736 -1344 0
v -3904 -1408 0
v -3968 -1408 0
v -4032 -1408 0
v -4096 -1408 0
v -4160 -1408 0
v -4224 -1408 0
v -4288 -1408 0
v -4352 -1408 0
v -4416 -1408 0
v -4480 -1408 0
v -4544 -1408 0
v -4608 -1408 0
v -4672 -1408 0
v -4736 -1408 0
v -3904 -960 0
v -3968 -960 0
v -3968 -896 0
v -3904 -896 0
v -4032 -960 0
v -4032 -896 0
v -4096 -960 0
v -4096 -896 0
v -4160 -960 0
v -4160 -896 0
v -3904 -1472 0
v -3968 -1472 0
v -4032 -1472 0
v -4096 -1472 0
v -4160 -1472 0
v -4224 -1472 0
v -4288 -1472 0
v -4352 -1472 0
v -4416 -1472 0
v -4480 -1472 0
v -4544 -1472 0
v -4608 -1472 0
v -4672 -1472 0
v -4736 -1472 0
v -3904 -1536 0
v -3968 -1536 0
v -4032 -1536 0
v -4096 -1536 0
v -4160 -1536 0
v -4224 -1536 0
v -4288 -1536 0
v -4352 -1536 0
v -4416 -1536 0
v -4480 -1536 0
v -4544 -1536 0
v -4608 -1536 0
v -4672 -1536 0
v -4736 -1536 0
v -3904 -1600 0
v -3968 -1600 0
v -4032 -1600 0
v -4096 -1600 0
v -4160 -1600 0
v -4224 -1600 0
v -4288 -1600 0
v -4352 -1600 0
v -4416 -1600 0
v -4480 -1600 0
v -4544 -1600 0
v -4608 -1600 0
v -4672 -1600 0
v -4736 -1600 0
v -3904 -1664 0
v -3968 -1664 0
v -4032 -1664 0
v -4096 -1664 0
v -4160 -1664 0
v -4224 -1664 0
v -4288 -1664 0
v -4352 -1664 0
v -4416 -1664 0
v -4480 -1664 0
v -4544 -1664 0
v -4608 -1664 0
v -4672 -1664 0
v -4736 -1664 0
v -3904 -1728 0
v -3968 -1728 0
v -4032 -1728 0
v -4096 -1728 0
v -4160 -1728 0
v -4224 -1728 0
v -4288 -1728 0
v -4352 -1728 0
v -4416 -1728 0
v -4480 -1728 0
v -4544 -1728 0
v -4608 -1728 0
v -4672 -1728 0
v -4736 -1728 0
v -3904 -1792 0
v -3968 -1792 0
v -4032 -1792 0
v -4096 -1792 0
v -4160 -1792 0
v -4224 -1792 0
v -4288 -1792 0
v -4352 -1792 0
v -4416 -1792 0
v -4480 -1792 0
v -4544 -1792 0
v -4608 -1792 0
v -4672 -1792 0
v -4736 -1792 0
v -3904 -1856 0
v -3968 -1856 0
v -4032 -1856 0
v -4096 -1856 0
v -4160 -1856 0
v -4224 -1856 0
v -4288 -1856 0
v -4352 -1856 0
v -4416 -1856 0
v -4480 -1856 0
v -4544 -1856 0
v -4608 -1856 0
v -4672 -1856 0
v -4736 -1856 0
v -3904 -1920 0
v -3968 -1920 0
v -4032 -1920 0
v -4096 -1920 0
v -4160 -1920 0
v -4224 -1920 0
v -4288 -1920 0
v -4352 -1920 0
v -4416 -1920 0
v -4480 -1920 0
v -4544 -1920 0
v -4608 -1920 0
v -4672 -1920 0
v -4736 -1920 0
v -3904 -1984 0
v -3968 -1984 0
v -4032 -1984 0
v -4096 -1984 0
v -4160 -1984 0
v -4224 -1984 0
v -4288 -1984 0
v -4352 -1984 0
v -4416 -1984 0
v -4480 -1984 0
v -4544 -1984 0
v -4608 -1984 0
v -4672 -1984 0
v -4736 -1984 0
v -3904 -2048 0
v -3968 -2048 0
v -4032 -2048 0
v -4096 -2048 0
v -4160 -2048 0
v -4224 -2048 0
v -4288 -2048 0
v -4352 -2048 0
v -4416 -2048 0
v -4480 -2048 0
v -4544 -2048 0
v -4608 -2048 0
v -4672 -2048 0
v -4736 -2048 0
v -3904 -2112 0
v -3968 -2112 0
v -4032 -2112 0
v -4096 -2112 0
v -4160 -2112 0
v -4224 -2112 0
v -4288 -2112 0
v -4352 -2112 0
v -4416 -2112 0
v -4480 -2112 0
v -4544 -2112 0
v -4608 -2112 0
v -4672 -2112 0
v -4736 -2112 0
v -3904 -2176 0
v -3968 -2176 0
v -4032 -2176 0
v -4096 -2176 0
v -4160 -2176 0
v -4224 -2176 0
v -4288 -2176 0
v -4352 -2176 0
v -4416 -2176 0
v -4480 -2176 0
v -4544 -2176 0
v -4608 -2176 0
v -4672 -2176 0
v -4736 -2176 0
v -3904 -2240 0
v -3968 -2240 0
v -4032 -2240 0
v -4096 -2240 0
v -4160 -2240 0
v -4224 -2240 0
v -4288 -2240 0
v -4352 -2240 0
v -4416 -2240 0
v -4480 -2240 0
v -4544 -2240 0
v -4608 -2240 0
v -4672 -2240 0
v -4736 -2240 0
v -3904 -2304 0
v -3968 -2304 0
v -4032 -2304 0
v -4096 -2304 0
v -4160 -2304 0
v -4224 -2304 0
v -4288 -2304 0
v -4352 -2304 0
v -4416 -2304 0
v -4480 -2304 0
v -4544 -2304 0
v -4608 -2304 0
v -4672 -2304 0
v -4736 -2304 0
v -3904 -2368 0
v -3968 -2368 0
v -4032 -2368 0
v -4096 -2368 0
v -4160 -2368 0
v -4224 -2368 0
v -4288 -2368 0
v -4352 -2368 0
v -4416 -2368 0
v -4480 -2368 0
v -4544 -2368 0
v -4608 -2368 0
v -4672 -2368 0
v -4736 -2368 0

# Texture Coorindates (Count = 48)
vt 0.06262207 0.8126221
vt 0.1248779 0.8126221
vt 0.1248779 0.8748779
vt 0.06262207 0.8748779
vt 0.5001221 0.8126221
vt 0.5623779 0.8126221
vt 0.5623779 0.8748779
vt 0.5001221 0.8748779
vt 0.5626221 0.8126221
vt 0.6248779 0.8126221
vt 0.6248779 0.8748779
vt 0.5626221 0.8748779
vt 0.0001220703 0.8751221
vt 0.06237793 0.8751221
vt 0.06237793 0.9373779
vt 0.0001220703 0.9373779
vt 0.2501221 0.8751221
vt 0.3123779 0.8751221
vt 0.3123779 0.9373779
vt 0.2501221 0.9373779
vt 0.06262207 0.8751221
vt 0.1248779 0.8751221
vt 0.1248779 0.9373779
vt 0.06262207 0.9373779
vt 0.7501221 0.8751221
vt 0.8123779 0.8751221
vt 0.8123779 0.9373779
vt 0.7501221 0.9373779
vt 0.8126221 0.8751221
vt 0.8748779 0.8751221
vt 0.8748779 0.9373779
vt 0.8126221 0.9373779
vt 0.8751221 0.8751221
vt 0.9373779 0.8751221
vt 0.9373779 0.9373779
vt 0.8751221 0.9373779
vt 0.9376221 0.8751221
vt 0.9998779 0.8751221
vt 0.9998779 0.9373779
vt 0.9376221 0.9373779
vt 0.06262207 0.9376221
vt 0.1248779 0.9376221
vt 0.1248779 0.9998779
vt 0.06262207 0.9998779
vt 0.0001220703 0.9376221
vt 0.06237793 0.9376221
vt 0.06237793 0.9998779
vt 0.0001220703 0.9998779

# Normal
vn 0 0 -1

# Groups (Count = 2)
g mesh_[00]_[00]
f  1/1/1  2/2/1  3/3/1  4/4/1 
f  2/1/1  5/2/1  6/3/1  3/4/1 
f  5/1/1  7/2/1  8/3/1  6/4/1 
f  7/1/1  9/2/1  10/3/1  8/4/1 
f  9/1/1  11/2/1  12/3/1  10/4/1 
f  11/1/1  13/2/1  14/3/1  12/4/1 
f  15/1/1  16/2/1  17/3/1  18/4/1 
f  19/1/1  20/2/1  2/3/1  1/4/1 
f  20/1/1  21/2/1  5/3/1  2/4/1 
f  21/1/1  22/2/1  7/3/1  5/4/1 
f  22/1/1  23/2/1  9/3/1  7/4/1 
f  23/1/1  24/2/1  11/3/1  9/4/1 
f  24/1/1  25/2/1  13/3/1  11/4/1 
f  26/1/1  27/2/1  16/3/1  15/4/1 
f  28/1/1  29/2/1  30/3/1  31/4/1 
f  29/1/1  32/2/1  33/3/1  30/4/1 
f  32/5/1  34/6/1  35/7/1  33/8/1 
f  34/9/1  36/10/1  37/11/1  35/12/1 
f  36/1/1  38/2/1  19/3/1  37/4/1 
f  38/1/1  39/2/1  20/3/1  19/4/1 
f  39/1/1  40/2/1  21/3/1  20/4/1 
f  40/1/1  41/2/1  22/3/1  21/4/1 
f  41/1/1  42/2/1  23/3/1  22/4/1 
f  42/1/1  43/2/1  24/3/1  23/4/1 
f  43/5/1  44/6/1  25/7/1  24/8/1 
f  44/9/1  45/10/1  26/11/1  25/12/1 
f  45/1/1  46/2/1  27/3/1  26/4/1 
f  47/1/1  48/2/1  29/3/1  28/4/1 
f  48/1/1  49/2/1  32/3/1  29/4/1 
f  49/5/1  50/6/1  34/7/1  32/8/1 
f  50/9/1  51/10/1  36/11/1  34/12/1 
f  51/1/1  52/2/1  38/3/1  36/4/1 
f  52/1/1  53/2/1  39/3/1  38/4/1 
f  53/1/1  54/2/1  40/3/1  39/4/1 
f  54/1/1  55/2/1  41/3/1  40/4/1 
f  55/1/1  56/2/1  42/3/1  41/4/1 
f  56/1/1  57/2/1  43/3/1  42/4/1 
f  57/5/1  58/6/1  44/7/1  43/8/1 
f  58/9/1  59/10/1  45/11/1  44/12/1 
f  59/1/1  60/2/1  46/3/1  45/4/1 
f  61/1/1  62/2/1  48/3/1  47/4/1 
f  62/1/1  63/2/1  49/3/1  48/4/1 
f  63/5/1  64/6/1  50/7/1  49/8/1 
f  64/9/1  65/10/1  51/11/1  50/12/1 
f  65/1/1  66/2/1  52/3/1  51/4/1 
f  66/1/1  67/2/1  53/3/1  52/4/1 
f  67/1/1  68/2/1  54/3/1  53/4/1 
f  68/1/1  69/2/1  55/3/1  54/4/1 
f  69/1/1  70/2/1  56/3/1  55/4/1 
f  70/1/1  71/2/1  57/3/1  56/4/1 
f  71/5/1  72/6/1  58/7/1  57/8/1 
f  72/9/1  73/10/1  59/11/1  58/12/1 
f  73/1/1  74/2/1  60/3/1  59/4/1 
f  75/1/1  76/2/1  62/3/1  61/4/1 
f  76/1/1  77/2/1  63/3/1  62/4/1 
f  77/5/1  78/6/1  64/7/1  63/8/1 
f  78/9/1  79/10/1  65/11/1  64/12/1 
f  79/1/1  80/2/1  66/3/1  65/4/1 
f  80/1/1  81/2/1  67/3/1  66/4/1 
f  81/1/1  82/2/1  68/3/1  67/4/1 
f  82/1/1  83/2/1  69/3/1  68/4/1 
f  83/1/1  84/2/1  70/3/1  69/4/1 
f  84/1/1  85/2/1  71/3/1  70/4/1 
f  85/5/1  86/6/1  72/7/1  71/8/1 
f  86/9/1  87/10/1  73/11/1  72/12/1 
f  87/1/1  88/2/1  74/3/1  73/4/1 
f  89/1/1  90/2/1  76/3/1  75/4/1 
f  90/1/1  91/2/1  77/3/1  76/4/1 
f  91/5/1  92/6/1  78/7/1  77/8/1 
f  92/9/1  93/10/1  79/11/1  78/12/1 
f  93/1/1  94/2/1  80/3/1  79/4/1 
f  94/1/1  95/2/1  81/3/1  80/4/1 
f  95/1/1  96/2/1  82/3/1  81/4/1 
f  96/1/1  97/2/1  83/3/1  82/4/1 
f  97/1/1  98/2/1  84/3/1  83/4/1 
f  98/1/1  99/2/1  85/3/1  84/4/1 
f  99/5/1  100/6/1  86/7/1  85/8/1 
f  100/9/1  101/10/1  87/11/1  86/12/1 
f  101/1/1  102/2/1  88/3/1  87/4/1 
f  103/1/1  104/2/1  90/3/1  89/4/1 
f  104/1/1  105/2/1  91/3/1  90/4/1 
f  105/5/1  106/6/1  92/7/1  91/8/1 
f  106/9/1  107/10/1  93/11/1  92/12/1 
f  107/1/1  108/2/1  94/3/1  93/4/1 
f  108/1/1  109/2/1  95/3/1  94/4/1 
f  109/1/1  110/2/1  96/3/1  95/4/1 
f  110/1/1  111/2/1  97/3/1  96/4/1 
f  111/1/1  112/2/1  98/3/1  97/4/1 
f  112/1/1  113/2/1  99/3/1  98/4/1 
f  113/5/1  114/6/1  100/7/1  99/8/1 
f  114/9/1  115/10/1  101/11/1  100/12/1 
f  115/1/1  116/2/1  102/3/1  101/4/1 
g mesh_[01]_[00]
f  117/13/1  118/14/1  119/15/1  120/16/1 
f  118/13/1  121/14/1  122/15/1  119/16/1 
f  121/13/1  123/14/1  124/15/1  122/16/1 
f  123/13/1  125/14/1  126/15/1  124/16/1 
f  125/13/1  1/14/1  4/15/1  126/16/1 
f  1/13/1  2/14/1  3/15/1  4/16/1 
f  2/13/1  5/14/1  6/15/1  3/16/1 
f  5/13/1  7/14/1  8/15/1  6/16/1 
f  7/13/1  9/14/1  10/15/1  8/16/1 
f  9/13/1  11/14/1  12/15/1  10/16/1 
f  11/13/1  13/14/1  14/15/1  12/16/1 
f  13/13/1  15/14/1  18/15/1  14/16/1 
f  15/13/1  16/14/1  17/15/1  18/16/1 
f  31/17/1  30/18/1  118/19/1  117/20/1 
f  30/17/1  33/18/1  121/19/1  118/20/1 
f  33/17/1  35/18/1  123/19/1  121/20/1 
f  35/17/1  37/18/1  125/19/1  123/20/1 
f  37/17/1  19/18/1  1/19/1  125/20/1 
f  19/21/1  20/22/1  2/23/1  1/24/1 
f  20/21/1  21/22/1  5/23/1  2/24/1 
f  21/21/1  22/22/1  7/23/1  5/24/1 
f  22/21/1  23/22/1  9/23/1  7/24/1 
f  23/21/1  24/22/1  11/23/1  9/24/1 
f  24/17/1  25/18/1  13/19/1  11/20/1 
f  25/17/1  26/18/1  15/19/1  13/20/1 
f  26/17/1  27/18/1  16/19/1  15/20/1 
f  38/25/1  39/26/1  20/27/1  19/28/1 
f  39/21/1  40/22/1  21/23/1  20/24/1 
f  40/21/1  41/22/1  22/23/1  21/24/1 
f  41/21/1  42/22/1  23/23/1  22/24/1 
f  42/29/1  43/30/1  24/31/1  23/32/1 
f  53/25/1  54/26/1  40/27/1  39/28/1 
f  54/17/1  55/18/1  41/19/1  40/20/1 
f  55/29/1  56/30/1  42/31/1  41/32/1 
f  90/33/1  91/34/1  77/35/1  76/36/1 
f  91/13/1  92/14/1  78/15/1  77/16/1 
f  92/37/1  93/38/1  79/39/1  78/40/1 
f  103/33/1  104/34/1  90/35/1  89/36/1 
f  104/21/1  105/22/1  91/23/1  90/24/1 
f  105/21/1  106/22/1  92/23/1  91/24/1 
f  106/21/1  107/22/1  93/23/1  92/24/1 
f  107/37/1  108/38/1  94/39/1  93/40/1 
f  108/1/1  109/2/1  95/3/1  94/4/1 
f  127/21/1  128/22/1  104/23/1  103/24/1 
f  128/21/1  129/22/1  105/23/1  104/24/1 
f  129/21/1  130/22/1  106/23/1  105/24/1 
f  130/21/1  131/22/1  107/23/1  106/24/1 
f  131/21/1  132/22/1  108/23/1  107/24/1 
f  132/13/1  133/14/1  109/15/1  108/16/1 
f  133/13/1  134/14/1  110/15/1  109/16/1 
f  134/13/1  135/14/1  111/15/1  110/16/1 
f  135/13/1  136/14/1  112/15/1  111/16/1 
f  136/13/1  137/14/1  113/15/1  112/16/1 
f  137/13/1  138/14/1  114/15/1  113/16/1 
f  138/13/1  139/14/1  115/15/1  114/16/1 
f  139/13/1  140/14/1  116/15/1  115/16/1 
f  141/41/1  142/42/1  128/43/1  127/44/1 
f  142/41/1  143/42/1  129/43/1  128/44/1 
f  143/41/1  144/42/1  130/43/1  129/44/1 
f  144/41/1  145/42/1  131/43/1  130/44/1 
f  145/41/1  146/42/1  132/43/1  131/44/1 
f  146/41/1  147/42/1  133/43/1  132/44/1 
f  147/41/1  148/42/1  134/43/1  133/44/1 
f  148/41/1  149/42/1  135/43/1  134/44/1 
f  149/41/1  150/42/1  136/43/1  135/44/1 
f  150/41/1  151/42/1  137/43/1  136/44/1 
f  151/41/1  152/42/1  138/43/1  137/44/1 
f  152/41/1  153/42/1  139/43/1  138/44/1 
f  153/41/1  154/42/1  140/43/1  139/44/1 
f  155/45/1  156/46/1  142/47/1  141/48/1 
f  156/45/1  157/46/1  143/47/1  142/48/1 
f  157/45/1  158/46/1  144/47/1  143/48/1 
f  158/45/1  159/46/1  145/47/1  144/48/1 
f  159/45/1  160/46/1  146/47/1  145/48/1 
f  160/45/1  161/46/1  147/47/1  146/48/1 
f  161/45/1  162/46/1  148/47/1  147/48/1 
f  162/45/1  163/46/1  149/47/1  148/48/1 
f  163/45/1  164/46/1  150/47/1  149/48/1 
f  164/45/1  165/46/1  151/47/1  150/48/1 
f  165/45/1  166/46/1  152/47/1  151/48/1 
f  166/45/1  167/46/1  153/47/1  152/48/1 
f  167/45/1  168/46/1  154/47/1  153/48/1 
f  169/45/1  170/46/1  156/47/1  155/48/1 
f  170/45/1  171/46/1  157/47/1  156/48/1 
f  171/45/1  172/46/1  158/47/1  157/48/1 
f  172/45/1  173/46/1  159/47/1  158/48/1 
f  173/45/1  174/46/1  160/47/1  159/48/1 
f  174/45/1  175/46/1  161/47/1  160/48/1 
f  175/45/1  176/46/1  162/47/1  161/48/1 
f  176/45/1  177/46/1  163/47/1  162/48/1 
f  177/45/1  178/46/1  164/47/1  163/48/1 
f  178/45/1  179/46/1  165/47/1  164/48/1 
f  179/45/1  180/46/1  166/47/1  165/48/1 
f  180/45/1  181/46/1  167/47/1  166/48/1 
f  181/45/1  182/46/1  168/47/1  167/48/1 
f  183/45/1  184/46/1  170/47/1  169/48/1 
f  184/45/1  185/46/1  171/47/1  170/48/1 
f  185/45/1  186/46/1  172/47/1  171/48/1 
f  186/45/1  187/46/1  173/47/1  172/48/1 
f  187/45/1  188/46/1  174/47/1  173/48/1 
f  188/45/1  189/46/1  175/47/1  174/48/1 
f  189/45/1  190/46/1  176/47/1  175/48/1 
f  190/45/1  191/46/1  177/47/1  176/48/1 
f  191/45/1  192/46/1  178/47/1  177/48/1 
f  192/45/1  193/46/1  179/47/1  178/48/1 
f  193/45/1  194/46/1  180/47/1  179/48/1 
f  194/45/1  195/46/1  181/47/1  180/48/1 
f  195/45/1  196/46/1  182/47/1  181/48/1 
f  197/45/1  198/46/1  184/47/1  183/48/1 
f  198/45/1  199/46/1  185/47/1  184/48/1 
f  199/45/1  200/46/1  186/47/1  185/48/1 
f  200/45/1  201/46/1  187/47/1  186/48/1 
f  201/45/1  202/46/1  188/47/1  187/48/1 
f  202/45/1  203/46/1  189/47/1  188/48/1 
f  203/45/1  204/46/1  190/47/1  189/48/1 
f  204/45/1  205/46/1  191/47/1  190/48/1 
f  205/45/1  206/46/1  192/47/1  191/48/1 
f  206/45/1  207/46/1  193/47/1  192/48/1 
f  207/45/1  208/46/1  194/47/1  193/48/1 
f  208/45/1  209/46/1  195/47/1  194/48/1 
f  209/45/1  210/46/1  196/47/1  195/48/1 
f  211/45/1  212/46/1  198/47/1  197/48/1 
f  212/45/1  213/46/1  199/47/1  198/48/1 
f  213/45/1  214/46/1  200/47/1  199/48/1 
f  214/45/1  215/46/1  201/47/1  200/48/1 
f  215/45/1  216/46/1  202/47/1  201/48/1 
f  216/45/1  217/46/1  203/47/1  202/48/1 
f  217/45/1  218/46/1  204/47/1  203/48/1 
f  218/45/1  219/46/1  205/47/1  204/48/1 
f  219/45/1  220/46/1  206/47/1  205/48/1 
f  220/45/1  221/46/1  207/47/1  206/48/1 
f  221/45/1  222/46/1  208/47/1  207/48/1 
f  222/45/1  223/46/1  209/47/1  208/48/1 
f  223/45/1  224/46/1  210/47/1  209/48/1 
f  225/45/1  226/46/1  212/47/1  211/48/1 
f  226/45/1  227/46/1  213/47/1  212/48/1 
f  227/45/1  228/46/1  214/47/1  213/48/1 
f  228/45/1  229/46/1  215/47/1  214/48/1 
f  229/45/1  230/46/1  216/47/1  215/48/1 
f  230/45/1  231/46/1  217/47/1  216/48/1 
f  231/45/1  232/46/1  218/47/1  217/48/1 
f  232/45/1  233/46/1  219/47/1  218/48/1 
f  233/45/1  234/46/1  220/47/1  219/48/1 
f  234/45/1  235/46/1  221/47/1  220/48/1 
f  235/45/1  236/46/1  222/47/1  221/48/1 
f  236/45/1  237/46/1  223/47/1  222/48/1 
f  237/45/1  238/46/1  224/47/1  223/48/1 
f  239/45/1  240/46/1  226/47/1  225/48/1 
f  240/45/1  241/46/1  227/47/1  226/48/1 
f  241/45/1  242/46/1  228/47/1  227/48/1 
f  242/45/1  243/46/1  229/47/1  228/48/1 
f  243/45/1  244/46/1  230/47/1  229/48/1 
f  244/45/1  245/46/1  231/47/1  230/48/1 
f  245/45/1  246/46/1  232/47/1  231/48/1 
f  246/45/1  247/46/1  233/47/1  232/48/1 
f  247/45/1  248/46/1  234/47/1  233/48/1 
f  248/45/1  249/46/1  235/47/1  234/48/1 
f  249/45/1  250/46/1  236/47/1  235/48/1 
f  250/45/1  251/46/1  237/47/1  236/48/1 
f  251/45/1  252/46/1  238/47/1  237/48/1 
f  253/45/1  254/46/1  240/47/1  239/48/1 
f  254/45/1  255/46/1  241/47/1  240/48/1 
f  255/45/1  256/46/1  242/47/1  241/48/1 
f  256/45/1  257/46/1  243/47/1  242/48/1 
f  257/45/1  258/46/1  244/47/1  243/48/1 
f  258/45/1  259/46/1  245/47/1  244/48/1 
f  259/45/1  260/46/1  246/47/1  245/48/1 
f  260/45/1  261/46/1  247/47/1  246/48/1 
f  261/45/1  262/46/1  248/47/1  247/48/1 
f  262/45/1  263/46/1  249/47/1  248/48/1 
f  263/45/1  264/46/1  250/47/1  249/48/1 
f  264/45/1  265/46/1  251/47/1  250/48/1 
f  265/45/1  266/46/1  252/47/1  251/48/1 
f  267/45/1  268/46/1  254/47/1  253/48/1 
f  268/45/1  269/46/1  255/47/1  254/48/1 
f  269/45/1  270/46/1  256/47/1  255/48/1 
f  270/45/1  271/46/1  257/47/1  256/48/1 
f  271/45/1  272/46/1  258/47/1  257/48/1 
f  272/45/1  273/46/1  259/47/1  258/48/1 
f  273/45/1  274/46/1  260/47/1  259/48/1 
f  274/45/1  275/46/1  261/47/1  260/48/1 
f  275/45/1  276/46/1  262/47/1  261/48/1 
f  276/45/1  277/46/1  263/47/1  262/48/1 
f  277/45/1  278/46/1  264/47/1  263/48/1 
f  278/45/1  279/46/1  265/47/1  264/48/1 
f  279/45/1  280/46/1  266/47/1  265/48/1 
f  281/45/1  282/46/1  268/47/1  267/48/1 
f  282/45/1  283/46/1  269/47/1  268/48/1 
f  283/45/1  284/46/1  270/47/1  269/48/1 
f  284/45/1  285/46/1  271/47/1  270/48/1 
f  285/45/1  286/46/1  272/47/1  271/48/1 
f  286/45/1  287/46/1  273/47/1  272/48/1 
f  287/45/1  288/46/1  274/47/1  273/48/1 
f  288/45/1  289/46/1  275/47/1  274/48/1 
f  289/45/1  290/46/1  276/47/1  275/48/1 
f  290/45/1  291/46/1  277/47/1  276/48/1 
f  291/45/1  292/46/1  278/47/1  277/48/1 
f  292/45/1  293/46/1  279/47/1  278/48/1 
f  293/45/1  294/46/1  280/47/1  279/48/1 
f  295/45/1  296/46/1  282/47/1  281/48/1 
f  296/45/1  297/46/1  283/47/1  282/48/1 
f  297/45/1  298/46/1  284/47/1  283/48/1 
f  298/45/1  299/46/1  285/47/1  284/48/1 
f  299/45/1  300/46/1  286/47/1  285/48/1 
f  300/45/1  301/46/1  287/47/1  286/48/1 
f  301/45/1  302/46/1  288/47/1  287/48/1 
f  302/45/1  303/46/1  289/47/1  288/48/1 
f  303/45/1  304/46/1  290/47/1  289/48/1 
f  304/45/1  305/46/1  291/47/1  290/48/1 
f  305/45/1  306/46/1  292/47/1  291/48/1 
f  306/45/1  307/46/1  293/47/1  292/48/1 
f  307/45/1  308/46/1  294/47/1  293/48/1 
f  309/45/1  310/46/1  296/47/1  295/48/1 
f  310/45/1  311/46/1  297/47/1  296/48/1 
f  311/45/1  312/46/1  298/47/1  297/48/1 
f  312/45/1  313/46/1  299/47/1  298/48/1 
f  313/45/1  314/46/1  300/47/1  299/48/1 
f  314/45/1  315/46/1  301/47/1  300/48/1 
f  315/45/1  316/46/1  302/47/1  301/48/1 
f  316/45/1  317/46/1  303/47/1  302/48/1 
f  317/45/1  318/46/1  304/47/1  303/48/1 
f  318/45/1  319/46/1  305/47/1  304/48/1 
f  319/45/1  320/46/1  306/47/1  305/48/1 
f  320/45/1  321/46/1  307/47/1  306/48/1 
f  321/45/1  322/46/1  308/47/1  307/48/1 
f  323/45/1  324/46/1  310/47/1  309/48/1 
f  324/45/1  325/46/1  311/47/1  310/48/1 
f  325/45/1  326/46/1  312/47/1  311/48/1 
f  326/45/1  327/46/1  313/47/1  312/48/1 
f  327/45/1  328/46/1  314/47/1  313/48/1 
f  328/45/1  329/46/1  315/47/1  314/48/1 
f  329/45/1  330/46/1  316/47/1  315/48/1 
f  330/45/1  331/46/1  317/47/1  316/48/1 
f  331/45/1  332/46/1  318/47/1  317/48/1 
f  332/45/1  333/46/1  319/47/1  318/48/1 
f  333/45/1  334/46/1  320/47/1  319/48/1 
f  334/45/1  335/46/1  321/47/1  320/48/1 
f  335/45/1  336/46/1  322/47/1  321/48/1 
