# Wavefront OBJ file automatically generated by Tiled2Unity

# Vertices (Count = 177)
v -4224 -1408 0
v -4288 -1408 0
v -4288 -1344 0
v -4224 -1344 0
v -4352 -1408 0
v -4352 -1344 0
v -4416 -1408 0
v -4416 -1344 0
v -4480 -1408 0
v -4480 -1344 0
v -4480 -1472 0
v -4544 -1472 0
v -4544 -1408 0
v -4608 -1472 0
v -4608 -1408 0
v -4672 -1472 0
v -4672 -1408 0
v -4736 -1472 0
v -4736 -1408 0
v -4736 -1536 0
v -4800 -1536 0
v -4800 -1472 0
v -4864 -1536 0
v -4864 -1472 0
v -4928 -1536 0
v -4928 -1472 0
v -4992 -1536 0
v -4992 -1472 0
v -4992 -1600 0
v -5056 -1600 0
v -5056 -1536 0
v -5120 -1600 0
v -5120 -1536 0
v -5184 -1600 0
v -5184 -1536 0
v -5248 -1600 0
v -5248 -1536 0
v -5312 -1600 0
v -5312 -1536 0
v -5376 -1600 0
v -5376 -1536 0
v -5440 -1600 0
v -5440 -1536 0
v -5504 -1600 0
v -5504 -1536 0
v -5568 -1600 0
v -5568 -1536 0
v -5632 -1600 0
v -5632 -1536 0
v -5696 -1600 0
v -5696 -1536 0
v -5760 -1600 0
v -5760 -1536 0
v -4224 -1472 0
v -4288 -1472 0
v -4352 -1472 0
v -4416 -1472 0
v -4224 -1536 0
v -4288 -1536 0
v -4352 -1536 0
v -4416 -1536 0
v -4480 -1536 0
v -4544 -1536 0
v -4608 -1536 0
v -4672 -1536 0
v -4224 -1600 0
v -4288 -1600 0
v -4352 -1600 0
v -4416 -1600 0
v -4480 -1600 0
v -4544 -1600 0
v -4608 -1600 0
v -4672 -1600 0
v -4736 -1600 0
v -4800 -1600 0
v -4864 -1600 0
v -4928 -1600 0
v -4224 -1664 0
v -4288 -1664 0
v -4352 -1664 0
v -4416 -1664 0
v -4480 -1664 0
v -4544 -1664 0
v -4608 -1664 0
v -4672 -1664 0
v -4736 -1664 0
v -4800 -1664 0
v -4864 -1664 0
v -4928 -1664 0
v -4992 -1664 0
v -5056 -1664 0
v -5120 -1664 0
v -5184 -1664 0
v -5248 -1664 0
v -5312 -1664 0
v -5376 -1664 0
v -5440 -1664 0
v -5504 -1664 0
v -5568 -1664 0
v -5632 -1664 0
v -5696 -1664 0
v -5760 -1664 0
v -4224 -1728 0
v -4288 -1728 0
v -4352 -1728 0
v -4416 -1728 0
v -4480 -1728 0
v -4544 -1728 0
v -4608 -1728 0
v -4672 -1728 0
v -4736 -1728 0
v -4800 -1728 0
v -4864 -1728 0
v -4928 -1728 0
v -4992 -1728 0
v -5056 -1728 0
v -5120 -1728 0
v -5184 -1728 0
v -5248 -1728 0
v -5312 -1728 0
v -5376 -1728 0
v -5440 -1728 0
v -5504 -1728 0
v -5568 -1728 0
v -5632 -1728 0
v -5696 -1728 0
v -5760 -1728 0
v -4224 -1792 0
v -4288 -1792 0
v -4352 -1792 0
v -4416 -1792 0
v -4480 -1792 0
v -4544 -1792 0
v -4608 -1792 0
v -4672 -1792 0
v -4736 -1792 0
v -4800 -1792 0
v -4864 -1792 0
v -4928 -1792 0
v -4992 -1792 0
v -5056 -1792 0
v -5120 -1792 0
v -5184 -1792 0
v -5248 -1792 0
v -5312 -1792 0
v -5376 -1792 0
v -5440 -1792 0
v -5504 -1792 0
v -5568 -1792 0
v -5632 -1792 0
v -5696 -1792 0
v -5760 -1792 0
v -4224 -1856 0
v -4288 -1856 0
v -4352 -1856 0
v -4416 -1856 0
v -4480 -1856 0
v -4544 -1856 0
v -4608 -1856 0
v -4672 -1856 0
v -4736 -1856 0
v -4800 -1856 0
v -4864 -1856 0
v -4928 -1856 0
v -4992 -1856 0
v -5056 -1856 0
v -5120 -1856 0
v -5184 -1856 0
v -5248 -1856 0
v -5312 -1856 0
v -5376 -1856 0
v -5440 -1856 0
v -5504 -1856 0
v -5568 -1856 0
v -5632 -1856 0
v -5696 -1856 0
v -5760 -1856 0

# Texture Coorindates (Count = 24)
vt 0.3126221 0.8126221
vt 0.3748779 0.8126221
vt 0.3748779 0.8748779
vt 0.3126221 0.8748779
vt 0.2501221 0.8126221
vt 0.3123779 0.8126221
vt 0.3123779 0.8748779
vt 0.2501221 0.8748779
vt 0.1876221 0.8126221
vt 0.2498779 0.8126221
vt 0.2498779 0.8748779
vt 0.1876221 0.8748779
vt 0.1251221 0.8126221
vt 0.1873779 0.8126221
vt 0.1873779 0.8748779
vt 0.1251221 0.8748779
vt 0.06262207 0.9376221
vt 0.1248779 0.9376221
vt 0.1248779 0.9998779
vt 0.06262207 0.9998779
vt 0.0001220703 0.9376221
vt 0.06237793 0.9376221
vt 0.06237793 0.9998779
vt 0.0001220703 0.9998779

# Normal
vn 0 0 -1

# Groups (Count = 2)
g mesh_[00]_[00]
f  1/1/1  2/2/1  3/3/1  4/4/1 
f  2/5/1  5/6/1  6/7/1  3/8/1 
f  5/1/1  7/2/1  8/3/1  6/4/1 
f  7/1/1  9/2/1  10/3/1  8/4/1 
f  11/1/1  12/2/1  13/3/1  9/4/1 
f  12/9/1  14/10/1  15/11/1  13/12/1 
f  14/1/1  16/2/1  17/3/1  15/4/1 
f  16/1/1  18/2/1  19/3/1  17/4/1 
f  20/1/1  21/2/1  22/3/1  18/4/1 
f  21/13/1  23/14/1  24/15/1  22/16/1 
f  23/13/1  25/14/1  26/15/1  24/16/1 
f  25/1/1  27/2/1  28/3/1  26/4/1 
f  29/1/1  30/2/1  31/3/1  27/4/1 
f  30/5/1  32/6/1  33/7/1  31/8/1 
f  32/13/1  34/14/1  35/15/1  33/16/1 
f  34/1/1  36/2/1  37/3/1  35/4/1 
f  36/5/1  38/6/1  39/7/1  37/8/1 
f  38/1/1  40/2/1  41/3/1  39/4/1 
f  40/1/1  42/2/1  43/3/1  41/4/1 
f  42/9/1  44/10/1  45/11/1  43/12/1 
f  44/5/1  46/6/1  47/7/1  45/8/1 
f  46/5/1  48/6/1  49/7/1  47/8/1 
f  48/13/1  50/14/1  51/15/1  49/16/1 
f  50/1/1  52/2/1  53/3/1  51/4/1 
g mesh_[01]_[00]
f  54/17/1  55/18/1  2/19/1  1/20/1 
f  55/17/1  56/18/1  5/19/1  2/20/1 
f  56/17/1  57/18/1  7/19/1  5/20/1 
f  57/17/1  11/18/1  9/19/1  7/20/1 
f  58/21/1  59/22/1  55/23/1  54/24/1 
f  59/21/1  60/22/1  56/23/1  55/24/1 
f  60/21/1  61/22/1  57/23/1  56/24/1 
f  61/21/1  62/22/1  11/23/1  57/24/1 
f  62/17/1  63/18/1  12/19/1  11/20/1 
f  63/17/1  64/18/1  14/19/1  12/20/1 
f  64/17/1  65/18/1  16/19/1  14/20/1 
f  65/17/1  20/18/1  18/19/1  16/20/1 
f  66/21/1  67/22/1  59/23/1  58/24/1 
f  67/21/1  68/22/1  60/23/1  59/24/1 
f  68/21/1  69/22/1  61/23/1  60/24/1 
f  69/21/1  70/22/1  62/23/1  61/24/1 
f  70/21/1  71/22/1  63/23/1  62/24/1 
f  71/21/1  72/22/1  64/23/1  63/24/1 
f  72/21/1  73/22/1  65/23/1  64/24/1 
f  73/21/1  74/22/1  20/23/1  65/24/1 
f  74/17/1  75/18/1  21/19/1  20/20/1 
f  75/17/1  76/18/1  23/19/1  21/20/1 
f  76/17/1  77/18/1  25/19/1  23/20/1 
f  77/17/1  29/18/1  27/19/1  25/20/1 
f  78/21/1  79/22/1  67/23/1  66/24/1 
f  79/21/1  80/22/1  68/23/1  67/24/1 
f  80/21/1  81/22/1  69/23/1  68/24/1 
f  81/21/1  82/22/1  70/23/1  69/24/1 
f  82/21/1  83/22/1  71/23/1  70/24/1 
f  83/21/1  84/22/1  72/23/1  71/24/1 
f  84/21/1  85/22/1  73/23/1  72/24/1 
f  85/21/1  86/22/1  74/23/1  73/24/1 
f  86/21/1  87/22/1  75/23/1  74/24/1 
f  87/21/1  88/22/1  76/23/1  75/24/1 
f  88/21/1  89/22/1  77/23/1  76/24/1 
f  89/21/1  90/22/1  29/23/1  77/24/1 
f  90/17/1  91/18/1  30/19/1  29/20/1 
f  91/17/1  92/18/1  32/19/1  30/20/1 
f  92/17/1  93/18/1  34/19/1  32/20/1 
f  93/17/1  94/18/1  36/19/1  34/20/1 
f  94/17/1  95/18/1  38/19/1  36/20/1 
f  95/17/1  96/18/1  40/19/1  38/20/1 
f  96/17/1  97/18/1  42/19/1  40/20/1 
f  97/17/1  98/18/1  44/19/1  42/20/1 
f  98/17/1  99/18/1  46/19/1  44/20/1 
f  99/17/1  100/18/1  48/19/1  46/20/1 
f  100/17/1  101/18/1  50/19/1  48/20/1 
f  101/17/1  102/18/1  52/19/1  50/20/1 
f  103/21/1  104/22/1  79/23/1  78/24/1 
f  104/21/1  105/22/1  80/23/1  79/24/1 
f  105/21/1  106/22/1  81/23/1  80/24/1 
f  106/21/1  107/22/1  82/23/1  81/24/1 
f  107/21/1  108/22/1  83/23/1  82/24/1 
f  108/21/1  109/22/1  84/23/1  83/24/1 
f  109/21/1  110/22/1  85/23/1  84/24/1 
f  110/21/1  111/22/1  86/23/1  85/24/1 
f  111/21/1  112/22/1  87/23/1  86/24/1 
f  112/21/1  113/22/1  88/23/1  87/24/1 
f  113/21/1  114/22/1  89/23/1  88/24/1 
f  114/21/1  115/22/1  90/23/1  89/24/1 
f  115/21/1  116/22/1  91/23/1  90/24/1 
f  116/21/1  117/22/1  92/23/1  91/24/1 
f  117/21/1  118/22/1  93/23/1  92/24/1 
f  118/21/1  119/22/1  94/23/1  93/24/1 
f  119/21/1  120/22/1  95/23/1  94/24/1 
f  120/21/1  121/22/1  96/23/1  95/24/1 
f  121/21/1  122/22/1  97/23/1  96/24/1 
f  122/21/1  123/22/1  98/23/1  97/24/1 
f  123/21/1  124/22/1  99/23/1  98/24/1 
f  124/21/1  125/22/1  100/23/1  99/24/1 
f  125/21/1  126/22/1  101/23/1  100/24/1 
f  126/21/1  127/22/1  102/23/1  101/24/1 
f  128/21/1  129/22/1  104/23/1  103/24/1 
f  129/21/1  130/22/1  105/23/1  104/24/1 
f  130/21/1  131/22/1  106/23/1  105/24/1 
f  131/21/1  132/22/1  107/23/1  106/24/1 
f  132/21/1  133/22/1  108/23/1  107/24/1 
f  133/21/1  134/22/1  109/23/1  108/24/1 
f  134/21/1  135/22/1  110/23/1  109/24/1 
f  135/21/1  136/22/1  111/23/1  110/24/1 
f  136/21/1  137/22/1  112/23/1  111/24/1 
f  137/21/1  138/22/1  113/23/1  112/24/1 
f  138/21/1  139/22/1  114/23/1  113/24/1 
f  139/21/1  140/22/1  115/23/1  114/24/1 
f  140/21/1  141/22/1  116/23/1  115/24/1 
f  141/21/1  142/22/1  117/23/1  116/24/1 
f  142/21/1  143/22/1  118/23/1  117/24/1 
f  143/21/1  144/22/1  119/23/1  118/24/1 
f  144/21/1  145/22/1  120/23/1  119/24/1 
f  145/21/1  146/22/1  121/23/1  120/24/1 
f  146/21/1  147/22/1  122/23/1  121/24/1 
f  147/21/1  148/22/1  123/23/1  122/24/1 
f  148/21/1  149/22/1  124/23/1  123/24/1 
f  149/21/1  150/22/1  125/23/1  124/24/1 
f  150/21/1  151/22/1  126/23/1  125/24/1 
f  151/21/1  152/22/1  127/23/1  126/24/1 
f  153/21/1  154/22/1  129/23/1  128/24/1 
f  154/21/1  155/22/1  130/23/1  129/24/1 
f  155/21/1  156/22/1  131/23/1  130/24/1 
f  156/21/1  157/22/1  132/23/1  131/24/1 
f  157/21/1  158/22/1  133/23/1  132/24/1 
f  158/21/1  159/22/1  134/23/1  133/24/1 
f  159/21/1  160/22/1  135/23/1  134/24/1 
f  160/21/1  161/22/1  136/23/1  135/24/1 
f  161/21/1  162/22/1  137/23/1  136/24/1 
f  162/21/1  163/22/1  138/23/1  137/24/1 
f  163/21/1  164/22/1  139/23/1  138/24/1 
f  164/21/1  165/22/1  140/23/1  139/24/1 
f  165/21/1  166/22/1  141/23/1  140/24/1 
f  166/21/1  167/22/1  142/23/1  141/24/1 
f  167/21/1  168/22/1  143/23/1  142/24/1 
f  168/21/1  169/22/1  144/23/1  143/24/1 
f  169/21/1  170/22/1  145/23/1  144/24/1 
f  170/21/1  171/22/1  146/23/1  145/24/1 
f  171/21/1  172/22/1  147/23/1  146/24/1 
f  172/21/1  173/22/1  148/23/1  147/24/1 
f  173/21/1  174/22/1  149/23/1  148/24/1 
f  174/21/1  175/22/1  150/23/1  149/24/1 
f  175/21/1  176/22/1  151/23/1  150/24/1 
f  176/21/1  177/22/1  152/23/1  151/24/1 
