# Wavefront OBJ file automatically generated by Tiled2Unity

# Vertices (Count = 161)
v -1088 -1344 0
v -1152 -1344 0
v -1152 -1280 0
v -1088 -1280 0
v -1920 -1344 0
v -1984 -1344 0
v -1984 -1280 0
v -1920 -1280 0
v -1088 -1408 0
v -1152 -1408 0
v -1216 -1408 0
v -1216 -1344 0
v -1280 -1408 0
v -1280 -1344 0
v -1280 -1472 0
v -1792 -1472 0
v -1792 -960 0
v -1280 -960 0
v -1088 -1536 0
v -1152 -1536 0
v -1152 -1472 0
v -1088 -1472 0
v -1216 -1536 0
v -1216 -1472 0
v -1280 -1536 0
v -1344 -1536 0
v -1344 -1472 0
v -1408 -1536 0
v -1408 -1472 0
v -1472 -1536 0
v -1472 -1472 0
v -1536 -1536 0
v -1536 -1472 0
v -1600 -1536 0
v -1600 -1472 0
v -1664 -1536 0
v -1664 -1472 0
v -1728 -1536 0
v -1728 -1472 0
v -1792 -1536 0
v -1856 -1536 0
v -1856 -1472 0
v -1920 -1536 0
v -1920 -1472 0
v -1984 -1536 0
v -1984 -1472 0
v -1088 -1600 0
v -1152 -1600 0
v -1216 -1600 0
v -1280 -1600 0
v -1344 -1600 0
v -1408 -1600 0
v -1472 -1600 0
v -1536 -1600 0
v -1600 -1600 0
v -1664 -1600 0
v -1728 -1600 0
v -1792 -1600 0
v -1856 -1600 0
v -1920 -1600 0
v -1984 -1600 0
v -1088 -1664 0
v -1152 -1664 0
v -1216 -1664 0
v -1280 -1664 0
v -1344 -1664 0
v -1408 -1664 0
v -1472 -1664 0
v -1536 -1664 0
v -1600 -1664 0
v -1664 -1664 0
v -1728 -1664 0
v -1792 -1664 0
v -1856 -1664 0
v -1920 -1664 0
v -1984 -1664 0
v -1152 -1024 0
v -1216 -1024 0
v -1216 -960 0
v -1152 -960 0
v -1280 -1024 0
v -1344 -1024 0
v -1344 -960 0
v -1408 -1024 0
v -1408 -960 0
v -1472 -1024 0
v -1472 -960 0
v -1536 -1024 0
v -1536 -960 0
v -1600 -1024 0
v -1600 -960 0
v -1664 -1024 0
v -1664 -960 0
v -1728 -1024 0
v -1728 -960 0
v -1792 -1024 0
v -1856 -1024 0
v -1856 -960 0
v -1920 -1024 0
v -1920 -960 0
v -1088 -1088 0
v -1152 -1088 0
v -1088 -1024 0
v -1216 -1088 0
v -1280 -1088 0
v -1344 -1088 0
v -1408 -1088 0
v -1472 -1088 0
v -1536 -1088 0
v -1600 -1088 0
v -1664 -1088 0
v -1728 -1088 0
v -1792 -1088 0
v -1856 -1088 0
v -1920 -1088 0
v -1984 -1088 0
v -1984 -1024 0
v -1088 -1152 0
v -1152 -1152 0
v -1216 -1152 0
v -1280 -1152 0
v -1344 -1152 0
v -1728 -1152 0
v -1792 -1152 0
v -1856 -1152 0
v -1920 -1152 0
v -1984 -1152 0
v -1088 -1216 0
v -1152 -1216 0
v -1216 -1216 0
v -1280 -1216 0
v -1792 -1216 0
v -1856 -1216 0
v -1920 -1216 0
v -1984 -1216 0
v -1216 -1280 0
v -1280 -1280 0
v -1792 -1280 0
v -1856 -1280 0
v -1344 -1344 0
v -1344 -1280 0
v -1728 -1344 0
v -1792 -1344 0
v -1728 -1280 0
v -1856 -1344 0
v -1344 -1408 0
v -1408 -1408 0
v -1408 -1344 0
v -1472 -1408 0
v -1472 -1344 0
v -1536 -1408 0
v -1536 -1344 0
v -1600 -1408 0
v -1600 -1344 0
v -1664 -1408 0
v -1664 -1344 0
v -1728 -1408 0
v -1792 -1408 0
v -1856 -1408 0
v -1920 -1408 0
v -1984 -1408 0

# Texture Coorindates (Count = 64)
vt 0.0001220703 0.9376221
vt 0.06237793 0.9376221
vt 0.06237793 0.9998779
vt 0.0001220703 0.9998779
vt 0.5001221 0.7501221
vt 0.7498779 0.7501221
vt 0.7498779 0.9998779
vt 0.5001221 0.9998779
vt 0.3751221 0.6251221
vt 0.4373779 0.6251221
vt 0.4373779 0.6873779
vt 0.3751221 0.6873779
vt 0.06262207 0.6251221
vt 0.1248779 0.6251221
vt 0.1248779 0.6873779
vt 0.06262207 0.6873779
vt 0.3126221 0.6251221
vt 0.3748779 0.6251221
vt 0.3748779 0.6873779
vt 0.3126221 0.6873779
vt 0.06262207 0.9376221
vt 0.1248779 0.9376221
vt 0.1248779 0.9998779
vt 0.06262207 0.9998779
vt 0.1876221 0.6251221
vt 0.2498779 0.6251221
vt 0.2498779 0.6873779
vt 0.1876221 0.6873779
vt 0.0001220703 0.6251221
vt 0.06237793 0.6251221
vt 0.06237793 0.6873779
vt 0.0001220703 0.6873779
vt 0.8751221 0.6876221
vt 0.9373779 0.6876221
vt 0.9373779 0.7498779
vt 0.8751221 0.7498779
vt 0.2501221 0.6251221
vt 0.3123779 0.6251221
vt 0.3123779 0.6873779
vt 0.2501221 0.6873779
vt 0.9376221 0.6876221
vt 0.9998779 0.6876221
vt 0.9998779 0.7498779
vt 0.9376221 0.7498779
vt 0.1251221 0.6251221
vt 0.1873779 0.6251221
vt 0.1873779 0.6873779
vt 0.1251221 0.6873779
vt 0.4376221 0.6251221
vt 0.4998779 0.6251221
vt 0.4998779 0.6873779
vt 0.4376221 0.6873779
vt 0.5001221 0.6251221
vt 0.5623779 0.6251221
vt 0.5623779 0.6873779
vt 0.5001221 0.6873779
vt 0.8126221 0.6876221
vt 0.8748779 0.6876221
vt 0.8748779 0.7498779
vt 0.8126221 0.7498779
vt 0.7501221 0.6876221
vt 0.8123779 0.6876221
vt 0.8123779 0.7498779
vt 0.7501221 0.7498779

# Normal
vn 0 0 -1

# Groups (Count = 3)
g mesh_[00]_[00]
f  1/1/1  2/2/1  3/3/1  4/4/1 
f  5/1/1  6/2/1  7/3/1  8/4/1 
f  9/1/1  10/2/1  2/3/1  1/4/1 
f  10/1/1  11/2/1  12/3/1  2/4/1 
f  11/1/1  13/2/1  14/3/1  12/4/1 
f  19/1/1  20/2/1  21/3/1  22/4/1 
f  20/1/1  23/2/1  24/3/1  21/4/1 
f  23/1/1  25/2/1  15/3/1  24/4/1 
f  25/1/1  26/2/1  27/3/1  15/4/1 
f  26/1/1  28/2/1  29/3/1  27/4/1 
f  28/1/1  30/2/1  31/3/1  29/4/1 
f  30/1/1  32/2/1  33/3/1  31/4/1 
f  32/1/1  34/2/1  35/3/1  33/4/1 
f  34/1/1  36/2/1  37/3/1  35/4/1 
f  36/1/1  38/2/1  39/3/1  37/4/1 
f  38/1/1  40/2/1  16/3/1  39/4/1 
f  40/1/1  41/2/1  42/3/1  16/4/1 
f  41/1/1  43/2/1  44/3/1  42/4/1 
f  43/1/1  45/2/1  46/3/1  44/4/1 
f  47/1/1  48/2/1  20/3/1  19/4/1 
f  48/1/1  49/2/1  23/3/1  20/4/1 
f  49/1/1  50/2/1  25/3/1  23/4/1 
f  50/1/1  51/2/1  26/3/1  25/4/1 
f  51/1/1  52/2/1  28/3/1  26/4/1 
f  52/1/1  53/2/1  30/3/1  28/4/1 
f  53/1/1  54/2/1  32/3/1  30/4/1 
f  54/1/1  55/2/1  34/3/1  32/4/1 
f  55/1/1  56/2/1  36/3/1  34/4/1 
f  56/1/1  57/2/1  38/3/1  36/4/1 
f  57/1/1  58/2/1  40/3/1  38/4/1 
f  58/1/1  59/2/1  41/3/1  40/4/1 
f  59/1/1  60/2/1  43/3/1  41/4/1 
f  60/1/1  61/2/1  45/3/1  43/4/1 
f  62/1/1  63/2/1  48/3/1  47/4/1 
f  63/1/1  64/2/1  49/3/1  48/4/1 
f  64/1/1  65/2/1  50/3/1  49/4/1 
f  65/1/1  66/2/1  51/3/1  50/4/1 
f  66/1/1  67/2/1  52/3/1  51/4/1 
f  67/1/1  68/2/1  53/3/1  52/4/1 
f  68/1/1  69/2/1  54/3/1  53/4/1 
f  69/1/1  70/2/1  55/3/1  54/4/1 
f  70/1/1  71/2/1  56/3/1  55/4/1 
f  71/1/1  72/2/1  57/3/1  56/4/1 
f  72/1/1  73/2/1  58/3/1  57/4/1 
f  73/1/1  74/2/1  59/3/1  58/4/1 
f  74/1/1  75/2/1  60/3/1  59/4/1 
f  75/1/1  76/2/1  61/3/1  60/4/1 
g mesh_[00]_[01]
f  15/5/1  16/6/1  17/7/1  18/8/1 
g mesh_[01]_[00]
f  77/9/1  78/10/1  79/11/1  80/12/1 
f  78/13/1  81/14/1  18/15/1  79/16/1 
f  81/13/1  82/14/1  83/15/1  18/16/1 
f  82/13/1  84/14/1  85/15/1  83/16/1 
f  84/13/1  86/14/1  87/15/1  85/16/1 
f  86/13/1  88/14/1  89/15/1  87/16/1 
f  88/13/1  90/14/1  91/15/1  89/16/1 
f  90/13/1  92/14/1  93/15/1  91/16/1 
f  92/13/1  94/14/1  95/15/1  93/16/1 
f  94/13/1  96/14/1  17/15/1  95/16/1 
f  96/13/1  97/14/1  98/15/1  17/16/1 
f  97/17/1  99/18/1  100/19/1  98/20/1 
f  101/21/1  102/22/1  77/23/1  103/24/1 
f  102/25/1  104/26/1  78/27/1  77/28/1 
f  104/29/1  105/30/1  81/31/1  78/32/1 
f  105/33/1  106/34/1  82/35/1  81/36/1 
f  106/37/1  107/38/1  84/39/1  82/40/1 
f  107/37/1  108/38/1  86/39/1  84/40/1 
f  108/37/1  109/38/1  88/39/1  86/40/1 
f  109/37/1  110/38/1  90/39/1  88/40/1 
f  110/37/1  111/38/1  92/39/1  90/40/1 
f  111/37/1  112/38/1  94/39/1  92/40/1 
f  112/41/1  113/42/1  96/43/1  94/44/1 
f  113/29/1  114/30/1  97/31/1  96/32/1 
f  114/45/1  115/46/1  99/47/1  97/48/1 
f  115/21/1  116/22/1  117/23/1  99/24/1 
f  118/1/1  119/2/1  102/3/1  101/4/1 
f  119/25/1  120/26/1  104/27/1  102/28/1 
f  120/33/1  121/34/1  105/35/1  104/36/1 
f  121/49/1  122/50/1  106/51/1  105/52/1 
f  123/53/1  124/54/1  113/55/1  112/56/1 
f  124/41/1  125/42/1  114/43/1  113/44/1 
f  125/45/1  126/46/1  115/47/1  114/48/1 
f  126/1/1  127/2/1  116/3/1  115/4/1 
f  128/1/1  129/2/1  119/3/1  118/4/1 
f  129/25/1  130/26/1  120/27/1  119/28/1 
f  130/45/1  131/46/1  121/47/1  120/48/1 
f  132/25/1  133/26/1  125/27/1  124/28/1 
f  133/45/1  134/46/1  126/47/1  125/48/1 
f  134/1/1  135/2/1  127/3/1  126/4/1 
f  4/1/1  3/2/1  129/3/1  128/4/1 
f  3/25/1  136/26/1  130/27/1  129/28/1 
f  136/45/1  137/46/1  131/47/1  130/48/1 
f  138/25/1  139/26/1  133/27/1  132/28/1 
f  139/45/1  8/46/1  134/47/1  133/48/1 
f  8/1/1  7/2/1  135/3/1  134/4/1 
f  1/9/1  2/10/1  3/11/1  4/12/1 
f  2/57/1  12/58/1  136/59/1  3/60/1 
f  12/61/1  14/62/1  137/63/1  136/64/1 
f  14/17/1  140/18/1  141/19/1  137/20/1 
f  142/9/1  143/10/1  138/11/1  144/12/1 
f  143/57/1  145/58/1  139/59/1  138/60/1 
f  145/61/1  5/62/1  8/63/1  139/64/1 
f  5/17/1  6/18/1  7/19/1  8/20/1 
f  9/1/1  10/2/1  2/3/1  1/4/1 
f  10/1/1  11/2/1  12/3/1  2/4/1 
f  11/1/1  13/2/1  14/3/1  12/4/1 
f  13/1/1  146/2/1  140/3/1  14/4/1 
f  146/1/1  147/2/1  148/3/1  140/4/1 
f  147/1/1  149/2/1  150/3/1  148/4/1 
f  149/1/1  151/2/1  152/3/1  150/4/1 
f  151/1/1  153/2/1  154/3/1  152/4/1 
f  153/1/1  155/2/1  156/3/1  154/4/1 
f  155/1/1  157/2/1  142/3/1  156/4/1 
f  157/1/1  158/2/1  143/3/1  142/4/1 
f  158/1/1  159/2/1  145/3/1  143/4/1 
f  159/1/1  160/2/1  5/3/1  145/4/1 
f  160/1/1  161/2/1  6/3/1  5/4/1 
f  22/1/1  21/2/1  10/3/1  9/4/1 
f  21/1/1  24/2/1  11/3/1  10/4/1 
f  24/1/1  15/2/1  13/3/1  11/4/1 
f  15/1/1  27/2/1  146/3/1  13/4/1 
f  27/1/1  29/2/1  147/3/1  146/4/1 
f  29/1/1  31/2/1  149/3/1  147/4/1 
f  31/1/1  33/2/1  151/3/1  149/4/1 
f  33/1/1  35/2/1  153/3/1  151/4/1 
f  35/1/1  37/2/1  155/3/1  153/4/1 
f  37/1/1  39/2/1  157/3/1  155/4/1 
f  39/1/1  16/2/1  158/3/1  157/4/1 
f  16/1/1  42/2/1  159/3/1  158/4/1 
f  42/1/1  44/2/1  160/3/1  159/4/1 
f  44/1/1  46/2/1  161/3/1  160/4/1 
