# Wavefront OBJ file automatically generated by Tiled2Unity

# Vertices (Count = 333)
v -320 -1408 0
v -384 -1408 0
v -384 -1344 0
v -320 -1344 0
v -448 -1408 0
v -448 -1344 0
v -512 -1408 0
v -512 -1344 0
v -576 -1408 0
v -576 -1344 0
v -640 -1408 0
v -640 -1344 0
v -704 -1408 0
v -704 -1344 0
v -768 -1408 0
v -768 -1344 0
v -832 -1408 0
v -832 -1344 0
v -896 -1408 0
v -896 -1344 0
v -960 -1408 0
v -960 -1344 0
v -1024 -1408 0
v -1024 -1344 0
v -1088 -1408 0
v -1088 -1344 0
v -1152 -1408 0
v -1152 -1344 0
v -1216 -1408 0
v -1216 -1344 0
v -1280 -1408 0
v -1280 -1344 0
v -1344 -1408 0
v -1344 -1344 0
v -1408 -1408 0
v -1408 -1344 0
v -1472 -1408 0
v -1472 -1344 0
v -1536 -1408 0
v -1536 -1344 0
v -1600 -1408 0
v -1600 -1344 0
v -1664 -1408 0
v -1664 -1344 0
v -1728 -1408 0
v -1728 -1344 0
v -1792 -1408 0
v -1792 -1344 0
v -1856 -1408 0
v -1856 -1344 0
v -1920 -1408 0
v -1920 -1344 0
v -1984 -1408 0
v -1984 -1344 0
v -2048 -1408 0
v -2048 -1344 0
v -2112 -1408 0
v -2112 -1344 0
v -2176 -1408 0
v -2176 -1344 0
v -2240 -1408 0
v -2240 -1344 0
v -2304 -1408 0
v -2304 -1344 0
v -2368 -1408 0
v -2368 -1344 0
v -2432 -1408 0
v -2432 -1344 0
v -2496 -1408 0
v -2496 -1344 0
v -2560 -1408 0
v -2560 -1344 0
v -2624 -1408 0
v -2624 -1344 0
v -320 -1472 0
v -384 -1472 0
v -448 -1472 0
v -512 -1472 0
v -576 -1472 0
v -640 -1472 0
v -704 -1472 0
v -768 -1472 0
v -832 -1472 0
v -896 -1472 0
v -960 -1472 0
v -1024 -1472 0
v -1088 -1472 0
v -1152 -1472 0
v -1216 -1472 0
v -1280 -1472 0
v -1344 -1472 0
v -1408 -1472 0
v -1472 -1472 0
v -1536 -1472 0
v -1600 -1472 0
v -1664 -1472 0
v -1728 -1472 0
v -1792 -1472 0
v -1856 -1472 0
v -1920 -1472 0
v -1984 -1472 0
v -2048 -1472 0
v -2112 -1472 0
v -2176 -1472 0
v -2240 -1472 0
v -2304 -1472 0
v -2368 -1472 0
v -2432 -1472 0
v -2496 -1472 0
v -2560 -1472 0
v -2624 -1472 0
v -320 -1536 0
v -384 -1536 0
v -448 -1536 0
v -512 -1536 0
v -576 -1536 0
v -640 -1536 0
v -704 -1536 0
v -768 -1536 0
v -832 -1536 0
v -896 -1536 0
v -960 -1536 0
v -1024 -1536 0
v -1088 -1536 0
v -1152 -1536 0
v -1216 -1536 0
v -1280 -1536 0
v -1344 -1536 0
v -1408 -1536 0
v -1472 -1536 0
v -1536 -1536 0
v -1600 -1536 0
v -1664 -1536 0
v -1728 -1536 0
v -1792 -1536 0
v -1856 -1536 0
v -1920 -1536 0
v -1984 -1536 0
v -2048 -1536 0
v -2112 -1536 0
v -2176 -1536 0
v -2240 -1536 0
v -2304 -1536 0
v -2368 -1536 0
v -2432 -1536 0
v -2496 -1536 0
v -2560 -1536 0
v -2624 -1536 0
v -320 -1600 0
v -384 -1600 0
v -448 -1600 0
v -512 -1600 0
v -576 -1600 0
v -640 -1600 0
v -704 -1600 0
v -768 -1600 0
v -832 -1600 0
v -896 -1600 0
v -960 -1600 0
v -1024 -1600 0
v -1088 -1600 0
v -1152 -1600 0
v -1216 -1600 0
v -1280 -1600 0
v -1344 -1600 0
v -1408 -1600 0
v -1472 -1600 0
v -1536 -1600 0
v -1600 -1600 0
v -1664 -1600 0
v -1728 -1600 0
v -1792 -1600 0
v -1856 -1600 0
v -1920 -1600 0
v -1984 -1600 0
v -2048 -1600 0
v -2112 -1600 0
v -2176 -1600 0
v -2240 -1600 0
v -2304 -1600 0
v -2368 -1600 0
v -2432 -1600 0
v -2496 -1600 0
v -2560 -1600 0
v -2624 -1600 0
v -320 -1664 0
v -384 -1664 0
v -448 -1664 0
v -512 -1664 0
v -576 -1664 0
v -640 -1664 0
v -704 -1664 0
v -768 -1664 0
v -832 -1664 0
v -896 -1664 0
v -960 -1664 0
v -1024 -1664 0
v -1088 -1664 0
v -1152 -1664 0
v -1216 -1664 0
v -1280 -1664 0
v -1344 -1664 0
v -1408 -1664 0
v -1472 -1664 0
v -1536 -1664 0
v -1600 -1664 0
v -1664 -1664 0
v -1728 -1664 0
v -1792 -1664 0
v -1856 -1664 0
v -1920 -1664 0
v -1984 -1664 0
v -2048 -1664 0
v -2112 -1664 0
v -2176 -1664 0
v -2240 -1664 0
v -2304 -1664 0
v -2368 -1664 0
v -2432 -1664 0
v -2496 -1664 0
v -2560 -1664 0
v -2624 -1664 0
v -320 -1728 0
v -384 -1728 0
v -448 -1728 0
v -512 -1728 0
v -576 -1728 0
v -640 -1728 0
v -704 -1728 0
v -768 -1728 0
v -832 -1728 0
v -896 -1728 0
v -960 -1728 0
v -1024 -1728 0
v -1088 -1728 0
v -1152 -1728 0
v -1216 -1728 0
v -1280 -1728 0
v -1344 -1728 0
v -1408 -1728 0
v -1472 -1728 0
v -1536 -1728 0
v -1600 -1728 0
v -1664 -1728 0
v -1728 -1728 0
v -1792 -1728 0
v -1856 -1728 0
v -1920 -1728 0
v -1984 -1728 0
v -2048 -1728 0
v -2112 -1728 0
v -2176 -1728 0
v -2240 -1728 0
v -2304 -1728 0
v -2368 -1728 0
v -2432 -1728 0
v -2496 -1728 0
v -2560 -1728 0
v -2624 -1728 0
v -320 -1792 0
v -384 -1792 0
v -448 -1792 0
v -512 -1792 0
v -576 -1792 0
v -640 -1792 0
v -704 -1792 0
v -768 -1792 0
v -832 -1792 0
v -896 -1792 0
v -960 -1792 0
v -1024 -1792 0
v -1088 -1792 0
v -1152 -1792 0
v -1216 -1792 0
v -1280 -1792 0
v -1344 -1792 0
v -1408 -1792 0
v -1472 -1792 0
v -1536 -1792 0
v -1600 -1792 0
v -1664 -1792 0
v -1728 -1792 0
v -1792 -1792 0
v -1856 -1792 0
v -1920 -1792 0
v -1984 -1792 0
v -2048 -1792 0
v -2112 -1792 0
v -2176 -1792 0
v -2240 -1792 0
v -2304 -1792 0
v -2368 -1792 0
v -2432 -1792 0
v -2496 -1792 0
v -2560 -1792 0
v -2624 -1792 0
v -320 -1856 0
v -384 -1856 0
v -448 -1856 0
v -512 -1856 0
v -576 -1856 0
v -640 -1856 0
v -704 -1856 0
v -768 -1856 0
v -832 -1856 0
v -896 -1856 0
v -960 -1856 0
v -1024 -1856 0
v -1088 -1856 0
v -1152 -1856 0
v -1216 -1856 0
v -1280 -1856 0
v -1344 -1856 0
v -1408 -1856 0
v -1472 -1856 0
v -1536 -1856 0
v -1600 -1856 0
v -1664 -1856 0
v -1728 -1856 0
v -1792 -1856 0
v -1856 -1856 0
v -1920 -1856 0
v -1984 -1856 0
v -2048 -1856 0
v -2112 -1856 0
v -2176 -1856 0
v -2240 -1856 0
v -2304 -1856 0
v -2368 -1856 0
v -2432 -1856 0
v -2496 -1856 0
v -2560 -1856 0
v -2624 -1856 0

# Texture Coorindates (Count = 20)
vt 0.1251221 0.8126221
vt 0.1873779 0.8126221
vt 0.1873779 0.8748779
vt 0.1251221 0.8748779
vt 0.2501221 0.8126221
vt 0.3123779 0.8126221
vt 0.3123779 0.8748779
vt 0.2501221 0.8748779
vt 0.1876221 0.8126221
vt 0.2498779 0.8126221
vt 0.2498779 0.8748779
vt 0.1876221 0.8748779
vt 0.06262207 0.9376221
vt 0.1248779 0.9376221
vt 0.1248779 0.9998779
vt 0.06262207 0.9998779
vt 0.0001220703 0.9376221
vt 0.06237793 0.9376221
vt 0.06237793 0.9998779
vt 0.0001220703 0.9998779

# Normal
vn 0 0 -1

# Groups (Count = 2)
g mesh_[00]_[00]
f  1/1/1  2/2/1  3/3/1  4/4/1 
f  2/5/1  5/6/1  6/7/1  3/8/1 
f  5/1/1  7/2/1  8/3/1  6/4/1 
f  7/5/1  9/6/1  10/7/1  8/8/1 
f  9/5/1  11/6/1  12/7/1  10/8/1 
f  11/5/1  13/6/1  14/7/1  12/8/1 
f  13/9/1  15/10/1  16/11/1  14/12/1 
f  15/9/1  17/10/1  18/11/1  16/12/1 
f  17/1/1  19/2/1  20/3/1  18/4/1 
f  19/1/1  21/2/1  22/3/1  20/4/1 
f  21/1/1  23/2/1  24/3/1  22/4/1 
f  23/1/1  25/2/1  26/3/1  24/4/1 
f  25/9/1  27/10/1  28/11/1  26/12/1 
f  27/9/1  29/10/1  30/11/1  28/12/1 
f  29/1/1  31/2/1  32/3/1  30/4/1 
f  31/1/1  33/2/1  34/3/1  32/4/1 
f  33/5/1  35/6/1  36/7/1  34/8/1 
f  35/5/1  37/6/1  38/7/1  36/8/1 
f  37/5/1  39/6/1  40/7/1  38/8/1 
f  39/1/1  41/2/1  42/3/1  40/4/1 
f  41/1/1  43/2/1  44/3/1  42/4/1 
f  43/1/1  45/2/1  46/3/1  44/4/1 
f  45/1/1  47/2/1  48/3/1  46/4/1 
f  47/9/1  49/10/1  50/11/1  48/12/1 
f  49/1/1  51/2/1  52/3/1  50/4/1 
f  51/1/1  53/2/1  54/3/1  52/4/1 
f  53/5/1  55/6/1  56/7/1  54/8/1 
f  55/5/1  57/6/1  58/7/1  56/8/1 
f  57/1/1  59/2/1  60/3/1  58/4/1 
f  59/9/1  61/10/1  62/11/1  60/12/1 
f  61/9/1  63/10/1  64/11/1  62/12/1 
f  63/1/1  65/2/1  66/3/1  64/4/1 
f  65/1/1  67/2/1  68/3/1  66/4/1 
f  67/5/1  69/6/1  70/7/1  68/8/1 
f  69/5/1  71/6/1  72/7/1  70/8/1 
f  71/1/1  73/2/1  74/3/1  72/4/1 
g mesh_[01]_[00]
f  75/13/1  76/14/1  2/15/1  1/16/1 
f  76/13/1  77/14/1  5/15/1  2/16/1 
f  77/13/1  78/14/1  7/15/1  5/16/1 
f  78/13/1  79/14/1  9/15/1  7/16/1 
f  79/13/1  80/14/1  11/15/1  9/16/1 
f  80/13/1  81/14/1  13/15/1  11/16/1 
f  81/13/1  82/14/1  15/15/1  13/16/1 
f  82/13/1  83/14/1  17/15/1  15/16/1 
f  83/13/1  84/14/1  19/15/1  17/16/1 
f  84/13/1  85/14/1  21/15/1  19/16/1 
f  85/13/1  86/14/1  23/15/1  21/16/1 
f  86/13/1  87/14/1  25/15/1  23/16/1 
f  87/13/1  88/14/1  27/15/1  25/16/1 
f  88/13/1  89/14/1  29/15/1  27/16/1 
f  89/13/1  90/14/1  31/15/1  29/16/1 
f  90/13/1  91/14/1  33/15/1  31/16/1 
f  91/13/1  92/14/1  35/15/1  33/16/1 
f  92/13/1  93/14/1  37/15/1  35/16/1 
f  93/13/1  94/14/1  39/15/1  37/16/1 
f  94/13/1  95/14/1  41/15/1  39/16/1 
f  95/13/1  96/14/1  43/15/1  41/16/1 
f  96/13/1  97/14/1  45/15/1  43/16/1 
f  97/13/1  98/14/1  47/15/1  45/16/1 
f  98/13/1  99/14/1  49/15/1  47/16/1 
f  99/13/1  100/14/1  51/15/1  49/16/1 
f  100/13/1  101/14/1  53/15/1  51/16/1 
f  101/13/1  102/14/1  55/15/1  53/16/1 
f  102/13/1  103/14/1  57/15/1  55/16/1 
f  103/13/1  104/14/1  59/15/1  57/16/1 
f  104/13/1  105/14/1  61/15/1  59/16/1 
f  105/13/1  106/14/1  63/15/1  61/16/1 
f  106/13/1  107/14/1  65/15/1  63/16/1 
f  107/13/1  108/14/1  67/15/1  65/16/1 
f  108/13/1  109/14/1  69/15/1  67/16/1 
f  109/13/1  110/14/1  71/15/1  69/16/1 
f  110/13/1  111/14/1  73/15/1  71/16/1 
f  112/17/1  113/18/1  76/19/1  75/20/1 
f  113/17/1  114/18/1  77/19/1  76/20/1 
f  114/17/1  115/18/1  78/19/1  77/20/1 
f  115/17/1  116/18/1  79/19/1  78/20/1 
f  116/17/1  117/18/1  80/19/1  79/20/1 
f  117/17/1  118/18/1  81/19/1  80/20/1 
f  118/17/1  119/18/1  82/19/1  81/20/1 
f  119/17/1  120/18/1  83/19/1  82/20/1 
f  120/17/1  121/18/1  84/19/1  83/20/1 
f  121/17/1  122/18/1  85/19/1  84/20/1 
f  122/17/1  123/18/1  86/19/1  85/20/1 
f  123/17/1  124/18/1  87/19/1  86/20/1 
f  124/17/1  125/18/1  88/19/1  87/20/1 
f  125/17/1  126/18/1  89/19/1  88/20/1 
f  126/17/1  127/18/1  90/19/1  89/20/1 
f  127/17/1  128/18/1  91/19/1  90/20/1 
f  128/17/1  129/18/1  92/19/1  91/20/1 
f  129/17/1  130/18/1  93/19/1  92/20/1 
f  130/17/1  131/18/1  94/19/1  93/20/1 
f  131/17/1  132/18/1  95/19/1  94/20/1 
f  132/17/1  133/18/1  96/19/1  95/20/1 
f  133/17/1  134/18/1  97/19/1  96/20/1 
f  134/17/1  135/18/1  98/19/1  97/20/1 
f  135/17/1  136/18/1  99/19/1  98/20/1 
f  136/17/1  137/18/1  100/19/1  99/20/1 
f  137/17/1  138/18/1  101/19/1  100/20/1 
f  138/17/1  139/18/1  102/19/1  101/20/1 
f  139/17/1  140/18/1  103/19/1  102/20/1 
f  140/17/1  141/18/1  104/19/1  103/20/1 
f  141/17/1  142/18/1  105/19/1  104/20/1 
f  142/17/1  143/18/1  106/19/1  105/20/1 
f  143/17/1  144/18/1  107/19/1  106/20/1 
f  144/17/1  145/18/1  108/19/1  107/20/1 
f  145/17/1  146/18/1  109/19/1  108/20/1 
f  146/17/1  147/18/1  110/19/1  109/20/1 
f  147/17/1  148/18/1  111/19/1  110/20/1 
f  149/17/1  150/18/1  113/19/1  112/20/1 
f  150/17/1  151/18/1  114/19/1  113/20/1 
f  151/17/1  152/18/1  115/19/1  114/20/1 
f  152/17/1  153/18/1  116/19/1  115/20/1 
f  153/17/1  154/18/1  117/19/1  116/20/1 
f  154/17/1  155/18/1  118/19/1  117/20/1 
f  155/17/1  156/18/1  119/19/1  118/20/1 
f  156/17/1  157/18/1  120/19/1  119/20/1 
f  157/17/1  158/18/1  121/19/1  120/20/1 
f  158/17/1  159/18/1  122/19/1  121/20/1 
f  159/17/1  160/18/1  123/19/1  122/20/1 
f  160/17/1  161/18/1  124/19/1  123/20/1 
f  161/17/1  162/18/1  125/19/1  124/20/1 
f  162/17/1  163/18/1  126/19/1  125/20/1 
f  163/17/1  164/18/1  127/19/1  126/20/1 
f  164/17/1  165/18/1  128/19/1  127/20/1 
f  165/17/1  166/18/1  129/19/1  128/20/1 
f  166/17/1  167/18/1  130/19/1  129/20/1 
f  167/17/1  168/18/1  131/19/1  130/20/1 
f  168/17/1  169/18/1  132/19/1  131/20/1 
f  169/17/1  170/18/1  133/19/1  132/20/1 
f  170/17/1  171/18/1  134/19/1  133/20/1 
f  171/17/1  172/18/1  135/19/1  134/20/1 
f  172/17/1  173/18/1  136/19/1  135/20/1 
f  173/17/1  174/18/1  137/19/1  136/20/1 
f  174/17/1  175/18/1  138/19/1  137/20/1 
f  175/17/1  176/18/1  139/19/1  138/20/1 
f  176/17/1  177/18/1  140/19/1  139/20/1 
f  177/17/1  178/18/1  141/19/1  140/20/1 
f  178/17/1  179/18/1  142/19/1  141/20/1 
f  179/17/1  180/18/1  143/19/1  142/20/1 
f  180/17/1  181/18/1  144/19/1  143/20/1 
f  181/17/1  182/18/1  145/19/1  144/20/1 
f  182/17/1  183/18/1  146/19/1  145/20/1 
f  183/17/1  184/18/1  147/19/1  146/20/1 
f  184/17/1  185/18/1  148/19/1  147/20/1 
f  186/17/1  187/18/1  150/19/1  149/20/1 
f  187/17/1  188/18/1  151/19/1  150/20/1 
f  188/17/1  189/18/1  152/19/1  151/20/1 
f  189/17/1  190/18/1  153/19/1  152/20/1 
f  190/17/1  191/18/1  154/19/1  153/20/1 
f  191/17/1  192/18/1  155/19/1  154/20/1 
f  192/17/1  193/18/1  156/19/1  155/20/1 
f  193/17/1  194/18/1  157/19/1  156/20/1 
f  194/17/1  195/18/1  158/19/1  157/20/1 
f  195/17/1  196/18/1  159/19/1  158/20/1 
f  196/17/1  197/18/1  160/19/1  159/20/1 
f  197/17/1  198/18/1  161/19/1  160/20/1 
f  198/17/1  199/18/1  162/19/1  161/20/1 
f  199/17/1  200/18/1  163/19/1  162/20/1 
f  200/17/1  201/18/1  164/19/1  163/20/1 
f  201/17/1  202/18/1  165/19/1  164/20/1 
f  202/17/1  203/18/1  166/19/1  165/20/1 
f  203/17/1  204/18/1  167/19/1  166/20/1 
f  204/17/1  205/18/1  168/19/1  167/20/1 
f  205/17/1  206/18/1  169/19/1  168/20/1 
f  206/17/1  207/18/1  170/19/1  169/20/1 
f  207/17/1  208/18/1  171/19/1  170/20/1 
f  208/17/1  209/18/1  172/19/1  171/20/1 
f  209/17/1  210/18/1  173/19/1  172/20/1 
f  210/17/1  211/18/1  174/19/1  173/20/1 
f  211/17/1  212/18/1  175/19/1  174/20/1 
f  212/17/1  213/18/1  176/19/1  175/20/1 
f  213/17/1  214/18/1  177/19/1  176/20/1 
f  214/17/1  215/18/1  178/19/1  177/20/1 
f  215/17/1  216/18/1  179/19/1  178/20/1 
f  216/17/1  217/18/1  180/19/1  179/20/1 
f  217/17/1  218/18/1  181/19/1  180/20/1 
f  218/17/1  219/18/1  182/19/1  181/20/1 
f  219/17/1  220/18/1  183/19/1  182/20/1 
f  220/17/1  221/18/1  184/19/1  183/20/1 
f  221/17/1  222/18/1  185/19/1  184/20/1 
f  223/17/1  224/18/1  187/19/1  186/20/1 
f  224/17/1  225/18/1  188/19/1  187/20/1 
f  225/17/1  226/18/1  189/19/1  188/20/1 
f  226/17/1  227/18/1  190/19/1  189/20/1 
f  227/17/1  228/18/1  191/19/1  190/20/1 
f  228/17/1  229/18/1  192/19/1  191/20/1 
f  229/17/1  230/18/1  193/19/1  192/20/1 
f  230/17/1  231/18/1  194/19/1  193/20/1 
f  231/17/1  232/18/1  195/19/1  194/20/1 
f  232/17/1  233/18/1  196/19/1  195/20/1 
f  233/17/1  234/18/1  197/19/1  196/20/1 
f  234/17/1  235/18/1  198/19/1  197/20/1 
f  235/17/1  236/18/1  199/19/1  198/20/1 
f  236/17/1  237/18/1  200/19/1  199/20/1 
f  237/17/1  238/18/1  201/19/1  200/20/1 
f  238/17/1  239/18/1  202/19/1  201/20/1 
f  239/17/1  240/18/1  203/19/1  202/20/1 
f  240/17/1  241/18/1  204/19/1  203/20/1 
f  241/17/1  242/18/1  205/19/1  204/20/1 
f  242/17/1  243/18/1  206/19/1  205/20/1 
f  243/17/1  244/18/1  207/19/1  206/20/1 
f  244/17/1  245/18/1  208/19/1  207/20/1 
f  245/17/1  246/18/1  209/19/1  208/20/1 
f  246/17/1  247/18/1  210/19/1  209/20/1 
f  247/17/1  248/18/1  211/19/1  210/20/1 
f  248/17/1  249/18/1  212/19/1  211/20/1 
f  249/17/1  250/18/1  213/19/1  212/20/1 
f  250/17/1  251/18/1  214/19/1  213/20/1 
f  251/17/1  252/18/1  215/19/1  214/20/1 
f  252/17/1  253/18/1  216/19/1  215/20/1 
f  253/17/1  254/18/1  217/19/1  216/20/1 
f  254/17/1  255/18/1  218/19/1  217/20/1 
f  255/17/1  256/18/1  219/19/1  218/20/1 
f  256/17/1  257/18/1  220/19/1  219/20/1 
f  257/17/1  258/18/1  221/19/1  220/20/1 
f  258/17/1  259/18/1  222/19/1  221/20/1 
f  260/17/1  261/18/1  224/19/1  223/20/1 
f  261/17/1  262/18/1  225/19/1  224/20/1 
f  262/17/1  263/18/1  226/19/1  225/20/1 
f  263/17/1  264/18/1  227/19/1  226/20/1 
f  264/17/1  265/18/1  228/19/1  227/20/1 
f  265/17/1  266/18/1  229/19/1  228/20/1 
f  266/17/1  267/18/1  230/19/1  229/20/1 
f  267/17/1  268/18/1  231/19/1  230/20/1 
f  268/17/1  269/18/1  232/19/1  231/20/1 
f  269/17/1  270/18/1  233/19/1  232/20/1 
f  270/17/1  271/18/1  234/19/1  233/20/1 
f  271/17/1  272/18/1  235/19/1  234/20/1 
f  272/17/1  273/18/1  236/19/1  235/20/1 
f  273/17/1  274/18/1  237/19/1  236/20/1 
f  274/17/1  275/18/1  238/19/1  237/20/1 
f  275/17/1  276/18/1  239/19/1  238/20/1 
f  276/17/1  277/18/1  240/19/1  239/20/1 
f  277/17/1  278/18/1  241/19/1  240/20/1 
f  278/17/1  279/18/1  242/19/1  241/20/1 
f  279/17/1  280/18/1  243/19/1  242/20/1 
f  280/17/1  281/18/1  244/19/1  243/20/1 
f  281/17/1  282/18/1  245/19/1  244/20/1 
f  282/17/1  283/18/1  246/19/1  245/20/1 
f  283/17/1  284/18/1  247/19/1  246/20/1 
f  284/17/1  285/18/1  248/19/1  247/20/1 
f  285/17/1  286/18/1  249/19/1  248/20/1 
f  286/17/1  287/18/1  250/19/1  249/20/1 
f  287/17/1  288/18/1  251/19/1  250/20/1 
f  288/17/1  289/18/1  252/19/1  251/20/1 
f  289/17/1  290/18/1  253/19/1  252/20/1 
f  290/17/1  291/18/1  254/19/1  253/20/1 
f  291/17/1  292/18/1  255/19/1  254/20/1 
f  292/17/1  293/18/1  256/19/1  255/20/1 
f  293/17/1  294/18/1  257/19/1  256/20/1 
f  294/17/1  295/18/1  258/19/1  257/20/1 
f  295/17/1  296/18/1  259/19/1  258/20/1 
f  297/17/1  298/18/1  261/19/1  260/20/1 
f  298/17/1  299/18/1  262/19/1  261/20/1 
f  299/17/1  300/18/1  263/19/1  262/20/1 
f  300/17/1  301/18/1  264/19/1  263/20/1 
f  301/17/1  302/18/1  265/19/1  264/20/1 
f  302/17/1  303/18/1  266/19/1  265/20/1 
f  303/17/1  304/18/1  267/19/1  266/20/1 
f  304/17/1  305/18/1  268/19/1  267/20/1 
f  305/17/1  306/18/1  269/19/1  268/20/1 
f  306/17/1  307/18/1  270/19/1  269/20/1 
f  307/17/1  308/18/1  271/19/1  270/20/1 
f  308/17/1  309/18/1  272/19/1  271/20/1 
f  309/17/1  310/18/1  273/19/1  272/20/1 
f  310/17/1  311/18/1  274/19/1  273/20/1 
f  311/17/1  312/18/1  275/19/1  274/20/1 
f  312/17/1  313/18/1  276/19/1  275/20/1 
f  313/17/1  314/18/1  277/19/1  276/20/1 
f  314/17/1  315/18/1  278/19/1  277/20/1 
f  315/17/1  316/18/1  279/19/1  278/20/1 
f  316/17/1  317/18/1  280/19/1  279/20/1 
f  317/17/1  318/18/1  281/19/1  280/20/1 
f  318/17/1  319/18/1  282/19/1  281/20/1 
f  319/17/1  320/18/1  283/19/1  282/20/1 
f  320/17/1  321/18/1  284/19/1  283/20/1 
f  321/17/1  322/18/1  285/19/1  284/20/1 
f  322/17/1  323/18/1  286/19/1  285/20/1 
f  323/17/1  324/18/1  287/19/1  286/20/1 
f  324/17/1  325/18/1  288/19/1  287/20/1 
f  325/17/1  326/18/1  289/19/1  288/20/1 
f  326/17/1  327/18/1  290/19/1  289/20/1 
f  327/17/1  328/18/1  291/19/1  290/20/1 
f  328/17/1  329/18/1  292/19/1  291/20/1 
f  329/17/1  330/18/1  293/19/1  292/20/1 
f  330/17/1  331/18/1  294/19/1  293/20/1 
f  331/17/1  332/18/1  295/19/1  294/20/1 
f  332/17/1  333/18/1  296/19/1  295/20/1 
