# Wavefront OBJ file automatically generated by Tiled2Unity

# Vertices (Count = 266)
v -1600 -1408 0
v -1664 -1408 0
v -1664 -1344 0
v -1600 -1344 0
v -1728 -1408 0
v -1728 -1344 0
v -1792 -1408 0
v -1792 -1344 0
v -1856 -1408 0
v -1856 -1344 0
v -1920 -1408 0
v -1920 -1344 0
v -1984 -1408 0
v -1984 -1344 0
v -2304 -1408 0
v -2368 -1408 0
v -2368 -1344 0
v -2304 -1344 0
v -2432 -1408 0
v -2432 -1344 0
v -2496 -1408 0
v -2496 -1344 0
v -2560 -1408 0
v -2560 -1344 0
v -2624 -1408 0
v -2624 -1344 0
v -2048 -1536 0
v -2112 -1536 0
v -2112 -1472 0
v -2048 -1472 0
v -2176 -1536 0
v -2176 -1472 0
v -2240 -1536 0
v -2240 -1472 0
v -2304 -1536 0
v -2304 -1472 0
v -1984 -1600 0
v -2048 -1600 0
v -1984 -1536 0
v -2112 -1600 0
v -2176 -1600 0
v -2240 -1600 0
v -1984 -1664 0
v -2048 -1664 0
v -2112 -1664 0
v -2176 -1664 0
v -2240 -1664 0
v -2304 -1664 0
v -2304 -1600 0
v -2048 -1728 0
v -2112 -1728 0
v -2176 -1728 0
v -2240 -1728 0
v -2304 -1728 0
v -2048 -1792 0
v -2112 -1792 0
v -2176 -1792 0
v -2240 -1792 0
v -2048 -1856 0
v -2112 -1856 0
v -2176 -1856 0
v -2240 -1856 0
v -2048 -1920 0
v -2112 -1920 0
v -2176 -1920 0
v -2240 -1920 0
v -2048 -1984 0
v -2112 -1984 0
v -2176 -1984 0
v -2240 -1984 0
v -2048 -2048 0
v -2112 -2048 0
v -2176 -2048 0
v -2240 -2048 0
v -2048 -2112 0
v -2112 -2112 0
v -2176 -2112 0
v -2240 -2112 0
v -2048 -2176 0
v -2112 -2176 0
v -2176 -2176 0
v -2240 -2176 0
v -2048 -2240 0
v -2112 -2240 0
v -2176 -2240 0
v -2240 -2240 0
v -2048 -2304 0
v -2112 -2304 0
v -2176 -2304 0
v -2240 -2304 0
v -1600 -1472 0
v -1664 -1472 0
v -1728 -1472 0
v -1792 -1472 0
v -1856 -1472 0
v -1920 -1472 0
v -1984 -1472 0
v -2048 -1408 0
v -2240 -1408 0
v -2368 -1472 0
v -2432 -1472 0
v -2496 -1472 0
v -2560 -1472 0
v -2624 -1472 0
v -1600 -1536 0
v -1664 -1536 0
v -1728 -1536 0
v -1792 -1536 0
v -1856 -1536 0
v -1920 -1536 0
v -2368 -1536 0
v -2432 -1536 0
v -2496 -1536 0
v -2560 -1536 0
v -2624 -1536 0
v -1600 -1600 0
v -1664 -1600 0
v -1728 -1600 0
v -1792 -1600 0
v -1856 -1600 0
v -1920 -1600 0
v -2368 -1600 0
v -2432 -1600 0
v -2496 -1600 0
v -2560 -1600 0
v -2624 -1600 0
v -1600 -1664 0
v -1664 -1664 0
v -1728 -1664 0
v -1792 -1664 0
v -1856 -1664 0
v -1920 -1664 0
v -2368 -1664 0
v -2432 -1664 0
v -2496 -1664 0
v -2560 -1664 0
v -2624 -1664 0
v -1600 -1728 0
v -1664 -1728 0
v -1728 -1728 0
v -1792 -1728 0
v -1856 -1728 0
v -1920 -1728 0
v -1984 -1728 0
v -2368 -1728 0
v -2432 -1728 0
v -2496 -1728 0
v -2560 -1728 0
v -2624 -1728 0
v -1600 -1792 0
v -1664 -1792 0
v -1728 -1792 0
v -1792 -1792 0
v -1856 -1792 0
v -1920 -1792 0
v -1984 -1792 0
v -2304 -1792 0
v -2368 -1792 0
v -2432 -1792 0
v -2496 -1792 0
v -2560 -1792 0
v -2624 -1792 0
v -1600 -1856 0
v -1664 -1856 0
v -1728 -1856 0
v -1792 -1856 0
v -1856 -1856 0
v -1920 -1856 0
v -1984 -1856 0
v -2304 -1856 0
v -2368 -1856 0
v -2432 -1856 0
v -2496 -1856 0
v -2560 -1856 0
v -2624 -1856 0
v -1600 -1920 0
v -1664 -1920 0
v -1728 -1920 0
v -1792 -1920 0
v -1856 -1920 0
v -1920 -1920 0
v -1984 -1920 0
v -2304 -1920 0
v -2368 -1920 0
v -2432 -1920 0
v -2496 -1920 0
v -2560 -1920 0
v -2624 -1920 0
v -1600 -1984 0
v -1664 -1984 0
v -1728 -1984 0
v -1792 -1984 0
v -1856 -1984 0
v -1920 -1984 0
v -1984 -1984 0
v -2304 -1984 0
v -2368 -1984 0
v -2432 -1984 0
v -2496 -1984 0
v -2560 -1984 0
v -2624 -1984 0
v -1600 -2048 0
v -1664 -2048 0
v -1728 -2048 0
v -1792 -2048 0
v -1856 -2048 0
v -1920 -2048 0
v -1984 -2048 0
v -2304 -2048 0
v -2368 -2048 0
v -2432 -2048 0
v -2496 -2048 0
v -2560 -2048 0
v -2624 -2048 0
v -1600 -2112 0
v -1664 -2112 0
v -1728 -2112 0
v -1792 -2112 0
v -1856 -2112 0
v -1920 -2112 0
v -1984 -2112 0
v -2304 -2112 0
v -2368 -2112 0
v -2432 -2112 0
v -2496 -2112 0
v -2560 -2112 0
v -2624 -2112 0
v -1600 -2176 0
v -1664 -2176 0
v -1728 -2176 0
v -1792 -2176 0
v -1856 -2176 0
v -1920 -2176 0
v -1984 -2176 0
v -2304 -2176 0
v -2368 -2176 0
v -2432 -2176 0
v -2496 -2176 0
v -2560 -2176 0
v -2624 -2176 0
v -1600 -2240 0
v -1664 -2240 0
v -1728 -2240 0
v -1792 -2240 0
v -1856 -2240 0
v -1920 -2240 0
v -1984 -2240 0
v -2304 -2240 0
v -2368 -2240 0
v -2432 -2240 0
v -2496 -2240 0
v -2560 -2240 0
v -2624 -2240 0
v -1600 -2304 0
v -1664 -2304 0
v -1728 -2304 0
v -1792 -2304 0
v -1856 -2304 0
v -1920 -2304 0
v -1984 -2304 0
v -2304 -2304 0
v -2368 -2304 0
v -2432 -2304 0
v -2496 -2304 0
v -2560 -2304 0
v -2624 -2304 0

# Texture Coorindates (Count = 52)
vt 0.1251221 0.8126221
vt 0.1873779 0.8126221
vt 0.1873779 0.8748779
vt 0.1251221 0.8748779
vt 0.1876221 0.8126221
vt 0.2498779 0.8126221
vt 0.2498779 0.8748779
vt 0.1876221 0.8748779
vt 0.2501221 0.8126221
vt 0.3123779 0.8126221
vt 0.3123779 0.8748779
vt 0.2501221 0.8748779
vt 0.3751221 0.8126221
vt 0.4373779 0.8126221
vt 0.4373779 0.8748779
vt 0.3751221 0.8748779
vt 0.0001220703 0.8126221
vt 0.06237793 0.8126221
vt 0.06237793 0.8748779
vt 0.0001220703 0.8748779
vt 0.06262207 0.9376221
vt 0.1248779 0.9376221
vt 0.1248779 0.9998779
vt 0.06262207 0.9998779
vt 0.3126221 0.7501221
vt 0.3748779 0.7501221
vt 0.3748779 0.8123779
vt 0.3126221 0.8123779
vt 0.3751221 0.7501221
vt 0.4373779 0.7501221
vt 0.4373779 0.8123779
vt 0.3751221 0.8123779
vt 0.0001220703 0.9376221
vt 0.06237793 0.9376221
vt 0.06237793 0.9998779
vt 0.0001220703 0.9998779
vt 0.2501221 0.7501221
vt 0.3123779 0.7501221
vt 0.3123779 0.8123779
vt 0.2501221 0.8123779
vt 0.1876221 0.7501221
vt 0.2498779 0.7501221
vt 0.2498779 0.8123779
vt 0.1876221 0.8123779
vt 0.5001221 0.7501221
vt 0.5623779 0.7501221
vt 0.5623779 0.8123779
vt 0.5001221 0.8123779
vt 0.5626221 0.7501221
vt 0.6248779 0.7501221
vt 0.6248779 0.8123779
vt 0.5626221 0.8123779

# Normal
vn 0 0 -1

# Groups (Count = 2)
g mesh_[00]_[00]
f  1/1/1  2/2/1  3/3/1  4/4/1 
f  2/1/1  5/2/1  6/3/1  3/4/1 
f  5/1/1  7/2/1  8/3/1  6/4/1 
f  7/5/1  9/6/1  10/7/1  8/8/1 
f  9/1/1  11/2/1  12/3/1  10/4/1 
f  11/1/1  13/2/1  14/3/1  12/4/1 
f  15/1/1  16/2/1  17/3/1  18/4/1 
f  16/1/1  19/2/1  20/3/1  17/4/1 
f  19/9/1  21/10/1  22/11/1  20/12/1 
f  21/9/1  23/10/1  24/11/1  22/12/1 
f  23/1/1  25/2/1  26/3/1  24/4/1 
f  27/13/1  28/14/1  29/15/1  30/16/1 
f  28/13/1  31/14/1  32/15/1  29/16/1 
f  31/13/1  33/14/1  34/15/1  32/16/1 
f  33/13/1  35/14/1  36/15/1  34/16/1 
f  37/17/1  38/18/1  27/19/1  39/20/1 
f  38/17/1  40/18/1  28/19/1  27/20/1 
f  40/17/1  41/18/1  31/19/1  28/20/1 
f  41/17/1  42/18/1  33/19/1  31/20/1 
f  43/17/1  44/18/1  38/19/1  37/20/1 
f  44/17/1  45/18/1  40/19/1  38/20/1 
f  45/17/1  46/18/1  41/19/1  40/20/1 
f  46/17/1  47/18/1  42/19/1  41/20/1 
f  47/17/1  48/18/1  49/19/1  42/20/1 
f  50/17/1  51/18/1  45/19/1  44/20/1 
f  51/17/1  52/18/1  46/19/1  45/20/1 
f  52/17/1  53/18/1  47/19/1  46/20/1 
f  53/17/1  54/18/1  48/19/1  47/20/1 
f  55/17/1  56/18/1  51/19/1  50/20/1 
f  56/17/1  57/18/1  52/19/1  51/20/1 
f  57/17/1  58/18/1  53/19/1  52/20/1 
f  59/17/1  60/18/1  56/19/1  55/20/1 
f  60/17/1  61/18/1  57/19/1  56/20/1 
f  61/17/1  62/18/1  58/19/1  57/20/1 
f  63/17/1  64/18/1  60/19/1  59/20/1 
f  64/17/1  65/18/1  61/19/1  60/20/1 
f  65/17/1  66/18/1  62/19/1  61/20/1 
f  67/17/1  68/18/1  64/19/1  63/20/1 
f  68/17/1  69/18/1  65/19/1  64/20/1 
f  69/17/1  70/18/1  66/19/1  65/20/1 
f  71/17/1  72/18/1  68/19/1  67/20/1 
f  72/17/1  73/18/1  69/19/1  68/20/1 
f  73/17/1  74/18/1  70/19/1  69/20/1 
f  75/17/1  76/18/1  72/19/1  71/20/1 
f  76/17/1  77/18/1  73/19/1  72/20/1 
f  77/17/1  78/18/1  74/19/1  73/20/1 
f  79/17/1  80/18/1  76/19/1  75/20/1 
f  80/17/1  81/18/1  77/19/1  76/20/1 
f  81/17/1  82/18/1  78/19/1  77/20/1 
f  83/17/1  84/18/1  80/19/1  79/20/1 
f  84/17/1  85/18/1  81/19/1  80/20/1 
f  85/17/1  86/18/1  82/19/1  81/20/1 
f  87/17/1  88/18/1  84/19/1  83/20/1 
f  88/17/1  89/18/1  85/19/1  84/20/1 
f  89/17/1  90/18/1  86/19/1  85/20/1 
g mesh_[01]_[00]
f  91/21/1  92/22/1  2/23/1  1/24/1 
f  92/21/1  93/22/1  5/23/1  2/24/1 
f  93/21/1  94/22/1  7/23/1  5/24/1 
f  94/21/1  95/22/1  9/23/1  7/24/1 
f  95/21/1  96/22/1  11/23/1  9/24/1 
f  96/21/1  97/22/1  13/23/1  11/24/1 
f  97/25/1  30/26/1  98/27/1  13/28/1 
f  34/29/1  36/30/1  15/31/1  99/32/1 
f  36/21/1  100/22/1  16/23/1  15/24/1 
f  100/21/1  101/22/1  19/23/1  16/24/1 
f  101/21/1  102/22/1  21/23/1  19/24/1 
f  102/21/1  103/22/1  23/23/1  21/24/1 
f  103/21/1  104/22/1  25/23/1  23/24/1 
f  105/33/1  106/34/1  92/35/1  91/36/1 
f  106/33/1  107/34/1  93/35/1  92/36/1 
f  107/33/1  108/34/1  94/35/1  93/36/1 
f  108/33/1  109/34/1  95/35/1  94/36/1 
f  109/33/1  110/34/1  96/35/1  95/36/1 
f  110/33/1  39/34/1  97/35/1  96/36/1 
f  39/37/1  27/38/1  30/39/1  97/40/1 
f  33/41/1  35/42/1  36/43/1  34/44/1 
f  35/33/1  111/34/1  100/35/1  36/36/1 
f  111/33/1  112/34/1  101/35/1  100/36/1 
f  112/33/1  113/34/1  102/35/1  101/36/1 
f  113/33/1  114/34/1  103/35/1  102/36/1 
f  114/33/1  115/34/1  104/35/1  103/36/1 
f  116/33/1  117/34/1  106/35/1  105/36/1 
f  117/33/1  118/34/1  107/35/1  106/36/1 
f  118/33/1  119/34/1  108/35/1  107/36/1 
f  119/33/1  120/34/1  109/35/1  108/36/1 
f  120/33/1  121/34/1  110/35/1  109/36/1 
f  121/33/1  37/34/1  39/35/1  110/36/1 
f  37/37/1  38/38/1  27/39/1  39/40/1 
f  41/45/1  42/46/1  33/47/1  31/48/1 
f  42/41/1  49/42/1  35/43/1  33/44/1 
f  49/33/1  122/34/1  111/35/1  35/36/1 
f  122/33/1  123/34/1  112/35/1  111/36/1 
f  123/33/1  124/34/1  113/35/1  112/36/1 
f  124/33/1  125/34/1  114/35/1  113/36/1 
f  125/33/1  126/34/1  115/35/1  114/36/1 
f  127/33/1  128/34/1  117/35/1  116/36/1 
f  128/33/1  129/34/1  118/35/1  117/36/1 
f  129/33/1  130/34/1  119/35/1  118/36/1 
f  130/33/1  131/34/1  120/35/1  119/36/1 
f  131/33/1  132/34/1  121/35/1  120/36/1 
f  132/33/1  43/34/1  37/35/1  121/36/1 
f  43/37/1  44/38/1  38/39/1  37/40/1 
f  47/41/1  48/42/1  49/43/1  42/44/1 
f  48/33/1  133/34/1  122/35/1  49/36/1 
f  133/33/1  134/34/1  123/35/1  122/36/1 
f  134/33/1  135/34/1  124/35/1  123/36/1 
f  135/33/1  136/34/1  125/35/1  124/36/1 
f  136/33/1  137/34/1  126/35/1  125/36/1 
f  138/33/1  139/34/1  128/35/1  127/36/1 
f  139/33/1  140/34/1  129/35/1  128/36/1 
f  140/33/1  141/34/1  130/35/1  129/36/1 
f  141/33/1  142/34/1  131/35/1  130/36/1 
f  142/33/1  143/34/1  132/35/1  131/36/1 
f  143/33/1  144/34/1  43/35/1  132/36/1 
f  144/37/1  50/38/1  44/39/1  43/40/1 
f  50/49/1  51/50/1  45/51/1  44/52/1 
f  53/41/1  54/42/1  48/43/1  47/44/1 
f  54/33/1  145/34/1  133/35/1  48/36/1 
f  145/33/1  146/34/1  134/35/1  133/36/1 
f  146/33/1  147/34/1  135/35/1  134/36/1 
f  147/33/1  148/34/1  136/35/1  135/36/1 
f  148/33/1  149/34/1  137/35/1  136/36/1 
f  150/33/1  151/34/1  139/35/1  138/36/1 
f  151/33/1  152/34/1  140/35/1  139/36/1 
f  152/33/1  153/34/1  141/35/1  140/36/1 
f  153/33/1  154/34/1  142/35/1  141/36/1 
f  154/33/1  155/34/1  143/35/1  142/36/1 
f  155/33/1  156/34/1  144/35/1  143/36/1 
f  156/37/1  55/38/1  50/39/1  144/40/1 
f  58/41/1  157/42/1  54/43/1  53/44/1 
f  157/33/1  158/34/1  145/35/1  54/36/1 
f  158/33/1  159/34/1  146/35/1  145/36/1 
f  159/33/1  160/34/1  147/35/1  146/36/1 
f  160/33/1  161/34/1  148/35/1  147/36/1 
f  161/33/1  162/34/1  149/35/1  148/36/1 
f  163/33/1  164/34/1  151/35/1  150/36/1 
f  164/33/1  165/34/1  152/35/1  151/36/1 
f  165/33/1  166/34/1  153/35/1  152/36/1 
f  166/33/1  167/34/1  154/35/1  153/36/1 
f  167/33/1  168/34/1  155/35/1  154/36/1 
f  168/33/1  169/34/1  156/35/1  155/36/1 
f  169/37/1  59/38/1  55/39/1  156/40/1 
f  62/41/1  170/42/1  157/43/1  58/44/1 
f  170/33/1  171/34/1  158/35/1  157/36/1 
f  171/33/1  172/34/1  159/35/1  158/36/1 
f  172/33/1  173/34/1  160/35/1  159/36/1 
f  173/33/1  174/34/1  161/35/1  160/36/1 
f  174/33/1  175/34/1  162/35/1  161/36/1 
f  176/33/1  177/34/1  164/35/1  163/36/1 
f  177/33/1  178/34/1  165/35/1  164/36/1 
f  178/33/1  179/34/1  166/35/1  165/36/1 
f  179/33/1  180/34/1  167/35/1  166/36/1 
f  180/33/1  181/34/1  168/35/1  167/36/1 
f  181/33/1  182/34/1  169/35/1  168/36/1 
f  182/37/1  63/38/1  59/39/1  169/40/1 
f  66/41/1  183/42/1  170/43/1  62/44/1 
f  183/33/1  184/34/1  171/35/1  170/36/1 
f  184/33/1  185/34/1  172/35/1  171/36/1 
f  185/33/1  186/34/1  173/35/1  172/36/1 
f  186/33/1  187/34/1  174/35/1  173/36/1 
f  187/33/1  188/34/1  175/35/1  174/36/1 
f  189/33/1  190/34/1  177/35/1  176/36/1 
f  190/33/1  191/34/1  178/35/1  177/36/1 
f  191/33/1  192/34/1  179/35/1  178/36/1 
f  192/33/1  193/34/1  180/35/1  179/36/1 
f  193/33/1  194/34/1  181/35/1  180/36/1 
f  194/33/1  195/34/1  182/35/1  181/36/1 
f  195/37/1  67/38/1  63/39/1  182/40/1 
f  70/41/1  196/42/1  183/43/1  66/44/1 
f  196/33/1  197/34/1  184/35/1  183/36/1 
f  197/33/1  198/34/1  185/35/1  184/36/1 
f  198/33/1  199/34/1  186/35/1  185/36/1 
f  199/33/1  200/34/1  187/35/1  186/36/1 
f  200/33/1  201/34/1  188/35/1  187/36/1 
f  202/33/1  203/34/1  190/35/1  189/36/1 
f  203/33/1  204/34/1  191/35/1  190/36/1 
f  204/33/1  205/34/1  192/35/1  191/36/1 
f  205/33/1  206/34/1  193/35/1  192/36/1 
f  206/33/1  207/34/1  194/35/1  193/36/1 
f  207/33/1  208/34/1  195/35/1  194/36/1 
f  208/37/1  71/38/1  67/39/1  195/40/1 
f  74/41/1  209/42/1  196/43/1  70/44/1 
f  209/33/1  210/34/1  197/35/1  196/36/1 
f  210/33/1  211/34/1  198/35/1  197/36/1 
f  211/33/1  212/34/1  199/35/1  198/36/1 
f  212/33/1  213/34/1  200/35/1  199/36/1 
f  213/33/1  214/34/1  201/35/1  200/36/1 
f  215/33/1  216/34/1  203/35/1  202/36/1 
f  216/33/1  217/34/1  204/35/1  203/36/1 
f  217/33/1  218/34/1  205/35/1  204/36/1 
f  218/33/1  219/34/1  206/35/1  205/36/1 
f  219/33/1  220/34/1  207/35/1  206/36/1 
f  220/33/1  221/34/1  208/35/1  207/36/1 
f  221/37/1  75/38/1  71/39/1  208/40/1 
f  78/41/1  222/42/1  209/43/1  74/44/1 
f  222/33/1  223/34/1  210/35/1  209/36/1 
f  223/33/1  224/34/1  211/35/1  210/36/1 
f  224/33/1  225/34/1  212/35/1  211/36/1 
f  225/33/1  226/34/1  213/35/1  212/36/1 
f  226/33/1  227/34/1  214/35/1  213/36/1 
f  228/33/1  229/34/1  216/35/1  215/36/1 
f  229/33/1  230/34/1  217/35/1  216/36/1 
f  230/33/1  231/34/1  218/35/1  217/36/1 
f  231/33/1  232/34/1  219/35/1  218/36/1 
f  232/33/1  233/34/1  220/35/1  219/36/1 
f  233/33/1  234/34/1  221/35/1  220/36/1 
f  234/37/1  79/38/1  75/39/1  221/40/1 
f  82/41/1  235/42/1  222/43/1  78/44/1 
f  235/33/1  236/34/1  223/35/1  222/36/1 
f  236/33/1  237/34/1  224/35/1  223/36/1 
f  237/33/1  238/34/1  225/35/1  224/36/1 
f  238/33/1  239/34/1  226/35/1  225/36/1 
f  239/33/1  240/34/1  227/35/1  226/36/1 
f  241/33/1  242/34/1  229/35/1  228/36/1 
f  242/33/1  243/34/1  230/35/1  229/36/1 
f  243/33/1  244/34/1  231/35/1  230/36/1 
f  244/33/1  245/34/1  232/35/1  231/36/1 
f  245/33/1  246/34/1  233/35/1  232/36/1 
f  246/33/1  247/34/1  234/35/1  233/36/1 
f  247/37/1  83/38/1  79/39/1  234/40/1 
f  86/41/1  248/42/1  235/43/1  82/44/1 
f  248/33/1  249/34/1  236/35/1  235/36/1 
f  249/33/1  250/34/1  237/35/1  236/36/1 
f  250/33/1  251/34/1  238/35/1  237/36/1 
f  251/33/1  252/34/1  239/35/1  238/36/1 
f  252/33/1  253/34/1  240/35/1  239/36/1 
f  254/33/1  255/34/1  242/35/1  241/36/1 
f  255/33/1  256/34/1  243/35/1  242/36/1 
f  256/33/1  257/34/1  244/35/1  243/36/1 
f  257/33/1  258/34/1  245/35/1  244/36/1 
f  258/33/1  259/34/1  246/35/1  245/36/1 
f  259/33/1  260/34/1  247/35/1  246/36/1 
f  260/37/1  87/38/1  83/39/1  247/40/1 
f  90/41/1  261/42/1  248/43/1  86/44/1 
f  261/33/1  262/34/1  249/35/1  248/36/1 
f  262/33/1  263/34/1  250/35/1  249/36/1 
f  263/33/1  264/34/1  251/35/1  250/36/1 
f  264/33/1  265/34/1  252/35/1  251/36/1 
f  265/33/1  266/34/1  253/35/1  252/36/1 
