# Wavefront OBJ file automatically generated by Tiled2Unity

# Vertices (Count = 430)
v -3264 -4032 0
v -3328 -4032 0
v -3328 -3968 0
v -3264 -3968 0
v -3392 -4032 0
v -3392 -3968 0
v -3456 -4032 0
v -3456 -3968 0
v -5376 -4032 0
v -5440 -4032 0
v -5440 -3968 0
v -5376 -3968 0
v -5504 -4032 0
v -5504 -3968 0
v -5568 -4032 0
v -5568 -3968 0
v -3264 -4096 0
v -3328 -4096 0
v -3392 -4096 0
v -3456 -4096 0
v -3520 -4096 0
v -3520 -4032 0
v -5312 -4096 0
v -5376 -4096 0
v -5312 -4032 0
v -5440 -4096 0
v -5504 -4096 0
v -5568 -4096 0
v -3264 -4160 0
v -3328 -4160 0
v -3392 -4160 0
v -3456 -4160 0
v -3520 -4160 0
v -3584 -4160 0
v -3584 -4096 0
v -5248 -4160 0
v -5312 -4160 0
v -5248 -4096 0
v -5376 -4160 0
v -5440 -4160 0
v -5504 -4160 0
v -5568 -4160 0
v -3264 -4224 0
v -3328 -4224 0
v -3392 -4224 0
v -3456 -4224 0
v -3520 -4224 0
v -3584 -4224 0
v -3648 -4224 0
v -3648 -4160 0
v -5184 -4224 0
v -5248 -4224 0
v -5184 -4160 0
v -5312 -4224 0
v -5376 -4224 0
v -5440 -4224 0
v -5504 -4224 0
v -5568 -4224 0
v -3264 -4288 0
v -3328 -4288 0
v -3392 -4288 0
v -3456 -4288 0
v -3520 -4288 0
v -3584 -4288 0
v -3648 -4288 0
v -3712 -4288 0
v -3712 -4224 0
v -5120 -4288 0
v -5184 -4288 0
v -5120 -4224 0
v -5248 -4288 0
v -5312 -4288 0
v -5376 -4288 0
v -5440 -4288 0
v -5504 -4288 0
v -5568 -4288 0
v -3264 -4352 0
v -3328 -4352 0
v -3392 -4352 0
v -3456 -4352 0
v -3520 -4352 0
v -3584 -4352 0
v -3648 -4352 0
v -3712 -4352 0
v -3776 -4352 0
v -3776 -4288 0
v -3840 -4352 0
v -3840 -4288 0
v -3904 -4352 0
v -3904 -4288 0
v -3968 -4352 0
v -3968 -4288 0
v -4032 -4352 0
v -4032 -4288 0
v -4096 -4352 0
v -4096 -4288 0
v -4160 -4352 0
v -4160 -4288 0
v -4224 -4352 0
v -4224 -4288 0
v -4288 -4352 0
v -4288 -4288 0
v -4352 -4352 0
v -4352 -4288 0
v -4416 -4352 0
v -4416 -4288 0
v -4480 -4352 0
v -4480 -4288 0
v -4544 -4352 0
v -4544 -4288 0
v -4608 -4352 0
v -4608 -4288 0
v -4672 -4352 0
v -4672 -4288 0
v -4736 -4352 0
v -4736 -4288 0
v -4800 -4352 0
v -4800 -4288 0
v -4864 -4352 0
v -4864 -4288 0
v -4928 -4352 0
v -4928 -4288 0
v -4992 -4352 0
v -4992 -4288 0
v -5056 -4352 0
v -5056 -4288 0
v -5120 -4352 0
v -5184 -4352 0
v -5248 -4352 0
v -5312 -4352 0
v -5376 -4352 0
v -5440 -4352 0
v -5504 -4352 0
v -5568 -4352 0
v -3264 -4416 0
v -3328 -4416 0
v -3392 -4416 0
v -3456 -4416 0
v -3520 -4416 0
v -3584 -4416 0
v -3648 -4416 0
v -3712 -4416 0
v -3776 -4416 0
v -3840 -4416 0
v -3904 -4416 0
v -3968 -4416 0
v -4032 -4416 0
v -4096 -4416 0
v -4160 -4416 0
v -4224 -4416 0
v -4288 -4416 0
v -4352 -4416 0
v -4416 -4416 0
v -4480 -4416 0
v -4544 -4416 0
v -4608 -4416 0
v -4672 -4416 0
v -4736 -4416 0
v -4800 -4416 0
v -4864 -4416 0
v -4928 -4416 0
v -4992 -4416 0
v -5056 -4416 0
v -5120 -4416 0
v -5184 -4416 0
v -5248 -4416 0
v -5312 -4416 0
v -5376 -4416 0
v -5440 -4416 0
v -5504 -4416 0
v -5568 -4416 0
v -3264 -4480 0
v -3328 -4480 0
v -3392 -4480 0
v -3456 -4480 0
v -3520 -4480 0
v -3584 -4480 0
v -3648 -4480 0
v -3712 -4480 0
v -3776 -4480 0
v -3840 -4480 0
v -3904 -4480 0
v -3968 -4480 0
v -4032 -4480 0
v -4096 -4480 0
v -4160 -4480 0
v -4224 -4480 0
v -4288 -4480 0
v -4352 -4480 0
v -4416 -4480 0
v -4480 -4480 0
v -4544 -4480 0
v -4608 -4480 0
v -4672 -4480 0
v -4736 -4480 0
v -4800 -4480 0
v -4864 -4480 0
v -4928 -4480 0
v -4992 -4480 0
v -5056 -4480 0
v -5120 -4480 0
v -5184 -4480 0
v -5248 -4480 0
v -5312 -4480 0
v -5376 -4480 0
v -5440 -4480 0
v -5504 -4480 0
v -5568 -4480 0
v -3264 -4544 0
v -3328 -4544 0
v -3392 -4544 0
v -3456 -4544 0
v -3520 -4544 0
v -3584 -4544 0
v -3648 -4544 0
v -3712 -4544 0
v -3776 -4544 0
v -3840 -4544 0
v -3904 -4544 0
v -3968 -4544 0
v -4032 -4544 0
v -4096 -4544 0
v -4160 -4544 0
v -4224 -4544 0
v -4288 -4544 0
v -4352 -4544 0
v -4416 -4544 0
v -4480 -4544 0
v -4544 -4544 0
v -4608 -4544 0
v -4672 -4544 0
v -4736 -4544 0
v -4800 -4544 0
v -4864 -4544 0
v -4928 -4544 0
v -4992 -4544 0
v -5056 -4544 0
v -5120 -4544 0
v -5184 -4544 0
v -5248 -4544 0
v -5312 -4544 0
v -5376 -4544 0
v -5440 -4544 0
v -5504 -4544 0
v -5568 -4544 0
v -3264 -4608 0
v -3328 -4608 0
v -3392 -4608 0
v -3456 -4608 0
v -3520 -4608 0
v -3584 -4608 0
v -3648 -4608 0
v -3712 -4608 0
v -3776 -4608 0
v -3840 -4608 0
v -3904 -4608 0
v -3968 -4608 0
v -4032 -4608 0
v -4096 -4608 0
v -4160 -4608 0
v -4224 -4608 0
v -4288 -4608 0
v -4352 -4608 0
v -4416 -4608 0
v -4480 -4608 0
v -4544 -4608 0
v -4608 -4608 0
v -4672 -4608 0
v -4736 -4608 0
v -4800 -4608 0
v -4864 -4608 0
v -4928 -4608 0
v -4992 -4608 0
v -5056 -4608 0
v -5120 -4608 0
v -5184 -4608 0
v -5248 -4608 0
v -5312 -4608 0
v -5376 -4608 0
v -5440 -4608 0
v -5504 -4608 0
v -5568 -4608 0
v -3264 -4672 0
v -3328 -4672 0
v -3392 -4672 0
v -3456 -4672 0
v -3520 -4672 0
v -3584 -4672 0
v -3648 -4672 0
v -3712 -4672 0
v -3776 -4672 0
v -3840 -4672 0
v -3904 -4672 0
v -3968 -4672 0
v -4032 -4672 0
v -4096 -4672 0
v -4160 -4672 0
v -4224 -4672 0
v -4288 -4672 0
v -4352 -4672 0
v -4416 -4672 0
v -4480 -4672 0
v -4544 -4672 0
v -4608 -4672 0
v -4672 -4672 0
v -4736 -4672 0
v -4800 -4672 0
v -4864 -4672 0
v -4928 -4672 0
v -4992 -4672 0
v -5056 -4672 0
v -5120 -4672 0
v -5184 -4672 0
v -5248 -4672 0
v -5312 -4672 0
v -5376 -4672 0
v -5440 -4672 0
v -5504 -4672 0
v -5568 -4672 0
v -3264 -4736 0
v -3328 -4736 0
v -3392 -4736 0
v -3456 -4736 0
v -3520 -4736 0
v -3584 -4736 0
v -3648 -4736 0
v -3712 -4736 0
v -3776 -4736 0
v -3840 -4736 0
v -3904 -4736 0
v -3968 -4736 0
v -4032 -4736 0
v -4096 -4736 0
v -4160 -4736 0
v -4224 -4736 0
v -4288 -4736 0
v -4352 -4736 0
v -4416 -4736 0
v -4480 -4736 0
v -4544 -4736 0
v -4608 -4736 0
v -4672 -4736 0
v -4736 -4736 0
v -4800 -4736 0
v -4864 -4736 0
v -4928 -4736 0
v -4992 -4736 0
v -5056 -4736 0
v -5120 -4736 0
v -5184 -4736 0
v -5248 -4736 0
v -5312 -4736 0
v -5376 -4736 0
v -5440 -4736 0
v -5504 -4736 0
v -5568 -4736 0
v -3264 -4800 0
v -3328 -4800 0
v -3392 -4800 0
v -3456 -4800 0
v -3520 -4800 0
v -3584 -4800 0
v -3648 -4800 0
v -3712 -4800 0
v -3776 -4800 0
v -3840 -4800 0
v -3904 -4800 0
v -3968 -4800 0
v -4032 -4800 0
v -4096 -4800 0
v -4160 -4800 0
v -4224 -4800 0
v -4288 -4800 0
v -4352 -4800 0
v -4416 -4800 0
v -4480 -4800 0
v -4544 -4800 0
v -4608 -4800 0
v -4672 -4800 0
v -4736 -4800 0
v -4800 -4800 0
v -4864 -4800 0
v -4928 -4800 0
v -4992 -4800 0
v -5056 -4800 0
v -5120 -4800 0
v -5184 -4800 0
v -5248 -4800 0
v -5312 -4800 0
v -5376 -4800 0
v -5440 -4800 0
v -5504 -4800 0
v -5568 -4800 0
v -3264 -4864 0
v -3328 -4864 0
v -3392 -4864 0
v -3456 -4864 0
v -3520 -4864 0
v -3584 -4864 0
v -3648 -4864 0
v -3712 -4864 0
v -3776 -4864 0
v -3840 -4864 0
v -3904 -4864 0
v -3968 -4864 0
v -4032 -4864 0
v -4096 -4864 0
v -4160 -4864 0
v -4224 -4864 0
v -4288 -4864 0
v -4352 -4864 0
v -4416 -4864 0
v -4480 -4864 0
v -4544 -4864 0
v -4608 -4864 0
v -4672 -4864 0
v -4736 -4864 0
v -4800 -4864 0
v -4864 -4864 0
v -4928 -4864 0
v -4992 -4864 0
v -5056 -4864 0
v -5120 -4864 0
v -5184 -4864 0
v -5248 -4864 0
v -5312 -4864 0
v -5376 -4864 0
v -5440 -4864 0
v -5504 -4864 0
v -5568 -4864 0

# Texture Coorindates (Count = 24)
vt 0.0001220703 0.8751221
vt 0.06237793 0.8751221
vt 0.06237793 0.9373779
vt 0.0001220703 0.9373779
vt 0.3126221 0.8751221
vt 0.3748779 0.8751221
vt 0.3748779 0.9373779
vt 0.3126221 0.9373779
vt 0.3751221 0.8751221
vt 0.4373779 0.8751221
vt 0.4373779 0.9373779
vt 0.3751221 0.9373779
vt 0.06262207 0.8751221
vt 0.1248779 0.8751221
vt 0.1248779 0.9373779
vt 0.06262207 0.9373779
vt 0.4376221 0.6876221
vt 0.4998779 0.6876221
vt 0.4998779 0.7498779
vt 0.4376221 0.7498779
vt 0.3751221 0.6876221
vt 0.4373779 0.6876221
vt 0.4373779 0.7498779
vt 0.3751221 0.7498779

# Normal
vn 0 0 -1

# Groups (Count = 1)
g mesh_[01]_[00]
f  1/1/1  2/2/1  3/3/1  4/4/1 
f  2/1/1  5/2/1  6/3/1  3/4/1 
f  5/5/1  7/6/1  8/7/1  6/8/1 
f  9/9/1  10/10/1  11/11/1  12/12/1 
f  10/1/1  13/2/1  14/3/1  11/4/1 
f  13/1/1  15/2/1  16/3/1  14/4/1 
f  17/13/1  18/14/1  2/15/1  1/16/1 
f  18/13/1  19/14/1  5/15/1  2/16/1 
f  19/17/1  20/18/1  7/19/1  5/20/1 
f  20/5/1  21/6/1  22/7/1  7/8/1 
f  23/9/1  24/10/1  9/11/1  25/12/1 
f  24/21/1  26/22/1  10/23/1  9/24/1 
f  26/13/1  27/14/1  13/15/1  10/16/1 
f  27/13/1  28/14/1  15/15/1  13/16/1 
f  29/13/1  30/14/1  18/15/1  17/16/1 
f  30/13/1  31/14/1  19/15/1  18/16/1 
f  31/13/1  32/14/1  20/15/1  19/16/1 
f  32/17/1  33/18/1  21/19/1  20/20/1 
f  33/5/1  34/6/1  35/7/1  21/8/1 
f  36/9/1  37/10/1  23/11/1  38/12/1 
f  37/21/1  39/22/1  24/23/1  23/24/1 
f  39/13/1  40/14/1  26/15/1  24/16/1 
f  40/13/1  41/14/1  27/15/1  26/16/1 
f  41/13/1  42/14/1  28/15/1  27/16/1 
f  43/13/1  44/14/1  30/15/1  29/16/1 
f  44/13/1  45/14/1  31/15/1  30/16/1 
f  45/13/1  46/14/1  32/15/1  31/16/1 
f  46/13/1  47/14/1  33/15/1  32/16/1 
f  47/17/1  48/18/1  34/19/1  33/20/1 
f  48/5/1  49/6/1  50/7/1  34/8/1 
f  51/9/1  52/10/1  36/11/1  53/12/1 
f  52/21/1  54/22/1  37/23/1  36/24/1 
f  54/13/1  55/14/1  39/15/1  37/16/1 
f  55/13/1  56/14/1  40/15/1  39/16/1 
f  56/13/1  57/14/1  41/15/1  40/16/1 
f  57/13/1  58/14/1  42/15/1  41/16/1 
f  59/13/1  60/14/1  44/15/1  43/16/1 
f  60/13/1  61/14/1  45/15/1  44/16/1 
f  61/13/1  62/14/1  46/15/1  45/16/1 
f  62/13/1  63/14/1  47/15/1  46/16/1 
f  63/13/1  64/14/1  48/15/1  47/16/1 
f  64/17/1  65/18/1  49/19/1  48/20/1 
f  65/5/1  66/6/1  67/7/1  49/8/1 
f  68/9/1  69/10/1  51/11/1  70/12/1 
f  69/21/1  71/22/1  52/23/1  51/24/1 
f  71/13/1  72/14/1  54/15/1  52/16/1 
f  72/13/1  73/14/1  55/15/1  54/16/1 
f  73/13/1  74/14/1  56/15/1  55/16/1 
f  74/13/1  75/14/1  57/15/1  56/16/1 
f  75/13/1  76/14/1  58/15/1  57/16/1 
f  77/13/1  78/14/1  60/15/1  59/16/1 
f  78/13/1  79/14/1  61/15/1  60/16/1 
f  79/13/1  80/14/1  62/15/1  61/16/1 
f  80/13/1  81/14/1  63/15/1  62/16/1 
f  81/13/1  82/14/1  64/15/1  63/16/1 
f  82/13/1  83/14/1  65/15/1  64/16/1 
f  83/17/1  84/18/1  66/19/1  65/20/1 
f  84/1/1  85/2/1  86/3/1  66/4/1 
f  85/1/1  87/2/1  88/3/1  86/4/1 
f  87/1/1  89/2/1  90/3/1  88/4/1 
f  89/1/1  91/2/1  92/3/1  90/4/1 
f  91/1/1  93/2/1  94/3/1  92/4/1 
f  93/1/1  95/2/1  96/3/1  94/4/1 
f  95/1/1  97/2/1  98/3/1  96/4/1 
f  97/1/1  99/2/1  100/3/1  98/4/1 
f  99/1/1  101/2/1  102/3/1  100/4/1 
f  101/1/1  103/2/1  104/3/1  102/4/1 
f  103/1/1  105/2/1  106/3/1  104/4/1 
f  105/1/1  107/2/1  108/3/1  106/4/1 
f  107/1/1  109/2/1  110/3/1  108/4/1 
f  109/1/1  111/2/1  112/3/1  110/4/1 
f  111/1/1  113/2/1  114/3/1  112/4/1 
f  113/1/1  115/2/1  116/3/1  114/4/1 
f  115/1/1  117/2/1  118/3/1  116/4/1 
f  117/1/1  119/2/1  120/3/1  118/4/1 
f  119/1/1  121/2/1  122/3/1  120/4/1 
f  121/1/1  123/2/1  124/3/1  122/4/1 
f  123/1/1  125/2/1  126/3/1  124/4/1 
f  125/1/1  127/2/1  68/3/1  126/4/1 
f  127/21/1  128/22/1  69/23/1  68/24/1 
f  128/13/1  129/14/1  71/15/1  69/16/1 
f  129/13/1  130/14/1  72/15/1  71/16/1 
f  130/13/1  131/14/1  73/15/1  72/16/1 
f  131/13/1  132/14/1  74/15/1  73/16/1 
f  132/13/1  133/14/1  75/15/1  74/16/1 
f  133/13/1  134/14/1  76/15/1  75/16/1 
f  135/13/1  136/14/1  78/15/1  77/16/1 
f  136/13/1  137/14/1  79/15/1  78/16/1 
f  137/13/1  138/14/1  80/15/1  79/16/1 
f  138/13/1  139/14/1  81/15/1  80/16/1 
f  139/13/1  140/14/1  82/15/1  81/16/1 
f  140/13/1  141/14/1  83/15/1  82/16/1 
f  141/13/1  142/14/1  84/15/1  83/16/1 
f  142/13/1  143/14/1  85/15/1  84/16/1 
f  143/13/1  144/14/1  87/15/1  85/16/1 
f  144/13/1  145/14/1  89/15/1  87/16/1 
f  145/13/1  146/14/1  91/15/1  89/16/1 
f  146/13/1  147/14/1  93/15/1  91/16/1 
f  147/13/1  148/14/1  95/15/1  93/16/1 
f  148/13/1  149/14/1  97/15/1  95/16/1 
f  149/13/1  150/14/1  99/15/1  97/16/1 
f  150/13/1  151/14/1  101/15/1  99/16/1 
f  151/13/1  152/14/1  103/15/1  101/16/1 
f  152/13/1  153/14/1  105/15/1  103/16/1 
f  153/13/1  154/14/1  107/15/1  105/16/1 
f  154/13/1  155/14/1  109/15/1  107/16/1 
f  155/13/1  156/14/1  111/15/1  109/16/1 
f  156/13/1  157/14/1  113/15/1  111/16/1 
f  157/13/1  158/14/1  115/15/1  113/16/1 
f  158/13/1  159/14/1  117/15/1  115/16/1 
f  159/13/1  160/14/1  119/15/1  117/16/1 
f  160/13/1  161/14/1  121/15/1  119/16/1 
f  161/13/1  162/14/1  123/15/1  121/16/1 
f  162/13/1  163/14/1  125/15/1  123/16/1 
f  163/13/1  164/14/1  127/15/1  125/16/1 
f  164/13/1  165/14/1  128/15/1  127/16/1 
f  165/13/1  166/14/1  129/15/1  128/16/1 
f  166/13/1  167/14/1  130/15/1  129/16/1 
f  167/13/1  168/14/1  131/15/1  130/16/1 
f  168/13/1  169/14/1  132/15/1  131/16/1 
f  169/13/1  170/14/1  133/15/1  132/16/1 
f  170/13/1  171/14/1  134/15/1  133/16/1 
f  172/13/1  173/14/1  136/15/1  135/16/1 
f  173/13/1  174/14/1  137/15/1  136/16/1 
f  174/13/1  175/14/1  138/15/1  137/16/1 
f  175/13/1  176/14/1  139/15/1  138/16/1 
f  176/13/1  177/14/1  140/15/1  139/16/1 
f  177/13/1  178/14/1  141/15/1  140/16/1 
f  178/13/1  179/14/1  142/15/1  141/16/1 
f  179/13/1  180/14/1  143/15/1  142/16/1 
f  180/13/1  181/14/1  144/15/1  143/16/1 
f  181/13/1  182/14/1  145/15/1  144/16/1 
f  182/13/1  183/14/1  146/15/1  145/16/1 
f  183/13/1  184/14/1  147/15/1  146/16/1 
f  184/13/1  185/14/1  148/15/1  147/16/1 
f  185/13/1  186/14/1  149/15/1  148/16/1 
f  186/13/1  187/14/1  150/15/1  149/16/1 
f  187/13/1  188/14/1  151/15/1  150/16/1 
f  188/13/1  189/14/1  152/15/1  151/16/1 
f  189/13/1  190/14/1  153/15/1  152/16/1 
f  190/13/1  191/14/1  154/15/1  153/16/1 
f  191/13/1  192/14/1  155/15/1  154/16/1 
f  192/13/1  193/14/1  156/15/1  155/16/1 
f  193/13/1  194/14/1  157/15/1  156/16/1 
f  194/13/1  195/14/1  158/15/1  157/16/1 
f  195/13/1  196/14/1  159/15/1  158/16/1 
f  196/13/1  197/14/1  160/15/1  159/16/1 
f  197/13/1  198/14/1  161/15/1  160/16/1 
f  198/13/1  199/14/1  162/15/1  161/16/1 
f  199/13/1  200/14/1  163/15/1  162/16/1 
f  200/13/1  201/14/1  164/15/1  163/16/1 
f  201/13/1  202/14/1  165/15/1  164/16/1 
f  202/13/1  203/14/1  166/15/1  165/16/1 
f  203/13/1  204/14/1  167/15/1  166/16/1 
f  204/13/1  205/14/1  168/15/1  167/16/1 
f  205/13/1  206/14/1  169/15/1  168/16/1 
f  206/13/1  207/14/1  170/15/1  169/16/1 
f  207/13/1  208/14/1  171/15/1  170/16/1 
f  209/13/1  210/14/1  173/15/1  172/16/1 
f  210/13/1  211/14/1  174/15/1  173/16/1 
f  211/13/1  212/14/1  175/15/1  174/16/1 
f  212/13/1  213/14/1  176/15/1  175/16/1 
f  213/13/1  214/14/1  177/15/1  176/16/1 
f  214/13/1  215/14/1  178/15/1  177/16/1 
f  215/13/1  216/14/1  179/15/1  178/16/1 
f  216/13/1  217/14/1  180/15/1  179/16/1 
f  217/13/1  218/14/1  181/15/1  180/16/1 
f  218/13/1  219/14/1  182/15/1  181/16/1 
f  219/13/1  220/14/1  183/15/1  182/16/1 
f  220/13/1  221/14/1  184/15/1  183/16/1 
f  221/13/1  222/14/1  185/15/1  184/16/1 
f  222/13/1  223/14/1  186/15/1  185/16/1 
f  223/13/1  224/14/1  187/15/1  186/16/1 
f  224/13/1  225/14/1  188/15/1  187/16/1 
f  225/13/1  226/14/1  189/15/1  188/16/1 
f  226/13/1  227/14/1  190/15/1  189/16/1 
f  227/13/1  228/14/1  191/15/1  190/16/1 
f  228/13/1  229/14/1  192/15/1  191/16/1 
f  229/13/1  230/14/1  193/15/1  192/16/1 
f  230/13/1  231/14/1  194/15/1  193/16/1 
f  231/13/1  232/14/1  195/15/1  194/16/1 
f  232/13/1  233/14/1  196/15/1  195/16/1 
f  233/13/1  234/14/1  197/15/1  196/16/1 
f  234/13/1  235/14/1  198/15/1  197/16/1 
f  235/13/1  236/14/1  199/15/1  198/16/1 
f  236/13/1  237/14/1  200/15/1  199/16/1 
f  237/13/1  238/14/1  201/15/1  200/16/1 
f  238/13/1  239/14/1  202/15/1  201/16/1 
f  239/13/1  240/14/1  203/15/1  202/16/1 
f  240/13/1  241/14/1  204/15/1  203/16/1 
f  241/13/1  242/14/1  205/15/1  204/16/1 
f  242/13/1  243/14/1  206/15/1  205/16/1 
f  243/13/1  244/14/1  207/15/1  206/16/1 
f  244/13/1  245/14/1  208/15/1  207/16/1 
f  246/13/1  247/14/1  210/15/1  209/16/1 
f  247/13/1  248/14/1  211/15/1  210/16/1 
f  248/13/1  249/14/1  212/15/1  211/16/1 
f  249/13/1  250/14/1  213/15/1  212/16/1 
f  250/13/1  251/14/1  214/15/1  213/16/1 
f  251/13/1  252/14/1  215/15/1  214/16/1 
f  252/13/1  253/14/1  216/15/1  215/16/1 
f  253/13/1  254/14/1  217/15/1  216/16/1 
f  254/13/1  255/14/1  218/15/1  217/16/1 
f  255/13/1  256/14/1  219/15/1  218/16/1 
f  256/13/1  257/14/1  220/15/1  219/16/1 
f  257/13/1  258/14/1  221/15/1  220/16/1 
f  258/13/1  259/14/1  222/15/1  221/16/1 
f  259/13/1  260/14/1  223/15/1  222/16/1 
f  260/13/1  261/14/1  224/15/1  223/16/1 
f  261/13/1  262/14/1  225/15/1  224/16/1 
f  262/13/1  263/14/1  226/15/1  225/16/1 
f  263/13/1  264/14/1  227/15/1  226/16/1 
f  264/13/1  265/14/1  228/15/1  227/16/1 
f  265/13/1  266/14/1  229/15/1  228/16/1 
f  266/13/1  267/14/1  230/15/1  229/16/1 
f  267/13/1  268/14/1  231/15/1  230/16/1 
f  268/13/1  269/14/1  232/15/1  231/16/1 
f  269/13/1  270/14/1  233/15/1  232/16/1 
f  270/13/1  271/14/1  234/15/1  233/16/1 
f  271/13/1  272/14/1  235/15/1  234/16/1 
f  272/13/1  273/14/1  236/15/1  235/16/1 
f  273/13/1  274/14/1  237/15/1  236/16/1 
f  274/13/1  275/14/1  238/15/1  237/16/1 
f  275/13/1  276/14/1  239/15/1  238/16/1 
f  276/13/1  277/14/1  240/15/1  239/16/1 
f  277/13/1  278/14/1  241/15/1  240/16/1 
f  278/13/1  279/14/1  242/15/1  241/16/1 
f  279/13/1  280/14/1  243/15/1  242/16/1 
f  280/13/1  281/14/1  244/15/1  243/16/1 
f  281/13/1  282/14/1  245/15/1  244/16/1 
f  283/13/1  284/14/1  247/15/1  246/16/1 
f  284/13/1  285/14/1  248/15/1  247/16/1 
f  285/13/1  286/14/1  249/15/1  248/16/1 
f  286/13/1  287/14/1  250/15/1  249/16/1 
f  287/13/1  288/14/1  251/15/1  250/16/1 
f  288/13/1  289/14/1  252/15/1  251/16/1 
f  289/13/1  290/14/1  253/15/1  252/16/1 
f  290/13/1  291/14/1  254/15/1  253/16/1 
f  291/13/1  292/14/1  255/15/1  254/16/1 
f  292/13/1  293/14/1  256/15/1  255/16/1 
f  293/13/1  294/14/1  257/15/1  256/16/1 
f  294/13/1  295/14/1  258/15/1  257/16/1 
f  295/13/1  296/14/1  259/15/1  258/16/1 
f  296/13/1  297/14/1  260/15/1  259/16/1 
f  297/13/1  298/14/1  261/15/1  260/16/1 
f  298/13/1  299/14/1  262/15/1  261/16/1 
f  299/13/1  300/14/1  263/15/1  262/16/1 
f  300/13/1  301/14/1  264/15/1  263/16/1 
f  301/13/1  302/14/1  265/15/1  264/16/1 
f  302/13/1  303/14/1  266/15/1  265/16/1 
f  303/13/1  304/14/1  267/15/1  266/16/1 
f  304/13/1  305/14/1  268/15/1  267/16/1 
f  305/13/1  306/14/1  269/15/1  268/16/1 
f  306/13/1  307/14/1  270/15/1  269/16/1 
f  307/13/1  308/14/1  271/15/1  270/16/1 
f  308/13/1  309/14/1  272/15/1  271/16/1 
f  309/13/1  310/14/1  273/15/1  272/16/1 
f  310/13/1  311/14/1  274/15/1  273/16/1 
f  311/13/1  312/14/1  275/15/1  274/16/1 
f  312/13/1  313/14/1  276/15/1  275/16/1 
f  313/13/1  314/14/1  277/15/1  276/16/1 
f  314/13/1  315/14/1  278/15/1  277/16/1 
f  315/13/1  316/14/1  279/15/1  278/16/1 
f  316/13/1  317/14/1  280/15/1  279/16/1 
f  317/13/1  318/14/1  281/15/1  280/16/1 
f  318/13/1  319/14/1  282/15/1  281/16/1 
f  320/13/1  321/14/1  284/15/1  283/16/1 
f  321/13/1  322/14/1  285/15/1  284/16/1 
f  322/13/1  323/14/1  286/15/1  285/16/1 
f  323/13/1  324/14/1  287/15/1  286/16/1 
f  324/13/1  325/14/1  288/15/1  287/16/1 
f  325/13/1  326/14/1  289/15/1  288/16/1 
f  326/13/1  327/14/1  290/15/1  289/16/1 
f  327/13/1  328/14/1  291/15/1  290/16/1 
f  328/13/1  329/14/1  292/15/1  291/16/1 
f  329/13/1  330/14/1  293/15/1  292/16/1 
f  330/13/1  331/14/1  294/15/1  293/16/1 
f  331/13/1  332/14/1  295/15/1  294/16/1 
f  332/13/1  333/14/1  296/15/1  295/16/1 
f  333/13/1  334/14/1  297/15/1  296/16/1 
f  334/13/1  335/14/1  298/15/1  297/16/1 
f  335/13/1  336/14/1  299/15/1  298/16/1 
f  336/13/1  337/14/1  300/15/1  299/16/1 
f  337/13/1  338/14/1  301/15/1  300/16/1 
f  338/13/1  339/14/1  302/15/1  301/16/1 
f  339/13/1  340/14/1  303/15/1  302/16/1 
f  340/13/1  341/14/1  304/15/1  303/16/1 
f  341/13/1  342/14/1  305/15/1  304/16/1 
f  342/13/1  343/14/1  306/15/1  305/16/1 
f  343/13/1  344/14/1  307/15/1  306/16/1 
f  344/13/1  345/14/1  308/15/1  307/16/1 
f  345/13/1  346/14/1  309/15/1  308/16/1 
f  346/13/1  347/14/1  310/15/1  309/16/1 
f  347/13/1  348/14/1  311/15/1  310/16/1 
f  348/13/1  349/14/1  312/15/1  311/16/1 
f  349/13/1  350/14/1  313/15/1  312/16/1 
f  350/13/1  351/14/1  314/15/1  313/16/1 
f  351/13/1  352/14/1  315/15/1  314/16/1 
f  352/13/1  353/14/1  316/15/1  315/16/1 
f  353/13/1  354/14/1  317/15/1  316/16/1 
f  354/13/1  355/14/1  318/15/1  317/16/1 
f  355/13/1  356/14/1  319/15/1  318/16/1 
f  357/13/1  358/14/1  321/15/1  320/16/1 
f  358/13/1  359/14/1  322/15/1  321/16/1 
f  359/13/1  360/14/1  323/15/1  322/16/1 
f  360/13/1  361/14/1  324/15/1  323/16/1 
f  361/13/1  362/14/1  325/15/1  324/16/1 
f  362/13/1  363/14/1  326/15/1  325/16/1 
f  363/13/1  364/14/1  327/15/1  326/16/1 
f  364/13/1  365/14/1  328/15/1  327/16/1 
f  365/13/1  366/14/1  329/15/1  328/16/1 
f  366/13/1  367/14/1  330/15/1  329/16/1 
f  367/13/1  368/14/1  331/15/1  330/16/1 
f  368/13/1  369/14/1  332/15/1  331/16/1 
f  369/13/1  370/14/1  333/15/1  332/16/1 
f  370/13/1  371/14/1  334/15/1  333/16/1 
f  371/13/1  372/14/1  335/15/1  334/16/1 
f  372/13/1  373/14/1  336/15/1  335/16/1 
f  373/13/1  374/14/1  337/15/1  336/16/1 
f  374/13/1  375/14/1  338/15/1  337/16/1 
f  375/13/1  376/14/1  339/15/1  338/16/1 
f  376/13/1  377/14/1  340/15/1  339/16/1 
f  377/13/1  378/14/1  341/15/1  340/16/1 
f  378/13/1  379/14/1  342/15/1  341/16/1 
f  379/13/1  380/14/1  343/15/1  342/16/1 
f  380/13/1  381/14/1  344/15/1  343/16/1 
f  381/13/1  382/14/1  345/15/1  344/16/1 
f  382/13/1  383/14/1  346/15/1  345/16/1 
f  383/13/1  384/14/1  347/15/1  346/16/1 
f  384/13/1  385/14/1  348/15/1  347/16/1 
f  385/13/1  386/14/1  349/15/1  348/16/1 
f  386/13/1  387/14/1  350/15/1  349/16/1 
f  387/13/1  388/14/1  351/15/1  350/16/1 
f  388/13/1  389/14/1  352/15/1  351/16/1 
f  389/13/1  390/14/1  353/15/1  352/16/1 
f  390/13/1  391/14/1  354/15/1  353/16/1 
f  391/13/1  392/14/1  355/15/1  354/16/1 
f  392/13/1  393/14/1  356/15/1  355/16/1 
f  394/13/1  395/14/1  358/15/1  357/16/1 
f  395/13/1  396/14/1  359/15/1  358/16/1 
f  396/13/1  397/14/1  360/15/1  359/16/1 
f  397/13/1  398/14/1  361/15/1  360/16/1 
f  398/13/1  399/14/1  362/15/1  361/16/1 
f  399/13/1  400/14/1  363/15/1  362/16/1 
f  400/13/1  401/14/1  364/15/1  363/16/1 
f  401/13/1  402/14/1  365/15/1  364/16/1 
f  402/13/1  403/14/1  366/15/1  365/16/1 
f  403/13/1  404/14/1  367/15/1  366/16/1 
f  404/13/1  405/14/1  368/15/1  367/16/1 
f  405/13/1  406/14/1  369/15/1  368/16/1 
f  406/13/1  407/14/1  370/15/1  369/16/1 
f  407/13/1  408/14/1  371/15/1  370/16/1 
f  408/13/1  409/14/1  372/15/1  371/16/1 
f  409/13/1  410/14/1  373/15/1  372/16/1 
f  410/13/1  411/14/1  374/15/1  373/16/1 
f  411/13/1  412/14/1  375/15/1  374/16/1 
f  412/13/1  413/14/1  376/15/1  375/16/1 
f  413/13/1  414/14/1  377/15/1  376/16/1 
f  414/13/1  415/14/1  378/15/1  377/16/1 
f  415/13/1  416/14/1  379/15/1  378/16/1 
f  416/13/1  417/14/1  380/15/1  379/16/1 
f  417/13/1  418/14/1  381/15/1  380/16/1 
f  418/13/1  419/14/1  382/15/1  381/16/1 
f  419/13/1  420/14/1  383/15/1  382/16/1 
f  420/13/1  421/14/1  384/15/1  383/16/1 
f  421/13/1  422/14/1  385/15/1  384/16/1 
f  422/13/1  423/14/1  386/15/1  385/16/1 
f  423/13/1  424/14/1  387/15/1  386/16/1 
f  424/13/1  425/14/1  388/15/1  387/16/1 
f  425/13/1  426/14/1  389/15/1  388/16/1 
f  426/13/1  427/14/1  390/15/1  389/16/1 
f  427/13/1  428/14/1  391/15/1  390/16/1 
f  428/13/1  429/14/1  392/15/1  391/16/1 
f  429/13/1  430/14/1  393/15/1  392/16/1 
