# Wavefront OBJ file automatically generated by Tiled2Unity

# Vertices (Count = 361)
v -1536 -1600 0
v -1600 -1600 0
v -1600 -1536 0
v -1536 -1536 0
v -1664 -1600 0
v -1664 -1536 0
v -1728 -1600 0
v -1728 -1536 0
v -1792 -1600 0
v -1792 -1536 0
v -1856 -1600 0
v -1856 -1536 0
v -1920 -1600 0
v -1920 -1536 0
v -1984 -1600 0
v -1984 -1536 0
v -2048 -1600 0
v -2048 -1536 0
v -2112 -1600 0
v -2112 -1536 0
v -2176 -1600 0
v -2176 -1536 0
v -2240 -1600 0
v -2240 -1536 0
v -2304 -1600 0
v -2304 -1536 0
v -2368 -1600 0
v -2368 -1536 0
v -2432 -1600 0
v -2432 -1536 0
v -2496 -1600 0
v -2496 -1536 0
v -2560 -1600 0
v -2560 -1536 0
v -2624 -1600 0
v -2624 -1536 0
v -2688 -1600 0
v -2688 -1536 0
v -1536 -1664 0
v -1600 -1664 0
v -1664 -1664 0
v -1728 -1664 0
v -1792 -1664 0
v -1856 -1664 0
v -1920 -1664 0
v -1984 -1664 0
v -2048 -1664 0
v -2112 -1664 0
v -2176 -1664 0
v -2240 -1664 0
v -2304 -1664 0
v -2368 -1664 0
v -2432 -1664 0
v -2496 -1664 0
v -2560 -1664 0
v -2624 -1664 0
v -2688 -1664 0
v -1536 -1728 0
v -1600 -1728 0
v -1664 -1728 0
v -1728 -1728 0
v -1792 -1728 0
v -1856 -1728 0
v -1920 -1728 0
v -1984 -1728 0
v -2048 -1728 0
v -2112 -1728 0
v -2176 -1728 0
v -2240 -1728 0
v -2304 -1728 0
v -2368 -1728 0
v -2432 -1728 0
v -2496 -1728 0
v -2560 -1728 0
v -2624 -1728 0
v -2688 -1728 0
v -1536 -1792 0
v -1600 -1792 0
v -1664 -1792 0
v -1728 -1792 0
v -1792 -1792 0
v -1856 -1792 0
v -1920 -1792 0
v -1984 -1792 0
v -2048 -1792 0
v -2112 -1792 0
v -2176 -1792 0
v -2240 -1792 0
v -2304 -1792 0
v -2368 -1792 0
v -2432 -1792 0
v -2496 -1792 0
v -2560 -1792 0
v -2624 -1792 0
v -2688 -1792 0
v -1536 -1856 0
v -1600 -1856 0
v -1664 -1856 0
v -1728 -1856 0
v -1792 -1856 0
v -1856 -1856 0
v -1920 -1856 0
v -1984 -1856 0
v -2048 -1856 0
v -2112 -1856 0
v -2176 -1856 0
v -2240 -1856 0
v -2304 -1856 0
v -2368 -1856 0
v -2432 -1856 0
v -2496 -1856 0
v -2560 -1856 0
v -2624 -1856 0
v -2688 -1856 0
v -1536 -1920 0
v -1600 -1920 0
v -1664 -1920 0
v -1728 -1920 0
v -1792 -1920 0
v -1856 -1920 0
v -1920 -1920 0
v -1984 -1920 0
v -2048 -1920 0
v -2112 -1920 0
v -2176 -1920 0
v -2240 -1920 0
v -2304 -1920 0
v -2368 -1920 0
v -2432 -1920 0
v -2496 -1920 0
v -2560 -1920 0
v -2624 -1920 0
v -2688 -1920 0
v -1536 -1984 0
v -1600 -1984 0
v -1664 -1984 0
v -1728 -1984 0
v -1792 -1984 0
v -1856 -1984 0
v -1920 -1984 0
v -1984 -1984 0
v -2048 -1984 0
v -2112 -1984 0
v -2176 -1984 0
v -2240 -1984 0
v -2304 -1984 0
v -2368 -1984 0
v -2432 -1984 0
v -2496 -1984 0
v -2560 -1984 0
v -2624 -1984 0
v -2688 -1984 0
v -1536 -2048 0
v -1600 -2048 0
v -1664 -2048 0
v -1728 -2048 0
v -1792 -2048 0
v -1856 -2048 0
v -1920 -2048 0
v -1984 -2048 0
v -2048 -2048 0
v -2112 -2048 0
v -2176 -2048 0
v -2240 -2048 0
v -2304 -2048 0
v -2368 -2048 0
v -2432 -2048 0
v -2496 -2048 0
v -2560 -2048 0
v -2624 -2048 0
v -2688 -2048 0
v -1536 -2112 0
v -1600 -2112 0
v -1664 -2112 0
v -1728 -2112 0
v -1792 -2112 0
v -1856 -2112 0
v -1920 -2112 0
v -1984 -2112 0
v -2048 -2112 0
v -2112 -2112 0
v -2176 -2112 0
v -2240 -2112 0
v -2304 -2112 0
v -2368 -2112 0
v -2432 -2112 0
v -2496 -2112 0
v -2560 -2112 0
v -2624 -2112 0
v -2688 -2112 0
v -1536 -2176 0
v -1600 -2176 0
v -1664 -2176 0
v -1728 -2176 0
v -1792 -2176 0
v -1856 -2176 0
v -1920 -2176 0
v -1984 -2176 0
v -2048 -2176 0
v -2112 -2176 0
v -2176 -2176 0
v -2240 -2176 0
v -2304 -2176 0
v -2368 -2176 0
v -2432 -2176 0
v -2496 -2176 0
v -2560 -2176 0
v -2624 -2176 0
v -2688 -2176 0
v -1536 -2240 0
v -1600 -2240 0
v -1664 -2240 0
v -1728 -2240 0
v -1792 -2240 0
v -1856 -2240 0
v -1920 -2240 0
v -1984 -2240 0
v -2048 -2240 0
v -2112 -2240 0
v -2176 -2240 0
v -2240 -2240 0
v -2304 -2240 0
v -2368 -2240 0
v -2432 -2240 0
v -2496 -2240 0
v -2560 -2240 0
v -2624 -2240 0
v -2688 -2240 0
v -1536 -2304 0
v -1600 -2304 0
v -1664 -2304 0
v -1728 -2304 0
v -1792 -2304 0
v -1856 -2304 0
v -1920 -2304 0
v -1984 -2304 0
v -2048 -2304 0
v -2112 -2304 0
v -2176 -2304 0
v -2240 -2304 0
v -2304 -2304 0
v -2368 -2304 0
v -2432 -2304 0
v -2496 -2304 0
v -2560 -2304 0
v -2624 -2304 0
v -2688 -2304 0
v -1536 -2368 0
v -1600 -2368 0
v -1664 -2368 0
v -1728 -2368 0
v -1792 -2368 0
v -1856 -2368 0
v -1920 -2368 0
v -1984 -2368 0
v -2048 -2368 0
v -2112 -2368 0
v -2176 -2368 0
v -2240 -2368 0
v -2304 -2368 0
v -2368 -2368 0
v -2432 -2368 0
v -2496 -2368 0
v -2560 -2368 0
v -2624 -2368 0
v -2688 -2368 0
v -1536 -2432 0
v -1600 -2432 0
v -1664 -2432 0
v -1728 -2432 0
v -1792 -2432 0
v -1856 -2432 0
v -1920 -2432 0
v -1984 -2432 0
v -2048 -2432 0
v -2112 -2432 0
v -2176 -2432 0
v -2240 -2432 0
v -2304 -2432 0
v -2368 -2432 0
v -2432 -2432 0
v -2496 -2432 0
v -2560 -2432 0
v -2624 -2432 0
v -2688 -2432 0
v -1536 -2496 0
v -1600 -2496 0
v -1664 -2496 0
v -1728 -2496 0
v -1792 -2496 0
v -1856 -2496 0
v -1920 -2496 0
v -1984 -2496 0
v -2048 -2496 0
v -2112 -2496 0
v -2176 -2496 0
v -2240 -2496 0
v -2304 -2496 0
v -2368 -2496 0
v -2432 -2496 0
v -2496 -2496 0
v -2560 -2496 0
v -2624 -2496 0
v -2688 -2496 0
v -1536 -2560 0
v -1600 -2560 0
v -1664 -2560 0
v -1728 -2560 0
v -1792 -2560 0
v -1856 -2560 0
v -1920 -2560 0
v -1984 -2560 0
v -2048 -2560 0
v -2112 -2560 0
v -2176 -2560 0
v -2240 -2560 0
v -2304 -2560 0
v -2368 -2560 0
v -2432 -2560 0
v -2496 -2560 0
v -2560 -2560 0
v -2624 -2560 0
v -2688 -2560 0
v -1536 -2624 0
v -1600 -2624 0
v -1664 -2624 0
v -1728 -2624 0
v -1792 -2624 0
v -1856 -2624 0
v -1920 -2624 0
v -1984 -2624 0
v -2048 -2624 0
v -2112 -2624 0
v -2176 -2624 0
v -2240 -2624 0
v -2304 -2624 0
v -2368 -2624 0
v -2432 -2624 0
v -2496 -2624 0
v -2560 -2624 0
v -2624 -2624 0
v -2688 -2624 0
v -1536 -2688 0
v -1600 -2688 0
v -1664 -2688 0
v -1728 -2688 0
v -1792 -2688 0
v -1856 -2688 0
v -1920 -2688 0
v -1984 -2688 0
v -2048 -2688 0
v -2112 -2688 0
v -2176 -2688 0
v -2240 -2688 0
v -2304 -2688 0
v -2368 -2688 0
v -2432 -2688 0
v -2496 -2688 0
v -2560 -2688 0
v -2624 -2688 0
v -2688 -2688 0

# Texture Coorindates (Count = 16)
vt 0.0001220703 0.5626221
vt 0.06237793 0.5626221
vt 0.06237793 0.6248779
vt 0.0001220703 0.6248779
vt 0.2501221 0.5626221
vt 0.3123779 0.5626221
vt 0.3123779 0.6248779
vt 0.2501221 0.6248779
vt 0.8751221 0.8126221
vt 0.9373779 0.8126221
vt 0.9373779 0.8748779
vt 0.8751221 0.8748779
vt 0.06262207 0.5626221
vt 0.1248779 0.5626221
vt 0.1248779 0.6248779
vt 0.06262207 0.6248779

# Normal
vn 0 0 -1

# Groups (Count = 1)
g mesh_[00]_[00]
f  1/1/1  2/2/1  3/3/1  4/4/1 
f  2/1/1  5/2/1  6/3/1  3/4/1 
f  5/1/1  7/2/1  8/3/1  6/4/1 
f  7/1/1  9/2/1  10/3/1  8/4/1 
f  9/1/1  11/2/1  12/3/1  10/4/1 
f  11/1/1  13/2/1  14/3/1  12/4/1 
f  13/1/1  15/2/1  16/3/1  14/4/1 
f  15/1/1  17/2/1  18/3/1  16/4/1 
f  17/1/1  19/2/1  20/3/1  18/4/1 
f  19/1/1  21/2/1  22/3/1  20/4/1 
f  21/1/1  23/2/1  24/3/1  22/4/1 
f  23/1/1  25/2/1  26/3/1  24/4/1 
f  25/1/1  27/2/1  28/3/1  26/4/1 
f  27/1/1  29/2/1  30/3/1  28/4/1 
f  29/1/1  31/2/1  32/3/1  30/4/1 
f  31/1/1  33/2/1  34/3/1  32/4/1 
f  33/1/1  35/2/1  36/3/1  34/4/1 
f  35/1/1  37/2/1  38/3/1  36/4/1 
f  39/1/1  40/2/1  2/3/1  1/4/1 
f  40/1/1  41/2/1  5/3/1  2/4/1 
f  41/1/1  42/2/1  7/3/1  5/4/1 
f  42/1/1  43/2/1  9/3/1  7/4/1 
f  43/1/1  44/2/1  11/3/1  9/4/1 
f  44/1/1  45/2/1  13/3/1  11/4/1 
f  45/1/1  46/2/1  15/3/1  13/4/1 
f  46/1/1  47/2/1  17/3/1  15/4/1 
f  47/1/1  48/2/1  19/3/1  17/4/1 
f  48/1/1  49/2/1  21/3/1  19/4/1 
f  49/1/1  50/2/1  23/3/1  21/4/1 
f  50/1/1  51/2/1  25/3/1  23/4/1 
f  51/1/1  52/2/1  27/3/1  25/4/1 
f  52/1/1  53/2/1  29/3/1  27/4/1 
f  53/1/1  54/2/1  31/3/1  29/4/1 
f  54/1/1  55/2/1  33/3/1  31/4/1 
f  55/1/1  56/2/1  35/3/1  33/4/1 
f  56/1/1  57/2/1  37/3/1  35/4/1 
f  58/1/1  59/2/1  40/3/1  39/4/1 
f  59/1/1  60/2/1  41/3/1  40/4/1 
f  60/1/1  61/2/1  42/3/1  41/4/1 
f  61/1/1  62/2/1  43/3/1  42/4/1 
f  62/1/1  63/2/1  44/3/1  43/4/1 
f  63/1/1  64/2/1  45/3/1  44/4/1 
f  64/1/1  65/2/1  46/3/1  45/4/1 
f  65/1/1  66/2/1  47/3/1  46/4/1 
f  66/1/1  67/2/1  48/3/1  47/4/1 
f  67/1/1  68/2/1  49/3/1  48/4/1 
f  68/1/1  69/2/1  50/3/1  49/4/1 
f  69/1/1  70/2/1  51/3/1  50/4/1 
f  70/1/1  71/2/1  52/3/1  51/4/1 
f  71/1/1  72/2/1  53/3/1  52/4/1 
f  72/1/1  73/2/1  54/3/1  53/4/1 
f  73/1/1  74/2/1  55/3/1  54/4/1 
f  74/1/1  75/2/1  56/3/1  55/4/1 
f  75/1/1  76/2/1  57/3/1  56/4/1 
f  77/5/1  78/6/1  59/7/1  58/8/1 
f  78/5/1  79/6/1  60/7/1  59/8/1 
f  79/5/1  80/6/1  61/7/1  60/8/1 
f  80/5/1  81/6/1  62/7/1  61/8/1 
f  81/5/1  82/6/1  63/7/1  62/8/1 
f  82/5/1  83/6/1  64/7/1  63/8/1 
f  83/5/1  84/6/1  65/7/1  64/8/1 
f  84/5/1  85/6/1  66/7/1  65/8/1 
f  85/5/1  86/6/1  67/7/1  66/8/1 
f  86/5/1  87/6/1  68/7/1  67/8/1 
f  87/5/1  88/6/1  69/7/1  68/8/1 
f  88/5/1  89/6/1  70/7/1  69/8/1 
f  89/5/1  90/6/1  71/7/1  70/8/1 
f  90/5/1  91/6/1  72/7/1  71/8/1 
f  91/5/1  92/6/1  73/7/1  72/8/1 
f  92/5/1  93/6/1  74/7/1  73/8/1 
f  93/5/1  94/6/1  75/7/1  74/8/1 
f  94/5/1  95/6/1  76/7/1  75/8/1 
f  96/9/1  97/10/1  78/11/1  77/12/1 
f  97/9/1  98/10/1  79/11/1  78/12/1 
f  98/9/1  99/10/1  80/11/1  79/12/1 
f  99/9/1  100/10/1  81/11/1  80/12/1 
f  100/9/1  101/10/1  82/11/1  81/12/1 
f  101/9/1  102/10/1  83/11/1  82/12/1 
f  102/9/1  103/10/1  84/11/1  83/12/1 
f  103/9/1  104/10/1  85/11/1  84/12/1 
f  104/9/1  105/10/1  86/11/1  85/12/1 
f  105/9/1  106/10/1  87/11/1  86/12/1 
f  106/9/1  107/10/1  88/11/1  87/12/1 
f  107/9/1  108/10/1  89/11/1  88/12/1 
f  108/9/1  109/10/1  90/11/1  89/12/1 
f  109/9/1  110/10/1  91/11/1  90/12/1 
f  110/9/1  111/10/1  92/11/1  91/12/1 
f  111/9/1  112/10/1  93/11/1  92/12/1 
f  112/9/1  113/10/1  94/11/1  93/12/1 
f  113/9/1  114/10/1  95/11/1  94/12/1 
f  115/9/1  116/10/1  97/11/1  96/12/1 
f  116/9/1  117/10/1  98/11/1  97/12/1 
f  117/9/1  118/10/1  99/11/1  98/12/1 
f  118/9/1  119/10/1  100/11/1  99/12/1 
f  119/9/1  120/10/1  101/11/1  100/12/1 
f  120/9/1  121/10/1  102/11/1  101/12/1 
f  121/9/1  122/10/1  103/11/1  102/12/1 
f  122/9/1  123/10/1  104/11/1  103/12/1 
f  123/9/1  124/10/1  105/11/1  104/12/1 
f  124/9/1  125/10/1  106/11/1  105/12/1 
f  125/9/1  126/10/1  107/11/1  106/12/1 
f  126/9/1  127/10/1  108/11/1  107/12/1 
f  127/9/1  128/10/1  109/11/1  108/12/1 
f  128/9/1  129/10/1  110/11/1  109/12/1 
f  129/9/1  130/10/1  111/11/1  110/12/1 
f  130/9/1  131/10/1  112/11/1  111/12/1 
f  131/9/1  132/10/1  113/11/1  112/12/1 
f  132/9/1  133/10/1  114/11/1  113/12/1 
f  134/9/1  135/10/1  116/11/1  115/12/1 
f  135/9/1  136/10/1  117/11/1  116/12/1 
f  136/9/1  137/10/1  118/11/1  117/12/1 
f  137/9/1  138/10/1  119/11/1  118/12/1 
f  138/9/1  139/10/1  120/11/1  119/12/1 
f  139/9/1  140/10/1  121/11/1  120/12/1 
f  140/9/1  141/10/1  122/11/1  121/12/1 
f  141/9/1  142/10/1  123/11/1  122/12/1 
f  142/9/1  143/10/1  124/11/1  123/12/1 
f  143/9/1  144/10/1  125/11/1  124/12/1 
f  144/9/1  145/10/1  126/11/1  125/12/1 
f  145/9/1  146/10/1  127/11/1  126/12/1 
f  146/9/1  147/10/1  128/11/1  127/12/1 
f  147/9/1  148/10/1  129/11/1  128/12/1 
f  148/9/1  149/10/1  130/11/1  129/12/1 
f  149/9/1  150/10/1  131/11/1  130/12/1 
f  150/9/1  151/10/1  132/11/1  131/12/1 
f  151/9/1  152/10/1  133/11/1  132/12/1 
f  153/9/1  154/10/1  135/11/1  134/12/1 
f  154/9/1  155/10/1  136/11/1  135/12/1 
f  155/9/1  156/10/1  137/11/1  136/12/1 
f  156/9/1  157/10/1  138/11/1  137/12/1 
f  157/9/1  158/10/1  139/11/1  138/12/1 
f  158/9/1  159/10/1  140/11/1  139/12/1 
f  159/9/1  160/10/1  141/11/1  140/12/1 
f  160/9/1  161/10/1  142/11/1  141/12/1 
f  161/9/1  162/10/1  143/11/1  142/12/1 
f  162/9/1  163/10/1  144/11/1  143/12/1 
f  163/9/1  164/10/1  145/11/1  144/12/1 
f  164/9/1  165/10/1  146/11/1  145/12/1 
f  165/9/1  166/10/1  147/11/1  146/12/1 
f  166/9/1  167/10/1  148/11/1  147/12/1 
f  167/9/1  168/10/1  149/11/1  148/12/1 
f  168/9/1  169/10/1  150/11/1  149/12/1 
f  169/9/1  170/10/1  151/11/1  150/12/1 
f  170/9/1  171/10/1  152/11/1  151/12/1 
f  172/9/1  173/10/1  154/11/1  153/12/1 
f  173/9/1  174/10/1  155/11/1  154/12/1 
f  174/9/1  175/10/1  156/11/1  155/12/1 
f  175/9/1  176/10/1  157/11/1  156/12/1 
f  176/9/1  177/10/1  158/11/1  157/12/1 
f  177/9/1  178/10/1  159/11/1  158/12/1 
f  178/9/1  179/10/1  160/11/1  159/12/1 
f  179/9/1  180/10/1  161/11/1  160/12/1 
f  180/9/1  181/10/1  162/11/1  161/12/1 
f  181/9/1  182/10/1  163/11/1  162/12/1 
f  182/9/1  183/10/1  164/11/1  163/12/1 
f  183/9/1  184/10/1  165/11/1  164/12/1 
f  184/9/1  185/10/1  166/11/1  165/12/1 
f  185/9/1  186/10/1  167/11/1  166/12/1 
f  186/9/1  187/10/1  168/11/1  167/12/1 
f  187/9/1  188/10/1  169/11/1  168/12/1 
f  188/9/1  189/10/1  170/11/1  169/12/1 
f  189/9/1  190/10/1  171/11/1  170/12/1 
f  191/9/1  192/10/1  173/11/1  172/12/1 
f  192/9/1  193/10/1  174/11/1  173/12/1 
f  193/9/1  194/10/1  175/11/1  174/12/1 
f  194/9/1  195/10/1  176/11/1  175/12/1 
f  195/9/1  196/10/1  177/11/1  176/12/1 
f  196/9/1  197/10/1  178/11/1  177/12/1 
f  197/9/1  198/10/1  179/11/1  178/12/1 
f  198/9/1  199/10/1  180/11/1  179/12/1 
f  199/9/1  200/10/1  181/11/1  180/12/1 
f  200/9/1  201/10/1  182/11/1  181/12/1 
f  201/9/1  202/10/1  183/11/1  182/12/1 
f  202/9/1  203/10/1  184/11/1  183/12/1 
f  203/9/1  204/10/1  185/11/1  184/12/1 
f  204/9/1  205/10/1  186/11/1  185/12/1 
f  205/9/1  206/10/1  187/11/1  186/12/1 
f  206/9/1  207/10/1  188/11/1  187/12/1 
f  207/9/1  208/10/1  189/11/1  188/12/1 
f  208/9/1  209/10/1  190/11/1  189/12/1 
f  210/9/1  211/10/1  192/11/1  191/12/1 
f  211/9/1  212/10/1  193/11/1  192/12/1 
f  212/9/1  213/10/1  194/11/1  193/12/1 
f  213/9/1  214/10/1  195/11/1  194/12/1 
f  214/9/1  215/10/1  196/11/1  195/12/1 
f  215/9/1  216/10/1  197/11/1  196/12/1 
f  216/9/1  217/10/1  198/11/1  197/12/1 
f  217/9/1  218/10/1  199/11/1  198/12/1 
f  218/9/1  219/10/1  200/11/1  199/12/1 
f  219/9/1  220/10/1  201/11/1  200/12/1 
f  220/9/1  221/10/1  202/11/1  201/12/1 
f  221/9/1  222/10/1  203/11/1  202/12/1 
f  222/9/1  223/10/1  204/11/1  203/12/1 
f  223/9/1  224/10/1  205/11/1  204/12/1 
f  224/9/1  225/10/1  206/11/1  205/12/1 
f  225/9/1  226/10/1  207/11/1  206/12/1 
f  226/9/1  227/10/1  208/11/1  207/12/1 
f  227/9/1  228/10/1  209/11/1  208/12/1 
f  229/9/1  230/10/1  211/11/1  210/12/1 
f  230/9/1  231/10/1  212/11/1  211/12/1 
f  231/9/1  232/10/1  213/11/1  212/12/1 
f  232/9/1  233/10/1  214/11/1  213/12/1 
f  233/9/1  234/10/1  215/11/1  214/12/1 
f  234/9/1  235/10/1  216/11/1  215/12/1 
f  235/9/1  236/10/1  217/11/1  216/12/1 
f  236/9/1  237/10/1  218/11/1  217/12/1 
f  237/9/1  238/10/1  219/11/1  218/12/1 
f  238/9/1  239/10/1  220/11/1  219/12/1 
f  239/9/1  240/10/1  221/11/1  220/12/1 
f  240/9/1  241/10/1  222/11/1  221/12/1 
f  241/9/1  242/10/1  223/11/1  222/12/1 
f  242/9/1  243/10/1  224/11/1  223/12/1 
f  243/9/1  244/10/1  225/11/1  224/12/1 
f  244/9/1  245/10/1  226/11/1  225/12/1 
f  245/9/1  246/10/1  227/11/1  226/12/1 
f  246/9/1  247/10/1  228/11/1  227/12/1 
f  248/9/1  249/10/1  230/11/1  229/12/1 
f  249/9/1  250/10/1  231/11/1  230/12/1 
f  250/9/1  251/10/1  232/11/1  231/12/1 
f  251/9/1  252/10/1  233/11/1  232/12/1 
f  252/9/1  253/10/1  234/11/1  233/12/1 
f  253/9/1  254/10/1  235/11/1  234/12/1 
f  254/9/1  255/10/1  236/11/1  235/12/1 
f  255/9/1  256/10/1  237/11/1  236/12/1 
f  256/9/1  257/10/1  238/11/1  237/12/1 
f  257/9/1  258/10/1  239/11/1  238/12/1 
f  258/9/1  259/10/1  240/11/1  239/12/1 
f  259/9/1  260/10/1  241/11/1  240/12/1 
f  260/9/1  261/10/1  242/11/1  241/12/1 
f  261/9/1  262/10/1  243/11/1  242/12/1 
f  262/9/1  263/10/1  244/11/1  243/12/1 
f  263/9/1  264/10/1  245/11/1  244/12/1 
f  264/9/1  265/10/1  246/11/1  245/12/1 
f  265/9/1  266/10/1  247/11/1  246/12/1 
f  267/9/1  268/10/1  249/11/1  248/12/1 
f  268/9/1  269/10/1  250/11/1  249/12/1 
f  269/9/1  270/10/1  251/11/1  250/12/1 
f  270/9/1  271/10/1  252/11/1  251/12/1 
f  271/9/1  272/10/1  253/11/1  252/12/1 
f  272/9/1  273/10/1  254/11/1  253/12/1 
f  273/9/1  274/10/1  255/11/1  254/12/1 
f  274/9/1  275/10/1  256/11/1  255/12/1 
f  275/9/1  276/10/1  257/11/1  256/12/1 
f  276/9/1  277/10/1  258/11/1  257/12/1 
f  277/9/1  278/10/1  259/11/1  258/12/1 
f  278/9/1  279/10/1  260/11/1  259/12/1 
f  279/9/1  280/10/1  261/11/1  260/12/1 
f  280/9/1  281/10/1  262/11/1  261/12/1 
f  281/9/1  282/10/1  263/11/1  262/12/1 
f  282/9/1  283/10/1  264/11/1  263/12/1 
f  283/9/1  284/10/1  265/11/1  264/12/1 
f  284/9/1  285/10/1  266/11/1  265/12/1 
f  286/13/1  287/14/1  268/15/1  267/16/1 
f  287/13/1  288/14/1  269/15/1  268/16/1 
f  288/13/1  289/14/1  270/15/1  269/16/1 
f  289/13/1  290/14/1  271/15/1  270/16/1 
f  290/13/1  291/14/1  272/15/1  271/16/1 
f  291/13/1  292/14/1  273/15/1  272/16/1 
f  292/13/1  293/14/1  274/15/1  273/16/1 
f  293/13/1  294/14/1  275/15/1  274/16/1 
f  294/13/1  295/14/1  276/15/1  275/16/1 
f  295/13/1  296/14/1  277/15/1  276/16/1 
f  296/13/1  297/14/1  278/15/1  277/16/1 
f  297/13/1  298/14/1  279/15/1  278/16/1 
f  298/13/1  299/14/1  280/15/1  279/16/1 
f  299/13/1  300/14/1  281/15/1  280/16/1 
f  300/13/1  301/14/1  282/15/1  281/16/1 
f  301/13/1  302/14/1  283/15/1  282/16/1 
f  302/13/1  303/14/1  284/15/1  283/16/1 
f  303/13/1  304/14/1  285/15/1  284/16/1 
f  305/1/1  306/2/1  287/3/1  286/4/1 
f  306/1/1  307/2/1  288/3/1  287/4/1 
f  307/1/1  308/2/1  289/3/1  288/4/1 
f  308/1/1  309/2/1  290/3/1  289/4/1 
f  309/1/1  310/2/1  291/3/1  290/4/1 
f  310/1/1  311/2/1  292/3/1  291/4/1 
f  311/1/1  312/2/1  293/3/1  292/4/1 
f  312/1/1  313/2/1  294/3/1  293/4/1 
f  313/1/1  314/2/1  295/3/1  294/4/1 
f  314/1/1  315/2/1  296/3/1  295/4/1 
f  315/1/1  316/2/1  297/3/1  296/4/1 
f  316/1/1  317/2/1  298/3/1  297/4/1 
f  317/1/1  318/2/1  299/3/1  298/4/1 
f  318/1/1  319/2/1  300/3/1  299/4/1 
f  319/1/1  320/2/1  301/3/1  300/4/1 
f  320/1/1  321/2/1  302/3/1  301/4/1 
f  321/1/1  322/2/1  303/3/1  302/4/1 
f  322/1/1  323/2/1  304/3/1  303/4/1 
f  324/1/1  325/2/1  306/3/1  305/4/1 
f  325/1/1  326/2/1  307/3/1  306/4/1 
f  326/1/1  327/2/1  308/3/1  307/4/1 
f  327/1/1  328/2/1  309/3/1  308/4/1 
f  328/1/1  329/2/1  310/3/1  309/4/1 
f  329/1/1  330/2/1  311/3/1  310/4/1 
f  330/1/1  331/2/1  312/3/1  311/4/1 
f  331/1/1  332/2/1  313/3/1  312/4/1 
f  332/1/1  333/2/1  314/3/1  313/4/1 
f  333/1/1  334/2/1  315/3/1  314/4/1 
f  334/1/1  335/2/1  316/3/1  315/4/1 
f  335/1/1  336/2/1  317/3/1  316/4/1 
f  336/1/1  337/2/1  318/3/1  317/4/1 
f  337/1/1  338/2/1  319/3/1  318/4/1 
f  338/1/1  339/2/1  320/3/1  319/4/1 
f  339/1/1  340/2/1  321/3/1  320/4/1 
f  340/1/1  341/2/1  322/3/1  321/4/1 
f  341/1/1  342/2/1  323/3/1  322/4/1 
f  343/1/1  344/2/1  325/3/1  324/4/1 
f  344/1/1  345/2/1  326/3/1  325/4/1 
f  345/1/1  346/2/1  327/3/1  326/4/1 
f  346/1/1  347/2/1  328/3/1  327/4/1 
f  347/1/1  348/2/1  329/3/1  328/4/1 
f  348/1/1  349/2/1  330/3/1  329/4/1 
f  349/1/1  350/2/1  331/3/1  330/4/1 
f  350/1/1  351/2/1  332/3/1  331/4/1 
f  351/1/1  352/2/1  333/3/1  332/4/1 
f  352/1/1  353/2/1  334/3/1  333/4/1 
f  353/1/1  354/2/1  335/3/1  334/4/1 
f  354/1/1  355/2/1  336/3/1  335/4/1 
f  355/1/1  356/2/1  337/3/1  336/4/1 
f  356/1/1  357/2/1  338/3/1  337/4/1 
f  357/1/1  358/2/1  339/3/1  338/4/1 
f  358/1/1  359/2/1  340/3/1  339/4/1 
f  359/1/1  360/2/1  341/3/1  340/4/1 
f  360/1/1  361/2/1  342/3/1  341/4/1 
