# Wavefront OBJ file automatically generated by Tiled2Unity

# Vertices (Count = 361)
v -1536 -1600 0
v -1600 -1600 0
v -1600 -1536 0
v -1536 -1536 0
v -1664 -1600 0
v -1664 -1536 0
v -1728 -1600 0
v -1728 -1536 0
v -1792 -1600 0
v -1792 -1536 0
v -1856 -1600 0
v -1856 -1536 0
v -1920 -1600 0
v -1920 -1536 0
v -1984 -1600 0
v -1984 -1536 0
v -2048 -1600 0
v -2048 -1536 0
v -2112 -1600 0
v -2112 -1536 0
v -2176 -1600 0
v -2176 -1536 0
v -2240 -1600 0
v -2240 -1536 0
v -2304 -1600 0
v -2304 -1536 0
v -2368 -1600 0
v -2368 -1536 0
v -2432 -1600 0
v -2432 -1536 0
v -2496 -1600 0
v -2496 -1536 0
v -2560 -1600 0
v -2560 -1536 0
v -2624 -1600 0
v -2624 -1536 0
v -2688 -1600 0
v -2688 -1536 0
v -1536 -1664 0
v -1600 -1664 0
v -1664 -1664 0
v -1728 -1664 0
v -1792 -1664 0
v -1856 -1664 0
v -1920 -1664 0
v -1984 -1664 0
v -2048 -1664 0
v -2112 -1664 0
v -2176 -1664 0
v -2240 -1664 0
v -2304 -1664 0
v -2368 -1664 0
v -2432 -1664 0
v -2496 -1664 0
v -2560 -1664 0
v -2624 -1664 0
v -2688 -1664 0
v -1536 -1728 0
v -1600 -1728 0
v -1664 -1728 0
v -1728 -1728 0
v -1792 -1728 0
v -1856 -1728 0
v -1920 -1728 0
v -1984 -1728 0
v -2048 -1728 0
v -2112 -1728 0
v -2176 -1728 0
v -2240 -1728 0
v -2304 -1728 0
v -2368 -1728 0
v -2432 -1728 0
v -2496 -1728 0
v -2560 -1728 0
v -2624 -1728 0
v -2688 -1728 0
v -1536 -1792 0
v -1600 -1792 0
v -1664 -1792 0
v -1728 -1792 0
v -1792 -1792 0
v -1856 -1792 0
v -1920 -1792 0
v -1984 -1792 0
v -2048 -1792 0
v -2112 -1792 0
v -2176 -1792 0
v -2240 -1792 0
v -2304 -1792 0
v -2368 -1792 0
v -2432 -1792 0
v -2496 -1792 0
v -2560 -1792 0
v -2624 -1792 0
v -2688 -1792 0
v -1536 -2496 0
v -1600 -2496 0
v -1600 -2432 0
v -1536 -2432 0
v -1664 -2496 0
v -1664 -2432 0
v -1728 -2496 0
v -1728 -2432 0
v -1792 -2496 0
v -1792 -2432 0
v -1856 -2496 0
v -1856 -2432 0
v -1920 -2496 0
v -1920 -2432 0
v -1984 -2496 0
v -1984 -2432 0
v -2048 -2496 0
v -2048 -2432 0
v -2112 -2496 0
v -2112 -2432 0
v -2176 -2496 0
v -2176 -2432 0
v -2240 -2496 0
v -2240 -2432 0
v -2304 -2496 0
v -2304 -2432 0
v -2368 -2496 0
v -2368 -2432 0
v -2432 -2496 0
v -2432 -2432 0
v -2496 -2496 0
v -2496 -2432 0
v -2560 -2496 0
v -2560 -2432 0
v -2624 -2496 0
v -2624 -2432 0
v -2688 -2496 0
v -2688 -2432 0
v -1536 -2560 0
v -1600 -2560 0
v -1664 -2560 0
v -1728 -2560 0
v -1792 -2560 0
v -1856 -2560 0
v -1920 -2560 0
v -1984 -2560 0
v -2048 -2560 0
v -2112 -2560 0
v -2176 -2560 0
v -2240 -2560 0
v -2304 -2560 0
v -2368 -2560 0
v -2432 -2560 0
v -2496 -2560 0
v -2560 -2560 0
v -2624 -2560 0
v -2688 -2560 0
v -1536 -2624 0
v -1600 -2624 0
v -1664 -2624 0
v -1728 -2624 0
v -1792 -2624 0
v -1856 -2624 0
v -1920 -2624 0
v -1984 -2624 0
v -2048 -2624 0
v -2112 -2624 0
v -2176 -2624 0
v -2240 -2624 0
v -2304 -2624 0
v -2368 -2624 0
v -2432 -2624 0
v -2496 -2624 0
v -2560 -2624 0
v -2624 -2624 0
v -2688 -2624 0
v -1536 -2688 0
v -1600 -2688 0
v -1664 -2688 0
v -1728 -2688 0
v -1792 -2688 0
v -1856 -2688 0
v -1920 -2688 0
v -1984 -2688 0
v -2048 -2688 0
v -2112 -2688 0
v -2176 -2688 0
v -2240 -2688 0
v -2304 -2688 0
v -2368 -2688 0
v -2432 -2688 0
v -2496 -2688 0
v -2560 -2688 0
v -2624 -2688 0
v -2688 -2688 0
v -1536 -1856 0
v -1600 -1856 0
v -1664 -1856 0
v -1728 -1856 0
v -1792 -1856 0
v -1856 -1856 0
v -1920 -1856 0
v -1984 -1856 0
v -2048 -1856 0
v -2112 -1856 0
v -2176 -1856 0
v -2240 -1856 0
v -2304 -1856 0
v -2368 -1856 0
v -2432 -1856 0
v -2496 -1856 0
v -2560 -1856 0
v -2624 -1856 0
v -2688 -1856 0
v -1536 -1920 0
v -1600 -1920 0
v -1664 -1920 0
v -1728 -1920 0
v -1792 -1920 0
v -1856 -1920 0
v -1920 -1920 0
v -1984 -1920 0
v -2048 -1920 0
v -2112 -1920 0
v -2176 -1920 0
v -2240 -1920 0
v -2304 -1920 0
v -2368 -1920 0
v -2432 -1920 0
v -2496 -1920 0
v -2560 -1920 0
v -2624 -1920 0
v -2688 -1920 0
v -1536 -1984 0
v -1600 -1984 0
v -1664 -1984 0
v -1728 -1984 0
v -1792 -1984 0
v -1856 -1984 0
v -1920 -1984 0
v -1984 -1984 0
v -2048 -1984 0
v -2112 -1984 0
v -2176 -1984 0
v -2240 -1984 0
v -2304 -1984 0
v -2368 -1984 0
v -2432 -1984 0
v -2496 -1984 0
v -2560 -1984 0
v -2624 -1984 0
v -2688 -1984 0
v -1536 -2048 0
v -1600 -2048 0
v -1664 -2048 0
v -1728 -2048 0
v -1792 -2048 0
v -1856 -2048 0
v -1920 -2048 0
v -1984 -2048 0
v -2048 -2048 0
v -2112 -2048 0
v -2176 -2048 0
v -2240 -2048 0
v -2304 -2048 0
v -2368 -2048 0
v -2432 -2048 0
v -2496 -2048 0
v -2560 -2048 0
v -2624 -2048 0
v -2688 -2048 0
v -1536 -2112 0
v -1600 -2112 0
v -1664 -2112 0
v -1728 -2112 0
v -1792 -2112 0
v -1856 -2112 0
v -1920 -2112 0
v -1984 -2112 0
v -2048 -2112 0
v -2112 -2112 0
v -2176 -2112 0
v -2240 -2112 0
v -2304 -2112 0
v -2368 -2112 0
v -2432 -2112 0
v -2496 -2112 0
v -2560 -2112 0
v -2624 -2112 0
v -2688 -2112 0
v -1536 -2176 0
v -1600 -2176 0
v -1664 -2176 0
v -1728 -2176 0
v -1792 -2176 0
v -1856 -2176 0
v -1920 -2176 0
v -1984 -2176 0
v -2048 -2176 0
v -2112 -2176 0
v -2176 -2176 0
v -2240 -2176 0
v -2304 -2176 0
v -2368 -2176 0
v -2432 -2176 0
v -2496 -2176 0
v -2560 -2176 0
v -2624 -2176 0
v -2688 -2176 0
v -1536 -2240 0
v -1600 -2240 0
v -1664 -2240 0
v -1728 -2240 0
v -1792 -2240 0
v -1856 -2240 0
v -1920 -2240 0
v -1984 -2240 0
v -2048 -2240 0
v -2112 -2240 0
v -2176 -2240 0
v -2240 -2240 0
v -2304 -2240 0
v -2368 -2240 0
v -2432 -2240 0
v -2496 -2240 0
v -2560 -2240 0
v -2624 -2240 0
v -2688 -2240 0
v -1536 -2304 0
v -1600 -2304 0
v -1664 -2304 0
v -1728 -2304 0
v -1792 -2304 0
v -1856 -2304 0
v -1920 -2304 0
v -1984 -2304 0
v -2048 -2304 0
v -2112 -2304 0
v -2176 -2304 0
v -2240 -2304 0
v -2304 -2304 0
v -2368 -2304 0
v -2432 -2304 0
v -2496 -2304 0
v -2560 -2304 0
v -2624 -2304 0
v -2688 -2304 0
v -1536 -2368 0
v -1600 -2368 0
v -1664 -2368 0
v -1728 -2368 0
v -1792 -2368 0
v -1856 -2368 0
v -1920 -2368 0
v -1984 -2368 0
v -2048 -2368 0
v -2112 -2368 0
v -2176 -2368 0
v -2240 -2368 0
v -2304 -2368 0
v -2368 -2368 0
v -2432 -2368 0
v -2496 -2368 0
v -2560 -2368 0
v -2624 -2368 0
v -2688 -2368 0

# Texture Coorindates (Count = 20)
vt 0.0001220703 0.1876221
vt 0.06237793 0.1876221
vt 0.06237793 0.2498779
vt 0.0001220703 0.2498779
vt 0.0001220703 0.5626221
vt 0.06237793 0.5626221
vt 0.06237793 0.6248779
vt 0.0001220703 0.6248779
vt 0.2501221 0.5626221
vt 0.3123779 0.5626221
vt 0.3123779 0.6248779
vt 0.2501221 0.6248779
vt 0.8751221 0.8126221
vt 0.9373779 0.8126221
vt 0.9373779 0.8748779
vt 0.8751221 0.8748779
vt 0.06262207 0.5626221
vt 0.1248779 0.5626221
vt 0.1248779 0.6248779
vt 0.06262207 0.6248779

# Normal
vn 0 0 -1

# Groups (Count = 2)
g mesh_[00]_[00]
f  1/1/1  2/2/1  3/3/1  4/4/1 
f  2/1/1  5/2/1  6/3/1  3/4/1 
f  5/1/1  7/2/1  8/3/1  6/4/1 
f  7/1/1  9/2/1  10/3/1  8/4/1 
f  9/1/1  11/2/1  12/3/1  10/4/1 
f  11/1/1  13/2/1  14/3/1  12/4/1 
f  13/1/1  15/2/1  16/3/1  14/4/1 
f  15/1/1  17/2/1  18/3/1  16/4/1 
f  17/1/1  19/2/1  20/3/1  18/4/1 
f  19/1/1  21/2/1  22/3/1  20/4/1 
f  21/1/1  23/2/1  24/3/1  22/4/1 
f  23/1/1  25/2/1  26/3/1  24/4/1 
f  25/1/1  27/2/1  28/3/1  26/4/1 
f  27/1/1  29/2/1  30/3/1  28/4/1 
f  29/1/1  31/2/1  32/3/1  30/4/1 
f  31/1/1  33/2/1  34/3/1  32/4/1 
f  33/1/1  35/2/1  36/3/1  34/4/1 
f  35/1/1  37/2/1  38/3/1  36/4/1 
f  39/1/1  40/2/1  2/3/1  1/4/1 
f  40/1/1  41/2/1  5/3/1  2/4/1 
f  41/1/1  42/2/1  7/3/1  5/4/1 
f  42/1/1  43/2/1  9/3/1  7/4/1 
f  43/1/1  44/2/1  11/3/1  9/4/1 
f  44/1/1  45/2/1  13/3/1  11/4/1 
f  45/1/1  46/2/1  15/3/1  13/4/1 
f  46/1/1  47/2/1  17/3/1  15/4/1 
f  47/1/1  48/2/1  19/3/1  17/4/1 
f  48/1/1  49/2/1  21/3/1  19/4/1 
f  49/1/1  50/2/1  23/3/1  21/4/1 
f  50/1/1  51/2/1  25/3/1  23/4/1 
f  51/1/1  52/2/1  27/3/1  25/4/1 
f  52/1/1  53/2/1  29/3/1  27/4/1 
f  53/1/1  54/2/1  31/3/1  29/4/1 
f  54/1/1  55/2/1  33/3/1  31/4/1 
f  55/1/1  56/2/1  35/3/1  33/4/1 
f  56/1/1  57/2/1  37/3/1  35/4/1 
f  58/1/1  59/2/1  40/3/1  39/4/1 
f  59/1/1  60/2/1  41/3/1  40/4/1 
f  60/1/1  61/2/1  42/3/1  41/4/1 
f  61/1/1  62/2/1  43/3/1  42/4/1 
f  62/1/1  63/2/1  44/3/1  43/4/1 
f  63/1/1  64/2/1  45/3/1  44/4/1 
f  64/1/1  65/2/1  46/3/1  45/4/1 
f  65/1/1  66/2/1  47/3/1  46/4/1 
f  66/1/1  67/2/1  48/3/1  47/4/1 
f  67/1/1  68/2/1  49/3/1  48/4/1 
f  68/1/1  69/2/1  50/3/1  49/4/1 
f  69/1/1  70/2/1  51/3/1  50/4/1 
f  70/1/1  71/2/1  52/3/1  51/4/1 
f  71/1/1  72/2/1  53/3/1  52/4/1 
f  72/1/1  73/2/1  54/3/1  53/4/1 
f  73/1/1  74/2/1  55/3/1  54/4/1 
f  74/1/1  75/2/1  56/3/1  55/4/1 
f  75/1/1  76/2/1  57/3/1  56/4/1 
f  77/1/1  78/2/1  59/3/1  58/4/1 
f  78/1/1  79/2/1  60/3/1  59/4/1 
f  79/1/1  80/2/1  61/3/1  60/4/1 
f  80/1/1  81/2/1  62/3/1  61/4/1 
f  81/1/1  82/2/1  63/3/1  62/4/1 
f  82/1/1  83/2/1  64/3/1  63/4/1 
f  83/1/1  84/2/1  65/3/1  64/4/1 
f  84/1/1  85/2/1  66/3/1  65/4/1 
f  85/1/1  86/2/1  67/3/1  66/4/1 
f  86/1/1  87/2/1  68/3/1  67/4/1 
f  87/1/1  88/2/1  69/3/1  68/4/1 
f  88/1/1  89/2/1  70/3/1  69/4/1 
f  89/1/1  90/2/1  71/3/1  70/4/1 
f  90/1/1  91/2/1  72/3/1  71/4/1 
f  91/1/1  92/2/1  73/3/1  72/4/1 
f  92/1/1  93/2/1  74/3/1  73/4/1 
f  93/1/1  94/2/1  75/3/1  74/4/1 
f  94/1/1  95/2/1  76/3/1  75/4/1 
f  96/1/1  97/2/1  98/3/1  99/4/1 
f  97/1/1  100/2/1  101/3/1  98/4/1 
f  100/1/1  102/2/1  103/3/1  101/4/1 
f  102/1/1  104/2/1  105/3/1  103/4/1 
f  104/1/1  106/2/1  107/3/1  105/4/1 
f  106/1/1  108/2/1  109/3/1  107/4/1 
f  108/1/1  110/2/1  111/3/1  109/4/1 
f  110/1/1  112/2/1  113/3/1  111/4/1 
f  112/1/1  114/2/1  115/3/1  113/4/1 
f  114/1/1  116/2/1  117/3/1  115/4/1 
f  116/1/1  118/2/1  119/3/1  117/4/1 
f  118/1/1  120/2/1  121/3/1  119/4/1 
f  120/1/1  122/2/1  123/3/1  121/4/1 
f  122/1/1  124/2/1  125/3/1  123/4/1 
f  124/1/1  126/2/1  127/3/1  125/4/1 
f  126/1/1  128/2/1  129/3/1  127/4/1 
f  128/1/1  130/2/1  131/3/1  129/4/1 
f  130/1/1  132/2/1  133/3/1  131/4/1 
f  134/1/1  135/2/1  97/3/1  96/4/1 
f  135/1/1  136/2/1  100/3/1  97/4/1 
f  136/1/1  137/2/1  102/3/1  100/4/1 
f  137/1/1  138/2/1  104/3/1  102/4/1 
f  138/1/1  139/2/1  106/3/1  104/4/1 
f  139/1/1  140/2/1  108/3/1  106/4/1 
f  140/1/1  141/2/1  110/3/1  108/4/1 
f  141/1/1  142/2/1  112/3/1  110/4/1 
f  142/1/1  143/2/1  114/3/1  112/4/1 
f  143/1/1  144/2/1  116/3/1  114/4/1 
f  144/1/1  145/2/1  118/3/1  116/4/1 
f  145/1/1  146/2/1  120/3/1  118/4/1 
f  146/1/1  147/2/1  122/3/1  120/4/1 
f  147/1/1  148/2/1  124/3/1  122/4/1 
f  148/1/1  149/2/1  126/3/1  124/4/1 
f  149/1/1  150/2/1  128/3/1  126/4/1 
f  150/1/1  151/2/1  130/3/1  128/4/1 
f  151/1/1  152/2/1  132/3/1  130/4/1 
f  153/1/1  154/2/1  135/3/1  134/4/1 
f  154/1/1  155/2/1  136/3/1  135/4/1 
f  155/1/1  156/2/1  137/3/1  136/4/1 
f  156/1/1  157/2/1  138/3/1  137/4/1 
f  157/1/1  158/2/1  139/3/1  138/4/1 
f  158/1/1  159/2/1  140/3/1  139/4/1 
f  159/1/1  160/2/1  141/3/1  140/4/1 
f  160/1/1  161/2/1  142/3/1  141/4/1 
f  161/1/1  162/2/1  143/3/1  142/4/1 
f  162/1/1  163/2/1  144/3/1  143/4/1 
f  163/1/1  164/2/1  145/3/1  144/4/1 
f  164/1/1  165/2/1  146/3/1  145/4/1 
f  165/1/1  166/2/1  147/3/1  146/4/1 
f  166/1/1  167/2/1  148/3/1  147/4/1 
f  167/1/1  168/2/1  149/3/1  148/4/1 
f  168/1/1  169/2/1  150/3/1  149/4/1 
f  169/1/1  170/2/1  151/3/1  150/4/1 
f  170/1/1  171/2/1  152/3/1  151/4/1 
f  172/1/1  173/2/1  154/3/1  153/4/1 
f  173/1/1  174/2/1  155/3/1  154/4/1 
f  174/1/1  175/2/1  156/3/1  155/4/1 
f  175/1/1  176/2/1  157/3/1  156/4/1 
f  176/1/1  177/2/1  158/3/1  157/4/1 
f  177/1/1  178/2/1  159/3/1  158/4/1 
f  178/1/1  179/2/1  160/3/1  159/4/1 
f  179/1/1  180/2/1  161/3/1  160/4/1 
f  180/1/1  181/2/1  162/3/1  161/4/1 
f  181/1/1  182/2/1  163/3/1  162/4/1 
f  182/1/1  183/2/1  164/3/1  163/4/1 
f  183/1/1  184/2/1  165/3/1  164/4/1 
f  184/1/1  185/2/1  166/3/1  165/4/1 
f  185/1/1  186/2/1  167/3/1  166/4/1 
f  186/1/1  187/2/1  168/3/1  167/4/1 
f  187/1/1  188/2/1  169/3/1  168/4/1 
f  188/1/1  189/2/1  170/3/1  169/4/1 
f  189/1/1  190/2/1  171/3/1  170/4/1 
g mesh_[01]_[00]
f  1/5/1  2/6/1  3/7/1  4/8/1 
f  2/5/1  5/6/1  6/7/1  3/8/1 
f  5/5/1  7/6/1  8/7/1  6/8/1 
f  7/5/1  9/6/1  10/7/1  8/8/1 
f  9/5/1  11/6/1  12/7/1  10/8/1 
f  11/5/1  13/6/1  14/7/1  12/8/1 
f  13/5/1  15/6/1  16/7/1  14/8/1 
f  15/5/1  17/6/1  18/7/1  16/8/1 
f  17/5/1  19/6/1  20/7/1  18/8/1 
f  19/5/1  21/6/1  22/7/1  20/8/1 
f  21/5/1  23/6/1  24/7/1  22/8/1 
f  23/5/1  25/6/1  26/7/1  24/8/1 
f  25/5/1  27/6/1  28/7/1  26/8/1 
f  27/5/1  29/6/1  30/7/1  28/8/1 
f  29/5/1  31/6/1  32/7/1  30/8/1 
f  31/5/1  33/6/1  34/7/1  32/8/1 
f  33/5/1  35/6/1  36/7/1  34/8/1 
f  35/5/1  37/6/1  38/7/1  36/8/1 
f  39/5/1  40/6/1  2/7/1  1/8/1 
f  40/5/1  41/6/1  5/7/1  2/8/1 
f  41/5/1  42/6/1  7/7/1  5/8/1 
f  42/5/1  43/6/1  9/7/1  7/8/1 
f  43/5/1  44/6/1  11/7/1  9/8/1 
f  44/5/1  45/6/1  13/7/1  11/8/1 
f  45/5/1  46/6/1  15/7/1  13/8/1 
f  46/5/1  47/6/1  17/7/1  15/8/1 
f  47/5/1  48/6/1  19/7/1  17/8/1 
f  48/5/1  49/6/1  21/7/1  19/8/1 
f  49/5/1  50/6/1  23/7/1  21/8/1 
f  50/5/1  51/6/1  25/7/1  23/8/1 
f  51/5/1  52/6/1  27/7/1  25/8/1 
f  52/5/1  53/6/1  29/7/1  27/8/1 
f  53/5/1  54/6/1  31/7/1  29/8/1 
f  54/5/1  55/6/1  33/7/1  31/8/1 
f  55/5/1  56/6/1  35/7/1  33/8/1 
f  56/5/1  57/6/1  37/7/1  35/8/1 
f  58/5/1  59/6/1  40/7/1  39/8/1 
f  59/5/1  60/6/1  41/7/1  40/8/1 
f  60/5/1  61/6/1  42/7/1  41/8/1 
f  61/5/1  62/6/1  43/7/1  42/8/1 
f  62/5/1  63/6/1  44/7/1  43/8/1 
f  63/5/1  64/6/1  45/7/1  44/8/1 
f  64/5/1  65/6/1  46/7/1  45/8/1 
f  65/5/1  66/6/1  47/7/1  46/8/1 
f  66/5/1  67/6/1  48/7/1  47/8/1 
f  67/5/1  68/6/1  49/7/1  48/8/1 
f  68/5/1  69/6/1  50/7/1  49/8/1 
f  69/5/1  70/6/1  51/7/1  50/8/1 
f  70/5/1  71/6/1  52/7/1  51/8/1 
f  71/5/1  72/6/1  53/7/1  52/8/1 
f  72/5/1  73/6/1  54/7/1  53/8/1 
f  73/5/1  74/6/1  55/7/1  54/8/1 
f  74/5/1  75/6/1  56/7/1  55/8/1 
f  75/5/1  76/6/1  57/7/1  56/8/1 
f  77/9/1  78/10/1  59/11/1  58/12/1 
f  78/9/1  79/10/1  60/11/1  59/12/1 
f  79/9/1  80/10/1  61/11/1  60/12/1 
f  80/9/1  81/10/1  62/11/1  61/12/1 
f  81/9/1  82/10/1  63/11/1  62/12/1 
f  82/9/1  83/10/1  64/11/1  63/12/1 
f  83/9/1  84/10/1  65/11/1  64/12/1 
f  84/9/1  85/10/1  66/11/1  65/12/1 
f  85/9/1  86/10/1  67/11/1  66/12/1 
f  86/9/1  87/10/1  68/11/1  67/12/1 
f  87/9/1  88/10/1  69/11/1  68/12/1 
f  88/9/1  89/10/1  70/11/1  69/12/1 
f  89/9/1  90/10/1  71/11/1  70/12/1 
f  90/9/1  91/10/1  72/11/1  71/12/1 
f  91/9/1  92/10/1  73/11/1  72/12/1 
f  92/9/1  93/10/1  74/11/1  73/12/1 
f  93/9/1  94/10/1  75/11/1  74/12/1 
f  94/9/1  95/10/1  76/11/1  75/12/1 
f  191/13/1  192/14/1  78/15/1  77/16/1 
f  192/13/1  193/14/1  79/15/1  78/16/1 
f  193/13/1  194/14/1  80/15/1  79/16/1 
f  194/13/1  195/14/1  81/15/1  80/16/1 
f  195/13/1  196/14/1  82/15/1  81/16/1 
f  196/13/1  197/14/1  83/15/1  82/16/1 
f  197/13/1  198/14/1  84/15/1  83/16/1 
f  198/13/1  199/14/1  85/15/1  84/16/1 
f  199/13/1  200/14/1  86/15/1  85/16/1 
f  200/13/1  201/14/1  87/15/1  86/16/1 
f  201/13/1  202/14/1  88/15/1  87/16/1 
f  202/13/1  203/14/1  89/15/1  88/16/1 
f  203/13/1  204/14/1  90/15/1  89/16/1 
f  204/13/1  205/14/1  91/15/1  90/16/1 
f  205/13/1  206/14/1  92/15/1  91/16/1 
f  206/13/1  207/14/1  93/15/1  92/16/1 
f  207/13/1  208/14/1  94/15/1  93/16/1 
f  208/13/1  209/14/1  95/15/1  94/16/1 
f  210/13/1  211/14/1  192/15/1  191/16/1 
f  211/13/1  212/14/1  193/15/1  192/16/1 
f  212/13/1  213/14/1  194/15/1  193/16/1 
f  213/13/1  214/14/1  195/15/1  194/16/1 
f  214/13/1  215/14/1  196/15/1  195/16/1 
f  215/13/1  216/14/1  197/15/1  196/16/1 
f  216/13/1  217/14/1  198/15/1  197/16/1 
f  217/13/1  218/14/1  199/15/1  198/16/1 
f  218/13/1  219/14/1  200/15/1  199/16/1 
f  219/13/1  220/14/1  201/15/1  200/16/1 
f  220/13/1  221/14/1  202/15/1  201/16/1 
f  221/13/1  222/14/1  203/15/1  202/16/1 
f  222/13/1  223/14/1  204/15/1  203/16/1 
f  223/13/1  224/14/1  205/15/1  204/16/1 
f  224/13/1  225/14/1  206/15/1  205/16/1 
f  225/13/1  226/14/1  207/15/1  206/16/1 
f  226/13/1  227/14/1  208/15/1  207/16/1 
f  227/13/1  228/14/1  209/15/1  208/16/1 
f  229/13/1  230/14/1  211/15/1  210/16/1 
f  230/13/1  231/14/1  212/15/1  211/16/1 
f  231/13/1  232/14/1  213/15/1  212/16/1 
f  232/13/1  233/14/1  214/15/1  213/16/1 
f  233/13/1  234/14/1  215/15/1  214/16/1 
f  234/13/1  235/14/1  216/15/1  215/16/1 
f  235/13/1  236/14/1  217/15/1  216/16/1 
f  236/13/1  237/14/1  218/15/1  217/16/1 
f  237/13/1  238/14/1  219/15/1  218/16/1 
f  238/13/1  239/14/1  220/15/1  219/16/1 
f  239/13/1  240/14/1  221/15/1  220/16/1 
f  240/13/1  241/14/1  222/15/1  221/16/1 
f  241/13/1  242/14/1  223/15/1  222/16/1 
f  242/13/1  243/14/1  224/15/1  223/16/1 
f  243/13/1  244/14/1  225/15/1  224/16/1 
f  244/13/1  245/14/1  226/15/1  225/16/1 
f  245/13/1  246/14/1  227/15/1  226/16/1 
f  246/13/1  247/14/1  228/15/1  227/16/1 
f  248/13/1  249/14/1  230/15/1  229/16/1 
f  249/13/1  250/14/1  231/15/1  230/16/1 
f  250/13/1  251/14/1  232/15/1  231/16/1 
f  251/13/1  252/14/1  233/15/1  232/16/1 
f  252/13/1  253/14/1  234/15/1  233/16/1 
f  253/13/1  254/14/1  235/15/1  234/16/1 
f  254/13/1  255/14/1  236/15/1  235/16/1 
f  255/13/1  256/14/1  237/15/1  236/16/1 
f  256/13/1  257/14/1  238/15/1  237/16/1 
f  257/13/1  258/14/1  239/15/1  238/16/1 
f  258/13/1  259/14/1  240/15/1  239/16/1 
f  259/13/1  260/14/1  241/15/1  240/16/1 
f  260/13/1  261/14/1  242/15/1  241/16/1 
f  261/13/1  262/14/1  243/15/1  242/16/1 
f  262/13/1  263/14/1  244/15/1  243/16/1 
f  263/13/1  264/14/1  245/15/1  244/16/1 
f  264/13/1  265/14/1  246/15/1  245/16/1 
f  265/13/1  266/14/1  247/15/1  246/16/1 
f  267/13/1  268/14/1  249/15/1  248/16/1 
f  268/13/1  269/14/1  250/15/1  249/16/1 
f  269/13/1  270/14/1  251/15/1  250/16/1 
f  270/13/1  271/14/1  252/15/1  251/16/1 
f  271/13/1  272/14/1  253/15/1  252/16/1 
f  272/13/1  273/14/1  254/15/1  253/16/1 
f  273/13/1  274/14/1  255/15/1  254/16/1 
f  274/13/1  275/14/1  256/15/1  255/16/1 
f  275/13/1  276/14/1  257/15/1  256/16/1 
f  276/13/1  277/14/1  258/15/1  257/16/1 
f  277/13/1  278/14/1  259/15/1  258/16/1 
f  278/13/1  279/14/1  260/15/1  259/16/1 
f  279/13/1  280/14/1  261/15/1  260/16/1 
f  280/13/1  281/14/1  262/15/1  261/16/1 
f  281/13/1  282/14/1  263/15/1  262/16/1 
f  282/13/1  283/14/1  264/15/1  263/16/1 
f  283/13/1  284/14/1  265/15/1  264/16/1 
f  284/13/1  285/14/1  266/15/1  265/16/1 
f  286/13/1  287/14/1  268/15/1  267/16/1 
f  287/13/1  288/14/1  269/15/1  268/16/1 
f  288/13/1  289/14/1  270/15/1  269/16/1 
f  289/13/1  290/14/1  271/15/1  270/16/1 
f  290/13/1  291/14/1  272/15/1  271/16/1 
f  291/13/1  292/14/1  273/15/1  272/16/1 
f  292/13/1  293/14/1  274/15/1  273/16/1 
f  293/13/1  294/14/1  275/15/1  274/16/1 
f  294/13/1  295/14/1  276/15/1  275/16/1 
f  295/13/1  296/14/1  277/15/1  276/16/1 
f  296/13/1  297/14/1  278/15/1  277/16/1 
f  297/13/1  298/14/1  279/15/1  278/16/1 
f  298/13/1  299/14/1  280/15/1  279/16/1 
f  299/13/1  300/14/1  281/15/1  280/16/1 
f  300/13/1  301/14/1  282/15/1  281/16/1 
f  301/13/1  302/14/1  283/15/1  282/16/1 
f  302/13/1  303/14/1  284/15/1  283/16/1 
f  303/13/1  304/14/1  285/15/1  284/16/1 
f  305/13/1  306/14/1  287/15/1  286/16/1 
f  306/13/1  307/14/1  288/15/1  287/16/1 
f  307/13/1  308/14/1  289/15/1  288/16/1 
f  308/13/1  309/14/1  290/15/1  289/16/1 
f  309/13/1  310/14/1  291/15/1  290/16/1 
f  310/13/1  311/14/1  292/15/1  291/16/1 
f  311/13/1  312/14/1  293/15/1  292/16/1 
f  312/13/1  313/14/1  294/15/1  293/16/1 
f  313/13/1  314/14/1  295/15/1  294/16/1 
f  314/13/1  315/14/1  296/15/1  295/16/1 
f  315/13/1  316/14/1  297/15/1  296/16/1 
f  316/13/1  317/14/1  298/15/1  297/16/1 
f  317/13/1  318/14/1  299/15/1  298/16/1 
f  318/13/1  319/14/1  300/15/1  299/16/1 
f  319/13/1  320/14/1  301/15/1  300/16/1 
f  320/13/1  321/14/1  302/15/1  301/16/1 
f  321/13/1  322/14/1  303/15/1  302/16/1 
f  322/13/1  323/14/1  304/15/1  303/16/1 
f  324/13/1  325/14/1  306/15/1  305/16/1 
f  325/13/1  326/14/1  307/15/1  306/16/1 
f  326/13/1  327/14/1  308/15/1  307/16/1 
f  327/13/1  328/14/1  309/15/1  308/16/1 
f  328/13/1  329/14/1  310/15/1  309/16/1 
f  329/13/1  330/14/1  311/15/1  310/16/1 
f  330/13/1  331/14/1  312/15/1  311/16/1 
f  331/13/1  332/14/1  313/15/1  312/16/1 
f  332/13/1  333/14/1  314/15/1  313/16/1 
f  333/13/1  334/14/1  315/15/1  314/16/1 
f  334/13/1  335/14/1  316/15/1  315/16/1 
f  335/13/1  336/14/1  317/15/1  316/16/1 
f  336/13/1  337/14/1  318/15/1  317/16/1 
f  337/13/1  338/14/1  319/15/1  318/16/1 
f  338/13/1  339/14/1  320/15/1  319/16/1 
f  339/13/1  340/14/1  321/15/1  320/16/1 
f  340/13/1  341/14/1  322/15/1  321/16/1 
f  341/13/1  342/14/1  323/15/1  322/16/1 
f  343/13/1  344/14/1  325/15/1  324/16/1 
f  344/13/1  345/14/1  326/15/1  325/16/1 
f  345/13/1  346/14/1  327/15/1  326/16/1 
f  346/13/1  347/14/1  328/15/1  327/16/1 
f  347/13/1  348/14/1  329/15/1  328/16/1 
f  348/13/1  349/14/1  330/15/1  329/16/1 
f  349/13/1  350/14/1  331/15/1  330/16/1 
f  350/13/1  351/14/1  332/15/1  331/16/1 
f  351/13/1  352/14/1  333/15/1  332/16/1 
f  352/13/1  353/14/1  334/15/1  333/16/1 
f  353/13/1  354/14/1  335/15/1  334/16/1 
f  354/13/1  355/14/1  336/15/1  335/16/1 
f  355/13/1  356/14/1  337/15/1  336/16/1 
f  356/13/1  357/14/1  338/15/1  337/16/1 
f  357/13/1  358/14/1  339/15/1  338/16/1 
f  358/13/1  359/14/1  340/15/1  339/16/1 
f  359/13/1  360/14/1  341/15/1  340/16/1 
f  360/13/1  361/14/1  342/15/1  341/16/1 
f  99/13/1  98/14/1  344/15/1  343/16/1 
f  98/13/1  101/14/1  345/15/1  344/16/1 
f  101/13/1  103/14/1  346/15/1  345/16/1 
f  103/13/1  105/14/1  347/15/1  346/16/1 
f  105/13/1  107/14/1  348/15/1  347/16/1 
f  107/13/1  109/14/1  349/15/1  348/16/1 
f  109/13/1  111/14/1  350/15/1  349/16/1 
f  111/13/1  113/14/1  351/15/1  350/16/1 
f  113/13/1  115/14/1  352/15/1  351/16/1 
f  115/13/1  117/14/1  353/15/1  352/16/1 
f  117/13/1  119/14/1  354/15/1  353/16/1 
f  119/13/1  121/14/1  355/15/1  354/16/1 
f  121/13/1  123/14/1  356/15/1  355/16/1 
f  123/13/1  125/14/1  357/15/1  356/16/1 
f  125/13/1  127/14/1  358/15/1  357/16/1 
f  127/13/1  129/14/1  359/15/1  358/16/1 
f  129/13/1  131/14/1  360/15/1  359/16/1 
f  131/13/1  133/14/1  361/15/1  360/16/1 
f  96/17/1  97/18/1  98/19/1  99/20/1 
f  97/17/1  100/18/1  101/19/1  98/20/1 
f  100/17/1  102/18/1  103/19/1  101/20/1 
f  102/17/1  104/18/1  105/19/1  103/20/1 
f  104/17/1  106/18/1  107/19/1  105/20/1 
f  106/17/1  108/18/1  109/19/1  107/20/1 
f  108/17/1  110/18/1  111/19/1  109/20/1 
f  110/17/1  112/18/1  113/19/1  111/20/1 
f  112/17/1  114/18/1  115/19/1  113/20/1 
f  114/17/1  116/18/1  117/19/1  115/20/1 
f  116/17/1  118/18/1  119/19/1  117/20/1 
f  118/17/1  120/18/1  121/19/1  119/20/1 
f  120/17/1  122/18/1  123/19/1  121/20/1 
f  122/17/1  124/18/1  125/19/1  123/20/1 
f  124/17/1  126/18/1  127/19/1  125/20/1 
f  126/17/1  128/18/1  129/19/1  127/20/1 
f  128/17/1  130/18/1  131/19/1  129/20/1 
f  130/17/1  132/18/1  133/19/1  131/20/1 
f  134/5/1  135/6/1  97/7/1  96/8/1 
f  135/5/1  136/6/1  100/7/1  97/8/1 
f  136/5/1  137/6/1  102/7/1  100/8/1 
f  137/5/1  138/6/1  104/7/1  102/8/1 
f  138/5/1  139/6/1  106/7/1  104/8/1 
f  139/5/1  140/6/1  108/7/1  106/8/1 
f  140/5/1  141/6/1  110/7/1  108/8/1 
f  141/5/1  142/6/1  112/7/1  110/8/1 
f  142/5/1  143/6/1  114/7/1  112/8/1 
f  143/5/1  144/6/1  116/7/1  114/8/1 
f  144/5/1  145/6/1  118/7/1  116/8/1 
f  145/5/1  146/6/1  120/7/1  118/8/1 
f  146/5/1  147/6/1  122/7/1  120/8/1 
f  147/5/1  148/6/1  124/7/1  122/8/1 
f  148/5/1  149/6/1  126/7/1  124/8/1 
f  149/5/1  150/6/1  128/7/1  126/8/1 
f  150/5/1  151/6/1  130/7/1  128/8/1 
f  151/5/1  152/6/1  132/7/1  130/8/1 
f  153/5/1  154/6/1  135/7/1  134/8/1 
f  154/5/1  155/6/1  136/7/1  135/8/1 
f  155/5/1  156/6/1  137/7/1  136/8/1 
f  156/5/1  157/6/1  138/7/1  137/8/1 
f  157/5/1  158/6/1  139/7/1  138/8/1 
f  158/5/1  159/6/1  140/7/1  139/8/1 
f  159/5/1  160/6/1  141/7/1  140/8/1 
f  160/5/1  161/6/1  142/7/1  141/8/1 
f  161/5/1  162/6/1  143/7/1  142/8/1 
f  162/5/1  163/6/1  144/7/1  143/8/1 
f  163/5/1  164/6/1  145/7/1  144/8/1 
f  164/5/1  165/6/1  146/7/1  145/8/1 
f  165/5/1  166/6/1  147/7/1  146/8/1 
f  166/5/1  167/6/1  148/7/1  147/8/1 
f  167/5/1  168/6/1  149/7/1  148/8/1 
f  168/5/1  169/6/1  150/7/1  149/8/1 
f  169/5/1  170/6/1  151/7/1  150/8/1 
f  170/5/1  171/6/1  152/7/1  151/8/1 
f  172/5/1  173/6/1  154/7/1  153/8/1 
f  173/5/1  174/6/1  155/7/1  154/8/1 
f  174/5/1  175/6/1  156/7/1  155/8/1 
f  175/5/1  176/6/1  157/7/1  156/8/1 
f  176/5/1  177/6/1  158/7/1  157/8/1 
f  177/5/1  178/6/1  159/7/1  158/8/1 
f  178/5/1  179/6/1  160/7/1  159/8/1 
f  179/5/1  180/6/1  161/7/1  160/8/1 
f  180/5/1  181/6/1  162/7/1  161/8/1 
f  181/5/1  182/6/1  163/7/1  162/8/1 
f  182/5/1  183/6/1  164/7/1  163/8/1 
f  183/5/1  184/6/1  165/7/1  164/8/1 
f  184/5/1  185/6/1  166/7/1  165/8/1 
f  185/5/1  186/6/1  167/7/1  166/8/1 
f  186/5/1  187/6/1  168/7/1  167/8/1 
f  187/5/1  188/6/1  169/7/1  168/8/1 
f  188/5/1  189/6/1  170/7/1  169/8/1 
f  189/5/1  190/6/1  171/7/1  170/8/1 
