# Wavefront OBJ file automatically generated by Tiled2Unity

# Vertices (Count = 8)
v -1920 -2240 0
v -1984 -2240 0
v -1984 -2176 0
v -1920 -2176 0
v -2048 -2240 0
v -2048 -2176 0
v -2112 -2240 0
v -2112 -2176 0

# Texture Coorindates (Count = 12)
vt 0.8751221 0.5626221
vt 0.9373779 0.5626221
vt 0.9373779 0.6248779
vt 0.8751221 0.6248779
vt 0.8126221 0.5626221
vt 0.8748779 0.5626221
vt 0.8748779 0.6248779
vt 0.8126221 0.6248779
vt 0.9376221 0.5626221
vt 0.9998779 0.5626221
vt 0.9998779 0.6248779
vt 0.9376221 0.6248779

# Normal
vn 0 0 -1

# Groups (Count = 1)
g mesh_[02]_[00]
f  1/1/1  2/2/1  3/3/1  4/4/1 
f  2/5/1  5/6/1  6/7/1  3/8/1 
f  5/9/1  7/10/1  8/11/1  6/12/1 
